<?xml version="1.0" standalone="no"?>
<!DOCTYPE svg PUBLIC "-//W3C//DTD SVG 1.1//EN" "http://www.w3.org/Graphics/SVG/1.1/DTD/svg11.dtd" >
<svg xmlns="http://www.w3.org/2000/svg" xmlns:xlink="http://www.w3.org/1999/xlink" version="1.1">
<metadata>
Created by FontForge 20190801 at Fri Nov 28 12:23:40 2014
 By Jimmy Wärting
(c) 2014 Sergiy S. Tkachenko / 4th february
(c) 2014 FirstSiteGuide.com
http://creativecommons.org/licenses/by-nd/4.0/
</metadata>
<defs>
<font id="BloggerSans-LightItalic" horiz-adv-x="250" >
  <font-face 
    font-family="Blogger Sans Light"
    font-weight="300"
    font-style="italic"
    font-stretch="squinchy"
    units-per-em="1000"
    panose-1="2 0 5 6 3 0 0 2 0 4"
    ascent="760"
    descent="-240"
    x-height="505"
    cap-height="705"
    bbox="-69.1032 -244 874 945"
    underline-thickness="20"
    underline-position="-143"
    stemh="75"
    stemv="78"
    unicode-range="U+0020-F0434"
  />
<missing-glyph horiz-adv-x="760" 
 />
    <glyph glyph-name="ff" unicode="ff" horiz-adv-x="598" 
d="M331 -176l101 722c18 126 100 183 200 187c15 1 80 1 80 -35c0 -21 -17 -34 -35 -34c-9 0 -17 1 -22 2c-14 2 -27 5 -40 5c-66 0 -108 -54 -117 -117l-10 -71h116c15 0 25 -11 25 -27c0 -18 -17 -33 -33 -33h-116l-84 -599c-3 -18 -15 -31 -37 -31c-21 0 -31 13 -28 31z
M54 -176l101 722c18 126 99 183 199 187c16 1 81 1 81 -35c0 -21 -18 -34 -35 -34c-9 0 -18 1 -23 2c-13 2 -27 5 -39 5c-66 0 -108 -54 -117 -117l-10 -71h116c15 0 24 -11 24 -27c0 -18 -16 -33 -32 -33h-116l-84 -599c-3 -18 -15 -31 -37 -31c-21 0 -31 13 -28 31z" />
    <glyph glyph-name="fi" unicode="fi" horiz-adv-x="517" 
d="M55 -175l101 721c18 126 91 183 179 187c15 1 80 1 80 -35c0 -21 -17 -34 -35 -34c-10 0 -17 1 -22 2c-14 2 -28 5 -40 5c-52 0 -87 -54 -96 -117l-10 -71h116c14 0 25 -11 25 -27c0 -18 -16 -33 -33 -33h-116l-84 -598c-3 -18 -16 -31 -37 -31s-31 13 -28 31zM547 686
c0 -25 -23 -46 -47 -46c-22 0 -37 17 -37 36c0 26 23 47 49 47c20 0 35 -16 35 -37zM390 90l55 389c2 18 18 33 37 33c17 0 30 -15 28 -33l-55 -389c-3 -23 -1 -39 9 -54c1 -2 2 -8 2 -12c0 -17 -14 -31 -33 -31c-22 0 -55 11 -43 97z" />
    <glyph glyph-name="fl" unicode="fl" horiz-adv-x="517" 
d="M55 -177l101 723c18 126 91 183 179 187c15 1 80 1 80 -35c0 -21 -16 -34 -35 -34c-9 0 -17 1 -22 2c-14 2 -27 5 -39 5c-52 0 -88 -54 -97 -117l-10 -71h116c15 0 25 -11 25 -27c0 -18 -16 -33 -33 -33h-116l-84 -600c-3 -18 -16 -31 -37 -31s-31 13 -28 31zM390 90
l85 602c2 17 18 33 36 33s30 -15 28 -33l-85 -602c-3 -23 -1 -40 10 -54c2 -2 3 -8 3 -12c0 -17 -15 -31 -34 -31c-22 0 -55 11 -43 97z" />
    <glyph glyph-name="ffi" unicode="ffi" horiz-adv-x="754" 
d="M319 -176l101 722c18 126 91 183 179 187c11 1 60 1 60 -34c0 -22 -17 -35 -35 -35c-6 0 -9 1 -13 2c-10 2 -19 5 -28 5c-52 0 -88 -54 -97 -117l-10 -71h116c15 0 25 -11 25 -27c0 -18 -16 -33 -33 -33h-116l-84 -599c-3 -18 -16 -31 -37 -31s-31 13 -28 31zM54 -176
l101 722c18 126 99 183 199 187c15 1 80 1 80 -35c0 -21 -16 -34 -35 -34c-9 0 -17 1 -22 2c-14 2 -27 5 -40 5c-65 0 -107 -54 -116 -117l-10 -71h115c14 0 25 -11 25 -27c0 -18 -17 -33 -33 -33h-115l-84 -599c-3 -18 -16 -31 -37 -31c-22 0 -31 13 -28 31zM791 686
c0 -25 -23 -46 -47 -46c-22 0 -36 17 -36 36c0 26 22 47 48 47c20 0 35 -16 35 -37zM634 90l55 389c2 18 18 33 37 33c17 0 30 -15 28 -33l-55 -389c-3 -23 -1 -39 9 -54c1 -2 3 -8 3 -12c0 -17 -15 -31 -34 -31c-22 0 -55 11 -43 97z" />
    <glyph glyph-name="ffl" unicode="ffl" horiz-adv-x="785" 
d="M329 -176l101 722c18 126 91 183 179 187c15 1 81 1 81 -35c0 -21 -18 -34 -35 -34c-10 0 -18 1 -23 2c-13 2 -27 5 -39 5c-52 0 -88 -54 -97 -117l-10 -71h116c15 0 25 -11 25 -27c0 -18 -16 -33 -33 -33h-116l-84 -599c-3 -18 -16 -31 -37 -31s-31 13 -28 31zM664 90
l86 610c2 17 19 33 37 33s30 -15 28 -33l-86 -610c-3 -23 -2 -40 10 -54c2 -2 3 -8 3 -12c0 -17 -15 -31 -34 -31c-23 0 -56 11 -44 97zM53 -176l101 722c18 126 99 183 199 187c16 1 81 1 81 -35c0 -21 -16 -34 -35 -34c-9 0 -17 1 -23 2c-13 2 -26 5 -39 5
c-66 0 -108 -54 -117 -117l-10 -71h116c15 0 24 -11 24 -27c0 -18 -16 -33 -32 -33h-116l-84 -599c-3 -18 -15 -31 -37 -31c-21 0 -31 13 -28 31z" />
    <glyph glyph-name="uni0457_uni0457" unicode="&#x457;&#x457;" horiz-adv-x="480" 
d="M159 25c-2 -18 -19 -32 -36 -32c-19 0 -31 14 -29 32l64 454c3 18 19 33 38 33c17 0 30 -15 27 -33zM377 636c0 -29 -26 -53 -53 -53c-24 0 -42 19 -42 43c0 26 27 51 55 51c23 0 40 -18 40 -41zM162 636c0 -29 -25 -53 -53 -53c-24 0 -40 19 -40 42c0 27 25 52 53 52
c24 0 40 -18 40 -41zM394 25c-2 -18 -19 -32 -36 -32c-19 0 -31 14 -29 32l64 454c3 18 19 33 38 33c17 0 30 -15 27 -33zM591 636c0 -29 -26 -53 -53 -53c-24 0 -42 19 -42 43c0 26 27 51 55 51c23 0 40 -18 40 -41z" />
    <glyph glyph-name=".notdef" horiz-adv-x="760" 
 />
    <glyph glyph-name="space" unicode=" " horiz-adv-x="300" 
 />
    <glyph glyph-name="exclam" unicode="!" horiz-adv-x="227" 
d="M119 199l57 484c2 17 21 33 39 33c19 0 30 -16 29 -33l-79 -484c-2 -13 -14 -24 -26 -24c-13 0 -22 11 -20 24zM168 44c0 -29 -25 -53 -53 -53c-24 0 -42 18 -42 42c0 28 27 53 55 53c24 0 40 -19 40 -42z" />
    <glyph glyph-name="quotedbl" unicode="&#x22;" horiz-adv-x="342" 
d="M130 487l65 249c7 15 25 27 44 24c19 -2 30 -18 23 -34l-92 -247c-3 -10 -16 -17 -26 -18c-10 3 -17 16 -14 26zM263 487l65 249c7 15 25 27 44 24c19 -2 29 -18 23 -34l-92 -247c-3 -10 -16 -17 -26 -18c-11 3 -17 16 -14 26z" />
    <glyph glyph-name="numbersign" unicode="#" horiz-adv-x="541" 
d="M177 479h68l77 211c6 14 19 23 34 23c13 -3 24 -15 21 -30l-1 -7l-72 -197h125l77 211c6 13 18 22 32 23c16 -2 26 -14 23 -30l-1 -7l-72 -197h45c15 0 28 -12 28 -29c0 -19 -18 -35 -37 -35h-59l-44 -120h55c16 0 28 -12 28 -28c0 -20 -17 -36 -37 -36h-69l-77 -214
c-6 -14 -19 -23 -34 -23l1 -1c-14 2 -24 13 -24 28c0 5 2 9 3 11l72 199h-125l-77 -214c-6 -14 -19 -23 -34 -23l1 -1c-14 2 -24 13 -24 28c0 5 2 9 3 11l72 199h-43c-17 0 -29 12 -29 28c0 20 20 36 38 36h57l44 120h-54c-16 0 -28 12 -28 28c0 20 20 36 37 36zM281 415
l-44 -120h125l43 120h-124z" />
    <glyph glyph-name="dollar" unicode="$" horiz-adv-x="500" 
d="M229 -36l8 56c-67 2 -171 20 -171 66c0 17 18 36 36 36c6 0 21 -7 32 -12c23 -10 56 -21 112 -24l34 245c-77 27 -155 59 -155 157c0 114 81 186 205 197l8 57c1 10 12 19 23 19c10 0 16 -9 15 -19l-8 -57c56 -5 141 -18 141 -59c0 -17 -15 -33 -37 -33
c-13 0 -25 4 -35 9c-16 7 -38 13 -78 18l-33 -233c77 -27 156 -60 156 -158c0 -117 -90 -191 -207 -208l-8 -57c-2 -10 -11 -18 -21 -18c-11 0 -19 8 -17 18zM409 217c0 50 -26 72 -49 83c-7 3 -15 8 -44 18l-32 -231c83 14 125 59 125 130zM248 418c10 -5 31 -14 42 -20
l31 221c-66 -9 -125 -39 -125 -117c0 -52 31 -73 52 -84z" />
    <glyph glyph-name="percent" unicode="%" horiz-adv-x="703" 
d="M253 406c-76 0 -117 56 -117 130c0 98 60 181 161 181c78 0 116 -56 116 -130c0 -99 -58 -181 -160 -181zM513 -9c-78 0 -117 55 -117 130c0 98 60 181 161 181c77 0 116 -56 116 -130c0 -99 -59 -181 -160 -181zM648 674l-437 -661v1c-10 -14 -24 -19 -37 -16h1
c-14 6 -21 22 -14 38v-1l5 8l437 660v-1c10 13 24 19 37 14c9 -3 14 -15 14 -26c0 -14 -5 -15 -6 -16zM260 454c71 0 100 56 100 133c0 51 -22 82 -70 82c-68 0 -99 -54 -99 -131c0 -53 22 -84 69 -84zM520 39c68 0 99 55 99 133c0 51 -22 82 -69 82
c-67 0 -100 -52 -100 -131c0 -53 22 -84 70 -84z" />
    <glyph glyph-name="ampersand" unicode="&#x26;" horiz-adv-x="642" 
d="M600 28c0 -20 -17 -37 -35 -37c-14 0 -20 7 -28 18l-59 84c-60 -54 -132 -102 -223 -102c-111 0 -180 71 -180 164c0 119 98 188 190 238c-40 51 -66 104 -66 154c0 102 95 167 189 167c83 0 141 -57 141 -115c0 -26 -19 -41 -37 -41c-14 0 -23 11 -25 24
c-5 37 -36 75 -84 75c-59 0 -120 -42 -120 -106c0 -39 29 -83 64 -132l163 -226c39 50 64 91 87 129c12 20 19 21 31 21c15 0 26 -12 26 -27c0 -39 -61 -120 -108 -174l69 -99c3 -4 5 -9 5 -15zM445 142l-149 204c-76 -38 -156 -89 -156 -178c0 -65 43 -119 117 -119
c72 0 133 40 188 93z" />
    <glyph glyph-name="quotesingle" unicode="'" horiz-adv-x="222" 
d="M131 487l65 249c7 15 25 27 44 24c19 -2 29 -18 23 -34l-92 -247c-3 -10 -16 -17 -27 -18c-10 3 -16 16 -13 26z" />
    <glyph glyph-name="parenleft" unicode="(" horiz-adv-x="276" 
d="M160 121c0 -101 17 -222 50 -307c2 -6 7 -17 7 -22c0 -16 -12 -36 -36 -36c-11 0 -22 6 -26 15c-42 95 -61 230 -61 342c0 191 69 389 187 553c8 10 19 17 30 17c19 0 26 -16 26 -31c0 -11 -7 -21 -13 -29c-101 -149 -164 -326 -164 -502z" />
    <glyph glyph-name="parenright" unicode=")" horiz-adv-x="275" 
d="M219 320c0 101 -16 219 -50 303c-3 8 -7 19 -7 23c0 15 14 37 37 37c11 0 19 -7 25 -17c42 -94 61 -228 61 -340c0 -190 -68 -392 -187 -555c-7 -10 -18 -15 -29 -15c-19 0 -28 14 -28 30c0 8 8 19 14 28c103 152 164 328 164 506z" />
    <glyph glyph-name="asterisk" unicode="*" horiz-adv-x="495" 
d="M477 599v-1c6 -17 -9 -30 -22 -36l-130 -36l84 -106c8 -12 11 -30 -5 -41c-15 -11 -32 -3 -40 7l-74 115l-75 -114c-9 -11 -26 -17 -41 -8c-14 10 -13 30 -4 41l85 106l-131 36c-13 6 -26 21 -21 37c6 19 23 22 37 17l128 -48l-7 135c-1 15 8 31 29 31
c20 0 29 -16 28 -31l-7 -135l127 48c14 5 32 2 39 -17z" />
    <glyph glyph-name="plus" unicode="+" horiz-adv-x="500" 
d="M260 141v182h-171c-18 0 -32 14 -32 32s16 32 32 32h171v181c0 16 14 33 33 33c17 0 31 -15 31 -33v-181h172c16 0 32 -14 32 -32s-15 -32 -32 -32h-172v-182c0 -17 -14 -32 -31 -32c-19 0 -33 16 -33 32z" />
    <glyph glyph-name="comma" unicode="," horiz-adv-x="230" 
d="M168 44c0 -58 -66 -165 -92 -165c-6 0 -12 2 -12 9c0 13 11 26 24 45c8 12 16 20 30 56c-26 3 -45 21 -45 45c0 27 27 52 55 52c24 0 40 -19 40 -42z" />
    <glyph glyph-name="hyphen" unicode="-" horiz-adv-x="399" 
d="M397 294c0 -16 -12 -28 -28 -28h-255c-17 0 -30 12 -30 28c0 17 13 31 30 31h255c16 0 28 -14 28 -31z" />
    <glyph glyph-name="period" unicode="." horiz-adv-x="230" 
d="M168 44c0 -29 -25 -53 -53 -53c-24 0 -42 18 -42 42c0 28 27 53 55 53c24 0 40 -19 40 -42z" />
    <glyph glyph-name="slash" unicode="/" horiz-adv-x="280" 
d="M403 720l-368 -744c-7 -14 -22 -22 -37 -20c-13 2 -21 15 -21 29c0 9 3 13 4 15l367 740c7 14 22 21 36 19c17 -3 25 -22 19 -39z" />
    <glyph glyph-name="zero" unicode="0" horiz-adv-x="500" 
d="M346 667c-95 0 -142 -66 -155 -159l-44 -313c-12 -86 27 -144 113 -144c85 0 139 58 151 144l44 313c13 93 -15 159 -109 159zM355 726c137 0 182 -102 165 -226l-43 -305c-16 -114 -99 -204 -226 -204c-128 0 -186 90 -170 204l43 305c17 124 93 226 231 226z" />
    <glyph glyph-name="one" unicode="1" horiz-adv-x="500" 
d="M285 25l85 606l-149 -87c-14 -10 -32 -19 -44 -19c-13 0 -25 11 -25 24s8 24 20 32l219 129c8 4 14 6 21 6c21 0 34 -16 31 -37l-92 -654c-2 -18 -18 -33 -37 -33c-18 0 -31 15 -29 33z" />
    <glyph glyph-name="two" unicode="2" horiz-adv-x="500" 
d="M458 35c0 -19 -17 -34 -37 -34h-336c-18 0 -30 13 -30 31c0 15 5 29 12 41c48 84 136 163 210 226c36 31 74 62 105 93c40 40 78 89 78 158c0 67 -37 117 -115 117c-38 0 -74 -8 -104 -20c-7 -3 -20 -10 -29 -16c-11 -6 -24 -12 -33 -12c-14 0 -27 11 -27 26
c0 14 11 27 28 37c53 30 112 44 174 44c112 0 173 -71 173 -163c0 -89 -41 -152 -100 -208c-36 -37 -67 -63 -96 -87c-72 -60 -143 -123 -194 -205h293c17 0 28 -12 28 -28z" />
    <glyph glyph-name="three" unicode="3" horiz-adv-x="500" 
d="M506 642l-213 -232c110 -3 187 -63 187 -167c0 -106 -78 -251 -243 -251c-38 0 -171 9 -171 63c0 19 16 36 35 36c4 0 10 -2 17 -6c32 -17 64 -35 124 -35c130 0 171 110 171 187c0 82 -53 116 -128 116c-14 0 -26 -3 -38 -8c-14 -6 -18 -5 -25 -5c-21 0 -32 29 -13 49
l228 250h-244c-17 0 -28 12 -28 28c0 20 17 38 37 38h286c18 0 30 -13 30 -33c0 -16 -5 -23 -12 -30z" />
    <glyph glyph-name="four" unicode="4" horiz-adv-x="500" 
d="M423 153l-18 -129c-2 -18 -19 -32 -36 -32c-18 0 -31 14 -29 32l18 129h-262c-19 0 -30 15 -30 32c0 5 5 18 12 29l265 491c8 10 21 19 31 19c13 0 27 -13 27 -30c0 -7 -1 -11 -3 -14l-252 -465h221l29 207c3 18 20 33 38 33c17 0 30 -15 27 -33l-29 -207h52
c15 0 25 -13 25 -28c0 -18 -16 -34 -34 -34h-52z" />
    <glyph glyph-name="five" unicode="5" horiz-adv-x="500" 
d="M481 256c0 -118 -75 -264 -233 -264c-40 0 -182 9 -182 63c0 19 16 36 35 36c4 0 10 -2 17 -6v1c26 -18 58 -36 114 -36c142 0 182 110 182 198c0 87 -48 129 -115 129c-31 0 -57 -9 -82 -22l-23 -14c-10 -7 -20 -13 -32 -13c-19 0 -33 15 -29 36l53 305
c5 25 26 38 45 38h246c18 0 35 -7 35 -28c0 -24 -23 -33 -43 -33h-228l-42 -242c40 21 76 30 110 30c104 0 172 -66 172 -178z" />
    <glyph glyph-name="six" unicode="6" horiz-adv-x="500" 
d="M169 385c48 35 105 47 153 47c97 0 170 -61 170 -179c0 -136 -82 -262 -239 -262c-126 0 -170 100 -170 241c0 274 91 484 282 484c32 0 142 -6 142 -46c0 -15 -15 -32 -33 -32c-7 0 -13 2 -20 4c-22 7 -52 16 -84 16c-131 0 -180 -121 -201 -273zM156 308l-4 -28
c-16 -118 -7 -225 114 -225c120 0 160 102 160 190c0 84 -46 125 -116 125c-59 0 -120 -27 -154 -62z" />
    <glyph glyph-name="seven" unicode="7" horiz-adv-x="500" 
d="M544 676c0 -6 -3 -16 -6 -23l-345 -641c-7 -13 -20 -20 -32 -20c-17 0 -30 11 -30 27c0 3 1 9 5 18v-1l329 606h-288c-14 0 -27 12 -27 28c0 21 18 37 37 37h327c18 0 30 -13 30 -31z" />
    <glyph glyph-name="eight" unicode="8" horiz-adv-x="500" 
d="M498 214c0 -125 -108 -223 -247 -223c-116 0 -194 73 -194 174c0 100 73 164 162 208c-50 34 -86 83 -86 147c0 118 103 195 219 195c99 0 170 -62 170 -153c0 -77 -49 -136 -132 -183c62 -36 108 -89 108 -165zM456 552c0 63 -46 106 -111 106c-81 0 -148 -56 -148 -135
c0 -64 52 -106 116 -118c76 16 143 71 143 147zM433 209c0 78 -65 122 -136 136c-94 -18 -174 -78 -174 -170c0 -72 56 -125 137 -125c97 0 173 71 173 159z" />
    <glyph glyph-name="nine" unicode="9" horiz-adv-x="500" 
d="M437 335c-42 -45 -106 -60 -155 -60c-96 0 -171 58 -171 179c0 133 77 262 237 262c125 0 171 -98 171 -245c0 -272 -77 -480 -280 -480c-32 0 -143 6 -143 46c0 15 17 32 34 32c4 0 11 -2 20 -5c25 -7 56 -15 95 -15c123 0 170 130 192 286zM448 397l4 29
c18 128 -8 226 -117 226c-116 0 -157 -104 -157 -192c0 -83 45 -123 118 -123c59 0 117 26 152 60z" />
    <glyph glyph-name="colon" unicode=":" horiz-adv-x="230" 
d="M168 44c0 -29 -25 -53 -53 -53c-24 0 -42 18 -42 42c0 28 27 53 55 53c24 0 40 -19 40 -42zM210 344c0 -29 -25 -53 -53 -53c-24 0 -42 18 -42 42c0 28 27 53 55 53c24 0 40 -19 40 -42z" />
    <glyph glyph-name="semicolon" unicode=";" horiz-adv-x="230" 
d="M168 44c0 -58 -66 -165 -92 -165c-6 0 -12 2 -12 9c0 13 11 26 24 45c8 12 16 20 30 56c-26 3 -45 21 -45 45c0 27 27 52 55 52c24 0 40 -19 40 -42zM210 344c0 -29 -25 -53 -53 -53c-24 0 -42 18 -42 42c0 28 27 53 55 53c24 0 40 -19 40 -42z" />
    <glyph glyph-name="less" unicode="&#x3c;" horiz-adv-x="625" 
d="M203 353l353 -192c11 -6 20 -17 20 -27c0 -23 -26 -45 -46 -34l-381 214c-13 7 -27 17 -27 35c0 25 16 33 37 43l440 214c22 6 39 -7 39 -28c0 -14 -13 -28 -28 -34z" />
    <glyph glyph-name="equal" unicode="=" horiz-adv-x="500" 
d="M130 295h325c16 0 32 -14 32 -32s-14 -32 -32 -32h-325c-18 0 -32 14 -32 32s16 32 32 32zM130 479h325c16 0 32 -14 32 -32s-14 -32 -32 -32h-325c-18 0 -32 14 -32 32s16 32 32 32z" />
    <glyph glyph-name="greater" unicode="&#x3e;" horiz-adv-x="625" 
d="M138 161l380 192l-380 191c-15 7 -25 18 -25 30c0 23 23 43 43 32l412 -214c16 -8 29 -16 29 -39c0 -22 -14 -31 -30 -39l-411 -214c-20 -11 -43 9 -43 32c0 11 10 22 25 29z" />
    <glyph glyph-name="question" unicode="?" horiz-adv-x="462" 
d="M304 250c-8 -13 -11 -29 -13 -43c-2 -17 -18 -32 -37 -32c-17 0 -29 13 -29 29c0 15 5 29 11 40c21 43 56 78 90 110c13 13 26 25 38 38c38 40 78 89 78 157s-38 118 -116 118c-37 0 -73 -8 -103 -20c-7 -3 -20 -11 -29 -16c-11 -7 -24 -12 -33 -12c-15 0 -28 11 -28 27
c0 14 12 26 29 36c53 30 112 44 173 44c113 0 174 -71 174 -163c0 -89 -42 -152 -100 -208c-24 -25 -27 -26 -38 -35c-26 -23 -51 -44 -67 -70zM282 44c0 -29 -25 -53 -53 -53c-24 0 -42 18 -42 42c0 28 27 53 55 53c24 0 40 -19 40 -42z" />
    <glyph glyph-name="at" unicode="@" horiz-adv-x="744" 
d="M518 14c-36 -16 -98 -26 -154 -26c-164 0 -257 111 -257 273c0 213 133 374 356 374c180 0 269 -119 269 -269c0 -107 -36 -204 -143 -204c-43 0 -69 18 -86 47c-46 -41 -84 -57 -121 -57c-72 0 -109 57 -109 133c0 109 63 189 171 189c85 0 110 -61 110 -174
c0 -35 6 -79 44 -79c39 0 67 37 67 135c0 127 -68 220 -209 220c-179 0 -284 -132 -284 -310c0 -131 72 -220 214 -220c57 0 91 12 114 22c13 5 16 7 21 8c13 4 35 -2 38 -18c3 -20 -21 -35 -41 -44zM490 343c0 34 -8 73 -58 73c-69 0 -95 -57 -95 -131c0 -48 18 -77 60 -77
c29 0 61 16 94 43c-2 17 -1 36 -1 92z" />
    <glyph glyph-name="A" unicode="A" horiz-adv-x="549" 
d="M165 163l-66 -148c-8 -12 -24 -24 -35 -24c-18 0 -31 11 -31 29c0 6 3 14 4 17l288 630c12 28 27 49 53 49c25 0 35 -22 40 -49l110 -630c0 -2 0 -9 -1 -13c-3 -20 -19 -33 -39 -33c-12 0 -27 10 -29 24l-25 148h-269zM362 607l-169 -379h231z" />
    <glyph glyph-name="B" unicode="B" horiz-adv-x="542" 
d="M202 400h126c74 0 166 45 166 144c0 51 -30 98 -115 98h-143zM321 335h-129l-38 -270h133c119 0 180 64 180 149c0 78 -60 121 -146 121zM289 1h-169c-23 0 -38 18 -35 41l88 622c3 24 25 42 47 42h173c115 0 167 -75 167 -157c0 -98 -65 -148 -151 -186
c57 -22 125 -53 125 -144c0 -119 -99 -218 -245 -218z" />
    <glyph glyph-name="C" unicode="C" horiz-adv-x="482" 
d="M84 244l31 219c22 153 107 253 259 253c85 0 162 -35 162 -76c0 -18 -14 -32 -33 -32c-9 0 -14 4 -21 9c-2 2 -6 4 -9 6c-30 22 -63 34 -103 34c-121 0 -171 -75 -188 -194l-31 -219c-16 -118 13 -193 134 -193c40 0 76 10 110 32l12 7c11 7 17 10 24 10
c16 0 25 -11 25 -25c0 -45 -92 -83 -184 -83c-152 0 -209 100 -188 252z" />
    <glyph glyph-name="D" unicode="D" horiz-adv-x="554" 
d="M545 263c-19 -136 -106 -262 -309 -262h-116c-22 0 -38 18 -35 41l88 623c3 23 25 42 47 42h116c202 0 255 -121 236 -253zM478 263l27 191c15 105 -23 189 -161 189h-108l-82 -578h108c140 0 201 88 216 198z" />
    <glyph glyph-name="E" unicode="E" horiz-adv-x="474" 
d="M445 38c0 -21 -19 -37 -38 -37h-271c-30 0 -56 9 -52 40l88 624c3 21 23 41 47 41h277c16 0 27 -13 27 -30c0 -19 -17 -34 -36 -34h-252l-36 -255h232c16 0 28 -12 28 -28c0 -20 -17 -36 -37 -36h-232l-36 -258h262c16 0 29 -13 29 -27z" />
    <glyph glyph-name="F" unicode="F" horiz-adv-x="474" 
d="M191 323l-42 -299c-3 -18 -19 -33 -37 -33c-19 0 -32 15 -29 33l90 641c3 21 22 41 46 41h277c17 0 28 -13 28 -30c0 -19 -17 -34 -37 -34h-252l-35 -255h232c15 0 27 -12 27 -28c0 -20 -17 -36 -36 -36h-232z" />
    <glyph glyph-name="G" unicode="G" horiz-adv-x="520" 
d="M182 463l-31 -219c-16 -118 13 -193 134 -193c51 0 92 15 129 41l33 232h-107c-15 0 -27 11 -27 27c0 19 18 35 35 35h122c29 0 49 -12 45 -40l-35 -244c-10 -76 -121 -110 -208 -110c-152 0 -209 100 -188 252l31 219c22 153 107 253 259 253c85 0 162 -35 162 -76
c0 -18 -16 -32 -33 -32c-9 0 -14 4 -21 9c-2 2 -7 4 -10 6c-29 22 -62 34 -102 34c-121 0 -171 -75 -188 -194z" />
    <glyph glyph-name="H" unicode="H" horiz-adv-x="580" 
d="M510 25c-3 -19 -20 -34 -38 -34c-17 0 -32 15 -29 34l41 297h-294l-41 -297c-3 -19 -19 -34 -38 -34c-18 0 -31 15 -28 34l92 658c3 17 20 33 38 33c19 0 31 -16 28 -33l-42 -297h294l42 297c3 17 22 33 39 33s31 -16 28 -33z" />
    <glyph glyph-name="I" unicode="I" horiz-adv-x="227" 
d="M84 24l92 659c3 17 21 33 39 33c19 0 31 -16 28 -33l-92 -659c-3 -18 -19 -33 -38 -33c-18 0 -32 15 -29 33z" />
    <glyph glyph-name="J" unicode="J" horiz-adv-x="385" 
d="M405 683l-64 -460c-21 -144 -79 -232 -231 -232c-26 0 -75 2 -75 34c0 23 20 36 33 36c2 0 9 -1 16 -2c11 -2 25 -5 46 -5c100 0 129 66 144 169l64 460c3 18 20 33 39 33c17 0 31 -16 28 -33z" />
    <glyph glyph-name="K" unicode="K" horiz-adv-x="498" 
d="M433 6l-181 331l-70 -73l-33 -239c-3 -19 -19 -34 -38 -34c-18 0 -31 15 -28 34l92 658c3 17 20 33 38 33c19 0 31 -16 28 -33l-45 -320l320 336c8 9 22 17 34 17s27 -10 23 -32c-2 -10 -6 -17 -11 -23v1l-261 -274l192 -346h-1c2 -3 2 -7 2 -11c0 -14 -7 -40 -34 -40
c-14 0 -21 6 -27 15z" />
    <glyph glyph-name="L" unicode="L" horiz-adv-x="448" 
d="M442 36c0 -19 -18 -35 -36 -35h-288c-21 0 -37 16 -34 38l91 644c2 17 19 33 38 33c18 0 30 -16 28 -33l-87 -619h261c14 0 27 -12 27 -28z" />
    <glyph glyph-name="M" unicode="M" horiz-adv-x="699" 
d="M726 680l-93 -658c-2 -17 -19 -31 -36 -31c-18 0 -33 14 -31 31l75 530c-69 -115 -162 -265 -233 -380c-8 -13 -21 -20 -34 -20c-14 0 -25 8 -30 20l-126 380l-75 -530c-2 -17 -19 -31 -39 -31c-17 0 -29 14 -27 31l93 658c3 21 20 36 41 36c17 0 27 -8 33 -23v1
l145 -443l268 444v-1c11 16 25 22 39 22c19 0 33 -16 30 -36z" />
    <glyph glyph-name="N" unicode="N" horiz-adv-x="600" 
d="M488 -9c-13 0 -28 7 -33 19l-228 571l-78 -556c-3 -19 -20 -34 -39 -34c-18 0 -31 15 -28 34l91 653c4 22 22 38 43 38c15 0 28 -8 33 -21l228 -572l79 559c3 18 21 34 39 34s30 -16 27 -34l-92 -654c-3 -21 -20 -37 -42 -37z" />
    <glyph glyph-name="O" unicode="O" horiz-adv-x="551" 
d="M276 -9c-151 0 -212 112 -192 253l31 219c19 138 99 253 263 253c162 0 211 -115 192 -253l-31 -219c-20 -141 -112 -253 -263 -253zM369 652c-119 0 -172 -76 -187 -189l-31 -219c-16 -111 24 -189 134 -189s171 78 187 189l31 219c15 113 -17 189 -134 189z" />
    <glyph glyph-name="P" unicode="P" horiz-adv-x="530" 
d="M309 267h-126l-34 -241c-3 -19 -19 -35 -38 -35c-17 0 -31 15 -28 35l89 638c4 23 25 42 48 42h150c142 0 193 -87 193 -186c0 -161 -103 -253 -254 -253zM235 642l-43 -311h126c118 0 179 62 179 184c0 65 -29 127 -136 127h-126z" />
    <glyph glyph-name="Q" unicode="Q" horiz-adv-x="551" 
d="M363 -180c-85 0 -126 69 -117 172c-128 16 -180 122 -162 252l31 219c19 138 100 253 264 253c162 0 210 -115 191 -253l-31 -219c-18 -129 -97 -233 -226 -251c-10 -85 16 -115 72 -115c6 0 12 1 18 1h11c17 0 28 -9 28 -26c0 -32 -35 -33 -79 -33zM370 652
c-119 0 -172 -76 -188 -189l-31 -219c-15 -111 25 -189 135 -189s171 78 186 189l31 219c16 113 -16 189 -133 189z" />
    <glyph glyph-name="R" unicode="R" horiz-adv-x="575" 
d="M585 538c0 -120 -76 -196 -191 -218l130 -278l-1 1c1 -3 2 -9 2 -15c0 -22 -27 -36 -41 -36c-11 0 -20 6 -25 15l-139 311h-130l-41 -292c-3 -19 -20 -35 -39 -35c-17 0 -31 15 -28 35l89 638c4 23 25 42 46 42h178c143 0 190 -82 190 -168zM518 531
c0 56 -28 111 -136 111h-147l-36 -261h153c107 0 166 53 166 150z" />
    <glyph glyph-name="S" unicode="S" horiz-adv-x="486" 
d="M400 208c0 53 -26 78 -48 90c-19 11 -47 22 -75 32c-76 27 -159 57 -159 167c0 133 92 219 230 219c47 0 157 -11 157 -58c0 -18 -14 -35 -37 -35c-11 0 -24 4 -34 9c-22 9 -48 20 -89 20c-78 0 -155 -33 -155 -142c0 -56 29 -79 50 -90c20 -11 49 -23 76 -32
c74 -25 157 -60 157 -168c0 -143 -110 -229 -247 -229c-61 0 -172 17 -172 64c0 18 18 36 35 36c6 0 21 -5 35 -11c25 -10 60 -25 112 -25c109 0 164 60 164 153z" />
    <glyph glyph-name="T" unicode="T" horiz-adv-x="483" 
d="M213 24l87 618h-146c-18 0 -30 12 -30 28s19 36 39 36h359c16 0 30 -12 30 -29c0 -19 -19 -35 -39 -35h-147l-87 -618c-2 -18 -19 -33 -37 -33c-19 0 -31 15 -29 33z" />
    <glyph glyph-name="U" unicode="U" horiz-adv-x="572" 
d="M539 228c-19 -137 -114 -237 -251 -237c-141 0 -205 101 -186 237l64 452c3 21 21 36 40 36c18 0 29 -16 27 -36l-64 -452c-14 -102 25 -173 128 -173s160 73 174 173l64 452c2 19 20 36 38 36c19 0 32 -17 30 -36z" />
    <glyph glyph-name="V" unicode="V" horiz-adv-x="529" 
d="M185 691l96 -592l264 592c6 15 23 25 35 25c18 0 31 -11 31 -29c0 -6 -3 -17 -4 -18l-287 -630c-13 -27 -29 -48 -54 -48c-26 0 -35 20 -39 48l-111 630v8c0 24 19 39 40 39c11 0 24 -13 29 -25z" />
    <glyph glyph-name="W" unicode="W" horiz-adv-x="776" 
d="M522 33l-47 554c-61 -167 -144 -389 -204 -555c-9 -18 -25 -41 -53 -41c-25 0 -38 18 -42 41l-62 648l1 4c2 18 24 28 42 28c12 0 24 -10 27 -24l53 -578l202 552c13 33 26 54 54 54c27 0 35 -22 37 -54l50 -553l214 579c7 14 18 24 30 24c17 0 38 -8 38 -26
c0 -3 -1 -9 -3 -12v-1l-242 -641c-9 -21 -28 -41 -53 -41c-26 0 -39 21 -42 42z" />
    <glyph glyph-name="X" unicode="X" horiz-adv-x="500" 
d="M298 319l-213 -303c-7 -11 -18 -25 -35 -25c-15 0 -27 14 -27 30c0 8 3 17 8 22l234 325l-132 297l1 -1c-1 4 -2 11 -2 16c0 18 17 36 35 36c13 0 25 -15 32 -32l112 -268l187 268h-1c10 14 25 32 43 32c14 0 24 -13 24 -29c0 -9 -4 -17 -7 -23l1 1l-213 -297l142 -325
c1 -3 2 -8 2 -13c0 -21 -19 -39 -35 -39c-15 0 -24 14 -30 25z" />
    <glyph glyph-name="Y" unicode="Y" horiz-adv-x="476" 
d="M240 -9c-20 0 -33 15 -30 35l36 253l-128 386c-1 4 -2 10 -2 14c0 19 21 37 40 37c9 0 18 -4 22 -13v1l113 -351l210 351v-1c6 9 17 13 27 13c16 0 29 -14 29 -30c0 -7 -4 -16 -6 -21l-238 -390l-35 -249c-3 -19 -19 -35 -38 -35z" />
    <glyph glyph-name="Z" unicode="Z" horiz-adv-x="484" 
d="M458 39c0 -22 -17 -38 -38 -38h-350c-19 0 -31 14 -31 32c0 10 9 26 14 33l403 574h-297c-17 0 -29 12 -29 28c0 20 18 38 38 38h346c19 0 32 -14 32 -32c0 -12 -9 -24 -14 -32l-404 -575h301c17 0 29 -12 29 -28z" />
    <glyph glyph-name="bracketleft" unicode="[" horiz-adv-x="294" 
d="M252 -88c0 -26 -28 -35 -49 -35h-104c-17 0 -30 15 -28 31l122 864c3 24 25 32 50 32h104c13 0 26 -12 26 -28c0 -25 -26 -33 -47 -33h-72l-113 -804h72c20 0 39 -6 39 -27z" />
    <glyph glyph-name="backslash" unicode="\" horiz-adv-x="280" 
d="M240 -24l-159 742l-1 5c1 17 14 33 30 36c15 2 29 -5 32 -19l159 -740c4 -21 -13 -41 -30 -44c-15 -2 -28 6 -31 20z" />
    <glyph glyph-name="bracketright" unicode="]" horiz-adv-x="294" 
d="M198 -92c-2 -17 -17 -31 -34 -31h-105c-21 0 -42 7 -42 28c0 27 26 34 50 34h71l113 804h-71c-20 0 -41 5 -41 26c0 27 27 35 50 35h105c15 0 28 -16 26 -32z" />
    <glyph glyph-name="asciicircum" unicode="^" horiz-adv-x="326" 
d="M258 669l-135 -142c-3 -4 -12 -8 -19 -8c-14 0 -23 7 -21 18s12 23 23 35l133 139c7 8 16 13 27 13c10 0 17 -5 22 -13l94 -139c9 -12 14 -24 14 -35l-1 1c-2 -11 -12 -19 -25 -19c-8 0 -15 4 -18 8z" />
    <glyph glyph-name="underscore" unicode="_" horiz-adv-x="600" 
d="M2 -179h603c16 0 31 -14 31 -33c0 -17 -14 -31 -31 -31h-603c-19 0 -33 14 -33 31c0 19 16 33 33 33z" />
    <glyph glyph-name="grave" unicode="`" horiz-adv-x="197" 
d="M184 716l73 -91c2 -2 3 -6 3 -8c0 -16 -16 -30 -30 -30c-11 0 -18 6 -26 16l-68 88c-2 3 -3 7 -3 10c0 15 16 29 28 29c11 0 15 -6 23 -14z" />
    <glyph glyph-name="a" unicode="a" horiz-adv-x="482" 
d="M206 -7c-104 0 -147 76 -131 186l19 131c17 119 73 205 207 205c123 0 161 -70 143 -201l-31 -226c-4 -26 3 -39 21 -39c4 0 6 1 8 1c13 0 19 -11 19 -23c0 -23 -23 -31 -42 -31c-31 0 -55 22 -68 57c-45 -40 -95 -60 -145 -60zM230 49c42 0 78 16 119 49l34 243
c11 81 -18 119 -90 119c-81 0 -119 -48 -134 -150l-19 -131c-12 -85 17 -130 90 -130z" />
    <glyph glyph-name="b" unicode="b" horiz-adv-x="485" 
d="M201 404l-36 -257c-8 -59 32 -95 104 -95c79 0 121 44 131 116l27 194c9 62 -18 99 -92 99c-53 0 -97 -22 -134 -57zM100 147l78 554c2 16 16 32 37 32s30 -16 28 -32l-33 -235c49 32 98 49 153 49c111 0 141 -67 129 -153l-27 -194c-14 -99 -85 -175 -205 -175
c-116 0 -172 68 -160 154z" />
    <glyph glyph-name="c" unicode="c" horiz-adv-x="393" 
d="M74 174l22 156c15 102 80 182 204 182c43 0 127 -11 127 -52c0 -16 -14 -30 -31 -30c-6 0 -10 1 -14 2h1c-24 13 -46 25 -83 25c-87 0 -127 -47 -139 -127l-22 -156c-11 -79 17 -126 104 -126c39 0 63 12 89 24h-1c7 2 11 3 15 3c14 0 24 -11 24 -25
c0 -44 -96 -57 -143 -57c-124 0 -167 79 -153 181z" />
    <glyph glyph-name="d" unicode="d" horiz-adv-x="488" 
d="M287 511c33 0 77 -8 118 -22l30 212c2 17 16 32 37 32s30 -15 28 -32l-83 -591c-5 -31 -1 -50 20 -68c1 -3 2 -7 2 -11c0 -18 -16 -31 -32 -31c-21 0 -37 14 -47 35c-50 -24 -105 -42 -154 -42c-104 0 -146 76 -131 186l19 131c17 119 67 201 193 201zM352 110l45 322
c-37 16 -82 25 -107 25c-81 0 -117 -45 -131 -147l-19 -131c-11 -85 17 -130 90 -130c36 0 81 13 122 32c-2 17 -1 23 0 29z" />
    <glyph glyph-name="e" unicode="e" horiz-adv-x="435" 
d="M243 48c46 0 76 13 114 29c2 1 7 3 11 3c15 0 25 -12 25 -25c0 -47 -113 -62 -168 -62c-112 0 -166 71 -153 163l27 192c13 95 87 167 205 167c97 0 142 -52 142 -133c0 -104 -54 -172 -188 -172c-33 0 -74 3 -112 11l-10 -71c-8 -61 27 -102 107 -102zM382 375
c0 58 -32 83 -89 83c-72 0 -119 -40 -128 -102l-12 -85c42 -6 95 -8 116 -8c84 0 113 45 113 112z" />
    <glyph glyph-name="f" unicode="f" horiz-adv-x="329" 
d="M56 -176l101 722c18 126 99 183 199 187c16 1 81 1 81 -35c0 -21 -16 -34 -35 -34c-9 0 -18 1 -23 2c-13 2 -26 5 -39 5c-66 0 -108 -54 -117 -117l-10 -71h116c15 0 24 -11 24 -27c0 -18 -15 -33 -32 -33h-116l-84 -599c-3 -18 -16 -31 -37 -31s-31 13 -28 31z" />
    <glyph glyph-name="g" unicode="g" horiz-adv-x="509" 
d="M380 100l36 257c9 62 -30 100 -102 100c-79 0 -122 -46 -133 -121l-23 -163c-10 -77 13 -125 92 -125c45 0 91 16 130 52zM481 357l-57 -405c-14 -102 -79 -182 -201 -182c-46 0 -129 12 -129 52c0 15 15 31 31 31c4 0 9 -1 15 -3h-1c22 -13 44 -24 83 -24
c86 0 126 46 137 126l12 85c-46 -27 -94 -43 -145 -43c-120 0 -147 77 -133 179l23 163c14 101 86 179 206 179c115 0 172 -70 159 -158z" />
    <glyph glyph-name="h" unicode="h" horiz-adv-x="507" 
d="M381 90l36 260c10 68 -13 106 -82 106c-43 0 -97 -21 -137 -66l-51 -365c-3 -18 -18 -32 -35 -32c-19 0 -31 14 -28 32l95 681c2 16 18 33 36 33s30 -14 27 -33l-34 -243c48 33 98 52 145 52c105 0 143 -68 129 -164l-36 -261c-4 -23 -2 -40 9 -54c2 -2 2 -8 2 -12
c0 -17 -14 -31 -33 -31c-22 0 -55 11 -43 97z" />
    <glyph glyph-name="i" unicode="i" horiz-adv-x="245" 
d="M262 686c0 -25 -24 -46 -48 -46c-22 0 -36 17 -36 36c0 26 22 47 48 47c20 0 36 -16 36 -37zM104 90l55 389c2 18 18 33 37 33c17 0 30 -15 28 -33l-55 -389c-3 -23 0 -38 9 -54c1 -2 3 -8 3 -12c0 -17 -15 -31 -34 -31c-22 0 -55 11 -43 97z" />
    <glyph glyph-name="j" unicode="j" horiz-adv-x="245" 
d="M225 479l-71 -502c-14 -101 -78 -171 -165 -185c-8 -1 -12 0 -18 0c-12 0 -23 8 -24 20c-2 23 17 32 30 35c62 13 100 46 111 126l72 506c2 18 18 33 37 33c17 0 30 -15 28 -33zM262 686c0 -25 -23 -46 -47 -46c-22 0 -37 17 -37 37c0 25 23 46 49 46c20 0 35 -16 35 -37
z" />
    <glyph glyph-name="k" unicode="k" horiz-adv-x="439" 
d="M243 700l-56 -403l229 207c5 5 13 7 20 7c15 0 26 -11 26 -26c0 -8 -2 -18 -10 -25l-179 -159l140 -263c2 -3 4 -12 4 -17c0 -17 -17 -28 -35 -28c-12 0 -20 5 -25 15l-129 251l-53 -48l-26 -186c-3 -18 -20 -32 -37 -32c-19 0 -31 14 -28 32l94 675c3 18 19 33 38 33
c17 0 30 -15 27 -33z" />
    <glyph glyph-name="l" unicode="l" horiz-adv-x="228" 
d="M95 90l85 602c2 17 18 33 36 33s30 -15 28 -33l-85 -602c-3 -23 -1 -40 10 -54c2 -2 3 -8 3 -12c0 -17 -15 -31 -34 -31c-22 0 -55 11 -43 97z" />
    <glyph glyph-name="m" unicode="m" horiz-adv-x="778" 
d="M191 466c52 31 106 49 159 49s88 -20 111 -56c50 35 103 56 158 56c106 0 154 -68 140 -168l-36 -257c-4 -23 -1 -39 9 -54c1 -2 2 -8 2 -12c0 -17 -14 -31 -33 -31c-22 0 -55 11 -43 97l36 255c8 62 -17 112 -86 112c-47 0 -97 -26 -129 -60c1 -15 0 -31 -2 -50
l-45 -322c-3 -18 -15 -31 -37 -31s-31 13 -28 31l42 299c11 78 5 133 -75 133c-46 0 -98 -22 -133 -46c0 -12 0 -23 -2 -36l-49 -350c-3 -18 -16 -31 -37 -31c-22 0 -31 13 -28 31l49 350c5 35 3 56 -8 76c-2 4 -3 9 -3 14c0 18 17 32 33 32c13 0 27 -9 35 -31z" />
    <glyph glyph-name="n" unicode="n" horiz-adv-x="509" 
d="M194 464c54 34 108 49 157 49c104 0 145 -75 129 -187l-33 -236c-3 -23 -1 -39 9 -54c1 -2 2 -8 2 -12c0 -17 -14 -31 -33 -31c-22 0 -55 11 -43 97l33 236c12 83 -17 131 -84 131c-42 0 -86 -19 -129 -48c1 -11 0 -23 -1 -34l-49 -350c-3 -18 -16 -31 -37 -31
c-22 0 -31 13 -29 31l50 350c5 35 3 56 -8 76c-2 4 -3 9 -3 14c0 18 17 32 33 32c13 0 28 -11 36 -33z" />
    <glyph glyph-name="o" unicode="o" horiz-adv-x="464" 
d="M234 -7c-120 0 -174 76 -160 175l24 172c14 99 90 176 210 176c121 0 174 -77 160 -176l-24 -172c-14 -99 -89 -175 -210 -175zM243 52c80 0 126 44 136 116l24 173c10 72 -23 117 -103 117c-79 0 -127 -45 -137 -117l-24 -173c-10 -72 25 -116 104 -116z" />
    <glyph glyph-name="p" unicode="p" horiz-adv-x="478" 
d="M269 -6c-36 0 -79 8 -119 21l-28 -199c-2 -17 -16 -31 -36 -31c-22 0 -31 14 -29 31l79 557c5 35 3 56 -8 76c-2 4 -4 9 -4 14c0 18 18 32 34 32c13 0 25 -12 34 -28c54 27 109 48 160 48c103 0 144 -76 128 -187l-18 -134c-17 -118 -68 -200 -193 -200zM201 373
l-43 -301c34 -16 81 -24 109 -24c80 0 115 45 130 146l18 134c12 85 -15 131 -88 131c-36 0 -82 -16 -125 -40c1 -15 1 -30 -1 -46z" />
    <glyph glyph-name="q" unicode="q" horiz-adv-x="485" 
d="M361 100l36 257c9 62 -30 100 -102 100c-79 0 -122 -46 -133 -121l-23 -163c-10 -77 13 -125 92 -125c45 0 91 16 130 52zM462 357l-76 -541c-2 -17 -15 -31 -36 -31c-22 0 -31 14 -29 31l31 221c-46 -27 -94 -43 -145 -43c-120 0 -147 77 -133 179l23 163
c14 101 86 179 206 179c115 0 172 -70 159 -158z" />
    <glyph glyph-name="r" unicode="r" horiz-adv-x="337" 
d="M201 373l-48 -348c-3 -18 -20 -32 -37 -32c-19 0 -31 14 -28 32l48 348c5 35 4 56 -7 76c-2 4 -4 9 -4 14c0 18 17 32 35 32c13 0 26 -13 34 -31c51 30 113 47 150 47c31 0 42 -12 42 -28c0 -22 -19 -39 -37 -38c-45 1 -83 1 -144 -40v-1s1 -1 -4 -31z" />
    <glyph glyph-name="s" unicode="s" horiz-adv-x="406" 
d="M110 356c0 93 64 159 180 159c50 0 123 -11 123 -47c0 -17 -15 -32 -34 -32c-6 0 -9 2 -14 4c-22 11 -40 20 -79 20c-77 0 -112 -34 -112 -93c0 -28 13 -46 44 -63c68 -37 165 -48 165 -149c0 -98 -65 -162 -187 -162c-49 0 -138 10 -138 48c0 16 15 33 35 33
c2 0 3 0 6 -1c28 -12 60 -25 105 -25c68 0 115 29 115 97c0 33 -14 50 -32 60c-68 37 -177 48 -177 151z" />
    <glyph glyph-name="t" unicode="t" horiz-adv-x="321" 
d="M109 202l61 431c2 17 15 32 36 32s30 -15 28 -32l-21 -150h116c14 0 25 -11 25 -27c0 -18 -16 -33 -34 -33h-116l-30 -214c-16 -111 -9 -152 72 -152c7 0 13 1 20 1c18 0 41 -3 41 -26c0 -32 -29 -35 -55 -35c-138 0 -162 68 -143 205z" />
    <glyph glyph-name="u" unicode="u" horiz-adv-x="509" 
d="M383 120l51 360c3 18 15 32 37 32c21 0 31 -14 28 -32l-51 -360c-7 -50 -3 -58 2 -65c5 -6 11 -17 11 -26c0 -16 -16 -30 -34 -30c-17 0 -28 13 -38 33c-52 -28 -107 -39 -154 -39c-104 0 -146 75 -130 186l42 301c3 18 16 32 37 32s30 -14 28 -32l-42 -301
c-12 -82 17 -130 84 -130c42 0 86 14 127 38c0 10 0 20 2 33z" />
    <glyph glyph-name="v" unicode="v" horiz-adv-x="430" 
d="M472 471l-201 -436c-14 -30 -29 -42 -52 -42s-35 13 -40 41l-81 440c-4 20 17 38 38 38c11 0 22 -4 25 -21l70 -413l184 413c4 10 16 22 32 21c15 -1 27 -13 27 -29c0 -7 -1 -9 -2 -12z" />
    <glyph glyph-name="w" unicode="w" horiz-adv-x="655" 
d="M703 477l-182 -444c-11 -26 -23 -40 -49 -40c-17 0 -33 11 -36 29l-45 389c-45 -117 -104 -273 -154 -389c-8 -18 -24 -29 -45 -29c-23 0 -36 16 -39 40l-58 446v2c3 16 19 31 38 31c12 0 23 -10 26 -23l47 -403c59 142 108 272 156 395c8 17 23 31 44 31
c19 0 30 -14 32 -31c10 -98 22 -200 47 -395l158 403c5 13 21 23 34 23c17 0 29 -14 26 -33v-2z" />
    <glyph glyph-name="x" unicode="x" horiz-adv-x="431" 
d="M220 259l-109 207c-2 2 -2 5 -2 9c0 22 21 37 36 37c16 0 22 -9 29 -23l90 -178l140 178c11 14 19 23 35 23c13 0 27 -12 27 -28c0 -9 -2 -15 -7 -18l-167 -207l117 -219c1 -2 2 -7 2 -11c0 -19 -17 -36 -38 -36c-16 0 -22 7 -30 23l-96 189l-156 -196
c-9 -11 -17 -16 -28 -16c-18 0 -30 11 -30 28c0 9 2 12 6 17z" />
    <glyph glyph-name="y" unicode="y" horiz-adv-x="509" 
d="M93 173l44 307c2 18 16 32 37 32s30 -14 28 -32l-44 -307c-11 -77 13 -125 92 -125c45 0 91 16 130 52l53 380c3 18 16 32 38 32c21 0 30 -14 27 -32l-74 -528c-14 -102 -79 -182 -201 -182c-46 0 -129 12 -129 52c0 15 15 31 31 31c4 0 9 -1 15 -3h-1
c22 -13 44 -24 83 -24c86 0 126 46 137 126l12 85c-46 -27 -94 -43 -145 -43c-120 0 -147 77 -133 179z" />
    <glyph glyph-name="z" unicode="z" horiz-adv-x="384" 
d="M434 476c0 -10 -7 -25 -11 -30l-316 -387h241c15 0 26 -12 26 -27c0 -18 -16 -32 -35 -32h-285c-16 0 -29 13 -29 31c0 7 4 19 9 26l319 389h-230c-15 0 -26 11 -26 26c0 19 16 33 34 33h273c18 0 30 -10 30 -29z" />
    <glyph glyph-name="braceleft" unicode="{" horiz-adv-x="417" 
d="M99 210c-18 0 -29 9 -29 25c0 21 16 34 37 34c57 0 89 30 102 99c5 26 12 59 17 87l20 102c16 71 86 118 171 118c22 0 47 -4 47 -31c0 -33 -24 -31 -38 -29c-12 1 -25 3 -28 3c-38 0 -80 -26 -89 -73c-10 -57 -22 -115 -33 -171c-11 -59 -45 -107 -102 -135
c49 -27 69 -76 65 -135l-16 -170c-5 -46 29 -73 67 -73c9 0 23 1 31 2c12 2 31 4 31 -18c0 -36 -31 -41 -58 -41c-86 0 -142 45 -137 117l15 189c6 70 -16 100 -73 100z" />
    <glyph glyph-name="bar" unicode="|" horiz-adv-x="227" 
d="M55 -216l133 948c2 15 17 29 33 29c17 0 27 -14 25 -29l-133 -948c-2 -15 -16 -28 -33 -28c-16 0 -27 13 -25 28z" />
    <glyph glyph-name="braceright" unicode="}" horiz-adv-x="417" 
d="M382 210c-57 0 -88 -30 -102 -100c-12 -62 -26 -126 -38 -189c-15 -72 -84 -117 -170 -117c-24 0 -48 4 -48 30c0 33 24 31 38 29c9 -1 21 -2 29 -2c39 0 82 27 90 73c10 56 22 114 32 170c11 61 45 108 102 135c-49 28 -70 75 -64 135l16 171c3 47 -31 73 -70 73
c-3 0 -17 -2 -30 -3c-12 -1 -31 -4 -31 19c0 36 30 41 59 41c85 0 140 -47 136 -118l-8 -102l-7 -87c-6 -69 17 -99 74 -99c17 0 28 -9 28 -26c0 -21 -15 -33 -36 -33z" />
    <glyph glyph-name="asciitilde" unicode="~" horiz-adv-x="454" 
d="M440 357c0 -41 -60 -69 -103 -72l1 1c-29 0 -50 11 -70 22c-14 8 -29 14 -55 18c-19 0 -37 -11 -51 -22c-8 -6 -14 -12 -24 -12c-16 0 -27 10 -27 27c6 40 55 71 104 71c22 0 48 -12 66 -21c13 -7 32 -16 51 -19c31 0 46 11 59 21c7 5 17 12 26 14c13 -1 23 -13 23 -28z
" />
    <glyph glyph-name="exclamdown" unicode="&#xa1;" horiz-adv-x="227" 
d="M53 -186l79 483c2 14 14 26 27 26c11 0 20 -10 20 -23c0 -163 -32 -326 -57 -486c-3 -17 -20 -33 -39 -33c-18 0 -32 16 -30 33zM226 464c0 -29 -24 -52 -53 -52c-23 0 -42 18 -42 41c0 28 28 54 56 54c24 0 39 -20 39 -43z" />
    <glyph glyph-name="cent" unicode="&#xa2;" horiz-adv-x="500" 
d="M228 -36l8 58c-106 12 -143 86 -130 181l15 104c13 94 71 168 180 179l7 51c2 11 12 20 23 20c10 0 17 -9 15 -20l-7 -50c47 -4 110 -18 110 -52c0 -15 -14 -29 -31 -29c-6 0 -10 1 -14 2h1c-19 9 -36 18 -74 23l-49 -353c38 4 58 14 80 24h-1c6 2 11 3 15 3
c14 0 23 -11 23 -24c0 -38 -73 -54 -125 -59l-8 -58c-2 -10 -11 -18 -21 -18s-19 8 -17 18zM171 203c-9 -66 10 -109 73 -123l49 349c-67 -13 -98 -56 -107 -122z" />
    <glyph glyph-name="yen" unicode="&#xa5;" horiz-adv-x="476" 
d="M129 363h88c-30 96 -68 206 -99 302c-1 4 -2 10 -2 14c0 19 21 37 40 37c9 0 18 -4 22 -13v1l113 -351l210 351v-1c6 9 17 13 27 13c16 0 28 -14 28 -30c0 -7 -3 -16 -5 -21l-186 -302h89c15 0 28 -12 28 -28c0 -17 -18 -33 -36 -33h-116l-17 -27l-6 -45h129
c14 0 28 -12 28 -28c0 -17 -19 -32 -37 -32h-129l-20 -144c-3 -19 -19 -35 -38 -35c-20 0 -33 15 -30 35l20 144h-128c-16 0 -29 12 -29 26c0 19 20 34 38 34h128l6 49l-8 23h-116c-17 0 -29 12 -29 27c0 18 20 34 37 34z" />
    <glyph glyph-name="dieresis" unicode="&#xa8;" horiz-adv-x="403" 
d="M423 651c0 -26 -22 -47 -46 -47c-20 0 -37 17 -37 37c0 24 25 46 49 46c20 0 34 -17 34 -36zM250 651c0 -26 -22 -47 -47 -47c-20 0 -35 17 -35 37c0 23 23 46 47 46c21 0 35 -17 35 -36z" />
    <glyph glyph-name="copyright" unicode="&#xa9;" horiz-adv-x="740" 
d="M726 365c0 -212 -131 -373 -354 -373c-174 0 -265 111 -265 270c0 212 133 373 356 373c174 0 263 -111 263 -270zM680 358c0 136 -76 231 -224 231c-190 0 -302 -138 -302 -320c0 -137 76 -231 225 -231c190 0 301 138 301 320zM283 282l9 62c11 80 62 143 159 143
c35 0 99 -9 99 -40c0 -12 -10 -22 -22 -22h-7c-19 12 -40 22 -69 22c-70 0 -103 -38 -112 -103l-9 -62c-9 -64 14 -101 84 -101c30 0 47 8 67 16h-3l7 2c6 2 9 3 11 3c10 0 16 -9 16 -18c0 -35 -74 -44 -111 -44c-97 0 -130 62 -119 142z" />
    <glyph glyph-name="guillemotleft" unicode="&#xab;" horiz-adv-x="431" 
d="M159 256l116 -216c0 -2 1 -7 1 -11c0 -19 -16 -36 -37 -36c-16 0 -21 7 -29 23c-41 80 -84 159 -125 238l184 230c11 15 20 24 36 24c13 0 26 -12 26 -28c0 -9 -2 -15 -6 -18zM323 254l77 -149c1 -2 1 -6 1 -9c0 -20 -19 -36 -35 -36c-15 0 -21 8 -28 23l-90 171l138 172
c11 14 20 24 35 24c14 0 26 -12 26 -28c0 -9 -1 -15 -5 -18z" />
    <glyph glyph-name="registered" unicode="&#xae;" horiz-adv-x="700" 
d="M702 474c0 -194 -120 -339 -329 -339c-164 0 -248 101 -248 245c0 195 122 346 331 346c164 0 246 -103 246 -252zM656 467c0 126 -69 213 -206 213c-177 0 -278 -128 -278 -293c0 -121 69 -206 208 -206c175 0 276 122 276 286zM529 502c0 -47 -26 -80 -69 -98l55 -107
c11 -21 -39 -27 -46 -13l-57 114h-59l-14 -103c-2 -9 -15 -17 -27 -17c-11 0 -21 7 -19 17l36 261c2 14 17 27 30 27h79c67 0 91 -39 91 -81zM483 497c0 21 -11 41 -53 41h-57l-14 -96h60c43 0 64 22 64 55z" />
    <glyph glyph-name="macron" unicode="&#xaf;" horiz-adv-x="403" 
d="M450 648c0 -19 -15 -33 -33 -33h-255c-15 0 -26 10 -26 25c0 18 16 34 35 34h255c14 0 24 -12 24 -26z" />
    <glyph glyph-name="degree" unicode="&#xb0;" horiz-adv-x="392" 
d="M261 447c-79 0 -120 50 -120 115c0 84 59 155 158 155c79 0 118 -51 118 -116c0 -84 -57 -154 -156 -154zM268 495c66 0 95 39 95 105c0 44 -22 69 -71 69c-65 0 -97 -39 -97 -104c0 -46 24 -70 73 -70z" />
    <glyph glyph-name="plusminus" unicode="&#xb1;" horiz-adv-x="500" 
d="M260 172v182h-171c-18 0 -32 14 -32 31c0 19 16 33 32 33h171v181c0 16 14 32 33 32c17 0 31 -14 31 -32v-181h172c16 0 32 -14 32 -33c0 -17 -15 -31 -32 -31h-172v-182c0 -18 -14 -32 -31 -32c-19 0 -33 15 -33 32zM89 65h407c16 0 32 -14 32 -32s-15 -32 -32 -32h-407
c-18 0 -32 14 -32 32s16 32 32 32z" />
    <glyph glyph-name="acute" unicode="&#xb4;" horiz-adv-x="276" 
d="M176 625l99 91c7 6 15 14 25 14c13 0 22 -12 22 -24c0 -5 -2 -12 -5 -15l-94 -87c-11 -10 -19 -17 -30 -17c-13 0 -23 11 -23 25c0 7 2 9 6 13z" />
    <glyph glyph-name="periodcentered" unicode="&#xb7;" horiz-adv-x="255" 
d="M211 278c0 -29 -25 -52 -54 -52c-23 0 -41 18 -41 41c0 28 27 53 54 53c25 0 41 -19 41 -42z" />
    <glyph glyph-name="cedilla" unicode="&#xb8;" horiz-adv-x="300" 
d="M223 -123c0 -66 -80 -106 -145 -93c-26 5 -51 21 -38 37c6 8 14 6 28 3l18 -4c55 -12 86 26 86 56s-32 35 -63 37c-30 2 -32 6 -27 25l22 68h35l-18 -61c74 0 102 -31 102 -68z" />
    <glyph glyph-name="ordmasculine" unicode="&#xba;" horiz-adv-x="384" 
d="M244 355c-91 0 -130 60 -119 139l11 81c12 80 67 141 158 141s129 -61 117 -141l-11 -81c-11 -79 -65 -139 -156 -139zM287 667c-62 0 -90 -36 -98 -96l-11 -80c-8 -55 13 -88 72 -88c58 0 89 33 97 88l11 80c8 60 -10 96 -71 96z" />
    <glyph glyph-name="guillemotright" unicode="&#xbb;" horiz-adv-x="431" 
d="M171 40l177 216l-108 206c-2 3 -3 8 -3 11c0 20 21 35 37 35c15 0 21 -9 29 -24l119 -230l-191 -238c-14 -16 -21 -23 -36 -23c-19 0 -30 13 -30 29c0 7 1 11 6 18zM65 105l119 149l-77 150c-1 3 -2 8 -2 11c0 19 20 35 36 35s21 -10 28 -24l89 -172l-137 -171
c-11 -15 -19 -23 -35 -23c-14 0 -27 13 -27 27c0 5 1 11 6 18z" />
    <glyph glyph-name="questiondown" unicode="&#xbf;" horiz-adv-x="462" 
d="M240 246c7 11 10 28 12 43c3 18 19 34 38 34c17 0 28 -14 28 -30c0 -17 -5 -31 -10 -41c-21 -43 -56 -77 -90 -109l-39 -39c-37 -39 -78 -92 -78 -156c0 -67 38 -118 117 -118c38 0 74 9 103 20c7 3 20 10 29 15c13 8 24 13 33 13c14 0 27 -11 27 -27s-12 -26 -28 -36
c-53 -30 -112 -44 -173 -44c-114 0 -175 71 -175 163c0 90 43 151 101 208c24 24 27 26 38 35c25 22 52 44 67 69zM261 453c0 28 26 54 54 54c24 0 41 -20 41 -43c0 -29 -26 -52 -54 -52c-24 0 -41 17 -41 41z" />
    <glyph glyph-name="Agrave" unicode="&#xc0;" horiz-adv-x="549" 
d="M165 163l-66 -148c-8 -12 -24 -24 -35 -24c-18 0 -31 11 -31 29c0 6 3 14 4 17l288 630c12 28 27 49 53 49c25 0 35 -22 40 -49l110 -630c0 -2 0 -9 -1 -13c-3 -20 -19 -33 -39 -33c-12 0 -27 10 -29 24l-25 148h-269zM362 607l-169 -379h231zM344 916l73 -91
c2 -2 3 -6 3 -8c0 -16 -16 -30 -30 -30c-11 0 -18 6 -26 16l-68 88c-2 3 -3 7 -3 10c0 15 16 29 28 29c11 0 15 -6 23 -14z" />
    <glyph glyph-name="Aacute" unicode="&#xc1;" horiz-adv-x="549" 
d="M165 163l-66 -148c-8 -12 -24 -24 -35 -24c-18 0 -31 11 -31 29c0 6 3 14 4 17l288 630c12 28 27 49 53 49c25 0 35 -22 40 -49l110 -630c0 -2 0 -9 -1 -13c-3 -20 -19 -33 -39 -33c-12 0 -27 10 -29 24l-25 148h-269zM362 607l-169 -379h231zM369 825l99 91
c7 6 15 14 25 14c13 0 22 -12 22 -24c0 -5 -2 -12 -5 -15l-94 -87c-11 -10 -19 -17 -30 -17c-13 0 -23 11 -23 25c0 7 2 9 6 13z" />
    <glyph glyph-name="Acircumflex" unicode="&#xc2;" horiz-adv-x="549" 
d="M165 163l-66 -148c-8 -12 -24 -24 -35 -24c-18 0 -31 11 -31 29c0 6 3 14 4 17l288 630c12 28 27 49 53 49c25 0 35 -22 40 -49l110 -630c0 -2 0 -9 -1 -13c-3 -20 -19 -33 -39 -33c-12 0 -27 10 -29 24l-25 148h-269zM362 607l-169 -379h231zM395 853l-92 -68
c-1 -2 -10 -3 -14 -3c-8 0 -15 9 -15 17s11 19 20 26l90 69h-1c6 3 12 7 19 7c6 0 12 -4 17 -7h-1l72 -69c4 -7 12 -16 12 -23c0 -9 -11 -20 -22 -20c-4 0 -10 1 -11 3z" />
    <glyph glyph-name="Atilde" unicode="&#xc3;" horiz-adv-x="549" 
d="M165 163l-66 -148c-8 -12 -24 -24 -35 -24c-18 0 -31 11 -31 29c0 6 3 14 4 17l288 630c12 28 27 49 53 49c25 0 35 -22 40 -49l110 -630c0 -2 0 -9 -1 -13c-3 -20 -19 -33 -39 -33c-12 0 -27 10 -29 24l-25 148h-269zM362 607l-169 -379h231zM529 860
c0 -33 -49 -58 -85 -58c-22 0 -40 9 -56 18c-12 6 -20 15 -42 15c-12 0 -27 -3 -48 -18c-8 -6 -12 -9 -20 -9c-11 0 -20 6 -20 19c0 30 43 60 83 60c20 0 37 -8 56 -19c16 -9 27 -13 43 -14c27 0 39 8 50 17c5 4 15 12 23 12c7 0 16 -9 16 -23z" />
    <glyph glyph-name="Adieresis" unicode="&#xc4;" horiz-adv-x="549" 
d="M165 163l-66 -148c-8 -12 -24 -24 -35 -24c-18 0 -31 11 -31 29c0 6 3 14 4 17l288 630c12 28 27 49 53 49c25 0 35 -22 40 -49l110 -630c0 -2 0 -9 -1 -13c-3 -20 -19 -33 -39 -33c-12 0 -27 10 -29 24l-25 148h-269zM362 607l-169 -379h231zM522 851
c0 -26 -22 -47 -46 -47c-20 0 -37 17 -37 37c0 24 25 46 49 46c20 0 34 -17 34 -36zM349 851c0 -26 -22 -47 -47 -47c-20 0 -35 17 -35 37c0 23 23 46 47 46c21 0 35 -17 35 -36z" />
    <glyph glyph-name="Aring" unicode="&#xc5;" horiz-adv-x="549" 
d="M486 746c0 -43 -26 -80 -65 -103l107 -606c0 -2 0 -9 -1 -13c-3 -20 -19 -33 -39 -33c-12 0 -27 10 -29 24l-25 148h-269l-66 -148c-8 -12 -24 -24 -35 -24c-18 0 -31 11 -31 29c0 6 3 14 4 17l277 606c-25 18 -40 48 -40 79c0 63 58 117 122 117c53 0 90 -41 90 -93z
M362 607l-169 -379h231zM450 742c0 33 -24 62 -59 62c-41 0 -81 -37 -81 -78c0 -34 26 -61 61 -61c41 0 79 34 79 77z" />
    <glyph glyph-name="AE" unicode="&#xc6;" horiz-adv-x="722" 
d="M419 0c-30 0 -56 9 -51 40l17 122h-221l-66 -148c-6 -14 -23 -24 -34 -24c-19 0 -32 11 -32 29c0 6 3 14 4 17l284 620c13 28 28 49 53 49h375c17 0 29 -13 29 -30c0 -19 -18 -34 -38 -34h-221l-36 -255h202c15 0 27 -12 27 -28c0 -20 -17 -36 -36 -36h-202l-36 -258h231
c17 0 29 -12 29 -27c0 -21 -17 -37 -38 -37h-240zM452 641h-58c-16 0 -17 -4 -23 -17l-178 -397h201z" />
    <glyph glyph-name="Ccedilla" unicode="&#xc7;" horiz-adv-x="482" 
d="M345 -126c0 -47 -40 -91 -115 -91c-19 0 -26 0 -30 1c-26 3 -49 20 -38 38v-1c6 8 15 7 29 3l17 -4c55 -11 86 27 86 55c0 25 -22 36 -62 38c-26 1 -33 6 -27 25l18 57c-115 22 -157 116 -138 249l30 219c22 153 107 253 259 253c86 0 162 -35 162 -76
c0 -18 -14 -32 -33 -32c-9 0 -14 4 -21 9c-2 2 -6 4 -9 6c-30 22 -62 34 -102 34c-121 0 -172 -75 -189 -194l-30 -219c-17 -118 13 -193 134 -193c40 0 75 10 109 32l12 7c11 7 17 10 24 10c16 0 26 -11 26 -25c0 -45 -92 -83 -185 -83h-15l-13 -47c74 -1 101 -29 101 -71z
" />
    <glyph glyph-name="Egrave" unicode="&#xc8;" horiz-adv-x="474" 
d="M445 38c0 -21 -19 -37 -38 -37h-271c-30 0 -56 9 -52 40l88 624c3 21 23 41 47 41h277c16 0 27 -13 27 -30c0 -19 -17 -34 -36 -34h-252l-36 -255h232c16 0 28 -12 28 -28c0 -20 -17 -36 -37 -36h-232l-36 -258h262c16 0 29 -13 29 -27zM346 916l73 -91c2 -2 3 -6 3 -8
c0 -16 -16 -30 -30 -30c-11 0 -18 6 -26 16l-68 88c-2 3 -3 7 -3 10c0 15 16 29 28 29c11 0 15 -6 23 -14z" />
    <glyph glyph-name="Eacute" unicode="&#xc9;" horiz-adv-x="474" 
d="M445 38c0 -21 -19 -37 -38 -37h-271c-30 0 -56 9 -52 40l88 624c3 21 23 41 47 41h277c16 0 27 -13 27 -30c0 -19 -17 -34 -36 -34h-252l-36 -255h232c16 0 28 -12 28 -28c0 -20 -17 -36 -37 -36h-232l-36 -258h262c16 0 29 -13 29 -27zM329 825l99 91c7 6 15 14 25 14
c13 0 22 -12 22 -24c0 -5 -2 -12 -5 -15l-94 -87c-11 -10 -19 -17 -30 -17c-13 0 -23 11 -23 25c0 7 2 9 6 13z" />
    <glyph glyph-name="Ecircumflex" unicode="&#xca;" horiz-adv-x="474" 
d="M445 38c0 -21 -19 -37 -38 -37h-271c-30 0 -56 9 -52 40l88 624c3 21 23 41 47 41h277c16 0 27 -13 27 -30c0 -19 -17 -34 -36 -34h-252l-36 -255h232c16 0 28 -12 28 -28c0 -20 -17 -36 -37 -36h-232l-36 -258h262c16 0 29 -13 29 -27zM382 853l-92 -68
c-1 -2 -10 -3 -14 -3c-8 0 -15 9 -15 17s11 19 20 26l90 69h-1c6 3 12 7 19 7c6 0 12 -4 17 -7h-1l72 -69c4 -7 12 -16 12 -23c0 -9 -11 -20 -22 -20c-4 0 -10 1 -11 3z" />
    <glyph glyph-name="Edieresis" unicode="&#xcb;" horiz-adv-x="474" 
d="M445 38c0 -21 -19 -37 -38 -37h-271c-30 0 -56 9 -52 40l88 624c3 21 23 41 47 41h277c16 0 27 -13 27 -30c0 -19 -17 -34 -36 -34h-252l-36 -255h232c16 0 28 -12 28 -28c0 -20 -17 -36 -37 -36h-232l-36 -258h262c16 0 29 -13 29 -27zM508 851c0 -26 -22 -47 -46 -47
c-20 0 -37 17 -37 37c0 24 25 46 49 46c20 0 34 -17 34 -36zM335 851c0 -26 -22 -47 -47 -47c-20 0 -35 17 -35 37c0 23 23 46 47 46c21 0 35 -17 35 -36z" />
    <glyph glyph-name="Igrave" unicode="&#xcc;" horiz-adv-x="227" 
d="M84 24l92 659c3 17 21 33 39 33c19 0 31 -16 28 -33l-92 -659c-3 -18 -19 -33 -38 -33c-18 0 -32 15 -29 33zM196 916l73 -91c2 -2 3 -6 3 -8c0 -16 -16 -30 -30 -30c-11 0 -18 6 -26 16l-68 88c-2 3 -3 7 -3 10c0 15 16 29 28 29c11 0 15 -6 23 -14z" />
    <glyph glyph-name="Iacute" unicode="&#xcd;" horiz-adv-x="227" 
d="M84 24l92 659c3 17 21 33 39 33c19 0 31 -16 28 -33l-92 -659c-3 -18 -19 -33 -38 -33c-18 0 -32 15 -29 33zM192 825l99 91c7 6 15 14 25 14c13 0 22 -12 22 -24c0 -5 -2 -12 -5 -15l-94 -87c-11 -10 -19 -17 -30 -17c-13 0 -23 11 -23 25c0 7 2 9 6 13z" />
    <glyph glyph-name="Icircumflex" unicode="&#xce;" horiz-adv-x="227" 
d="M84 24l92 659c3 17 21 33 39 33c19 0 31 -16 28 -33l-92 -659c-3 -18 -19 -33 -38 -33c-18 0 -32 15 -29 33zM235 853l-92 -68c-1 -2 -10 -3 -14 -3c-8 0 -15 9 -15 17s11 19 20 26l90 69h-1c6 3 12 7 19 7c6 0 12 -4 17 -7h-1l72 -69c4 -7 12 -16 12 -23
c0 -9 -11 -20 -22 -20c-4 0 -10 1 -11 3z" />
    <glyph glyph-name="Idieresis" unicode="&#xcf;" horiz-adv-x="227" 
d="M84 24l92 659c3 17 21 33 39 33c19 0 31 -16 28 -33l-92 -659c-3 -18 -19 -33 -38 -33c-18 0 -32 15 -29 33zM361 851c0 -26 -22 -47 -46 -47c-20 0 -37 17 -37 37c0 24 25 46 49 46c20 0 34 -17 34 -36zM188 851c0 -26 -22 -47 -47 -47c-20 0 -35 17 -35 37
c0 23 23 46 47 46c21 0 35 -17 35 -36z" />
    <glyph glyph-name="Eth" unicode="&#xd0;" horiz-adv-x="574" 
d="M565 263c-20 -136 -105 -262 -308 -262h-116c-22 0 -40 18 -37 41l40 283h-47c-15 0 -26 10 -26 25c0 18 16 34 35 34h47l39 281c3 23 26 42 48 42h116c202 0 254 -121 235 -253zM385 358c0 -19 -15 -33 -33 -33h-141l-36 -260h108c140 0 200 88 216 198l26 191
c15 105 -23 189 -161 189h-108l-36 -259h141c14 0 24 -12 24 -26z" />
    <glyph glyph-name="Ntilde" unicode="&#xd1;" horiz-adv-x="600" 
d="M488 -9c-13 0 -28 7 -33 19l-228 571l-78 -556c-3 -19 -20 -34 -39 -34c-18 0 -31 15 -28 34l91 653c4 22 22 38 43 38c15 0 28 -8 33 -21l228 -572l79 559c3 18 21 34 39 34s30 -16 27 -34l-92 -654c-3 -21 -20 -37 -42 -37zM555 860c0 -33 -49 -58 -85 -58
c-22 0 -40 9 -56 18c-12 6 -20 15 -42 15c-12 0 -27 -3 -48 -18c-8 -6 -12 -9 -20 -9c-11 0 -20 6 -20 19c0 30 43 60 83 60c20 0 37 -8 56 -19c16 -9 27 -13 43 -14c27 0 39 8 50 17c5 4 15 12 23 12c7 0 16 -9 16 -23z" />
    <glyph glyph-name="Ograve" unicode="&#xd2;" horiz-adv-x="551" 
d="M276 -9c-151 0 -212 112 -192 253l31 219c19 138 99 253 263 253c162 0 211 -115 192 -253l-31 -219c-20 -141 -112 -253 -263 -253zM369 652c-119 0 -172 -76 -187 -189l-31 -219c-16 -111 24 -189 134 -189s171 78 187 189l31 219c15 113 -17 189 -134 189zM364 916
l73 -91c2 -2 3 -6 3 -8c0 -16 -16 -30 -30 -30c-11 0 -18 6 -26 16l-68 88c-2 3 -3 7 -3 10c0 15 16 29 28 29c11 0 15 -6 23 -14z" />
    <glyph glyph-name="Oacute" unicode="&#xd3;" horiz-adv-x="551" 
d="M276 -9c-151 0 -212 112 -192 253l31 219c19 138 99 253 263 253c162 0 211 -115 192 -253l-31 -219c-20 -141 -112 -253 -263 -253zM369 652c-119 0 -172 -76 -187 -189l-31 -219c-16 -111 24 -189 134 -189s171 78 187 189l31 219c15 113 -17 189 -134 189zM356 825
l99 91c7 6 15 14 25 14c13 0 22 -12 22 -24c0 -5 -2 -12 -5 -15l-94 -87c-11 -10 -19 -17 -30 -17c-13 0 -23 11 -23 25c0 7 2 9 6 13z" />
    <glyph glyph-name="Ocircumflex" unicode="&#xd4;" horiz-adv-x="551" 
d="M276 -9c-151 0 -212 112 -192 253l31 219c19 138 99 253 263 253c162 0 211 -115 192 -253l-31 -219c-20 -141 -112 -253 -263 -253zM369 652c-119 0 -172 -76 -187 -189l-31 -219c-16 -111 24 -189 134 -189s171 78 187 189l31 219c15 113 -17 189 -134 189zM396 853
l-92 -68c-1 -2 -10 -3 -14 -3c-8 0 -15 9 -15 17s11 19 20 26l90 69h-1c6 3 12 7 19 7c6 0 12 -4 17 -7h-1l72 -69c4 -7 12 -16 12 -23c0 -9 -11 -20 -22 -20c-4 0 -10 1 -11 3z" />
    <glyph glyph-name="Otilde" unicode="&#xd5;" horiz-adv-x="551" 
d="M276 -9c-151 0 -212 112 -192 253l31 219c19 138 99 253 263 253c162 0 211 -115 192 -253l-31 -219c-20 -141 -112 -253 -263 -253zM369 652c-119 0 -172 -76 -187 -189l-31 -219c-16 -111 24 -189 134 -189s171 78 187 189l31 219c15 113 -17 189 -134 189zM530 860
c0 -33 -49 -58 -85 -58c-22 0 -40 9 -56 18c-12 6 -20 15 -42 15c-12 0 -27 -3 -48 -18c-8 -6 -12 -9 -20 -9c-11 0 -20 6 -20 19c0 30 43 60 83 60c20 0 37 -8 56 -19c16 -9 27 -13 43 -14c27 0 39 8 50 17c5 4 15 12 23 12c7 0 16 -9 16 -23z" />
    <glyph glyph-name="Odieresis" unicode="&#xd6;" horiz-adv-x="551" 
d="M276 -9c-151 0 -212 112 -192 253l31 219c19 138 99 253 263 253c162 0 211 -115 192 -253l-31 -219c-20 -141 -112 -253 -263 -253zM369 652c-119 0 -172 -76 -187 -189l-31 -219c-16 -111 24 -189 134 -189s171 78 187 189l31 219c15 113 -17 189 -134 189zM523 851
c0 -26 -22 -47 -46 -47c-20 0 -37 17 -37 37c0 24 25 46 49 46c20 0 34 -17 34 -36zM350 851c0 -26 -22 -47 -47 -47c-20 0 -35 17 -35 37c0 23 23 46 47 46c21 0 35 -17 35 -36z" />
    <glyph glyph-name="multiply" unicode="&#xd7;" horiz-adv-x="500" 
d="M493 482l-145 -127l109 -128c5 -5 8 -12 8 -20c0 -17 -21 -35 -37 -35c-8 0 -18 3 -23 9l-109 128l-147 -128c-6 -6 -15 -9 -24 -9c-14 0 -28 16 -28 29c0 8 4 17 14 26l146 128l-111 127c-5 5 -7 13 -7 20c0 16 24 36 37 36c9 0 17 -3 23 -10l110 -127l145 127
c9 8 17 10 25 10c12 0 28 -14 28 -29c0 -9 -6 -20 -14 -27z" />
    <glyph glyph-name="Oslash" unicode="&#xd8;" horiz-adv-x="551" 
d="M33 29l64 75c-15 44 -19 91 -12 140l30 219c20 138 100 253 264 253c79 0 132 -29 166 -77l52 60c7 9 19 11 27 5c7 -6 9 -17 0 -27l-63 -75c14 -41 16 -89 9 -139l-30 -219c-20 -141 -112 -253 -263 -253c-74 0 -129 28 -164 77l-52 -61c-7 -9 -19 -11 -27 -5
c-7 6 -10 17 -1 27zM370 652c-119 0 -173 -76 -189 -189l-30 -219c-3 -18 -3 -41 0 -75l346 411c-21 45 -60 72 -127 72zM503 463c3 20 4 46 3 73l-345 -410c21 -44 63 -71 125 -71c110 0 171 78 187 189z" />
    <glyph glyph-name="Ugrave" unicode="&#xd9;" horiz-adv-x="572" 
d="M539 228c-19 -137 -114 -237 -251 -237c-141 0 -205 101 -186 237l64 452c3 21 21 36 40 36c18 0 29 -16 27 -36l-64 -452c-14 -102 25 -173 128 -173s160 73 174 173l64 452c2 19 20 36 38 36c19 0 32 -17 30 -36zM361 916l73 -91c2 -2 3 -6 3 -8c0 -16 -16 -30 -30 -30
c-11 0 -18 6 -26 16l-68 88c-2 3 -3 7 -3 10c0 15 16 29 28 29c11 0 15 -6 23 -14z" />
    <glyph glyph-name="Uacute" unicode="&#xda;" horiz-adv-x="572" 
d="M539 228c-19 -137 -114 -237 -251 -237c-141 0 -205 101 -186 237l64 452c3 21 21 36 40 36c18 0 29 -16 27 -36l-64 -452c-14 -102 25 -173 128 -173s160 73 174 173l64 452c2 19 20 36 38 36c19 0 32 -17 30 -36zM373 825l99 91c7 6 15 14 25 14c13 0 22 -12 22 -24
c0 -5 -2 -12 -5 -15l-94 -87c-11 -10 -19 -17 -30 -17c-13 0 -23 11 -23 25c0 7 2 9 6 13z" />
    <glyph glyph-name="Ucircumflex" unicode="&#xdb;" horiz-adv-x="572" 
d="M539 228c-19 -137 -114 -237 -251 -237c-141 0 -205 101 -186 237l64 452c3 21 21 36 40 36c18 0 29 -16 27 -36l-64 -452c-14 -102 25 -173 128 -173s160 73 174 173l64 452c2 19 20 36 38 36c19 0 32 -17 30 -36zM407 853l-92 -68c-1 -2 -10 -3 -14 -3
c-8 0 -15 9 -15 17s11 19 20 26l90 69h-1c6 3 12 7 19 7c6 0 12 -4 17 -7h-1l72 -69c4 -7 12 -16 12 -23c0 -9 -11 -20 -22 -20c-4 0 -10 1 -11 3z" />
    <glyph glyph-name="Udieresis" unicode="&#xdc;" horiz-adv-x="572" 
d="M539 228c-19 -137 -114 -237 -251 -237c-141 0 -205 101 -186 237l64 452c3 21 21 36 40 36c18 0 29 -16 27 -36l-64 -452c-14 -102 25 -173 128 -173s160 73 174 173l64 452c2 19 20 36 38 36c19 0 32 -17 30 -36zM533 851c0 -26 -22 -47 -46 -47c-20 0 -37 17 -37 37
c0 24 25 46 49 46c20 0 34 -17 34 -36zM360 851c0 -26 -22 -47 -47 -47c-20 0 -35 17 -35 37c0 23 23 46 47 46c21 0 35 -17 35 -36z" />
    <glyph glyph-name="Yacute" unicode="&#xdd;" horiz-adv-x="476" 
d="M240 -9c-20 0 -33 15 -30 35l36 253l-128 386c-1 4 -2 10 -2 14c0 19 21 37 40 37c9 0 18 -4 22 -13v1l113 -351l210 351v-1c6 9 17 13 27 13c16 0 29 -14 29 -30c0 -7 -4 -16 -6 -21l-238 -390l-35 -249c-3 -19 -19 -35 -38 -35zM290 825l99 91c7 6 15 14 25 14
c13 0 22 -12 22 -24c0 -5 -2 -12 -5 -15l-94 -87c-11 -10 -19 -17 -30 -17c-13 0 -23 11 -23 25c0 7 2 9 6 13z" />
    <glyph glyph-name="Thorn" unicode="&#xde;" horiz-adv-x="530" 
d="M83 24l92 659c3 17 20 33 38 33c19 0 31 -16 28 -33l-14 -99h126c142 0 193 -87 193 -186c0 -160 -103 -254 -255 -254h-126l-16 -120c-3 -18 -19 -33 -38 -33c-18 0 -31 15 -28 33zM218 520l-44 -312h126c119 0 180 62 180 184c0 65 -29 128 -136 128h-126z" />
    <glyph glyph-name="germandbls" unicode="&#xdf;" horiz-adv-x="544" 
d="M541 183c0 -110 -73 -186 -200 -186c-22 0 -120 1 -120 37c0 12 10 32 39 32c10 0 22 -2 36 -5c17 -3 33 -6 52 -6c55 0 127 32 127 119c0 79 -70 118 -122 135c-32 10 -69 23 -69 58c0 33 21 51 43 61c79 36 142 57 142 141c0 60 -43 91 -109 91
c-87 0 -131 -50 -146 -155l-75 -539c-3 -18 -20 -32 -37 -32c-19 0 -31 14 -28 32l75 536c19 136 99 217 225 217c94 0 160 -48 160 -135c0 -80 -45 -134 -105 -159c-26 -11 -82 -24 -78 -49c2 -13 16 -16 66 -35c71 -27 124 -77 124 -158z" />
    <glyph glyph-name="agrave" unicode="&#xe0;" horiz-adv-x="482" 
d="M206 -7c-104 0 -147 76 -131 186l19 131c17 119 73 205 207 205c123 0 161 -70 143 -201l-31 -226c-4 -26 3 -39 21 -39c4 0 6 1 8 1c13 0 19 -11 19 -23c0 -23 -23 -31 -42 -31c-31 0 -55 22 -68 57c-45 -40 -95 -60 -145 -60zM230 49c42 0 78 16 119 49l34 243
c11 81 -18 119 -90 119c-81 0 -119 -48 -134 -150l-19 -131c-12 -85 17 -130 90 -130zM302 716l73 -91c2 -2 3 -6 3 -8c0 -16 -16 -30 -30 -30c-11 0 -18 6 -26 16l-68 88c-2 3 -3 7 -3 10c0 15 16 29 28 29c11 0 15 -6 23 -14z" />
    <glyph glyph-name="aacute" unicode="&#xe1;" horiz-adv-x="482" 
d="M206 -7c-104 0 -147 76 -131 186l19 131c17 119 73 205 207 205c123 0 161 -70 143 -201l-31 -226c-4 -26 3 -39 21 -39c4 0 6 1 8 1c13 0 19 -11 19 -23c0 -23 -23 -31 -42 -31c-31 0 -55 22 -68 57c-45 -40 -95 -60 -145 -60zM230 49c42 0 78 16 119 49l34 243
c11 81 -18 119 -90 119c-81 0 -119 -48 -134 -150l-19 -131c-12 -85 17 -130 90 -130zM294 625l99 91c7 6 15 14 25 14c13 0 22 -12 22 -24c0 -5 -2 -12 -5 -15l-94 -87c-11 -10 -19 -17 -30 -17c-13 0 -23 11 -23 25c0 7 2 9 6 13z" />
    <glyph glyph-name="acircumflex" unicode="&#xe2;" horiz-adv-x="482" 
d="M206 -7c-104 0 -147 76 -131 186l19 131c17 119 73 205 207 205c123 0 161 -70 143 -201l-31 -226c-4 -26 3 -39 21 -39c4 0 6 1 8 1c13 0 19 -11 19 -23c0 -23 -23 -31 -42 -31c-31 0 -55 22 -68 57c-45 -40 -95 -60 -145 -60zM230 49c42 0 78 16 119 49l34 243
c11 81 -18 119 -90 119c-81 0 -119 -48 -134 -150l-19 -131c-12 -85 17 -130 90 -130zM334 653l-92 -68c-1 -2 -10 -3 -14 -3c-8 0 -15 9 -15 17s11 19 20 26l90 69h-1c6 3 12 7 19 7c6 0 12 -4 17 -7h-1l72 -69c4 -7 12 -16 12 -23c0 -9 -11 -20 -22 -20c-4 0 -10 1 -11 3z
" />
    <glyph glyph-name="atilde" unicode="&#xe3;" horiz-adv-x="482" 
d="M206 -7c-104 0 -147 76 -131 186l19 131c17 119 73 205 207 205c123 0 161 -70 143 -201l-31 -226c-4 -26 3 -39 21 -39c4 0 6 1 8 1c13 0 19 -11 19 -23c0 -23 -23 -31 -42 -31c-31 0 -55 22 -68 57c-45 -40 -95 -60 -145 -60zM230 49c42 0 78 16 119 49l34 243
c11 81 -18 119 -90 119c-81 0 -119 -48 -134 -150l-19 -131c-12 -85 17 -130 90 -130zM468 660c0 -33 -49 -58 -85 -58c-22 0 -40 9 -56 18c-12 6 -20 15 -42 15c-12 0 -27 -3 -48 -18c-8 -6 -12 -9 -20 -9c-11 0 -20 6 -20 19c0 30 43 60 83 60c20 0 37 -8 56 -19
c16 -9 27 -13 43 -14c27 0 39 8 50 17c5 4 15 12 23 12c7 0 16 -9 16 -23z" />
    <glyph glyph-name="adieresis" unicode="&#xe4;" horiz-adv-x="482" 
d="M206 -7c-104 0 -147 76 -131 186l19 131c17 119 73 205 207 205c123 0 161 -70 143 -201l-31 -226c-4 -26 3 -39 21 -39c4 0 6 1 8 1c13 0 19 -11 19 -23c0 -23 -23 -31 -42 -31c-31 0 -55 22 -68 57c-45 -40 -95 -60 -145 -60zM230 49c42 0 78 16 119 49l34 243
c11 81 -18 119 -90 119c-81 0 -119 -48 -134 -150l-19 -131c-12 -85 17 -130 90 -130zM460 651c0 -26 -22 -47 -46 -47c-20 0 -37 17 -37 37c0 24 25 46 49 46c20 0 34 -17 34 -36zM287 651c0 -26 -22 -47 -47 -47c-20 0 -35 17 -35 37c0 23 23 46 47 46c21 0 35 -17 35 -36
z" />
    <glyph glyph-name="aring" unicode="&#xe5;" horiz-adv-x="482" 
d="M206 -7c-104 0 -147 76 -131 186l19 131c17 119 73 205 207 205c123 0 161 -70 143 -201l-31 -226c-4 -26 3 -39 21 -39c4 0 6 1 8 1c13 0 19 -11 19 -23c0 -23 -23 -31 -42 -31c-31 0 -55 22 -68 57c-45 -40 -95 -60 -145 -60zM230 49c42 0 78 16 119 49l34 243
c11 81 -18 119 -90 119c-81 0 -119 -48 -134 -150l-19 -131c-12 -85 17 -130 90 -130zM431 662c0 -57 -50 -104 -107 -104c-48 0 -83 36 -83 82c0 57 52 105 109 105c48 0 81 -37 81 -83zM400 659c0 31 -22 56 -54 56c-38 0 -73 -33 -73 -71c0 -31 23 -55 55 -55
c38 0 72 31 72 70z" />
    <glyph glyph-name="ae" unicode="&#xe6;" horiz-adv-x="712" 
d="M541 210c-33 0 -74 3 -112 11l-10 -71c-9 -61 27 -102 106 -102c46 0 76 13 114 29c4 2 9 3 13 3c14 0 23 -12 23 -25c0 -47 -114 -62 -163 -62c-66 0 -110 30 -131 77c-58 -52 -116 -77 -183 -77c-101 0 -143 60 -131 147l1 4c13 96 78 146 194 146c34 0 71 -7 110 -18
l9 69c12 81 -22 119 -101 119c-37 0 -59 -9 -83 -22c-2 0 -3 -1 -6 -3c-4 -2 -14 -5 -20 -5c-14 0 -18 13 -18 24c0 44 77 61 145 61c69 0 109 -33 127 -96c37 58 93 96 166 96c92 0 139 -53 139 -134c0 -103 -56 -171 -189 -171zM665 375c0 58 -32 83 -88 83
c-72 0 -121 -40 -129 -102l-12 -85c43 -5 95 -8 116 -8c83 0 113 45 113 112zM347 98l17 120c-39 13 -80 19 -110 19c-92 0 -115 -43 -122 -94l-1 -4c-7 -52 11 -90 86 -90c46 0 86 16 130 49z" />
    <glyph glyph-name="ccedilla" unicode="&#xe7;" horiz-adv-x="393" 
d="M315 -127c0 -47 -41 -91 -117 -91c-19 0 -25 0 -29 1c-27 3 -51 19 -38 38v-1c6 8 14 7 27 3l19 -4c55 -12 86 26 86 55c0 25 -21 36 -63 38c-26 1 -33 7 -28 25l18 58c-95 16 -128 90 -115 179l21 156c15 102 80 182 204 182c44 0 128 -11 128 -52
c0 -16 -15 -30 -32 -30c-6 0 -9 1 -14 2h1c-23 13 -46 25 -83 25c-87 0 -127 -47 -139 -127l-21 -156c-12 -79 16 -126 103 -126c39 0 63 12 89 24h-1c7 2 12 3 16 3c13 0 23 -11 23 -25c0 -43 -93 -57 -144 -58l-15 -48c76 -1 104 -29 104 -71z" />
    <glyph glyph-name="egrave" unicode="&#xe8;" horiz-adv-x="435" 
d="M243 48c46 0 76 13 114 29c2 1 7 3 11 3c15 0 25 -12 25 -25c0 -47 -113 -62 -168 -62c-112 0 -166 71 -153 163l27 192c13 95 87 167 205 167c97 0 142 -52 142 -133c0 -104 -54 -172 -188 -172c-33 0 -74 3 -112 11l-10 -71c-8 -61 27 -102 107 -102zM382 375
c0 58 -32 83 -89 83c-72 0 -119 -40 -128 -102l-12 -85c42 -6 95 -8 116 -8c84 0 113 45 113 112zM259 716l73 -91c2 -2 3 -6 3 -8c0 -16 -16 -30 -30 -30c-11 0 -18 6 -26 16l-68 88c-2 3 -3 7 -3 10c0 15 16 29 28 29c11 0 15 -6 23 -14z" />
    <glyph glyph-name="eacute" unicode="&#xe9;" horiz-adv-x="435" 
d="M243 48c46 0 76 13 114 29c2 1 7 3 11 3c15 0 25 -12 25 -25c0 -47 -113 -62 -168 -62c-112 0 -166 71 -153 163l27 192c13 95 87 167 205 167c97 0 142 -52 142 -133c0 -104 -54 -172 -188 -172c-33 0 -74 3 -112 11l-10 -71c-8 -61 27 -102 107 -102zM382 375
c0 58 -32 83 -89 83c-72 0 -119 -40 -128 -102l-12 -85c42 -6 95 -8 116 -8c84 0 113 45 113 112zM278 625l99 91c7 6 15 14 25 14c13 0 22 -12 22 -24c0 -5 -2 -12 -5 -15l-94 -87c-11 -10 -19 -17 -30 -17c-13 0 -23 11 -23 25c0 7 2 9 6 13z" />
    <glyph glyph-name="ecircumflex" unicode="&#xea;" horiz-adv-x="435" 
d="M243 48c46 0 76 13 114 29c2 1 7 3 11 3c15 0 25 -12 25 -25c0 -47 -113 -62 -168 -62c-112 0 -166 71 -153 163l27 192c13 95 87 167 205 167c97 0 142 -52 142 -133c0 -104 -54 -172 -188 -172c-33 0 -74 3 -112 11l-10 -71c-8 -61 27 -102 107 -102zM382 375
c0 58 -32 83 -89 83c-72 0 -119 -40 -128 -102l-12 -85c42 -6 95 -8 116 -8c84 0 113 45 113 112zM310 653l-92 -68c-1 -2 -10 -3 -14 -3c-8 0 -15 9 -15 17s11 19 20 26l90 69h-1c6 3 12 7 19 7c6 0 12 -4 17 -7h-1l72 -69c4 -7 12 -16 12 -23c0 -9 -11 -20 -22 -20
c-4 0 -10 1 -11 3z" />
    <glyph glyph-name="edieresis" unicode="&#xeb;" horiz-adv-x="435" 
d="M243 48c46 0 76 13 114 29c2 1 7 3 11 3c15 0 25 -12 25 -25c0 -47 -113 -62 -168 -62c-112 0 -166 71 -153 163l27 192c13 95 87 167 205 167c97 0 142 -52 142 -133c0 -104 -54 -172 -188 -172c-33 0 -74 3 -112 11l-10 -71c-8 -61 27 -102 107 -102zM382 375
c0 58 -32 83 -89 83c-72 0 -119 -40 -128 -102l-12 -85c42 -6 95 -8 116 -8c84 0 113 45 113 112zM437 651c0 -26 -22 -47 -46 -47c-20 0 -37 17 -37 37c0 24 25 46 49 46c20 0 34 -17 34 -36zM264 651c0 -26 -22 -47 -47 -47c-20 0 -35 17 -35 37c0 23 23 46 47 46
c21 0 35 -17 35 -36z" />
    <glyph glyph-name="igrave" unicode="&#xec;" horiz-adv-x="245" 
d="M104 90l55 389c2 18 18 33 37 33c17 0 30 -15 28 -33l-55 -389c-3 -23 0 -38 9 -54c1 -2 3 -8 3 -12c0 -17 -15 -31 -34 -31c-22 0 -55 11 -43 97zM172 716l73 -91c2 -2 3 -6 3 -8c0 -16 -16 -30 -30 -30c-11 0 -18 6 -26 16l-68 88c-2 3 -3 7 -3 10c0 15 16 29 28 29
c11 0 15 -6 23 -14z" />
    <glyph glyph-name="iacute" unicode="&#xed;" horiz-adv-x="245" 
d="M104 90l55 389c2 18 18 33 37 33c17 0 30 -15 28 -33l-55 -389c-3 -23 0 -38 9 -54c1 -2 3 -8 3 -12c0 -17 -15 -31 -34 -31c-22 0 -55 11 -43 97zM181 625l99 91c7 6 15 14 25 14c13 0 22 -12 22 -24c0 -5 -2 -12 -5 -15l-94 -87c-11 -10 -19 -17 -30 -17
c-13 0 -23 11 -23 25c0 7 2 9 6 13z" />
    <glyph glyph-name="icircumflex" unicode="&#xee;" horiz-adv-x="245" 
d="M104 90l55 389c2 18 18 33 37 33c17 0 30 -15 28 -33l-55 -389c-3 -23 0 -38 9 -54c1 -2 3 -8 3 -12c0 -17 -15 -31 -34 -31c-22 0 -55 11 -43 97zM216 653l-92 -68c-1 -2 -10 -3 -14 -3c-8 0 -15 9 -15 17s11 19 20 26l90 69h-1c6 3 12 7 19 7c6 0 12 -4 17 -7h-1
l72 -69c4 -7 12 -16 12 -23c0 -9 -11 -20 -22 -20c-4 0 -10 1 -11 3z" />
    <glyph glyph-name="idieresis" unicode="&#xef;" horiz-adv-x="245" 
d="M104 90l55 389c2 18 18 33 37 33c17 0 30 -15 28 -33l-55 -389c-3 -23 0 -38 9 -54c1 -2 3 -8 3 -12c0 -17 -15 -31 -34 -31c-22 0 -55 11 -43 97zM342 651c0 -26 -22 -47 -46 -47c-20 0 -37 17 -37 37c0 24 25 46 49 46c20 0 34 -17 34 -36zM169 651
c0 -26 -22 -47 -47 -47c-20 0 -35 17 -35 37c0 23 23 46 47 46c21 0 35 -17 35 -36z" />
    <glyph glyph-name="eth" unicode="&#xf0;" horiz-adv-x="500" 
d="M573 677c21 -1 23 -33 3 -43l-74 -36c10 -38 15 -101 15 -159c0 -338 -88 -448 -257 -448c-132 0 -189 79 -189 183c0 138 82 262 220 262c38 0 103 -12 154 -57c12 87 11 148 2 190l-81 -40c-11 -5 -18 -6 -21 -6c-10 0 -21 12 -17 24c2 7 6 15 14 19l88 44
c-33 42 -72 49 -107 53c-11 1 -25 3 -20 26c4 19 14 27 54 27c56 0 101 -25 130 -78l66 33c8 4 14 6 20 6zM433 282l5 32c-31 38 -100 63 -148 63c-92 0 -153 -77 -153 -193c0 -75 35 -132 127 -132c104 0 145 69 169 230z" />
    <glyph glyph-name="ntilde" unicode="&#xf1;" horiz-adv-x="509" 
d="M194 464c54 34 108 49 157 49c104 0 145 -75 129 -187l-33 -236c-3 -23 -1 -39 9 -54c1 -2 2 -8 2 -12c0 -17 -14 -31 -33 -31c-22 0 -55 11 -43 97l33 236c12 83 -17 131 -84 131c-42 0 -86 -19 -129 -48c1 -11 0 -23 -1 -34l-49 -350c-3 -18 -16 -31 -37 -31
c-22 0 -31 13 -29 31l50 350c5 35 3 56 -8 76c-2 4 -3 9 -3 14c0 18 17 32 33 32c13 0 28 -11 36 -33zM470 660c0 -33 -49 -58 -85 -58c-22 0 -40 9 -56 18c-12 6 -20 15 -42 15c-12 0 -27 -3 -48 -18c-8 -6 -12 -9 -20 -9c-11 0 -20 6 -20 19c0 30 43 60 83 60
c20 0 37 -8 56 -19c16 -9 27 -13 43 -14c27 0 39 8 50 17c5 4 15 12 23 12c7 0 16 -9 16 -23z" />
    <glyph glyph-name="ograve" unicode="&#xf2;" horiz-adv-x="464" 
d="M234 -7c-120 0 -174 76 -160 175l24 172c14 99 90 176 210 176c121 0 174 -77 160 -176l-24 -172c-14 -99 -89 -175 -210 -175zM243 52c80 0 126 44 136 116l24 173c10 72 -23 117 -103 117c-79 0 -127 -45 -137 -117l-24 -173c-10 -72 25 -116 104 -116zM286 716l73 -91
c2 -2 3 -6 3 -8c0 -16 -16 -30 -30 -30c-11 0 -18 6 -26 16l-68 88c-2 3 -3 7 -3 10c0 15 16 29 28 29c11 0 15 -6 23 -14z" />
    <glyph glyph-name="oacute" unicode="&#xf3;" horiz-adv-x="464" 
d="M234 -7c-120 0 -174 76 -160 175l24 172c14 99 90 176 210 176c121 0 174 -77 160 -176l-24 -172c-14 -99 -89 -175 -210 -175zM243 52c80 0 126 44 136 116l24 173c10 72 -23 117 -103 117c-79 0 -127 -45 -137 -117l-24 -173c-10 -72 25 -116 104 -116zM255 625l99 91
c7 6 15 14 25 14c13 0 22 -12 22 -24c0 -5 -2 -12 -5 -15l-94 -87c-11 -10 -19 -17 -30 -17c-13 0 -23 11 -23 25c0 7 2 9 6 13z" />
    <glyph glyph-name="ocircumflex" unicode="&#xf4;" horiz-adv-x="464" 
d="M234 -7c-120 0 -174 76 -160 175l24 172c14 99 90 176 210 176c121 0 174 -77 160 -176l-24 -172c-14 -99 -89 -175 -210 -175zM243 52c80 0 126 44 136 116l24 173c10 72 -23 117 -103 117c-79 0 -127 -45 -137 -117l-24 -173c-10 -72 25 -116 104 -116zM325 653
l-92 -68c-1 -2 -10 -3 -14 -3c-8 0 -15 9 -15 17s11 19 20 26l90 69h-1c6 3 12 7 19 7c6 0 12 -4 17 -7h-1l72 -69c4 -7 12 -16 12 -23c0 -9 -11 -20 -22 -20c-4 0 -10 1 -11 3z" />
    <glyph glyph-name="otilde" unicode="&#xf5;" horiz-adv-x="464" 
d="M234 -7c-120 0 -174 76 -160 175l24 172c14 99 90 176 210 176c121 0 174 -77 160 -176l-24 -172c-14 -99 -89 -175 -210 -175zM243 52c80 0 126 44 136 116l24 173c10 72 -23 117 -103 117c-79 0 -127 -45 -137 -117l-24 -173c-10 -72 25 -116 104 -116zM459 660
c0 -33 -49 -58 -85 -58c-22 0 -40 9 -56 18c-12 6 -20 15 -42 15c-12 0 -27 -3 -48 -18c-8 -6 -12 -9 -20 -9c-11 0 -20 6 -20 19c0 30 43 60 83 60c20 0 37 -8 56 -19c16 -9 27 -13 43 -14c27 0 39 8 50 17c5 4 15 12 23 12c7 0 16 -9 16 -23z" />
    <glyph glyph-name="odieresis" unicode="&#xf6;" horiz-adv-x="464" 
d="M234 -7c-120 0 -174 76 -160 175l24 172c14 99 90 176 210 176c121 0 174 -77 160 -176l-24 -172c-14 -99 -89 -175 -210 -175zM243 52c80 0 126 44 136 116l24 173c10 72 -23 117 -103 117c-79 0 -127 -45 -137 -117l-24 -173c-10 -72 25 -116 104 -116zM451 651
c0 -26 -22 -47 -46 -47c-20 0 -37 17 -37 37c0 24 25 46 49 46c20 0 34 -17 34 -36zM278 651c0 -26 -22 -47 -47 -47c-20 0 -35 17 -35 37c0 23 23 46 47 46c21 0 35 -17 35 -36z" />
    <glyph glyph-name="oslash" unicode="&#xf8;" horiz-adv-x="464" 
d="M45 10l44 53c-16 31 -21 68 -16 105l24 172c14 99 90 176 210 176c52 0 94 -17 125 -45l39 47c8 9 20 12 27 5c9 -8 10 -18 2 -27l-46 -55c14 -30 18 -65 13 -101l-24 -172c-14 -99 -88 -175 -209 -175c-51 0 -92 15 -123 40l-37 -45c-7 -9 -20 -10 -28 -4
c-7 6 -6 18 -1 26zM138 168c-1 -5 -2 -27 -1 -47l250 298c-18 25 -48 39 -88 39c-79 0 -126 -45 -137 -117zM242 52c80 0 126 44 136 116l24 173c1 6 2 11 2 40l-249 -296c19 -22 49 -33 87 -33z" />
    <glyph glyph-name="ugrave" unicode="&#xf9;" horiz-adv-x="509" 
d="M383 120l51 360c3 18 15 32 37 32c21 0 31 -14 28 -32l-51 -360c-7 -50 -3 -58 2 -65c5 -6 11 -17 11 -26c0 -16 -16 -30 -34 -30c-17 0 -28 13 -38 33c-52 -28 -107 -39 -154 -39c-104 0 -146 75 -130 186l42 301c3 18 16 32 37 32s30 -14 28 -32l-42 -301
c-12 -82 17 -130 84 -130c42 0 86 14 127 38c0 10 0 20 2 33zM295 716l73 -91c2 -2 3 -6 3 -8c0 -16 -16 -30 -30 -30c-11 0 -18 6 -26 16l-68 88c-2 3 -3 7 -3 10c0 15 16 29 28 29c11 0 15 -6 23 -14z" />
    <glyph glyph-name="uacute" unicode="&#xfa;" horiz-adv-x="509" 
d="M383 120l51 360c3 18 15 32 37 32c21 0 31 -14 28 -32l-51 -360c-7 -50 -3 -58 2 -65c5 -6 11 -17 11 -26c0 -16 -16 -30 -34 -30c-17 0 -28 13 -38 33c-52 -28 -107 -39 -154 -39c-104 0 -146 75 -130 186l42 301c3 18 16 32 37 32s30 -14 28 -32l-42 -301
c-12 -82 17 -130 84 -130c42 0 86 14 127 38c0 10 0 20 2 33zM311 625l99 91c7 6 15 14 25 14c13 0 22 -12 22 -24c0 -5 -2 -12 -5 -15l-94 -87c-11 -10 -19 -17 -30 -17c-13 0 -23 11 -23 25c0 7 2 9 6 13z" />
    <glyph glyph-name="ucircumflex" unicode="&#xfb;" horiz-adv-x="509" 
d="M383 120l51 360c3 18 15 32 37 32c21 0 31 -14 28 -32l-51 -360c-7 -50 -3 -58 2 -65c5 -6 11 -17 11 -26c0 -16 -16 -30 -34 -30c-17 0 -28 13 -38 33c-52 -28 -107 -39 -154 -39c-104 0 -146 75 -130 186l42 301c3 18 16 32 37 32s30 -14 28 -32l-42 -301
c-12 -82 17 -130 84 -130c42 0 86 14 127 38c0 10 0 20 2 33zM347 653l-92 -68c-1 -2 -10 -3 -14 -3c-8 0 -15 9 -15 17s11 19 20 26l90 69h-1c6 3 12 7 19 7c6 0 12 -4 17 -7h-1l72 -69c4 -7 12 -16 12 -23c0 -9 -11 -20 -22 -20c-4 0 -10 1 -11 3z" />
    <glyph glyph-name="udieresis" unicode="&#xfc;" horiz-adv-x="509" 
d="M383 120l51 360c3 18 15 32 37 32c21 0 31 -14 28 -32l-51 -360c-7 -50 -3 -58 2 -65c5 -6 11 -17 11 -26c0 -16 -16 -30 -34 -30c-17 0 -28 13 -38 33c-52 -28 -107 -39 -154 -39c-104 0 -146 75 -130 186l42 301c3 18 16 32 37 32s30 -14 28 -32l-42 -301
c-12 -82 17 -130 84 -130c42 0 86 14 127 38c0 10 0 20 2 33zM474 651c0 -26 -22 -47 -46 -47c-20 0 -37 17 -37 37c0 24 25 46 49 46c20 0 34 -17 34 -36zM301 651c0 -26 -22 -47 -47 -47c-20 0 -35 17 -35 37c0 23 23 46 47 46c21 0 35 -17 35 -36z" />
    <glyph glyph-name="yacute" unicode="&#xfd;" horiz-adv-x="509" 
d="M93 173l44 307c2 18 16 32 37 32s30 -14 28 -32l-44 -307c-11 -77 13 -125 92 -125c45 0 91 16 130 52l53 380c3 18 16 32 38 32c21 0 30 -14 27 -32l-74 -528c-14 -102 -79 -182 -201 -182c-46 0 -129 12 -129 52c0 15 15 31 31 31c4 0 9 -1 15 -3h-1
c22 -13 44 -24 83 -24c86 0 126 46 137 126l12 85c-46 -27 -94 -43 -145 -43c-120 0 -147 77 -133 179zM315 625l99 91c7 6 15 14 25 14c13 0 22 -12 22 -24c0 -5 -2 -12 -5 -15l-94 -87c-11 -10 -19 -17 -30 -17c-13 0 -23 11 -23 25c0 7 2 9 6 13z" />
    <glyph glyph-name="thorn" unicode="&#xfe;" horiz-adv-x="485" 
d="M201 404l-39 -278c26 -35 64 -56 118 -56c74 0 111 37 120 98l27 194c9 62 -18 99 -92 99c-53 0 -97 -22 -134 -57zM53 -186l124 879c2 16 16 32 37 32s30 -16 28 -32l-32 -227c49 32 98 49 153 49c111 0 141 -67 129 -153l-27 -194c-12 -86 -62 -153 -173 -153
c-55 0 -98 18 -139 49l-35 -250c-2 -16 -15 -31 -36 -31s-31 15 -29 31z" />
    <glyph glyph-name="ydieresis" unicode="&#xff;" horiz-adv-x="509" 
d="M93 173l44 307c2 18 16 32 37 32s30 -14 28 -32l-44 -307c-11 -77 13 -125 92 -125c45 0 91 16 130 52l53 380c3 18 16 32 38 32c21 0 30 -14 27 -32l-74 -528c-14 -102 -79 -182 -201 -182c-46 0 -129 12 -129 52c0 15 15 31 31 31c4 0 9 -1 15 -3h-1
c22 -13 44 -24 83 -24c86 0 126 46 137 126l12 85c-46 -27 -94 -43 -145 -43c-120 0 -147 77 -133 179zM472 651c0 -26 -22 -47 -46 -47c-20 0 -37 17 -37 37c0 24 25 46 49 46c20 0 34 -17 34 -36zM299 651c0 -26 -22 -47 -47 -47c-20 0 -35 17 -35 37c0 23 23 46 47 46
c21 0 35 -17 35 -36z" />
    <glyph glyph-name="Amacron" unicode="&#x100;" horiz-adv-x="549" 
d="M165 163l-66 -148c-8 -12 -24 -24 -35 -24c-18 0 -31 11 -31 29c0 6 3 14 4 17l288 630c12 28 27 49 53 49c25 0 35 -22 40 -49l110 -630c0 -2 0 -9 -1 -13c-3 -20 -19 -33 -39 -33c-12 0 -27 10 -29 24l-25 148h-269zM362 607l-169 -379h231zM551 848
c0 -19 -15 -33 -33 -33h-255c-15 0 -26 10 -26 25c0 18 16 34 35 34h255c14 0 24 -12 24 -26z" />
    <glyph glyph-name="amacron" unicode="&#x101;" horiz-adv-x="482" 
d="M206 -7c-104 0 -147 76 -131 186l19 131c17 119 73 205 207 205c123 0 161 -70 143 -201l-31 -226c-4 -26 3 -39 21 -39c4 0 6 1 8 1c13 0 19 -11 19 -23c0 -23 -23 -31 -42 -31c-31 0 -55 22 -68 57c-45 -40 -95 -60 -145 -60zM230 49c42 0 78 16 119 49l34 243
c11 81 -18 119 -90 119c-81 0 -119 -48 -134 -150l-19 -131c-12 -85 17 -130 90 -130zM467 648c0 -19 -15 -33 -33 -33h-255c-15 0 -26 10 -26 25c0 18 16 34 35 34h255c14 0 24 -12 24 -26z" />
    <glyph glyph-name="Abreve" unicode="&#x102;" horiz-adv-x="549" 
d="M165 163l-66 -148c-8 -12 -24 -24 -35 -24c-18 0 -31 11 -31 29c0 6 3 14 4 17l288 630c12 28 27 49 53 49c25 0 35 -22 40 -49l110 -630c0 -2 0 -9 -1 -13c-3 -20 -19 -33 -39 -33c-12 0 -27 10 -29 24l-25 148h-269zM362 607l-169 -379h231zM393 832c24 0 52 13 79 45
c8 10 18 14 27 14c13 0 23 -8 14 -29c-21 -50 -82 -77 -126 -77c-43 0 -105 26 -108 77c-1 18 15 29 26 29c9 0 17 -4 22 -14c19 -32 39 -45 66 -45z" />
    <glyph glyph-name="abreve" unicode="&#x103;" horiz-adv-x="482" 
d="M206 -7c-104 0 -147 76 -131 186l19 131c17 119 73 205 207 205c123 0 161 -70 143 -201l-31 -226c-4 -26 3 -39 21 -39c4 0 6 1 8 1c13 0 19 -11 19 -23c0 -23 -23 -31 -42 -31c-31 0 -55 22 -68 57c-45 -40 -95 -60 -145 -60zM230 49c42 0 78 16 119 49l34 243
c11 81 -18 119 -90 119c-81 0 -119 -48 -134 -150l-19 -131c-12 -85 17 -130 90 -130zM332 632c24 0 52 13 79 45c8 10 18 14 27 14c13 0 23 -8 14 -29c-21 -50 -82 -77 -126 -77c-43 0 -105 26 -108 77c-1 18 15 29 26 29c9 0 17 -4 22 -14c19 -32 39 -45 66 -45z" />
    <glyph glyph-name="Aogonek" unicode="&#x104;" horiz-adv-x="549" 
d="M570 -164c0 -30 -46 -34 -75 -34c-53 0 -87 22 -87 71c0 40 27 86 62 125c-8 6 -12 12 -12 17l-25 148h-268l-66 -148c-8 -12 -25 -24 -35 -24c-18 0 -32 11 -32 29c0 6 3 14 4 17l289 630c12 28 27 49 53 49c25 0 33 -22 40 -49l110 -630c0 -2 0 -9 -1 -13
c-2 -12 -9 -20 -16 -27c-30 -29 -48 -75 -48 -103c0 -26 15 -45 47 -45c16 0 23 2 31 3c5 1 9 2 12 2c10 0 17 -9 17 -18zM362 607l-169 -379h231z" />
    <glyph glyph-name="aogonek" unicode="&#x105;" horiz-adv-x="482" 
d="M351 53c-45 -40 -95 -60 -145 -60c-104 0 -147 76 -131 186l19 131c17 119 73 205 207 205c123 0 161 -70 143 -201l-31 -226c-4 -26 3 -39 20 -39c5 0 7 1 9 1c13 0 18 -11 18 -23c0 -15 -7 -20 -15 -26c-39 -31 -54 -83 -54 -108c0 -26 14 -46 46 -46c17 0 24 3 31 4
c5 1 11 2 14 2c10 0 16 -10 16 -19c0 -30 -46 -34 -76 -34c-54 0 -88 23 -88 72c0 39 27 83 65 125c-23 10 -39 29 -48 56zM230 49c42 0 78 16 119 49l34 243c11 81 -18 119 -90 119c-81 0 -119 -48 -134 -150l-19 -131c-12 -85 17 -130 90 -130z" />
    <glyph glyph-name="Cacute" unicode="&#x106;" horiz-adv-x="482" 
d="M84 244l31 219c22 153 107 253 259 253c85 0 162 -35 162 -76c0 -18 -14 -32 -33 -32c-9 0 -14 4 -21 9c-2 2 -6 4 -9 6c-30 22 -63 34 -103 34c-121 0 -171 -75 -188 -194l-31 -219c-16 -118 13 -193 134 -193c40 0 76 10 110 32l12 7c11 7 17 10 24 10
c16 0 25 -11 25 -25c0 -45 -92 -83 -184 -83c-152 0 -209 100 -188 252zM360 825l99 91c7 6 15 14 25 14c13 0 22 -12 22 -24c0 -5 -2 -12 -5 -15l-94 -87c-11 -10 -19 -17 -30 -17c-13 0 -23 11 -23 25c0 7 2 9 6 13z" />
    <glyph glyph-name="cacute" unicode="&#x107;" horiz-adv-x="393" 
d="M74 174l22 156c15 102 80 182 204 182c43 0 127 -11 127 -52c0 -16 -14 -30 -31 -30c-6 0 -10 1 -14 2h1c-24 13 -46 25 -83 25c-87 0 -127 -47 -139 -127l-22 -156c-11 -79 17 -126 104 -126c39 0 63 12 89 24h-1c7 2 11 3 15 3c14 0 24 -11 24 -25
c0 -44 -96 -57 -143 -57c-124 0 -167 79 -153 181zM270 625l99 91c7 6 15 14 25 14c13 0 22 -12 22 -24c0 -5 -2 -12 -5 -15l-94 -87c-11 -10 -19 -17 -30 -17c-13 0 -23 11 -23 25c0 7 2 9 6 13z" />
    <glyph glyph-name="Ccircumflex" unicode="&#x108;" horiz-adv-x="482" 
d="M84 244l31 219c22 153 107 253 259 253c85 0 162 -35 162 -76c0 -18 -14 -32 -33 -32c-9 0 -14 4 -21 9c-2 2 -6 4 -9 6c-30 22 -63 34 -103 34c-121 0 -171 -75 -188 -194l-31 -219c-16 -118 13 -193 134 -193c40 0 76 10 110 32l12 7c11 7 17 10 24 10
c16 0 25 -11 25 -25c0 -45 -92 -83 -184 -83c-152 0 -209 100 -188 252zM388 853l-92 -68c-1 -2 -10 -3 -14 -3c-8 0 -15 9 -15 17s11 19 20 26l90 69h-1c6 3 12 7 19 7c6 0 12 -4 17 -7h-1l72 -69c4 -7 12 -16 12 -23c0 -9 -11 -20 -22 -20c-4 0 -10 1 -11 3z" />
    <glyph glyph-name="ccircumflex" unicode="&#x109;" horiz-adv-x="393" 
d="M74 174l22 156c15 102 80 182 204 182c43 0 127 -11 127 -52c0 -16 -14 -30 -31 -30c-6 0 -10 1 -14 2h1c-24 13 -46 25 -83 25c-87 0 -127 -47 -139 -127l-22 -156c-11 -79 17 -126 104 -126c39 0 63 12 89 24h-1c7 2 11 3 15 3c14 0 24 -11 24 -25
c0 -44 -96 -57 -143 -57c-124 0 -167 79 -153 181zM290 653l-92 -68c-1 -2 -10 -3 -14 -3c-8 0 -15 9 -15 17s11 19 20 26l90 69h-1c6 3 12 7 19 7c6 0 12 -4 17 -7h-1l72 -69c4 -7 12 -16 12 -23c0 -9 -11 -20 -22 -20c-4 0 -10 1 -11 3z" />
    <glyph glyph-name="Cdotaccent" unicode="&#x10a;" horiz-adv-x="482" 
d="M84 244l31 219c22 153 107 253 259 253c85 0 162 -35 162 -76c0 -18 -14 -32 -33 -32c-9 0 -14 4 -21 9c-2 2 -6 4 -9 6c-30 22 -63 34 -103 34c-121 0 -171 -75 -188 -194l-31 -219c-16 -118 13 -193 134 -193c40 0 76 10 110 32l12 7c11 7 17 10 24 10
c16 0 25 -11 25 -25c0 -45 -92 -83 -184 -83c-152 0 -209 100 -188 252zM401 851c0 -26 -22 -47 -47 -47c-20 0 -35 17 -35 37c0 23 23 46 47 46c21 0 35 -17 35 -36z" />
    <glyph glyph-name="cdotaccent" unicode="&#x10b;" horiz-adv-x="393" 
d="M74 174l22 156c15 102 80 182 204 182c43 0 127 -11 127 -52c0 -16 -14 -30 -31 -30c-6 0 -10 1 -14 2h1c-24 13 -46 25 -83 25c-87 0 -127 -47 -139 -127l-22 -156c-11 -79 17 -126 104 -126c39 0 63 12 89 24h-1c7 2 11 3 15 3c14 0 24 -11 24 -25
c0 -44 -96 -57 -143 -57c-124 0 -167 79 -153 181zM328 651c0 -26 -22 -47 -47 -47c-20 0 -35 17 -35 37c0 23 23 46 47 46c21 0 35 -17 35 -36z" />
    <glyph glyph-name="Ccaron" unicode="&#x10c;" horiz-adv-x="482" 
d="M84 244l31 219c22 153 107 253 259 253c85 0 162 -35 162 -76c0 -18 -14 -32 -33 -32c-9 0 -14 4 -21 9c-2 2 -6 4 -9 6c-30 22 -63 34 -103 34c-121 0 -171 -75 -188 -194l-31 -219c-16 -118 13 -193 134 -193c40 0 76 10 110 32l12 7c11 7 17 10 24 10
c16 0 25 -11 25 -25c0 -45 -92 -83 -184 -83c-152 0 -209 100 -188 252zM387 775c-8 0 -15 3 -18 7l-80 75c-8 8 -15 17 -15 27c0 14 17 24 27 24c6 0 10 -3 13 -6l80 -73l100 73c5 4 10 6 15 6c11 0 20 -8 20 -19c0 -14 -9 -22 -22 -32l-101 -75c-4 -4 -11 -7 -19 -7z" />
    <glyph glyph-name="ccaron" unicode="&#x10d;" horiz-adv-x="393" 
d="M74 174l22 156c15 102 80 182 204 182c43 0 127 -11 127 -52c0 -16 -14 -30 -31 -30c-6 0 -10 1 -14 2h1c-24 13 -46 25 -83 25c-87 0 -127 -47 -139 -127l-22 -156c-11 -79 17 -126 104 -126c39 0 63 12 89 24h-1c7 2 11 3 15 3c14 0 24 -11 24 -25
c0 -44 -96 -57 -143 -57c-124 0 -167 79 -153 181zM306 575c-8 0 -15 3 -18 7l-80 75c-8 8 -15 17 -15 27c0 14 17 24 27 24c6 0 10 -3 13 -6l80 -73l100 73c5 4 10 6 15 6c11 0 20 -8 20 -19c0 -14 -9 -22 -22 -32l-101 -75c-4 -4 -11 -7 -19 -7z" />
    <glyph glyph-name="Dcaron" unicode="&#x10e;" horiz-adv-x="554" 
d="M545 263c-19 -136 -106 -262 -309 -262h-116c-22 0 -38 18 -35 41l88 623c3 23 25 42 47 42h116c202 0 255 -121 236 -253zM478 263l27 191c15 105 -23 189 -161 189h-108l-82 -578h108c140 0 201 88 216 198zM388 775c-8 0 -15 3 -18 7l-80 75c-8 8 -15 17 -15 27
c0 14 17 24 27 24c6 0 10 -3 13 -6l80 -73l100 73c5 4 10 6 15 6c11 0 20 -8 20 -19c0 -14 -9 -22 -22 -32l-101 -75c-4 -4 -11 -7 -19 -7z" />
    <glyph glyph-name="dcaron" unicode="&#x10f;" horiz-adv-x="605" 
d="M287 511c33 0 77 -8 118 -22l30 212c2 17 16 32 37 32s30 -15 28 -32l-83 -591c-5 -31 -1 -50 20 -68c1 -3 2 -7 2 -11c0 -18 -16 -31 -32 -31c-21 0 -37 14 -47 35c-50 -24 -105 -42 -154 -42c-104 0 -146 76 -131 186l19 131c17 119 67 201 193 201zM352 110l45 322
c-37 16 -82 25 -107 25c-81 0 -117 -45 -131 -147l-19 -131c-11 -85 17 -130 90 -130c36 0 81 13 122 32c-2 17 -1 23 0 29zM671 685c0 -58 -66 -165 -92 -165c-6 0 -12 2 -12 8c0 14 11 27 24 45c9 12 16 21 30 56c-26 3 -45 22 -45 45c0 28 27 52 55 52
c24 0 40 -18 40 -41z" />
    <glyph glyph-name="Dcroat" unicode="&#x110;" horiz-adv-x="574" 
d="M565 263c-20 -136 -105 -262 -308 -262h-116c-22 0 -40 18 -37 41l40 283h-47c-15 0 -26 10 -26 25c0 18 16 34 35 34h47l39 281c3 23 26 42 48 42h116c202 0 254 -121 235 -253zM385 358c0 -19 -15 -33 -33 -33h-141l-36 -260h108c140 0 200 88 216 198l26 191
c15 105 -23 189 -161 189h-108l-36 -259h141c14 0 24 -12 24 -26z" />
    <glyph glyph-name="dcroat" unicode="&#x111;" horiz-adv-x="488" 
d="M573 621c0 -18 -15 -33 -32 -33h-57l-67 -478c-5 -31 -1 -50 20 -68c1 -3 2 -7 2 -11c0 -19 -18 -31 -32 -31c-22 0 -37 14 -47 35c-51 -24 -105 -42 -155 -42c-103 0 -146 76 -131 186l19 131c17 119 68 201 193 201c33 0 78 -8 119 -22l14 99h-135c-17 0 -27 11 -27 26
c0 18 16 34 35 34h135l8 53c2 17 15 32 37 32c21 0 30 -15 28 -32l-8 -53h57c15 0 24 -12 24 -27zM352 110l45 322c-37 16 -83 25 -107 25c-82 0 -118 -45 -132 -147l-19 -131c-11 -85 17 -130 91 -130c36 0 81 13 122 32c-2 17 -1 23 0 29z" />
    <glyph glyph-name="Emacron" unicode="&#x112;" horiz-adv-x="474" 
d="M445 38c0 -21 -19 -37 -38 -37h-271c-30 0 -56 9 -52 40l88 624c3 21 23 41 47 41h277c16 0 27 -13 27 -30c0 -19 -17 -34 -36 -34h-252l-36 -255h232c16 0 28 -12 28 -28c0 -20 -17 -36 -37 -36h-232l-36 -258h262c16 0 29 -13 29 -27zM514 848c0 -19 -15 -33 -33 -33
h-255c-15 0 -26 10 -26 25c0 18 16 34 35 34h255c14 0 24 -12 24 -26z" />
    <glyph glyph-name="emacron" unicode="&#x113;" horiz-adv-x="435" 
d="M243 48c46 0 76 13 114 29c2 1 7 3 11 3c15 0 25 -12 25 -25c0 -47 -113 -62 -168 -62c-112 0 -166 71 -153 163l27 192c13 95 87 167 205 167c97 0 142 -52 142 -133c0 -104 -54 -172 -188 -172c-33 0 -74 3 -112 11l-10 -71c-8 -61 27 -102 107 -102zM382 375
c0 58 -32 83 -89 83c-72 0 -119 -40 -128 -102l-12 -85c42 -6 95 -8 116 -8c84 0 113 45 113 112zM466 648c0 -19 -15 -33 -33 -33h-255c-15 0 -26 10 -26 25c0 18 16 34 35 34h255c14 0 24 -12 24 -26z" />
    <glyph glyph-name="Ebreve" unicode="&#x114;" horiz-adv-x="474" 
d="M445 38c0 -21 -19 -37 -38 -37h-271c-30 0 -56 9 -52 40l88 624c3 21 23 41 47 41h277c16 0 27 -13 27 -30c0 -19 -17 -34 -36 -34h-252l-36 -255h232c16 0 28 -12 28 -28c0 -20 -17 -36 -37 -36h-232l-36 -258h262c16 0 29 -13 29 -27zM356 832c24 0 52 13 79 45
c8 10 18 14 27 14c13 0 23 -8 14 -29c-21 -50 -82 -77 -126 -77c-43 0 -105 26 -108 77c-1 18 15 29 26 29c9 0 17 -4 22 -14c19 -32 39 -45 66 -45z" />
    <glyph glyph-name="ebreve" unicode="&#x115;" horiz-adv-x="435" 
d="M243 48c46 0 76 13 114 29c2 1 7 3 11 3c15 0 25 -12 25 -25c0 -47 -113 -62 -168 -62c-112 0 -166 71 -153 163l27 192c13 95 87 167 205 167c97 0 142 -52 142 -133c0 -104 -54 -172 -188 -172c-33 0 -74 3 -112 11l-10 -71c-8 -61 27 -102 107 -102zM382 375
c0 58 -32 83 -89 83c-72 0 -119 -40 -128 -102l-12 -85c42 -6 95 -8 116 -8c84 0 113 45 113 112zM308 632c24 0 52 13 79 45c8 10 18 14 27 14c13 0 23 -8 14 -29c-21 -50 -82 -77 -126 -77c-43 0 -105 26 -108 77c-1 18 15 29 26 29c9 0 17 -4 22 -14
c19 -32 39 -45 66 -45z" />
    <glyph glyph-name="Edotaccent" unicode="&#x116;" horiz-adv-x="474" 
d="M445 38c0 -21 -19 -37 -38 -37h-271c-30 0 -56 9 -52 40l88 624c3 21 23 41 47 41h277c16 0 27 -13 27 -30c0 -19 -17 -34 -36 -34h-252l-36 -255h232c16 0 28 -12 28 -28c0 -20 -17 -36 -37 -36h-232l-36 -258h262c16 0 29 -13 29 -27zM397 851c0 -26 -22 -47 -47 -47
c-20 0 -35 17 -35 37c0 23 23 46 47 46c21 0 35 -17 35 -36z" />
    <glyph glyph-name="edotaccent" unicode="&#x117;" horiz-adv-x="435" 
d="M243 48c46 0 76 13 114 29c2 1 7 3 11 3c15 0 25 -12 25 -25c0 -47 -113 -62 -168 -62c-112 0 -166 71 -153 163l27 192c13 95 87 167 205 167c97 0 142 -52 142 -133c0 -104 -54 -172 -188 -172c-33 0 -74 3 -112 11l-10 -71c-8 -61 27 -102 107 -102zM382 375
c0 58 -32 83 -89 83c-72 0 -119 -40 -128 -102l-12 -85c42 -6 95 -8 116 -8c84 0 113 45 113 112zM349 651c0 -26 -22 -47 -47 -47c-20 0 -35 17 -35 37c0 23 23 46 47 46c21 0 35 -17 35 -36z" />
    <glyph glyph-name="Eogonek" unicode="&#x118;" horiz-adv-x="474" 
d="M458 -164c0 -30 -45 -34 -74 -34c-54 0 -88 22 -88 71c0 38 26 83 65 128h-225c-30 0 -56 9 -52 40l88 624c3 21 23 41 47 41h276c17 0 28 -13 28 -30c0 -19 -17 -34 -37 -34h-251l-36 -255h232c15 0 28 -12 28 -29c0 -19 -19 -35 -37 -35h-232l-36 -258h262
c15 0 28 -12 28 -27c0 -21 -21 -37 -42 -37l-9 -13c-18 -31 -41 -65 -41 -94c0 -26 15 -45 46 -45c16 0 24 2 32 3c5 1 9 2 12 2c10 0 16 -9 16 -18z" />
    <glyph glyph-name="eogonek" unicode="&#x119;" horiz-adv-x="435" 
d="M371 -166c0 -30 -46 -34 -76 -34c-54 0 -88 23 -88 72c0 37 21 80 58 122c-6 0 -25 -1 -29 -1h-11c-112 0 -166 71 -153 163l27 192c13 95 87 167 205 167c97 0 142 -52 142 -133c0 -104 -54 -172 -188 -172c-33 0 -74 3 -112 11l-10 -71c-8 -61 27 -102 107 -102
c46 0 76 13 114 29c2 1 7 3 11 3c15 0 25 -12 25 -25c0 -17 -20 -26 -43 -37l-29 -15c-45 -28 -58 -87 -58 -110c0 -26 15 -46 48 -46c16 0 23 3 30 4c6 1 10 2 13 2c10 0 17 -10 17 -19zM382 375c0 58 -32 83 -89 83c-72 0 -119 -40 -128 -102l-12 -85c42 -6 95 -8 116 -8
c84 0 113 45 113 112z" />
    <glyph glyph-name="Ecaron" unicode="&#x11a;" horiz-adv-x="474" 
d="M445 38c0 -21 -19 -37 -38 -37h-271c-30 0 -56 9 -52 40l88 624c3 21 23 41 47 41h277c16 0 27 -13 27 -30c0 -19 -17 -34 -36 -34h-252l-36 -255h232c16 0 28 -12 28 -28c0 -20 -17 -36 -37 -36h-232l-36 -258h262c16 0 29 -13 29 -27zM378 775c-8 0 -15 3 -18 7l-80 75
c-8 8 -15 17 -15 27c0 14 17 24 27 24c6 0 10 -3 13 -6l80 -73l100 73c5 4 10 6 15 6c11 0 20 -8 20 -19c0 -14 -9 -22 -22 -32l-101 -75c-4 -4 -11 -7 -19 -7z" />
    <glyph glyph-name="ecaron" unicode="&#x11b;" horiz-adv-x="435" 
d="M243 48c46 0 76 13 114 29c2 1 7 3 11 3c15 0 25 -12 25 -25c0 -47 -113 -62 -168 -62c-112 0 -166 71 -153 163l27 192c13 95 87 167 205 167c97 0 142 -52 142 -133c0 -104 -54 -172 -188 -172c-33 0 -74 3 -112 11l-10 -71c-8 -61 27 -102 107 -102zM382 375
c0 58 -32 83 -89 83c-72 0 -119 -40 -128 -102l-12 -85c42 -6 95 -8 116 -8c84 0 113 45 113 112zM300 575c-8 0 -15 3 -18 7l-80 75c-8 8 -15 17 -15 27c0 14 17 24 27 24c6 0 10 -3 13 -6l80 -73l100 73c5 4 10 6 15 6c11 0 20 -8 20 -19c0 -14 -9 -22 -22 -32l-101 -75
c-4 -4 -11 -7 -19 -7z" />
    <glyph glyph-name="Gcircumflex" unicode="&#x11c;" horiz-adv-x="520" 
d="M182 463l-31 -219c-16 -118 13 -193 134 -193c51 0 92 15 129 41l33 232h-107c-15 0 -27 11 -27 27c0 19 18 35 35 35h122c29 0 49 -12 45 -40l-35 -244c-10 -76 -121 -110 -208 -110c-152 0 -209 100 -188 252l31 219c22 153 107 253 259 253c85 0 162 -35 162 -76
c0 -18 -16 -32 -33 -32c-9 0 -14 4 -21 9c-2 2 -7 4 -10 6c-29 22 -62 34 -102 34c-121 0 -171 -75 -188 -194zM381 853l-92 -68c-1 -2 -10 -3 -14 -3c-8 0 -15 9 -15 17s11 19 20 26l90 69h-1c6 3 12 7 19 7c6 0 12 -4 17 -7h-1l72 -69c4 -7 12 -16 12 -23
c0 -9 -11 -20 -22 -20c-4 0 -10 1 -11 3z" />
    <glyph glyph-name="gcircumflex" unicode="&#x11d;" horiz-adv-x="509" 
d="M380 100l36 257c9 62 -30 100 -102 100c-79 0 -122 -46 -133 -121l-23 -163c-10 -77 13 -125 92 -125c45 0 91 16 130 52zM481 357l-57 -405c-14 -102 -79 -182 -201 -182c-46 0 -129 12 -129 52c0 15 15 31 31 31c4 0 9 -1 15 -3h-1c22 -13 44 -24 83 -24
c86 0 126 46 137 126l12 85c-46 -27 -94 -43 -145 -43c-120 0 -147 77 -133 179l23 163c14 101 86 179 206 179c115 0 172 -70 159 -158zM345 653l-92 -68c-1 -2 -10 -3 -14 -3c-8 0 -15 9 -15 17s11 19 20 26l90 69h-1c6 3 12 7 19 7c6 0 12 -4 17 -7h-1l72 -69
c4 -7 12 -16 12 -23c0 -9 -11 -20 -22 -20c-4 0 -10 1 -11 3z" />
    <glyph glyph-name="Gbreve" unicode="&#x11e;" horiz-adv-x="520" 
d="M182 463l-31 -219c-16 -118 13 -193 134 -193c51 0 92 15 129 41l33 232h-107c-15 0 -27 11 -27 27c0 19 18 35 35 35h122c29 0 49 -12 45 -40l-35 -244c-10 -76 -121 -110 -208 -110c-152 0 -209 100 -188 252l31 219c22 153 107 253 259 253c85 0 162 -35 162 -76
c0 -18 -16 -32 -33 -32c-9 0 -14 4 -21 9c-2 2 -7 4 -10 6c-29 22 -62 34 -102 34c-121 0 -171 -75 -188 -194zM379 832c24 0 52 13 79 45c8 10 18 14 27 14c13 0 23 -8 14 -29c-21 -50 -82 -77 -126 -77c-43 0 -105 26 -108 77c-1 18 15 29 26 29c9 0 17 -4 22 -14
c19 -32 39 -45 66 -45z" />
    <glyph glyph-name="gbreve" unicode="&#x11f;" horiz-adv-x="509" 
d="M380 100l36 257c9 62 -30 100 -102 100c-79 0 -122 -46 -133 -121l-23 -163c-10 -77 13 -125 92 -125c45 0 91 16 130 52zM481 357l-57 -405c-14 -102 -79 -182 -201 -182c-46 0 -129 12 -129 52c0 15 15 31 31 31c4 0 9 -1 15 -3h-1c22 -13 44 -24 83 -24
c86 0 126 46 137 126l12 85c-46 -27 -94 -43 -145 -43c-120 0 -147 77 -133 179l23 163c14 101 86 179 206 179c115 0 172 -70 159 -158zM344 632c24 0 52 13 79 45c8 10 18 14 27 14c13 0 23 -8 14 -29c-21 -50 -82 -77 -126 -77c-43 0 -105 26 -108 77c-1 18 15 29 26 29
c9 0 17 -4 22 -14c19 -32 39 -45 66 -45z" />
    <glyph glyph-name="Gdotaccent" unicode="&#x120;" horiz-adv-x="520" 
d="M182 463l-31 -219c-16 -118 13 -193 134 -193c51 0 92 15 129 41l33 232h-107c-15 0 -27 11 -27 27c0 19 18 35 35 35h122c29 0 49 -12 45 -40l-35 -244c-10 -76 -121 -110 -208 -110c-152 0 -209 100 -188 252l31 219c22 153 107 253 259 253c85 0 162 -35 162 -76
c0 -18 -16 -32 -33 -32c-9 0 -14 4 -21 9c-2 2 -7 4 -10 6c-29 22 -62 34 -102 34c-121 0 -171 -75 -188 -194zM420 851c0 -26 -22 -47 -47 -47c-20 0 -35 17 -35 37c0 23 23 46 47 46c21 0 35 -17 35 -36z" />
    <glyph glyph-name="gdotaccent" unicode="&#x121;" horiz-adv-x="509" 
d="M380 100l36 257c9 62 -30 100 -102 100c-79 0 -122 -46 -133 -121l-23 -163c-10 -77 13 -125 92 -125c45 0 91 16 130 52zM481 357l-57 -405c-14 -102 -79 -182 -201 -182c-46 0 -129 12 -129 52c0 15 15 31 31 31c4 0 9 -1 15 -3h-1c22 -13 44 -24 83 -24
c86 0 126 46 137 126l12 85c-46 -27 -94 -43 -145 -43c-120 0 -147 77 -133 179l23 163c14 101 86 179 206 179c115 0 172 -70 159 -158zM386 651c0 -26 -22 -47 -47 -47c-20 0 -35 17 -35 37c0 23 23 46 47 46c21 0 35 -17 35 -36z" />
    <glyph glyph-name="uni0122" unicode="&#x122;" horiz-adv-x="520" 
d="M182 463l-31 -219c-16 -118 13 -193 134 -193c51 0 92 15 129 41l33 232h-107c-15 0 -27 11 -27 27c0 19 18 35 35 35h122c29 0 49 -12 45 -40l-35 -244c-10 -76 -121 -110 -208 -110c-152 0 -209 100 -188 252l31 219c22 153 107 253 259 253c85 0 162 -35 162 -76
c0 -18 -16 -32 -33 -32c-9 0 -14 4 -21 9c-2 2 -7 4 -10 6c-29 22 -62 34 -102 34c-121 0 -171 -75 -188 -194zM313 -108c0 -50 -61 -134 -88 -134c-6 0 -11 3 -11 8c0 7 10 18 20 29c7 9 21 22 32 42c-28 2 -47 21 -47 45c0 28 25 52 55 52c22 0 39 -19 39 -42z" />
    <glyph glyph-name="uni0123" unicode="&#x123;" horiz-adv-x="509" 
d="M294 644c0 50 62 136 90 136c5 0 10 -3 10 -9c0 -10 -10 -19 -20 -29c-9 -9 -19 -22 -32 -42c29 -2 48 -22 48 -46c0 -27 -26 -51 -55 -51c-23 0 -41 19 -41 41zM380 100l36 257c9 62 -30 100 -102 100c-79 0 -122 -46 -133 -121l-23 -163c-10 -77 13 -125 92 -125
c45 0 91 16 130 52zM481 357l-57 -405c-14 -102 -79 -182 -201 -182c-46 0 -129 12 -129 52c0 15 15 31 31 31c4 0 9 -1 15 -3h-1c22 -13 44 -24 83 -24c86 0 126 46 137 126l12 85c-46 -27 -94 -43 -145 -43c-120 0 -147 77 -133 179l23 163c14 101 86 179 206 179
c115 0 172 -70 159 -158z" />
    <glyph glyph-name="Hcircumflex" unicode="&#x124;" horiz-adv-x="580" 
d="M510 25c-3 -19 -20 -34 -38 -34c-17 0 -32 15 -29 34l41 297h-294l-41 -297c-3 -19 -19 -34 -38 -34c-18 0 -31 15 -28 34l92 658c3 17 20 33 38 33c19 0 31 -16 28 -33l-42 -297h294l42 297c3 17 22 33 39 33s31 -16 28 -33zM411 853l-92 -68c-1 -2 -10 -3 -14 -3
c-8 0 -15 9 -15 17s11 19 20 26l90 69h-1c6 3 12 7 19 7c6 0 12 -4 17 -7h-1l72 -69c4 -7 12 -16 12 -23c0 -9 -11 -20 -22 -20c-4 0 -10 1 -11 3z" />
    <glyph glyph-name="Itilde" unicode="&#x128;" horiz-adv-x="227" 
d="M84 24l92 659c3 17 21 33 39 33c19 0 31 -16 28 -33l-92 -659c-3 -18 -19 -33 -38 -33c-18 0 -32 15 -29 33zM369 860c0 -33 -49 -58 -85 -58c-22 0 -40 9 -56 18c-12 6 -20 15 -42 15c-12 0 -27 -3 -48 -18c-8 -6 -12 -9 -20 -9c-11 0 -20 6 -20 19c0 30 43 60 83 60
c20 0 37 -8 56 -19c16 -9 27 -13 43 -14c27 0 39 8 50 17c5 4 15 12 23 12c7 0 16 -9 16 -23z" />
    <glyph glyph-name="itilde" unicode="&#x129;" horiz-adv-x="245" 
d="M104 90l55 389c2 18 18 33 37 33c17 0 30 -15 28 -33l-55 -389c-3 -23 0 -38 9 -54c1 -2 3 -8 3 -12c0 -17 -15 -31 -34 -31c-22 0 -55 11 -43 97zM350 660c0 -33 -49 -58 -85 -58c-22 0 -40 9 -56 18c-12 6 -20 15 -42 15c-12 0 -27 -3 -48 -18c-8 -6 -12 -9 -20 -9
c-11 0 -20 6 -20 19c0 30 43 60 83 60c20 0 37 -8 56 -19c16 -9 27 -13 43 -14c27 0 39 8 50 17c5 4 15 12 23 12c7 0 16 -9 16 -23z" />
    <glyph glyph-name="Imacron" unicode="&#x12a;" horiz-adv-x="227" 
d="M84 24l92 659c3 17 21 33 39 33c19 0 31 -16 28 -33l-92 -659c-3 -18 -19 -33 -38 -33c-18 0 -32 15 -29 33zM391 848c0 -19 -15 -33 -33 -33h-255c-15 0 -26 10 -26 25c0 18 16 34 35 34h255c14 0 24 -12 24 -26z" />
    <glyph glyph-name="imacron" unicode="&#x12b;" horiz-adv-x="245" 
d="M104 90l55 389c2 18 18 33 37 33c17 0 30 -15 28 -33l-55 -389c-3 -23 0 -38 9 -54c1 -2 3 -8 3 -12c0 -17 -15 -31 -34 -31c-22 0 -55 11 -43 97zM372 648c0 -19 -15 -33 -33 -33h-255c-15 0 -26 10 -26 25c0 18 16 34 35 34h255c14 0 24 -12 24 -26z" />
    <glyph glyph-name="Ibreve" unicode="&#x12c;" horiz-adv-x="227" 
d="M84 24l92 659c3 17 21 33 39 33c19 0 31 -16 28 -33l-92 -659c-3 -18 -19 -33 -38 -33c-18 0 -32 15 -29 33zM233 832c24 0 52 13 79 45c8 10 18 14 27 14c13 0 23 -8 14 -29c-21 -50 -82 -77 -126 -77c-43 0 -105 26 -108 77c-1 18 15 29 26 29c9 0 17 -4 22 -14
c19 -32 39 -45 66 -45z" />
    <glyph glyph-name="ibreve" unicode="&#x12d;" horiz-adv-x="245" 
d="M104 90l55 389c2 18 18 33 37 33c17 0 30 -15 28 -33l-55 -389c-3 -23 0 -38 9 -54c1 -2 3 -8 3 -12c0 -17 -15 -31 -34 -31c-22 0 -55 11 -43 97zM214 632c24 0 52 13 79 45c8 10 18 14 27 14c13 0 23 -8 14 -29c-21 -50 -82 -77 -126 -77c-43 0 -105 26 -108 77
c-1 18 15 29 26 29c9 0 17 -4 22 -14c19 -32 39 -45 66 -45z" />
    <glyph glyph-name="Iogonek" unicode="&#x12e;" horiz-adv-x="227" 
d="M193 -164c0 -30 -45 -34 -75 -34c-54 0 -87 22 -87 71c0 38 24 82 63 123c-8 9 -12 19 -10 28l92 659c3 17 21 33 39 33s31 -16 28 -33l-92 -659c-2 -11 -11 -19 -17 -26c-26 -30 -47 -74 -47 -104c0 -26 14 -45 46 -45c16 0 23 2 30 3c6 1 11 2 14 2c10 0 16 -9 16 -18z
" />
    <glyph glyph-name="iogonek" unicode="&#x12f;" horiz-adv-x="245" 
d="M202 -166c0 -30 -47 -34 -77 -34c-53 0 -87 23 -87 72c0 41 25 85 65 126c-7 10 -9 18 -8 27l64 454c2 18 18 33 37 33c17 0 30 -15 28 -33l-64 -454c-2 -10 -9 -18 -16 -25c-31 -32 -50 -78 -50 -107c0 -26 15 -46 47 -46c16 0 23 3 31 4c5 1 10 2 13 2
c10 0 17 -10 17 -19zM261 686c0 -25 -23 -46 -47 -46c-22 0 -37 17 -37 37c0 25 23 46 49 46c20 0 35 -16 35 -37z" />
    <glyph glyph-name="Idotaccent" unicode="&#x130;" horiz-adv-x="227" 
d="M84 24l92 659c3 17 21 33 39 33c19 0 31 -16 28 -33l-92 -659c-3 -18 -19 -33 -38 -33c-18 0 -32 15 -29 33zM274 851c0 -26 -22 -47 -47 -47c-20 0 -35 17 -35 37c0 23 23 46 47 46c21 0 35 -17 35 -36z" />
    <glyph glyph-name="dotlessi" unicode="&#x131;" horiz-adv-x="245" 
d="M104 90l55 389c2 18 18 33 37 33c17 0 30 -15 28 -33l-55 -389c-3 -23 0 -38 9 -54c1 -2 3 -8 3 -12c0 -17 -15 -31 -34 -31c-22 0 -55 11 -43 97z" />
    <glyph glyph-name="Jcircumflex" unicode="&#x134;" horiz-adv-x="385" 
d="M405 683l-64 -460c-21 -144 -79 -232 -231 -232c-26 0 -75 2 -75 34c0 23 20 36 33 36c2 0 9 -1 16 -2c11 -2 25 -5 46 -5c100 0 129 66 144 169l64 460c3 18 20 33 39 33c17 0 31 -16 28 -33zM391 853l-92 -68c-1 -2 -10 -3 -14 -3c-8 0 -15 9 -15 17s11 19 20 26l90 69
h-1c6 3 12 7 19 7c6 0 12 -4 17 -7h-1l72 -69c4 -7 12 -16 12 -23c0 -9 -11 -20 -22 -20c-4 0 -10 1 -11 3z" />
    <glyph glyph-name="jcircumflex" unicode="&#x135;" horiz-adv-x="245" 
d="M225 479l-71 -502c-14 -101 -78 -171 -164 -185c-9 -1 -13 0 -19 0c-12 0 -23 8 -24 20c-2 23 18 32 30 35c62 13 100 46 111 126l72 506c2 18 18 33 37 33c17 0 30 -15 28 -33zM216 653l-92 -68c-1 -2 -10 -3 -14 -3c-8 0 -15 9 -15 17s11 19 20 26l90 69h-1
c6 3 12 7 19 7c6 0 12 -4 17 -7h-1l72 -69c4 -7 12 -16 12 -23c0 -9 -11 -20 -22 -20c-4 0 -10 1 -11 3z" />
    <glyph glyph-name="uni0136" unicode="&#x136;" horiz-adv-x="498" 
d="M433 6l-181 331l-70 -73l-33 -239c-3 -19 -19 -34 -38 -34c-18 0 -31 15 -28 34l92 658c3 17 20 33 38 33c19 0 31 -16 28 -33l-45 -320l320 336c8 9 22 17 34 17s27 -10 23 -32c-2 -10 -6 -17 -11 -23v1l-261 -274l192 -346h-1c2 -3 2 -7 2 -11c0 -14 -7 -40 -34 -40
c-14 0 -21 6 -27 15zM320 -108c0 -50 -61 -134 -88 -134c-6 0 -11 3 -11 8c0 7 10 18 20 29c7 9 21 22 32 42c-28 2 -47 21 -47 45c0 28 25 52 55 52c22 0 39 -19 39 -42z" />
    <glyph glyph-name="uni0137" unicode="&#x137;" horiz-adv-x="439" 
d="M243 700l-56 -403l229 207c5 5 13 7 20 7c15 0 26 -11 26 -26c0 -8 -2 -18 -10 -25l-179 -159l140 -263c2 -3 4 -12 4 -17c0 -17 -17 -28 -35 -28c-12 0 -20 5 -25 15l-129 251l-53 -48l-26 -186c-3 -18 -20 -32 -37 -32c-19 0 -31 14 -28 32l94 675c3 18 19 33 38 33
c17 0 30 -15 27 -33zM279 -108c0 -50 -61 -134 -88 -134c-6 0 -11 3 -11 8c0 7 10 18 20 29c7 9 21 22 32 42c-28 2 -47 21 -47 45c0 28 25 52 55 52c22 0 39 -19 39 -42z" />
    <glyph glyph-name="Lacute" unicode="&#x139;" horiz-adv-x="448" 
d="M442 36c0 -19 -18 -35 -36 -35h-288c-21 0 -37 16 -34 38l91 644c2 17 19 33 38 33c18 0 30 -16 28 -33l-87 -619h261c14 0 27 -12 27 -28zM216 825l99 91c7 6 15 14 25 14c13 0 22 -12 22 -24c0 -5 -2 -12 -5 -15l-94 -87c-11 -10 -19 -17 -30 -17c-13 0 -23 11 -23 25
c0 7 2 9 6 13z" />
    <glyph glyph-name="lacute" unicode="&#x13a;" horiz-adv-x="228" 
d="M95 90l85 602c2 17 18 33 36 33s30 -15 28 -33l-85 -602c-3 -23 -1 -40 10 -54c2 -2 3 -8 3 -12c0 -17 -15 -31 -34 -31c-22 0 -55 11 -43 97zM206 811l99 91c7 6 15 14 25 14c13 0 22 -12 22 -24c0 -5 -2 -12 -5 -15l-94 -87c-11 -10 -19 -17 -30 -17
c-13 0 -23 11 -23 25c0 7 2 9 6 13z" />
    <glyph glyph-name="uni013B" unicode="&#x13b;" horiz-adv-x="448" 
d="M442 36c0 -19 -18 -35 -36 -35h-288c-21 0 -37 16 -34 38l91 644c2 17 19 33 38 33c18 0 30 -16 28 -33l-87 -619h261c14 0 27 -12 27 -28zM302 -108c0 -50 -61 -134 -88 -134c-6 0 -11 3 -11 8c0 7 10 18 20 29c7 9 21 22 32 42c-28 2 -47 21 -47 45c0 28 25 52 55 52
c22 0 39 -19 39 -42z" />
    <glyph glyph-name="uni013C" unicode="&#x13c;" horiz-adv-x="228" 
d="M95 90l85 602c2 17 18 33 36 33s30 -15 28 -33l-85 -602c-3 -23 -1 -40 10 -54c2 -2 3 -8 3 -12c0 -17 -15 -31 -34 -31c-22 0 -55 11 -43 97zM147 -108c0 -50 -61 -134 -88 -134c-6 0 -11 3 -11 8c0 7 10 18 20 29c7 9 21 22 32 42c-28 2 -47 21 -47 45
c0 28 25 52 55 52c22 0 39 -19 39 -42z" />
    <glyph glyph-name="Lcaron" unicode="&#x13d;" horiz-adv-x="448" 
d="M442 36c0 -19 -18 -35 -36 -35h-288c-21 0 -37 16 -34 38l91 644c2 17 19 33 38 33c18 0 30 -16 28 -33l-87 -619h261c14 0 27 -12 27 -28zM487 685c0 -58 -66 -165 -92 -165c-6 0 -12 2 -12 8c0 14 11 27 24 45c9 12 16 21 30 56c-26 3 -45 22 -45 45c0 28 27 52 55 52
c24 0 40 -18 40 -41z" />
    <glyph glyph-name="lcaron" unicode="&#x13e;" horiz-adv-x="359" 
d="M95 90l85 602c2 17 18 33 36 33s30 -15 28 -33l-85 -602c-3 -23 -1 -40 10 -54c2 -2 3 -8 3 -12c0 -17 -15 -31 -34 -31c-22 0 -55 11 -43 97zM424 685c0 -58 -66 -165 -92 -165c-6 0 -12 2 -12 8c0 14 11 27 24 45c9 12 16 21 30 56c-26 3 -45 22 -45 45
c0 28 27 52 55 52c24 0 40 -18 40 -41z" />
    <glyph glyph-name="Lslash" unicode="&#x141;" horiz-adv-x="494" 
d="M489 36c0 -19 -17 -35 -36 -35h-288c-21 0 -36 16 -33 38l37 265l-57 -33c-6 -4 -14 -9 -21 -9c-15 0 -30 8 -30 26c0 11 7 22 18 29l100 60l43 306c3 17 20 33 39 33c18 0 30 -16 27 -33l-37 -263l75 45c8 5 15 9 26 9s21 -10 24 -20v-5c0 -13 -7 -23 -16 -29l-119 -72
l-40 -284h261c15 0 27 -12 27 -28z" />
    <glyph glyph-name="lslash" unicode="&#x142;" horiz-adv-x="337" 
d="M141 90l30 219l-58 -36c-6 -4 -15 -9 -21 -9c-16 0 -31 8 -31 27c0 11 7 21 19 28l101 61l45 320c3 17 20 33 38 33s30 -15 27 -33l-38 -276l75 45c10 5 16 9 27 9c10 0 21 -10 24 -20v-5c0 -13 -7 -23 -16 -29l-121 -74l-36 -260c-4 -23 -2 -40 10 -54c2 -2 2 -8 2 -12
c0 -17 -16 -31 -33 -31c-23 0 -57 11 -44 97z" />
    <glyph glyph-name="Nacute" unicode="&#x143;" horiz-adv-x="600" 
d="M488 -9c-13 0 -28 7 -33 19l-228 571l-78 -556c-3 -19 -20 -34 -39 -34c-18 0 -31 15 -28 34l91 653c4 22 22 38 43 38c15 0 28 -8 33 -21l228 -572l79 559c3 18 21 34 39 34s30 -16 27 -34l-92 -654c-3 -21 -20 -37 -42 -37zM392 825l99 91c7 6 15 14 25 14
c13 0 22 -12 22 -24c0 -5 -2 -12 -5 -15l-94 -87c-11 -10 -19 -17 -30 -17c-13 0 -23 11 -23 25c0 7 2 9 6 13z" />
    <glyph glyph-name="nacute" unicode="&#x144;" horiz-adv-x="509" 
d="M194 464c54 34 108 49 157 49c104 0 145 -75 129 -187l-33 -236c-3 -23 -1 -39 9 -54c1 -2 2 -8 2 -12c0 -17 -14 -31 -33 -31c-22 0 -55 11 -43 97l33 236c12 83 -17 131 -84 131c-42 0 -86 -19 -129 -48c1 -11 0 -23 -1 -34l-49 -350c-3 -18 -16 -31 -37 -31
c-22 0 -31 13 -29 31l50 350c5 35 3 56 -8 76c-2 4 -3 9 -3 14c0 18 17 32 33 32c13 0 28 -11 36 -33zM278 625l99 91c7 6 15 14 25 14c13 0 22 -12 22 -24c0 -5 -2 -12 -5 -15l-94 -87c-11 -10 -19 -17 -30 -17c-13 0 -23 11 -23 25c0 7 2 9 6 13z" />
    <glyph glyph-name="uni0145" unicode="&#x145;" horiz-adv-x="600" 
d="M488 -9c-13 0 -28 7 -33 19l-228 571l-78 -556c-3 -19 -20 -34 -39 -34c-18 0 -31 15 -28 34l91 653c4 22 22 38 43 38c15 0 28 -8 33 -21l228 -572l79 559c3 18 21 34 39 34s30 -16 27 -34l-92 -654c-3 -21 -20 -37 -42 -37zM333 -108c0 -50 -61 -134 -88 -134
c-6 0 -11 3 -11 8c0 7 10 18 20 29c7 9 21 22 32 42c-28 2 -47 21 -47 45c0 28 25 52 55 52c22 0 39 -19 39 -42z" />
    <glyph glyph-name="uni0146" unicode="&#x146;" horiz-adv-x="509" 
d="M194 464c54 34 108 49 157 49c104 0 145 -75 129 -187l-33 -236c-3 -23 -1 -39 9 -54c1 -2 2 -8 2 -12c0 -17 -14 -31 -33 -31c-22 0 -55 11 -43 97l33 236c12 83 -17 131 -84 131c-42 0 -86 -19 -129 -48c1 -11 0 -23 -1 -34l-49 -350c-3 -18 -16 -31 -37 -31
c-22 0 -31 13 -29 31l50 350c5 35 3 56 -8 76c-2 4 -3 9 -3 14c0 18 17 32 33 32c13 0 28 -11 36 -33zM287 -108c0 -50 -61 -134 -88 -134c-6 0 -11 3 -11 8c0 7 10 18 20 29c7 9 21 22 32 42c-28 2 -47 21 -47 45c0 28 25 52 55 52c22 0 39 -19 39 -42z" />
    <glyph glyph-name="Ncaron" unicode="&#x147;" horiz-adv-x="600" 
d="M488 -9c-13 0 -28 7 -33 19l-228 571l-78 -556c-3 -19 -20 -34 -39 -34c-18 0 -31 15 -28 34l91 653c4 22 22 38 43 38c15 0 28 -8 33 -21l228 -572l79 559c3 18 21 34 39 34s30 -16 27 -34l-92 -654c-3 -21 -20 -37 -42 -37zM411 775c-8 0 -15 3 -18 7l-80 75
c-8 8 -15 17 -15 27c0 14 17 24 27 24c6 0 10 -3 13 -6l80 -73l100 73c5 4 10 6 15 6c11 0 20 -8 20 -19c0 -14 -9 -22 -22 -32l-101 -75c-4 -4 -11 -7 -19 -7z" />
    <glyph glyph-name="ncaron" unicode="&#x148;" horiz-adv-x="509" 
d="M194 464c54 34 108 49 157 49c104 0 145 -75 129 -187l-33 -236c-3 -23 -1 -39 9 -54c1 -2 2 -8 2 -12c0 -17 -14 -31 -33 -31c-22 0 -55 11 -43 97l33 236c12 83 -17 131 -84 131c-42 0 -86 -19 -129 -48c1 -11 0 -23 -1 -34l-49 -350c-3 -18 -16 -31 -37 -31
c-22 0 -31 13 -29 31l50 350c5 35 3 56 -8 76c-2 4 -3 9 -3 14c0 18 17 32 33 32c13 0 28 -11 36 -33zM337 575c-8 0 -15 3 -18 7l-80 75c-8 8 -15 17 -15 27c0 14 17 24 27 24c6 0 10 -3 13 -6l80 -73l100 73c5 4 10 6 15 6c11 0 20 -8 20 -19c0 -14 -9 -22 -22 -32
l-101 -75c-4 -4 -11 -7 -19 -7z" />
    <glyph glyph-name="Omacron" unicode="&#x14c;" horiz-adv-x="551" 
d="M276 -9c-151 0 -212 112 -192 253l31 219c19 138 99 253 263 253c162 0 211 -115 192 -253l-31 -219c-20 -141 -112 -253 -263 -253zM369 652c-119 0 -172 -76 -187 -189l-31 -219c-16 -111 24 -189 134 -189s171 78 187 189l31 219c15 113 -17 189 -134 189zM552 848
c0 -19 -15 -33 -33 -33h-255c-15 0 -26 10 -26 25c0 18 16 34 35 34h255c14 0 24 -12 24 -26z" />
    <glyph glyph-name="omacron" unicode="&#x14d;" horiz-adv-x="464" 
d="M234 -7c-120 0 -174 76 -160 175l24 172c14 99 90 176 210 176c121 0 174 -77 160 -176l-24 -172c-14 -99 -89 -175 -210 -175zM243 52c80 0 126 44 136 116l24 173c10 72 -23 117 -103 117c-79 0 -127 -45 -137 -117l-24 -173c-10 -72 25 -116 104 -116zM481 648
c0 -19 -15 -33 -33 -33h-255c-15 0 -26 10 -26 25c0 18 16 34 35 34h255c14 0 24 -12 24 -26z" />
    <glyph glyph-name="Obreve" unicode="&#x14e;" horiz-adv-x="551" 
d="M276 -9c-151 0 -212 112 -192 253l31 219c19 138 99 253 263 253c162 0 211 -115 192 -253l-31 -219c-20 -141 -112 -253 -263 -253zM369 652c-119 0 -172 -76 -187 -189l-31 -219c-16 -111 24 -189 134 -189s171 78 187 189l31 219c15 113 -17 189 -134 189zM394 832
c24 0 52 13 79 45c8 10 18 14 27 14c13 0 23 -8 14 -29c-21 -50 -82 -77 -126 -77c-43 0 -105 26 -108 77c-1 18 15 29 26 29c9 0 17 -4 22 -14c19 -32 39 -45 66 -45z" />
    <glyph glyph-name="obreve" unicode="&#x14f;" horiz-adv-x="464" 
d="M234 -7c-120 0 -174 76 -160 175l24 172c14 99 90 176 210 176c121 0 174 -77 160 -176l-24 -172c-14 -99 -89 -175 -210 -175zM243 52c80 0 126 44 136 116l24 173c10 72 -23 117 -103 117c-79 0 -127 -45 -137 -117l-24 -173c-10 -72 25 -116 104 -116zM323 632
c24 0 52 13 79 45c8 10 18 14 27 14c13 0 23 -8 14 -29c-21 -50 -82 -77 -126 -77c-43 0 -105 26 -108 77c-1 18 15 29 26 29c9 0 17 -4 22 -14c19 -32 39 -45 66 -45z" />
    <glyph glyph-name="Ohungarumlaut" unicode="&#x150;" horiz-adv-x="551" 
d="M276 -9c-151 0 -212 112 -192 253l31 219c19 138 99 253 263 253c162 0 211 -115 192 -253l-31 -219c-20 -141 -112 -253 -263 -253zM369 652c-119 0 -172 -76 -187 -189l-31 -219c-16 -111 24 -189 134 -189s171 78 187 189l31 219c15 113 -17 189 -134 189zM429 815
l80 98c9 11 18 24 31 24c12 0 24 -13 24 -25c0 -5 -1 -8 -3 -11l-88 -107c-7 -9 -13 -14 -23 -14c-13 0 -24 11 -24 23c0 5 1 9 3 12zM291 815l85 104c8 10 15 18 26 18c17 0 23 -18 23 -29c0 0 -2 -7 -3 -8c-15 -20 -50 -67 -78 -98c-13 -14 -22 -22 -33 -22
c-12 0 -23 11 -23 24c0 6 1 8 3 11z" />
    <glyph glyph-name="ohungarumlaut" unicode="&#x151;" horiz-adv-x="464" 
d="M234 -7c-120 0 -174 76 -160 175l24 172c14 99 90 176 210 176c121 0 174 -77 160 -176l-24 -172c-14 -99 -89 -175 -210 -175zM243 52c80 0 126 44 136 116l24 173c10 72 -23 117 -103 117c-79 0 -127 -45 -137 -117l-24 -173c-10 -72 25 -116 104 -116zM365 615l80 98
c9 11 18 24 31 24c12 0 24 -13 24 -25c0 -5 -1 -8 -3 -11l-88 -107c-7 -9 -13 -14 -23 -14c-13 0 -24 11 -24 23c0 5 1 9 3 12zM227 615l85 104c8 10 15 18 26 18c17 0 23 -18 23 -29c0 0 -2 -7 -3 -8c-15 -20 -50 -67 -78 -98c-13 -14 -22 -22 -33 -22c-12 0 -23 11 -23 24
c0 6 1 8 3 11z" />
    <glyph glyph-name="OE" unicode="&#x152;" horiz-adv-x="756" 
d="M731 38c0 -21 -17 -37 -37 -37h-240c-30 0 -55 12 -50 55c-44 -40 -95 -65 -150 -65c-137 0 -192 104 -174 233l37 259c18 128 90 233 239 233c55 0 98 -22 129 -59c8 25 30 49 51 49h246c17 0 28 -13 28 -30c0 -19 -16 -34 -37 -34h-220l-36 -255h201
c15 0 28 -12 28 -29c0 -19 -19 -35 -37 -35h-201l-36 -258h231c15 0 28 -12 28 -27zM347 652c-104 0 -150 -68 -164 -169l-37 -259c-14 -99 21 -169 117 -169s150 70 164 169l37 259c14 101 -13 169 -117 169z" />
    <glyph glyph-name="oe" unicode="&#x153;" horiz-adv-x="731" 
d="M228 -7c-115 0 -170 77 -156 175l24 172c14 98 91 176 206 176c74 0 120 -38 142 -98c36 59 93 97 167 97c92 0 138 -53 138 -134c0 -103 -54 -171 -188 -171c-32 0 -74 3 -112 11l-10 -71c-8 -61 27 -102 106 -102c47 0 77 13 115 29c2 1 7 3 11 3c15 0 25 -12 25 -25
c0 -47 -114 -62 -165 -62c-71 0 -115 38 -134 95c-38 -58 -96 -95 -169 -95zM240 52c80 0 127 44 137 116l24 173c10 72 -23 117 -103 117c-79 0 -127 -45 -137 -117l-24 -173c-10 -72 24 -116 103 -116zM685 375c0 58 -32 83 -88 83c-72 0 -120 -40 -129 -102l-12 -85
c43 -5 95 -8 115 -8c85 0 114 45 114 112z" />
    <glyph glyph-name="Racute" unicode="&#x154;" horiz-adv-x="575" 
d="M585 538c0 -120 -76 -196 -191 -218l130 -278l-1 1c1 -3 2 -9 2 -15c0 -22 -27 -36 -41 -36c-11 0 -20 6 -25 15l-139 311h-130l-41 -292c-3 -19 -20 -35 -39 -35c-17 0 -31 15 -28 35l89 638c4 23 25 42 46 42h178c143 0 190 -82 190 -168zM518 531
c0 56 -28 111 -136 111h-147l-36 -261h153c107 0 166 53 166 150zM339 825l99 91c7 6 15 14 25 14c13 0 22 -12 22 -24c0 -5 -2 -12 -5 -15l-94 -87c-11 -10 -19 -17 -30 -17c-13 0 -23 11 -23 25c0 7 2 9 6 13z" />
    <glyph glyph-name="racute" unicode="&#x155;" horiz-adv-x="337" 
d="M201 373l-48 -348c-3 -18 -20 -32 -37 -32c-19 0 -31 14 -28 32l48 348c5 35 4 56 -7 76c-2 4 -4 9 -4 14c0 18 17 32 35 32c13 0 26 -13 34 -31c51 30 113 47 150 47c31 0 42 -12 42 -28c0 -22 -19 -39 -37 -38c-45 1 -83 1 -144 -40v-1s1 -1 -4 -31zM256 625l99 91
c7 6 15 14 25 14c13 0 22 -12 22 -24c0 -5 -2 -12 -5 -15l-94 -87c-11 -10 -19 -17 -30 -17c-13 0 -23 11 -23 25c0 7 2 9 6 13z" />
    <glyph glyph-name="uni0156" unicode="&#x156;" horiz-adv-x="575" 
d="M585 538c0 -120 -76 -196 -191 -218l130 -278l-1 1c1 -3 2 -9 2 -15c0 -22 -27 -36 -41 -36c-11 0 -20 6 -25 15l-139 311h-130l-41 -292c-3 -19 -20 -35 -39 -35c-17 0 -31 15 -28 35l89 638c4 23 25 42 46 42h178c143 0 190 -82 190 -168zM518 531
c0 56 -28 111 -136 111h-147l-36 -261h153c107 0 166 53 166 150zM320 -108c0 -50 -61 -134 -88 -134c-6 0 -11 3 -11 8c0 7 10 18 20 29c7 9 21 22 32 42c-28 2 -47 21 -47 45c0 28 25 52 55 52c22 0 39 -19 39 -42z" />
    <glyph glyph-name="uni0157" unicode="&#x157;" horiz-adv-x="337" 
d="M201 373l-48 -348c-3 -18 -20 -32 -37 -32c-19 0 -31 14 -28 32l48 348c5 35 4 56 -7 76c-2 4 -4 9 -4 14c0 18 17 32 35 32c13 0 26 -13 34 -31c51 30 113 47 150 47c31 0 42 -12 42 -28c0 -22 -19 -39 -37 -38c-45 1 -83 1 -144 -40v-1s1 -1 -4 -31zM147 -108
c0 -50 -61 -134 -88 -134c-6 0 -11 3 -11 8c0 7 10 18 20 29c7 9 21 22 32 42c-28 2 -47 21 -47 45c0 28 25 52 55 52c22 0 39 -19 39 -42z" />
    <glyph glyph-name="Rcaron" unicode="&#x158;" horiz-adv-x="575" 
d="M585 538c0 -120 -76 -196 -191 -218l130 -278l-1 1c1 -3 2 -9 2 -15c0 -22 -27 -36 -41 -36c-11 0 -20 6 -25 15l-139 311h-130l-41 -292c-3 -19 -20 -35 -39 -35c-17 0 -31 15 -28 35l89 638c4 23 25 42 46 42h178c143 0 190 -82 190 -168zM518 531
c0 56 -28 111 -136 111h-147l-36 -261h153c107 0 166 53 166 150zM398 775c-8 0 -15 3 -18 7l-80 75c-8 8 -15 17 -15 27c0 14 17 24 27 24c6 0 10 -3 13 -6l80 -73l100 73c5 4 10 6 15 6c11 0 20 -8 20 -19c0 -14 -9 -22 -22 -32l-101 -75c-4 -4 -11 -7 -19 -7z" />
    <glyph glyph-name="rcaron" unicode="&#x159;" horiz-adv-x="337" 
d="M201 373l-48 -348c-3 -18 -20 -32 -37 -32c-19 0 -31 14 -28 32l48 348c5 35 4 56 -7 76c-2 4 -4 9 -4 14c0 18 17 32 35 32c13 0 26 -13 34 -31c51 30 113 47 150 47c31 0 42 -12 42 -28c0 -22 -19 -39 -37 -38c-45 1 -83 1 -144 -40v-1s1 -1 -4 -31zM252 575
c-8 0 -15 3 -18 7l-80 75c-8 8 -15 17 -15 27c0 14 17 24 27 24c6 0 10 -3 13 -6l80 -73l100 73c5 4 10 6 15 6c11 0 20 -8 20 -19c0 -14 -9 -22 -22 -32l-101 -75c-4 -4 -11 -7 -19 -7z" />
    <glyph glyph-name="Sacute" unicode="&#x15a;" horiz-adv-x="486" 
d="M400 208c0 53 -26 78 -48 90c-19 11 -47 22 -75 32c-76 27 -159 57 -159 167c0 133 92 219 230 219c47 0 157 -11 157 -58c0 -18 -14 -35 -37 -35c-11 0 -24 4 -34 9c-22 9 -48 20 -89 20c-78 0 -155 -33 -155 -142c0 -56 29 -79 50 -90c20 -11 49 -23 76 -32
c74 -25 157 -60 157 -168c0 -143 -110 -229 -247 -229c-61 0 -172 17 -172 64c0 18 18 36 35 36c6 0 21 -5 35 -11c25 -10 60 -25 112 -25c109 0 164 60 164 153zM340 825l99 91c7 6 15 14 25 14c13 0 22 -12 22 -24c0 -5 -2 -12 -5 -15l-94 -87c-11 -10 -19 -17 -30 -17
c-13 0 -23 11 -23 25c0 7 2 9 6 13z" />
    <glyph glyph-name="sacute" unicode="&#x15b;" horiz-adv-x="406" 
d="M110 356c0 93 64 159 180 159c50 0 123 -11 123 -47c0 -17 -15 -32 -34 -32c-6 0 -9 2 -14 4c-22 11 -40 20 -79 20c-77 0 -112 -34 -112 -93c0 -28 13 -46 44 -63c68 -37 165 -48 165 -149c0 -98 -65 -162 -187 -162c-49 0 -138 10 -138 48c0 16 15 33 35 33
c2 0 3 0 6 -1c28 -12 60 -25 105 -25c68 0 115 29 115 97c0 33 -14 50 -32 60c-68 37 -177 48 -177 151zM270 625l99 91c7 6 15 14 25 14c13 0 22 -12 22 -24c0 -5 -2 -12 -5 -15l-94 -87c-11 -10 -19 -17 -30 -17c-13 0 -23 11 -23 25c0 7 2 9 6 13z" />
    <glyph glyph-name="Scircumflex" unicode="&#x15c;" horiz-adv-x="486" 
d="M400 208c0 53 -26 78 -48 90c-19 11 -47 22 -75 32c-76 27 -159 57 -159 167c0 133 92 219 230 219c47 0 157 -11 157 -58c0 -18 -14 -35 -37 -35c-11 0 -24 4 -34 9c-22 9 -48 20 -89 20c-78 0 -155 -33 -155 -142c0 -56 29 -79 50 -90c20 -11 49 -23 76 -32
c74 -25 157 -60 157 -168c0 -143 -110 -229 -247 -229c-61 0 -172 17 -172 64c0 18 18 36 35 36c6 0 21 -5 35 -11c25 -10 60 -25 112 -25c109 0 164 60 164 153zM364 853l-92 -68c-1 -2 -10 -3 -14 -3c-8 0 -15 9 -15 17s11 19 20 26l90 69h-1c6 3 12 7 19 7
c6 0 12 -4 17 -7h-1l72 -69c4 -7 12 -16 12 -23c0 -9 -11 -20 -22 -20c-4 0 -10 1 -11 3z" />
    <glyph glyph-name="scircumflex" unicode="&#x15d;" horiz-adv-x="406" 
d="M110 356c0 93 64 159 180 159c50 0 123 -11 123 -47c0 -17 -15 -32 -34 -32c-6 0 -9 2 -14 4c-22 11 -40 20 -79 20c-77 0 -112 -34 -112 -93c0 -28 13 -46 44 -63c68 -37 165 -48 165 -149c0 -98 -65 -162 -187 -162c-49 0 -138 10 -138 48c0 16 15 33 35 33
c2 0 3 0 6 -1c28 -12 60 -25 105 -25c68 0 115 29 115 97c0 33 -14 50 -32 60c-68 37 -177 48 -177 151zM296 653l-92 -68c-1 -2 -10 -3 -14 -3c-8 0 -15 9 -15 17s11 19 20 26l90 69h-1c6 3 12 7 19 7c6 0 12 -4 17 -7h-1l72 -69c4 -7 12 -16 12 -23c0 -9 -11 -20 -22 -20
c-4 0 -10 1 -11 3z" />
    <glyph glyph-name="Scedilla" unicode="&#x15e;" horiz-adv-x="486" 
d="M338 -126c0 -47 -40 -91 -115 -91c-19 0 -26 0 -30 1c-26 3 -49 20 -38 38v-1c6 8 14 7 28 3l18 -4c55 -11 86 27 86 55c0 25 -22 36 -63 38c-25 1 -32 6 -27 25l16 53c-66 3 -159 21 -159 64c0 18 18 36 35 36c6 0 21 -5 35 -11c25 -10 60 -25 112 -25
c109 0 164 60 164 153c0 53 -26 78 -48 90c-19 11 -47 22 -75 32c-76 27 -159 57 -159 167c0 133 92 219 230 219c47 0 157 -11 157 -58c0 -18 -14 -35 -37 -35c-11 0 -24 4 -34 9c-22 9 -48 20 -89 20c-78 0 -155 -33 -155 -142c0 -56 29 -79 50 -90c20 -11 49 -23 76 -32
c74 -25 157 -60 157 -168c0 -131 -97 -217 -223 -228l-14 -47c75 -1 102 -29 102 -71z" />
    <glyph glyph-name="scedilla" unicode="&#x15f;" horiz-adv-x="406" 
d="M300 -127c0 -47 -41 -91 -117 -91c-18 0 -25 0 -29 1c-26 3 -50 19 -38 38v-1c6 8 14 7 28 3l18 -4c56 -12 87 26 87 55c0 25 -22 36 -63 38c-26 1 -33 7 -28 25l17 55c-51 4 -117 16 -117 49c0 16 15 33 35 33c2 0 3 0 6 -1c28 -12 60 -25 105 -25c68 0 115 29 115 97
c0 32 -14 48 -32 58c-11 6 -31 13 -53 22h1c-57 21 -125 47 -125 130c0 94 64 160 180 160c50 0 123 -11 123 -47c0 -17 -15 -32 -34 -32c-6 0 -9 2 -14 4c-22 11 -40 20 -79 20c-77 0 -112 -34 -112 -93c0 -27 13 -44 44 -61c11 -6 28 -12 47 -19h-1
c56 -22 119 -47 119 -131c0 -93 -60 -155 -172 -163l-14 -49c75 -1 103 -29 103 -71z" />
    <glyph glyph-name="Scaron" unicode="&#x160;" horiz-adv-x="486" 
d="M400 208c0 53 -26 78 -48 90c-19 11 -47 22 -75 32c-76 27 -159 57 -159 167c0 133 92 219 230 219c47 0 157 -11 157 -58c0 -18 -14 -35 -37 -35c-11 0 -24 4 -34 9c-22 9 -48 20 -89 20c-78 0 -155 -33 -155 -142c0 -56 29 -79 50 -90c20 -11 49 -23 76 -32
c74 -25 157 -60 157 -168c0 -143 -110 -229 -247 -229c-61 0 -172 17 -172 64c0 18 18 36 35 36c6 0 21 -5 35 -11c25 -10 60 -25 112 -25c109 0 164 60 164 153zM354 775c-8 0 -15 3 -18 7l-80 75c-8 8 -15 17 -15 27c0 14 17 24 27 24c6 0 10 -3 13 -6l80 -73l100 73
c5 4 10 6 15 6c11 0 20 -8 20 -19c0 -14 -9 -22 -22 -32l-101 -75c-4 -4 -11 -7 -19 -7z" />
    <glyph glyph-name="scaron" unicode="&#x161;" horiz-adv-x="406" 
d="M110 356c0 93 64 159 180 159c50 0 123 -11 123 -47c0 -17 -15 -32 -34 -32c-6 0 -9 2 -14 4c-22 11 -40 20 -79 20c-77 0 -112 -34 -112 -93c0 -28 13 -46 44 -63c68 -37 165 -48 165 -149c0 -98 -65 -162 -187 -162c-49 0 -138 10 -138 48c0 16 15 33 35 33
c2 0 3 0 6 -1c28 -12 60 -25 105 -25c68 0 115 29 115 97c0 33 -14 50 -32 60c-68 37 -177 48 -177 151zM286 575c-8 0 -15 3 -18 7l-80 75c-8 8 -15 17 -15 27c0 14 17 24 27 24c6 0 10 -3 13 -6l80 -73l100 73c5 4 10 6 15 6c11 0 20 -8 20 -19c0 -14 -9 -22 -22 -32
l-101 -75c-4 -4 -11 -7 -19 -7z" />
    <glyph glyph-name="uni0162" unicode="&#x162;" horiz-adv-x="483" 
d="M356 -125c0 -48 -39 -92 -115 -92c-18 0 -25 0 -29 1c-27 3 -50 20 -37 38v-1c6 8 14 7 27 3l18 -4c56 -11 86 27 86 55c0 25 -22 36 -63 38c-26 1 -33 6 -27 25l17 54c-15 6 -22 18 -20 32l87 618h-146c-18 0 -30 12 -30 28s19 36 39 36h359c16 0 30 -12 30 -29
c0 -19 -19 -35 -39 -35h-147l-87 -618c-1 -7 -4 -12 -6 -16l-18 -63c75 -1 101 -29 101 -70z" />
    <glyph glyph-name="uni0163" unicode="&#x163;" horiz-adv-x="321" 
d="M281 -126c0 -48 -40 -92 -116 -92c-19 0 -26 0 -30 1c-27 3 -50 19 -37 38v-1c6 8 14 7 28 3l17 -4c57 -12 87 26 87 55c0 25 -22 36 -64 38c-24 2 -31 7 -26 25c6 21 11 44 23 73c-59 31 -68 94 -54 192l61 431c2 17 15 32 36 32s30 -15 28 -32l-21 -150h116
c14 0 25 -11 25 -27c0 -18 -16 -33 -34 -33h-116l-30 -214c-15 -111 -9 -152 72 -152h9c4 0 8 1 11 1c18 0 41 -3 41 -26c0 -32 -29 -35 -55 -35c-27 0 -44 2 -60 4c-8 -21 -12 -39 -11 -57c74 -1 100 -29 100 -70z" />
    <glyph glyph-name="Tcaron" unicode="&#x164;" horiz-adv-x="483" 
d="M213 24l87 618h-146c-18 0 -30 12 -30 28s19 36 39 36h359c16 0 30 -12 30 -29c0 -19 -19 -35 -39 -35h-147l-87 -618c-2 -18 -19 -33 -37 -33c-19 0 -31 15 -29 33zM352 775c-8 0 -15 3 -18 7l-80 75c-8 8 -15 17 -15 27c0 14 17 24 27 24c6 0 10 -3 13 -6l80 -73
l100 73c5 4 10 6 15 6c11 0 20 -8 20 -19c0 -14 -9 -22 -22 -32l-101 -75c-4 -4 -11 -7 -19 -7z" />
    <glyph glyph-name="tcaron" unicode="&#x165;" horiz-adv-x="431" 
d="M109 202l61 431c2 17 15 32 36 32s30 -15 28 -32l-21 -150h116c14 0 25 -11 25 -27c0 -18 -16 -33 -34 -33h-116l-30 -214c-16 -111 -9 -152 72 -152c7 0 13 1 20 1c18 0 41 -3 41 -26c0 -32 -29 -35 -55 -35c-138 0 -162 68 -143 205zM504 685c0 -58 -66 -165 -92 -165
c-6 0 -12 2 -12 8c0 14 11 27 24 45c9 12 16 21 30 56c-26 3 -45 22 -45 45c0 28 27 52 55 52c24 0 40 -18 40 -41z" />
    <glyph glyph-name="Utilde" unicode="&#x168;" horiz-adv-x="572" 
d="M539 228c-19 -137 -114 -237 -251 -237c-141 0 -205 101 -186 237l64 452c3 21 21 36 40 36c18 0 29 -16 27 -36l-64 -452c-14 -102 25 -173 128 -173s160 73 174 173l64 452c2 19 20 36 38 36c19 0 32 -17 30 -36zM541 860c0 -33 -49 -58 -85 -58c-22 0 -40 9 -56 18
c-12 6 -20 15 -42 15c-12 0 -27 -3 -48 -18c-8 -6 -12 -9 -20 -9c-11 0 -20 6 -20 19c0 30 43 60 83 60c20 0 37 -8 56 -19c16 -9 27 -13 43 -14c27 0 39 8 50 17c5 4 15 12 23 12c7 0 16 -9 16 -23z" />
    <glyph glyph-name="utilde" unicode="&#x169;" horiz-adv-x="509" 
d="M383 120l51 360c3 18 15 32 37 32c21 0 31 -14 28 -32l-51 -360c-7 -50 -3 -58 2 -65c5 -6 11 -17 11 -26c0 -16 -16 -30 -34 -30c-17 0 -28 13 -38 33c-52 -28 -107 -39 -154 -39c-104 0 -146 75 -130 186l42 301c3 18 16 32 37 32s30 -14 28 -32l-42 -301
c-12 -82 17 -130 84 -130c42 0 86 14 127 38c0 10 0 20 2 33zM481 660c0 -33 -49 -58 -85 -58c-22 0 -40 9 -56 18c-12 6 -20 15 -42 15c-12 0 -27 -3 -48 -18c-8 -6 -12 -9 -20 -9c-11 0 -20 6 -20 19c0 30 43 60 83 60c20 0 37 -8 56 -19c16 -9 27 -13 43 -14
c27 0 39 8 50 17c5 4 15 12 23 12c7 0 16 -9 16 -23z" />
    <glyph glyph-name="Umacron" unicode="&#x16a;" horiz-adv-x="572" 
d="M539 228c-19 -137 -114 -237 -251 -237c-141 0 -205 101 -186 237l64 452c3 21 21 36 40 36c18 0 29 -16 27 -36l-64 -452c-14 -102 25 -173 128 -173s160 73 174 173l64 452c2 19 20 36 38 36c19 0 32 -17 30 -36zM563 848c0 -19 -15 -33 -33 -33h-255
c-15 0 -26 10 -26 25c0 18 16 34 35 34h255c14 0 24 -12 24 -26z" />
    <glyph glyph-name="umacron" unicode="&#x16b;" horiz-adv-x="509" 
d="M383 120l51 360c3 18 15 32 37 32c21 0 31 -14 28 -32l-51 -360c-7 -50 -3 -58 2 -65c5 -6 11 -17 11 -26c0 -16 -16 -30 -34 -30c-17 0 -28 13 -38 33c-52 -28 -107 -39 -154 -39c-104 0 -146 75 -130 186l42 301c3 18 16 32 37 32s30 -14 28 -32l-42 -301
c-12 -82 17 -130 84 -130c42 0 86 14 127 38c0 10 0 20 2 33zM503 648c0 -19 -15 -33 -33 -33h-255c-15 0 -26 10 -26 25c0 18 16 34 35 34h255c14 0 24 -12 24 -26z" />
    <glyph glyph-name="Ubreve" unicode="&#x16c;" horiz-adv-x="572" 
d="M539 228c-19 -137 -114 -237 -251 -237c-141 0 -205 101 -186 237l64 452c3 21 21 36 40 36c18 0 29 -16 27 -36l-64 -452c-14 -102 25 -173 128 -173s160 73 174 173l64 452c2 19 20 36 38 36c19 0 32 -17 30 -36zM405 832c24 0 52 13 79 45c8 10 18 14 27 14
c13 0 23 -8 14 -29c-21 -50 -82 -77 -126 -77c-43 0 -105 26 -108 77c-1 18 15 29 26 29c9 0 17 -4 22 -14c19 -32 39 -45 66 -45z" />
    <glyph glyph-name="ubreve" unicode="&#x16d;" horiz-adv-x="509" 
d="M383 120l51 360c3 18 15 32 37 32c21 0 31 -14 28 -32l-51 -360c-7 -50 -3 -58 2 -65c5 -6 11 -17 11 -26c0 -16 -16 -30 -34 -30c-17 0 -28 13 -38 33c-52 -28 -107 -39 -154 -39c-104 0 -146 75 -130 186l42 301c3 18 16 32 37 32s30 -14 28 -32l-42 -301
c-12 -82 17 -130 84 -130c42 0 86 14 127 38c0 10 0 20 2 33zM345 632c24 0 52 13 79 45c8 10 18 14 27 14c13 0 23 -8 14 -29c-21 -50 -82 -77 -126 -77c-43 0 -105 26 -108 77c-1 18 15 29 26 29c9 0 17 -4 22 -14c19 -32 39 -45 66 -45z" />
    <glyph glyph-name="Uring" unicode="&#x16e;" horiz-adv-x="572" 
d="M539 228c-19 -137 -114 -237 -251 -237c-141 0 -205 101 -186 237l64 452c3 21 21 36 40 36c18 0 29 -16 27 -36l-64 -452c-14 -102 25 -173 128 -173s160 73 174 173l64 452c2 19 20 36 38 36c19 0 32 -17 30 -36zM503 862c0 -57 -50 -104 -107 -104
c-48 0 -83 36 -83 82c0 57 52 105 109 105c48 0 81 -37 81 -83zM472 859c0 31 -22 56 -54 56c-38 0 -73 -33 -73 -71c0 -31 23 -55 55 -55c38 0 72 31 72 70z" />
    <glyph glyph-name="uring" unicode="&#x16f;" horiz-adv-x="509" 
d="M383 120l51 360c3 18 15 32 37 32c21 0 31 -14 28 -32l-51 -360c-7 -50 -3 -58 2 -65c5 -6 11 -17 11 -26c0 -16 -16 -30 -34 -30c-17 0 -28 13 -38 33c-52 -28 -107 -39 -154 -39c-104 0 -146 75 -130 186l42 301c3 18 16 32 37 32s30 -14 28 -32l-42 -301
c-12 -82 17 -130 84 -130c42 0 86 14 127 38c0 10 0 20 2 33zM444 662c0 -57 -50 -104 -107 -104c-48 0 -83 36 -83 82c0 57 52 105 109 105c48 0 81 -37 81 -83zM413 659c0 31 -22 56 -54 56c-38 0 -73 -33 -73 -71c0 -31 23 -55 55 -55c38 0 72 31 72 70z" />
    <glyph glyph-name="Uhungarumlaut" unicode="&#x170;" horiz-adv-x="572" 
d="M539 228c-19 -137 -114 -237 -251 -237c-141 0 -205 101 -186 237l64 452c3 21 21 36 40 36c18 0 29 -16 27 -36l-64 -452c-14 -102 25 -173 128 -173s160 73 174 173l64 452c2 19 20 36 38 36c19 0 32 -17 30 -36zM448 815l80 98c9 11 18 24 31 24c12 0 24 -13 24 -25
c0 -5 -1 -8 -3 -11l-88 -107c-7 -9 -13 -14 -23 -14c-13 0 -24 11 -24 23c0 5 1 9 3 12zM310 815l85 104c8 10 15 18 26 18c17 0 23 -18 23 -29c0 0 -2 -7 -3 -8c-15 -20 -50 -67 -78 -98c-13 -14 -22 -22 -33 -22c-12 0 -23 11 -23 24c0 6 1 8 3 11z" />
    <glyph glyph-name="uhungarumlaut" unicode="&#x171;" horiz-adv-x="509" 
d="M383 120l51 360c3 18 15 32 37 32c21 0 31 -14 28 -32l-51 -360c-7 -50 -3 -58 2 -65c5 -6 11 -17 11 -26c0 -16 -16 -30 -34 -30c-17 0 -28 13 -38 33c-52 -28 -107 -39 -154 -39c-104 0 -146 75 -130 186l42 301c3 18 16 32 37 32s30 -14 28 -32l-42 -301
c-12 -82 17 -130 84 -130c42 0 86 14 127 38c0 10 0 20 2 33zM386 615l80 98c9 11 18 24 31 24c12 0 24 -13 24 -25c0 -5 -1 -8 -3 -11l-88 -107c-7 -9 -13 -14 -23 -14c-13 0 -24 11 -24 23c0 5 1 9 3 12zM248 615l85 104c8 10 15 18 26 18c17 0 23 -18 23 -29
c0 0 -2 -7 -3 -8c-15 -20 -50 -67 -78 -98c-13 -14 -22 -22 -33 -22c-12 0 -23 11 -23 24c0 6 1 8 3 11z" />
    <glyph glyph-name="Uogonek" unicode="&#x172;" horiz-adv-x="572" 
d="M539 228c-14 -102 -71 -183 -155 -219c-23 -36 -55 -79 -55 -115c0 -26 15 -45 46 -45c17 0 24 2 31 3c5 1 10 2 13 2c10 0 17 -9 17 -18c0 -30 -45 -34 -76 -34c-53 0 -87 22 -87 71c0 36 22 77 56 120c-18 -2 -29 -2 -41 -2c-141 0 -205 101 -186 237l64 452
c3 21 21 36 40 36c18 0 29 -16 27 -36l-64 -452c-14 -102 25 -173 128 -173s160 73 174 173l64 452c2 19 20 36 38 36c19 0 32 -17 30 -36z" />
    <glyph glyph-name="uogonek" unicode="&#x173;" horiz-adv-x="509" 
d="M503 -166c0 -30 -46 -34 -76 -34c-54 0 -88 23 -88 72c0 42 30 88 71 131c-9 8 -16 18 -20 29c-54 -27 -109 -39 -156 -39c-104 0 -145 75 -129 186l42 301c2 18 15 32 37 32c20 0 30 -14 28 -32l-42 -301c-12 -82 17 -130 84 -130c42 0 86 14 127 37c-1 15 0 24 1 34
l51 360c2 18 16 32 37 32c22 0 30 -14 28 -32l-51 -360c-7 -50 -3 -58 3 -65c9 -11 7 -10 7 -12v1c2 -4 3 -10 3 -15c0 -9 -5 -17 -12 -24c-28 -31 -52 -79 -52 -112c0 -26 14 -46 46 -46c17 0 24 3 31 4c5 1 10 2 14 2c10 0 16 -10 16 -19z" />
    <glyph glyph-name="Wcircumflex" unicode="&#x174;" horiz-adv-x="776" 
d="M522 33l-47 554c-61 -167 -144 -389 -204 -555c-9 -18 -25 -41 -53 -41c-25 0 -38 18 -42 41l-62 648l1 4c2 18 24 28 42 28c12 0 24 -10 27 -24l53 -578l202 552c13 33 26 54 54 54c27 0 35 -22 37 -54l50 -553l214 579c7 14 18 24 30 24c17 0 38 -8 38 -26
c0 -3 -1 -9 -3 -12v-1l-242 -641c-9 -21 -28 -41 -53 -41c-26 0 -39 21 -42 42zM509 853l-92 -68c-1 -2 -10 -3 -14 -3c-8 0 -15 9 -15 17s11 19 20 26l90 69h-1c6 3 12 7 19 7c6 0 12 -4 17 -7h-1l72 -69c4 -7 12 -16 12 -23c0 -9 -11 -20 -22 -20c-4 0 -10 1 -11 3z" />
    <glyph glyph-name="wcircumflex" unicode="&#x175;" horiz-adv-x="655" 
d="M703 477l-182 -444c-11 -26 -23 -40 -49 -40c-17 0 -33 11 -36 29l-45 389c-45 -117 -104 -273 -154 -389c-8 -18 -24 -29 -45 -29c-23 0 -36 16 -39 40l-58 446v2c3 16 19 31 38 31c12 0 23 -10 26 -23l47 -403c59 142 108 272 156 395c8 17 23 31 44 31
c19 0 30 -14 32 -31c10 -98 22 -200 47 -395l158 403c5 13 21 23 34 23c17 0 29 -14 26 -33v-2zM420 653l-92 -68c-1 -2 -10 -3 -14 -3c-8 0 -15 9 -15 17s11 19 20 26l90 69h-1c6 3 12 7 19 7c6 0 12 -4 17 -7h-1l72 -69c4 -7 12 -16 12 -23c0 -9 -11 -20 -22 -20
c-4 0 -10 1 -11 3z" />
    <glyph glyph-name="Ycircumflex" unicode="&#x176;" horiz-adv-x="476" 
d="M240 -9c-20 0 -33 15 -30 35l36 253l-128 386c-1 4 -2 10 -2 14c0 19 21 37 40 37c9 0 18 -4 22 -13v1l113 -351l210 351v-1c6 9 17 13 27 13c16 0 29 -14 29 -30c0 -7 -4 -16 -6 -21l-238 -390l-35 -249c-3 -19 -19 -35 -38 -35zM359 853l-92 -68c-1 -2 -10 -3 -14 -3
c-8 0 -15 9 -15 17s11 19 20 26l90 69h-1c6 3 12 7 19 7c6 0 12 -4 17 -7h-1l72 -69c4 -7 12 -16 12 -23c0 -9 -11 -20 -22 -20c-4 0 -10 1 -11 3z" />
    <glyph glyph-name="ycircumflex" unicode="&#x177;" horiz-adv-x="509" 
d="M93 173l44 307c2 18 16 32 37 32s30 -14 28 -32l-44 -307c-11 -77 13 -125 92 -125c45 0 91 16 130 52l53 380c3 18 16 32 38 32c21 0 30 -14 27 -32l-74 -528c-14 -102 -79 -182 -201 -182c-46 0 -129 12 -129 52c0 15 15 31 31 31c4 0 9 -1 15 -3h-1
c22 -13 44 -24 83 -24c86 0 126 46 137 126l12 85c-46 -27 -94 -43 -145 -43c-120 0 -147 77 -133 179zM345 653l-92 -68c-1 -2 -10 -3 -14 -3c-8 0 -15 9 -15 17s11 19 20 26l90 69h-1c6 3 12 7 19 7c6 0 12 -4 17 -7h-1l72 -69c4 -7 12 -16 12 -23c0 -9 -11 -20 -22 -20
c-4 0 -10 1 -11 3z" />
    <glyph glyph-name="Ydieresis" unicode="&#x178;" horiz-adv-x="476" 
d="M240 -9c-20 0 -33 15 -30 35l36 253l-128 386c-1 4 -2 10 -2 14c0 19 21 37 40 37c9 0 18 -4 22 -13v1l113 -351l210 351v-1c6 9 17 13 27 13c16 0 29 -14 29 -30c0 -7 -4 -16 -6 -21l-238 -390l-35 -249c-3 -19 -19 -35 -38 -35zM485 851c0 -26 -22 -47 -46 -47
c-20 0 -37 17 -37 37c0 24 25 46 49 46c20 0 34 -17 34 -36zM312 851c0 -26 -22 -47 -47 -47c-20 0 -35 17 -35 37c0 23 23 46 47 46c21 0 35 -17 35 -36z" />
    <glyph glyph-name="Zacute" unicode="&#x179;" horiz-adv-x="484" 
d="M458 39c0 -22 -17 -38 -38 -38h-350c-19 0 -31 14 -31 32c0 10 9 26 14 33l403 574h-297c-17 0 -29 12 -29 28c0 20 18 38 38 38h346c19 0 32 -14 32 -32c0 -12 -9 -24 -14 -32l-404 -575h301c17 0 29 -12 29 -28zM333 825l99 91c7 6 15 14 25 14c13 0 22 -12 22 -24
c0 -5 -2 -12 -5 -15l-94 -87c-11 -10 -19 -17 -30 -17c-13 0 -23 11 -23 25c0 7 2 9 6 13z" />
    <glyph glyph-name="zacute" unicode="&#x17a;" horiz-adv-x="384" 
d="M434 476c0 -10 -7 -25 -11 -30l-316 -387h241c15 0 26 -12 26 -27c0 -18 -16 -32 -35 -32h-285c-16 0 -29 13 -29 31c0 7 4 19 9 26l319 389h-230c-15 0 -26 11 -26 26c0 19 16 33 34 33h273c18 0 30 -10 30 -29zM266 625l99 91c7 6 15 14 25 14c13 0 22 -12 22 -24
c0 -5 -2 -12 -5 -15l-94 -87c-11 -10 -19 -17 -30 -17c-13 0 -23 11 -23 25c0 7 2 9 6 13z" />
    <glyph glyph-name="Zdotaccent" unicode="&#x17b;" horiz-adv-x="484" 
d="M458 39c0 -22 -17 -38 -38 -38h-350c-19 0 -31 14 -31 32c0 10 9 26 14 33l403 574h-297c-17 0 -29 12 -29 28c0 20 18 38 38 38h346c19 0 32 -14 32 -32c0 -12 -9 -24 -14 -32l-404 -575h301c17 0 29 -12 29 -28zM402 851c0 -26 -22 -47 -47 -47c-20 0 -35 17 -35 37
c0 23 23 46 47 46c21 0 35 -17 35 -36z" />
    <glyph glyph-name="zdotaccent" unicode="&#x17c;" horiz-adv-x="384" 
d="M434 476c0 -10 -7 -25 -11 -30l-316 -387h241c15 0 26 -12 26 -27c0 -18 -16 -32 -35 -32h-285c-16 0 -29 13 -29 31c0 7 4 19 9 26l319 389h-230c-15 0 -26 11 -26 26c0 19 16 33 34 33h273c18 0 30 -10 30 -29zM324 651c0 -26 -22 -47 -47 -47c-20 0 -35 17 -35 37
c0 23 23 46 47 46c21 0 35 -17 35 -36z" />
    <glyph glyph-name="Zcaron" unicode="&#x17d;" horiz-adv-x="484" 
d="M458 39c0 -22 -17 -38 -38 -38h-350c-19 0 -31 14 -31 32c0 10 9 26 14 33l403 574h-297c-17 0 -29 12 -29 28c0 20 18 38 38 38h346c19 0 32 -14 32 -32c0 -12 -9 -24 -14 -32l-404 -575h301c17 0 29 -12 29 -28zM353 775c-8 0 -15 3 -18 7l-80 75c-8 8 -15 17 -15 27
c0 14 17 24 27 24c6 0 10 -3 13 -6l80 -73l100 73c5 4 10 6 15 6c11 0 20 -8 20 -19c0 -14 -9 -22 -22 -32l-101 -75c-4 -4 -11 -7 -19 -7z" />
    <glyph glyph-name="zcaron" unicode="&#x17e;" horiz-adv-x="384" 
d="M434 476c0 -10 -7 -25 -11 -30l-316 -387h241c15 0 26 -12 26 -27c0 -18 -16 -32 -35 -32h-285c-16 0 -29 13 -29 31c0 7 4 19 9 26l319 389h-230c-15 0 -26 11 -26 26c0 19 16 33 34 33h273c18 0 30 -10 30 -29zM278 575c-8 0 -15 3 -18 7l-80 75c-8 8 -15 17 -15 27
c0 14 17 24 27 24c6 0 10 -3 13 -6l80 -73l100 73c5 4 10 6 15 6c11 0 20 -8 20 -19c0 -14 -9 -22 -22 -32l-101 -75c-4 -4 -11 -7 -19 -7z" />
    <glyph glyph-name="florin" unicode="&#x192;" horiz-adv-x="492" 
d="M577 691c0 -33 -23 -31 -37 -29c-13 2 -26 3 -29 3c-40 0 -76 -28 -91 -73l-43 -144h94c13 0 23 -7 23 -24c0 -23 -14 -31 -31 -31h-106c-43 -139 -95 -303 -139 -442c-30 -97 -77 -166 -166 -166c-40 0 -72 1 -72 25c0 21 15 34 38 34h11c6 0 12 -1 18 -1
c58 0 81 32 102 99l143 451h-95c-14 0 -25 7 -25 23c0 24 16 32 33 32h105l47 154c26 69 89 120 172 120c23 0 48 -4 48 -31z" />
    <glyph glyph-name="uni0218" unicode="&#x218;" horiz-adv-x="486" 
d="M400 208c0 53 -26 78 -48 90c-19 11 -47 22 -75 32c-76 27 -159 57 -159 167c0 133 92 219 230 219c47 0 157 -11 157 -58c0 -18 -14 -35 -37 -35c-11 0 -24 4 -34 9c-22 9 -48 20 -89 20c-78 0 -155 -33 -155 -142c0 -56 29 -79 50 -90c20 -11 49 -23 76 -32
c74 -25 157 -60 157 -168c0 -143 -110 -229 -247 -229c-61 0 -172 17 -172 64c0 18 18 36 35 36c6 0 21 -5 35 -11c25 -10 60 -25 112 -25c109 0 164 60 164 153zM276 -108c0 -50 -61 -134 -88 -134c-6 0 -11 3 -11 8c0 7 10 18 20 29c7 9 21 22 32 42c-28 2 -47 21 -47 45
c0 28 25 52 55 52c22 0 39 -19 39 -42z" />
    <glyph glyph-name="uni0219" unicode="&#x219;" horiz-adv-x="406" 
d="M110 356c0 93 64 159 180 159c50 0 123 -11 123 -47c0 -17 -15 -32 -34 -32c-6 0 -9 2 -14 4c-22 11 -40 20 -79 20c-77 0 -112 -34 -112 -93c0 -28 13 -46 44 -63c68 -37 165 -48 165 -149c0 -98 -65 -162 -187 -162c-49 0 -138 10 -138 48c0 16 15 33 35 33
c2 0 3 0 6 -1c28 -12 60 -25 105 -25c68 0 115 29 115 97c0 33 -14 50 -32 60c-68 37 -177 48 -177 151zM236 -108c0 -50 -61 -134 -88 -134c-6 0 -11 3 -11 8c0 7 10 18 20 29c7 9 21 22 32 42c-28 2 -47 21 -47 45c0 28 25 52 55 52c22 0 39 -19 39 -42z" />
    <glyph glyph-name="uni021A" unicode="&#x21a;" horiz-adv-x="483" 
d="M213 24l87 618h-146c-18 0 -30 12 -30 28s19 36 39 36h359c16 0 30 -12 30 -29c0 -19 -19 -35 -39 -35h-147l-87 -618c-2 -18 -19 -33 -37 -33c-19 0 -31 15 -29 33zM274 -108c0 -50 -61 -134 -88 -134c-6 0 -11 3 -11 8c0 7 10 18 20 29c7 9 21 22 32 42
c-28 2 -47 21 -47 45c0 28 25 52 55 52c22 0 39 -19 39 -42z" />
    <glyph glyph-name="uni021B" unicode="&#x21b;" horiz-adv-x="321" 
d="M109 202l61 431c2 17 15 32 36 32s30 -15 28 -32l-21 -150h116c14 0 25 -11 25 -27c0 -18 -16 -33 -34 -33h-116l-30 -214c-16 -111 -9 -152 72 -152c7 0 13 1 20 1c18 0 41 -3 41 -26c0 -32 -29 -35 -55 -35c-138 0 -162 68 -143 205zM253 -108c0 -50 -61 -134 -88 -134
c-6 0 -11 3 -11 8c0 7 10 18 20 29c7 9 21 22 32 42c-28 2 -47 21 -47 45c0 28 25 52 55 52c22 0 39 -19 39 -42z" />
    <glyph glyph-name="dotlessj" unicode="&#x237;" horiz-adv-x="245" 
d="M225 479l-71 -502c-14 -101 -78 -171 -164 -185c-9 -1 -13 0 -19 0c-12 0 -23 8 -24 20c-2 23 18 32 30 35c62 13 100 46 111 126l72 506c2 18 18 33 37 33c17 0 30 -15 28 -33z" />
    <glyph glyph-name="circumflex" unicode="&#x2c6;" horiz-adv-x="396" 
d="M290 653l-92 -68c-1 -2 -10 -3 -14 -3c-8 0 -15 9 -15 17s11 19 20 26l90 69h-1c6 3 12 7 19 7c6 0 12 -4 17 -7h-1l72 -69c4 -7 12 -16 12 -23c0 -9 -11 -20 -22 -20c-4 0 -10 1 -11 3z" />
    <glyph glyph-name="caron" unicode="&#x2c7;" horiz-adv-x="391" 
d="M278 575c-8 0 -15 3 -18 7l-80 75c-8 8 -15 17 -15 27c0 14 17 24 27 24c6 0 10 -3 13 -6l80 -73l100 73c5 4 10 6 15 6c11 0 20 -8 20 -19c0 -14 -9 -22 -22 -32l-101 -75c-4 -4 -11 -7 -19 -7z" />
    <glyph glyph-name="breve" unicode="&#x2d8;" horiz-adv-x="368" 
d="M274 632c24 0 52 13 79 45c8 10 18 14 27 14c13 0 23 -8 14 -29c-21 -50 -82 -77 -126 -77c-43 0 -105 26 -108 77c-1 18 15 29 26 29c9 0 17 -4 22 -14c19 -32 39 -45 66 -45z" />
    <glyph glyph-name="dotaccent" unicode="&#x2d9;" horiz-adv-x="238" 
d="M251 651c0 -26 -22 -47 -47 -47c-20 0 -35 17 -35 37c0 23 23 46 47 46c21 0 35 -17 35 -36z" />
    <glyph glyph-name="ring" unicode="&#x2da;" horiz-adv-x="571" 
d="M471 662c0 -57 -50 -104 -107 -104c-48 0 -83 36 -83 82c0 57 52 105 109 105c48 0 81 -37 81 -83zM440 659c0 31 -22 56 -54 56c-38 0 -73 -33 -73 -71c0 -31 23 -55 55 -55c38 0 72 31 72 70z" />
    <glyph glyph-name="ogonek" unicode="&#x2db;" horiz-adv-x="322" 
d="M221 -164c0 -30 -44 -34 -75 -34c-53 0 -87 22 -87 71c0 37 21 77 50 113h46c-18 -30 -40 -63 -40 -92c0 -26 14 -45 46 -45c16 0 24 2 31 3c5 1 10 2 13 2c10 0 16 -9 16 -18z" />
    <glyph glyph-name="tilde" unicode="&#x2dc;" horiz-adv-x="375" 
d="M422 660c0 -33 -49 -58 -85 -58c-22 0 -40 9 -56 18c-12 6 -20 15 -42 15c-12 0 -27 -3 -48 -18c-8 -6 -12 -9 -20 -9c-11 0 -20 6 -20 19c0 30 43 60 83 60c20 0 37 -8 56 -19c16 -9 27 -13 43 -14c27 0 39 8 50 17c5 4 15 12 23 12c7 0 16 -9 16 -23z" />
    <glyph glyph-name="hungarumlaut" unicode="&#x2dd;" horiz-adv-x="410" 
d="M303 615l80 98c9 11 18 24 31 24c12 0 24 -13 24 -25c0 -5 -1 -8 -3 -11l-88 -107c-7 -9 -13 -14 -23 -14c-13 0 -24 11 -24 23c0 5 1 9 3 12zM165 615l85 104c8 10 15 18 26 18c17 0 23 -18 23 -29c0 0 -2 -7 -3 -8c-15 -20 -50 -67 -78 -98c-13 -14 -22 -22 -33 -22
c-12 0 -23 11 -23 24c0 6 1 8 3 11z" />
    <glyph glyph-name="uni0400" unicode="&#x400;" horiz-adv-x="474" 
d="M445 38c0 -21 -19 -37 -38 -37h-271c-30 0 -56 9 -52 40l88 624c3 21 23 41 47 41h277c16 0 27 -13 27 -30c0 -19 -17 -34 -36 -34h-252l-36 -255h232c16 0 28 -12 28 -28c0 -20 -17 -36 -37 -36h-232l-36 -258h262c16 0 29 -13 29 -27zM346 917l73 -91c2 -2 3 -6 3 -8
c0 -16 -16 -30 -30 -30c-11 0 -18 6 -26 16l-68 88c-2 3 -3 7 -3 10c0 15 16 29 28 29c11 0 15 -6 23 -14z" />
    <glyph glyph-name="uni0401" unicode="&#x401;" horiz-adv-x="474" 
d="M445 38c0 -21 -19 -37 -38 -37h-271c-30 0 -56 9 -52 40l88 624c3 21 23 41 47 41h277c16 0 27 -13 27 -30c0 -19 -17 -34 -36 -34h-252l-36 -255h232c16 0 28 -12 28 -28c0 -20 -17 -36 -37 -36h-232l-36 -258h262c16 0 29 -13 29 -27zM515 852c0 -26 -22 -47 -46 -47
c-20 0 -37 17 -37 37c0 24 25 46 49 46c20 0 34 -17 34 -36zM342 852c0 -26 -22 -47 -47 -47c-20 0 -35 17 -35 37c0 23 23 46 47 46c21 0 35 -17 35 -36z" />
    <glyph glyph-name="uni0402" unicode="&#x402;" horiz-adv-x="644" 
d="M171 24l87 619h-105c-18 0 -30 13 -30 27c0 18 20 37 39 37h360c16 0 29 -12 29 -29c0 -19 -19 -35 -38 -35h-188l-33 -234c52 21 104 31 145 31c115 0 179 -62 179 -181c0 -157 -84 -268 -207 -268c-53 0 -89 21 -89 49c0 18 17 33 33 33c7 0 10 -4 15 -7
c9 -6 18 -11 42 -11c87 0 139 68 139 199c0 88 -41 122 -127 122c-47 0 -98 -10 -139 -32l-45 -320c-3 -18 -20 -33 -38 -33s-32 15 -29 33z" />
    <glyph glyph-name="uni0403" unicode="&#x403;" horiz-adv-x="430" 
d="M235 641l-86 -616c-3 -18 -19 -33 -37 -33c-19 0 -32 15 -29 33l90 641c2 20 21 39 44 39h278c16 0 27 -13 27 -29c0 -19 -17 -35 -36 -35h-251zM345 826l99 91c7 6 15 14 25 14c13 0 22 -12 22 -24c0 -5 -2 -12 -5 -15l-94 -87c-11 -10 -19 -17 -30 -17
c-13 0 -23 11 -23 25c0 7 2 9 6 13z" />
    <glyph glyph-name="uni0404" unicode="&#x404;" horiz-adv-x="482" 
d="M84 244l31 219c22 153 107 253 259 253c85 0 162 -35 162 -76c0 -18 -14 -32 -33 -32c-9 0 -14 4 -21 9c-2 2 -6 4 -9 6c-30 22 -63 34 -103 34c-121 0 -171 -75 -188 -194l-11 -76h198c15 0 27 -12 27 -28c0 -21 -17 -37 -36 -37h-198l-11 -78
c-16 -118 13 -193 134 -193c40 0 76 10 110 32l12 7c11 7 17 10 24 10c16 0 25 -11 25 -25c0 -45 -92 -83 -184 -83c-152 0 -209 100 -188 252z" />
    <glyph glyph-name="uni0405" unicode="&#x405;" horiz-adv-x="486" 
d="M400 208c0 53 -26 78 -48 90c-19 11 -47 22 -75 32c-76 27 -159 57 -159 167c0 133 92 219 230 219c47 0 157 -11 157 -58c0 -18 -14 -35 -37 -35c-11 0 -24 4 -34 9c-22 9 -48 20 -89 20c-78 0 -155 -33 -155 -142c0 -56 29 -79 50 -90c20 -11 49 -23 76 -32
c74 -25 157 -60 157 -168c0 -143 -110 -229 -247 -229c-61 0 -172 17 -172 64c0 18 18 36 35 36c6 0 21 -5 35 -11c25 -10 60 -25 112 -25c109 0 164 60 164 153z" />
    <glyph glyph-name="uni0406" unicode="&#x406;" horiz-adv-x="227" 
d="M84 24l92 659c3 17 21 33 39 33c19 0 31 -16 28 -33l-92 -659c-3 -18 -19 -33 -38 -33c-18 0 -32 15 -29 33z" />
    <glyph glyph-name="uni0407" unicode="&#x407;" horiz-adv-x="227" 
d="M84 24l92 659c3 17 21 33 39 33c19 0 31 -16 28 -33l-92 -659c-3 -18 -19 -33 -38 -33c-18 0 -32 15 -29 33zM362 852c0 -26 -22 -47 -46 -47c-20 0 -37 17 -37 37c0 24 25 46 49 46c20 0 34 -17 34 -36zM189 852c0 -26 -22 -47 -47 -47c-20 0 -35 17 -35 37
c0 23 23 46 47 46c21 0 35 -17 35 -36z" />
    <glyph glyph-name="uni0408" unicode="&#x408;" horiz-adv-x="385" 
d="M405 683l-64 -460c-21 -144 -79 -232 -231 -232c-26 0 -75 2 -75 34c0 23 20 36 33 36c2 0 9 -1 16 -2c11 -2 25 -5 46 -5c100 0 129 66 144 169l64 460c3 18 20 33 39 33c17 0 31 -16 28 -33z" />
    <glyph glyph-name="uni0409" unicode="&#x409;" horiz-adv-x="877" 
d="M528 578v-7l10 72h-212l-99 -477c-21 -101 -67 -173 -145 -173c-34 0 -66 1 -66 29c0 26 18 38 35 38c13 0 12 -3 29 -3c41 0 64 33 79 101l109 515c7 25 25 34 37 34h276c17 0 30 -15 27 -33l-32 -233h105c120 0 193 -65 193 -183c0 -125 -68 -257 -255 -257h-130
c-23 0 -39 18 -36 41zM567 377l-44 -312h105c156 0 180 112 180 187c0 84 -47 125 -136 125h-105z" />
    <glyph glyph-name="uni040A" unicode="&#x40a;" horiz-adv-x="848" 
d="M188 322l-41 -297c-3 -19 -19 -34 -37 -34c-19 0 -32 15 -29 34l92 658c3 17 20 33 39 33c18 0 30 -16 27 -33l-42 -297h274l42 294c3 20 21 36 39 36s30 -17 28 -36l-34 -239h105c121 0 195 -65 195 -183c0 -125 -70 -257 -257 -257h-130c-22 0 -39 18 -36 41l39 280
h-274zM537 377l-44 -312h105c156 0 180 112 180 187c0 84 -46 125 -136 125h-105z" />
    <glyph glyph-name="uni040B" unicode="&#x40b;" horiz-adv-x="644" 
d="M551 678c0 -19 -19 -35 -38 -35h-188l-33 -234c52 21 104 31 145 31c131 0 196 -77 176 -218l-28 -196c-2 -19 -19 -35 -38 -35c-17 0 -31 15 -28 35l28 195c15 112 -27 155 -126 155c-46 0 -97 -10 -138 -32l-45 -320c-3 -18 -20 -33 -38 -33s-32 15 -29 33l87 619h-105
c-18 0 -30 12 -30 28s20 36 39 36h360c16 0 29 -12 29 -29z" />
    <glyph glyph-name="uni040C" unicode="&#x40c;" horiz-adv-x="516" 
d="M241 683l-42 -297h72c84 102 176 212 260 314c9 10 21 16 30 16c17 0 25 -18 25 -33c0 -6 -2 -12 -6 -19l-260 -311l172 -311c2 -3 2 -8 2 -11c0 -17 -14 -40 -35 -40c-11 0 -20 5 -26 15l-173 316h-70l-41 -297c-3 -19 -19 -34 -38 -34c-18 0 -31 15 -28 34l92 658
c3 17 20 33 38 33c19 0 31 -16 28 -33zM363 826l99 91c7 6 15 14 25 14c13 0 22 -12 22 -24c0 -5 -2 -12 -5 -15l-94 -87c-11 -10 -19 -17 -30 -17c-13 0 -23 11 -23 25c0 7 2 9 6 13z" />
    <glyph glyph-name="uni040D" unicode="&#x40d;" horiz-adv-x="589" 
d="M115 -9c-22 0 -36 16 -33 37l92 654c2 18 20 34 38 34c19 0 31 -16 29 -34l-78 -551l379 564c9 13 25 21 39 21c20 0 33 -16 30 -38l-91 -653c-3 -19 -20 -34 -37 -34c-18 0 -33 15 -30 34l77 550l-378 -565c-8 -12 -23 -19 -37 -19zM355 917l73 -91c2 -2 3 -6 3 -8
c0 -16 -16 -30 -30 -30c-11 0 -18 6 -26 16l-68 88c-2 3 -3 7 -3 10c0 15 16 29 28 29c11 0 15 -6 23 -14z" />
    <glyph glyph-name="uni040E" unicode="&#x40e;" horiz-adv-x="503" 
d="M571 674l-228 -446c-70 -137 -119 -233 -247 -235c-17 0 -29 11 -29 27c0 17 14 33 35 34c69 3 103 31 147 109l-122 511c0 2 -1 6 -1 8c0 20 17 34 38 34c12 0 22 -8 25 -22l103 -447l222 448c6 12 22 21 33 21c14 0 26 -11 26 -28c0 -7 -2 -13 -2 -14zM370 833
c24 0 52 13 79 45c8 10 18 14 27 14c13 0 23 -8 14 -29c-21 -50 -82 -77 -126 -77c-43 0 -105 26 -108 77c-1 18 15 29 26 29c9 0 17 -4 22 -14c19 -32 39 -45 66 -45z" />
    <glyph glyph-name="uni040F" unicode="&#x40f;" horiz-adv-x="579" 
d="M239 -130l19 131h-146c-18 0 -31 15 -28 33l91 649c2 18 20 34 38 34c19 0 30 -16 28 -34l-87 -618h294l87 618c2 18 22 34 39 34c18 0 30 -16 28 -34l-91 -649c-3 -18 -21 -33 -38 -33h-148l-19 -131c-2 -17 -19 -32 -37 -32s-32 15 -30 32z" />
    <glyph glyph-name="uni0410" unicode="&#x410;" horiz-adv-x="549" 
d="M165 163l-66 -148c-8 -12 -24 -24 -35 -24c-18 0 -31 11 -31 29c0 6 3 14 4 17l288 630c12 28 27 49 53 49c25 0 35 -22 40 -49l110 -630c0 -2 0 -9 -1 -13c-3 -20 -19 -33 -39 -33c-12 0 -27 10 -29 24l-25 148h-269zM362 607l-169 -379h231z" />
    <glyph glyph-name="uni0411" unicode="&#x411;" horiz-adv-x="531" 
d="M506 641h-271l-31 -220h126c122 0 195 -64 195 -176c0 -119 -67 -244 -254 -244h-150c-23 0 -39 18 -36 41l88 624c3 20 21 39 43 39h299c16 0 27 -13 27 -29c0 -19 -17 -35 -36 -35zM154 65h126c154 0 178 103 178 173c0 80 -46 119 -136 119h-126z" />
    <glyph glyph-name="uni0412" unicode="&#x412;" horiz-adv-x="542" 
d="M202 400h126c74 0 166 45 166 144c0 51 -30 98 -115 98h-143zM321 335h-129l-38 -270h133c119 0 180 64 180 149c0 78 -60 121 -146 121zM289 1h-169c-23 0 -38 18 -35 41l88 622c3 24 25 42 47 42h173c115 0 167 -75 167 -157c0 -98 -65 -148 -151 -186
c57 -22 125 -53 125 -144c0 -119 -99 -218 -245 -218z" />
    <glyph glyph-name="uni0413" unicode="&#x413;" horiz-adv-x="430" 
d="M235 641l-86 -616c-3 -18 -19 -33 -37 -33c-19 0 -32 15 -29 33l90 641c2 20 21 39 44 39h278c16 0 27 -13 27 -29c0 -19 -17 -35 -36 -35h-251z" />
    <glyph glyph-name="uni0414" unicode="&#x414;" horiz-adv-x="628" 
d="M601 705c19 0 31 -15 28 -33l-85 -607h34c19 0 31 -19 27 -45l-18 -130c-3 -18 -19 -32 -38 -32s-30 14 -28 32l16 111h-440l-16 -111c-2 -18 -20 -32 -37 -32c-18 0 -31 14 -29 32l19 130c4 26 21 45 39 45h34c42 49 76 148 100 278l61 329c5 25 25 33 37 33h296z
M274 343c-21 -114 -55 -210 -104 -278h308l81 576h-232z" />
    <glyph glyph-name="uni0415" unicode="&#x415;" horiz-adv-x="474" 
d="M445 38c0 -21 -19 -37 -38 -37h-271c-30 0 -56 9 -52 40l88 624c3 21 23 41 47 41h277c16 0 27 -13 27 -30c0 -19 -17 -34 -36 -34h-252l-36 -255h232c16 0 28 -12 28 -28c0 -20 -17 -36 -37 -36h-232l-36 -258h262c16 0 29 -13 29 -27z" />
    <glyph glyph-name="uni0416" unicode="&#x416;" horiz-adv-x="746" 
d="M506 683l-42 -297h59l241 314c9 11 21 16 30 16c29 0 34 -33 20 -52l-235 -311l146 -311c2 -3 3 -8 3 -11c0 -17 -15 -40 -36 -40c-11 0 -20 6 -26 15l-152 316h-59l-42 -297c-3 -19 -20 -34 -38 -34s-32 15 -29 34l42 297h-58l-242 -316c-8 -9 -18 -15 -30 -15
c-18 0 -26 17 -26 32c0 8 2 12 7 19l233 311l-146 311c-11 24 15 52 37 52c9 0 18 -5 23 -16l152 -314h59l42 297c2 17 20 33 38 33s31 -16 29 -33z" />
    <glyph glyph-name="uni0417" unicode="&#x417;" horiz-adv-x="485" 
d="M471 210c0 -112 -99 -219 -244 -219c-68 0 -183 24 -183 73c0 19 16 34 34 34c3 0 7 -1 15 -6c39 -21 76 -43 142 -43c111 0 170 74 170 159s-73 115 -165 120c-18 1 -39 3 -39 27c0 31 22 35 39 35c89 0 198 48 198 159c0 55 -31 109 -118 109c-33 0 -71 -5 -99 -21
l-25 -14c-14 -8 -26 -13 -37 -14c-13 0 -24 10 -24 24c0 49 120 83 198 83c115 0 167 -81 167 -164c0 -90 -64 -150 -159 -189c77 -28 130 -77 130 -153z" />
    <glyph glyph-name="uni0418" unicode="&#x418;" horiz-adv-x="589" 
d="M115 -9c-22 0 -36 16 -33 37l92 654c2 18 20 34 38 34c19 0 31 -16 29 -34l-78 -551l379 564c9 13 25 21 39 21c20 0 33 -16 30 -38l-91 -653c-3 -19 -20 -34 -37 -34c-18 0 -33 15 -30 34l77 550l-378 -565c-8 -12 -23 -19 -37 -19z" />
    <glyph glyph-name="uni0419" unicode="&#x419;" horiz-adv-x="589" 
d="M115 -9c-22 0 -36 16 -33 37l92 654c2 18 20 34 38 34c19 0 31 -16 29 -34l-78 -551l379 564c9 13 25 21 39 21c20 0 33 -16 30 -38l-91 -653c-3 -19 -20 -34 -37 -34c-18 0 -33 15 -30 34l77 550l-378 -565c-8 -12 -23 -19 -37 -19zM413 833c24 0 52 13 79 45
c8 10 18 14 27 14c13 0 23 -8 14 -29c-21 -50 -82 -77 -126 -77c-43 0 -105 26 -108 77c-1 18 15 29 26 29c9 0 17 -4 22 -14c19 -32 39 -45 66 -45z" />
    <glyph glyph-name="uni041A" unicode="&#x41a;" horiz-adv-x="516" 
d="M241 683l-42 -297h72c84 102 176 212 260 314c9 10 21 16 30 16c17 0 25 -18 25 -33c0 -6 -2 -12 -6 -19l-260 -311l172 -311c2 -3 2 -8 2 -11c0 -17 -14 -40 -35 -40c-11 0 -20 5 -26 15l-173 316h-70l-41 -297c-3 -19 -19 -34 -38 -34c-18 0 -31 15 -28 34l92 658
c3 17 20 33 38 33c19 0 31 -16 28 -33z" />
    <glyph glyph-name="uni041B" unicode="&#x41b;" horiz-adv-x="610" 
d="M539 25h1c-3 -18 -19 -32 -37 -32c-20 0 -32 14 -30 32l87 616h-232l-100 -475c-21 -101 -67 -173 -144 -173c-34 0 -67 1 -67 29c0 26 19 38 36 38c13 0 11 -3 29 -3c40 0 64 33 79 101l109 513c7 25 24 34 36 34h297c18 0 30 -15 27 -33z" />
    <glyph glyph-name="uni041C" unicode="&#x41c;" horiz-adv-x="690" 
d="M722 680l-93 -658c-2 -17 -19 -31 -36 -31c-18 0 -33 14 -31 31l75 530c-69 -115 -162 -265 -233 -380c-8 -13 -21 -20 -34 -20c-14 0 -25 8 -30 20l-126 380l-75 -530c-2 -17 -19 -31 -39 -31c-17 0 -29 14 -27 31l93 658c3 21 20 36 41 36c17 0 27 -8 33 -23v1
l145 -443l268 444v-1c11 16 25 22 39 22c19 0 33 -16 30 -36z" />
    <glyph glyph-name="uni041D" unicode="&#x41d;" horiz-adv-x="580" 
d="M510 25c-3 -19 -20 -34 -38 -34c-17 0 -32 15 -29 34l41 297h-294l-41 -297c-3 -19 -19 -34 -38 -34c-18 0 -31 15 -28 34l92 658c3 17 20 33 38 33c19 0 31 -16 28 -33l-42 -297h294l42 297c3 17 22 33 39 33s31 -16 28 -33z" />
    <glyph glyph-name="uni041E" unicode="&#x41e;" horiz-adv-x="551" 
d="M276 -9c-151 0 -212 112 -192 253l31 219c19 138 99 253 263 253c162 0 211 -115 192 -253l-31 -219c-20 -141 -112 -253 -263 -253zM369 652c-119 0 -172 -76 -187 -189l-31 -219c-16 -111 24 -189 134 -189s171 78 187 189l31 219c15 113 -17 189 -134 189z" />
    <glyph glyph-name="uni041F" unicode="&#x41f;" horiz-adv-x="579" 
d="M510 25c-3 -19 -20 -34 -38 -34c-17 0 -32 15 -29 34l86 616h-294l-86 -616c-3 -19 -19 -34 -38 -34c-18 0 -31 15 -28 34l90 646c3 18 20 34 38 34h361c17 0 31 -16 28 -34z" />
    <glyph glyph-name="uni0420" unicode="&#x420;" horiz-adv-x="530" 
d="M309 267h-126l-34 -241c-3 -19 -19 -35 -38 -35c-17 0 -31 15 -28 35l89 638c4 23 25 42 48 42h150c142 0 193 -87 193 -186c0 -161 -103 -253 -254 -253zM235 642l-43 -311h126c118 0 179 62 179 184c0 65 -29 127 -136 127h-126z" />
    <glyph glyph-name="uni0421" unicode="&#x421;" horiz-adv-x="481" 
d="M84 244l31 219c22 153 107 253 259 253c85 0 162 -35 162 -76c0 -18 -14 -32 -33 -32c-9 0 -14 4 -21 9c-2 2 -6 4 -9 6c-30 22 -63 34 -103 34c-121 0 -171 -75 -188 -194l-31 -219c-16 -118 13 -193 134 -193c40 0 76 10 110 32l12 7c11 7 17 10 24 10
c16 0 25 -11 25 -25c0 -45 -92 -83 -184 -83c-152 0 -209 100 -188 252z" />
    <glyph glyph-name="uni0422" unicode="&#x422;" horiz-adv-x="483" 
d="M213 24l87 618h-146c-18 0 -30 12 -30 28s19 36 39 36h359c16 0 30 -12 30 -29c0 -19 -19 -35 -39 -35h-147l-87 -618c-2 -18 -19 -33 -37 -33c-19 0 -31 15 -29 33z" />
    <glyph glyph-name="uni0423" unicode="&#x423;" horiz-adv-x="503" 
d="M571 674l-228 -446c-70 -137 -119 -233 -247 -235c-17 0 -29 11 -29 27c0 17 14 33 35 34c69 3 103 31 147 109l-122 511c0 2 -1 6 -1 8c0 20 17 34 38 34c12 0 22 -8 25 -22l103 -447l222 448c6 12 22 21 33 21c14 0 26 -11 26 -28c0 -7 -2 -13 -2 -14z" />
    <glyph glyph-name="uni0424" unicode="&#x424;" horiz-adv-x="750" 
d="M349 24l20 141h-73c-122 0 -196 65 -196 183c0 124 68 257 257 257h73l11 78c3 17 22 33 39 33c19 0 31 -16 28 -33l-11 -78h74c143 0 194 -87 194 -187c0 -161 -104 -253 -255 -253h-74l-20 -141c-3 -18 -20 -33 -38 -33s-32 15 -29 33zM562 540h-74l-43 -311h74
c118 0 180 62 180 184c0 65 -30 127 -137 127zM305 229h73l43 311h-73c-160 0 -181 -113 -181 -186c0 -84 48 -125 138 -125z" />
    <glyph glyph-name="uni0425" unicode="&#x425;" horiz-adv-x="483" 
d="M289 319l-213 -303c-7 -11 -18 -25 -35 -25c-15 0 -27 14 -27 30c0 8 3 17 8 22l234 325l-132 297l1 -1c-1 4 -2 11 -2 16c0 18 17 36 35 36c13 0 25 -15 32 -32l112 -268l187 268h-1c10 14 25 32 43 32c14 0 24 -13 24 -29c0 -9 -4 -17 -7 -23l1 1l-213 -297l142 -325
c1 -3 2 -8 2 -13c0 -21 -19 -39 -35 -39c-15 0 -24 14 -30 25z" />
    <glyph glyph-name="uni0426" unicode="&#x426;" horiz-adv-x="604" 
d="M112 1c-19 0 -32 15 -29 33l91 648c2 18 19 34 38 34c18 0 31 -16 29 -34l-87 -617h294l87 617c2 18 20 34 38 34s30 -16 28 -34l-87 -617h49c18 0 31 -16 28 -33l-22 -161c-3 -18 -20 -33 -38 -33c-17 0 -31 15 -28 33l18 130h-409z" />
    <glyph glyph-name="uni0427" unicode="&#x427;" horiz-adv-x="547" 
d="M456 361l45 319c3 19 20 36 39 36c17 0 30 -16 27 -36l-92 -654c-3 -20 -20 -35 -37 -35c-19 0 -31 16 -29 35l38 270c-50 -20 -102 -29 -144 -29c-132 0 -197 77 -177 217l27 196c3 19 21 36 39 36c17 0 31 -16 28 -36l-27 -195c-16 -111 27 -154 126 -154
c45 0 97 10 137 30z" />
    <glyph glyph-name="uni0428" unicode="&#x428;" horiz-adv-x="760" 
d="M785 682l-91 -648c-3 -18 -21 -33 -38 -33h-545c-18 0 -31 15 -28 33l91 648c2 18 19 34 37 34c19 0 31 -16 29 -34l-87 -617h205l87 618c2 17 20 33 38 33s31 -16 29 -33l-87 -618h206l87 617c2 18 20 34 38 34s31 -16 29 -34z" />
    <glyph glyph-name="uni0429" unicode="&#x429;" horiz-adv-x="784" 
d="M784 682l-87 -617h49c18 0 31 -16 28 -33l-22 -161c-3 -18 -19 -33 -38 -33c-17 0 -32 15 -29 33l18 130h-592c-19 0 -32 15 -29 33l91 648c2 18 19 34 38 34c18 0 31 -16 29 -34l-87 -617h205l87 618c2 17 19 33 38 33c18 0 30 -16 28 -33l-87 -618h207l87 617
c2 18 20 34 37 34c19 0 31 -16 29 -34z" />
    <glyph glyph-name="uni042A" unicode="&#x42a;" horiz-adv-x="654" 
d="M205 42l85 601h-147c-17 0 -29 12 -29 28c0 19 17 36 38 36h175c22 0 35 -19 32 -39l-31 -227h126c120 0 194 -65 194 -183c0 -125 -69 -257 -256 -257h-150c-23 0 -40 18 -37 41zM275 65h126c160 0 179 116 179 187c0 84 -46 125 -135 125h-126z" />
    <glyph glyph-name="uni042B" unicode="&#x42b;" horiz-adv-x="725" 
d="M206 441h126c121 0 195 -65 195 -183c0 -125 -69 -257 -257 -257h-150c-23 0 -39 18 -36 41l90 638c3 20 21 36 38 36c19 0 31 -17 28 -36zM197 377l-44 -312h126c161 0 180 116 180 187c0 84 -46 125 -136 125h-126zM591 24l92 659c3 17 20 33 38 33c19 0 31 -16 28 -33
l-92 -659c-3 -18 -19 -33 -38 -33c-18 0 -31 15 -28 33z" />
    <glyph glyph-name="uni042C" unicode="&#x42c;" horiz-adv-x="535" 
d="M207 441h126c121 0 194 -65 194 -183c0 -125 -68 -257 -256 -257h-150c-23 0 -39 18 -36 41l90 638c3 20 21 36 38 36c19 0 31 -17 28 -36zM198 377l-44 -312h126c156 0 180 112 180 187c0 84 -46 125 -136 125h-126z" />
    <glyph glyph-name="uni042D" unicode="&#x42d;" horiz-adv-x="498" 
d="M516 463l-30 -219c-22 -152 -106 -252 -258 -252c-86 0 -163 34 -163 76c0 17 16 32 34 32c8 0 13 -4 23 -10c4 -2 6 -5 9 -7c28 -22 59 -32 100 -32c121 0 171 75 188 193l10 78h-197c-16 0 -26 12 -26 28c0 21 18 37 36 37h197l10 76c17 119 -11 194 -132 194
c-41 0 -76 -12 -111 -34l-11 -6c-9 -5 -14 -9 -24 -9c-16 0 -27 11 -27 25c0 44 94 83 186 83c152 0 208 -100 186 -253z" />
    <glyph glyph-name="uni042E" unicode="&#x42e;" horiz-adv-x="758" 
d="M498 -9c-144 0 -202 108 -183 243l13 89h-138l-42 -298c-3 -19 -19 -34 -38 -34c-18 0 -32 15 -29 34l92 658c3 17 21 33 39 33c19 0 31 -16 28 -33l-42 -297h138l13 87c18 133 95 243 251 243s201 -110 183 -243l-34 -239c-19 -135 -107 -243 -251 -243zM591 652
c-111 0 -161 -72 -176 -179l-34 -239c-15 -105 23 -179 126 -179c104 0 161 74 176 179l34 239c15 107 -15 179 -126 179z" />
    <glyph glyph-name="uni042F" unicode="&#x42f;" horiz-adv-x="561" 
d="M145 481c0 103 60 224 245 224h158c21 0 35 -19 32 -42l-89 -637c-3 -20 -19 -35 -36 -35c-19 0 -33 16 -30 35l41 292h-109l-226 -311c-7 -9 -19 -15 -30 -15c-12 0 -33 12 -33 28c0 6 3 16 8 22l207 278c-86 17 -138 73 -138 161zM212 489c0 -71 45 -108 131 -108h132
l36 260h-126c-149 0 -173 -91 -173 -152z" />
    <glyph glyph-name="uni0430" unicode="&#x430;" horiz-adv-x="482" 
d="M206 -7c-104 0 -147 76 -131 186l19 131c17 119 73 205 207 205c123 0 161 -70 143 -201l-31 -226c-4 -26 3 -39 21 -39c4 0 6 1 8 1c13 0 19 -11 19 -23c0 -23 -23 -31 -42 -31c-31 0 -55 22 -68 57c-45 -40 -95 -60 -145 -60zM230 49c42 0 78 16 119 49l34 243
c11 81 -18 119 -90 119c-81 0 -119 -48 -134 -150l-19 -131c-12 -85 17 -130 90 -130z" />
    <glyph glyph-name="uni0431" unicode="&#x431;" horiz-adv-x="465" 
d="M118 484c18 127 87 202 228 216c7 1 15 2 19 2c23 1 35 1 94 27c2 1 8 3 12 3c14 0 24 -12 24 -26c0 -51 -106 -59 -158 -63c-48 -4 -134 -14 -153 -153l-11 -77c43 46 91 73 146 73c106 0 158 -77 145 -176l-20 -142c-14 -99 -89 -175 -210 -175
c-120 0 -174 76 -160 175zM242 52c80 0 126 44 137 116l20 143c10 72 -19 117 -98 117c-78 0 -130 -43 -142 -112l-20 -148c-11 -72 24 -116 103 -116z" />
    <glyph glyph-name="uni0432" unicode="&#x432;" horiz-adv-x="468" 
d="M249 -7c-119 0 -179 76 -165 175l24 172c14 99 89 176 208 176c103 0 151 -56 151 -126c0 -65 -31 -104 -104 -131c60 -23 81 -61 81 -104c0 -86 -67 -162 -195 -162zM260 52c79 0 121 34 121 105c0 38 -20 74 -101 74h-122l-9 -63c-10 -72 29 -116 111 -116zM173 341
l-8 -58h125c84 0 112 42 112 99c0 55 -36 80 -95 80c-78 0 -124 -49 -134 -121z" />
    <glyph glyph-name="uni0433" unicode="&#x433;" horiz-adv-x="406" 
d="M409 394c0 -139 -135 -146 -224 -189c-28 -13 -53 -36 -53 -86c0 -49 36 -71 92 -71c45 0 79 13 111 25c3 1 4 1 6 1c18 0 27 -13 27 -27c0 -44 -99 -54 -152 -54c-98 0 -147 46 -147 121c0 140 121 147 212 190c53 25 65 46 65 88c0 44 -27 68 -88 68
c-39 0 -60 -9 -85 -20c-5 -2 -10 -4 -16 -4c-15 0 -25 11 -25 25c0 41 84 54 136 54c94 0 141 -48 141 -121z" />
    <glyph glyph-name="uni0434" unicode="&#x434;" horiz-adv-x="500" 
d="M274 689c4 19 14 27 54 27c176 0 199 -149 191 -275c-22 -346 -107 -449 -270 -450c-114 -1 -175 82 -175 203c0 142 85 282 221 282c40 0 106 -12 156 -57c9 65 7 112 -6 149c-28 80 -98 89 -151 95c-16 2 -24 5 -20 26zM438 283l6 71c-30 38 -100 63 -148 63
c-93 0 -156 -93 -156 -216c0 -87 32 -149 127 -149c102 0 149 71 171 231z" />
    <glyph glyph-name="uni0435" unicode="&#x435;" horiz-adv-x="433" 
d="M243 48c46 0 76 13 114 29c2 1 7 3 11 3c15 0 25 -12 25 -25c0 -47 -113 -62 -168 -62c-112 0 -166 71 -153 163l27 192c13 95 87 167 205 167c97 0 142 -52 142 -133c0 -104 -54 -172 -188 -172c-33 0 -74 3 -112 11l-10 -71c-8 -61 27 -102 107 -102zM382 375
c0 58 -32 83 -89 83c-72 0 -119 -40 -128 -102l-12 -85c42 -6 95 -8 116 -8c84 0 113 45 113 112z" />
    <glyph glyph-name="uni0436" unicode="&#x436;" horiz-adv-x="608" 
d="M345 25c-3 -18 -20 -32 -37 -32c-19 0 -31 14 -28 32l30 211h-50l-172 -228c-9 -9 -20 -15 -30 -15c-16 0 -27 9 -27 24c0 5 4 15 8 21l161 213l-103 218c-2 3 -1 10 0 15c3 17 17 27 34 27c10 0 20 -5 25 -16l98 -206h63l27 190c2 18 18 33 37 33c17 0 30 -15 28 -33
l-27 -190h62l157 206c8 11 19 16 29 16c18 0 29 -10 27 -27h-1c-1 -7 -3 -15 -6 -19l-161 -214l101 -213c2 -4 2 -13 1 -19h1c-3 -16 -17 -26 -35 -26c-11 0 -20 6 -24 15l-108 228h-50z" />
    <glyph glyph-name="uni0437" unicode="&#x437;" horiz-adv-x="408" 
d="M407 395c0 -68 -29 -122 -111 -136v-1c62 -11 89 -49 89 -104c0 -96 -64 -161 -190 -161c-51 0 -145 10 -145 49c0 13 11 32 38 32c2 0 3 -1 4 -1c25 -12 64 -25 114 -25c74 0 116 31 116 103c0 30 -17 72 -117 78c-18 1 -39 3 -39 24c0 27 23 28 45 30
c108 10 134 65 134 110c0 43 -28 67 -91 67c-51 0 -83 -24 -109 -24c-16 0 -25 11 -25 25c0 41 90 54 144 54c97 0 143 -49 143 -120z" />
    <glyph glyph-name="uni0438" unicode="&#x438;" horiz-adv-x="509" 
d="M383 120l51 360c3 18 15 32 37 32c21 0 31 -14 28 -32l-51 -360c-7 -50 -3 -58 2 -65c5 -6 11 -17 11 -26c0 -16 -16 -30 -34 -30c-17 0 -28 13 -38 33c-52 -28 -107 -39 -154 -39c-104 0 -146 75 -130 186l42 301c3 18 16 32 37 32s30 -14 28 -32l-42 -301
c-12 -82 17 -130 84 -130c42 0 86 14 127 38c0 10 0 20 2 33z" />
    <glyph glyph-name="uni0439" unicode="&#x439;" horiz-adv-x="509" 
d="M344 632c24 0 52 13 79 45c8 10 18 14 27 14c13 0 23 -8 14 -29c-21 -50 -82 -77 -126 -77c-43 0 -105 26 -108 77c-1 18 15 29 26 29c9 0 17 -4 22 -14c19 -32 39 -45 66 -45zM383 120l51 360c3 18 15 32 37 32c21 0 31 -14 28 -32l-51 -360c-7 -50 -3 -58 2 -65
c5 -6 11 -17 11 -26c0 -16 -16 -30 -34 -30c-17 0 -28 13 -38 33c-52 -28 -107 -39 -154 -39c-104 0 -146 75 -130 186l42 301c3 18 16 32 37 32s30 -14 28 -32l-42 -301c-12 -82 17 -130 84 -130c42 0 86 14 127 38c0 10 0 20 2 33z" />
    <glyph glyph-name="uni043A" unicode="&#x43a;" horiz-adv-x="436" 
d="M148 25c-3 -18 -20 -32 -37 -32c-19 0 -31 14 -28 32l63 454c3 18 19 33 38 33c17 0 30 -15 27 -33l-26 -190h75l165 206c9 11 18 16 29 16c15 0 26 -9 26 -23c0 -8 -3 -17 -8 -23l-174 -214l114 -213c2 -3 4 -12 4 -17c0 -17 -17 -28 -35 -28c-12 0 -20 5 -25 15
l-118 228h-61z" />
    <glyph glyph-name="uni043B" unicode="&#x43b;" horiz-adv-x="524" 
d="M456 25c-2 -18 -18 -32 -36 -32c-19 0 -31 14 -29 32l61 428h-177l-65 -291c-22 -100 -64 -166 -140 -166c-26 0 -52 1 -52 24c0 24 18 36 36 36h6c2 0 3 -1 7 -1c41 0 65 32 80 99l71 318c7 25 25 34 37 34h237c18 0 30 -15 27 -33z" />
    <glyph glyph-name="uni043C" unicode="&#x43c;" horiz-adv-x="640" 
d="M337 87h-2c-14 0 -24 8 -29 20l-112 268l-49 -350c-3 -18 -19 -32 -37 -32c-17 0 -29 14 -26 32l63 451c3 21 20 36 41 36c15 0 24 -10 31 -23l130 -322l222 322c10 13 22 23 37 23c20 0 33 -15 30 -36l-63 -451c-3 -18 -19 -32 -36 -32c-18 0 -31 14 -28 32l49 350
l-186 -268c-9 -12 -22 -20 -35 -20z" />
    <glyph glyph-name="uni043D" unicode="&#x43d;" horiz-adv-x="514" 
d="M147 25c-3 -18 -19 -32 -37 -32s-31 14 -28 32l63 454c3 18 20 33 38 33s30 -15 27 -33l-26 -190h234l26 190c3 18 20 33 38 33s30 -15 27 -33l-63 -454c-3 -18 -19 -32 -37 -32s-31 14 -28 32l29 211h-234z" />
    <glyph glyph-name="uni043E" unicode="&#x43e;" horiz-adv-x="465" 
d="M234 -7c-120 0 -174 76 -160 175l24 172c14 99 90 176 210 176c121 0 174 -77 160 -176l-24 -172c-14 -99 -89 -175 -210 -175zM243 52c80 0 126 44 136 116l24 173c10 72 -23 117 -103 117c-79 0 -127 -45 -137 -117l-24 -173c-10 -72 25 -116 104 -116z" />
    <glyph glyph-name="uni043F" unicode="&#x43f;" horiz-adv-x="504" 
d="M147 25c-3 -18 -19 -32 -36 -32c-19 0 -31 14 -28 32l62 448c3 18 19 33 38 33h288c18 0 30 -15 27 -33l-62 -448c-3 -18 -19 -32 -37 -32s-31 14 -28 32l60 428h-224z" />
    <glyph glyph-name="uni0440" unicode="&#x440;" horiz-adv-x="478" 
d="M269 -6c-36 0 -79 8 -119 21l-28 -199c-2 -17 -16 -31 -36 -31c-22 0 -31 14 -29 31l79 557c5 35 3 56 -8 76c-2 4 -4 9 -4 14c0 18 18 32 34 32c13 0 25 -12 34 -28c54 27 109 48 160 48c103 0 144 -76 128 -187l-18 -134c-17 -118 -68 -200 -193 -200zM201 373
l-43 -301c34 -16 81 -24 109 -24c80 0 115 45 130 146l18 134c12 85 -15 131 -88 131c-36 0 -82 -16 -125 -40c1 -15 1 -30 -1 -46z" />
    <glyph glyph-name="uni0441" unicode="&#x441;" horiz-adv-x="390" 
d="M74 174l22 156c15 102 80 182 204 182c43 0 127 -11 127 -52c0 -16 -14 -30 -31 -30c-6 0 -10 1 -14 2h1c-24 13 -46 25 -83 25c-87 0 -127 -47 -139 -127l-22 -156c-11 -79 17 -126 104 -126c39 0 63 12 89 24h-1c7 2 11 3 15 3c14 0 24 -11 24 -25
c0 -44 -96 -57 -143 -57c-124 0 -167 79 -153 181z" />
    <glyph glyph-name="uni0442" unicode="&#x442;" horiz-adv-x="778" 
d="M191 466c52 31 106 49 159 49s88 -20 111 -56c50 35 103 56 158 56c106 0 154 -68 140 -168l-36 -257c-4 -23 -1 -39 9 -54c1 -2 2 -8 2 -12c0 -17 -14 -31 -33 -31c-22 0 -55 11 -43 97l36 255c8 62 -17 112 -86 112c-47 0 -97 -26 -129 -60c1 -15 0 -31 -2 -50
l-45 -322c-3 -18 -15 -31 -37 -31s-31 13 -28 31l42 299c11 78 5 133 -75 133c-46 0 -98 -22 -133 -46c0 -12 0 -23 -2 -36l-49 -350c-3 -18 -16 -31 -37 -31c-22 0 -31 13 -28 31l49 350c5 35 3 56 -8 76c-2 4 -3 9 -3 14c0 18 17 32 33 32c13 0 27 -9 35 -31z" />
    <glyph glyph-name="uni0443" unicode="&#x443;" horiz-adv-x="509" 
d="M93 173l44 307c2 18 16 32 37 32s30 -14 28 -32l-44 -307c-11 -77 13 -125 92 -125c45 0 91 16 130 52l53 380c3 18 16 32 38 32c21 0 30 -14 27 -32l-74 -528c-14 -102 -79 -182 -201 -182c-46 0 -129 12 -129 52c0 15 15 31 31 31c4 0 9 -1 15 -3h-1
c22 -13 44 -24 83 -24c86 0 126 46 137 126l12 85c-46 -27 -94 -43 -145 -43c-120 0 -147 77 -133 179z" />
    <glyph glyph-name="uni0444" unicode="&#x444;" horiz-adv-x="585" 
d="M236 -189l25 182c-140 0 -199 98 -181 227l11 78c18 124 104 217 244 217l26 185c2 17 19 33 37 33s30 -15 28 -33l-26 -185c143 0 203 -93 185 -217l-11 -78c-18 -129 -105 -227 -246 -227l-27 -182c-3 -17 -19 -32 -37 -32s-31 15 -28 32zM402 457h-11l-56 -405
c101 0 160 64 174 168l11 79c14 97 -25 158 -118 158zM270 52l56 405c-99 0 -156 -61 -170 -158l-11 -79c-14 -104 26 -168 125 -168z" />
    <glyph glyph-name="uni0445" unicode="&#x445;" horiz-adv-x="431" 
d="M220 259l-109 207c-2 2 -2 5 -2 9c0 22 21 37 36 37c16 0 22 -9 29 -23l90 -178l140 178c11 14 19 23 35 23c13 0 27 -12 27 -28c0 -9 -2 -15 -7 -18l-167 -207l117 -219c1 -2 2 -7 2 -11c0 -19 -17 -36 -38 -36c-16 0 -22 7 -30 23l-96 189l-156 -196
c-9 -11 -17 -16 -28 -16c-18 0 -30 11 -30 28c0 9 2 12 6 17z" />
    <glyph glyph-name="uni0446" unicode="&#x446;" horiz-adv-x="531" 
d="M254 49c42 0 89 16 133 41c-4 21 -2 45 1 69l45 321c3 18 16 32 37 32c22 0 30 -14 28 -32l-45 -321c-10 -72 6 -110 46 -110c18 0 31 -14 28 -33l-19 -131c-2 -18 -18 -32 -36 -32s-31 14 -29 32l17 119c-20 4 -39 18 -57 38c-52 -33 -116 -49 -168 -49
c-105 0 -146 75 -130 186l42 301c3 18 15 32 37 32c20 0 30 -14 28 -32l-42 -301c-12 -82 17 -130 84 -130z" />
    <glyph glyph-name="uni0447" unicode="&#x447;" horiz-adv-x="468" 
d="M182 479l-20 -145c-7 -46 0 -92 86 -92c22 0 73 6 117 16l31 221c3 18 20 33 38 33s30 -15 27 -33l-64 -454c-2 -18 -18 -32 -36 -32s-31 14 -29 32l26 180c-42 -10 -83 -15 -115 -15c-117 0 -159 54 -146 144l20 145c3 18 20 33 38 33s30 -15 27 -33z" />
    <glyph glyph-name="uni0448" unicode="&#x448;" horiz-adv-x="772" 
d="M208 480l-45 -321c-9 -62 19 -111 87 -111c47 0 97 26 129 58c-2 18 0 34 2 51l45 323c3 18 16 32 38 32c20 0 30 -14 27 -32l-42 -300c-11 -77 -5 -132 75 -132c46 0 95 20 130 43l54 389c3 18 16 32 38 32c21 0 30 -14 27 -32l-52 -370c-4 -31 4 -46 21 -67
c2 -2 2 -5 2 -9c0 -21 -17 -34 -32 -34c-22 0 -37 14 -47 35c-51 -28 -105 -45 -157 -45c-56 0 -88 18 -109 53c-52 -33 -104 -53 -160 -53c-106 0 -155 68 -141 167l45 323c3 18 17 32 38 32s30 -14 27 -32z" />
    <glyph glyph-name="uni0449" unicode="&#x449;" horiz-adv-x="805" 
d="M208 480l-45 -321c-9 -62 19 -111 87 -111c47 0 99 22 129 51c-2 20 -2 39 1 58l45 323c3 18 16 32 38 32c21 0 30 -14 27 -32l-42 -300c-11 -77 -5 -132 76 -132c49 0 102 21 137 46c-2 21 -1 43 2 65l45 321c3 18 16 32 38 32c21 0 29 -14 26 -32l-45 -321
c-10 -72 7 -110 47 -110c18 0 30 -14 27 -33l-18 -131c-3 -18 -19 -32 -37 -32s-31 14 -28 32l16 119c-23 5 -42 20 -57 39c-52 -33 -112 -53 -169 -53c-56 0 -88 18 -110 53c-51 -33 -104 -53 -159 -53c-106 0 -155 68 -141 167l45 323c3 18 16 32 38 32
c20 0 30 -14 27 -32z" />
    <glyph glyph-name="uni044A" unicode="&#x44a;" horiz-adv-x="528" 
d="M317 -7c-119 0 -168 76 -154 175l39 281h-96c-14 0 -25 11 -25 25c0 18 17 32 33 32h129c18 0 30 -15 28 -33l-27 -191c39 24 80 37 119 37c114 0 169 -73 155 -166c-14 -91 -89 -160 -201 -160zM348 261c-76 0 -122 -34 -122 -114c0 -59 32 -95 100 -95
c79 0 128 48 128 122c0 53 -33 87 -106 87z" />
    <glyph glyph-name="uni044B" unicode="&#x44b;" horiz-adv-x="654" 
d="M588 25c-3 -18 -19 -32 -37 -32s-30 14 -27 32l64 454c2 18 18 33 36 33s30 -15 28 -33zM211 479l-28 -197c39 24 81 37 119 37c114 0 169 -73 155 -166c-14 -91 -89 -160 -201 -160c-119 0 -168 76 -154 175l44 311c2 18 19 33 37 33s30 -15 28 -33zM288 261
c-75 0 -123 -34 -123 -113c0 -60 33 -96 100 -96c79 0 128 48 128 122c0 53 -33 87 -105 87z" />
    <glyph glyph-name="uni044C" unicode="&#x44c;" horiz-adv-x="472" 
d="M211 479l-28 -197c39 24 81 37 119 37c114 0 169 -73 155 -166c-14 -91 -89 -160 -201 -160c-119 0 -168 76 -154 175l44 311c2 18 19 33 37 33s30 -15 28 -33zM288 261c-75 0 -123 -34 -123 -113c0 -60 33 -96 100 -96c79 0 128 48 128 122c0 53 -33 87 -105 87z" />
    <glyph glyph-name="uni044D" unicode="&#x44d;" horiz-adv-x="393" 
d="M314 227h-165c-16 0 -27 11 -27 25c0 17 16 31 34 31h165l5 36c13 87 -11 138 -90 138c-41 0 -70 -13 -101 -25h1c-4 -1 -8 -2 -14 -2c-14 0 -24 11 -24 24c0 45 103 58 155 58c115 0 153 -84 137 -193l-18 -135c-16 -108 -77 -191 -192 -191c-49 0 -140 11 -140 51
c0 16 16 31 32 31c4 0 8 -1 14 -3h-1c26 -12 50 -24 93 -24c79 0 118 51 130 136z" />
    <glyph glyph-name="uni044E" unicode="&#x44e;" horiz-adv-x="681" 
d="M146 25c-3 -18 -20 -32 -37 -32c-19 0 -31 14 -28 32l63 454c3 18 19 33 38 33c17 0 30 -15 27 -33l-26 -190h129l7 50c14 99 89 176 209 176c121 0 175 -77 161 -176l-24 -171c-14 -99 -89 -175 -210 -175c-120 0 -174 76 -160 175l9 68h-129zM463 52
c80 0 127 44 137 116l24 172c10 72 -24 117 -104 117c-79 0 -126 -45 -136 -117l-24 -172c-10 -72 24 -116 103 -116z" />
    <glyph glyph-name="uni044F" unicode="&#x44f;" horiz-adv-x="487" 
d="M381 -7c-19 0 -31 14 -28 32l26 188h-101c-51 -65 -110 -141 -164 -205c-8 -9 -19 -15 -29 -15c-16 0 -27 9 -27 24c0 4 4 17 8 21l145 178c-72 16 -103 59 -103 122c0 98 65 168 187 168h159c17 0 29 -15 27 -33l-63 -448c-3 -18 -20 -32 -37 -32zM172 343
c0 -39 20 -77 103 -77h112l26 186h-124c-75 0 -117 -36 -117 -109z" />
    <glyph glyph-name="uni0450" unicode="&#x450;" horiz-adv-x="433" 
d="M243 48c46 0 76 13 114 29c2 1 7 3 11 3c15 0 25 -12 25 -25c0 -47 -113 -62 -168 -62c-112 0 -166 71 -153 163l27 192c13 95 87 167 205 167c97 0 142 -52 142 -133c0 -104 -54 -172 -188 -172c-33 0 -74 3 -112 11l-10 -71c-8 -61 27 -102 107 -102zM382 375
c0 58 -32 83 -89 83c-72 0 -119 -40 -128 -102l-12 -85c42 -6 95 -8 116 -8c84 0 113 45 113 112zM276 716l73 -91c2 -2 3 -6 3 -8c0 -16 -16 -30 -30 -30c-11 0 -18 6 -26 16l-68 88c-2 3 -3 7 -3 10c0 15 16 29 28 29c11 0 15 -6 23 -14z" />
    <glyph glyph-name="uni0451" unicode="&#x451;" horiz-adv-x="433" 
d="M243 48c46 0 76 13 114 29c2 1 7 3 11 3c15 0 25 -12 25 -25c0 -47 -113 -62 -168 -62c-112 0 -166 71 -153 163l27 192c13 95 87 167 205 167c97 0 142 -52 142 -133c0 -104 -54 -172 -188 -172c-33 0 -74 3 -112 11l-10 -71c-8 -61 27 -102 107 -102zM382 375
c0 58 -32 83 -89 83c-72 0 -119 -40 -128 -102l-12 -85c42 -6 95 -8 116 -8c84 0 113 45 113 112zM457 651c0 -26 -22 -47 -46 -47c-20 0 -37 17 -37 37c0 24 25 46 49 46c20 0 34 -17 34 -36zM284 651c0 -26 -22 -47 -47 -47c-20 0 -35 17 -35 37c0 23 23 46 47 46
c21 0 35 -17 35 -36z" />
    <glyph glyph-name="uni0452" unicode="&#x452;" horiz-adv-x="582" 
d="M447 14l40 285c11 83 -11 126 -80 126c-43 0 -96 -21 -136 -66l-47 -334c-2 -18 -18 -32 -35 -32c-19 0 -31 14 -29 32l79 563h-97c-16 0 -27 11 -27 26c0 18 16 34 36 34h97l8 58c2 16 17 33 36 33c17 0 30 -14 28 -33l-8 -58h95c15 0 25 -12 25 -27
c0 -18 -15 -33 -34 -33h-95l-22 -156c47 33 98 52 145 52c105 0 141 -76 126 -184l-40 -281c-18 -128 -82 -211 -170 -227c-8 -2 -12 0 -19 0c-12 0 -22 8 -23 20c-2 23 19 33 33 36c60 18 99 62 114 166z" />
    <glyph glyph-name="uni0453" unicode="&#x453;" horiz-adv-x="406" 
d="M409 394c0 73 -47 121 -141 121c-52 0 -136 -13 -136 -54c0 -14 10 -25 25 -25c6 0 11 2 16 4c25 11 46 20 85 20c61 0 88 -24 88 -68c0 -42 -12 -63 -65 -88c-91 -43 -212 -50 -212 -190c0 -75 49 -121 147 -121c53 0 152 10 152 54c0 14 -9 27 -27 27c-2 0 -3 0 -6 -1
c-32 -12 -66 -25 -111 -25c-56 0 -92 22 -92 71c0 50 25 73 53 86c89 43 224 50 224 189zM269 625l99 91c7 6 15 14 25 14c13 0 22 -12 22 -24c0 -5 -2 -12 -5 -15l-94 -87c-11 -10 -19 -17 -30 -17c-13 0 -23 11 -23 25c0 7 2 9 6 13z" />
    <glyph glyph-name="uni0454" unicode="&#x454;" horiz-adv-x="390" 
d="M313 227h-166l-6 -43c-12 -85 12 -136 92 -136c43 0 71 12 99 24h-1c8 2 12 3 16 3c14 0 23 -11 23 -25c0 -44 -103 -57 -154 -57c-116 0 -155 83 -140 191l19 135c15 109 78 193 194 193c48 0 139 -11 139 -52c0 -16 -15 -30 -31 -30c-6 0 -10 1 -15 2h1
c-26 12 -51 25 -92 25c-80 0 -119 -51 -131 -138l-5 -36h166c16 0 25 -10 25 -24c0 -18 -14 -32 -33 -32z" />
    <glyph glyph-name="uni0455" unicode="&#x455;" horiz-adv-x="416" 
d="M110 356c0 93 64 159 180 159c50 0 123 -11 123 -47c0 -17 -15 -32 -34 -32c-6 0 -9 2 -14 4c-22 11 -40 20 -79 20c-77 0 -112 -34 -112 -93c0 -28 13 -46 44 -63c68 -37 165 -48 165 -149c0 -98 -65 -162 -187 -162c-49 0 -138 10 -138 48c0 16 15 33 35 33
c2 0 3 0 6 -1c28 -12 60 -25 105 -25c68 0 115 29 115 97c0 33 -14 50 -32 60c-68 37 -177 48 -177 151z" />
    <glyph glyph-name="uni0456" unicode="&#x456;" horiz-adv-x="245" 
d="M262 686c0 -25 -24 -46 -48 -46c-22 0 -36 17 -36 36c0 26 22 47 48 47c20 0 36 -16 36 -37zM104 90l55 389c2 18 18 33 37 33c17 0 30 -15 28 -33l-55 -389c-3 -23 0 -38 9 -54c1 -2 3 -8 3 -12c0 -17 -15 -31 -34 -31c-22 0 -55 11 -43 97z" />
    <glyph glyph-name="uni0457" unicode="&#x457;" horiz-adv-x="245" 
d="M159 25c-2 -18 -19 -32 -36 -32c-19 0 -31 14 -29 32l64 454c3 18 19 33 38 33c17 0 30 -15 27 -33zM356 636c0 -29 -26 -53 -53 -53c-24 0 -42 19 -42 43c0 26 27 51 55 51c23 0 40 -18 40 -41zM162 636c0 -29 -25 -53 -53 -53c-24 0 -40 19 -40 42c0 27 25 52 53 52
c24 0 40 -18 40 -41z" />
    <glyph glyph-name="uni0458" unicode="&#x458;" horiz-adv-x="245" 
d="M238 479l-71 -502c-14 -101 -78 -171 -165 -185c-8 -1 -12 0 -18 0c-12 0 -23 8 -24 20c-2 23 17 32 30 35c62 13 100 46 111 126l72 506c2 18 18 33 37 33c17 0 30 -15 28 -33zM275 686c0 -25 -23 -46 -47 -46c-22 0 -37 17 -37 37c0 25 23 46 49 46c20 0 35 -16 35 -37
z" />
    <glyph glyph-name="uni0459" unicode="&#x459;" horiz-adv-x="737" 
d="M475 506c17 0 30 -15 27 -33l-25 -179h92c111 0 159 -45 159 -124c0 -99 -64 -169 -186 -169h-138c-19 0 -31 14 -28 32l59 420h-157l-65 -291c-22 -100 -64 -166 -140 -166c-26 0 -52 1 -52 24c0 24 19 36 36 36h6c2 0 3 -1 7 -1c42 0 65 32 80 99l71 318
c7 25 25 34 37 34h217zM562 241h-92l-26 -186h104c76 0 115 35 115 108c0 40 -20 78 -101 78z" />
    <glyph glyph-name="uni045A" unicode="&#x45a;" horiz-adv-x="722" 
d="M146 25c-3 -18 -20 -32 -37 -32c-19 0 -31 14 -28 32l63 454c3 18 19 33 38 33c17 0 30 -15 27 -33l-26 -190h213l26 190c3 18 19 33 38 33c17 0 30 -15 27 -33l-26 -190h93c110 0 157 -44 157 -121c0 -97 -63 -167 -185 -167h-138c-19 0 -31 14 -28 32l28 203h-213z
M546 236h-93l-25 -181h104c77 0 115 35 115 107c0 38 -20 74 -101 74z" />
    <glyph glyph-name="uni045B" unicode="&#x45b;" horiz-adv-x="582" 
d="M432 621c0 -18 -15 -33 -34 -33h-95l-22 -156c47 33 98 52 145 52c105 0 142 -68 129 -163l-42 -296c-2 -18 -18 -32 -36 -32s-31 14 -29 32l41 294c10 70 -13 106 -82 106c-43 0 -96 -21 -136 -66l-47 -334c-2 -18 -18 -32 -35 -32c-19 0 -31 14 -29 32l79 563h-97
c-16 0 -27 11 -27 26c0 18 16 34 36 34h97l8 58c2 16 17 33 36 33c17 0 30 -14 28 -33l-8 -58h95c15 0 25 -12 25 -27z" />
    <glyph glyph-name="uni045C" unicode="&#x45c;" horiz-adv-x="436" 
d="M148 25c-3 -18 -20 -32 -37 -32c-19 0 -31 14 -28 32l63 454c3 18 19 33 38 33c17 0 30 -15 27 -33l-26 -190h75l165 206c9 11 18 16 29 16c15 0 26 -9 26 -23c0 -8 -3 -17 -8 -23l-174 -214l114 -213c2 -3 4 -12 4 -17c0 -17 -17 -28 -35 -28c-12 0 -20 5 -25 15
l-118 228h-61zM308 625l99 91c7 6 15 14 25 14c13 0 22 -12 22 -24c0 -5 -2 -12 -5 -15l-94 -87c-11 -10 -19 -17 -30 -17c-13 0 -23 11 -23 25c0 7 2 9 6 13z" />
    <glyph glyph-name="uni045D" unicode="&#x45d;" horiz-adv-x="509" 
d="M305 716l73 -91c2 -2 3 -6 3 -8c0 -16 -16 -30 -30 -30c-11 0 -18 6 -26 16l-68 88c-2 3 -3 7 -3 10c0 15 16 29 28 29c11 0 15 -6 23 -14zM383 120l51 360c3 18 15 32 37 32c21 0 31 -14 28 -32l-51 -360c-7 -50 -3 -58 2 -65c5 -6 11 -17 11 -26c0 -16 -16 -30 -34 -30
c-17 0 -28 13 -38 33c-52 -28 -107 -39 -154 -39c-104 0 -146 75 -130 186l42 301c3 18 16 32 37 32s30 -14 28 -32l-42 -301c-12 -82 17 -130 84 -130c42 0 86 14 127 38c0 10 0 20 2 33z" />
    <glyph glyph-name="uni045E" unicode="&#x45e;" horiz-adv-x="509" 
d="M93 173l44 307c2 18 16 32 37 32s30 -14 28 -32l-44 -307c-11 -77 13 -125 92 -125c45 0 91 16 130 52l53 380c3 18 16 32 38 32c21 0 30 -14 27 -32l-74 -528c-14 -102 -79 -182 -201 -182c-46 0 -129 12 -129 52c0 15 15 31 31 31c4 0 9 -1 15 -3h-1
c22 -13 44 -24 83 -24c86 0 126 46 137 126l12 85c-46 -27 -94 -43 -145 -43c-120 0 -147 77 -133 179zM344 632c24 0 52 13 79 45c8 10 18 14 27 14c13 0 23 -8 14 -29c-21 -50 -82 -77 -126 -77c-43 0 -105 26 -108 77c-1 18 15 29 26 29c9 0 17 -4 22 -14
c19 -32 39 -45 66 -45z" />
    <glyph glyph-name="uni045F" unicode="&#x45f;" horiz-adv-x="504" 
d="M272 -111c-2 -18 -19 -32 -36 -32c-19 0 -31 14 -29 32l16 112h-111c-19 0 -31 14 -28 32l62 448c3 19 19 33 38 33c17 0 29 -14 26 -33l-60 -427h224l60 427c3 19 20 33 38 33s30 -14 27 -33l-62 -448c-3 -18 -19 -32 -37 -32h-112z" />
    <glyph glyph-name="uni0462" unicode="&#x462;" horiz-adv-x="644" 
d="M544 627c0 -19 -19 -35 -38 -35h-188l-24 -171h125c121 0 196 -64 196 -177c0 -118 -67 -243 -255 -243h-150c-22 0 -40 18 -36 41l77 550h-105c-18 0 -30 13 -30 27c0 18 20 37 39 37h105l11 78c2 17 21 33 39 33s30 -16 28 -33l-11 -78h188c16 0 29 -12 29 -29zM244 65
h125c155 0 179 103 179 173c0 80 -47 119 -138 119h-125z" />
    <glyph glyph-name="uni0463" unicode="&#x463;" horiz-adv-x="582" 
d="M424 570c0 -19 -14 -33 -33 -33h-94l-27 -192h113c109 0 155 -51 155 -137c0 -119 -63 -207 -190 -207h-158c-19 0 -31 14 -29 32l71 504h-97c-16 0 -27 11 -27 26c0 18 16 34 36 34h97l13 99c3 18 19 33 38 33c17 0 30 -15 27 -33l-13 -99h94c15 0 24 -13 24 -27z
M376 293h-113l-34 -238h124c79 0 121 52 121 146c0 47 -20 92 -98 92z" />
    <glyph glyph-name="uni0490" unicode="&#x490;" horiz-adv-x="430" 
d="M173 668c3 20 21 39 44 39h243l14 100c3 18 20 34 39 34c18 0 30 -16 27 -34l-18 -133c-3 -17 -19 -31 -36 -31h-251l-86 -618c-3 -18 -19 -33 -37 -33c-19 0 -32 15 -29 33z" />
    <glyph glyph-name="uni0491" unicode="&#x491;" horiz-adv-x="375" 
d="M379 506l15 107c3 19 19 33 38 33c17 0 30 -14 27 -33l-18 -132c-3 -17 -20 -32 -37 -32h-197l-59 -424c-3 -18 -20 -32 -37 -32c-19 0 -31 14 -28 32l63 452c2 17 17 29 34 29h199z" />
    <glyph glyph-name="Wgrave" unicode="&#x1e80;" horiz-adv-x="776" 
d="M522 33l-47 554c-61 -167 -144 -389 -204 -555c-9 -18 -25 -41 -53 -41c-25 0 -38 18 -42 41l-62 648l1 4c2 18 24 28 42 28c12 0 24 -10 27 -24l53 -578l202 552c13 33 26 54 54 54c27 0 35 -22 37 -54l50 -553l214 579c7 14 18 24 30 24c17 0 38 -8 38 -26
c0 -3 -1 -9 -3 -12v-1l-242 -641c-9 -21 -28 -41 -53 -41c-26 0 -39 21 -42 42zM497 916l73 -91c2 -2 3 -6 3 -8c0 -16 -16 -30 -30 -30c-11 0 -18 6 -26 16l-68 88c-2 3 -3 7 -3 10c0 15 16 29 28 29c11 0 15 -6 23 -14z" />
    <glyph glyph-name="wgrave" unicode="&#x1e81;" horiz-adv-x="655" 
d="M703 477l-182 -444c-11 -26 -23 -40 -49 -40c-17 0 -33 11 -36 29l-45 389c-45 -117 -104 -273 -154 -389c-8 -18 -24 -29 -45 -29c-23 0 -36 16 -39 40l-58 446v2c3 16 19 31 38 31c12 0 23 -10 26 -23l47 -403c59 142 108 272 156 395c8 17 23 31 44 31
c19 0 30 -14 32 -31c10 -98 22 -200 47 -395l158 403c5 13 21 23 34 23c17 0 29 -14 26 -33v-2zM409 716l73 -91c2 -2 3 -6 3 -8c0 -16 -16 -30 -30 -30c-11 0 -18 6 -26 16l-68 88c-2 3 -3 7 -3 10c0 15 16 29 28 29c11 0 15 -6 23 -14z" />
    <glyph glyph-name="Wacute" unicode="&#x1e82;" horiz-adv-x="776" 
d="M522 33l-47 554c-61 -167 -144 -389 -204 -555c-9 -18 -25 -41 -53 -41c-25 0 -38 18 -42 41l-62 648l1 4c2 18 24 28 42 28c12 0 24 -10 27 -24l53 -578l202 552c13 33 26 54 54 54c27 0 35 -22 37 -54l50 -553l214 579c7 14 18 24 30 24c17 0 38 -8 38 -26
c0 -3 -1 -9 -3 -12v-1l-242 -641c-9 -21 -28 -41 -53 -41c-26 0 -39 21 -42 42zM439 825l99 91c7 6 15 14 25 14c13 0 22 -12 22 -24c0 -5 -2 -12 -5 -15l-94 -87c-11 -10 -19 -17 -30 -17c-13 0 -23 11 -23 25c0 7 2 9 6 13z" />
    <glyph glyph-name="wacute" unicode="&#x1e83;" horiz-adv-x="655" 
d="M703 477l-182 -444c-11 -26 -23 -40 -49 -40c-17 0 -33 11 -36 29l-45 389c-45 -117 -104 -273 -154 -389c-8 -18 -24 -29 -45 -29c-23 0 -36 16 -39 40l-58 446v2c3 16 19 31 38 31c12 0 23 -10 26 -23l47 -403c59 142 108 272 156 395c8 17 23 31 44 31
c19 0 30 -14 32 -31c10 -98 22 -200 47 -395l158 403c5 13 21 23 34 23c17 0 29 -14 26 -33v-2zM351 625l99 91c7 6 15 14 25 14c13 0 22 -12 22 -24c0 -5 -2 -12 -5 -15l-94 -87c-11 -10 -19 -17 -30 -17c-13 0 -23 11 -23 25c0 7 2 9 6 13z" />
    <glyph glyph-name="Wdieresis" unicode="&#x1e84;" horiz-adv-x="776" 
d="M522 33l-47 554c-61 -167 -144 -389 -204 -555c-9 -18 -25 -41 -53 -41c-25 0 -38 18 -42 41l-62 648l1 4c2 18 24 28 42 28c12 0 24 -10 27 -24l53 -578l202 552c13 33 26 54 54 54c27 0 35 -22 37 -54l50 -553l214 579c7 14 18 24 30 24c17 0 38 -8 38 -26
c0 -3 -1 -9 -3 -12v-1l-242 -641c-9 -21 -28 -41 -53 -41c-26 0 -39 21 -42 42zM635 851c0 -26 -22 -47 -46 -47c-20 0 -37 17 -37 37c0 24 25 46 49 46c20 0 34 -17 34 -36zM462 851c0 -26 -22 -47 -47 -47c-20 0 -35 17 -35 37c0 23 23 46 47 46c21 0 35 -17 35 -36z" />
    <glyph glyph-name="wdieresis" unicode="&#x1e85;" horiz-adv-x="655" 
d="M703 477l-182 -444c-11 -26 -23 -40 -49 -40c-17 0 -33 11 -36 29l-45 389c-45 -117 -104 -273 -154 -389c-8 -18 -24 -29 -45 -29c-23 0 -36 16 -39 40l-58 446v2c3 16 19 31 38 31c12 0 23 -10 26 -23l47 -403c59 142 108 272 156 395c8 17 23 31 44 31
c19 0 30 -14 32 -31c10 -98 22 -200 47 -395l158 403c5 13 21 23 34 23c17 0 29 -14 26 -33v-2zM547 651c0 -26 -22 -47 -46 -47c-20 0 -37 17 -37 37c0 24 25 46 49 46c20 0 34 -17 34 -36zM374 651c0 -26 -22 -47 -47 -47c-20 0 -35 17 -35 37c0 23 23 46 47 46
c21 0 35 -17 35 -36z" />
    <glyph glyph-name="Ygrave" unicode="&#x1ef2;" horiz-adv-x="476" 
d="M240 -9c-20 0 -33 15 -30 35l36 253l-128 386c-1 4 -2 10 -2 14c0 19 21 37 40 37c9 0 18 -4 22 -13v1l113 -351l210 351v-1c6 9 17 13 27 13c16 0 29 -14 29 -30c0 -7 -4 -16 -6 -21l-238 -390l-35 -249c-3 -19 -19 -35 -38 -35zM318 916l73 -91c2 -2 3 -6 3 -8
c0 -16 -16 -30 -30 -30c-11 0 -18 6 -26 16l-68 88c-2 3 -3 7 -3 10c0 15 16 29 28 29c11 0 15 -6 23 -14z" />
    <glyph glyph-name="ygrave" unicode="&#x1ef3;" horiz-adv-x="509" 
d="M93 173l44 307c2 18 16 32 37 32s30 -14 28 -32l-44 -307c-11 -77 13 -125 92 -125c45 0 91 16 130 52l53 380c3 18 16 32 38 32c21 0 30 -14 27 -32l-74 -528c-14 -102 -79 -182 -201 -182c-46 0 -129 12 -129 52c0 15 15 31 31 31c4 0 9 -1 15 -3h-1
c22 -13 44 -24 83 -24c86 0 126 46 137 126l12 85c-46 -27 -94 -43 -145 -43c-120 0 -147 77 -133 179zM309 716l73 -91c2 -2 3 -6 3 -8c0 -16 -16 -30 -30 -30c-11 0 -18 6 -26 16l-68 88c-2 3 -3 7 -3 10c0 15 16 29 28 29c11 0 15 -6 23 -14z" />
    <glyph glyph-name="endash" unicode="&#x2013;" horiz-adv-x="431" 
d="M430 286c0 -16 -13 -29 -30 -29h-286c-17 0 -30 13 -30 29s13 31 30 31h286c17 0 30 -15 30 -31z" />
    <glyph glyph-name="emdash" unicode="&#x2014;" horiz-adv-x="530" 
d="M532 286c0 -16 -14 -29 -30 -29h-388c-18 0 -31 13 -31 29s13 31 31 31h388c16 0 30 -15 30 -31z" />
    <glyph glyph-name="quoteleft" unicode="&#x2018;" horiz-adv-x="230" 
d="M147 561c0 57 66 165 94 165c5 0 10 -2 10 -8c0 -15 -9 -28 -23 -46c-9 -12 -16 -20 -30 -56c27 -3 44 -20 44 -44c0 -29 -24 -52 -54 -52c-23 0 -41 18 -41 41z" />
    <glyph glyph-name="quoteright" unicode="&#x2019;" horiz-adv-x="230" 
d="M258 685c0 -58 -66 -165 -92 -165c-6 0 -12 2 -12 8c0 14 11 27 24 45c9 12 16 21 30 56c-26 3 -45 22 -45 45c0 28 27 52 55 52c24 0 40 -18 40 -41z" />
    <glyph glyph-name="quotesinglbase" unicode="&#x201a;" horiz-adv-x="230" 
d="M168 44c0 -58 -66 -165 -92 -165c-6 0 -12 2 -12 9c0 13 11 26 24 45c8 12 16 20 30 56c-26 3 -45 21 -45 45c0 27 27 52 55 52c24 0 40 -19 40 -42z" />
    <glyph glyph-name="quotedblleft" unicode="&#x201c;" horiz-adv-x="369" 
d="M146 561c0 57 66 165 94 165c5 0 10 -2 10 -8c0 -15 -10 -27 -23 -46c-9 -12 -15 -20 -30 -56c27 -3 44 -20 44 -44c0 -29 -24 -52 -54 -52c-23 0 -41 18 -41 41zM289 561c0 57 67 165 94 165c5 0 10 -2 10 -8c0 -15 -10 -27 -23 -46c-9 -12 -15 -20 -30 -56
c27 -3 44 -20 44 -44c0 -29 -24 -52 -54 -52c-23 0 -41 18 -41 41z" />
    <glyph glyph-name="quotedblright" unicode="&#x201d;" horiz-adv-x="369" 
d="M400 685c0 -58 -65 -165 -92 -165c-6 0 -11 2 -11 8c0 13 10 27 23 45c9 12 16 21 31 56c-27 3 -46 22 -46 45c0 28 27 52 55 52c24 0 40 -18 40 -41zM257 685c0 -58 -67 -165 -92 -165c-6 0 -11 2 -11 8c0 13 10 27 23 45c9 12 16 21 31 56c-27 3 -46 22 -46 45
c0 28 27 52 55 52c24 0 40 -18 40 -41z" />
    <glyph glyph-name="quotedblbase" unicode="&#x201e;" horiz-adv-x="369" 
d="M310 44c0 -58 -65 -165 -92 -165c-6 0 -11 3 -11 9c0 13 9 28 22 45c10 13 20 28 32 56c-27 2 -46 21 -46 45c0 28 27 52 55 52c24 0 40 -19 40 -42zM167 44c0 -58 -67 -165 -92 -165c-7 0 -11 3 -11 9c0 13 9 28 22 45c10 13 20 28 32 56c-27 2 -46 21 -46 45
c0 28 27 52 55 52c24 0 40 -19 40 -42z" />
    <glyph glyph-name="dagger" unicode="&#x2020;" horiz-adv-x="432" 
d="M508 480c0 -17 -16 -31 -34 -31h-161l-73 -521c-2 -12 -3 -18 -4 -21c-3 -13 -18 -25 -35 -25c-15 0 -27 12 -28 25c0 7 1 14 2 21l73 521h-161c-5 0 -7 0 -8 1c-10 3 -17 12 -17 24c0 18 16 33 33 33h161l25 172c1 6 2 15 4 21c5 14 19 26 34 26c17 0 29 -11 29 -26
c0 -4 0 -7 -2 -21l-25 -172h161c1 0 3 -1 7 -3c11 -2 19 -12 19 -24z" />
    <glyph glyph-name="daggerdbl" unicode="&#x2021;" horiz-adv-x="574" 
d="M514 37c0 -18 -17 -32 -35 -32h-160l-25 -183c-2 -9 -3 -14 -4 -17c-6 -13 -22 -26 -36 -26c-16 0 -28 12 -28 25c0 5 0 14 1 18l25 183h-159c-15 0 -27 11 -27 26c0 18 17 32 35 32h159l55 386h-159c-16 0 -28 11 -28 25c0 18 17 34 36 34h159l26 185c0 1 0 3 1 4
c6 16 22 29 38 29c18 0 30 -15 28 -33l-26 -185h160c15 0 26 -12 26 -27c0 -18 -17 -32 -34 -32h-160l-55 -386h160c15 0 27 -11 27 -26z" />
    <glyph glyph-name="bullet" unicode="&#x2022;" horiz-adv-x="303" 
d="M263 281c0 -44 -39 -80 -81 -80c-36 0 -63 28 -63 64c0 43 41 79 83 79c36 0 61 -28 61 -63z" />
    <glyph glyph-name="ellipsis" unicode="&#x2026;" horiz-adv-x="583" 
d="M528 44c0 -29 -25 -53 -54 -53c-24 0 -41 18 -41 42c0 28 26 53 54 53c25 0 41 -19 41 -42zM347 44c0 -29 -25 -53 -54 -53c-23 0 -42 19 -42 42c0 28 28 53 55 53c25 0 41 -19 41 -42zM166 44c0 -29 -25 -53 -54 -53c-23 0 -41 18 -41 42c0 28 27 53 54 53
c25 0 41 -19 41 -42z" />
    <glyph glyph-name="guilsinglleft" unicode="&#x2039;" horiz-adv-x="318" 
d="M160 256l116 -216c0 -2 1 -7 1 -11c0 -19 -16 -36 -38 -36c-15 0 -20 7 -28 23c-41 80 -85 159 -126 238l185 230c11 15 20 24 35 24c14 0 27 -12 27 -28c0 -9 -2 -15 -6 -18z" />
    <glyph glyph-name="guilsinglright" unicode="&#x203a;" horiz-adv-x="318" 
d="M56 40l177 216l-107 206c-3 4 -4 8 -4 12c0 19 21 34 37 34c15 0 22 -9 29 -24l119 -230l-191 -238c-14 -16 -21 -23 -36 -23c-19 0 -30 13 -30 30c0 6 1 10 6 17z" />
    <glyph glyph-name="fraction" unicode="&#x2044;" horiz-adv-x="153" 
d="M315 660l-332 -666c-6 -12 -19 -20 -32 -18c-16 3 -23 17 -19 33l3 7l331 665c6 13 19 20 32 18c15 -3 22 -21 17 -39z" />
    <glyph glyph-name="Euro" unicode="&#x20ac;" horiz-adv-x="500" 
d="M110 450h55l7 44c18 134 92 222 223 222c85 0 161 -35 161 -76c0 -18 -14 -32 -32 -32c-9 0 -15 3 -23 9c-3 2 -6 5 -9 7c-30 22 -61 33 -101 33c-99 0 -139 -62 -153 -163l-7 -44h194c15 0 28 -12 28 -28c0 -17 -18 -33 -36 -33h-194l-10 -72h153c15 0 28 -12 28 -28
c0 -17 -18 -33 -37 -33h-153l-6 -42c-14 -101 9 -163 108 -163c40 0 75 10 110 32l11 7c11 7 18 10 25 10c15 0 24 -11 24 -25c0 -45 -91 -83 -183 -83c-131 0 -180 88 -161 222l6 42h-55c-16 0 -28 12 -28 27c0 18 19 34 37 34h55l10 72h-55c-17 0 -28 12 -28 27
c0 18 19 34 36 34z" />
    <glyph glyph-name="uni20B4" unicode="&#x20b4;" horiz-adv-x="500" 
d="M117 450h266c39 42 68 92 68 137s-31 65 -104 65c-56 0 -86 -12 -108 -21c-10 -4 -20 -8 -33 -8c-21 0 -31 13 -31 27c0 54 123 66 181 66c100 0 165 -39 165 -126c0 -55 -25 -98 -61 -140h54c15 0 28 -12 28 -28c0 -17 -18 -33 -36 -33h-116c-10 -8 -24 -17 -35 -25
l-62 -47h203c14 0 28 -12 28 -28c0 -17 -19 -33 -37 -33h-257c-34 -40 -66 -88 -66 -138c0 -38 23 -63 104 -63c65 0 102 15 130 26c15 6 27 10 35 10c15 0 26 -14 26 -29c0 -52 -123 -71 -194 -71c-100 0 -172 42 -172 133c0 49 21 90 54 132h-57c-16 0 -28 12 -28 27
c0 18 19 34 37 34h117l35 24l69 48h-211c-17 0 -28 12 -28 27c0 18 19 34 36 34z" />
    <glyph glyph-name="uni20BD" unicode="&#x20bd;" horiz-adv-x="500" 
d="M93 331h47l47 333c3 23 26 42 48 42h120c142 0 194 -87 194 -186c0 -161 -104 -253 -256 -253h-95l-9 -69h160c15 0 28 -11 28 -27c0 -18 -17 -33 -37 -33h-160l-16 -112c-2 -19 -21 -35 -38 -35s-31 15 -29 35l16 112h-47c-16 0 -28 11 -28 27c0 18 19 33 37 33h47
l10 73h-47c-17 0 -28 11 -28 26c0 19 19 34 36 34zM251 642l-44 -311h95c119 0 180 62 180 184c0 65 -30 127 -136 127h-95z" />
    <glyph glyph-name="trademark" unicode="&#x2122;" horiz-adv-x="773" 
d="M828 690l-54 -383c-2 -12 -14 -21 -25 -21c-12 0 -21 9 -19 21l43 308l-141 -225c-5 -8 -14 -13 -23 -13s-18 5 -21 13l-78 225l-43 -308c-2 -12 -13 -21 -24 -21c-13 0 -21 9 -19 21l54 383c2 14 13 24 28 24c10 0 18 -6 21 -15l90 -260l165 261c6 10 16 14 25 14
c12 0 22 -12 21 -24zM409 689c0 -14 -12 -24 -25 -24h-105l-50 -357c-2 -13 -13 -22 -25 -22c-14 0 -23 9 -21 22l50 357h-103c-12 0 -21 8 -21 19c0 14 13 25 27 25h254c11 0 19 -9 19 -20z" />
    <glyph glyph-name="estimated" unicode="&#x212e;" horiz-adv-x="903" 
d="M825 317h-605c-3 0 -5 -1 -5 -4v-183c0 -8 4 -15 9 -21c57 -61 139 -99 229 -99c96 0 182 43 240 111h55c-68 -79 -176 -131 -296 -131c-206 0 -374 150 -374 336s168 336 374 336s373 -150 373 -336v-9zM689 341v184c0 9 -4 16 -10 22c-58 58 -138 95 -226 95
c-90 0 -170 -38 -228 -98c-6 -6 -10 -14 -10 -23v-180c0 -3 2 -5 5 -5h464c3 0 5 2 5 5z" />
    <glyph glyph-name="arrowleft" unicode="&#x2190;" horiz-adv-x="559" 
d="M504 354c0 -17 -14 -29 -29 -29h-323l163 -188v1c2 -3 3 -8 3 -13c0 -19 -14 -34 -33 -34c-12 0 -17 5 -24 14l-10 10h1l-183 219c-8 10 -7 26 0 37l177 210l6 9l-1 -3c8 11 16 19 27 19c14 0 31 -13 31 -31c0 -6 0 -12 -4 -15v1l-153 -177h323c16 0 29 -14 29 -30z" />
    <glyph glyph-name="arrowup" unicode="&#x2191;" horiz-adv-x="629" 
d="M534 354l-193 163v-405c0 -15 -12 -28 -29 -28c-16 0 -30 12 -30 28v404l-177 -153c-16 -14 -48 4 -45 28c1 11 9 20 18 27l217 182c5 4 11 6 17 6c7 0 15 -2 20 -6l229 -191c9 -7 17 -16 18 -27c3 -24 -29 -42 -45 -28z" />
    <glyph glyph-name="arrowright" unicode="&#x2192;" horiz-adv-x="559" 
d="M60 354c0 16 14 30 30 30h322l-152 177v-1c-4 5 -5 10 -5 15c0 18 17 31 32 31c11 0 18 -8 27 -19l-1 3l6 -9l177 -210c8 -10 7 -26 0 -37l-183 -219h1l-10 -10c-7 -9 -12 -14 -24 -14c-20 0 -34 15 -34 34c0 4 1 8 4 13v-1l163 188h-323c-15 0 -30 12 -30 29z" />
    <glyph glyph-name="arrowdown" unicode="&#x2193;" horiz-adv-x="629" 
d="M312 612c17 0 29 -14 29 -30v-404l188 162c4 4 9 4 12 4c19 0 34 -13 34 -33c0 -13 -5 -18 -14 -25l-11 -9v1l-218 -183c-11 -8 -26 -7 -37 0l-211 177l-8 6l2 -1c-10 8 -18 15 -18 26c0 16 13 32 31 32c4 0 10 0 14 -4l177 -153v404c0 17 14 30 30 30z" />
    <glyph glyph-name="uni2196" unicode="&#x2196;" horiz-adv-x="529" 
d="M465 156c-11 -11 -32 -13 -43 -1l-286 286l-16 -234c0 -5 -4 -9 -7 -12c-13 -12 -34 -10 -44 1c-11 10 -10 20 -8 34c0 2 1 3 1 5l24 274c1 16 10 26 28 27l284 26c2 0 4 1 6 1c15 2 24 3 34 -7c7 -6 10 -13 10 -23s-4 -19 -11 -25c-3 -3 -7 -7 -11 -7l-247 -19l286 -284
c11 -11 11 -30 0 -42z" />
    <glyph glyph-name="uni2197" unicode="&#x2197;" horiz-adv-x="532" 
d="M71 165c-13 11 -13 30 -1 41l285 285l-233 18c-4 0 -9 5 -13 8c-12 12 -9 33 1 44h-1c10 9 19 8 31 7c3 0 6 -1 9 -1l274 -24c16 -1 26 -10 27 -27l25 -283c3 -20 3 -33 -6 -42c-6 -6 -13 -9 -22 -9c-11 0 -20 4 -26 10c-2 2 -6 6 -6 10l-18 248l-286 -285
c-10 -12 -29 -12 -40 0z" />
    <glyph glyph-name="uni2198" unicode="&#x2198;" horiz-adv-x="529" 
d="M70 538c10 11 30 11 43 1l285 -287l16 234c0 5 5 11 8 14c12 12 33 9 43 -1c11 -12 9 -24 7 -42c-7 -89 -16 -182 -23 -271c-1 -16 -11 -27 -28 -28l-282 -25h-2c-18 -2 -32 -4 -41 6c-7 7 -10 14 -10 22c0 10 4 19 11 26c3 3 7 7 11 7l247 18l-285 285
c-11 11 -12 30 0 41zM138 134c-1 0 -1 -1 -1 -1z" />
    <glyph glyph-name="uni2199" unicode="&#x2199;" horiz-adv-x="532" 
d="M467 530c12 -11 12 -30 1 -42l-285 -286l232 -16c5 0 10 -5 13 -8c13 -12 9 -33 -1 -44h1c-9 -9 -19 -8 -31 -7c-4 0 -7 2 -10 2l1 -1l-273 24c-17 1 -26 9 -27 27l-26 284c0 3 -1 5 -1 7c-2 14 -2 25 8 34c7 7 14 10 22 10c9 0 18 -4 26 -11c2 -2 5 -5 5 -11l18 -247
l286 285c10 12 30 12 41 0z" />
    <glyph glyph-name="minus" unicode="&#x2212;" horiz-adv-x="500" 
d="M120 387h345c17 0 32 -14 32 -32s-14 -32 -32 -32h-345c-18 0 -33 14 -33 32s17 32 33 32z" />
    <glyph glyph-name="triagup" unicode="&#x25b2;" horiz-adv-x="758" 
d="M656 1h-546c-33 0 -50 7 -50 25c0 9 4 21 12 37l281 561c12 23 21 35 30 35c8 0 17 -12 30 -35l281 -561c7 -15 11 -27 11 -37c0 -18 -15 -25 -49 -25z" />
    <glyph glyph-name="triagrt" unicode="&#x25ba;" horiz-adv-x="785" 
d="M59 59v559c0 34 8 50 26 50c9 0 21 -4 37 -12l577 -288c21 -11 33 -21 33 -30s-11 -18 -33 -29l-577 -288c-15 -7 -27 -11 -37 -11c-18 0 -26 16 -26 49z" />
    <glyph glyph-name="triagdn" unicode="&#x25bc;" horiz-adv-x="758" 
d="M110 678h546c34 0 49 -8 49 -25c0 -10 -4 -23 -11 -38c-88 -178 -192 -383 -281 -561c-12 -22 -21 -34 -30 -34s-19 12 -30 34l-281 561c-8 16 -12 29 -12 38c0 17 17 25 50 25z" />
    <glyph glyph-name="triaglf" unicode="&#x25c4;" horiz-adv-x="785" 
d="M95 368l576 288c16 8 29 12 38 12c16 0 24 -16 24 -50v-559c0 -33 -8 -49 -24 -49c-10 0 -23 4 -38 11l-576 288c-24 11 -35 20 -35 29c0 8 11 18 35 30z" />
    <glyph glyph-name="uni2639" unicode="&#x2639;" horiz-adv-x="733" 
d="M681 251c0 -167 -138 -309 -310 -309c-171 0 -312 140 -312 309c0 171 141 311 312 311s310 -141 310 -311zM650 251c0 154 -127 280 -279 280s-280 -124 -280 -280c0 -154 127 -279 280 -279c152 0 279 126 279 279zM281 317c0 -18 -14 -32 -33 -32c-17 0 -32 14 -32 32
s15 33 32 33c19 0 33 -15 33 -33zM524 317c0 -18 -14 -32 -31 -32c-19 0 -34 14 -34 32s15 33 34 33c17 0 31 -15 31 -33zM250 83l-15 11c33 56 77 86 136 86s104 -30 136 -87l-19 -9c-28 43 -67 68 -117 68c-52 0 -92 -23 -121 -69z" />
    <glyph glyph-name="uni263A" unicode="&#x263a;" horiz-adv-x="733" 
d="M681 251c0 -167 -138 -309 -310 -309c-171 0 -312 140 -312 309c0 171 141 311 312 311s310 -141 310 -311zM650 251c0 154 -127 280 -279 280s-280 -124 -280 -280c0 -154 127 -279 280 -279c152 0 279 126 279 279zM281 317c0 -18 -14 -32 -33 -32c-17 0 -32 14 -32 32
s15 33 32 33c19 0 33 -15 33 -33zM524 317c0 -18 -14 -32 -31 -32c-19 0 -34 14 -34 32s15 33 34 33c17 0 31 -15 31 -33zM235 146l16 9c28 -44 68 -67 120 -67c53 0 92 22 119 68l17 -9c-31 -53 -79 -87 -136 -87c-59 0 -104 31 -136 86z" />
    <glyph glyph-name="uni263B" unicode="&#x263b;" horiz-adv-x="732" 
d="M680 251c0 -169 -138 -309 -310 -309c-171 0 -311 139 -311 309c0 172 141 311 311 311c171 0 310 -140 310 -311zM295 317c0 26 -20 49 -47 49c-26 0 -49 -23 -49 -49s23 -47 49 -47c27 0 47 21 47 47zM540 317c0 26 -22 49 -47 49c-27 0 -50 -23 -50 -49s23 -47 50 -47
c25 0 47 21 47 47zM258 177l-45 -25c36 -69 87 -107 157 -107c68 0 122 38 158 107l-47 25c-26 -48 -63 -74 -111 -74c-47 0 -85 26 -112 74z" />
    <glyph glyph-name="uni2661" unicode="&#x2661;" horiz-adv-x="642" 
d="M308 392v1c3 -14 8 -23 17 -25c9 4 13 15 16 24c27 84 74 121 126 121c57 0 121 -36 121 -138c0 -53 -17 -77 -99 -185l-16 -21v1c-54 -71 -60 -81 -116 -169c-9 -14 -17 -26 -33 -26c-15 0 -23 12 -32 26c-58 92 -61 95 -116 169v-1l-16 21c-83 109 -100 133 -100 185
c0 102 65 138 120 138c56 0 105 -36 128 -121zM147 252c10 -13 20 -28 33 -47l133 -190c2 -6 3 -9 11 -9c5 0 8 3 11 6v2c43 63 90 129 134 191c13 19 23 34 33 47c47 67 61 85 61 126c0 78 -52 109 -94 109c-59 0 -83 -56 -103 -101c-11 -25 -23 -45 -42 -45
c-16 0 -28 16 -41 45c-21 47 -48 101 -103 101c-44 0 -95 -31 -95 -109c0 -40 14 -59 62 -126z" />
    <glyph glyph-name="uni2665" unicode="&#x2665;" horiz-adv-x="642" 
d="M308 392c12 -43 23 -39 35 0c24 86 71 121 122 121c67 0 123 -48 123 -126c0 -68 -44 -130 -105 -208l-11 -14c-50 -64 -67 -85 -113 -164c-8 -13 -17 -26 -34 -26c-16 0 -24 12 -33 26c-55 88 -60 95 -116 169v-1l-16 21c-83 109 -100 133 -100 185
c0 102 64 138 121 138c53 0 104 -36 127 -121z" />
    <glyph glyph-name="uni266A" unicode="&#x266a;" horiz-adv-x="510" 
d="M252 174v492c177 -1 235 -36 235 -187c0 -34 -6 -43 -17 -44c-11 1 -16 7 -17 19c0 74 -59 113 -145 113h-22v-425c0 -100 -45 -159 -148 -159c-67 0 -110 41 -110 103c0 65 53 116 130 116c25 0 56 -9 94 -28z" />
    <glyph glyph-name="uni266B" unicode="&#x266b;" horiz-adv-x="760" 
d="M275 129v417c0 52 23 82 73 99l241 74c13 4 23 6 32 6c24 0 35 -18 35 -56v-471c0 -106 -48 -157 -145 -157c-69 0 -112 43 -112 103c0 62 54 116 130 116c26 0 34 -3 92 -26v341c0 28 -12 37 -38 29l-238 -74c-23 -7 -36 -22 -36 -47v-386c0 -106 -49 -160 -147 -160
c-68 0 -111 42 -111 103c0 65 53 116 130 116c23 0 54 -9 94 -27z" />
    <glyph glyph-name="typography.com.ua" unicode="&#xe020;" horiz-adv-x="885" 
d="M846 475c-4 -26 -21 -26 -35 -24c-12 1 -26 3 -29 3c-37 0 -70 -30 -79 -73l-29 -166h93c17 0 30 -15 30 -31c0 -17 -13 -31 -30 -31h-105l-39 -225c-17 -96 -52 -164 -141 -164c-43 0 -75 1 -75 29c0 19 13 31 32 30l30 -1c57 0 77 32 88 98l40 233h-147v-129
c0 -18 -15 -32 -32 -32c-18 0 -33 14 -33 32v129h-262c-21 0 -35 17 -35 36c0 2 3 14 8 25l196 491c6 10 18 19 28 19c14 0 32 -13 32 -36c0 -2 0 -5 -2 -8l-186 -465h221v263c0 19 15 33 33 33c17 0 32 -14 32 -33v-263h158l32 176c12 73 66 120 155 120c35 0 55 -7 51 -36
z" />
    <glyph glyph-name="commaaccent" unicode="&#xf6c3;" horiz-adv-x="310" 
d="M187 -108c0 -50 -61 -134 -88 -134c-6 0 -11 3 -11 8c0 7 10 18 20 29c7 9 21 22 32 42c-28 2 -47 21 -47 45c0 28 25 52 55 52c22 0 39 -19 39 -42z" />
    <glyph glyph-name="R.salt" unicode="&#xe0052;" horiz-adv-x="557" 
d="M196 359h125c76 0 171 54 171 172c0 58 -29 112 -113 112h-143zM149 24c-3 -18 -20 -33 -38 -33s-32 15 -29 33l90 641c3 24 26 42 48 42h173c113 0 165 -83 165 -173c0 -113 -74 -168 -172 -212c79 -33 92 -80 91 -150l-1 -28c-1 -51 -1 -77 44 -96c14 -6 29 -18 20 -39
c-5 -12 -19 -16 -34 -16h-13c-69 13 -81 90 -81 197c0 43 -14 104 -128 104h-98z" />
    <glyph glyph-name="uni0414.BUL" unicode="&#xe0414;" horiz-adv-x="668" 
d="M16 -110l18 130c3 26 20 45 39 45h34l277 602c12 28 27 49 53 49c25 0 34 -22 40 -49l105 -602h36c20 0 31 -19 28 -45l-18 -130c-3 -18 -19 -32 -39 -32c-18 0 -30 14 -27 32l15 111h-482l-15 -111c-3 -18 -19 -32 -36 -32c-19 0 -31 14 -28 32zM421 607l-242 -542h330z
" />
    <glyph glyph-name="uni0416.BUL" unicode="&#xe0416;" horiz-adv-x="746" 
d="M506 683l-50 -350l308 367c9 11 20 16 30 16c17 0 25 -18 25 -33c0 -10 -2 -15 -5 -19l-245 -291l157 -331h-1c2 -3 3 -8 3 -11c0 -17 -15 -40 -36 -40c-11 0 -20 6 -26 15l-149 305l-77 -93l-27 -193c-3 -19 -20 -34 -38 -34s-32 15 -29 34l27 195l-51 91l-234 -305
c-8 -9 -18 -15 -30 -15c-18 0 -26 17 -26 32c0 8 2 12 7 19h-1l250 331l-162 291h1c-2 5 -3 9 -3 13c0 15 14 39 36 39c10 0 19 -5 26 -16l204 -366l49 349c2 17 20 33 38 33s31 -16 29 -33z" />
    <glyph glyph-name="uni041B.BUL" unicode="&#xe041b;" horiz-adv-x="549" 
d="M362 607l-263 -592c-8 -12 -24 -24 -35 -24c-18 0 -31 11 -31 29c0 6 3 14 4 17l288 630c12 28 27 49 53 49c25 0 35 -22 40 -49l110 -630c0 -2 0 -9 -1 -13c-3 -20 -19 -33 -39 -33c-12 0 -27 10 -29 24z" />
    <glyph glyph-name="uni0432.BUL" unicode="&#xe0432;" horiz-adv-x="468" 
d="M93 173l47 339c17 121 89 194 197 194c83 0 141 -48 141 -140c0 -110 -72 -166 -138 -195c81 -21 114 -75 114 -145c0 -127 -69 -233 -211 -233c-112 0 -166 68 -150 180zM390 227c0 67 -30 114 -126 114h-83l-24 -171c-11 -78 23 -118 95 -118c96 0 138 71 138 175z
M206 515l-17 -120h96c39 0 128 41 128 156c0 64 -36 96 -90 96c-69 0 -105 -45 -117 -132z" />
    <glyph glyph-name="uni0433.BUL" unicode="&#xe0433;" horiz-adv-x="406" 
d="M409 394c0 -139 -135 -146 -224 -189c-28 -13 -53 -36 -53 -86c0 -49 36 -71 92 -71c45 0 79 13 111 25c3 1 4 1 6 1c18 0 27 -13 27 -27c0 -44 -99 -54 -152 -54c-98 0 -147 46 -147 121c0 140 121 147 212 190c53 25 65 46 65 88c0 44 -27 68 -88 68
c-39 0 -60 -9 -85 -20c-5 -2 -10 -4 -16 -4c-15 0 -25 11 -25 25c0 41 84 54 136 54c94 0 141 -48 141 -121z" />
    <glyph glyph-name="uni0434.BUL" unicode="&#xe0434;" horiz-adv-x="485" 
d="M361 100l36 257c9 62 -30 100 -102 100c-79 0 -122 -46 -133 -121l-23 -163c-10 -77 13 -125 92 -125c45 0 91 16 130 52zM462 357l-57 -405c-14 -102 -79 -182 -201 -182c-46 0 -129 12 -129 52c0 15 15 31 31 31c4 0 9 -1 15 -3h-1c22 -13 44 -24 83 -24
c86 0 126 46 137 126l12 85c-46 -27 -94 -43 -145 -43c-120 0 -147 77 -133 179l23 163c14 101 86 179 206 179c115 0 172 -70 159 -158z" />
    <glyph glyph-name="uni0436.BUL" unicode="&#xe0436;" horiz-adv-x="628" 
d="M450 700l-57 -403l229 207c5 5 13 7 20 7c16 0 26 -11 26 -26c0 -8 -2 -18 -10 -25l-178 -159l141 -263c1 -4 2 -14 1 -19h1c-3 -16 -18 -26 -35 -26c-12 0 -20 5 -24 15l-130 251l-53 -48l-26 -186c-3 -18 -20 -32 -37 -32c-19 0 -31 14 -28 32l26 187l-39 47l-199 -251
c-9 -10 -19 -15 -30 -15c-17 0 -27 9 -27 24c0 5 5 16 8 21l213 263l-132 159c-5 5 -6 11 -6 17c0 19 17 34 35 34c7 0 15 -2 18 -7l171 -206l57 402c2 18 18 33 37 33c17 0 30 -15 28 -33z" />
    <glyph glyph-name="uni0437.BUL" unicode="&#xe0437;" horiz-adv-x="408" 
d="M403 365c0 -95 -35 -181 -131 -201l-2 -13c66 -14 94 -67 94 -141c0 -135 -64 -234 -204 -234c-46 0 -140 10 -140 51c0 22 27 35 37 31l5 -2c27 -11 66 -24 108 -24c88 0 130 55 130 170c0 44 -16 124 -109 124c-16 0 -39 2 -39 26c0 29 25 29 44 30
c127 10 145 130 145 180c0 60 -27 98 -92 98c-31 0 -62 -10 -87 -20c-5 -2 -10 -4 -17 -4c-16 0 -25 11 -25 25c0 41 91 54 142 54c96 0 141 -58 141 -150z" />
    <glyph glyph-name="uni0438.BUL" unicode="&#xe0438;" horiz-adv-x="509" 
d="M383 120l51 360c3 18 15 32 37 32c21 0 31 -14 28 -32l-51 -360c-7 -50 -3 -58 2 -65c5 -6 11 -17 11 -26c0 -16 -16 -30 -34 -30c-17 0 -28 13 -38 33c-52 -28 -107 -39 -154 -39c-104 0 -146 75 -130 186l42 301c3 18 16 32 37 32s30 -14 28 -32l-42 -301
c-12 -82 17 -130 84 -130c42 0 86 14 127 38c0 10 0 20 2 33z" />
    <glyph glyph-name="uni0439.BUL" unicode="&#xe0439;" horiz-adv-x="509" 
d="M345 632c24 0 52 13 79 45c8 10 18 14 27 14c13 0 23 -8 14 -29c-21 -50 -82 -77 -126 -77c-43 0 -105 26 -108 77c-1 18 15 29 26 29c9 0 17 -4 22 -14c19 -32 39 -45 66 -45zM383 120l51 360c3 18 15 32 37 32c21 0 31 -14 28 -32l-51 -360c-7 -50 -3 -58 2 -65
c5 -6 11 -17 11 -26c0 -16 -16 -30 -34 -30c-17 0 -28 13 -38 33c-52 -28 -107 -39 -154 -39c-104 0 -146 75 -130 186l42 301c3 18 16 32 37 32s30 -14 28 -32l-42 -301c-12 -82 17 -130 84 -130c42 0 86 14 127 38c0 10 0 20 2 33z" />
    <glyph glyph-name="uni043A.BUL" unicode="&#xe043a;" horiz-adv-x="439" 
d="M243 700l-56 -403l229 207c5 5 13 7 20 7c15 0 26 -11 26 -26c0 -8 -2 -18 -10 -25l-179 -159l140 -263c2 -3 4 -12 4 -17c0 -17 -17 -28 -35 -28c-12 0 -20 5 -25 15l-129 251l-53 -48l-26 -186c-3 -18 -20 -32 -37 -32c-19 0 -31 14 -28 32l94 675c3 18 19 33 38 33
c17 0 30 -15 27 -33z" />
    <glyph glyph-name="uni043B.BUL" unicode="&#xe043b;" horiz-adv-x="430" 
d="M332 469l79 -436v-3c0 -23 -19 -37 -37 -37c-13 0 -22 9 -26 21v-1l-68 413c-58 -127 -127 -285 -186 -413c-7 -10 -20 -20 -31 -20c-17 0 -29 11 -29 27l1 7c66 144 140 299 206 443c14 28 28 42 51 42s33 -14 40 -43z" />
    <glyph glyph-name="uni043F.BUL" unicode="&#xe043f;" horiz-adv-x="509" 
d="M194 464c54 34 108 49 157 49c104 0 145 -75 129 -187l-33 -236c-3 -23 -1 -39 9 -54c1 -2 2 -8 2 -12c0 -17 -14 -31 -33 -31c-22 0 -55 11 -43 97l33 236c12 83 -17 131 -84 131c-42 0 -86 -19 -129 -48c1 -11 0 -23 -1 -34l-49 -350c-3 -18 -16 -31 -37 -31
c-22 0 -31 13 -29 31l50 350c5 35 3 56 -8 76c-2 4 -3 9 -3 14c0 18 17 32 33 32c13 0 28 -11 36 -33z" />
    <glyph glyph-name="uni0442.BUL" unicode="&#xe0442;" horiz-adv-x="778" 
d="M191 466c52 31 106 49 159 49s88 -20 111 -56c50 35 103 56 158 56c106 0 154 -68 140 -168l-36 -257c-4 -23 -1 -39 9 -54c1 -2 2 -8 2 -12c0 -17 -14 -31 -33 -31c-22 0 -55 11 -43 97l36 255c8 62 -17 112 -86 112c-47 0 -97 -26 -129 -60c1 -15 0 -31 -2 -50
l-45 -322c-3 -18 -15 -31 -37 -31s-31 13 -28 31l42 299c11 78 5 133 -75 133c-46 0 -98 -22 -133 -46c0 -12 0 -23 -2 -36l-49 -350c-3 -18 -16 -31 -37 -31c-22 0 -31 13 -28 31l49 350c5 35 3 56 -8 76c-2 4 -3 9 -3 14c0 18 17 32 33 32c13 0 27 -9 35 -31z" />
    <glyph glyph-name="uni0446.BUL" unicode="&#xe0446;" horiz-adv-x="531" 
d="M254 49c42 0 89 16 133 41c-4 21 -2 45 1 69l45 321c3 18 16 32 37 32c22 0 30 -14 28 -32l-45 -321c-10 -72 6 -110 46 -110c18 0 31 -14 28 -33l-19 -131c-2 -18 -18 -32 -36 -32s-31 14 -29 32l17 119c-20 4 -39 18 -57 38c-52 -33 -116 -49 -168 -49
c-105 0 -146 75 -130 186l42 301c3 18 15 32 37 32c20 0 30 -14 28 -32l-42 -301c-12 -82 17 -130 84 -130z" />
    <glyph glyph-name="uni0448.BUL" unicode="&#xe0448;" horiz-adv-x="772" 
d="M208 480l-45 -321c-9 -62 19 -111 87 -111c47 0 97 26 129 58c-2 18 0 34 2 51l45 323c3 18 16 32 38 32c20 0 30 -14 27 -32l-42 -300c-11 -77 -5 -132 75 -132c46 0 95 20 130 43l54 389c3 18 16 32 38 32c21 0 30 -14 27 -32l-52 -370c-4 -31 4 -46 21 -67
c2 -2 2 -5 2 -9c0 -21 -17 -34 -32 -34c-22 0 -37 14 -47 35c-51 -28 -105 -45 -157 -45c-56 0 -88 18 -109 53c-52 -33 -104 -53 -160 -53c-106 0 -155 68 -141 167l45 323c3 18 17 32 38 32s30 -14 27 -32z" />
    <glyph glyph-name="uni0449.BUL" unicode="&#xe0449;" horiz-adv-x="805" 
d="M208 480l-45 -321c-9 -62 19 -111 87 -111c47 0 99 22 129 51c-2 20 -2 39 1 58l45 323c3 18 16 32 38 32c21 0 30 -14 27 -32l-42 -300c-11 -77 -5 -132 76 -132c49 0 102 21 137 46c-2 21 -1 43 2 65l45 321c3 18 16 32 38 32c21 0 29 -14 26 -32l-45 -321
c-10 -72 7 -110 47 -110c18 0 30 -14 27 -33l-18 -131c-3 -18 -19 -32 -37 -32s-31 14 -28 32l16 119c-23 5 -42 20 -57 39c-52 -33 -112 -53 -169 -53c-56 0 -88 18 -110 53c-51 -33 -104 -53 -159 -53c-106 0 -155 68 -141 167l45 323c3 18 16 32 38 32
c20 0 30 -14 27 -32z" />
    <glyph glyph-name="uni044A.BUL" unicode="&#xe044a;" horiz-adv-x="528" 
d="M317 -7c-119 0 -168 76 -154 175l39 281h-96c-14 0 -25 11 -25 25c0 18 17 32 33 32h129c18 0 30 -15 28 -33l-27 -191c39 24 80 37 119 37c114 0 169 -73 155 -166c-14 -91 -89 -160 -201 -160zM348 261c-76 0 -122 -34 -122 -114c0 -59 32 -95 100 -95
c79 0 128 48 128 122c0 53 -33 87 -106 87z" />
    <glyph glyph-name="uni044C.BUL" unicode="&#xe044c;" horiz-adv-x="472" 
d="M211 479l-28 -197c39 24 81 37 119 37c114 0 169 -73 155 -166c-14 -91 -89 -160 -201 -160c-119 0 -168 76 -154 175l44 311c2 18 19 33 37 33s30 -15 28 -33zM288 261c-75 0 -123 -34 -123 -113c0 -60 33 -96 100 -96c79 0 128 48 128 122c0 53 -33 87 -105 87z" />
    <glyph glyph-name="uni044E.BUL" unicode="&#xe044e;" horiz-adv-x="681" 
d="M241 706l-58 -417h129l7 50c14 99 89 176 209 176c121 0 175 -77 161 -176l-24 -171c-14 -99 -89 -175 -210 -175c-120 0 -174 76 -160 175l9 68h-129l-29 -211c-3 -18 -19 -32 -36 -32c-19 0 -31 14 -28 32l95 681c2 16 18 33 37 33c17 0 30 -14 27 -33zM463 52
c80 0 127 44 137 116l24 172c10 72 -24 117 -104 117c-79 0 -126 -45 -136 -117l-24 -172c-10 -72 24 -116 103 -116z" />
    <glyph glyph-name="uni0431.SRB" unicode="&#xf0431;" horiz-adv-x="464" 
d="M303 481c121 0 174 -77 160 -176l-19 -137c-14 -99 -89 -175 -210 -175c-120 0 -174 76 -160 175l19 137c8 59 51 112 123 142c-44 23 -71 59 -71 107c0 85 77 148 188 148c6 0 10 5 15 5c37 2 68 3 112 36c5 4 17 14 26 14c11 0 19 -12 19 -25c0 -54 -98 -80 -181 -84
c-39 -2 -114 -10 -114 -94c0 -49 33 -73 93 -73zM243 52c80 0 126 44 136 116l19 138c10 72 -23 117 -103 117c-79 0 -127 -45 -137 -117l-19 -138c-10 -72 25 -116 104 -116z" />
    <glyph glyph-name="uni0434.tri" unicode="&#xf0434;" horiz-adv-x="538" 
d="M386 469l76 -415h32c18 0 30 -15 27 -33l-18 -132c-3 -18 -19 -32 -37 -32s-31 14 -28 32l15 112h-361l-15 -112c-3 -18 -20 -32 -37 -32c-19 0 -31 14 -28 32l18 132c3 18 19 33 38 33h34l194 416c14 28 27 42 51 42c23 0 33 -14 39 -43zM335 426l-167 -372h228z" />
    <glyph glyph-name="parenright.caps" horiz-adv-x="275" 
d="M197 447c0 101 -17 220 -50 305c-3 8 -7 19 -7 23c0 15 12 37 37 37c11 0 20 -6 26 -16c41 -94 60 -230 60 -343c0 -192 -67 -395 -187 -560c-7 -9 -19 -16 -30 -16c-20 0 -28 15 -28 30c0 9 8 21 14 29c104 154 165 331 165 511z" />
    <glyph glyph-name="parenleft.caps" horiz-adv-x="276" 
d="M178 245c0 -102 17 -223 51 -309c2 -5 5 -16 5 -23c0 -14 -11 -36 -36 -36c-11 0 -21 7 -25 16c-42 95 -62 232 -62 345c0 191 69 392 188 558c9 10 20 16 31 16c19 0 26 -15 26 -30c0 -12 -7 -21 -13 -30c-102 -151 -165 -330 -165 -507z" />
    <glyph glyph-name="zero.numerator" 
d="M217 668c-40 0 -59 -27 -65 -68l-21 -149c-5 -36 11 -61 47 -61c35 0 58 25 63 61l21 149c6 41 -6 68 -45 68zM223 714c72 0 95 -53 86 -118l-21 -145c-8 -60 -49 -106 -116 -106s-99 46 -91 106l21 145c9 65 49 118 121 118z" />
    <glyph glyph-name="one.numerator" 
d="M178 367l40 278l-58 -36c-8 -5 -16 -9 -24 -9c-12 0 -21 9 -21 19s6 17 16 24l106 61c6 4 11 5 15 5c14 0 23 -11 21 -27l-45 -315c-1 -11 -14 -22 -27 -22c-15 0 -24 11 -23 22z" />
    <glyph glyph-name="two.numerator" 
d="M279 374c0 -15 -13 -24 -25 -24h-162c-15 0 -24 8 -24 20c0 4 2 13 8 24c26 45 67 80 104 112c12 11 38 34 49 46c17 14 35 37 35 67c0 29 -15 49 -48 49c-15 0 -31 -4 -46 -9l-13 -6c-6 -3 -14 -7 -20 -7c-11 0 -23 8 -23 19s4 15 9 19c37 22 69 30 99 30
c60 0 90 -38 90 -86c0 -46 -21 -80 -48 -108c-11 -11 -24 -22 -37 -33l-11 -10c-32 -26 -63 -53 -83 -81h127c10 0 19 -10 19 -22z" />
    <glyph glyph-name="three.numerator" 
d="M303 659l-92 -100c46 -4 79 -36 79 -86c0 -53 -39 -128 -121 -128c-19 0 -95 5 -95 37c0 14 13 27 28 27c2 0 7 -2 14 -6c11 -7 25 -14 50 -14c58 0 76 46 76 79c0 36 -24 50 -55 50c-6 0 -13 -1 -17 -3l-4 -2c-1 -1 -4 -1 -8 -1c-17 0 -25 21 -12 36l97 108h-99
c-13 0 -23 8 -23 19c0 16 14 30 30 30h137c13 0 21 -9 21 -24c0 -12 -3 -19 -6 -22z" />
    </font>
</defs>
</svg>
