<?xml version="1.0" standalone="no"?>
<!DOCTYPE svg PUBLIC "-//W3C//DTD SVG 1.1//EN" "http://www.w3.org/Graphics/SVG/1.1/DTD/svg11.dtd" >
<svg xmlns="http://www.w3.org/2000/svg" xmlns:xlink="http://www.w3.org/1999/xlink" version="1.1">
<metadata>
Created by FontForge 20190801 at Fri Dec  5 21:03:09 2008
 By Jimmy Wärting
Copyright (c) James Arboghast/Sentinel Type, 2003. All rights reserved. Published 2008 by S E N T I N E L  T Y P E. This font is authorized for use by Sentinel Type licensees only &#38; may not be copied or distributed. Read enclosed text file for details. Report piracy to arboghast@hotmail.com
</metadata>
<defs>
<font id="BigNoodleTitling" horiz-adv-x="382" >
  <font-face 
    font-family="BigNoodleTitling"
    font-weight="400"
    font-stretch="normal"
    units-per-em="1000"
    panose-1="2 13 7 8 3 8 2 4 2 4"
    ascent="800"
    descent="-200"
    x-height="718"
    cap-height="718"
    bbox="-28 -182 946 894"
    underline-thickness="40"
    underline-position="-65"
    stemh="87"
    stemv="96"
    unicode-range="U+0020-FB02"
  />
<missing-glyph horiz-adv-x="421" 
d="M38 0v644h345v-644h-345zM100 58h220v529h-220v-529z" />
    <glyph glyph-name=".notdef" horiz-adv-x="421" 
d="M38 0v644h345v-644h-345zM100 58h220v529h-220v-529z" />
    <glyph glyph-name="space" unicode=" " horiz-adv-x="160" 
 />
    <glyph glyph-name="space" unicode="&#xa0;" horiz-adv-x="160" 
 />
    <glyph glyph-name="exclam" unicode="!" horiz-adv-x="178" 
d="M36 718h106l-12 -524h-81zM40 122h102v-122h-102v122z" />
    <glyph glyph-name="quotedbl" unicode="&#x22;" horiz-adv-x="299" 
d="M125 718l-12 -238h-71l-12 238h95zM269 718l-12 -238h-71l-12 238h95z" />
    <glyph glyph-name="numbersign" unicode="#" horiz-adv-x="465" 
d="M247 176h-101l-21 -176h-68l21 176h-78l8 68h79l29 235h-79l8 68h79l21 171h68l-21 -171h101l21 171h68l-21 -171h74l-8 -68h-74l-29 -235h74l-8 -68h-75l-21 -176h-68zM285 479h-101l-29 -235h101z" />
    <glyph glyph-name="dollar" unicode="$" horiz-adv-x="380" 
d="M35 187h96v-70c0 -20 10 -30 29 -30h41c19 0 29 10 28 30v132c0 27 -9 31 -24 39l-121 76c-43 29 -44 48 -44 85v146c0 81 37 122 111 123v76h69v-77c67 -5 101 -45 101 -122v-70h-96v75c1 21 -9 31 -30 31h-28c-21 0 -32 -11 -31 -32v-138c0 -27 12 -31 29 -40l120 -72
c35 -21 40 -36 40 -81v-147c0 -78 -36 -118 -108 -121v-76h-69v76c-75 1 -113 45 -113 132v55z" />
    <glyph glyph-name="percent" unicode="%" horiz-adv-x="696" 
d="M569 0h-39c-57 0 -86 28 -86 85v214c0 57 29 85 86 85h39c58 0 87 -28 87 -85v-214c0 -57 -29 -85 -87 -85zM165 334h-39c-57 0 -86 28 -86 85v214c0 57 29 85 86 85h39c58 0 87 -28 87 -85v-214c0 -57 -29 -85 -87 -85zM431 718h61l-228 -718h-61zM156 655h-22
c-12 0 -18 -5 -18 -16v-225c0 -12 6 -18 18 -18h22c13 0 20 6 20 18v225c0 11 -7 16 -20 16zM560 321h-22c-12 0 -18 -5 -18 -16v-225c0 -12 6 -18 18 -18h22c13 0 20 6 20 18v225c0 11 -7 16 -20 16z" />
    <glyph glyph-name="ampersand" unicode="&#x26;" horiz-adv-x="373" 
d="M106 371c-36 10 -54 37 -54 82v160c0 70 35 105 105 105h58c70 0 105 -35 105 -105v-81h-90v79c0 18 -10 27 -29 27h-30c-19 -4 -29 -13 -29 -27v-175c0 -23 10 -34 30 -34h191v-71h-43v-219c0 -75 -35 -112 -106 -112h-68c-71 0 -106 37 -106 112v173c0 49 22 78 66 86z
M230 331h-63c-25 0 -37 -13 -37 -39v-186c0 -17 8 -26 24 -26h51c17 0 25 9 25 26v225z" />
    <glyph glyph-name="quotesingle" unicode="'" horiz-adv-x="155" 
d="M125 718l-12 -248h-71l-12 248h95z" />
    <glyph glyph-name="parenleft" unicode="(" horiz-adv-x="206" 
d="M206 75v-75h-46c-73 0 -110 41 -110 122v473c0 82 37 123 110 123h46v-76h-30c-28 0 -42 -17 -42 -51v-465c0 -34 14 -51 42 -51h30z" />
    <glyph glyph-name="parenright" unicode=")" horiz-adv-x="206" 
d="M0 0v75h30c28 0 42 17 42 51v465c0 34 -14 51 -42 51h-30v76h46c73 0 110 -41 110 -123v-473c0 -81 -37 -122 -110 -122h-46z" />
    <glyph glyph-name="asterisk" unicode="*" horiz-adv-x="356" 
d="M30 612l58 78l70 -72l8 6l8 103l94 -31l-50 -90l4 -7l101 24l3 -88l-98 14l-4 -7l60 -79l-82 -47l-28 102l-9 3l-73 -76l-56 73l90 43l-2 9z" />
    <glyph glyph-name="plus" unicode="+" horiz-adv-x="381" 
d="M341 310h-103v-112h-88v112h-110v84h110v116h88v-116h103v-84z" />
    <glyph glyph-name="comma" unicode="," horiz-adv-x="167" 
d="M89 -119h-58l46 119h-47v124h107v-124z" />
    <glyph glyph-name="hyphen" unicode="-" horiz-adv-x="240" 
d="M230 313h-220v80h220v-80z" />
    <glyph glyph-name="hyphen" unicode="&#xad;" horiz-adv-x="240" 
d="M230 313h-220v80h220v-80z" />
    <glyph glyph-name="period" unicode="." horiz-adv-x="182" 
d="M40 122h102v-122h-102v122z" />
    <glyph glyph-name="slash" unicode="/" horiz-adv-x="267" 
d="M209 768h68l-220 -818h-67z" />
    <glyph glyph-name="zero" unicode="0" horiz-adv-x="387" 
d="M227 0h-67c-77 0 -115 41 -115 123v472c0 82 38 123 115 123h67c77 0 115 -41 115 -123v-472c0 -82 -38 -123 -115 -123zM211 631h-37c-22 0 -33 -11 -33 -33v-477c0 -23 10 -34 29 -34h46c20 0 30 12 30 35v476c0 22 -12 33 -35 33z" />
    <glyph glyph-name="one" unicode="1" horiz-adv-x="242" 
d="M97 578l-53 -30l-37 74c33 19 57 36 72 49s28 29 40 47h10l63 -34v-684h-95v578z" />
    <glyph glyph-name="two" unicode="2" horiz-adv-x="369" 
d="M150 86h162v-86h-258v176c0 37 6 53 30 80l125 149c12 13 12 17 12 36v163c0 18 -9 27 -26 27h-33c-19 0 -29 -9 -29 -28v-88h-96v80c0 82 38 123 115 123h50c77 0 115 -41 115 -123v-169c0 -27 -6 -44 -25 -68l-132 -154c-12 -16 -10 -27 -10 -43v-75z" />
    <glyph glyph-name="three" unicode="3" horiz-adv-x="373" 
d="M258 369c50 -7 75 -31 75 -71v-176c0 -81 -38 -122 -115 -122h-65c-77 0 -115 41 -115 122v66h96v-69c0 -21 9 -32 28 -32h46c19 0 29 11 29 32v160c0 30 -15 45 -46 45h-36v81h28c28 0 42 13 42 39v154c0 21 -10 32 -31 32h-35c-19 0 -28 -11 -28 -32v-83h-96v80
c0 82 38 123 115 123h56c77 0 115 -41 115 -123v-153c0 -42 -21 -66 -63 -73z" />
    <glyph glyph-name="four" unicode="4" horiz-adv-x="367" 
d="M352 219v-81h-55v-138h-94v138h-138c-17 0 -26 4 -30 27l-8 49l146 504h124v-499h55zM206 219l15 378h-5l-99 -378h89z" />
    <glyph glyph-name="five" unicode="5" horiz-adv-x="364" 
d="M136 178v-63c0 -19 9 -28 28 -28h37c18 0 27 9 27 28v196c0 19 -11 29 -34 29h-151v378h271v-89h-181v-202h85c71 0 106 -33 106 -98v-202c0 -85 -38 -127 -115 -127h-54c-77 0 -115 42 -115 122v56h96z" />
    <glyph glyph-name="six" unicode="6" horiz-adv-x="385" 
d="M334 524h-96v75c0 21 -11 32 -33 32h-35c-19 0 -29 -11 -29 -32v-190l60 2h29c73 0 110 -41 110 -123v-167c0 -81 -37 -121 -110 -121h-75c-73 0 -110 37 -110 111v484c0 82 37 123 110 123h69c73 0 110 -41 110 -123v-71zM141 324v-205c0 -21 10 -32 29 -32h45
c19 0 29 10 29 31v173c0 22 -10 33 -33 33h-70z" />
    <glyph glyph-name="seven" unicode="7" horiz-adv-x="303" 
d="M189 629h-179v89h251l27 -52l-128 -666h-95z" />
    <glyph glyph-name="eight" unicode="8" horiz-adv-x="383" 
d="M116 366c-46 10 -69 36 -69 77v152c0 82 38 123 115 123h59c77 0 115 -41 115 -123v-153c0 -41 -21 -67 -63 -77c47 -7 70 -39 70 -96v-147c0 -81 -38 -122 -115 -122h-73c-77 0 -115 41 -115 122v148c0 55 25 87 76 96zM179 87h25c29 0 43 17 43 52v149
c0 24 -12 36 -36 36h-44c-21 -1 -31 -13 -31 -36v-149c0 -35 14 -52 43 -52zM143 599v-158c0 -23 10 -34 29 -34h38c19 1 29 12 30 35v157c0 21 -11 31 -34 31h-30c-22 0 -33 -10 -33 -31z" />
    <glyph glyph-name="nine" unicode="9" horiz-adv-x="383" 
d="M242 264l-82 -1c-77 0 -115 43 -115 128v201c0 84 38 126 115 126h63c77 0 115 -42 115 -126v-464c0 -85 -38 -128 -115 -128h-57c-77 0 -115 43 -115 128v50h96v-59c0 -21 10 -32 29 -32h41c17 0 25 11 25 32v145zM174 350h68v252c0 19 -12 29 -37 29h-31
c-22 0 -33 -10 -33 -29v-217c0 -23 11 -35 33 -35z" />
    <glyph glyph-name="colon" unicode=":" horiz-adv-x="182" 
d="M40 705h102v-122h-102v122zM40 122h102v-122h-102v122z" />
    <glyph glyph-name="semicolon" unicode=";" horiz-adv-x="187" 
d="M99 -119h-58l46 119h-47v124h107v-124zM40 705h102v-122h-102v122z" />
    <glyph glyph-name="less" unicode="&#x3c;" horiz-adv-x="298" 
d="M109 309l159 -144v-117l-248 230v63l248 232v-119z" />
    <glyph glyph-name="equal" unicode="=" horiz-adv-x="370" 
d="M330 222h-290v82h290v-82zM330 384h-290v82h290v-82z" />
    <glyph glyph-name="greater" unicode="&#x3e;" horiz-adv-x="298" 
d="M189 310l-159 144v117l248 -229v-64l-248 -232v119z" />
    <glyph glyph-name="question" unicode="?" horiz-adv-x="376" 
d="M217 194h-96v121c0 44 7 51 32 71l69 51c16 13 18 20 18 47v103c0 29 -14 44 -42 44h-37c-27 0 -40 -15 -40 -44v-52h-96v60c0 82 38 123 115 123h82c76 0 114 -41 114 -123v-142c0 -45 -10 -51 -34 -73l-67 -51c-16 -12 -18 -19 -18 -46v-89zM120 122h102v-122h-102v122
z" />
    <glyph glyph-name="at" unicode="@" horiz-adv-x="549" 
d="M504 63v-63h-459v533c0 124 73 186 177 185h90c71 0 121 -15 149 -46c29 -30 43 -69 43 -117v-449h-186v174h-78v-174h-71v410c0 61 28 91 85 91h50c57 0 85 -31 85 -91v-351h49v385c0 72 -39 106 -123 106h-90c-75 -1 -114 -46 -114 -119v-474h393zM240 345h78v182
c0 11 -8 16 -24 16h-30c-16 0 -24 -5 -24 -16v-182z" />
    <glyph glyph-name="A" unicode="A" 
d="M136 263v-263h-96v595c0 82 38 123 115 123h72c77 0 115 -41 115 -123v-595h-96v263h-110zM136 350h110v239c0 28 -14 42 -42 42h-26c-28 0 -42 -14 -42 -42v-239z" />
    <glyph glyph-name="B" unicode="B" 
d="M268 355c53 0 79 -26 79 -77v-171c0 -71 -36 -107 -109 -107h-193v718h154c85 0 128 -43 128 -130v-152c-1 -43 -20 -70 -59 -81zM141 313v-233h80c20 0 30 10 30 31v151c0 34 -19 51 -57 51h-53zM141 638v-245h43c37 0 47 12 47 47v146c0 35 -14 52 -43 52h-47z" />
    <glyph glyph-name="C" unicode="C" horiz-adv-x="367" 
d="M241 188h96v-66c0 -81 -38 -122 -115 -122h-62c-77 0 -115 41 -115 122v474c0 81 38 122 115 122h62c77 0 115 -41 115 -122v-101h-96v101c0 28 -14 42 -43 42h-19c-25 0 -38 -14 -38 -42v-474c0 -28 13 -42 38 -42h24c25 0 38 14 38 42v66z" />
    <glyph glyph-name="D" unicode="D" horiz-adv-x="387" 
d="M45 0v718h167c90 0 135 -46 135 -138v-476c0 -69 -38 -104 -115 -104h-187zM141 631v-544h72c25 0 38 11 38 32v460c0 35 -14 52 -43 52h-67z" />
    <glyph glyph-name="E" unicode="E" horiz-adv-x="287" 
d="M257 0h-212v718h212v-80h-116v-245h116v-80h-116v-233h116v-80z" />
    <glyph glyph-name="F" unicode="F" horiz-adv-x="287" 
d="M141 393h116v-80h-116v-313h-96v718h212v-80h-116v-245z" />
    <glyph glyph-name="G" unicode="G" horiz-adv-x="390" 
d="M190 353h154l1 -353h-185c-77 0 -115 41 -115 122v474c0 81 38 122 115 122h62c77 0 115 -41 115 -122v-101h-96v94c0 28 -14 42 -43 42h-19c-25 0 -38 -14 -38 -42v-460c0 -28 14 -42 43 -42h64v186h-58v80z" />
    <glyph glyph-name="H" unicode="H" horiz-adv-x="392" 
d="M347 0h-96v313h-110v-313h-96v718h96v-325h110v325h96v-718z" />
    <glyph glyph-name="I" unicode="I" horiz-adv-x="186" 
d="M141 0h-96v718h96v-718z" />
    <glyph glyph-name="J" unicode="J" horiz-adv-x="267" 
d="M20 0v80h76c20 0 30 13 30 38v600h96v-597c0 -81 -37 -121 -111 -121h-91z" />
    <glyph glyph-name="K" unicode="K" horiz-adv-x="354" 
d="M141 718v-362l103 362h88l-104 -358l126 -360h-96l-117 350v-350h-96v718h96z" />
    <glyph glyph-name="L" unicode="L" horiz-adv-x="277" 
d="M257 80v-80h-212v718h96v-638h116z" />
    <glyph glyph-name="M" unicode="M" horiz-adv-x="480" 
d="M151 718l89 -422l89 422h106v-718h-96l10 470l-72 -340h-74l-72 340l10 -470h-96v718h106z" />
    <glyph glyph-name="N" unicode="N" horiz-adv-x="385" 
d="M244 371v347h96v-718h-96v143l-103 327v-470h-96v718h96z" />
    <glyph glyph-name="O" unicode="O" horiz-adv-x="402" 
d="M241 0h-80c-77 0 -116 41 -116 122v473c0 82 38 123 115 123h82c77 0 115 -41 115 -123v-473c0 -81 -39 -122 -116 -122zM179 80h49c22 0 33 12 33 37v484c0 25 -13 37 -38 37h-45c-25 0 -37 -12 -37 -37v-484c0 -25 13 -37 38 -37z" />
    <glyph glyph-name="P" unicode="P" horiz-adv-x="372" 
d="M141 273v-273h-96v718h181c77 0 116 -41 116 -123v-164c0 -100 -64 -158 -185 -158h-16zM141 638v-285h16c60 0 89 21 89 72v181c1 21 -11 32 -34 32h-71z" />
    <glyph glyph-name="Q" unicode="Q" horiz-adv-x="402" 
d="M357 80h45v-80h-241c-77 0 -116 41 -116 122v473c0 82 38 123 115 123h82c77 0 115 -40 115 -123v-515zM261 80v521c0 25 -13 37 -38 37h-45c-25 0 -37 -12 -37 -37v-484c0 -25 12 -37 38 -37h82z" />
    <glyph glyph-name="R" unicode="R" horiz-adv-x="373" 
d="M343 0h-91l-63 290h-58v-290h-96v718h188c73 0 110 -41 110 -123v-177c0 -63 -19 -102 -57 -119zM131 631v-259h63c29 0 43 17 43 52v155c0 35 -14 52 -43 52h-63z" />
    <glyph glyph-name="S" unicode="S" horiz-adv-x="370" 
d="M326 495h-96v112c1 21 -9 31 -30 31h-28c-21 0 -32 -11 -31 -32v-145c0 -27 12 -31 29 -40l120 -72c35 -21 40 -36 40 -81v-147c0 -81 -39 -121 -116 -121h-59c-77 0 -115 44 -115 132v55h96v-77c0 -20 10 -30 29 -30h41c19 0 29 10 28 30v146c0 27 -9 31 -24 39l-121 76
c-43 29 -44 48 -44 85v139c0 82 38 123 115 123h51c77 0 115 -41 115 -123v-100z" />
    <glyph glyph-name="T" unicode="T" horiz-adv-x="300" 
d="M290 638h-92v-638h-96v638h-92v80h280v-80z" />
    <glyph glyph-name="U" unicode="U" horiz-adv-x="392" 
d="M251 718h96v-582c0 -90 -47 -136 -137 -136h-29c-90 0 -136 47 -136 137v581h96v-584c0 -30 12 -47 42 -47h24c30 0 44 17 44 47v584z" />
    <glyph glyph-name="V" unicode="V" horiz-adv-x="366" 
d="M261 718h95l-116 -718h-114l-116 718h95l78 -548z" />
    <glyph glyph-name="W" unicode="W" horiz-adv-x="557" 
d="M278 416l-58 -416h-104l-106 718h95l68 -538l68 538h75l68 -538l68 538h95l-106 -718h-104z" />
    <glyph glyph-name="X" unicode="X" horiz-adv-x="330" 
d="M310 718l-92 -352l102 -366h-86l-68 251h-2l-68 -251h-86l101 366l-91 352h87l57 -235h2l57 235h87z" />
    <glyph glyph-name="Y" unicode="Y" horiz-adv-x="350" 
d="M177 406h3l65 312h95l-116 -454v-264h-96v264l-118 454h95z" />
    <glyph glyph-name="Z" unicode="Z" horiz-adv-x="303" 
d="M126 80h152v-80h-247l-6 69l155 568h-139v81h231l5 -68z" />
    <glyph glyph-name="bracketleft" unicode="[" horiz-adv-x="225" 
d="M205 0h-155v718h155v-71h-72v-576h72v-71z" />
    <glyph glyph-name="backslash" unicode="\" horiz-adv-x="267" 
d="M-10 768h68l219 -818h-67z" />
    <glyph glyph-name="bracketright" unicode="]" horiz-adv-x="225" 
d="M175 0h-155v71h72v576h-72v71h155v-718z" />
    <glyph glyph-name="asciicircum" unicode="^" horiz-adv-x="412" 
d="M206 660l-82 -74h-94l146 132h60l146 -132h-94z" />
    <glyph glyph-name="underscore" unicode="_" horiz-adv-x="275" 
d="M285 -71h-295v71h295v-71z" />
    <glyph glyph-name="grave" unicode="`" horiz-adv-x="194" 
d="M164 552h-68l-66 128h88z" />
    <glyph glyph-name="a" unicode="a" 
d="M136 263v-263h-96v595c0 82 38 123 115 123h72c77 0 115 -41 115 -123v-595h-96v263h-110zM136 350h110v239c0 28 -14 42 -42 42h-26c-28 0 -42 -14 -42 -42v-239z" />
    <glyph glyph-name="b" unicode="b" 
d="M268 355c53 0 79 -26 79 -77v-171c0 -71 -36 -107 -109 -107h-193v718h154c85 0 128 -43 128 -130v-152c-1 -43 -20 -70 -59 -81zM141 313v-233h80c20 0 30 10 30 31v151c0 34 -19 51 -57 51h-53zM141 638v-245h43c37 0 47 12 47 47v146c0 35 -14 52 -43 52h-47z" />
    <glyph glyph-name="c" unicode="c" horiz-adv-x="367" 
d="M241 188h96v-66c0 -81 -38 -122 -115 -122h-62c-77 0 -115 41 -115 122v474c0 81 38 122 115 122h62c77 0 115 -41 115 -122v-101h-96v101c0 28 -14 42 -43 42h-19c-25 0 -38 -14 -38 -42v-474c0 -28 13 -42 38 -42h24c25 0 38 14 38 42v66z" />
    <glyph glyph-name="d" unicode="d" horiz-adv-x="387" 
d="M45 0v718h167c90 0 135 -46 135 -138v-476c0 -69 -38 -104 -115 -104h-187zM141 631v-544h72c25 0 38 11 38 32v460c0 35 -14 52 -43 52h-67z" />
    <glyph glyph-name="e" unicode="e" horiz-adv-x="287" 
d="M257 0h-212v718h212v-80h-116v-245h116v-80h-116v-233h116v-80z" />
    <glyph glyph-name="f" unicode="f" horiz-adv-x="287" 
d="M141 393h116v-80h-116v-313h-96v718h212v-80h-116v-245z" />
    <glyph glyph-name="g" unicode="g" horiz-adv-x="390" 
d="M190 353h154l1 -353h-185c-77 0 -115 41 -115 122v474c0 81 38 122 115 122h62c77 0 115 -41 115 -122v-101h-96v94c0 28 -14 42 -43 42h-19c-25 0 -38 -14 -38 -42v-460c0 -28 14 -42 43 -42h64v186h-58v80z" />
    <glyph glyph-name="h" unicode="h" horiz-adv-x="392" 
d="M347 0h-96v313h-110v-313h-96v718h96v-325h110v325h96v-718z" />
    <glyph glyph-name="i" unicode="i" horiz-adv-x="186" 
d="M141 0h-96v718h96v-718z" />
    <glyph glyph-name="j" unicode="j" horiz-adv-x="267" 
d="M20 0v80h76c20 0 30 13 30 38v600h96v-597c0 -81 -37 -121 -111 -121h-91z" />
    <glyph glyph-name="k" unicode="k" horiz-adv-x="354" 
d="M141 718v-362l103 362h88l-104 -358l126 -360h-96l-117 350v-350h-96v718h96z" />
    <glyph glyph-name="l" unicode="l" horiz-adv-x="277" 
d="M257 80v-80h-212v718h96v-638h116z" />
    <glyph glyph-name="m" unicode="m" horiz-adv-x="480" 
d="M151 718l89 -422l89 422h106v-718h-96l10 470l-72 -340h-74l-72 340l10 -470h-96v718h106z" />
    <glyph glyph-name="n" unicode="n" horiz-adv-x="385" 
d="M244 371v347h96v-718h-96v143l-103 327v-470h-96v718h96z" />
    <glyph glyph-name="o" unicode="o" horiz-adv-x="402" 
d="M241 0h-80c-77 0 -116 41 -116 122v473c0 82 38 123 115 123h82c77 0 115 -41 115 -123v-473c0 -81 -39 -122 -116 -122zM179 80h49c22 0 33 12 33 37v484c0 25 -13 37 -38 37h-45c-25 0 -37 -12 -37 -37v-484c0 -25 13 -37 38 -37z" />
    <glyph glyph-name="p" unicode="p" horiz-adv-x="372" 
d="M141 273v-273h-96v718h181c77 0 116 -41 116 -123v-164c0 -100 -64 -158 -185 -158h-16zM141 638v-285h16c60 0 89 21 89 72v181c1 21 -11 32 -34 32h-71z" />
    <glyph glyph-name="q" unicode="q" horiz-adv-x="402" 
d="M357 80h45v-80h-241c-77 0 -116 41 -116 122v473c0 82 38 123 115 123h82c77 0 115 -40 115 -123v-515zM261 80v521c0 25 -13 37 -38 37h-45c-25 0 -37 -12 -37 -37v-484c0 -25 12 -37 38 -37h82z" />
    <glyph glyph-name="r" unicode="r" horiz-adv-x="373" 
d="M343 0h-91l-63 290h-58v-290h-96v718h188c73 0 110 -41 110 -123v-177c0 -63 -19 -102 -57 -119zM131 631v-259h63c29 0 43 17 43 52v155c0 35 -14 52 -43 52h-63z" />
    <glyph glyph-name="s" unicode="s" horiz-adv-x="370" 
d="M326 495h-96v112c1 21 -9 31 -30 31h-28c-21 0 -32 -11 -31 -32v-145c0 -27 12 -31 29 -40l120 -72c35 -21 40 -36 40 -81v-147c0 -81 -39 -121 -116 -121h-59c-77 0 -115 44 -115 132v55h96v-77c0 -20 10 -30 29 -30h41c19 0 29 10 28 30v146c0 27 -9 31 -24 39l-121 76
c-43 29 -44 48 -44 85v139c0 82 38 123 115 123h51c77 0 115 -41 115 -123v-100z" />
    <glyph glyph-name="t" unicode="t" horiz-adv-x="300" 
d="M290 638h-92v-638h-96v638h-92v80h280v-80z" />
    <glyph glyph-name="u" unicode="u" horiz-adv-x="392" 
d="M251 718h96v-582c0 -90 -47 -136 -137 -136h-29c-90 0 -136 47 -136 137v581h96v-584c0 -30 12 -47 42 -47h24c30 0 44 17 44 47v584z" />
    <glyph glyph-name="v" unicode="v" horiz-adv-x="366" 
d="M261 718h95l-116 -718h-114l-116 718h95l78 -548z" />
    <glyph glyph-name="w" unicode="w" horiz-adv-x="557" 
d="M278 416l-58 -416h-104l-106 718h95l68 -538l68 538h75l68 -538l68 538h95l-106 -718h-104z" />
    <glyph glyph-name="x" unicode="x" horiz-adv-x="330" 
d="M310 718l-92 -352l102 -366h-86l-68 251h-2l-68 -251h-86l101 366l-91 352h87l57 -235h2l57 235h87z" />
    <glyph glyph-name="y" unicode="y" horiz-adv-x="350" 
d="M177 406h3l65 312h95l-116 -454v-264h-96v264l-118 454h95z" />
    <glyph glyph-name="z" unicode="z" horiz-adv-x="303" 
d="M126 80h152v-80h-247l-6 69l155 568h-139v81h231l5 -68z" />
    <glyph glyph-name="braceleft" unicode="{" horiz-adv-x="253" 
d="M98 420c42 -13 63 -42 63 -86v-214c0 -34 14 -51 43 -51h29v-69h-45c-74 0 -111 41 -111 123v202c0 35 -19 52 -57 52v81c38 0 57 17 57 52v185c0 82 37 123 111 123h45v-69h-29c-29 0 -43 -17 -43 -51v-201c0 -42 -21 -68 -63 -77z" />
    <glyph glyph-name="bar" unicode="|" horiz-adv-x="208" 
d="M138 -100h-68v918h68v-918z" />
    <glyph glyph-name="braceright" unicode="}" horiz-adv-x="253" 
d="M155 430c-42 9 -63 35 -63 77v191c0 34 -14 51 -43 51h-29v69h45c74 0 111 -41 111 -123v-175c0 -35 19 -52 57 -52v-81c-38 0 -57 -17 -57 -52v-212c0 -82 -37 -123 -111 -123h-45v69h29c29 0 43 17 43 51v224c0 44 21 73 63 86z" />
    <glyph glyph-name="asciitilde" unicode="~" horiz-adv-x="439" 
d="M322 718h77c0 -100 -70 -120 -119 -120c-50 0 -95 48 -128 48c-22 0 -40 -12 -40 -47h-72c0 100 69 121 109 121c50 0 81 -49 121 -49c24 0 52 12 52 47z" />
    <glyph glyph-name="Euro" unicode="&#x20ac;" horiz-adv-x="367" 
d="M222 348l-18 -50h-63v-176c0 -28 13 -42 38 -42h24c25 0 38 14 38 42v66h96v-66c0 -81 -38 -122 -115 -122h-62c-77 0 -115 41 -115 122v176h-35v50h35v40h-35v50h35v158c0 81 38 122 115 122h62c77 0 115 -41 115 -122v-101h-96v101c0 28 -14 42 -43 42h-19
c-25 0 -38 -14 -38 -42v-158h113l-18 -50h-95v-40h81z" />
    <glyph glyph-name="quotesinglbase" unicode="&#x201a;" horiz-adv-x="161" 
d="M61 -20h-47v135h67c27 0 40 -13 40 -40v-95l-48 -129h-58z" />
    <glyph glyph-name="florin" unicode="&#x192;" horiz-adv-x="337" 
d="M98 417h-40l9 78h40l14 121c11 76 29 102 104 102h89l-10 -84h-61c-19 0 -30 -10 -33 -31l-13 -108h90l-9 -78h-90l-39 -315c-11 -76 -30 -102 -102 -102h-57l10 84h31c17 0 27 11 30 32z" />
    <glyph glyph-name="quotedblbase" unicode="&#x201e;" horiz-adv-x="319" 
d="M71 -20h-47v135h67c27 0 40 -13 40 -40v-95l-48 -129h-58zM230 -20h-47v135h67c27 0 40 -13 40 -40v-95l-48 -129h-58z" />
    <glyph glyph-name="ellipsis" unicode="&#x2026;" horiz-adv-x="626" 
d="M40 122h102v-122h-102v122zM484 122h102v-122h-102v122zM262 122h102v-122h-102v122z" />
    <glyph glyph-name="dagger" unicode="&#x2020;" horiz-adv-x="358" 
d="M338 472h-112v-472h-95v472h-111v93h111v153h95v-153h112v-93z" />
    <glyph glyph-name="daggerdbl" unicode="&#x2021;" horiz-adv-x="358" 
d="M20 255h111v217h-111v93h111v153h95v-153h112v-93h-112v-217h112v-93h-112v-162h-95v162h-111v93z" />
    <glyph glyph-name="circumflex" unicode="&#x2c6;" horiz-adv-x="320" 
d="M200 562l-42 58l-42 -58h-74l86 112h60l86 -112h-74z" />
    <glyph glyph-name="perthousand" unicode="&#x2030;" horiz-adv-x="986" 
d="M859 0h-39c-57 0 -86 28 -86 85v214c0 57 29 85 86 85h39c58 0 87 -28 87 -85v-214c0 -57 -29 -85 -87 -85zM569 0h-39c-57 0 -86 28 -86 85v214c0 57 29 85 86 85h39c58 0 87 -28 87 -85v-214c0 -57 -29 -85 -87 -85zM165 334h-39c-57 0 -86 28 -86 85v214
c0 57 29 85 86 85h39c58 0 87 -28 87 -85v-214c0 -57 -29 -85 -87 -85zM203 0l228 718h61l-228 -718h-61zM156 655h-22c-12 0 -18 -5 -18 -16v-225c0 -12 6 -18 18 -18h22c13 0 20 6 20 18v225c0 11 -7 16 -20 16zM560 321h-22c-12 0 -18 -5 -18 -16v-225
c0 -12 6 -18 18 -18h22c13 0 20 6 20 18v225c0 11 -7 16 -20 16zM847 321h-15c-15 0 -22 -8 -22 -23v-213c0 -15 7 -23 22 -23h15c15 0 23 8 23 23v213c0 15 -8 23 -23 23z" />
    <glyph glyph-name="Scaron" unicode="&#x160;" horiz-adv-x="370" 
d="M326 495h-96v112c1 21 -9 31 -30 31h-28c-21 0 -32 -11 -31 -32v-145c0 -27 12 -31 29 -40l120 -72c35 -21 40 -36 40 -81v-147c0 -81 -39 -121 -116 -121h-59c-77 0 -115 44 -115 132v55h96v-77c0 -20 10 -30 29 -30h41c19 0 29 10 28 30v146c0 27 -9 31 -24 39l-121 76
c-43 29 -44 48 -44 85v139c0 82 38 123 115 123h51c77 0 115 -41 115 -123v-100zM175 819l42 58h74l-86 -112h-60l-86 112h74z" />
    <glyph glyph-name="guilsinglleft" unicode="&#x2039;" horiz-adv-x="219" 
d="M189 516l-84 -168l84 -168h-83l-86 168l86 168h83z" />
    <glyph glyph-name="OE" unicode="&#x152;" horiz-adv-x="535" 
d="M373 87h142v-87h-360c-77 0 -115 41 -115 123v472c0 82 38 123 115 123h360v-88h-142v-217h126v-87h-126v-239zM179 87h61c25 0 38 14 38 43v458c0 29 -14 43 -43 43h-57c-28 0 -42 -14 -42 -42v-460c0 -28 14 -42 43 -42z" />
    <glyph glyph-name="quoteleft" unicode="&#x2018;" horiz-adv-x="161" 
d="M78 719h58l-46 -129h47v-135h-67c-27 0 -40 13 -40 40v95z" />
    <glyph glyph-name="quoteright" unicode="&#x2019;" horiz-adv-x="151" 
d="M73 455h-58l46 129h-47v135h67c27 0 40 -13 40 -40v-95z" />
    <glyph glyph-name="quotedblleft" unicode="&#x201c;" horiz-adv-x="319" 
d="M236 719h58l-46 -129h47v-135h-67c-27 0 -40 13 -40 40v95zM78 719h58l-46 -129h47v-135h-67c-27 0 -40 13 -40 40v95z" />
    <glyph glyph-name="quotedblright" unicode="&#x201d;" horiz-adv-x="319" 
d="M83 455h-58l46 129h-47v135h67c27 0 40 -13 40 -40v-95zM242 455h-58l46 129h-47v135h67c27 0 40 -13 40 -40v-95z" />
    <glyph glyph-name="bullet" unicode="&#x2022;" horiz-adv-x="192" 
d="M0 473h132v-182h-132v182z" />
    <glyph glyph-name="endash" unicode="&#x2013;" horiz-adv-x="295" 
d="M295 322h-295v71h295v-71z" />
    <glyph glyph-name="emdash" unicode="&#x2014;" horiz-adv-x="470" 
d="M470 322h-470v71h470v-71z" />
    <glyph glyph-name="tilde" unicode="&#x2dc;" horiz-adv-x="294" 
d="M202 657h52c-1 -59 -37 -89 -77 -90c-30 0 -45 20 -65 20c-13 0 -21 -8 -24 -25h-49c0 57 32 84 71 87c26 0 43 -20 67 -20c13 3 24 11 25 28z" />
    <glyph glyph-name="trademark" unicode="&#x2122;" horiz-adv-x="593" 
d="M410 493l-58 225h-85v-384h76l-5 240l49 -178h46l49 178l-5 -240h76v384h-85zM219 656h-57v-322h-76v322h-56v62h189v-62z" />
    <glyph glyph-name="scaron" unicode="&#x161;" horiz-adv-x="370" 
d="M326 495h-96v112c1 21 -9 31 -30 31h-28c-21 0 -32 -11 -31 -32v-145c0 -27 12 -31 29 -40l120 -72c35 -21 40 -36 40 -81v-147c0 -81 -39 -121 -116 -121h-59c-77 0 -115 44 -115 132v55h96v-77c0 -20 10 -30 29 -30h41c19 0 29 10 28 30v146c0 27 -9 31 -24 39l-121 76
c-43 29 -44 48 -44 85v139c0 82 38 123 115 123h51c77 0 115 -41 115 -123v-100zM165 816l42 58h74l-86 -112h-60l-86 112h74z" />
    <glyph glyph-name="guilsinglright" unicode="&#x203a;" horiz-adv-x="219" 
d="M30 180l84 168l-84 168h83l86 -168l-86 -168h-83z" />
    <glyph glyph-name="oe" unicode="&#x153;" horiz-adv-x="535" 
d="M373 87h142v-87h-360c-77 0 -115 41 -115 123v472c0 82 38 123 115 123h360v-88h-142v-217h126v-87h-126v-239zM179 87h61c25 0 38 14 38 43v458c0 29 -14 43 -43 43h-57c-28 0 -42 -14 -42 -42v-460c0 -28 14 -42 43 -42z" />
    <glyph glyph-name="Ydieresis" unicode="&#x178;" horiz-adv-x="350" 
d="M177 406h3l65 312h95l-116 -454v-264h-96v264l-118 454h95zM65 865h80v-100h-80v100zM205 865h80v-100h-80v100z" />
    <glyph glyph-name="exclamdown" unicode="&#xa1;" horiz-adv-x="195" 
d="M152 0h-106l12 524h81zM148 596h-102v122h102v-122z" />
    <glyph glyph-name="cent" unicode="&#xa2;" horiz-adv-x="357" 
d="M307 511h-86v37c0 26 -14 39 -41 39h-9c-27 0 -41 -13 -41 -39v-295c0 -26 14 -39 41 -39h9c27 0 41 13 41 39v34h86v-42c0 -68 -32 -102 -96 -102h-3v-60h-70v60h-2c-64 0 -96 34 -96 102v311c0 68 32 102 95 102h3v60h70v-60h3c64 0 96 -34 96 -102v-45z" />
    <glyph glyph-name="sterling" unicode="&#xa3;" horiz-adv-x="430" 
d="M284 180h96v-180h-350v87h36v241h-36v77h36v190c0 82 38 123 115 123h78c77 0 116 -41 116 -123v-53h-96v47c0 28 -15 42 -44 42h-31c-28 0 -42 -14 -42 -42v-184h120l-10 -77h-110v-241h122v93z" />
    <glyph glyph-name="currency" unicode="&#xa4;" horiz-adv-x="367" 
d="M222 348l-18 -50h-63v-176c0 -28 13 -42 38 -42h24c25 0 38 14 38 42v66h96v-66c0 -81 -38 -122 -115 -122h-62c-77 0 -115 41 -115 122v176h-35v50h35v40h-35v50h35v158c0 81 38 122 115 122h62c77 0 115 -41 115 -122v-101h-96v101c0 28 -14 42 -43 42h-19
c-25 0 -38 -14 -38 -42v-158h113l-18 -50h-95v-40h81z" />
    <glyph glyph-name="yen" unicode="&#xa5;" horiz-adv-x="390" 
d="M254 304l-10 -40h101v-50h-101v-214h-96v214h-103v50h103l-11 40h-92v50h79l-94 364h95l72 -322h3l65 322h95l-93 -364h78v-50h-91z" />
    <glyph glyph-name="brokenbar" unicode="&#xa6;" horiz-adv-x="210" 
d="M150 445h-90v373h90v-373zM150 -100h-90v368h90v-368z" />
    <glyph glyph-name="section" unicode="&#xa7;" horiz-adv-x="342" 
d="M302 575h-87v33c0 26 -13 39 -38 39c-27 0 -41 -13 -41 -39v-75c0 -19 8 -21 25 -29l68 -26c42 -17 70 -23 70 -71v-72c0 -28 -11 -48 -34 -60c25 -15 30 -27 30 -51v-122c0 -68 -32 -102 -96 -102h-63c-64 0 -96 34 -96 102v54h87v-47c0 -26 13 -39 40 -39
c26 0 39 13 39 39v69c0 21 -2 33 -29 44l-65 24c-37 11 -71 27 -71 70v69c0 31 10 53 30 64c-19 15 -25 28 -25 51v116c0 68 32 102 96 102h64c64 0 96 -34 96 -102v-41zM211 349v27c0 25 -13 38 -39 38c-27 0 -41 -13 -41 -38v-27c0 -26 14 -39 41 -39c26 0 39 13 39 39z
" />
    <glyph glyph-name="dieresis" unicode="&#xa8;" horiz-adv-x="280" 
d="M170 662h80v-100h-80v100zM30 662h80v-100h-80v100z" />
    <glyph glyph-name="copyright" unicode="&#xa9;" horiz-adv-x="594" 
d="M407 0h-220c-85 0 -127 46 -127 137v452c0 86 42 129 127 129h220c85 0 127 -43 127 -129v-452c0 -91 -42 -137 -127 -137zM185 42h222c53 0 79 29 79 87v459c0 59 -26 88 -79 88h-222c-52 0 -78 -29 -78 -88v-459c0 -58 26 -87 78 -87zM418 451h-80v58
c0 16 -8 25 -24 28h-26c-18 0 -27 -9 -27 -28v-297c0 -21 9 -31 27 -31h26c18 0 27 10 27 31v45h80v-43c0 -68 -32 -102 -96 -102h-52c-64 0 -96 34 -96 102v290c0 68 32 102 96 102h49c64 0 96 -34 96 -102v-53z" />
    <glyph glyph-name="ordfeminine" unicode="&#xaa;" horiz-adv-x="296" 
d="M116 467v-133h-76v296c0 59 28 88 85 88h46c57 0 85 -29 85 -88v-296h-76v133h-64zM116 529h64v101c0 17 -8 26 -25 26h-14c-17 0 -25 -9 -25 -26v-101z" />
    <glyph glyph-name="guillemotleft" unicode="&#xab;" horiz-adv-x="369" 
d="M339 516l-84 -168l84 -168h-83l-86 168l86 168h83zM189 516l-84 -168l84 -168h-83l-86 168l86 168h83z" />
    <glyph glyph-name="logicalnot" unicode="&#xac;" horiz-adv-x="416" 
d="M283 300h-241v84h328v-176h-87v92z" />
    <glyph glyph-name="registered" unicode="&#xae;" horiz-adv-x="458" 
d="M313 175h-169c-63 0 -94 32 -94 97v348c0 65 32 98 95 98h168c63 0 95 -33 95 -98v-348c0 -65 -32 -97 -95 -97zM145 207h168c39 0 59 22 59 66v346c0 44 -20 66 -59 66h-168c-40 0 -60 -22 -60 -66v-346c0 -44 20 -66 60 -66zM287 406l37 -148h-58l-33 144h-31v-144h-64
v377h125c37 0 56 -21 56 -63v-107c0 -30 -11 -50 -32 -59zM202 580v-126h31c15 0 23 9 23 28v71c0 18 -8 27 -23 27h-31z" />
    <glyph glyph-name="macron" unicode="&#xaf;" horiz-adv-x="300" 
d="M270 602h-240v71h240v-71z" />
    <glyph glyph-name="macron" unicode="&#x2c9;" horiz-adv-x="300" 
d="M270 602h-240v71h240v-71z" />
    <glyph glyph-name="degree" unicode="&#xb0;" horiz-adv-x="274" 
d="M30 617c0 59 47 107 106 107c60 0 108 -48 108 -107c0 -60 -48 -107 -108 -107c-59 0 -106 47 -106 107zM76 617c0 -32 27 -59 60 -59c32 0 60 27 60 59c0 35 -28 61 -60 61c-33 0 -60 -26 -60 -61z" />
    <glyph glyph-name="plusminus" unicode="&#xb1;" horiz-adv-x="401" 
d="M351 310h-103v-112h-88v112h-110v84h110v116h88v-116h103v-84zM350 0h-300v85h300v-85z" />
    <glyph glyph-name="twosuperior" unicode="&#xb2;" horiz-adv-x="281" 
d="M127 396h114v-62h-190v101c0 19 1 27 22 48l76 63c8 7 13 13 14 16c1 4 2 15 2 33v42c0 13 -6 19 -18 19h-17c-13 0 -19 -6 -19 -19v-43h-71v44c0 53 24 80 72 80h58c47 0 71 -27 71 -80v-77c0 -19 -2 -26 -19 -42l-72 -62c-24 -21 -23 -22 -23 -38v-23z" />
    <glyph glyph-name="threesuperior" unicode="&#xb3;" horiz-adv-x="288" 
d="M202 530c31 -7 46 -22 46 -43v-85c0 -45 -23 -68 -69 -68h-70c-46 0 -69 23 -69 68v36h76v-23c0 -13 7 -19 22 -19h13c14 0 21 7 21 21v54c0 18 -7 27 -20 27l-25 1v59l17 1c15 0 22 8 22 23v56c0 12 -7 18 -21 18h-8c-14 0 -21 -6 -21 -18v-28h-76v37c0 47 23 71 69 71
h64c46 0 69 -24 69 -71v-77c0 -22 -13 -35 -40 -40z" />
    <glyph glyph-name="acute" unicode="&#xb4;" horiz-adv-x="194" 
d="M164 680l-66 -128h-68l46 128h88z" />
    <glyph glyph-name="mu" unicode="&#xb5;" horiz-adv-x="312" 
d="M277 411h-42v-77h-76v77h-114l-10 61l88 246h112v-245h42v-62zM159 473l10 183h-5l-54 -183h49z" />
    <glyph glyph-name="mu" unicode="&#x3bc;" horiz-adv-x="312" 
d="M277 411h-42v-77h-76v77h-114l-10 61l88 246h112v-245h42v-62zM159 473l10 183h-5l-54 -183h49z" />
    <glyph glyph-name="paragraph" unicode="&#xb6;" horiz-adv-x="469" 
d="M419 -100h-71v746h-169c-29 0 -43 -17 -43 -52v-121c0 -35 14 -52 43 -52h39v168h78v-689h-78v440h-68c-73 0 -110 43 -110 128v127c0 82 37 123 110 123h269v-818z" />
    <glyph glyph-name="periodcentered" unicode="&#xb7;" horiz-adv-x="162" 
d="M40 402h102v-122h-102v122z" />
    <glyph glyph-name="periodcentered" unicode="&#x2219;" horiz-adv-x="162" 
d="M40 402h102v-122h-102v122z" />
    <glyph glyph-name="cedilla" unicode="&#xb8;" horiz-adv-x="222" 
d="M50 -182v45h46c17 0 25 8 25 24v14c0 19 -8 28 -25 28h-40v97h52v-57h9c37 0 55 -19 55 -58v-38c0 -36 -19 -54 -56 -55h-66z" />
    <glyph glyph-name="onesuperior" unicode="&#xb9;" horiz-adv-x="210" 
d="M94 334v276l-46 -17l-18 53c37 18 63 43 78 75h5l57 -30v-357h-76z" />
    <glyph glyph-name="ordmasculine" unicode="&#xba;" horiz-adv-x="292" 
d="M165 334h-39c-57 0 -86 28 -86 85v214c0 57 29 85 86 85h39c58 0 87 -28 87 -85v-214c0 -57 -29 -85 -87 -85zM153 655h-15c-15 0 -22 -8 -22 -23v-213c0 -15 7 -23 22 -23h15c15 0 23 8 23 23v213c0 15 -8 23 -23 23z" />
    <glyph glyph-name="guillemotright" unicode="&#xbb;" horiz-adv-x="369" 
d="M30 180l84 168l-84 168h83l86 -168l-86 -168h-83zM180 180l84 168l-84 168h83l86 -168l-86 -168h-83z" />
    <glyph glyph-name="onequarter" unicode="&#xbc;" horiz-adv-x="634" 
d="M604 77h-42v-77h-76v77h-114l-10 61l88 246h112v-245h42v-62zM406 718h67l-275 -718h-65zM94 334v276l-46 -17l-18 53c37 18 63 43 78 75h5l57 -30v-357h-76zM486 139l10 183h-5l-54 -183h49z" />
    <glyph glyph-name="onehalf" unicode="&#xbd;" horiz-adv-x="634" 
d="M490 62h114v-62h-190v101c0 19 1 27 22 48l76 63c8 7 13 13 14 16c1 4 2 15 2 33v42c0 13 -6 19 -18 19h-17c-13 0 -19 -6 -19 -19v-43h-71v44c0 53 24 80 72 80h58c47 0 71 -27 71 -80v-77c0 -19 -2 -26 -19 -42l-72 -62c-24 -21 -23 -22 -23 -38v-23zM406 718h67
l-275 -718h-65zM94 334v276l-46 -17l-18 53c37 18 63 43 78 75h5l57 -30v-357h-76z" />
    <glyph glyph-name="threequarters" unicode="&#xbe;" horiz-adv-x="634" 
d="M604 77h-42v-77h-76v77h-114l-10 61l88 246h112v-245h42v-62zM192 530c31 -7 46 -22 46 -43v-85c0 -45 -23 -68 -69 -68h-70c-46 0 -69 23 -69 68v36h76v-23c0 -13 7 -19 22 -19h13c14 0 21 7 21 21v54c0 18 -7 27 -20 27l-25 1v59l17 1c15 0 22 8 22 23v56
c0 12 -7 18 -21 18h-8c-14 0 -21 -6 -21 -18v-28h-76v37c0 47 23 71 69 71h64c46 0 69 -24 69 -71v-77c0 -22 -13 -35 -40 -40zM436 718h67l-275 -718h-65zM486 139l10 183h-5l-54 -183h49z" />
    <glyph glyph-name="questiondown" unicode="&#xbf;" horiz-adv-x="376" 
d="M159 524h96v-121c0 -44 -7 -51 -32 -71l-69 -51c-16 -13 -18 -20 -18 -47v-100c0 -31 11 -46 32 -46h47c27 0 40 15 40 46v24h96v-35c0 -82 -37 -123 -111 -123h-90c-73 0 -110 41 -110 123v146c0 44 10 53 34 71l67 52c16 12 18 19 18 46v86zM256 596h-102v122h102v-122
z" />
    <glyph glyph-name="Agrave" unicode="&#xc0;" 
d="M136 263v-263h-96v595c0 82 38 123 115 123h72c77 0 115 -41 115 -123v-595h-96v263h-110zM136 350h110v239c0 28 -14 42 -42 42h-26c-28 0 -42 -14 -42 -42v-239zM235 763h-68l-66 128h88z" />
    <glyph glyph-name="Aacute" unicode="&#xc1;" 
d="M136 263v-263h-96v595c0 82 38 123 115 123h72c77 0 115 -41 115 -123v-595h-96v263h-110zM136 350h110v239c0 28 -14 42 -42 42h-26c-28 0 -42 -14 -42 -42v-239zM294 883l-66 -128h-68l46 128h88z" />
    <glyph glyph-name="Acircumflex" unicode="&#xc2;" 
d="M136 263v-263h-96v595c0 82 38 123 115 123h72c77 0 115 -41 115 -123v-595h-96v263h-110zM136 350h110v239c0 28 -14 42 -42 42h-26c-28 0 -42 -14 -42 -42v-239zM235 765l-42 58l-42 -58h-74l86 112h60l86 -112h-74z" />
    <glyph glyph-name="Atilde" unicode="&#xc3;" 
d="M136 263v-263h-96v595c0 82 38 123 115 123h72c77 0 115 -41 115 -123v-595h-96v263h-110zM136 350h110v239c0 28 -14 42 -42 42h-26c-28 0 -42 -14 -42 -42v-239zM252 860h52c-1 -59 -37 -89 -77 -90c-30 0 -45 20 -65 20c-13 0 -21 -8 -24 -25h-49c0 57 32 84 71 87
c26 0 43 -20 67 -20c13 3 24 11 25 28z" />
    <glyph glyph-name="Adieresis" unicode="&#xc4;" 
d="M136 263v-263h-96v595c0 82 38 123 115 123h72c77 0 115 -41 115 -123v-595h-96v263h-110zM136 350h110v239c0 28 -14 42 -42 42h-26c-28 0 -42 -14 -42 -42v-239zM223 865h80v-100h-80v100zM83 865h80v-100h-80v100z" />
    <glyph glyph-name="Aring" unicode="&#xc5;" 
d="M136 263v-263h-96v595c0 82 38 123 115 123h72c77 0 115 -41 115 -123v-595h-96v263h-110zM136 350h110v239c0 28 -14 42 -42 42h-26c-28 0 -42 -14 -42 -42v-239zM268 816c0 -44 -32 -77 -75 -77c-40 0 -76 33 -76 77c0 45 36 78 76 78c43 0 75 -33 75 -78zM227 816
c0 20 -15 35 -34 35s-34 -15 -34 -35s15 -35 34 -35s34 15 34 35z" />
    <glyph glyph-name="AE" unicode="&#xc6;" horiz-adv-x="509" 
d="M136 263v-263h-96v595c0 82 38 123 115 123h329v-87h-142v-218h126v-87h-126v-239h142v-87h-238v263h-110zM136 350h110v281h-68c-28 0 -42 -14 -42 -42v-239z" />
    <glyph glyph-name="Ccedilla" unicode="&#xc7;" horiz-adv-x="362" 
d="M150 -182v45h46c17 0 25 8 25 24v14c0 19 -8 28 -25 28h-40v71c-74 1 -111 42 -111 122v474c0 81 38 122 115 122h62c77 0 115 -41 115 -122v-101h-96v101c0 28 -14 42 -43 42h-19c-25 0 -38 -14 -38 -42v-474c0 -28 13 -42 38 -42h24c25 0 38 14 38 42v66h96v-66
c0 -81 -38 -122 -115 -122h-14v-31h9c37 0 55 -19 55 -58v-38c0 -36 -19 -54 -56 -55h-66z" />
    <glyph glyph-name="Egrave" unicode="&#xc8;" horiz-adv-x="287" 
d="M257 0h-212v718h212v-80h-116v-245h116v-80h-116v-233h116v-80zM191 755h-68l-66 128h88z" />
    <glyph glyph-name="Eacute" unicode="&#xc9;" horiz-adv-x="287" 
d="M257 0h-212v718h212v-80h-116v-245h116v-80h-116v-233h116v-80zM241 883l-66 -128h-68l46 128h88z" />
    <glyph glyph-name="Ecircumflex" unicode="&#xca;" horiz-adv-x="287" 
d="M257 0h-212v718h212v-80h-116v-245h116v-80h-116v-233h116v-80zM189 765l-42 58l-42 -58h-74l86 112h60l86 -112h-74z" />
    <glyph glyph-name="Edieresis" unicode="&#xcb;" horiz-adv-x="287" 
d="M257 0h-212v718h212v-80h-116v-245h116v-80h-116v-233h116v-80zM41 865h80v-100h-80v100zM181 865h80v-100h-80v100z" />
    <glyph glyph-name="Igrave" unicode="&#xcc;" horiz-adv-x="186" 
d="M141 0h-96v718h96v-718zM141 755h-68l-66 128h88z" />
    <glyph glyph-name="Iacute" unicode="&#xcd;" horiz-adv-x="186" 
d="M141 0h-96v718h96v-718zM190 883l-66 -128h-68l46 128h88z" />
    <glyph glyph-name="Icircumflex" unicode="&#xce;" horiz-adv-x="186" 
d="M141 0h-96v718h96v-718zM135 765l-42 58l-42 -58h-74l86 112h60l86 -112h-74z" />
    <glyph glyph-name="Idieresis" unicode="&#xcf;" horiz-adv-x="186" 
d="M141 0h-96v718h96v-718zM-17 865h80v-100h-80v100zM123 865h80v-100h-80v100z" />
    <glyph glyph-name="Eth" unicode="&#xd0;" horiz-adv-x="387" 
d="M45 0v313h-35v80h35v325h167c90 0 135 -46 135 -138v-476c0 -69 -38 -104 -115 -104h-187zM204 313h-63v-226h72c25 0 38 11 38 32v460c0 35 -14 52 -43 52h-67v-238h63v-80z" />
    <glyph glyph-name="Ntilde" unicode="&#xd1;" horiz-adv-x="385" 
d="M244 371v347h96v-718h-96v143l-103 327v-470h-96v718h96zM258 860h52c-1 -59 -37 -89 -77 -90c-30 0 -45 20 -65 20c-13 0 -21 -8 -24 -25h-49c0 57 32 84 71 87c26 0 43 -20 67 -20c13 3 24 11 25 28z" />
    <glyph glyph-name="Ograve" unicode="&#xd2;" horiz-adv-x="402" 
d="M241 0h-80c-77 0 -116 41 -116 122v473c0 82 38 123 115 123h82c77 0 115 -41 115 -123v-473c0 -81 -39 -122 -116 -122zM179 80h49c22 0 33 12 33 37v484c0 25 -13 37 -38 37h-45c-25 0 -37 -12 -37 -37v-484c0 -25 13 -37 38 -37zM243 755h-68l-66 128h88z" />
    <glyph glyph-name="Oacute" unicode="&#xd3;" horiz-adv-x="402" 
d="M241 0h-80c-77 0 -116 41 -116 122v473c0 82 38 123 115 123h82c77 0 115 -41 115 -123v-473c0 -81 -39 -122 -116 -122zM179 80h49c22 0 33 12 33 37v484c0 25 -13 37 -38 37h-45c-25 0 -37 -12 -37 -37v-484c0 -25 13 -37 38 -37zM298 883l-66 -128h-68l46 128h88z" />
    <glyph glyph-name="Ocircumflex" unicode="&#xd4;" horiz-adv-x="402" 
d="M241 0h-80c-77 0 -116 41 -116 122v473c0 82 38 123 115 123h82c77 0 115 -41 115 -123v-473c0 -81 -39 -122 -116 -122zM179 80h49c22 0 33 12 33 37v484c0 25 -13 37 -38 37h-45c-25 0 -37 -12 -37 -37v-484c0 -25 13 -37 38 -37zM243 765l-42 58l-42 -58h-74l86 112
h60l86 -112h-74z" />
    <glyph glyph-name="Otilde" unicode="&#xd5;" horiz-adv-x="402" 
d="M241 0h-80c-77 0 -116 41 -116 122v473c0 82 38 123 115 123h82c77 0 115 -41 115 -123v-473c0 -81 -39 -122 -116 -122zM179 80h49c22 0 33 12 33 37v484c0 25 -13 37 -38 37h-45c-25 0 -37 -12 -37 -37v-484c0 -25 13 -37 38 -37zM252 854h52c-1 -59 -37 -89 -77 -90
c-30 0 -45 20 -65 20c-13 0 -21 -8 -24 -25h-49c0 57 32 84 71 87c26 0 43 -20 67 -20c13 3 24 11 25 28z" />
    <glyph glyph-name="Odieresis" unicode="&#xd6;" horiz-adv-x="402" 
d="M241 0h-80c-77 0 -116 41 -116 122v473c0 82 38 123 115 123h82c77 0 115 -41 115 -123v-473c0 -81 -39 -122 -116 -122zM179 80h49c22 0 33 12 33 37v484c0 25 -13 37 -38 37h-45c-25 0 -37 -12 -37 -37v-484c0 -25 13 -37 38 -37zM228 865h80v-100h-80v100zM88 865h80
v-100h-80v100z" />
    <glyph glyph-name="multiply" unicode="&#xd7;" horiz-adv-x="378" 
d="M337 434l-94 -85l101 -94l-62 -62l-94 101l-85 -93l-64 64l94 84l-100 95l64 62l92 -102l85 94z" />
    <glyph glyph-name="Oslash" unicode="&#xd8;" horiz-adv-x="402" 
d="M256 778h45l-12 -65c49 -13 73 -53 73 -118v-473c0 -81 -39 -122 -116 -122h-91l-11 -60h-45l12 65c-47 14 -71 53 -71 117v473c0 82 38 123 115 123h90zM266 591l-95 -504h57c25 0 38 14 38 42v462zM136 136l92 495h-50c-28 0 -42 -14 -42 -42v-453z" />
    <glyph glyph-name="Ugrave" unicode="&#xd9;" horiz-adv-x="392" 
d="M251 718h96v-582c0 -90 -47 -136 -137 -136h-29c-90 0 -136 47 -136 137v581h96v-584c0 -30 12 -47 42 -47h24c30 0 44 17 44 47v584zM234 755h-68l-66 128h88z" />
    <glyph glyph-name="Uacute" unicode="&#xda;" horiz-adv-x="392" 
d="M251 718h96v-582c0 -90 -47 -136 -137 -136h-29c-90 0 -136 47 -136 137v581h96v-584c0 -30 12 -47 42 -47h24c30 0 44 17 44 47v584zM290 883l-66 -128h-68l46 128h88z" />
    <glyph glyph-name="Ucircumflex" unicode="&#xdb;" horiz-adv-x="392" 
d="M251 718h96v-582c0 -90 -47 -136 -137 -136h-29c-90 0 -136 47 -136 137v581h96v-584c0 -30 12 -47 42 -47h24c30 0 44 17 44 47v584zM243 765l-42 58l-42 -58h-74l86 112h60l86 -112h-74z" />
    <glyph glyph-name="Udieresis" unicode="&#xdc;" horiz-adv-x="392" 
d="M251 718h96v-582c0 -90 -47 -136 -137 -136h-29c-90 0 -136 47 -136 137v581h96v-584c0 -30 12 -47 42 -47h24c30 0 44 17 44 47v584zM91 865h80v-100h-80v100zM231 865h80v-100h-80v100z" />
    <glyph glyph-name="Yacute" unicode="&#xdd;" horiz-adv-x="350" 
d="M177 406h3l65 312h95l-116 -454v-264h-96v264l-118 454h95zM270 883l-66 -128h-68l46 128h88z" />
    <glyph glyph-name="Thorn" unicode="&#xde;" horiz-adv-x="377" 
d="M140 718v-120h93c76 0 114 -41 114 -123v-129c0 -81 -39 -121 -116 -121h-90v-225h-96v718h95zM141 511v-199h72c25 0 38 14 38 42v115c0 28 -14 42 -43 42h-67z" />
    <glyph glyph-name="germandbls" unicode="&#xdf;" horiz-adv-x="422" 
d="M178 0v87h80c25 0 38 14 38 42v142c0 26 -11 39 -34 39h-38c-12 0 -25 11 -25 27v85c0 12 8 27 25 27c14 0 27 4 27 28v110c0 29 -14 44 -41 44h-30c-26 0 -39 -15 -39 -44v-587h-96v598c0 80 37 120 110 120h76c77 0 116 -41 116 -122v-112c0 -65 -13 -99 -60 -102v-5
c70 -2 105 -38 105 -109v-166c0 -68 -36 -102 -109 -102h-105z" />
    <glyph glyph-name="agrave" unicode="&#xe0;" 
d="M136 263v-263h-96v595c0 82 38 123 115 123h72c77 0 115 -41 115 -123v-595h-96v263h-110zM136 350h110v239c0 28 -14 42 -42 42h-26c-28 0 -42 -14 -42 -42v-239zM235 762h-68l-66 128h88z" />
    <glyph glyph-name="aacute" unicode="&#xe1;" 
d="M136 263v-263h-96v595c0 82 38 123 115 123h72c77 0 115 -41 115 -123v-595h-96v263h-110zM136 350h110v239c0 28 -14 42 -42 42h-26c-28 0 -42 -14 -42 -42v-239zM293 890l-66 -128h-68l46 128h88z" />
    <glyph glyph-name="acircumflex" unicode="&#xe2;" 
d="M136 263v-263h-96v595v6v12c0 2 1 3 1 5c1 8 2 15 3 21c1 4 2 7 3 10c5 18 15 33 27 44c1 1 3 2 4 3c7 6 16 11 26 14c2 1 3 1 5 2c7 2 15 4 24 5c5 0 11 1 16 1h6h72c13 0 26 -2 37 -4c3 -1 6 -1 9 -2c4 -2 9 -3 13 -5c1 -1 2 -2 4 -2c9 -5 17 -11 23 -18
c7 -7 12 -16 17 -25c3 -9 6 -18 8 -28c3 -12 4 -25 4 -39v-595h-96v263h-110zM136 350h110v239c0 6 -1 12 -2 17c-1 2 -2 5 -3 7c-1 1 -1 2 -2 3c0 1 -1 1 -2 2c-1 2 -2 3 -4 4c-2 2 -6 4 -9 6c-1 0 -2 0 -3 1h-2c-2 1 -3 1 -5 1c-3 1 -7 1 -10 1h-26c-4 0 -7 0 -10 -1
c-3 0 -5 -1 -7 -1c-1 -1 -2 -1 -3 -1c-3 -1 -5 -2 -7 -4c-3 -1 -5 -3 -7 -6c0 -1 -1 -1 -2 -2c-3 -5 -5 -11 -6 -17v-10v-239zM235 772l-42 58l-42 -58h-74l86 112h60l86 -112h-74z" />
    <glyph glyph-name="atilde" unicode="&#xe3;" 
d="M136 263v-263h-96v595c0 82 38 123 115 123h72c77 0 115 -41 115 -123v-595h-96v263h-110zM136 350h110v239c0 28 -14 42 -42 42h-26c-28 0 -42 -14 -42 -42v-239zM247 857h52c-1 -59 -37 -89 -77 -90c-30 0 -45 20 -65 20c-13 0 -21 -8 -24 -25h-49c0 57 32 84 71 87
c26 0 43 -20 67 -20c13 3 24 11 25 28z" />
    <glyph glyph-name="adieresis" unicode="&#xe4;" 
d="M136 263v-263h-96v595c0 82 38 123 115 123h72c77 0 115 -41 115 -123v-595h-96v263h-110zM136 350h110v239c0 28 -14 42 -42 42h-26c-28 0 -42 -14 -42 -42v-239zM221 862h80v-100h-80v100zM81 862h80v-100h-80v100z" />
    <glyph glyph-name="aring" unicode="&#xe5;" 
d="M136 263v-263h-96v595c0 82 38 123 115 123h72c77 0 115 -41 115 -123v-595h-96v263h-110zM136 350h110v239c0 28 -14 42 -42 42h-26c-28 0 -42 -14 -42 -42v-239zM269 813c0 -44 -32 -77 -75 -77c-40 0 -76 33 -76 77c0 45 36 78 76 78c43 0 75 -33 75 -78zM228 813
c0 20 -15 35 -34 35s-34 -15 -34 -35s15 -35 34 -35s34 15 34 35z" />
    <glyph glyph-name="ae" unicode="&#xe6;" horiz-adv-x="504" 
d="M136 263v-263h-96v595c0 82 38 123 115 123h329v-87h-142v-218h126v-87h-126v-239h142v-87h-238v263h-110zM136 350h110v281h-68c-28 0 -42 -14 -42 -42v-239z" />
    <glyph glyph-name="ccedilla" unicode="&#xe7;" horiz-adv-x="367" 
d="M158 -182v45h46c17 0 25 8 25 24v14c0 19 -8 28 -25 28h-40v71h-4c-77 0 -115 41 -115 122v474c0 81 38 122 115 122h62c77 0 115 -41 115 -122v-101h-96v101c0 28 -14 42 -43 42h-19c-25 0 -38 -14 -38 -42v-474c0 -28 13 -42 38 -42h24c25 0 38 14 38 42v66h96v-66
c0 -81 -38 -122 -115 -122h-6v-31h9c37 0 55 -19 55 -58v-38c0 -36 -19 -54 -56 -55h-66z" />
    <glyph glyph-name="egrave" unicode="&#xe8;" horiz-adv-x="287" 
d="M257 0h-212v718h212v-80h-116v-245h116v-80h-116v-233h116v-80zM200 762h-68l-66 128h88z" />
    <glyph glyph-name="eacute" unicode="&#xe9;" horiz-adv-x="287" 
d="M257 0h-212v718h212v-80h-116v-245h116v-80h-116v-233h116v-80zM241 890l-66 -128h-68l46 128h88z" />
    <glyph glyph-name="ecircumflex" unicode="&#xea;" horiz-adv-x="287" 
d="M257 0h-212v718h212v-80h-116v-245h116v-80h-116v-233h116v-80zM196 762l-42 58l-42 -58h-74l86 112h60l86 -112h-74z" />
    <glyph glyph-name="edieresis" unicode="&#xeb;" horiz-adv-x="287" 
d="M257 0h-212v718h212v-80h-116v-245h116v-80h-116v-233h116v-80zM47 863h80v-100h-80v100zM187 863h80v-100h-80v100z" />
    <glyph glyph-name="igrave" unicode="&#xec;" horiz-adv-x="186" 
d="M141 0h-96v718h96v-718zM145 752h-68l-66 128h88z" />
    <glyph glyph-name="iacute" unicode="&#xed;" horiz-adv-x="186" 
d="M141 0h-96v718h96v-718zM184 882l-66 -128h-68l46 128h88z" />
    <glyph glyph-name="icircumflex" unicode="&#xee;" horiz-adv-x="186" 
d="M141 0h-96v718h96v-718zM130 765l-42 58l-42 -58h-74l86 112h60l86 -112h-74z" />
    <glyph glyph-name="idieresis" unicode="&#xef;" horiz-adv-x="186" 
d="M141 0h-96v718h96v-718zM-20 862h80v-100h-80v100zM120 862h80v-100h-80v100z" />
    <glyph glyph-name="eth" unicode="&#xf0;" horiz-adv-x="387" 
d="M232 0h-187v305h-33v80h33v333h167c90 0 135 -46 135 -138v-476c0 -69 -38 -104 -115 -104zM141 305v-218h72c25 0 38 11 38 32v460c0 35 -14 52 -43 52h-67v-246h69v-80h-69z" />
    <glyph glyph-name="ntilde" unicode="&#xf1;" horiz-adv-x="385" 
d="M244 371v347h96v-718h-96v143l-103 327v-470h-96v718h96zM249 857h52c-1 -59 -37 -89 -77 -90c-30 0 -45 20 -65 20c-13 0 -21 -8 -24 -25h-49c0 57 32 84 71 87c26 0 43 -20 67 -20c13 3 24 11 25 28z" />
    <glyph glyph-name="ograve" unicode="&#xf2;" horiz-adv-x="402" 
d="M241 0h-80c-77 0 -116 41 -116 122v473c0 82 38 123 115 123h82c77 0 115 -41 115 -123v-473c0 -81 -39 -122 -116 -122zM179 80h49c22 0 33 12 33 37v484c0 25 -13 37 -38 37h-45c-25 0 -37 -12 -37 -37v-484c0 -25 13 -37 38 -37zM269 752h-68l-66 128h88z" />
    <glyph glyph-name="oacute" unicode="&#xf3;" horiz-adv-x="402" 
d="M241 0h-80c-77 0 -116 41 -116 122v473c0 82 38 123 115 123h82c77 0 115 -41 115 -123v-473c0 -81 -39 -122 -116 -122zM179 80h49c22 0 33 12 33 37v484c0 25 -13 37 -38 37h-45c-25 0 -37 -12 -37 -37v-484c0 -25 13 -37 38 -37zM297 880l-66 -128h-68l46 128h88z" />
    <glyph glyph-name="ocircumflex" unicode="&#xf4;" horiz-adv-x="402" 
d="M241 0h-80c-77 0 -116 41 -116 122v473c0 82 38 123 115 123h82c77 0 115 -41 115 -123v-473c0 -81 -39 -122 -116 -122zM179 80h49c22 0 33 12 33 37v484c0 25 -13 37 -38 37h-45c-25 0 -37 -12 -37 -37v-484c0 -25 13 -37 38 -37zM240 762l-42 58l-42 -58h-74l86 112
h60l86 -112h-74z" />
    <glyph glyph-name="otilde" unicode="&#xf5;" horiz-adv-x="402" 
d="M241 0h-80c-77 0 -116 41 -116 122v473c0 82 38 123 115 123h82c77 0 115 -41 115 -123v-473c0 -81 -39 -122 -116 -122zM179 80h49c22 0 33 12 33 37v484c0 25 -13 37 -38 37h-45c-25 0 -37 -12 -37 -37v-484c0 -25 13 -37 38 -37zM252 857h52c-1 -59 -37 -89 -77 -90
c-30 0 -45 20 -65 20c-13 0 -21 -8 -24 -25h-49c0 57 32 84 71 87c26 0 43 -20 67 -20c13 3 24 11 25 28z" />
    <glyph glyph-name="odieresis" unicode="&#xf6;" horiz-adv-x="402" 
d="M241 0h-80c-77 0 -116 41 -116 122v473c0 82 38 123 115 123h82c77 0 115 -41 115 -123v-473c0 -81 -39 -122 -116 -122zM179 80h49c22 0 33 12 33 37v484c0 25 -13 37 -38 37h-45c-25 0 -37 -12 -37 -37v-484c0 -25 13 -37 38 -37zM230 862h80v-100h-80v100zM90 862h80
v-100h-80v100z" />
    <glyph glyph-name="divide" unicode="&#xf7;" horiz-adv-x="440" 
d="M415 300h-390v86h390v-86zM169 579h102v-123h-102v123zM169 236h102v-123h-102v123z" />
    <glyph glyph-name="oslash" unicode="&#xf8;" horiz-adv-x="402" 
d="M256 778h45l-12 -65c49 -13 73 -53 73 -118v-473c0 -81 -39 -122 -116 -122h-91l-11 -60h-45l12 65c-47 14 -71 53 -71 117v473c0 82 38 123 115 123h90zM266 591l-95 -504h57c25 0 38 14 38 42v462zM136 136l92 495h-50c-28 0 -42 -14 -42 -42v-453z" />
    <glyph glyph-name="ugrave" unicode="&#xf9;" horiz-adv-x="392" 
d="M251 718h96v-582c0 -90 -47 -136 -137 -136h-29c-90 0 -136 47 -136 137v581h96v-584c0 -30 12 -47 42 -47h24c30 0 44 17 44 47v584zM237 752h-68l-66 128h88z" />
    <glyph glyph-name="uacute" unicode="&#xfa;" horiz-adv-x="392" 
d="M251 718h96v-582c0 -90 -47 -136 -137 -136h-29c-90 0 -136 47 -136 137v581h96v-584c0 -30 12 -47 42 -47h24c30 0 44 17 44 47v584zM292 870l-66 -128h-68l46 128h88z" />
    <glyph glyph-name="ucircumflex" unicode="&#xfb;" horiz-adv-x="392" 
d="M251 718h96v-582c0 -90 -47 -136 -137 -136h-29c-90 0 -136 47 -136 137v581h96v-584c0 -30 12 -47 42 -47h24c30 0 44 17 44 47v584zM237 762l-42 58l-42 -58h-74l86 112h60l86 -112h-74z" />
    <glyph glyph-name="udieresis" unicode="&#xfc;" horiz-adv-x="392" 
d="M251 718h96v-582c0 -90 -47 -136 -137 -136h-29c-90 0 -136 47 -136 137v581h96v-584c0 -30 12 -47 42 -47h24c30 0 44 17 44 47v584zM90 862h80v-100h-80v100zM230 862h80v-100h-80v100z" />
    <glyph glyph-name="yacute" unicode="&#xfd;" horiz-adv-x="350" 
d="M177 406h3l65 312h95l-116 -454v-264h-96v264l-118 454h95zM266 880l-66 -128h-68l46 128h88z" />
    <glyph glyph-name="thorn" unicode="&#xfe;" horiz-adv-x="377" 
d="M140 718v-120h93c76 0 114 -41 114 -123v-129c0 -81 -39 -121 -116 -121h-90v-225h-96v718h95zM141 511v-199h72c25 0 38 14 38 42v115c0 28 -14 42 -43 42h-67z" />
    <glyph glyph-name="ydieresis" unicode="&#xff;" horiz-adv-x="350" 
d="M177 406h3l65 312h95l-116 -454v-264h-96v264l-118 454h95zM65 862h80v-100h-80v100zM205 862h80v-100h-80v100z" />
    <glyph glyph-name="fraction" unicode="&#x2044;" horiz-adv-x="303" 
d="M303 778l-232 -838h-71l231 838h72z" />
    <glyph glyph-name="fraction" unicode="&#x2215;" horiz-adv-x="303" 
d="M303 778l-232 -838h-71l231 838h72z" />
    <glyph glyph-name="fi" unicode="&#xfb01;" horiz-adv-x="474" 
d="M429 0h-96v631h-192v-218h126v-87h-126v-326h-96v718h384v-718z" />
    <glyph glyph-name="fl" unicode="&#xfb02;" horiz-adv-x="571" 
d="M561 87v-87h-228v631h-192v-218h126v-87h-126v-326h-96v718h384v-631h132z" />
    <glyph glyph-name="breve" unicode="&#x2d8;" horiz-adv-x="272" 
d="M36 673h58c7 -35 17 -52 42 -52c21 0 37 17 41 52h59c-11 -77 -59 -111 -100 -111c-47 0 -93 34 -100 111z" />
    <glyph glyph-name="dotaccent" unicode="&#x2d9;" horiz-adv-x="160" 
d="M28 684h102v-122h-102v122z" />
    <glyph glyph-name="ring" unicode="&#x2da;" horiz-adv-x="215" 
d="M185 613c0 -44 -32 -77 -75 -77c-40 0 -76 33 -76 77c0 45 36 78 76 78c43 0 75 -33 75 -78zM144 613c0 20 -15 35 -34 35s-34 -15 -34 -35s15 -35 34 -35s34 15 34 35z" />
    <glyph glyph-name="hungarumlaut" unicode="&#x2dd;" horiz-adv-x="340" 
d="M304 694l-79 -132h-63l56 132h86zM177 694l-78 -132h-63l55 132h86z" />
    <glyph glyph-name="ogonek" unicode="&#x2db;" horiz-adv-x="218" 
d="M116 24h60c-56 -44 -73 -70 -73 -102c0 -22 11 -33 34 -33c13 0 28 5 45 15v-69c-18 -9 -38 -13 -59 -13c-48 0 -87 33 -87 82c0 36 10 72 80 120z" />
    <glyph glyph-name="caron" unicode="&#x2c7;" horiz-adv-x="320" 
d="M118 674l42 -58l42 58h74l-86 -112h-60l-86 112h74z" />
    <glyph glyph-name="Lslash" unicode="&#x141;" horiz-adv-x="277" 
d="M141 406l69 44v-68l-69 -44v-257h116v-81h-212v277l-37 -23v68l37 23v373h96v-312z" />
    <glyph glyph-name="dotlessi" unicode="&#x131;" horiz-adv-x="186" 
d="M141 0h-96v718h96v-718z" />
    <glyph glyph-name="lslash" unicode="&#x142;" horiz-adv-x="277" 
d="M141 406l69 44v-68l-69 -44v-258h116v-80h-212v277l-37 -23v68l37 23v373h96v-312z" />
    <glyph glyph-name="minus" unicode="&#x2212;" horiz-adv-x="400" 
d="M350 320h-300v85h300v-85z" />
    <glyph glyph-name="Zcaron" unicode="&#x17d;" horiz-adv-x="293" 
d="M126 80h152v-80h-247l-6 69l155 568h-139v81h231l5 -68zM160 816l42 58h74l-86 -112h-60l-86 112h74z" />
    <glyph glyph-name="zcaron" unicode="&#x17e;" horiz-adv-x="293" 
d="M126 80h152v-80h-247l-6 69l155 568h-139v81h231l5 -68zM160 826l42 58h74l-86 -112h-60l-86 112h74z" />
    <glyph glyph-name=".null" horiz-adv-x="0" 
 />
    <glyph glyph-name="CR" horiz-adv-x="290" 
 />
  </font>
</defs>
</svg>
