<?xml version="1.0" standalone="no"?>
<!DOCTYPE svg PUBLIC "-//W3C//DTD SVG 1.1//EN" "http://www.w3.org/Graphics/SVG/1.1/DTD/svg11.dtd" >
<svg xmlns="http://www.w3.org/2000/svg" xmlns:xlink="http://www.w3.org/1999/xlink" version="1.1">
<metadata>
Created by FontForge 20190801 at Mon Apr 25 23:37:55 2011
 By Jimmy Wärting
Generated in 2011 by FontLab Studio. Copyright info pending.
</metadata>
<defs>
<font id="Belinda" horiz-adv-x="435" >
  <font-face 
    font-family="Belinda"
    font-weight="400"
    font-stretch="normal"
    units-per-em="1000"
    panose-1="2 0 0 0 0 0 0 0 0 0"
    ascent="750"
    descent="-250"
    x-height="418"
    cap-height="764"
    bbox="-249.044 -399.814 1455.58 1206.01"
    underline-thickness="50"
    underline-position="-100"
    unicode-range="U+000D-FB04"
  />
<missing-glyph horiz-adv-x="273" 
 />
    <glyph glyph-name=".notdef" horiz-adv-x="273" 
 />
    <glyph glyph-name=".null" horiz-adv-x="0" 
 />
    <glyph glyph-name=".null" horiz-adv-x="0" 
 />
    <glyph glyph-name="CR" unicode="&#xd;" horiz-adv-x="273" 
 />
    <glyph glyph-name="space" unicode=" " horiz-adv-x="331" 
 />
    <glyph glyph-name="d" unicode="d" horiz-adv-x="450" 
d="M402 281c0 0 -12 -14 -23 -30c-24 -35 -108 -154 -76 -191c36 -41 152 95 204 169c12 18 59 -30 22 -85c-93 -140 -197 -175 -253 -120c-17 18 -27 38 -30 58c-58 -69 -125 -118 -193 -50c-65 65 -39 138 37 253c40 61 96 110 140 132c35 18 59 14 91 -11
c11 -8 24 -15 34 -24c44 67 203 305 251 357c11 12 37 7 59 -25c20 -27 15 -59 2 -84c-14 -29 -137 -204 -265 -349zM234 199c80 104 76 146 68 153c-17 14 -92 -49 -156 -141c-41 -61 -84 -138 -73 -152c9 -12 63 10 161 140z" />
    <glyph glyph-name="e" unicode="e" horiz-adv-x="355" 
d="M240 450c16 4 41 6 62 -10c77 -55 80 -82 55 -147c-35 -88 -100 -149 -171 -164c-26 -5 -55 18 -72 34c-15 -44 -14 -89 5 -102c52 -35 194 24 300 180c10 15 62 -24 22 -86c-65 -102 -235 -208 -357 -127c-39 25 -61 49 -61 108c0 106 126 289 217 314zM170 257
c-26 -36 -42 -67 -33 -72c15 -8 57 28 94 72c49 58 70 113 62 119c-9 7 -63 -34 -123 -119z" />
    <glyph glyph-name="f" unicode="f" horiz-adv-x="340" 
d="M414 198c35 -4 -1 -71 -28 -73c-43 -3 -148 10 -198 10c126 -84 7 -311 -89 -380c-75 -54 -123 -24 -161 1c-16 11 -35 20 -47 51c-11 26 -8 74 6 115c14 51 51 125 98 207c-3 6 -6 12 -9 17c-9 17 18 30 42 39c112 186 260 395 315 462c23 30 61 3 72 -18
c11 -19 28 -55 -24 -126c-45 -62 -158 -212 -229 -299c80 5 206 -1 252 -6zM144 -33c23 53 38 129 3 141c-23 8 -47 -4 -68 -16c-64 -105 -139 -263 -103 -300c31 -33 117 59 168 175z" />
    <glyph glyph-name="g" unicode="g" horiz-adv-x="422" 
d="M476 226c12 18 59 -30 22 -85c-34 -50 -66 -84 -104 -110c-50 -33 -127 -61 -199 -88c-56 -85 -131 -209 -170 -256c-41 -50 -67 -16 -79 0c-19 24 -6 75 22 130c29 56 62 97 132 138c4 5 19 24 36 47c-27 -6 -56 2 -84 31c-65 65 -39 138 36 252c41 61 97 110 140 132
c35 19 60 14 92 -11c18 -14 48 -27 49 -53c27 -10 53 -39 46 -52c-10 -22 -122 -201 -168 -272c18 8 38 18 44 21c24 11 69 39 95 66c33 35 66 77 90 110zM72 59c9 -11 59 13 158 137l18 25c27 42 68 117 53 131c-17 14 -93 -48 -156 -141c-41 -60 -85 -137 -73 -152z" />
    <glyph glyph-name="h" unicode="h" 
d="M395 739c11 12 37 7 60 -25c19 -27 14 -59 2 -84c-15 -29 -138 -205 -267 -350c-32 -54 -62 -105 -86 -148c105 99 226 221 298 299c6 7 13 6 17 7c21 0 83 -28 59 -63c-47 -69 -137 -189 -171 -262c-14 -30 -27 -57 -17 -66c10 -10 114 55 204 186c14 21 57 -33 23 -84
c-125 -186 -266 -180 -295 -84c-11 37 10 98 31 137c2 5 5 10 8 15c-83 -82 -179 -164 -221 -208c-8 -7 -15 -11 -27 -8c-28 7 -69 37 -59 56c13 25 83 138 138 236c34 60 236 373 303 446z" />
    <glyph glyph-name="i" unicode="i" horiz-adv-x="237" 
d="M242 336c-18 -31 -62 -88 -83 -117c-41 -58 -78 -142 -59 -159c29 -24 142 95 194 169c12 17 59 -30 22 -85c-93 -140 -192 -167 -235 -128c-113 104 -45 188 18 279c38 55 81 101 85 107c21 23 69 -46 58 -66zM357 581c24 -16 28 -54 8 -84c-20 -31 -56 -42 -80 -26
c-25 15 -28 53 -8 83c19 31 55 42 80 27z" />
    <glyph glyph-name="j" unicode="j" horiz-adv-x="218" 
d="M344 608c27 -17 31 -59 9 -92c-22 -34 -61 -47 -88 -29c-27 17 -31 59 -10 92c22 34 62 46 89 29zM272 226c13 18 59 -29 23 -84c-34 -51 -67 -85 -105 -110c-48 -33 -104 -57 -173 -84c-53 -102 -112 -213 -159 -281c-37 -53 -76 -12 -88 4c-19 25 -6 75 22 130
c26 50 55 96 94 136l278 484c25 32 100 -29 82 -60s-96 -154 -126 -210c-15 -27 -35 -67 -58 -113c9 4 18 8 26 12c24 12 69 39 95 67c33 34 66 76 89 109z" />
    <glyph glyph-name="k" unicode="k" horiz-adv-x="466" 
d="M37 199c81 142 288 472 357 541c11 11 37 6 59 -26c20 -27 15 -59 2 -84c-14 -27 -122 -164 -238 -288c54 47 104 83 128 96c54 28 59 10 78 -11c4 -5 7 -9 9 -13c28 -19 59 -56 30 -104c-28 -46 -118 -169 -238 -162c0 -44 27 -81 51 -92c22 -9 51 -6 114 33
c50 32 93 82 140 152c11 15 67 -16 28 -78c-31 -50 -76 -109 -141 -138c-69 -31 -140 -38 -201 7c-42 31 -64 75 -72 120c-42 -54 -75 -107 -98 -140c-13 -19 -28 -10 -35 -5c-63 49 15 172 27 192zM289 310c-32 -29 -65 -63 -89 -89c32 6 65 15 111 52c64 51 78 88 70 94
c-6 5 -49 -19 -92 -57z" />
    <glyph glyph-name="l" unicode="l" horiz-adv-x="239" 
d="M392 737c11 12 37 7 59 -25c19 -27 15 -59 2 -84c-14 -28 -133 -198 -259 -342c-15 -19 -27 -34 -28 -36c-24 -36 -108 -155 -77 -191c36 -41 152 94 204 168c12 18 59 -30 22 -85c-93 -139 -197 -175 -252 -119c-14 14 -22 29 -27 44c-15 39 -18 90 3 132
c45 87 286 470 353 538z" />
    <glyph glyph-name="n" unicode="n" horiz-adv-x="433" 
d="M-48 57c22 42 199 339 222 373c19 28 82 -32 57 -81c-25 -50 -77 -139 -118 -207c102 98 217 215 286 289c19 23 104 -19 77 -56c-49 -68 -137 -190 -172 -262c-14 -30 -27 -57 -17 -66c11 -10 115 55 205 186c14 21 57 -33 23 -85c-125 -186 -267 -179 -296 -83
c-10 36 10 98 31 137l9 15c-86 -86 -184 -176 -230 -214c-18 -14 -92 25 -77 54z" />
    <glyph glyph-name="m" unicode="m" horiz-adv-x="666" 
d="M724 233c14 21 57 -34 23 -85c-125 -186 -266 -179 -295 -83c-11 36 10 98 31 137c5 9 10 19 15 28c-88 -84 -183 -167 -229 -207c-11 -9 -24 -11 -39 -1c-16 11 -38 31 -26 63c10 26 41 86 72 145c-91 -91 -176 -174 -243 -226c-7 -5 -15 -5 -23 -3c-28 6 -67 34 -56 56
c22 42 199 339 222 373c19 28 82 -32 58 -81c-25 -49 -76 -135 -116 -202c82 77 197 189 250 235c20 18 38 25 52 16c35 -24 37 -42 28 -58c-13 -21 -68 -112 -119 -200c106 96 231 214 305 293c17 18 101 -20 74 -58c-47 -69 -137 -190 -171 -262c-14 -30 -27 -57 -17 -66
c10 -10 114 55 204 186z" />
    <glyph glyph-name="r" unicode="r" horiz-adv-x="393" 
d="M447 228c12 18 60 -30 24 -85c-93 -140 -220 -167 -273 -127c-80 62 5 200 71 300c-20 2 -41 9 -61 27c-33 -61 -104 -164 -135 -205c-13 -18 -91 -3 -64 30c85 104 111 173 129 217c-13 14 -20 30 -14 53c21 82 89 142 121 132c40 -12 52 -59 28 -127
c-4 -12 -11 -30 -32 -67c26 -8 63 16 99 42c3 3 6 3 9 3c7 0 13 -4 18 -10c36 -35 38 -80 32 -90c-24 -35 -191 -233 -165 -274s166 104 213 181z" />
    <glyph glyph-name="o" unicode="o" horiz-adv-x="419" 
d="M479 236c8 14 62 -25 23 -86c-36 -54 -127 -127 -190 -51c-23 -32 -50 -63 -75 -79c-77 -52 -132 -17 -149 -3c-17 13 -69 36 -64 103c11 132 105 237 150 277c46 40 80 43 117 22c107 -61 108 -119 73 -225c-4 -10 -9 -22 -16 -35c4 -11 9 -21 16 -24
c21 -8 63 18 115 101zM117 55c27 -21 103 72 136 122c4 6 8 13 13 21c-14 40 -27 94 -20 135c-25 -20 -55 -52 -85 -101c-41 -65 -68 -159 -44 -177z" />
    <glyph glyph-name="s" unicode="s" horiz-adv-x="307" 
d="M318 471c16 -15 27 -34 14 -50c-84 -107 -61 -182 -69 -287c-4 -44 10 -115 -46 -138c-76 -31 -163 -1 -206 70c-4 6 -4 8 -6 12c-14 -3 -73 3 -57 19c97 94 242 340 289 396c17 21 59 0 81 -22zM117 40c47 -4 57 84 63 164c2 19 3 38 5 56c-44 -54 -85 -103 -123 -143
c10 -31 23 -75 55 -77z" />
    <glyph glyph-name="p" unicode="p" horiz-adv-x="382" 
d="M359 410c48 -32 102 -70 -13 -248c-35 -55 -161 -184 -248 -158c-26 7 -43 23 -53 42c-67 -110 -162 -265 -230 -345c-41 -49 -63 8 -64 29c-2 26 64 153 97 205c13 21 36 54 64 91l286 411c11 5 28 -4 40 -19c52 23 91 12 121 -8zM324 375c-25 18 -113 -76 -161 -147
c-61 -88 -86 -154 -69 -166c63 -43 274 281 230 313z" />
    <glyph glyph-name="x" unicode="x" horiz-adv-x="462" 
d="M448 417c25 18 138 -12 110 -33c-130 -93 -205 -162 -295 -239c-5 -57 2 -105 38 -105c76 0 194 154 214 187c14 23 56 -35 23 -84c-71 -105 -154 -143 -211 -143c-59 0 -108 35 -136 83c-49 -41 -86 -72 -110 -88c-16 -10 -73 32 -53 52c48 48 93 92 136 132v2
c1 57 19 149 36 188c-24 -33 -35 -49 -55 -91c-16 -33 -55 45 -29 91c17 32 44 62 84 87c55 35 79 10 97 -15c18 -24 26 -37 14 -73c-3 -7 -17 -58 -22 -77c62 52 85 74 159 126z" />
    <glyph glyph-name="q" unicode="q" horiz-adv-x="380" 
d="M416 301c-11 -24 -107 -173 -142 -227c-48 -74 -201 -340 -297 -454c-42 -50 -63 8 -64 28c-2 27 21 70 110 204c32 49 70 95 106 137l9 13c-28 -6 -57 2 -86 31c-65 65 -38 138 37 252c40 61 97 110 140 132c35 19 59 14 91 -11c19 -14 49 -27 50 -53
c27 -10 52 -39 46 -52zM73 59c9 -11 58 13 157 137l18 25c28 42 68 117 53 131c-16 14 -92 -48 -155 -141c-42 -60 -85 -137 -73 -152z" />
    <glyph glyph-name="u" unicode="u" 
d="M384 252c-24 -36 -119 -173 -79 -201c27 -19 131 100 182 174c13 18 60 -30 23 -85c-93 -139 -186 -162 -233 -128c-22 16 -35 35 -43 57c-58 -60 -125 -99 -185 -42c-60 55 -34 150 43 263c54 81 78 110 97 128c30 28 85 -35 70 -58l-108 -148
c-42 -60 -84 -137 -73 -152c9 -12 59 12 159 137l153 222c27 19 89 -35 76 -53c-5 -7 -44 -57 -82 -114z" />
    <glyph glyph-name="v" unicode="v" horiz-adv-x="414" 
d="M441 353c-4 -13 -42 -89 -92 -163c3 -18 8 -38 19 -42c22 -8 63 18 115 101c9 14 60 -29 20 -90c-38 -58 -137 -133 -199 -29c-71 -89 -165 -185 -254 -93c-55 56 -33 146 42 256c53 78 78 105 94 124c31 34 81 -31 68 -56l-104 -144c-42 -58 -83 -133 -64 -150
c41 -36 143 95 225 227c19 68 49 135 83 131c13 -2 62 -21 47 -72z" />
    <glyph glyph-name="w" unicode="w" horiz-adv-x="592" 
d="M290 141c-26 -37 -35 -67 -22 -78c37 -31 137 99 218 229c20 68 50 137 84 131c13 -2 61 -19 47 -72c-4 -13 -43 -89 -93 -163c3 -18 9 -38 20 -42c21 -8 63 18 115 101c9 14 61 -24 23 -86c-37 -59 -140 -137 -202 -33c-71 -89 -166 -185 -255 -94c-4 5 -8 10 -11 15
c-50 -52 -103 -77 -164 -15c-55 57 -33 147 42 257c53 79 78 106 94 124c30 33 82 -30 68 -55l-104 -145c-42 -58 -83 -133 -64 -150c31 -27 87 39 146 130c13 26 30 54 49 86c14 23 27 44 37 61c14 26 28 51 40 73c14 27 70 -31 58 -64c-5 -15 -71 -129 -126 -210z" />
    <glyph glyph-name="t" unicode="t" horiz-adv-x="309" 
d="M308 421c61 -2 122 -68 56 -68c-16 0 -67 -2 -107 -2c-43 -58 -85 -117 -96 -131c-42 -58 -81 -142 -61 -160c28 -25 126 -20 256 158c13 18 65 -22 24 -81c-97 -139 -258 -161 -300 -121c-113 106 -43 190 21 281c10 14 26 35 44 60c-74 0 -72 68 -48 68
c33 0 32 2 100 1c44 59 87 115 90 119c23 26 79 -38 68 -57c-6 -10 -24 -35 -47 -67z" />
    <glyph glyph-name="z" unicode="z" horiz-adv-x="413" 
d="M135 22c-22 -8 -97 37 -73 51c81 48 151 108 204 186c56 83 50 107 40 119c-16 18 -71 30 -170 -91c-17 -20 -40 69 -3 112c62 69 156 56 175 47c93 -41 101 -114 53 -202c-33 -59 -71 -117 -117 -154c10 -1 18 -3 27 -6c12 -5 23 -11 33 -19c84 56 122 102 162 161
c13 18 63 -31 23 -85c-46 -62 -91 -94 -148 -130c11 -30 13 -67 2 -108c-23 -86 -160 -243 -263 -206c-131 47 -16 164 41 224c39 40 75 75 129 109c-23 13 -62 9 -115 -8zM254 -78c7 15 12 29 15 41c-40 -32 -78 -71 -109 -107c-51 -59 -84 -98 -73 -112
c11 -13 67 45 104 85c25 26 47 59 63 93z" />
    <glyph glyph-name="y" unicode="y" horiz-adv-x="439" 
d="M492 226c13 18 59 -30 23 -85c-34 -50 -67 -84 -105 -110c-49 -33 -126 -61 -198 -88c-56 -85 -131 -209 -170 -256c-41 -50 -67 -16 -79 0c-19 24 -6 75 22 130c29 56 62 97 132 138c4 6 22 28 42 55c-36 -17 -73 -16 -108 17c-59 55 -34 150 43 263
c55 80 80 108 97 127c26 30 87 -35 70 -57l-107 -148c-43 -60 -85 -137 -74 -152c10 -12 59 12 158 136l154 222c11 21 91 -22 75 -53c-19 -28 -78 -126 -115 -187c-14 -23 -58 -93 -94 -152c19 9 43 20 50 24c24 11 69 39 95 66c33 35 66 77 89 110z" />
    <glyph glyph-name="A" unicode="A" horiz-adv-x="905" 
d="M980 259c18 26 58 -35 17 -94c-89 -126 -180 -156 -269 -142c-14 -27 -28 -53 -42 -77c-15 -26 -94 31 -68 82c4 8 9 17 13 25c-48 22 -93 51 -133 77c-74 -83 -157 -170 -259 -204c-135 -43 -293 85 -183 220c91 111 229 135 362 92c13 -4 26 -9 38 -15
c39 44 78 89 118 131c94 101 204 239 313 325c47 37 98 51 141 -4c43 -54 -48 -185 -72 -230c-56 -106 -125 -235 -190 -354c109 1 160 93 214 168zM220 10c73 46 136 106 196 170c-11 5 -21 10 -30 13c-84 24 -191 -21 -246 -95c-57 -80 -39 -163 80 -88zM663 113l260 475
c-64 -53 -354 -378 -383 -410c38 -24 77 -48 123 -65z" />
    <glyph glyph-name="B" unicode="B" horiz-adv-x="560" 
d="M17 530c73 157 255 206 380 197c112 -8 307 -118 280 -276c-19 -111 -149 -214 -326 -275c60 -15 113 -40 143 -84c42 -60 -10 -126 -71 -149c-87 -32 -177 -29 -264 1c-76 27 -145 85 -138 171c3 36 62 119 92 163c-114 76 -133 168 -96 252zM141 142l-12 -21
c-108 -171 241 -182 284 -58c27 77 -175 77 -272 79zM179 203c172 24 422 157 393 331c-27 164 -230 156 -349 84c-74 -46 -221 -207 -87 -305c54 86 153 246 166 266c19 32 81 -47 61 -79c-69 -107 -122 -197 -184 -297z" />
    <glyph glyph-name="C" unicode="C" horiz-adv-x="683" 
d="M764 268c22 35 51 -34 9 -103c-128 -211 -431 -397 -611 -128c-46 69 -27 183 14 285c-75 74 -65 201 -13 282c66 104 185 97 153 69c-76 -65 -172 -207 -113 -292c16 30 33 58 50 81c86 119 255 261 402 255c83 -3 175 -56 140 -156c-45 -131 -166 -249 -303 -282
c-95 -22 -168 -22 -224 -8c-49 -107 -59 -205 -18 -257c43 -55 184 -49 340 65c60 43 120 105 174 189zM501 561c-87 -68 -157 -152 -205 -236c82 -16 186 19 259 71c70 49 158 139 166 224c9 96 -158 -11 -220 -59z" />
    <glyph glyph-name="T" unicode="T" horiz-adv-x="505" 
d="M825 702c29 1 105 -83 65 -86c-104 -9 -201 -16 -300 -34c15 -8 23 -22 10 -44c-115 -187 -238 -393 -362 -596c-14 -25 -98 25 -84 48l353 574c-50 -13 -101 -29 -154 -51c-238 -95 -294 -177 -280 -194c17 -18 195 104 224 126c29 24 48 -57 -25 -119
c-29 -25 -156 -96 -237 -45c-69 43 -15 133 49 184c222 178 552 225 741 237z" />
    <glyph glyph-name="E" unicode="E" horiz-adv-x="561" 
d="M366 302c25 -3 6 -94 -25 -100c-226 -49 -242 -147 -210 -186c44 -56 183 -50 339 64c60 44 120 105 173 189c22 35 55 -30 13 -99c-96 -155 -391 -427 -612 -131c-68 91 56 186 177 218c-73 54 -90 124 -71 194c-55 50 -80 115 -46 178c43 80 121 53 103 31
c-44 -53 -47 -102 -27 -140c89 146 317 256 465 130c127 -109 -108 -315 -303 -286c-40 6 -78 18 -113 34c-3 -43 31 -84 137 -96zM403 594c-61 -34 -120 -86 -151 -136c15 -7 31 -11 47 -14c180 -27 323 122 296 184c-11 25 -91 23 -192 -34z" />
    <glyph glyph-name="M" unicode="M" horiz-adv-x="901" 
d="M660 673c16 19 95 -27 82 -51c-86 -155 -175 -307 -261 -462c175 175 351 375 500 550c17 19 96 -28 82 -52c-85 -151 -182 -296 -266 -449c-31 -57 -129 -210 -75 -210c6 0 21 -4 75 49c72 70 132 136 185 220c22 35 54 -37 10 -106c-84 -130 -203 -218 -266 -218
c-98 0 -109 102 -75 187c33 82 74 160 120 236c-129 -146 -264 -290 -404 -416c-3 -2 -6 -3 -8 -4c-26 -5 -87 33 -76 55c58 109 119 217 180 325c-117 -134 -238 -261 -372 -383c-17 -16 -85 37 -71 62c9 15 55 89 118 196c133 226 246 355 223 374
c-32 27 -119 -65 -155 -116c-46 -66 -72 -117 -101 -193c-20 -53 -66 48 -38 127c83 227 282 281 335 218c67 -79 4 -151 -26 -203c-27 -47 -89 -145 -147 -235c151 159 288 331 431 499z" />
    <glyph glyph-name="K" unicode="K" horiz-adv-x="620" 
d="M529 657c-69 -115 -160 -266 -271 -451c3 -4 5 -8 8 -12c26 14 51 29 76 46c161 118 291 292 397 459c25 39 55 -63 24 -122c-90 -175 -236 -342 -476 -451c28 -113 41 -138 76 -138c33 0 98 26 170 88c69 59 114 108 168 192c22 35 53 -37 10 -105
c-132 -205 -433 -355 -511 -65c-3 0 -5 0 -7 1c-29 -49 -60 -100 -91 -154c-15 -24 -95 33 -75 65c26 42 52 85 77 127c-21 11 -43 29 -28 57c26 46 64 63 100 60c64 107 128 213 192 320c-13 -7 -26 -13 -39 -21c-36 -19 -164 -73 -157 -127c3 -25 -82 9 -86 38
c-8 58 100 108 139 130c73 41 149 77 224 114c22 11 91 -33 80 -51z" />
    <glyph glyph-name="D" unicode="D" horiz-adv-x="643" 
d="M361 727c266 0 424 -254 292 -493c-104 -189 -317 -301 -522 -253c-66 16 -130 85 -101 131c34 52 68 107 101 161c-109 71 -142 166 -99 257c63 135 209 197 329 197zM590 366c27 124 -3 297 -177 298c-61 1 -126 -18 -176 -49c-86 -51 -218 -223 -84 -306
c53 88 106 178 159 267c22 36 83 -40 61 -79l-266 -453c141 -30 298 41 389 150c41 50 80 108 94 172z" />
    <glyph glyph-name="F" unicode="F" horiz-adv-x="700" 
d="M408 283l166 270c15 24 79 -50 53 -90c-53 -84 -88 -145 -125 -206c68 4 143 11 186 19c23 5 2 -83 -69 -91c-61 -6 -113 -4 -161 -2c-20 -34 -43 -70 -71 -113c-62 -95 -161 -190 -282 -137c-58 25 -110 94 -65 166c63 101 195 142 334 155c-113 102 -124 214 -98 279
c98 247 523 195 623 169c27 -8 83 -96 45 -88c-137 29 -508 80 -572 -126c-15 -49 -16 -122 36 -205zM215 12c53 45 94 105 131 168c-169 -28 -258 -157 -236 -188c28 -39 83 2 105 20z" />
    <glyph glyph-name="G" unicode="G" horiz-adv-x="667" 
d="M470 279c-94 -22 -168 -22 -223 -8c-49 -106 -59 -205 -19 -256c41 -53 155 -34 377 244c14 24 83 -50 61 -79c-77 -100 -183 -255 -294 -498c-11 -25 -90 31 -74 65c47 97 77 157 105 209c-91 -45 -184 -35 -262 82c-46 69 -27 182 14 284c-75 74 -65 200 -13 281
c66 103 184 97 152 70c-75 -66 -171 -207 -112 -293c16 31 32 58 49 82c86 118 255 260 402 254c83 -3 174 -56 139 -156c-45 -130 -166 -248 -302 -281zM479 561c-87 -68 -156 -153 -204 -236c82 -16 185 19 258 70c69 49 157 140 165 224c9 96 -158 -11 -219 -58z" />
    <glyph glyph-name="H" unicode="H" horiz-adv-x="952" 
d="M755 709c21 13 95 -29 77 -59c-80 -137 -198 -335 -285 -475c42 -26 85 -52 139 -69c121 199 240 397 361 600c15 24 89 -40 62 -86c-112 -186 -215 -354 -322 -533c108 -1 171 67 238 168c16 25 59 -34 15 -96c-97 -136 -200 -163 -297 -145c-14 -23 -27 -45 -41 -68
c-14 -24 -94 32 -74 65c6 11 13 22 20 33c-49 22 -94 51 -135 78c-231 -332 -464 -177 -486 -103c-11 38 -5 82 32 127c91 111 229 135 362 92c14 -5 28 -10 41 -16c60 96 136 225 205 341c-5 -3 -11 -6 -16 -9c-26 -16 -146 -77 -133 -120c5 -17 -67 -12 -80 35
c-16 62 72 101 114 126c66 41 136 74 203 114zM117 -4c28 -34 187 2 313 178c-15 8 -29 15 -41 19c-84 24 -192 -21 -246 -96c-29 -39 -42 -82 -26 -101z" />
    <glyph glyph-name="I" unicode="I" horiz-adv-x="577" 
d="M875 680c5 -46 -47 -60 -82 -67c-10 -2 -29 -4 -54 -7c-42 -62 -81 -134 -109 -180c-39 -65 -79 -129 -118 -194c-52 -86 -102 -171 -176 -242c-77 -74 -153 -61 -241 -13c-140 78 -51 252 80 306c94 39 199 -1 130 -22c-200 -60 -229 -212 -185 -253
c36 -32 116 12 149 47c38 40 71 83 101 129c49 77 95 156 142 234c28 46 68 113 106 173c-91 -16 -170 -42 -110 -94c18 -15 -13 -25 -41 -17c-40 12 -86 56 -51 118c35 59 151 61 249 64l12 18c19 26 50 81 89 84c44 4 105 -38 109 -84z" />
    <glyph glyph-name="J" unicode="J" horiz-adv-x="750" 
d="M1021 681c4 -46 -47 -60 -83 -67c-9 -2 -29 -4 -53 -7c-28 -44 -52 -91 -76 -132c-29 -47 -157 -252 -242 -389c174 13 233 135 252 161c16 22 55 -37 22 -85c-95 -141 -205 -150 -320 -150c-11 -19 -21 -34 -26 -43c-52 -86 -102 -171 -176 -242
c-77 -74 -153 -61 -241 -13c-101 54 -71 186 22 264c107 91 235 105 355 107c89 143 204 330 235 382c25 41 49 83 74 125c-91 -15 -171 -42 -111 -94c18 -15 -13 -26 -41 -17c-40 11 -87 56 -51 118c34 59 151 61 249 64l12 18c19 27 51 82 89 85c44 3 105 -38 110 -85z
M252 -208c38 40 71 83 101 129c11 17 30 48 55 87c-89 -8 -169 -30 -224 -78c-63 -55 -84 -162 -59 -187c37 -37 94 14 127 49z" />
    <glyph glyph-name="L" unicode="L" horiz-adv-x="674" 
d="M779 300c22 35 54 -37 10 -105c-120 -186 -378 -327 -484 -135c-36 -49 -80 -94 -141 -107c-70 -14 -145 50 -141 115c5 83 72 186 157 224c56 25 100 5 138 -42c15 25 30 50 44 76c-16 8 -31 18 -47 31c-93 77 -94 172 -49 269c41 88 182 92 144 55
c-60 -60 -113 -145 -88 -235c13 -47 36 -67 64 -74c17 35 33 70 48 106c36 88 80 234 174 253c37 7 96 -37 112 -65c39 -73 -22 -194 -68 -247c-54 -62 -121 -107 -191 -113c-28 -53 -60 -105 -94 -156c27 -106 40 -130 75 -130c32 0 97 26 169 88c69 59 115 108 168 192z
M652 655c-30 15 -109 -171 -147 -258c113 67 172 245 147 258zM105 8c26 -9 92 65 160 162c-17 35 -38 50 -79 17c-15 -12 -31 -29 -46 -48c-68 -91 -44 -128 -35 -131z" />
    <glyph glyph-name="S" unicode="S" horiz-adv-x="530" 
d="M471 624c-104 -61 -301 -243 -265 -381c22 -83 132 -84 222 -135c42 -23 47 -65 36 -98c-50 -142 -344 -36 -437 37c-16 12 46 39 72 25c61 -33 248 -118 277 -38c12 34 -78 55 -107 67c-59 25 -123 68 -154 133c-66 137 142 348 233 409c109 73 274 140 338 5
c60 -129 -132 -377 -327 -417c-67 -14 -156 34 -118 42c140 27 261 128 325 253c10 19 58 105 38 129c-9 10 -41 23 -133 -31z" />
    <glyph glyph-name="O" unicode="O" horiz-adv-x="600" 
d="M683 268c20 33 60 -32 10 -105c-89 -132 -217 -187 -336 -182c-86 -50 -182 -63 -270 -12c-77 44 -77 141 -39 241c-8 23 -14 48 -18 74c-15 115 22 195 70 266c90 133 318 284 482 93c128 -148 35 -427 -127 -586c78 32 159 101 228 211zM120 11c19 -13 55 -14 101 4
c-50 24 -94 60 -127 106c-12 -58 5 -94 26 -110zM282 46c54 35 114 90 170 171c116 167 132 348 88 400c-57 68 -175 45 -252 -11c-80 -58 -163 -168 -175 -272c44 65 99 122 150 151c52 31 105 5 89 -10c-82 -72 -140 -137 -181 -195c-17 -23 -31 -46 -42 -66
c28 -87 84 -145 153 -168z" />
    <glyph glyph-name="N" unicode="N" horiz-adv-x="663" 
d="M98 -55c-25 -21 -86 34 -72 62c5 8 75 128 120 205c101 175 294 417 268 438c-31 26 -119 -65 -154 -116c-47 -66 -73 -117 -101 -193c-20 -53 -67 48 -38 127c83 227 281 281 335 218c66 -79 4 -151 -26 -203c-27 -48 -138 -221 -195 -310c178 172 366 370 511 538
c16 19 93 -29 81 -52c-86 -151 -183 -296 -267 -449c-31 -57 -129 -211 -75 -211c6 0 21 -3 75 50c72 70 132 136 185 220c22 35 53 -36 9 -104c-84 -130 -202 -220 -265 -220c-98 0 -109 102 -75 187c36 91 84 178 136 263c-146 -159 -301 -318 -452 -450z" />
    <glyph glyph-name="P" unicode="P" horiz-adv-x="663" 
d="M463 723c155 -15 309 -161 283 -319c-19 -109 -138 -337 -551 -310c-26 -44 -74 -124 -87 -143c-17 -28 -97 25 -84 48c20 35 145 240 176 284c-114 76 -134 168 -97 252c73 157 235 200 360 188zM229 149c258 5 458 196 430 367c-28 165 -231 179 -350 107
c-74 -46 -221 -207 -87 -305c54 86 153 246 166 266c19 32 82 -47 62 -79c-64 -99 -158 -254 -221 -356z" />
    <glyph glyph-name="Q" unicode="Q" horiz-adv-x="595" 
d="M547 -69c31 25 50 -60 -41 -106c-81 -40 -206 7 -309 112c-37 1 -75 11 -112 32c-75 44 -76 139 -40 237c-7 25 -13 51 -16 78c-16 115 22 195 70 266c90 134 318 284 482 94c167 -194 -42 -609 -290 -693c85 -63 183 -76 256 -20zM110 12c8 -8 20 -12 34 -13
c-20 28 -39 59 -56 92c-3 -40 9 -66 22 -79zM223 17c112 26 395 325 342 540c-34 138 -184 118 -278 49c-80 -57 -163 -167 -175 -272c44 66 99 122 150 152c52 31 105 4 88 -10c-118 -105 -186 -194 -224 -265c21 -77 55 -143 97 -194z" />
    <glyph glyph-name="R" unicode="R" horiz-adv-x="713" 
d="M794 267c22 35 53 -36 9 -104c-126 -196 -457 -359 -593 -67c-4 1 -8 1 -13 1c-26 -44 -73 -124 -86 -143c-17 -27 -97 25 -84 48c20 36 145 240 175 284c-113 76 -133 168 -96 252c73 156 234 199 359 187c155 -15 309 -161 283 -318c-17 -99 -116 -294 -439 -311
c34 -74 76 -108 104 -108c98 -11 318 150 381 279zM312 625c-74 -45 -221 -207 -87 -304c53 86 153 245 165 266c20 31 82 -48 62 -79c-64 -99 -158 -254 -220 -356c258 5 457 196 429 367c-27 164 -231 178 -349 106z" />
    <glyph glyph-name="U" unicode="U" horiz-adv-x="606" 
d="M754 618c-69 -142 -143 -254 -231 -373c-7 -11 -13 -23 -20 -35c-31 -57 -129 -211 -74 -211c5 0 20 -3 75 49c71 71 131 136 184 221c22 34 54 -37 10 -105c-84 -130 -202 -219 -266 -219c-61 0 -88 39 -92 89c-16 -17 -31 -31 -40 -39c-63 -51 -183 -107 -258 21
c-36 61 -1 138 31 196c98 177 296 411 268 438c-29 28 -119 -65 -155 -117c-46 -66 -72 -117 -101 -193c-19 -52 -66 49 -37 127c82 228 276 293 333 212c60 -84 14 -149 -16 -201c-37 -65 -192 -287 -192 -287c-26 -45 -103 -151 -63 -188c34 -32 193 81 352 341
c3 4 6 8 8 12c70 119 150 233 215 352c16 28 92 -43 69 -90z" />
    <glyph glyph-name="V" unicode="V" horiz-adv-x="570" 
d="M544 234c-265 -366 -430 -329 -503 -222c-40 59 0 139 31 196c98 178 297 412 269 439c-29 28 -119 -66 -155 -117c-46 -66 -72 -117 -101 -193c-20 -52 -66 49 -38 127c83 228 277 293 334 212c60 -84 14 -149 -16 -201c-37 -65 -192 -288 -192 -288
c-27 -45 -109 -158 -64 -188c52 -34 417 244 513 657c13 53 95 -37 87 -68c-37 -145 -98 -262 -165 -354z" />
    <glyph glyph-name="X" unicode="X" horiz-adv-x="677" 
d="M869 725c44 29 162 -19 136 -34c-162 -98 -324 -224 -465 -344c-7 -81 -22 -161 -30 -232c-3 -29 -19 -98 11 -98c25 0 116 72 238 252c26 37 52 -45 10 -106c-80 -118 -206 -268 -319 -142c-46 52 -28 164 -20 230c-175 -156 -300 -284 -323 -301
c-26 -18 -103 28 -87 45c146 154 284 285 434 415c13 87 22 178 -1 183c-51 11 -160 -132 -203 -187c-58 -76 -108 -155 -150 -240c-20 -40 -90 43 -30 152c65 115 151 226 258 298c80 55 177 50 203 -61c5 -23 8 -47 10 -71c99 80 206 160 328 241z" />
    <glyph glyph-name="W" unicode="W" horiz-adv-x="870" 
d="M602 559c30 45 86 -34 71 -82c-29 -97 -81 -177 -130 -244c-51 -71 -98 -126 -142 -169c-11 -29 -14 -54 5 -66c51 -34 415 243 512 656c12 52 94 -37 86 -68c-37 -145 -98 -261 -164 -353c-264 -364 -428 -329 -501 -223c-148 -115 -247 -75 -298 1
c-40 59 -1 138 31 196c97 177 295 411 268 437c-29 29 -119 -65 -155 -116c-46 -66 -72 -117 -101 -193c-19 -52 -66 49 -37 127c82 227 275 293 333 212c59 -84 14 -149 -16 -201c-37 -65 -192 -287 -192 -287c-26 -46 -109 -158 -64 -188c26 -17 126 42 233 154
c9 19 19 38 28 55c65 118 173 264 233 352z" />
    <glyph glyph-name="Y" unicode="Y" horiz-adv-x="595" 
d="M682 696c22 36 85 -56 71 -85c-34 -66 -84 -149 -122 -217c-107 -192 -277 -500 -379 -725c-12 -25 -98 38 -81 73c36 74 72 151 108 228c-65 -46 -172 -83 -241 34c-36 61 0 138 31 196c98 177 296 411 269 438c-30 28 -119 -65 -155 -117c-46 -66 -72 -117 -101 -193
c-20 -52 -66 49 -38 127c83 228 276 293 334 212c60 -84 14 -149 -16 -201c-37 -65 -192 -287 -192 -287c-27 -46 -104 -152 -64 -188c35 -32 192 81 353 341c20 31 223 364 223 364z" />
    <glyph glyph-name="Z" unicode="Z" horiz-adv-x="616" 
d="M768 699c23 14 106 -42 78 -60c-203 -130 -339 -318 -489 -502c18 -66 44 -138 81 -138c6 0 21 -4 75 49c72 70 132 136 185 220c22 35 56 -33 12 -101c-84 -131 -205 -223 -268 -223c-68 0 -108 62 -138 127c-61 -76 -159 -194 -250 -99c-57 59 -23 155 47 233
c66 73 150 84 204 39c2 3 5 6 7 9c84 104 168 206 263 295c-95 24 -177 133 -241 100c-51 -26 -46 -244 -36 -340c5 -54 -81 20 -90 94c-14 121 17 301 161 303c112 2 221 -124 318 -59c28 18 52 36 81 53zM177 76c19 25 46 62 73 97c-34 26 -75 -16 -100 -47
c-33 -40 -69 -104 -54 -118c11 -10 41 15 81 68z" />
    <glyph glyph-name="dieresis" unicode="&#xa8;" horiz-adv-x="833" 
d="M115 572c20 -13 23 -44 7 -69c-17 -25 -46 -34 -66 -21c-21 13 -24 44 -7 69c16 25 45 34 66 21zM225 511c20 -13 23 -44 7 -69c-17 -25 -46 -35 -66 -22c-21 14 -24 44 -7 70c16 25 45 34 66 21z" />
    <glyph glyph-name="adieresis" unicode="&#xe4;" horiz-adv-x="430" 
d="M404 589c20 -13 23 -44 7 -69c-17 -25 -46 -34 -66 -21c-21 13 -24 44 -7 69c16 25 45 34 66 21zM514 528c20 -13 23 -44 7 -69c-17 -25 -46 -35 -66 -22c-21 14 -24 44 -7 70c16 25 45 34 66 21zM483 226c12 19 59 -30 22 -85c-93 -140 -186 -163 -233 -129
c-22 16 -30 38 -31 63c-57 -66 -122 -110 -188 -44c-65 66 -39 139 37 254c40 61 97 111 140 133c36 18 60 13 92 -12c19 -14 49 -26 50 -53c27 -10 55 -40 46 -53c-9 -12 -41 -52 -71 -100c-35 -54 -76 -129 -47 -149c26 -18 131 101 183 175zM73 58c9 -12 59 12 159 137
l18 26c27 42 68 117 53 131c-17 14 -93 -48 -156 -141c-42 -61 -85 -138 -74 -153z" />
    <glyph glyph-name="odieresis" unicode="&#xf6;" horiz-adv-x="419" 
d="M357 572c20 -13 23 -44 7 -69c-17 -25 -46 -34 -66 -21c-21 13 -24 44 -7 69c16 25 45 34 66 21zM467 511c20 -13 23 -44 7 -69c-17 -25 -46 -35 -66 -22c-21 14 -24 44 -7 70c16 25 45 34 66 21zM475 236c8 14 62 -25 23 -86c-36 -54 -127 -127 -190 -51
c-23 -32 -50 -63 -75 -79c-77 -52 -132 -17 -149 -3c-17 13 -69 36 -64 103c11 132 105 237 150 277c46 40 80 43 117 22c107 -61 108 -119 73 -225c-4 -10 -9 -22 -16 -35c4 -11 9 -21 16 -24c21 -8 63 18 115 101zM113 55c27 -21 103 72 136 122c4 6 8 13 13 21
c-14 40 -27 94 -20 135c-25 -20 -55 -52 -85 -101c-41 -65 -68 -159 -44 -177z" />
    <glyph glyph-name="udieresis" unicode="&#xfc;" 
d="M342 572c20 -13 23 -44 7 -69c-17 -25 -46 -34 -66 -21c-21 13 -24 44 -7 69c16 25 45 34 66 21zM504 561c20 -13 23 -44 7 -69c-17 -25 -46 -35 -66 -22c-21 14 -24 44 -7 70c16 25 45 34 66 21zM384 252c-24 -36 -119 -173 -79 -201c27 -19 131 100 182 174
c13 18 60 -30 23 -85c-93 -139 -186 -162 -233 -128c-22 16 -35 35 -43 57c-58 -60 -125 -99 -185 -42c-60 55 -34 150 43 263c54 81 78 110 97 128c30 28 85 -35 70 -58l-108 -148c-42 -60 -84 -137 -73 -152c9 -12 59 12 159 137l153 222c27 19 89 -35 76 -53
c-5 -7 -44 -57 -82 -114z" />
    <glyph glyph-name="edieresis" unicode="&#xeb;" horiz-adv-x="356" 
d="M352 601c20 -13 23 -44 7 -69c-17 -25 -46 -34 -66 -21c-21 13 -24 44 -7 69c16 25 45 34 66 21zM462 540c20 -13 23 -44 7 -69c-17 -25 -46 -35 -66 -22c-21 14 -24 44 -7 70c16 25 45 34 66 21zM240 450c16 4 41 6 62 -10c77 -55 80 -82 55 -147
c-35 -88 -100 -149 -171 -164c-26 -5 -55 18 -72 34c-15 -44 -14 -89 5 -102c52 -35 194 24 300 180c10 15 62 -24 22 -86c-65 -102 -235 -208 -357 -127c-39 25 -61 49 -61 108c0 106 126 289 217 314zM170 257c-26 -36 -42 -67 -33 -72c15 -8 57 28 94 72
c49 58 70 113 62 119c-9 7 -63 -34 -123 -119z" />
    <glyph glyph-name="idieresis" unicode="&#xef;" horiz-adv-x="237" 
d="M242 336c-18 -31 -62 -88 -83 -117c-41 -58 -78 -142 -59 -159c29 -24 142 95 194 169c12 17 59 -30 22 -85c-93 -140 -192 -167 -235 -128c-113 104 -45 188 18 279c38 55 70 90 75 97c23 26 79 -36 68 -56zM291 605c20 -13 23 -44 7 -69c-17 -25 -46 -34 -66 -21
c-21 13 -24 44 -7 69c16 25 45 34 66 21zM401 544c20 -13 23 -44 7 -69c-17 -25 -46 -35 -66 -22c-21 14 -24 44 -7 70c16 25 45 34 66 21z" />
    <glyph glyph-name="ydieresis" unicode="&#xff;" horiz-adv-x="442" 
d="M342 572c20 -13 23 -44 7 -69c-17 -25 -46 -34 -66 -21c-21 13 -24 44 -7 69c16 25 45 34 66 21zM504 561c20 -13 23 -44 7 -69c-17 -25 -46 -35 -66 -22c-21 14 -24 44 -7 70c16 25 45 34 66 21zM495 226c13 18 59 -30 23 -85c-34 -50 -67 -84 -105 -110
c-49 -33 -126 -61 -198 -88c-56 -85 -131 -209 -170 -256c-41 -50 -67 -16 -79 0c-19 24 -6 75 22 130c29 56 62 97 132 138c4 6 22 28 42 55c-36 -17 -73 -16 -108 17c-59 55 -34 150 43 263c55 80 80 108 97 127c26 30 87 -35 70 -57l-107 -148c-43 -60 -85 -137 -74 -152
c10 -12 59 12 158 136l154 222c11 21 91 -22 75 -53c-19 -28 -78 -126 -115 -187c-14 -23 -58 -93 -94 -152c19 9 43 20 50 24c24 11 69 39 95 66c33 35 66 77 89 110z" />
    <glyph glyph-name="Adieresis" unicode="&#xc4;" horiz-adv-x="905" 
d="M980 259c18 26 58 -35 17 -94c-89 -126 -180 -156 -269 -142c-14 -27 -28 -53 -42 -77c-15 -26 -94 31 -68 82c4 8 9 17 13 25c-48 22 -93 51 -133 77c-74 -83 -157 -170 -259 -204c-135 -43 -293 85 -183 220c91 111 229 135 362 92c13 -4 26 -9 38 -15
c39 44 78 89 118 131c94 101 204 239 313 325c47 37 98 51 141 -4c43 -54 -48 -185 -72 -230c-56 -106 -125 -235 -190 -354c109 1 160 93 214 168zM220 10c73 46 136 106 196 170c-11 5 -21 10 -30 13c-84 24 -191 -21 -246 -95c-57 -80 -39 -163 80 -88zM663 113l260 475
c-64 -53 -354 -378 -383 -410c38 -24 77 -48 123 -65zM1046 875c20 -13 23 -44 7 -69c-17 -25 -46 -34 -66 -21c-21 13 -24 44 -7 69c16 25 45 34 66 21zM1156 814c20 -13 23 -44 7 -69c-17 -25 -46 -35 -66 -22c-21 14 -24 44 -7 70c16 25 45 34 66 21z" />
    <glyph glyph-name="Odieresis" unicode="&#xd6;" horiz-adv-x="600" 
d="M495 894c20 -13 23 -44 7 -69c-17 -25 -46 -34 -66 -21c-21 13 -24 44 -7 69c16 25 45 34 66 21zM668 855c20 -13 23 -44 7 -69c-17 -25 -46 -35 -66 -22c-21 14 -24 44 -7 70c16 25 45 34 66 21zM683 268c20 33 60 -32 10 -105c-89 -132 -217 -187 -336 -182
c-86 -50 -182 -63 -270 -12c-77 44 -77 141 -39 241c-8 23 -14 48 -18 74c-15 115 22 195 70 266c90 133 318 284 482 93c128 -148 35 -427 -127 -586c78 32 159 101 228 211zM120 11c19 -13 55 -14 101 4c-50 24 -94 60 -127 106c-12 -58 5 -94 26 -110zM282 46
c54 35 114 90 170 171c116 167 132 348 88 400c-57 68 -175 45 -252 -11c-80 -58 -163 -168 -175 -272c44 65 99 122 150 151c52 31 105 5 89 -10c-82 -72 -140 -137 -181 -195c-17 -23 -31 -46 -42 -66c28 -87 84 -145 153 -168z" />
    <glyph glyph-name="Edieresis" unicode="&#xcb;" horiz-adv-x="561" 
d="M514 851c20 -13 23 -44 7 -69c-17 -25 -46 -34 -66 -21c-21 13 -24 44 -7 69c16 25 45 34 66 21zM676 840c20 -13 23 -44 7 -69c-17 -25 -46 -35 -66 -22c-21 14 -24 44 -7 70c16 25 45 34 66 21zM366 302c25 -3 6 -94 -25 -100c-226 -49 -242 -147 -210 -186
c44 -56 183 -50 339 64c60 44 120 105 173 189c22 35 55 -30 13 -99c-96 -155 -391 -427 -612 -131c-68 91 56 186 177 218c-73 54 -90 124 -71 194c-55 50 -80 115 -46 178c43 80 121 53 103 31c-44 -53 -47 -102 -27 -140c89 146 317 256 465 130
c127 -109 -108 -315 -303 -286c-40 6 -78 18 -113 34c-3 -43 31 -84 137 -96zM403 594c-61 -34 -120 -86 -151 -136c15 -7 31 -11 47 -14c180 -27 323 122 296 184c-11 25 -91 23 -192 -34z" />
    <glyph glyph-name="Udieresis" unicode="&#xdc;" horiz-adv-x="606" 
d="M535 863c20 -13 23 -44 7 -69c-17 -25 -46 -34 -66 -21c-21 13 -24 44 -7 69c16 25 45 34 66 21zM697 852c20 -13 23 -44 7 -69c-17 -25 -46 -35 -66 -22c-21 14 -24 44 -7 70c16 25 45 34 66 21zM754 618c-69 -142 -143 -254 -231 -373c-7 -11 -13 -23 -20 -35
c-31 -57 -129 -211 -74 -211c5 0 20 -3 75 49c71 71 131 136 184 221c22 34 54 -37 10 -105c-84 -130 -202 -219 -266 -219c-61 0 -88 39 -92 89c-16 -17 -31 -31 -40 -39c-63 -51 -183 -107 -258 21c-36 61 -1 138 31 196c98 177 296 411 268 438
c-29 28 -119 -65 -155 -117c-46 -66 -72 -117 -101 -193c-19 -52 -66 49 -37 127c82 228 276 293 333 212c60 -84 14 -149 -16 -201c-37 -65 -192 -287 -192 -287c-26 -45 -103 -151 -63 -188c34 -32 193 81 352 341c3 4 6 8 8 12c70 119 150 233 215 352
c16 28 92 -43 69 -90z" />
    <glyph glyph-name="Idieresis" unicode="&#xcf;" horiz-adv-x="577" 
d="M875 680c5 -46 -47 -60 -82 -67c-10 -2 -29 -4 -54 -7c-42 -62 -81 -134 -109 -180c-39 -65 -79 -129 -118 -194c-52 -86 -102 -171 -176 -242c-77 -74 -153 -61 -241 -13c-140 78 -51 252 80 306c94 39 199 -1 130 -22c-200 -60 -229 -212 -185 -253
c36 -32 116 12 149 47c38 40 71 83 101 129c49 77 95 156 142 234c28 46 68 113 106 173c-91 -16 -170 -42 -110 -94c18 -15 -13 -25 -41 -17c-40 12 -86 56 -51 118c35 59 151 61 249 64l12 18c19 26 50 81 89 84c44 4 105 -38 109 -84zM837 931c20 -13 23 -44 7 -69
c-17 -25 -46 -34 -66 -21c-21 13 -24 44 -7 69c16 25 45 34 66 21zM947 870c20 -13 23 -44 7 -69c-17 -25 -46 -35 -66 -22c-21 14 -24 44 -7 70c16 25 45 34 66 21z" />
    <glyph glyph-name="Ydieresis" unicode="&#x178;" horiz-adv-x="595" 
d="M530 844c20 -13 23 -44 7 -69c-17 -25 -46 -34 -66 -21c-21 13 -24 44 -7 69c16 25 45 34 66 21zM692 833c20 -13 23 -44 7 -69c-17 -25 -46 -35 -66 -22c-21 14 -24 44 -7 70c16 25 45 34 66 21zM682 696c22 36 85 -56 71 -85c-34 -66 -84 -149 -122 -217
c-107 -192 -277 -500 -379 -725c-12 -25 -98 38 -81 73c36 74 72 151 108 228c-65 -46 -172 -83 -241 34c-36 61 0 138 31 196c98 177 296 411 269 438c-30 28 -119 -65 -155 -117c-46 -66 -72 -117 -101 -193c-20 -52 -66 49 -38 127c83 228 276 293 334 212
c60 -84 14 -149 -16 -201c-37 -65 -192 -287 -192 -287c-27 -46 -104 -152 -64 -188c35 -32 192 81 353 341c20 31 223 364 223 364z" />
    <glyph glyph-name="three" unicode="3" horiz-adv-x="633" 
d="M399 309c-42 -11 -107 55 -77 65c231 79 309 229 277 268s-162 -18 -203 -136c-8 -24 -94 37 -68 84c71 129 294 188 355 19c16 -47 11 -89 -32 -138c-56 -64 -112 -90 -160 -112c57 -17 94 -62 112 -132c16 -65 -12 -150 -115 -238c-91 -78 -241 -112 -365 -43
c-31 17 -52 44 -55 82c-10 118 97 199 196 219c66 14 121 -43 100 -48c-191 -53 -229 -190 -205 -219c29 -33 154 4 246 76c86 67 142 167 97 233c-16 23 -49 33 -103 20z" />
    <glyph glyph-name="one" unicode="1" horiz-adv-x="365" 
d="M572 654c-121 -196 -314 -518 -433 -714c-15 -24 -99 25 -85 49l308 500c-32 -24 -64 -49 -95 -75c-21 -16 -101 36 -76 56c99 81 201 156 301 236c19 16 92 -31 80 -52z" />
    <glyph glyph-name="two" unicode="2" horiz-adv-x="620" 
d="M665 375c-73 -116 -173 -200 -262 -272c-15 -13 -34 -30 -56 -49c4 -7 7 -15 11 -24c43 -96 89 -29 186 87c25 31 63 -49 41 -82c-69 -108 -220 -148 -287 -24c-1 0 -1 1 -1 1c-59 -47 -126 -89 -180 -82c-73 11 -119 87 -78 154c50 84 168 121 235 65c4 -4 8 -7 11 -10
c37 29 78 60 117 95c195 171 279 369 220 411c-43 31 -137 -49 -179 -100c-70 -84 -100 -177 -95 -289c1 -35 -86 12 -90 69c-10 134 57 273 174 344c73 44 181 75 245 -6c67 -83 50 -191 -12 -288zM177 52c20 14 39 30 57 45c-21 13 -48 14 -84 -11
c-57 -40 -65 -70 -58 -78c10 -13 57 23 85 44z" />
    <glyph glyph-name="four" unicode="4" horiz-adv-x="647" 
d="M185 86c-28 -2 -96 57 -83 70c175 178 314 366 464 552c19 23 99 -30 84 -49c-135 -168 -267 -344 -416 -501c82 14 163 38 243 59l153 247c15 24 82 -44 47 -100c-34 -56 -60 -98 -82 -135c29 -15 60 -46 34 -51c-25 -5 -50 -11 -75 -17c-36 -60 -71 -118 -133 -220
c-15 -24 -98 25 -84 48l85 138c-78 -20 -158 -32 -237 -41z" />
    <glyph glyph-name="five" unicode="5" horiz-adv-x="686" 
d="M475 587l-109 -164c85 24 176 27 235 -36c101 -107 -24 -272 -122 -365c-96 -91 -281 -157 -383 -34c-88 107 66 225 171 253c69 19 134 -36 108 -40c-104 -15 -255 -149 -203 -215c35 -46 163 53 227 116c81 78 156 168 150 254c-6 71 -227 -35 -262 -53
c-16 -9 -51 10 -69 29c-12 10 -18 21 -13 29c61 86 120 175 183 261c-25 16 -42 49 -20 52c137 15 178 20 315 38c65 9 128 -78 91 -84c-118 -18 -175 -25 -299 -41z" />
    <glyph glyph-name="six" unicode="6" horiz-adv-x="604" 
d="M599 640c-173 -88 -384 -309 -390 -543c-5 -181 165 -84 242 46c59 98 72 202 37 220c-22 11 -76 -12 -136 -124c-18 -32 -74 51 -47 96c70 120 171 103 220 66c96 -71 89 -196 17 -321c-56 -96 -159 -164 -268 -139c-146 34 -189 173 -150 303c56 186 222 372 390 457
c38 19 118 -44 85 -61z" />
    <glyph glyph-name="nine" unicode="9" horiz-adv-x="524" 
d="M117 0c173 88 384 310 390 543c5 182 -165 84 -242 -46c-58 -98 -72 -202 -37 -220c23 -11 76 12 137 124c17 32 73 -51 46 -96c-70 -120 -171 -103 -220 -66c-95 71 -89 196 -17 321c56 96 160 164 269 139c146 -33 189 -172 149 -303c-56 -186 -221 -372 -389 -457
c-38 -19 -119 44 -86 61z" />
    <glyph glyph-name="eight" unicode="8" horiz-adv-x="590" 
d="M674 571c40 -147 -77 -209 -191 -251c17 -27 33 -53 46 -77c38 -71 49 -166 7 -228c-48 -71 -152 -112 -247 -98c-191 29 -240 207 -112 348c42 46 119 75 196 105c-36 56 -67 112 -62 176c11 137 123 180 240 174c59 -3 99 -61 74 -62c-103 -6 -209 -30 -216 -153
c-2 -34 10 -71 28 -107c103 46 186 107 149 230c-6 20 75 -8 88 -57zM454 99c27 73 2 137 -35 198l-27 -9c-59 -21 -119 -61 -157 -118c-65 -100 -38 -175 -4 -192c66 -32 191 32 223 121z" />
    <glyph glyph-name="zero" unicode="0" horiz-adv-x="637" 
d="M578 693c190 -72 103 -355 44 -480c-69 -131 -217 -331 -392 -264c-185 70 -102 356 -43 481c67 142 217 330 391 263zM284 379c-96 -208 -99 -364 -40 -383c46 -14 186 55 295 300c93 205 65 334 25 350c-43 17 -187 -63 -280 -267z" />
    <glyph glyph-name="seven" unicode="7" horiz-adv-x="526" 
d="M210 215c-39 -1 -133 71 -86 77c52 6 103 12 155 19c96 132 196 262 237 308c-90 -15 -125 -23 -214 -34c-45 -6 -122 84 -86 89c137 15 238 25 373 51c28 6 93 -68 75 -92c-65 -82 -149 -192 -232 -302l27 3c33 5 129 -70 82 -77c-60 -8 -121 -16 -181 -24
c-84 -114 -158 -217 -194 -275c-15 -24 -105 24 -91 49c25 47 76 124 135 208z" />
    <glyph glyph-name="aacute" unicode="&#xe1;" horiz-adv-x="430" 
d="M385 460c-30 -8 -85 32 -58 42c41 15 83 31 125 43c33 9 79 -43 57 -49c-41 -12 -103 -31 -124 -36zM483 226c12 19 59 -30 22 -85c-93 -140 -186 -163 -233 -129c-22 16 -30 38 -31 63c-57 -66 -122 -110 -188 -44c-65 66 -39 139 37 254c40 61 97 111 140 133
c36 18 60 13 92 -12c19 -14 49 -26 50 -53c27 -10 55 -40 46 -53c-9 -12 -41 -52 -71 -100c-35 -54 -76 -129 -47 -149c26 -18 131 101 183 175zM73 58c9 -12 59 12 159 137l18 26c27 42 68 117 53 131c-17 14 -93 -48 -156 -141c-42 -61 -85 -138 -74 -153z" />
    <glyph glyph-name="acute" unicode="&#xb4;" horiz-adv-x="833" 
d="M213 443c-30 -8 -85 32 -58 42c41 15 83 31 125 43c33 9 79 -43 57 -49c-41 -12 -103 -31 -124 -36z" />
    <glyph glyph-name="eacute" unicode="&#xe9;" horiz-adv-x="356" 
d="M364 460c-30 -8 -85 32 -58 42c41 15 83 31 125 43c33 9 79 -43 57 -49c-41 -12 -103 -31 -124 -36zM240 450c16 4 41 6 62 -10c77 -55 80 -82 55 -147c-35 -88 -100 -149 -171 -164c-26 -5 -55 18 -72 34c-15 -44 -14 -89 5 -102c52 -35 194 24 300 180
c10 15 62 -24 22 -86c-65 -102 -235 -208 -357 -127c-39 25 -61 49 -61 108c0 106 126 289 217 314zM170 257c-26 -36 -42 -67 -33 -72c15 -8 57 28 94 72c49 58 70 113 62 119c-9 7 -63 -34 -123 -119z" />
    <glyph glyph-name="iacute" unicode="&#xed;" horiz-adv-x="237" 
d="M279 460c-30 -8 -85 32 -58 42c41 15 83 31 125 43c33 9 79 -43 57 -49c-41 -12 -103 -31 -124 -36zM242 336c-18 -31 -62 -88 -83 -117c-41 -58 -78 -142 -59 -159c29 -24 142 95 194 169c12 17 59 -30 22 -85c-93 -140 -192 -167 -235 -128c-113 104 -45 188 18 279
c38 55 70 90 75 97c23 26 79 -36 68 -56z" />
    <glyph glyph-name="yacute" unicode="&#xfd;" horiz-adv-x="442" 
d="M335 460c-30 -8 -85 32 -58 42c41 15 83 31 125 43c33 9 79 -43 57 -49c-41 -12 -103 -31 -124 -36zM495 226c13 18 59 -30 23 -85c-34 -50 -67 -84 -105 -110c-49 -33 -126 -61 -198 -88c-56 -85 -131 -209 -170 -256c-41 -50 -67 -16 -79 0c-19 24 -6 75 22 130
c29 56 62 97 132 138c4 6 22 28 42 55c-36 -17 -73 -16 -108 17c-59 55 -34 150 43 263c55 80 80 108 97 127c26 30 87 -35 70 -57l-107 -148c-43 -60 -85 -137 -74 -152c10 -12 59 12 158 136l154 222c11 21 91 -22 75 -53c-19 -28 -78 -126 -115 -187
c-14 -23 -58 -93 -94 -152c19 9 43 20 50 24c24 11 69 39 95 66c33 35 66 77 89 110z" />
    <glyph glyph-name="oacute" unicode="&#xf3;" horiz-adv-x="419" 
d="M312 460c-30 -8 -85 32 -58 42c41 15 83 31 125 43c33 9 79 -43 57 -49c-41 -12 -103 -31 -124 -36zM475 236c8 14 62 -25 23 -86c-36 -54 -127 -127 -190 -51c-23 -32 -50 -63 -75 -79c-77 -52 -132 -17 -149 -3c-17 13 -69 36 -64 103c11 132 105 237 150 277
c46 40 80 43 117 22c107 -61 108 -119 73 -225c-4 -10 -9 -22 -16 -35c4 -11 9 -21 16 -24c21 -8 63 18 115 101zM113 55c27 -21 103 72 136 122c4 6 8 13 13 21c-14 40 -27 94 -20 135c-25 -20 -55 -52 -85 -101c-41 -65 -68 -159 -44 -177z" />
    <glyph glyph-name="uacute" unicode="&#xfa;" 
d="M333 460c-30 -8 -85 32 -58 42c41 15 83 31 125 43c33 9 79 -43 57 -49c-41 -12 -103 -31 -124 -36zM384 252c-24 -36 -119 -173 -79 -201c27 -19 131 100 182 174c13 18 60 -30 23 -85c-93 -139 -186 -162 -233 -128c-22 16 -35 35 -43 57c-58 -60 -125 -99 -185 -42
c-60 55 -34 150 43 263c54 81 78 110 97 128c30 28 85 -35 70 -58l-108 -148c-42 -60 -84 -137 -73 -152c9 -12 59 12 159 137l153 222c27 19 89 -35 76 -53c-5 -7 -44 -57 -82 -114z" />
    <glyph glyph-name="Aacute" unicode="&#xc1;" horiz-adv-x="905" 
d="M997 767c-30 -8 -85 32 -58 42c41 15 83 31 125 43c33 9 79 -43 57 -49c-41 -12 -103 -31 -124 -36zM980 259c18 26 58 -35 17 -94c-89 -126 -180 -156 -269 -142c-14 -27 -28 -53 -42 -77c-15 -26 -94 31 -68 82c4 8 9 17 13 25c-48 22 -93 51 -133 77
c-74 -83 -157 -170 -259 -204c-135 -43 -293 85 -183 220c91 111 229 135 362 92c13 -4 26 -9 38 -15c39 44 78 89 118 131c94 101 204 239 313 325c47 37 98 51 141 -4c43 -54 -48 -185 -72 -230c-56 -106 -125 -235 -190 -354c109 1 160 93 214 168zM220 10
c73 46 136 106 196 170c-11 5 -21 10 -30 13c-84 24 -191 -21 -246 -95c-57 -80 -39 -163 80 -88zM663 113l260 475c-64 -53 -354 -378 -383 -410c38 -24 77 -48 123 -65z" />
    <glyph glyph-name="Eacute" unicode="&#xc9;" horiz-adv-x="561" 
d="M487 767c-30 -8 -85 32 -58 42c41 15 83 31 125 43c33 9 79 -43 57 -49c-41 -12 -103 -31 -124 -36zM366 302c25 -3 6 -94 -25 -100c-226 -49 -242 -147 -210 -186c44 -56 183 -50 339 64c60 44 120 105 173 189c22 35 55 -30 13 -99c-96 -155 -391 -427 -612 -131
c-68 91 56 186 177 218c-73 54 -90 124 -71 194c-55 50 -80 115 -46 178c43 80 121 53 103 31c-44 -53 -47 -102 -27 -140c89 146 317 256 465 130c127 -109 -108 -315 -303 -286c-40 6 -78 18 -113 34c-3 -43 31 -84 137 -96zM403 594c-61 -34 -120 -86 -151 -136
c15 -7 31 -11 47 -14c180 -27 323 122 296 184c-11 25 -91 23 -192 -34z" />
    <glyph glyph-name="Iacute" unicode="&#xcd;" horiz-adv-x="577" 
d="M832 792c-30 -8 -85 32 -58 42c41 15 83 31 125 43c33 9 79 -43 57 -49c-41 -12 -103 -31 -124 -36zM875 680c5 -46 -47 -60 -82 -67c-10 -2 -29 -4 -54 -7c-42 -62 -81 -134 -109 -180c-39 -65 -79 -129 -118 -194c-52 -86 -102 -171 -176 -242
c-77 -74 -153 -61 -241 -13c-140 78 -51 252 80 306c94 39 199 -1 130 -22c-200 -60 -229 -212 -185 -253c36 -32 116 12 149 47c38 40 71 83 101 129c49 77 95 156 142 234c28 46 68 113 106 173c-91 -16 -170 -42 -110 -94c18 -15 -13 -25 -41 -17c-40 12 -86 56 -51 118
c35 59 151 61 249 64l12 18c19 26 50 81 89 84c44 4 105 -38 109 -84z" />
    <glyph glyph-name="Oacute" unicode="&#xd3;" horiz-adv-x="600" 
d="M428 794c-30 -8 -85 32 -58 42c41 15 83 31 125 43c33 9 79 -43 57 -49c-41 -12 -103 -31 -124 -36zM683 268c20 33 60 -32 10 -105c-89 -132 -217 -187 -336 -182c-86 -50 -182 -63 -270 -12c-77 44 -77 141 -39 241c-8 23 -14 48 -18 74c-15 115 22 195 70 266
c90 133 318 284 482 93c128 -148 35 -427 -127 -586c78 32 159 101 228 211zM120 11c19 -13 55 -14 101 4c-50 24 -94 60 -127 106c-12 -58 5 -94 26 -110zM282 46c54 35 114 90 170 171c116 167 132 348 88 400c-57 68 -175 45 -252 -11c-80 -58 -163 -168 -175 -272
c44 65 99 122 150 151c52 31 105 5 89 -10c-82 -72 -140 -137 -181 -195c-17 -23 -31 -46 -42 -66c28 -87 84 -145 153 -168z" />
    <glyph glyph-name="Uacute" unicode="&#xda;" horiz-adv-x="606" 
d="M519 767c-30 -8 -85 32 -58 42c41 15 83 31 125 43c33 9 79 -43 57 -49c-41 -12 -103 -31 -124 -36zM754 618c-69 -142 -143 -254 -231 -373c-7 -11 -13 -23 -20 -35c-31 -57 -129 -211 -74 -211c5 0 20 -3 75 49c71 71 131 136 184 221c22 34 54 -37 10 -105
c-84 -130 -202 -219 -266 -219c-61 0 -88 39 -92 89c-16 -17 -31 -31 -40 -39c-63 -51 -183 -107 -258 21c-36 61 -1 138 31 196c98 177 296 411 268 438c-29 28 -119 -65 -155 -117c-46 -66 -72 -117 -101 -193c-19 -52 -66 49 -37 127c82 228 276 293 333 212
c60 -84 14 -149 -16 -201c-37 -65 -192 -287 -192 -287c-26 -45 -103 -151 -63 -188c34 -32 193 81 352 341c3 4 6 8 8 12c70 119 150 233 215 352c16 28 92 -43 69 -90z" />
    <glyph glyph-name="Yacute" unicode="&#xdd;" horiz-adv-x="595" 
d="M554 767c-30 -8 -85 32 -58 42c41 15 83 31 125 43c33 9 79 -43 57 -49c-41 -12 -103 -31 -124 -36zM682 696c22 36 85 -56 71 -85c-34 -66 -84 -149 -122 -217c-107 -192 -277 -500 -379 -725c-12 -25 -98 38 -81 73c36 74 72 151 108 228c-65 -46 -172 -83 -241 34
c-36 61 0 138 31 196c98 177 296 411 269 438c-30 28 -119 -65 -155 -117c-46 -66 -72 -117 -101 -193c-20 -52 -66 49 -38 127c83 228 276 293 334 212c60 -84 14 -149 -16 -201c-37 -65 -192 -287 -192 -287c-27 -46 -104 -152 -64 -188c35 -32 192 81 353 341
c20 31 223 364 223 364z" />
    <glyph glyph-name="agrave" unicode="&#xe0;" horiz-adv-x="430" 
d="M370 439c-12 18 -46 73 -69 110c-12 19 57 28 76 -2c23 -36 43 -76 64 -114c14 -26 -54 -20 -71 6zM483 226c12 19 59 -30 22 -85c-93 -140 -186 -163 -233 -129c-22 16 -30 38 -31 63c-57 -66 -122 -110 -188 -44c-65 66 -39 139 37 254c40 61 97 111 140 133
c36 18 60 13 92 -12c19 -14 49 -26 50 -53c27 -10 55 -40 46 -53c-9 -12 -41 -52 -71 -100c-35 -54 -76 -129 -47 -149c26 -18 131 101 183 175zM73 58c9 -12 59 12 159 137l18 26c27 42 68 117 53 131c-17 14 -93 -48 -156 -141c-42 -61 -85 -138 -74 -153z" />
    <glyph glyph-name="grave" unicode="`" horiz-adv-x="833" 
d="M348 439c-12 18 -46 73 -69 110c-12 19 57 28 76 -2c23 -36 43 -76 64 -114c14 -26 -54 -20 -71 6z" />
    <glyph glyph-name="egrave" unicode="&#xe8;" horiz-adv-x="356" 
d="M348 439c-12 18 -46 73 -69 110c-12 19 57 28 76 -2c23 -36 43 -76 64 -114c14 -26 -54 -20 -71 6zM240 450c16 4 41 6 62 -10c77 -55 80 -82 55 -147c-35 -88 -100 -149 -171 -164c-26 -5 -55 18 -72 34c-15 -44 -14 -89 5 -102c52 -35 194 24 300 180
c10 15 62 -24 22 -86c-65 -102 -235 -208 -357 -127c-39 25 -61 49 -61 108c0 106 126 289 217 314zM170 257c-26 -36 -42 -67 -33 -72c15 -8 57 28 94 72c49 58 70 113 62 119c-9 7 -63 -34 -123 -119z" />
    <glyph glyph-name="igrave" unicode="&#xec;" horiz-adv-x="237" 
d="M259 439c-12 18 -46 73 -69 110c-12 19 57 28 76 -2c23 -36 43 -76 64 -114c14 -26 -54 -20 -71 6zM242 336c-18 -31 -62 -88 -83 -117c-41 -58 -78 -142 -59 -159c29 -24 142 95 194 169c12 17 59 -30 22 -85c-93 -140 -192 -167 -235 -128c-113 104 -45 188 18 279
c38 55 70 90 75 97c23 26 79 -36 68 -56z" />
    <glyph glyph-name="ograve" unicode="&#xf2;" horiz-adv-x="419" 
d="M348 439c-12 18 -46 73 -69 110c-12 19 57 28 76 -2c23 -36 43 -76 64 -114c14 -26 -54 -20 -71 6zM475 236c8 14 62 -25 23 -86c-36 -54 -127 -127 -190 -51c-23 -32 -50 -63 -75 -79c-77 -52 -132 -17 -149 -3c-17 13 -69 36 -64 103c11 132 105 237 150 277
c46 40 80 43 117 22c107 -61 108 -119 73 -225c-4 -10 -9 -22 -16 -35c4 -11 9 -21 16 -24c21 -8 63 18 115 101zM113 55c27 -21 103 72 136 122c4 6 8 13 13 21c-14 40 -27 94 -20 135c-25 -20 -55 -52 -85 -101c-41 -65 -68 -159 -44 -177z" />
    <glyph glyph-name="ugrave" unicode="&#xf9;" 
d="M276 439c-12 18 -46 73 -69 110c-12 19 57 28 76 -2c23 -36 43 -76 64 -114c14 -26 -54 -20 -71 6zM384 252c-24 -36 -119 -173 -79 -201c27 -19 131 100 182 174c13 18 60 -30 23 -85c-93 -139 -186 -162 -233 -128c-22 16 -35 35 -43 57c-58 -60 -125 -99 -185 -42
c-60 55 -34 150 43 263c54 81 78 110 97 128c30 28 85 -35 70 -58l-108 -148c-42 -60 -84 -137 -73 -152c9 -12 59 12 159 137l153 222c27 19 89 -35 76 -53c-5 -7 -44 -57 -82 -114z" />
    <glyph glyph-name="Egrave" unicode="&#xc8;" horiz-adv-x="561" 
d="M479 758c-12 18 -46 73 -69 110c-12 19 57 28 76 -2c23 -36 43 -76 64 -114c14 -26 -54 -20 -71 6zM366 302c25 -3 6 -94 -25 -100c-226 -49 -242 -147 -210 -186c44 -56 183 -50 339 64c60 44 120 105 173 189c22 35 55 -30 13 -99c-96 -155 -391 -427 -612 -131
c-68 91 56 186 177 218c-73 54 -90 124 -71 194c-55 50 -80 115 -46 178c43 80 121 53 103 31c-44 -53 -47 -102 -27 -140c89 146 317 256 465 130c127 -109 -108 -315 -303 -286c-40 6 -78 18 -113 34c-3 -43 31 -84 137 -96zM403 594c-61 -34 -120 -86 -151 -136
c15 -7 31 -11 47 -14c180 -27 323 122 296 184c-11 25 -91 23 -192 -34z" />
    <glyph glyph-name="Agrave" unicode="&#xc0;" horiz-adv-x="905" 
d="M1005 758c-12 18 -46 73 -69 110c-12 19 57 28 76 -2c23 -36 43 -76 64 -114c14 -26 -54 -20 -71 6zM980 259c18 26 58 -35 17 -94c-89 -126 -180 -156 -269 -142c-14 -27 -28 -53 -42 -77c-15 -26 -94 31 -68 82c4 8 9 17 13 25c-48 22 -93 51 -133 77
c-74 -83 -157 -170 -259 -204c-135 -43 -293 85 -183 220c91 111 229 135 362 92c13 -4 26 -9 38 -15c39 44 78 89 118 131c94 101 204 239 313 325c47 37 98 51 141 -4c43 -54 -48 -185 -72 -230c-56 -106 -125 -235 -190 -354c109 1 160 93 214 168zM220 10
c73 46 136 106 196 170c-11 5 -21 10 -30 13c-84 24 -191 -21 -246 -95c-57 -80 -39 -163 80 -88zM663 113l260 475c-64 -53 -354 -378 -383 -410c38 -24 77 -48 123 -65z" />
    <glyph glyph-name="Ugrave" unicode="&#xd9;" horiz-adv-x="606" 
d="M526 758c-12 18 -46 73 -69 110c-12 19 57 28 76 -2c23 -36 43 -76 64 -114c14 -26 -54 -20 -71 6zM754 618c-69 -142 -143 -254 -231 -373c-7 -11 -13 -23 -20 -35c-31 -57 -129 -211 -74 -211c5 0 20 -3 75 49c71 71 131 136 184 221c22 34 54 -37 10 -105
c-84 -130 -202 -219 -266 -219c-61 0 -88 39 -92 89c-16 -17 -31 -31 -40 -39c-63 -51 -183 -107 -258 21c-36 61 -1 138 31 196c98 177 296 411 268 438c-29 28 -119 -65 -155 -117c-46 -66 -72 -117 -101 -193c-19 -52 -66 49 -37 127c82 228 276 293 333 212
c60 -84 14 -149 -16 -201c-37 -65 -192 -287 -192 -287c-26 -45 -103 -151 -63 -188c34 -32 193 81 352 341c3 4 6 8 8 12c70 119 150 233 215 352c16 28 92 -43 69 -90z" />
    <glyph glyph-name="Igrave" unicode="&#xcc;" horiz-adv-x="577" 
d="M828 789c-12 18 -46 73 -69 110c-12 19 57 28 76 -2c23 -36 43 -76 64 -114c14 -26 -54 -20 -71 6zM875 680c5 -46 -47 -60 -82 -67c-10 -2 -29 -4 -54 -7c-42 -62 -81 -134 -109 -180c-39 -65 -79 -129 -118 -194c-52 -86 -102 -171 -176 -242
c-77 -74 -153 -61 -241 -13c-140 78 -51 252 80 306c94 39 199 -1 130 -22c-200 -60 -229 -212 -185 -253c36 -32 116 12 149 47c38 40 71 83 101 129c49 77 95 156 142 234c28 46 68 113 106 173c-91 -16 -170 -42 -110 -94c18 -15 -13 -25 -41 -17c-40 12 -86 56 -51 118
c35 59 151 61 249 64l12 18c19 26 50 81 89 84c44 4 105 -38 109 -84z" />
    <glyph glyph-name="Ograve" unicode="&#xd2;" horiz-adv-x="600" 
d="M528 758c-12 18 -46 73 -69 110c-12 19 57 28 76 -2c23 -36 43 -76 64 -114c14 -26 -54 -20 -71 6zM683 268c20 33 60 -32 10 -105c-89 -132 -217 -187 -336 -182c-86 -50 -182 -63 -270 -12c-77 44 -77 141 -39 241c-8 23 -14 48 -18 74c-15 115 22 195 70 266
c90 133 318 284 482 93c128 -148 35 -427 -127 -586c78 32 159 101 228 211zM120 11c19 -13 55 -14 101 4c-50 24 -94 60 -127 106c-12 -58 5 -94 26 -110zM282 46c54 35 114 90 170 171c116 167 132 348 88 400c-57 68 -175 45 -252 -11c-80 -58 -163 -168 -175 -272
c44 65 99 122 150 151c52 31 105 5 89 -10c-82 -72 -140 -137 -181 -195c-17 -23 -31 -46 -42 -66c28 -87 84 -145 153 -168z" />
    <glyph glyph-name="period" unicode="." horiz-adv-x="271" 
d="M206 125c27 -17 31 -58 9 -92c-21 -33 -61 -46 -88 -29s-31 59 -9 92c22 34 61 47 88 29z" />
    <glyph glyph-name="colon" unicode=":" horiz-adv-x="340" 
d="M206 125c27 -17 31 -58 9 -92c-21 -33 -61 -46 -88 -29s-31 59 -9 92c22 34 61 47 88 29zM344 350c27 -18 31 -59 9 -93c-22 -33 -61 -46 -88 -29c-27 18 -31 59 -9 93c21 33 61 46 88 29z" />
    <glyph glyph-name="comma" unicode="," horiz-adv-x="273" 
d="M143 -51c-13 -5 -60 -5 -43 10c12 12 27 28 34 43c-1 0 -3 1 -5 2c-27 17 -31 59 -9 92c22 34 61 47 88 29c23 -15 29 -46 18 -76c-15 -36 -53 -88 -83 -100z" />
    <glyph glyph-name="semicolon" unicode=";" horiz-adv-x="349" 
d="M353 350c27 -18 31 -59 9 -93c-22 -33 -61 -46 -88 -29c-27 18 -31 59 -9 93c21 33 61 46 88 29zM150 -51c-13 -5 -60 -5 -43 10c12 12 27 28 34 43c-1 0 -3 1 -5 2c-27 17 -31 59 -9 92c22 34 61 47 88 29c23 -15 29 -46 18 -76c-15 -36 -53 -88 -83 -100z" />
    <glyph glyph-name="quotedblright" unicode="&#x201d;" horiz-adv-x="426" 
d="M297 559c-18 -25 -75 -28 -59 -3c22 37 44 76 69 111c20 28 77 17 64 -2c-25 -35 -61 -89 -74 -106zM382 548c-21 -22 -77 -18 -59 4c27 34 54 70 83 102c24 25 78 7 63 -10c-29 -32 -72 -80 -87 -96z" />
    <glyph glyph-name="quotedblleft" unicode="&#x201c;" horiz-adv-x="308" 
d="M316 559c-13 17 -49 71 -74 106c-13 19 43 30 64 2c24 -35 47 -74 69 -111c15 -25 -41 -22 -59 3zM230 548c-14 16 -57 64 -86 96c-16 17 39 35 63 10c29 -32 56 -68 83 -102c18 -22 -38 -26 -60 -4z" />
    <glyph glyph-name="ampersand" unicode="&#x26;" horiz-adv-x="753" 
d="M680 -8c24 -35 -26 -94 -41 -74c-20 25 -42 53 -64 82c-24 -21 -51 -38 -80 -52c-118 -53 -239 -64 -333 31c-96 97 -66 208 24 290c43 40 103 69 164 94c-9 19 -17 39 -24 59c-29 83 -21 169 27 228c50 62 119 67 195 67c66 0 101 -59 77 -61
c-105 -11 -176 -24 -212 -123c-15 -40 -8 -88 11 -141c120 50 208 116 159 239c-7 20 78 0 93 -58c42 -163 -90 -205 -216 -259c30 -56 68 -113 106 -166c22 46 25 98 -2 152c-16 32 71 -2 82 -25c38 -74 25 -151 -16 -213c19 -27 37 -50 50 -70zM443 18c27 17 53 37 75 60
c-46 65 -91 134 -128 204c-185 -94 -221 -200 -177 -270c48 -76 167 -35 230 6z" />
    <glyph glyph-name="question" unicode="?" horiz-adv-x="486" 
d="M53 -85c-25 16 -28 54 -9 84c20 30 56 42 80 26c25 -15 28 -53 9 -83c-20 -31 -56 -42 -80 -27zM143 162c26 70 72 123 176 169c182 79 251 237 175 300c-74 61 -298 -66 -243 -275c5 -22 -72 0 -87 58c-35 136 47 243 140 278c85 33 195 25 254 -53
c96 -129 38 -260 -64 -328c-118 -77 -216 -86 -285 -219c-17 -32 -78 39 -66 70z" />
    <glyph glyph-name="exclam" unicode="!" horiz-adv-x="370" 
d="M153 181l322 527c14 24 104 -47 69 -103c-120 -197 -215 -332 -334 -516c-15 -24 -91 38 -57 92zM56 -85c-24 16 -28 54 -8 84c19 30 55 42 80 26c24 -15 28 -53 8 -83c-20 -31 -56 -42 -80 -27z" />
    <glyph glyph-name="circumflex" unicode="&#x2c6;" horiz-adv-x="351" 
d="M268 548c26 -21 46 -39 71 -60c17 -15 -36 -31 -55 -17c-9 6 -33 22 -52 37c-22 -9 -60 -27 -73 -31c-23 -7 -60 7 -41 19c29 16 72 40 101 55c15 7 38 6 49 -3z" />
    <glyph glyph-name="acircumflex" unicode="&#xe2;" horiz-adv-x="430" 
d="M461 514c15 -29 27 -54 42 -83c10 -20 -45 -14 -57 6c-6 9 -22 33 -34 54c-24 0 -66 -1 -79 0c-24 2 -53 30 -31 33c33 4 82 9 115 12c16 1 37 -9 44 -22zM483 226c12 19 59 -30 22 -85c-93 -140 -186 -163 -233 -129c-22 16 -30 38 -31 63c-57 -66 -122 -110 -188 -44
c-65 66 -39 139 37 254c40 61 97 111 140 133c36 18 60 13 92 -12c19 -14 49 -26 50 -53c27 -10 55 -40 46 -53c-9 -12 -41 -52 -71 -100c-35 -54 -76 -129 -47 -149c26 -18 131 101 183 175zM73 58c9 -12 59 12 159 137l18 26c27 42 68 117 53 131
c-17 14 -93 -48 -156 -141c-42 -61 -85 -138 -74 -153z" />
    <glyph glyph-name="ecircumflex" unicode="&#xea;" horiz-adv-x="356" 
d="M415 514c15 -29 27 -54 42 -83c10 -20 -45 -14 -57 6c-6 9 -22 33 -34 54c-24 0 -66 -1 -79 0c-24 2 -53 30 -31 33c33 4 82 9 115 12c16 1 37 -9 44 -22zM240 450c16 4 41 6 62 -10c77 -55 80 -82 55 -147c-35 -88 -100 -149 -171 -164c-26 -5 -55 18 -72 34
c-15 -44 -14 -89 5 -102c52 -35 194 24 300 180c10 15 62 -24 22 -86c-65 -102 -235 -208 -357 -127c-39 25 -61 49 -61 108c0 106 126 289 217 314zM170 257c-26 -36 -42 -67 -33 -72c15 -8 57 28 94 72c49 58 70 113 62 119c-9 7 -63 -34 -123 -119z" />
    <glyph glyph-name="ocircumflex" unicode="&#xf4;" horiz-adv-x="419" 
d="M423 514c15 -29 27 -54 42 -83c10 -20 -45 -14 -57 6c-6 9 -22 33 -34 54c-24 0 -66 -1 -79 0c-24 2 -53 30 -31 33c33 4 82 9 115 12c16 1 37 -9 44 -22zM475 236c8 14 62 -25 23 -86c-36 -54 -127 -127 -190 -51c-23 -32 -50 -63 -75 -79c-77 -52 -132 -17 -149 -3
c-17 13 -69 36 -64 103c11 132 105 237 150 277c46 40 80 43 117 22c107 -61 108 -119 73 -225c-4 -10 -9 -22 -16 -35c4 -11 9 -21 16 -24c21 -8 63 18 115 101zM113 55c27 -21 103 72 136 122c4 6 8 13 13 21c-14 40 -27 94 -20 135c-25 -20 -55 -52 -85 -101
c-41 -65 -68 -159 -44 -177z" />
    <glyph glyph-name="ucircumflex" unicode="&#xfb;" 
d="M383 548c26 -21 46 -39 71 -60c17 -15 -36 -31 -55 -17c-9 6 -33 22 -52 37c-22 -9 -60 -27 -73 -31c-23 -7 -60 7 -41 19c29 16 72 40 101 55c15 7 38 6 49 -3zM384 252c-24 -36 -119 -173 -79 -201c27 -19 131 100 182 174c13 18 60 -30 23 -85
c-93 -139 -186 -162 -233 -128c-22 16 -35 35 -43 57c-58 -60 -125 -99 -185 -42c-60 55 -34 150 43 263c54 81 78 110 97 128c30 28 85 -35 70 -58l-108 -148c-42 -60 -84 -137 -73 -152c9 -12 59 12 159 137l153 222c27 19 89 -35 76 -53c-5 -7 -44 -57 -82 -114z" />
    <glyph glyph-name="Ucircumflex" unicode="&#xdb;" horiz-adv-x="606" 
d="M627 879c26 -21 46 -39 71 -60c17 -15 -36 -31 -55 -17c-9 6 -33 22 -52 37c-22 -9 -60 -27 -73 -31c-23 -7 -60 7 -41 19c29 16 72 40 101 55c15 7 38 6 49 -3zM754 618c-69 -142 -143 -254 -231 -373c-7 -11 -13 -23 -20 -35c-31 -57 -129 -211 -74 -211
c5 0 20 -3 75 49c71 71 131 136 184 221c22 34 54 -37 10 -105c-84 -130 -202 -219 -266 -219c-61 0 -88 39 -92 89c-16 -17 -31 -31 -40 -39c-63 -51 -183 -107 -258 21c-36 61 -1 138 31 196c98 177 296 411 268 438c-29 28 -119 -65 -155 -117
c-46 -66 -72 -117 -101 -193c-19 -52 -66 49 -37 127c82 228 276 293 333 212c60 -84 14 -149 -16 -201c-37 -65 -192 -287 -192 -287c-26 -45 -103 -151 -63 -188c34 -32 193 81 352 341c3 4 6 8 8 12c70 119 150 233 215 352c16 28 92 -43 69 -90z" />
    <glyph glyph-name="Ecircumflex" unicode="&#xca;" horiz-adv-x="561" 
d="M731 826c15 -29 27 -54 42 -83c10 -20 -45 -14 -57 6c-6 9 -22 33 -34 54c-24 0 -66 -1 -79 0c-24 2 -53 30 -31 33c33 4 82 9 115 12c16 1 37 -9 44 -22zM366 302c25 -3 6 -94 -25 -100c-226 -49 -242 -147 -210 -186c44 -56 183 -50 339 64c60 44 120 105 173 189
c22 35 55 -30 13 -99c-96 -155 -391 -427 -612 -131c-68 91 56 186 177 218c-73 54 -90 124 -71 194c-55 50 -80 115 -46 178c43 80 121 53 103 31c-44 -53 -47 -102 -27 -140c89 146 317 256 465 130c127 -109 -108 -315 -303 -286c-40 6 -78 18 -113 34
c-3 -43 31 -84 137 -96zM403 594c-61 -34 -120 -86 -151 -136c15 -7 31 -11 47 -14c180 -27 323 122 296 184c-11 25 -91 23 -192 -34z" />
    <glyph glyph-name="Icircumflex" unicode="&#xce;" horiz-adv-x="577" 
d="M838 879c26 -21 46 -39 71 -60c17 -15 -36 -31 -55 -17c-9 6 -33 22 -52 37c-22 -9 -60 -27 -73 -31c-23 -7 -60 7 -41 19c29 16 72 40 101 55c15 7 38 6 49 -3zM875 680c5 -46 -47 -60 -82 -67c-10 -2 -29 -4 -54 -7c-42 -62 -81 -134 -109 -180
c-39 -65 -79 -129 -118 -194c-52 -86 -102 -171 -176 -242c-77 -74 -153 -61 -241 -13c-140 78 -51 252 80 306c94 39 199 -1 130 -22c-200 -60 -229 -212 -185 -253c36 -32 116 12 149 47c38 40 71 83 101 129c49 77 95 156 142 234c28 46 68 113 106 173
c-91 -16 -170 -42 -110 -94c18 -15 -13 -25 -41 -17c-40 12 -86 56 -51 118c35 59 151 61 249 64l12 18c19 26 50 81 89 84c44 4 105 -38 109 -84z" />
    <glyph glyph-name="Acircumflex" unicode="&#xc2;" horiz-adv-x="905" 
d="M1116 826c15 -29 27 -54 42 -83c10 -20 -45 -14 -57 6c-6 9 -22 33 -34 54c-24 0 -66 -1 -79 0c-24 2 -53 30 -31 33c33 4 82 9 115 12c16 1 37 -9 44 -22zM980 259c18 26 58 -35 17 -94c-89 -126 -180 -156 -269 -142c-14 -27 -28 -53 -42 -77c-15 -26 -94 31 -68 82
c4 8 9 17 13 25c-48 22 -93 51 -133 77c-74 -83 -157 -170 -259 -204c-135 -43 -293 85 -183 220c91 111 229 135 362 92c13 -4 26 -9 38 -15c39 44 78 89 118 131c94 101 204 239 313 325c47 37 98 51 141 -4c43 -54 -48 -185 -72 -230c-56 -106 -125 -235 -190 -354
c109 1 160 93 214 168zM220 10c73 46 136 106 196 170c-11 5 -21 10 -30 13c-84 24 -191 -21 -246 -95c-57 -80 -39 -163 80 -88zM663 113l260 475c-64 -53 -354 -378 -383 -410c38 -24 77 -48 123 -65z" />
    <glyph glyph-name="Ocircumflex" unicode="&#xd4;" horiz-adv-x="600" 
d="M631 838c15 -29 27 -54 42 -83c10 -20 -45 -14 -57 6c-6 9 -22 33 -34 54c-24 0 -66 -1 -79 0c-24 2 -53 30 -31 33c33 4 82 9 115 12c16 1 37 -9 44 -22zM683 268c20 33 60 -32 10 -105c-89 -132 -217 -187 -336 -182c-86 -50 -182 -63 -270 -12c-77 44 -77 141 -39 241
c-8 23 -14 48 -18 74c-15 115 22 195 70 266c90 133 318 284 482 93c128 -148 35 -427 -127 -586c78 32 159 101 228 211zM120 11c19 -13 55 -14 101 4c-50 24 -94 60 -127 106c-12 -58 5 -94 26 -110zM282 46c54 35 114 90 170 171c116 167 132 348 88 400
c-57 68 -175 45 -252 -11c-80 -58 -163 -168 -175 -272c44 65 99 122 150 151c52 31 105 5 89 -10c-82 -72 -140 -137 -181 -195c-17 -23 -31 -46 -42 -66c28 -87 84 -145 153 -168z" />
    <glyph glyph-name="icircumflex" unicode="&#xee;" horiz-adv-x="237" 
d="M242 336c-18 -31 -62 -88 -83 -117c-41 -58 -78 -142 -59 -159c29 -24 142 95 194 169c12 17 59 -30 22 -85c-93 -140 -192 -167 -235 -128c-113 104 -45 188 18 279c38 55 70 90 75 97c23 26 79 -36 68 -56zM344 514c15 -29 27 -54 42 -83c10 -20 -45 -14 -57 6
c-6 9 -22 33 -34 54c-24 0 -66 -1 -79 0c-24 2 -53 30 -31 33c33 4 82 9 115 12c16 1 37 -9 44 -22z" />
    <glyph glyph-name="questiondown" unicode="&#xbf;" horiz-adv-x="486" 
d="M625 709c25 -16 28 -54 9 -84c-20 -30 -56 -42 -80 -26c-25 15 -28 53 -9 83c20 31 56 42 80 27zM535 462c-26 -70 -72 -123 -176 -169c-182 -79 -251 -237 -175 -300c74 -61 298 66 243 275c-5 22 72 0 87 -58c35 -136 -47 -243 -140 -278c-85 -33 -195 -25 -254 53
c-96 129 -38 260 64 328c118 77 216 86 285 219c17 32 78 -39 66 -70z" />
    <glyph glyph-name="exclamdown" unicode="&#xa1;" horiz-adv-x="370" 
d="M453 451l-322 -527c-14 -24 -104 47 -69 103c120 197 215 332 334 516c15 24 91 -38 57 -92zM550 717c24 -16 28 -54 8 -84c-19 -30 -55 -42 -80 -26c-24 15 -28 53 -8 83c20 31 56 42 80 27z" />
    <glyph glyph-name="atilde" unicode="&#xe3;" horiz-adv-x="430" 
d="M508 453c11 3 11 -29 -18 -39c-36 -12 -68 -6 -92 25c-23 29 -43 69 -86 57c-40 -11 0 34 18 39c38 11 72 7 98 -25c21 -26 40 -69 80 -57zM483 226c12 19 59 -30 22 -85c-93 -140 -186 -163 -233 -129c-22 16 -30 38 -31 63c-57 -66 -122 -110 -188 -44
c-65 66 -39 139 37 254c40 61 97 111 140 133c36 18 60 13 92 -12c19 -14 49 -26 50 -53c27 -10 55 -40 46 -53c-9 -12 -41 -52 -71 -100c-35 -54 -76 -129 -47 -149c26 -18 131 101 183 175zM73 58c9 -12 59 12 159 137l18 26c27 42 68 117 53 131
c-17 14 -93 -48 -156 -141c-42 -61 -85 -138 -74 -153z" />
    <glyph glyph-name="ntilde" unicode="&#xf1;" horiz-adv-x="433" 
d="M445 525c10 7 21 -23 -3 -43c-30 -23 -62 -29 -95 -8c-32 19 -64 50 -100 24c-34 -24 -12 32 3 43c32 23 65 31 101 10c28 -17 61 -51 94 -26zM-48 57c22 42 199 339 222 373c19 28 82 -32 57 -81c-25 -50 -77 -139 -118 -207c102 98 217 215 286 289
c19 23 104 -19 77 -56c-49 -68 -137 -190 -172 -262c-14 -30 -27 -57 -17 -66c11 -10 115 55 205 186c14 21 57 -33 23 -85c-125 -186 -267 -179 -296 -83c-10 36 10 98 31 137l9 15c-86 -86 -184 -176 -230 -214c-18 -14 -92 25 -77 54z" />
    <glyph glyph-name="otilde" unicode="&#xf5;" horiz-adv-x="419" 
d="M469 453c11 3 11 -29 -18 -39c-36 -12 -68 -6 -92 25c-23 29 -43 69 -86 57c-40 -11 0 34 18 39c38 11 72 7 98 -25c21 -26 40 -69 80 -57zM475 236c8 14 62 -25 23 -86c-36 -54 -127 -127 -190 -51c-23 -32 -50 -63 -75 -79c-77 -52 -132 -17 -149 -3
c-17 13 -69 36 -64 103c11 132 105 237 150 277c46 40 80 43 117 22c107 -61 108 -119 73 -225c-4 -10 -9 -22 -16 -35c4 -11 9 -21 16 -24c21 -8 63 18 115 101zM113 55c27 -21 103 72 136 122c4 6 8 13 13 21c-14 40 -27 94 -20 135c-25 -20 -55 -52 -85 -101
c-41 -65 -68 -159 -44 -177z" />
    <glyph glyph-name="tilde" unicode="&#x2dc;" horiz-adv-x="718" 
d="M445 525c10 7 21 -23 -3 -43c-30 -23 -62 -29 -95 -8c-32 19 -64 50 -100 24c-34 -24 -12 32 3 43c32 23 65 31 101 10c28 -17 61 -51 94 -26z" />
    <glyph glyph-name="Ntilde" unicode="&#xd1;" horiz-adv-x="663" 
d="M703 798c10 7 21 -23 -3 -43c-30 -23 -62 -29 -95 -8c-32 19 -64 50 -100 24c-34 -24 -12 32 3 43c32 23 65 31 101 10c28 -17 61 -51 94 -26zM98 -55c-25 -21 -86 34 -72 62c5 8 75 128 120 205c101 175 294 417 268 438c-31 26 -119 -65 -154 -116
c-47 -66 -73 -117 -101 -193c-20 -53 -67 48 -38 127c83 227 281 281 335 218c66 -79 4 -151 -26 -203c-27 -48 -138 -221 -195 -310c178 172 366 370 511 538c16 19 93 -29 81 -52c-86 -151 -183 -296 -267 -449c-31 -57 -129 -211 -75 -211c6 0 21 -3 75 50
c72 70 132 136 185 220c22 35 53 -36 9 -104c-84 -130 -202 -220 -265 -220c-98 0 -109 102 -75 187c36 91 84 178 136 263c-146 -159 -301 -318 -452 -450z" />
    <glyph glyph-name="Atilde" unicode="&#xc3;" horiz-adv-x="905" 
d="M1132 798c10 7 21 -23 -3 -43c-30 -23 -62 -29 -95 -8c-32 19 -64 50 -100 24c-34 -24 -12 32 3 43c32 23 65 31 101 10c28 -17 61 -51 94 -26zM980 259c18 26 58 -35 17 -94c-89 -126 -180 -156 -269 -142c-14 -27 -28 -53 -42 -77c-15 -26 -94 31 -68 82
c4 8 9 17 13 25c-48 22 -93 51 -133 77c-74 -83 -157 -170 -259 -204c-135 -43 -293 85 -183 220c91 111 229 135 362 92c13 -4 26 -9 38 -15c39 44 78 89 118 131c94 101 204 239 313 325c47 37 98 51 141 -4c43 -54 -48 -185 -72 -230c-56 -106 -125 -235 -190 -354
c109 1 160 93 214 168zM220 10c73 46 136 106 196 170c-11 5 -21 10 -30 13c-84 24 -191 -21 -246 -95c-57 -80 -39 -163 80 -88zM663 113l260 475c-64 -53 -354 -378 -383 -410c38 -24 77 -48 123 -65z" />
    <glyph glyph-name="hyphen" unicode="-" horiz-adv-x="445" 
d="M193 155c-45 -7 -109 61 -71 66c68 9 136 14 204 17c49 2 112 -67 71 -66z" />
    <glyph glyph-name="plus" unicode="+" horiz-adv-x="493" 
d="M374 239c48 2 112 -67 71 -67l-139 -10c-24 -42 -46 -83 -59 -114c-10 -21 -63 41 -54 66c5 14 11 28 18 42l-18 -1c-44 -7 -109 61 -71 66c35 5 83 9 130 11c24 42 50 84 73 121c14 24 66 -44 53 -65c-9 -16 -19 -33 -29 -50c9 0 17 0 25 1z" />
    <glyph glyph-name="cent" unicode="&#xa2;" horiz-adv-x="579" 
d="M416 388c46 41 113 101 119 161c6 69 -114 -7 -158 -42c-157 -122 -237 -321 -180 -392c31 -40 132 -36 244 46c43 32 86 76 125 136c15 25 38 -26 8 -76c-65 -106 -192 -202 -306 -184c-25 -48 -47 -86 -64 -118c-9 -17 -66 22 -49 54c9 19 31 62 46 90
c-24 16 -47 38 -67 68c-50 76 8 226 65 305c62 85 183 188 289 183h3l58 110c10 18 57 -28 44 -54c-11 -22 -26 -49 -40 -73c34 -18 58 -50 42 -96c-16 -47 -39 -84 -95 -124c-25 -18 -128 -33 -84 6z" />
    <glyph glyph-name="dollar" unicode="$" horiz-adv-x="472" 
d="M537 729c11 18 57 -28 45 -54c-14 -28 -34 -61 -49 -88c15 -9 29 -24 39 -45c44 -92 -94 -271 -235 -300c-48 -10 -112 25 -84 31c100 19 187 92 233 181c8 15 42 76 27 93c-6 8 -29 17 -95 -22c-75 -44 -217 -175 -190 -274c15 -59 94 -60 159 -97c30 -17 34 -47 26 -70
c-19 -53 -85 -58 -154 -43c-27 -50 -49 -89 -66 -122c-10 -17 -66 22 -50 54c10 19 31 61 46 89c-37 15 -70 32 -90 48c-12 9 32 29 52 18c43 -24 178 -84 198 -27c10 25 -55 39 -76 48c-43 18 -89 49 -111 96c-47 98 102 250 167 294c41 27 93 53 140 58z" />
    <glyph glyph-name="sterling" unicode="&#xa3;" horiz-adv-x="660" 
d="M658 320c16 25 39 -27 7 -76c-86 -133 -271 -235 -347 -97c-26 -35 -58 -67 -102 -76c-50 -10 -104 35 -101 82c4 60 52 134 113 161c40 18 72 4 99 -30c10 17 20 35 30 52l-52 -4c-28 -4 -75 48 -51 51c21 3 76 8 133 13c8 17 16 34 23 52c26 63 58 168 125 181
c27 6 71 -25 81 -46c12 -29 9 -77 -18 -122c-15 -26 -84 -48 -67 -12c43 88 46 121 36 126c-21 10 -71 -107 -100 -173c35 3 64 5 77 5c31 2 78 -51 51 -50l-155 -14c-23 -45 -50 -89 -78 -131c19 -76 29 -94 54 -94c23 0 70 20 121 64c50 42 83 77 121 138zM174 110
c19 -7 66 47 115 116c-12 26 -27 36 -57 12c-11 -8 -22 -20 -33 -34c-49 -65 -32 -92 -25 -94z" />
    <glyph glyph-name="Euro" unicode="&#x20ac;" horiz-adv-x="664" 
d="M501 388c45 41 113 101 118 161c7 69 -113 -7 -157 -42c-58 -45 -105 -100 -139 -156c40 4 74 6 89 7c31 1 77 -52 51 -51l-171 -15c-9 -19 -15 -37 -20 -55c28 2 53 4 68 5c31 1 77 -51 51 -51l-128 -12c0 -26 6 -48 19 -64c31 -40 132 -36 244 46c43 32 86 76 124 136
c16 25 39 -26 9 -76c-93 -152 -312 -282 -440 -90c-8 12 -13 26 -16 42l-20 -2c-29 -4 -76 47 -51 51c15 2 41 5 69 8c2 18 6 37 11 56l-39 -4c-29 -4 -76 48 -51 51c17 3 61 7 110 11c15 35 34 67 52 92c62 85 183 188 289 183c59 -2 132 -41 107 -113
c-17 -47 -39 -84 -95 -124c-25 -18 -129 -33 -84 6z" />
    <glyph glyph-name="ordmasculine" unicode="&#xba;" horiz-adv-x="409" 
d="M176 341c-40 -4 -91 57 -57 60c61 6 151 9 212 9c44 1 94 -61 58 -59zM330 702c68 -40 69 -76 47 -145c-11 -30 -48 -89 -82 -111c-48 -33 -83 -11 -94 -2s-48 24 -42 67c4 83 68 150 97 177c28 25 50 27 74 14zM305 546c18 27 50 100 30 114c-8 5 -49 -14 -88 -78
c-26 -42 -43 -102 -29 -113c18 -13 66 45 87 77z" />
    <glyph glyph-name="degree" unicode="&#xb0;" horiz-adv-x="324" 
d="M288 634c58 -32 64 -90 41 -148c-25 -53 -76 -95 -135 -63c-55 31 -67 93 -41 148c25 53 76 96 135 63zM204 453c16 -8 47 25 65 63c16 36 23 79 9 86c-15 8 -45 -23 -61 -56c-17 -36 -26 -87 -13 -93z" />
    <glyph glyph-name="plusminus" unicode="&#xb1;" horiz-adv-x="408" 
d="M149 49c-33 -5 -81 45 -53 49c51 7 102 11 152 13c36 1 83 -50 53 -49zM344 269c37 2 84 -50 53 -49l-103 -8c-18 -32 -34 -62 -44 -85c-8 -16 -47 31 -40 49c3 10 8 21 13 31l-13 -1c-33 -4 -81 46 -53 50c26 3 61 6 96 8c18 32 38 62 55 90c10 18 49 -33 40 -49
c-7 -11 -15 -24 -22 -37c6 1 13 1 18 1z" />
    <glyph glyph-name="parenleft" unicode="(" horiz-adv-x="277" 
d="M583 705c-263 -113 -506 -454 -467 -770c4 -36 -83 9 -87 38c-43 313 155 624 431 770c56 30 167 -19 123 -38z" />
    <glyph glyph-name="parenright" unicode=")" horiz-adv-x="591" 
d="M33 -31c263 113 506 454 467 770c-4 36 83 -9 87 -38c42 -313 -155 -624 -431 -770c-56 -30 -167 19 -123 38z" />
    <glyph glyph-name="quotedbl" unicode="&#x22;" horiz-adv-x="407" 
d="M284 559c-18 -25 -75 -28 -59 -3c22 37 44 76 69 111c20 28 77 17 64 -2c-25 -35 -61 -89 -74 -106zM369 548c-21 -22 -77 -18 -59 4c27 34 54 70 83 102c24 25 78 7 63 -10c-29 -32 -72 -80 -87 -96z" />
    <glyph glyph-name="equal" unicode="=" horiz-adv-x="445" 
d="M397 126l-204 -17c-44 -7 -108 61 -71 66c68 9 136 14 205 17c48 2 111 -67 70 -66zM397 233l-204 -17c-44 -6 -108 61 -71 66c68 9 136 14 205 17c48 2 111 -67 70 -66z" />
    <glyph glyph-name="quotesingle" unicode="'" horiz-adv-x="365" 
d="M306 559c-18 -25 -75 -28 -59 -3c22 37 44 76 69 111c20 28 77 17 64 -2c-25 -35 -61 -89 -74 -106z" />
    <glyph glyph-name="bullet" unicode="&#x2022;" horiz-adv-x="292" 
d="M257 319c31 -20 36 -67 11 -106c-25 -38 -71 -53 -102 -34c-31 20 -36 69 -10 107c25 39 70 53 101 33z" />
    <glyph glyph-name="aring" unicode="&#xe5;" horiz-adv-x="430" 
d="M462 579c41 -23 46 -65 30 -107c-19 -38 -56 -69 -98 -45c-39 22 -49 66 -30 106c19 39 55 69 98 46zM401 448c12 -5 34 18 47 46c12 25 16 56 6 62c-10 5 -32 -17 -44 -41c-12 -26 -18 -63 -9 -67zM483 226c12 19 59 -30 22 -85c-93 -140 -186 -163 -233 -129
c-22 16 -30 38 -31 63c-57 -66 -122 -110 -188 -44c-65 66 -39 139 37 254c40 61 97 111 140 133c36 18 60 13 92 -12c19 -14 49 -26 50 -53c27 -10 55 -40 46 -53c-9 -12 -41 -52 -71 -100c-35 -54 -76 -129 -47 -149c26 -18 131 101 183 175zM73 58c9 -12 59 12 159 137
l18 26c27 42 68 117 53 131c-17 14 -93 -48 -156 -141c-42 -61 -85 -138 -74 -153z" />
    <glyph glyph-name="Aring" unicode="&#xc5;" horiz-adv-x="905" 
d="M1097 895c41 -23 46 -65 30 -107c-19 -38 -56 -69 -98 -45c-39 22 -49 66 -30 106c19 39 55 69 98 46zM1036 764c12 -5 34 18 47 46c12 25 16 56 6 62c-10 5 -32 -17 -44 -41c-12 -26 -18 -63 -9 -67zM980 259c18 26 58 -35 17 -94c-89 -126 -180 -156 -269 -142
c-14 -27 -28 -53 -42 -77c-15 -26 -94 31 -68 82c4 8 9 17 13 25c-48 22 -93 51 -133 77c-74 -83 -157 -170 -259 -204c-135 -43 -293 85 -183 220c91 111 229 135 362 92c13 -4 26 -9 38 -15c39 44 78 89 118 131c94 101 204 239 313 325c47 37 98 51 141 -4
c43 -54 -48 -185 -72 -230c-56 -106 -125 -235 -190 -354c109 1 160 93 214 168zM220 10c73 46 136 106 196 170c-11 5 -21 10 -30 13c-84 24 -191 -21 -246 -95c-57 -80 -39 -163 80 -88zM663 113l260 475c-64 -53 -354 -378 -383 -410c38 -24 77 -48 123 -65z" />
    <glyph glyph-name="ellipsis" unicode="&#x2026;" horiz-adv-x="813" 
d="M206 125c27 -17 31 -58 9 -92c-21 -33 -61 -46 -88 -29s-31 59 -9 92c22 34 61 47 88 29zM477 125c27 -17 31 -58 9 -92c-21 -33 -61 -46 -88 -29s-31 59 -9 92c22 34 61 47 88 29zM748 125c27 -17 31 -58 9 -92c-21 -33 -61 -46 -88 -29s-31 59 -9 92c22 34 61 47 88 29
z" />
    <glyph glyph-name="numbersign" unicode="#" horiz-adv-x="730" 
d="M641 387c26 2 99 -56 63 -59c-53 -5 -106 -9 -159 -12c-22 -36 -44 -75 -67 -113c17 1 34 3 50 4c26 2 100 -56 64 -59c-51 -5 -102 -9 -153 -12c-48 -84 -88 -155 -98 -175c-8 -19 -55 36 -47 58c7 18 28 59 57 110c-39 -3 -79 -7 -118 -10c-45 -78 -81 -142 -90 -162
c-9 -19 -56 36 -48 58c7 17 25 52 49 96c-11 -2 -22 -3 -33 -4c-26 -3 -100 55 -64 59c46 5 91 10 137 14c21 36 44 75 67 113c-14 -1 -28 -3 -42 -4c-26 -3 -100 55 -64 59c49 5 98 10 147 14c48 81 91 150 105 174c13 21 59 -39 48 -58c-10 -17 -35 -58 -66 -110
c39 3 79 5 118 8c46 76 85 141 99 164c12 21 59 -39 47 -58c-9 -16 -31 -53 -59 -100c19 2 38 3 57 5zM390 196c21 37 44 76 67 114l-117 -9c-22 -37 -45 -76 -67 -114z" />
    <glyph glyph-name="percent" unicode="%" horiz-adv-x="815" 
d="M690 261c72 -55 63 -148 16 -238c-49 -83 -133 -146 -207 -89c-68 53 -69 152 -17 239c51 81 135 145 208 88zM629 76c34 55 64 132 46 145s-78 -43 -110 -94c-33 -55 -68 -145 -51 -155c21 -13 80 43 115 104zM674 713c18 25 64 -55 49 -77c-55 -77 -428 -628 -483 -712
c-23 -35 -60 51 -49 78c27 57 215 329 349 521c-40 -5 -73 2 -99 19c-3 -36 -15 -74 -35 -112c-51 -82 -135 -145 -208 -89c-68 52 -69 152 -16 238c50 83 133 146 207 89c20 -15 29 -29 42 -53c59 -81 182 13 243 98zM329 483c33 55 62 132 46 144c-19 14 -79 -42 -110 -93
c-35 -56 -68 -144 -52 -155c20 -13 80 44 116 104z" />
    <glyph glyph-name="asterisk" unicode="*" horiz-adv-x="386" 
d="M418 666c15 0 -1 -45 -15 -46c-15 -1 -42 -2 -72 -4c19 -33 36 -64 46 -80c7 -14 -40 -21 -48 -9c-8 16 -24 43 -43 74c-29 -40 -54 -76 -63 -90c-7 -11 -32 27 -25 41c6 13 21 34 38 59c-33 -2 -61 -5 -74 -7c-14 -2 -1 42 14 46c16 4 44 6 76 9c-20 33 -39 63 -48 75
c-8 11 37 20 47 9c10 -12 24 -34 40 -59c28 37 55 71 67 87c9 12 34 -29 26 -40c-10 -13 -30 -39 -52 -68c36 1 68 2 86 3z" />
    <glyph glyph-name="slash" unicode="/" horiz-adv-x="425" 
d="M568 735c18 25 65 -55 49 -78c-55 -78 -433 -636 -489 -720c-23 -35 -61 51 -49 78c17 37 459 680 489 720z" />
    <glyph glyph-name="backslash" unicode="\" horiz-adv-x="408" 
d="M23 725c-7 30 85 14 92 -13c25 -92 196 -666 225 -763c12 -40 -78 -14 -91 13c-18 36 -214 714 -226 763z" />
    <glyph glyph-name="at" unicode="@" horiz-adv-x="835" 
d="M555 165c29 -17 91 40 140 111c86 123 73 294 -28 339c-121 55 -258 -19 -351 -124c-107 -119 -150 -328 -22 -436c66 -57 185 -48 270 24c17 14 47 -83 -63 -117c-80 -25 -160 -5 -226 43c-198 146 -161 422 -9 572c140 137 354 158 482 36c126 -120 96 -293 -18 -418
c-86 -93 -161 -98 -203 -68c-21 15 -30 37 -30 62c-57 -66 -122 -110 -188 -44c-65 66 -39 139 37 253c40 62 97 111 140 133c35 19 60 14 92 -11c19 -14 48 -27 50 -53c26 -10 55 -41 46 -53s-41 -53 -72 -100c-34 -54 -77 -130 -47 -149zM505 335c28 42 69 117 54 130
c-17 15 -93 -48 -157 -141c-41 -60 -84 -137 -73 -152c9 -12 59 13 158 137z" />
    <glyph glyph-name="greater" unicode="&#x3e;" horiz-adv-x="360" 
d="M331 256c11 -18 7 -53 -4 -61c-28 -20 -135 -84 -168 -105c-19 -12 -15 47 -2 59s99 75 116 87c-7 11 -20 35 -38 65c-14 23 15 75 28 59c14 -17 47 -69 68 -104z" />
    <glyph glyph-name="less" unicode="&#x3c;" horiz-adv-x="325" 
d="M144 195c-10 18 -7 53 4 61c28 20 135 84 168 105c19 13 15 -47 2 -59s-99 -75 -116 -87c7 -11 21 -34 39 -65c13 -23 -16 -75 -29 -59c-14 18 -46 69 -68 104z" />
    <glyph glyph-name="asciicircum" unicode="^" horiz-adv-x="377" 
d="M303 694c16 -44 35 -146 38 -186c1 -13 -55 0 -60 27c-9 53 -11 66 -18 99c-18 -24 -61 -79 -75 -92c-13 -11 -70 -8 -56 10c41 52 95 125 115 146c13 14 50 11 56 -4z" />
    <glyph glyph-name="Otilde" unicode="&#xd5;" horiz-adv-x="600" 
d="M599 833c10 7 21 -23 -3 -43c-30 -23 -62 -29 -95 -8c-32 19 -64 50 -100 24c-34 -24 -12 32 3 43c32 23 65 31 101 10c28 -17 61 -51 94 -26zM683 268c20 33 60 -32 10 -105c-89 -132 -217 -187 -336 -182c-86 -50 -182 -63 -270 -12c-77 44 -77 141 -39 241
c-8 23 -14 48 -18 74c-15 115 22 195 70 266c90 133 318 284 482 93c128 -148 35 -427 -127 -586c78 32 159 101 228 211zM120 11c19 -13 55 -14 101 4c-50 24 -94 60 -127 106c-12 -58 5 -94 26 -110zM282 46c54 35 114 90 170 171c116 167 132 348 88 400
c-57 68 -175 45 -252 -11c-80 -58 -163 -168 -175 -272c44 65 99 122 150 151c52 31 105 5 89 -10c-82 -72 -140 -137 -181 -195c-17 -23 -31 -46 -42 -66c28 -87 84 -145 153 -168z" />
    <glyph glyph-name="asciitilde" unicode="~" horiz-adv-x="430" 
d="M418 230c13 9 27 -30 -4 -56c-39 -29 -80 -37 -123 -10c-41 24 -83 65 -129 31c-43 -31 -15 42 4 55c41 30 84 40 131 13c36 -22 78 -66 121 -33z" />
    <glyph glyph-name="bracketleft" unicode="[" horiz-adv-x="570" 
d="M280 -138c-36 -11 -141 -38 -171 -43c-40 -6 -91 44 -81 61c135 219 530 866 530 866c10 14 16 16 29 21c34 11 95 25 123 30c32 5 100 -57 72 -64c-42 -10 -102 -25 -150 -36c-96 -170 -337 -560 -474 -783c13 3 25 7 37 10c44 11 113 -53 85 -62z" />
    <glyph glyph-name="bracketright" unicode="]" horiz-adv-x="723" 
d="M426 754c35 11 140 37 170 42c40 7 92 -43 81 -60c-135 -219 -529 -867 -529 -867c-10 -13 -17 -15 -29 -20c-35 -11 -95 -25 -123 -30c-33 -5 -101 57 -72 64c41 10 101 24 150 36c96 170 336 559 473 783c-12 -3 -25 -7 -37 -10c-44 -11 -112 53 -84 62z" />
    <glyph glyph-name="braceleft" unicode="{" horiz-adv-x="430" 
d="M251 399c176 38 165 339 346 357c26 3 99 -55 63 -59c-83 -8 -135 -134 -172 -198c-40 -67 -82 -134 -160 -156c25 -94 -31 -149 -79 -230c-30 -49 -101 -148 -69 -206c17 -31 -71 2 -83 25c-32 58 13 137 42 187c46 82 134 161 102 263c-3 12 4 15 10 17z" />
    <glyph glyph-name="braceright" unicode="}" horiz-adv-x="485" 
d="M445 252c-176 -39 -164 -339 -346 -358c-26 -2 -99 56 -63 60c83 8 135 134 172 197c40 68 82 135 160 156c-25 95 31 150 80 231c29 49 100 148 68 206c-17 31 71 -2 83 -25c32 -58 -13 -137 -42 -187c-46 -82 -134 -162 -102 -263c4 -12 -4 -16 -10 -17z" />
    <glyph glyph-name="perthousand" unicode="&#x2030;" horiz-adv-x="1084" 
d="M682 261c72 -55 63 -148 16 -238c-49 -83 -133 -146 -207 -89c-68 53 -69 152 -17 239c51 81 135 145 208 88zM621 76c34 55 64 132 46 145s-78 -43 -110 -94c-33 -55 -68 -145 -51 -155c21 -13 80 43 115 104zM666 713c18 25 64 -55 49 -77c-55 -77 -428 -628 -483 -712
c-23 -35 -60 51 -49 78c27 57 215 329 349 521c-40 -5 -73 2 -99 19c-3 -36 -15 -74 -35 -112c-51 -82 -135 -145 -208 -89c-68 52 -69 152 -16 238c50 83 133 146 207 89c20 -15 29 -29 42 -53c59 -81 182 13 243 98zM321 483c33 55 62 132 46 144c-19 14 -79 -42 -110 -93
c-35 -56 -68 -144 -52 -155c20 -13 80 44 116 104zM986 261c72 -55 63 -148 16 -238c-49 -83 -133 -146 -207 -89c-68 53 -69 152 -17 239c51 81 135 145 208 88zM925 76c34 55 64 132 46 145s-78 -43 -110 -94c-33 -55 -68 -145 -51 -155c21 -13 80 43 115 104z" />
    <glyph glyph-name="endash" unicode="&#x2013;" horiz-adv-x="546" 
d="M498 175l-305 -20c-45 -7 -109 61 -71 66c68 9 237 17 305 20c49 2 112 -67 71 -66z" />
    <glyph glyph-name="emdash" unicode="&#x2014;" horiz-adv-x="676" 
d="M627 175l-434 -20c-44 -7 -108 61 -71 66c68 9 366 17 435 20c48 2 111 -67 70 -66z" />
    <glyph glyph-name="underscore" unicode="_" horiz-adv-x="592" 
d="M538 -86l-434 -20c-44 -7 -108 61 -71 66c68 9 366 17 435 20c48 2 111 -67 70 -66z" />
    <glyph glyph-name="bar" unicode="|" horiz-adv-x="365" 
d="M27 -1c109 176 438 718 438 718c17 22 79 -38 57 -76c-104 -187 -320 -530 -439 -726c-14 -24 -79 48 -56 84z" />
    <glyph glyph-name="registered" unicode="&#xae;" horiz-adv-x="445" 
d="M395 691c69 -39 92 -129 51 -201c-40 -73 -129 -100 -198 -62c-69 39 -92 129 -51 201c40 73 129 100 198 62zM416 507c35 63 21 137 -31 166s-123 2 -158 -61s-21 -137 31 -166s123 -2 158 61zM339 663c35 -3 69 -34 70 -70c1 -35 -34 -80 -107 -85c13 -24 49 -20 78 -3
c9 5 5 -33 -30 -39c-45 -8 -66 21 -75 38c-6 -11 -15 -25 -18 -29c-5 -8 -29 9 -25 17c5 8 30 49 39 63c-17 13 -25 28 -25 43c0 6 2 13 5 19c16 35 50 47 78 47c3 0 6 -1 10 -1zM291 529c51 5 93 42 89 81c-2 23 -22 32 -42 32c-43 0 -65 -34 -65 -55c0 -6 2 -11 8 -16
c13 20 34 53 36 58c8 12 28 -12 22 -23c-13 -21 -34 -53 -48 -77z" />
    <glyph glyph-name="copyright" unicode="&#xa9;" horiz-adv-x="429" 
d="M395 691c68 -39 91 -129 51 -201c-41 -73 -129 -100 -198 -62c-69 39 -92 129 -51 201c40 73 129 100 198 62zM416 507c35 63 21 137 -31 166s-123 2 -158 -61s-21 -137 31 -166s122 -2 158 61zM292 587c-29 -34 -42 -78 -29 -98c6 -10 36 -14 79 16c11 8 31 28 45 50
c8 12 18 -15 6 -34c-21 -34 -60 -66 -99 -66v0c-21 0 -43 10 -59 35c-5 8 -7 17 -7 28c0 28 14 61 30 81c31 42 92 89 136 52c10 -8 22 -34 -24 -71c-19 -16 -49 -5 -37 4c18 13 48 50 39 57c-8 7 -52 -22 -80 -54z" />
    <glyph glyph-name="trademark" unicode="&#x2122;" horiz-adv-x="557" 
d="M380 670c-12 3 -66 7 -74 6c2 -1 2 -6 -2 -11c-3 -6 -95 -161 -113 -187c-8 -12 -35 8 -29 17c29 44 109 178 109 178c-79 -17 -100 -38 -97 -42c3 -3 29 9 49 15c17 4 8 -25 -9 -32c-47 -19 -65 8 -65 20c0 16 15 30 30 39c44 26 104 41 187 30c13 -1 32 -36 14 -33z
M417 692c6 7 35 -5 29 -18c-19 -39 -42 -75 -63 -112c44 45 89 94 126 140c7 9 36 -4 29 -18c-25 -47 -53 -85 -77 -129c-8 -14 -32 -52 -24 -56c7 -3 41 33 74 78c6 9 18 -19 6 -35c-49 -70 -81 -70 -97 -60s-19 44 15 98c-32 -35 -63 -70 -98 -100c-9 -7 -34 10 -28 19
c13 23 25 47 38 70c-28 -31 -57 -60 -89 -91c-10 -9 -30 13 -25 22c3 4 85 143 98 163c8 11 31 -17 24 -29c-6 -9 -21 -33 -38 -59c34 37 67 77 100 117z" />
    <glyph glyph-name="oe" unicode="&#x153;" horiz-adv-x="592" 
d="M655 239c11 15 61 -15 26 -76c-58 -105 -238 -218 -361 -137c-16 11 -29 21 -39 34c-13 -14 -27 -27 -40 -36c-77 -51 -132 -16 -148 -3c-17 14 -71 36 -64 104c13 131 104 237 150 277c45 40 80 43 116 22c35 -20 58 -39 73 -60c35 42 74 74 108 83c17 5 42 6 63 -9
c76 -55 80 -82 54 -147c-34 -88 -99 -150 -170 -164c-26 -5 -56 18 -72 33c-15 -44 -14 -88 5 -101c51 -35 194 24 299 180zM117 53c28 -22 103 71 136 121c28 42 79 156 46 178c-13 9 -76 -22 -138 -122c-40 -65 -68 -159 -44 -177zM407 257c-26 -36 -42 -67 -33 -72
c15 -8 57 28 94 72c49 58 70 113 62 119c-9 7 -63 -34 -123 -119z" />
    <glyph glyph-name="ae" unicode="&#xe6;" horiz-adv-x="569" 
d="M245 89c-62 -78 -131 -122 -197 -56c-65 66 -39 139 37 253c40 61 96 110 139 132c36 19 60 14 92 -11c19 -14 49 -27 50 -53c27 -10 55 -40 46 -52c-5 -6 -15 -19 -27 -36c-25 -36 -42 -75 -34 -80c15 -8 58 29 94 72c49 59 72 111 63 119c-9 7 -35 -6 -59 -27
c-22 -20 -73 85 19 104c94 18 138 -76 103 -160c-37 -86 -100 -149 -170 -163c-26 -5 -56 17 -73 33c-15 -44 -14 -88 6 -102c51 -35 194 25 299 180c11 15 60 -29 21 -88c-71 -107 -234 -205 -356 -125c-26 17 -44 34 -53 60zM226 196l18 26c27 42 68 117 53 131
c-16 14 -92 -48 -156 -141c-41 -60 -84 -137 -73 -152c9 -12 59 12 158 136z" />
    <glyph glyph-name="section" unicode="&#xa7;" horiz-adv-x="635" 
d="M422 256c74 -41 166 -81 121 -189c-8 -20 -31 -63 -79 -69c6 -19 5 -39 -1 -57c-50 -141 -344 -36 -437 37c-17 12 45 40 72 25c61 -33 249 -112 276 -44c12 30 -66 54 -100 73c-36 18 -65 38 -82 52c-43 33 -50 63 -38 98c22 63 49 91 89 101c-16 17 -29 36 -37 56
c-58 141 142 349 233 409c109 73 274 141 338 5c60 -128 -132 -377 -327 -417c-68 -14 -157 35 -118 42c140 27 261 128 325 253c10 20 58 105 38 129c-9 11 -41 24 -133 -30c-104 -62 -311 -247 -265 -382c13 -37 71 -63 125 -92zM502 88c14 28 -80 78 -128 101
c-41 18 -150 43 -164 10c-6 -12 31 -61 130 -100c63 -25 150 -34 162 -11z" />
    <glyph glyph-name="quoteleft" unicode="&#x2018;" horiz-adv-x="133" 
d="M97 559c-13 17 -49 71 -74 106c-13 19 43 30 64 2c24 -35 47 -74 69 -111c15 -25 -41 -22 -59 3z" />
    <glyph glyph-name="quoteright" unicode="&#x2019;" horiz-adv-x="411" 
d="M308 559c-18 -25 -75 -28 -59 -3c22 37 44 76 69 111c20 28 77 17 64 -2c-25 -35 -61 -89 -74 -106z" />
    <glyph glyph-name="yen" unicode="&#xa5;" horiz-adv-x="586" 
d="M632 616c16 16 101 0 81 -22c-71 -76 -144 -163 -213 -253c6 1 11 1 15 1c31 2 77 -51 51 -51l-110 -9c-13 -19 -27 -38 -40 -57c11 1 20 1 27 1c31 2 77 -51 51 -51l-118 -11c-27 -42 -53 -83 -75 -125c-9 -17 -67 26 -51 53c15 26 20 36 36 63c-29 -4 -76 48 -51 51
c18 3 51 6 85 10c11 19 21 38 29 57l-73 -6c-29 -4 -76 47 -51 51c22 3 84 8 147 14c16 54 21 111 8 173c-33 158 -117 -9 -148 -91c-10 -26 -46 36 -30 89c24 82 91 156 187 86c46 -34 74 -105 70 -175c54 71 112 140 173 202z" />
    <glyph glyph-name="AE" unicode="&#xc6;" horiz-adv-x="1336" 
d="M1418 269c22 35 59 -25 16 -94c-96 -155 -396 -433 -617 -136c-4 5 -8 11 -10 16l-18 -32c-15 -27 -29 -53 -43 -77c-14 -26 -94 31 -68 81c4 9 9 17 13 26c-48 22 -93 51 -133 77c-74 -83 -157 -171 -259 -204c-135 -44 -293 85 -183 220c91 111 230 135 362 92
c13 -4 26 -9 38 -15c40 44 78 89 118 131c95 101 205 240 314 325c46 37 97 51 141 -4c4 -5 7 -11 8 -17c103 59 229 73 322 -7c78 -65 22 -173 -81 -222c-48 -23 -145 -2 -105 25c135 95 150 144 136 175c-11 26 -90 24 -192 -33c-143 -81 -278 -258 -59 -289
c52 -7 27 -55 21 -75c-9 -26 -16 -28 -24 -30c-226 -49 -242 -147 -211 -187c44 -55 184 -49 341 65c60 44 120 105 173 189zM280 10c73 46 136 106 196 170c-11 5 -21 10 -30 13c-83 24 -191 -21 -246 -96c-57 -79 -39 -162 80 -87zM894 216c31 18 66 32 100 42
c-21 15 -37 33 -50 51c-16 -31 -33 -62 -50 -93zM723 113l260 475c-64 -53 -354 -378 -383 -410c39 -24 77 -48 123 -65z" />
    <glyph glyph-name="currency" unicode="&#xa4;" horiz-adv-x="335" 
d="M394 508c14 10 28 -42 9 -57c-10 -7 -19 -15 -45 -36c0 -19 -6 -41 -14 -66c-7 -19 -23 -48 -42 -74c11 -20 17 -35 20 -42c9 -23 -26 -66 -37 -46c-4 7 -13 28 -22 48c-1 -1 -2 -1 -3 -2c-52 -34 -88 -11 -99 -2c-4 3 -11 7 -18 12c-24 -19 -43 -34 -51 -41
c-21 -18 -25 39 -9 55c6 6 16 14 35 29v14c3 60 36 113 65 148c-7 17 -12 31 -15 40c-7 18 23 76 36 45c6 -15 12 -28 19 -45c28 22 50 23 72 10c20 -11 34 -22 44 -34c33 26 45 36 55 44zM270 337c19 28 53 104 30 118c-8 6 -50 -14 -91 -81c-27 -43 -45 -105 -29 -118
c18 -14 68 48 90 81z" />
    <glyph glyph-name="quotesinglbase" unicode="&#x201a;" horiz-adv-x="340" 
d="M241 -10c-18 -25 -75 -28 -59 -3c22 37 44 76 69 111c20 28 77 17 64 -2c-25 -35 -61 -89 -74 -106z" />
    <glyph glyph-name="quotedblbase" unicode="&#x201e;" horiz-adv-x="454" 
d="M241 -10c-18 -25 -75 -28 -59 -3c22 37 44 76 69 111c20 28 77 17 64 -2c-25 -35 -61 -89 -74 -106zM326 -21c-21 -22 -77 -18 -59 4c27 34 54 70 83 102c24 25 78 7 63 -10c-29 -32 -72 -80 -87 -96z" />
    <glyph glyph-name="multiply" unicode="&#xd7;" horiz-adv-x="300" 
d="M318 329c20 13 35 -61 17 -73c-24 -15 -60 -40 -99 -67l24 -27c30 -31 21 -114 -3 -86l-72 78c-49 -35 -94 -68 -115 -85c-16 -14 -34 57 -17 73c19 18 49 41 82 65l-9 10c-31 27 -23 109 3 87c20 -18 40 -39 59 -61c50 34 99 66 130 86z" />
    <glyph glyph-name="scaron" unicode="&#x161;" horiz-adv-x="307" 
d="M296 551c-16 30 -29 55 -44 85c-10 21 46 15 59 -6c5 -9 22 -34 34 -55c25 0 57 1 70 0c24 -2 54 -31 32 -34c-34 -4 -73 -10 -107 -12c-16 -2 -37 8 -44 22zM318 471c16 -15 27 -34 14 -50c-84 -107 -61 -182 -69 -287c-4 -44 10 -115 -46 -138c-76 -31 -163 -1 -206 70
c-4 6 -4 8 -6 12c-14 -3 -73 3 -57 19c97 94 242 340 289 396c17 21 59 0 81 -22zM117 40c47 -4 57 84 63 164c2 19 3 38 5 56c-44 -54 -85 -103 -123 -143c10 -31 23 -75 55 -77z" />
    <glyph glyph-name="Scaron" unicode="&#x160;" horiz-adv-x="530" 
d="M605 777c-16 30 -29 55 -44 85c-10 21 46 15 59 -6c5 -9 22 -34 34 -55c25 0 57 1 70 0c24 -2 54 -31 32 -34c-34 -4 -73 -10 -107 -12c-16 -2 -37 8 -44 22zM471 624c-104 -61 -301 -243 -265 -381c22 -83 132 -84 222 -135c42 -23 47 -65 36 -98
c-50 -142 -344 -36 -437 37c-16 12 46 39 72 25c61 -33 248 -118 277 -38c12 34 -78 55 -107 67c-59 25 -123 68 -154 133c-66 137 142 348 233 409c109 73 274 140 338 5c60 -129 -132 -377 -327 -417c-67 -14 -156 34 -118 42c140 27 261 128 325 253c10 19 58 105 38 129
c-9 10 -41 23 -133 -31z" />
    <glyph glyph-name="Zcaron" unicode="&#x17d;" horiz-adv-x="616" 
d="M605 777c-16 30 -29 55 -44 85c-10 21 46 15 59 -6c5 -9 22 -34 34 -55c25 0 57 1 70 0c24 -2 54 -31 32 -34c-34 -4 -73 -10 -107 -12c-16 -2 -37 8 -44 22zM768 699c23 14 106 -42 78 -60c-203 -130 -339 -318 -489 -502c18 -66 44 -138 81 -138c6 0 21 -4 75 49
c72 70 132 136 185 220c22 35 56 -33 12 -101c-84 -131 -205 -223 -268 -223c-68 0 -108 62 -138 127c-61 -76 -159 -194 -250 -99c-57 59 -23 155 47 233c66 73 150 84 204 39c2 3 5 6 7 9c84 104 168 206 263 295c-95 24 -177 133 -241 100c-51 -26 -46 -244 -36 -340
c5 -54 -81 20 -90 94c-14 121 17 301 161 303c112 2 221 -124 318 -59c28 18 52 36 81 53zM177 76c19 25 46 62 73 97c-34 26 -75 -16 -100 -47c-33 -40 -69 -104 -54 -118c11 -10 41 15 81 68z" />
    <glyph glyph-name="zcaron" unicode="&#x17e;" horiz-adv-x="413" 
d="M296 551c-16 30 -29 55 -44 85c-10 21 46 15 59 -6c5 -9 22 -34 34 -55c25 0 57 1 70 0c24 -2 54 -31 32 -34c-34 -4 -73 -10 -107 -12c-16 -2 -37 8 -44 22zM135 22c-22 -8 -97 37 -73 51c81 48 151 108 204 186c56 83 50 107 40 119c-16 18 -71 30 -170 -91
c-17 -20 -40 69 -3 112c62 69 156 56 175 47c93 -41 101 -114 53 -202c-33 -59 -71 -117 -117 -154c10 -1 18 -3 27 -6c12 -5 23 -11 33 -19c84 56 122 102 162 161c13 18 63 -31 23 -85c-46 -62 -91 -94 -148 -130c11 -30 13 -67 2 -108c-23 -86 -160 -243 -263 -206
c-131 47 -16 164 41 224c39 40 75 75 129 109c-23 13 -62 9 -115 -8zM254 -78c7 15 12 29 15 41c-40 -32 -78 -71 -109 -107c-51 -59 -84 -98 -73 -112c11 -13 67 45 104 85c25 26 47 59 63 93z" />
    <glyph glyph-name="caron" unicode="&#x2c7;" horiz-adv-x="833" 
d="M296 551c-16 30 -29 55 -44 85c-10 21 46 15 59 -6c5 -9 22 -34 34 -55c25 0 57 1 70 0c24 -2 54 -31 32 -34c-34 -4 -73 -10 -107 -12c-16 -2 -37 8 -44 22z" />
    <glyph glyph-name="ecaron" unicode="&#x11b;" horiz-adv-x="355" 
d="M338 497c-16 30 -29 55 -44 85c-10 21 46 15 59 -6c5 -9 22 -34 34 -55c25 0 57 1 70 0c24 -2 54 -31 32 -34c-34 -4 -73 -10 -107 -12c-16 -2 -37 8 -44 22zM240 450c16 4 41 6 62 -10c77 -55 80 -82 55 -147c-35 -88 -100 -149 -171 -164c-26 -5 -55 18 -72 34
c-15 -44 -14 -89 5 -102c52 -35 194 24 300 180c10 15 62 -24 22 -86c-65 -102 -235 -208 -357 -127c-39 25 -61 49 -61 108c0 106 126 289 217 314zM170 257c-26 -36 -42 -67 -33 -72c15 -8 57 28 94 72c49 58 70 113 62 119c-9 7 -63 -34 -123 -119z" />
    <glyph glyph-name="ccaron" unicode="&#x10d;" horiz-adv-x="357" 
d="M338 497c-16 30 -29 55 -44 85c-10 21 46 15 59 -6c5 -9 22 -34 34 -55c25 0 57 1 70 0c24 -2 54 -31 32 -34c-34 -4 -73 -10 -107 -12c-16 -2 -37 8 -44 22zM290 203c-14 -15 -61 43 -34 90c30 53 36 70 32 74c-8 8 -56 -27 -118 -111c-65 -90 -83 -173 -50 -196
c51 -35 194 25 299 181c11 15 62 -25 24 -85c-65 -103 -237 -208 -360 -128c-32 20 -59 45 -59 104c0 108 131 294 221 318c15 5 36 2 47 -9c69 -66 81 -88 57 -150c-14 -32 -28 -57 -59 -88z" />
    <glyph glyph-name="gcircumflex" unicode="&#x11d;" horiz-adv-x="426" 
d="M437 514c15 -29 27 -54 42 -83c10 -20 -45 -14 -57 6c-6 9 -22 33 -34 54c-24 0 -66 -1 -79 0c-24 2 -53 30 -31 33c33 4 82 9 115 12c16 1 37 -9 44 -22zM491 226c12 18 59 -30 22 -85c-34 -50 -66 -84 -104 -110c-50 -33 -127 -61 -199 -88
c-56 -85 -131 -209 -170 -256c-41 -50 -67 -16 -79 0c-19 24 -6 75 22 130c29 56 62 97 132 138c4 5 19 24 36 47c-27 -6 -56 2 -84 31c-65 65 -39 138 36 252c41 61 97 110 140 132c35 19 60 14 92 -11c18 -14 48 -27 49 -53c27 -10 53 -39 46 -52
c-10 -22 -122 -201 -168 -272c18 8 38 18 44 21c24 11 69 39 95 66c33 35 66 77 90 110zM87 59c9 -11 59 13 158 137l18 25c27 42 68 117 53 131c-17 14 -93 -48 -156 -141c-41 -60 -85 -137 -73 -152z" />
    <glyph glyph-name="ccircumflex" unicode="&#x109;" horiz-adv-x="357" 
d="M402 514c15 -29 27 -54 42 -83c10 -20 -45 -14 -57 6c-6 9 -22 33 -34 54c-24 0 -66 -1 -79 0c-24 2 -53 30 -31 33c33 4 82 9 115 12c16 1 37 -9 44 -22zM290 203c-14 -15 -61 43 -34 90c30 53 36 70 32 74c-8 8 -56 -27 -118 -111c-65 -90 -83 -173 -50 -196
c51 -35 194 25 299 181c11 15 62 -25 24 -85c-65 -103 -237 -208 -360 -128c-32 20 -59 45 -59 104c0 108 131 294 221 318c15 5 36 2 47 -9c69 -66 81 -88 57 -150c-14 -32 -28 -57 -59 -88z" />
    <glyph glyph-name="jcircumflex" unicode="&#x135;" horiz-adv-x="218" 
d="M272 226c13 18 59 -29 23 -84c-34 -51 -67 -85 -105 -110c-48 -33 -104 -57 -173 -84c-53 -102 -112 -213 -159 -281c-37 -53 -76 -12 -88 4c-19 25 -6 75 22 130c26 50 55 96 94 136l278 484c25 32 100 -29 82 -60s-96 -154 -126 -210c-15 -27 -35 -67 -58 -113
c9 4 18 8 26 12c24 12 69 39 95 67c33 34 66 76 89 109zM329 551c15 -29 27 -54 42 -83c10 -20 -45 -14 -57 6c-6 9 -22 33 -34 54c-24 0 -66 -1 -79 0c-24 2 -53 30 -31 33c33 4 82 9 115 12c16 1 37 -9 44 -22z" />
    <glyph glyph-name="hcircumflex" unicode="&#x125;" 
d="M520 847c15 -29 27 -54 42 -83c10 -20 -45 -14 -57 6c-6 9 -22 33 -34 54c-24 0 -66 -1 -79 0c-24 2 -53 30 -31 33c33 4 82 9 115 12c16 1 37 -9 44 -22zM395 739c11 12 37 7 60 -25c19 -27 14 -59 2 -84c-15 -29 -138 -205 -267 -350c-32 -54 -62 -105 -86 -148
c105 99 226 221 298 299c6 7 13 6 17 7c21 0 83 -28 59 -63c-47 -69 -137 -189 -171 -262c-14 -30 -27 -57 -17 -66c10 -10 114 55 204 186c14 21 57 -33 23 -84c-125 -186 -266 -180 -295 -84c-11 37 10 98 31 137c2 5 5 10 8 15c-83 -82 -179 -164 -221 -208
c-8 -7 -15 -11 -27 -8c-28 7 -69 37 -59 56c13 25 83 138 138 236c34 60 236 373 303 446z" />
    <glyph glyph-name="scircumflex" unicode="&#x15d;" horiz-adv-x="307" 
d="M397 589c15 -29 27 -54 42 -83c10 -20 -45 -14 -57 6c-6 9 -22 33 -34 54c-24 0 -66 -1 -79 0c-24 2 -53 30 -31 33c33 4 82 9 115 12c16 1 37 -9 44 -22zM318 471c16 -15 27 -34 14 -50c-84 -107 -61 -182 -69 -287c-4 -44 10 -115 -46 -138c-76 -31 -163 -1 -206 70
c-4 6 -4 8 -6 12c-14 -3 -73 3 -57 19c97 94 242 340 289 396c17 21 59 0 81 -22zM117 40c47 -4 57 84 63 164c2 19 3 38 5 56c-44 -54 -85 -103 -123 -143c10 -31 23 -75 55 -77z" />
    <glyph glyph-name="wcircumflex" unicode="&#x175;" horiz-adv-x="592" 
d="M290 141c-26 -37 -35 -67 -22 -78c37 -31 137 99 218 229c20 68 50 137 84 131c13 -2 61 -19 47 -72c-4 -13 -43 -89 -93 -163c3 -18 9 -38 20 -42c21 -8 63 18 115 101c9 14 61 -24 23 -86c-37 -59 -140 -137 -202 -33c-71 -89 -166 -185 -255 -94c-4 5 -8 10 -11 15
c-50 -52 -103 -77 -164 -15c-55 57 -33 147 42 257c53 79 78 106 94 124c30 33 82 -30 68 -55l-104 -145c-42 -58 -83 -133 -64 -150c31 -27 87 39 146 130c13 26 30 54 49 86c14 23 27 44 37 61c14 26 28 51 40 73c14 27 70 -31 58 -64c-5 -15 -71 -129 -126 -210zM438 548
c26 -21 46 -39 71 -60c17 -15 -36 -31 -55 -17c-9 6 -33 22 -52 37c-22 -9 -60 -27 -73 -31c-23 -7 -60 7 -41 19c29 16 72 40 101 55c15 7 38 6 49 -3z" />
    <glyph glyph-name="ycircumflex" unicode="&#x177;" horiz-adv-x="442" 
d="M495 226c13 18 59 -30 23 -85c-34 -50 -67 -84 -105 -110c-49 -33 -126 -61 -198 -88c-56 -85 -131 -209 -170 -256c-41 -50 -67 -16 -79 0c-19 24 -6 75 22 130c29 56 62 97 132 138c4 6 22 28 42 55c-36 -17 -73 -16 -108 17c-59 55 -34 150 43 263
c55 80 80 108 97 127c26 30 87 -35 70 -57l-107 -148c-43 -60 -85 -137 -74 -152c10 -12 59 12 158 136l154 222c11 21 91 -22 75 -53c-19 -28 -78 -126 -115 -187c-14 -23 -58 -93 -94 -152c19 9 43 20 50 24c24 11 69 39 95 66c33 35 66 77 89 110zM381 548
c26 -21 46 -39 71 -60c17 -15 -36 -31 -55 -17c-9 6 -33 22 -52 37c-22 -9 -60 -27 -73 -31c-23 -7 -60 7 -41 19c29 16 72 40 101 55c15 7 38 6 49 -3z" />
    <glyph glyph-name="wdieresis" unicode="&#x1e85;" horiz-adv-x="592" 
d="M366 572c20 -13 23 -44 7 -69c-17 -25 -46 -34 -66 -21c-21 13 -24 44 -7 69c16 25 45 34 66 21zM528 561c20 -13 23 -44 7 -69c-17 -25 -46 -35 -66 -22c-21 14 -24 44 -7 70c16 25 45 34 66 21zM290 141c-26 -37 -35 -67 -22 -78c37 -31 137 99 218 229
c20 68 50 137 84 131c13 -2 61 -19 47 -72c-4 -13 -43 -89 -93 -163c3 -18 9 -38 20 -42c21 -8 63 18 115 101c9 14 61 -24 23 -86c-37 -59 -140 -137 -202 -33c-71 -89 -166 -185 -255 -94c-4 5 -8 10 -11 15c-50 -52 -103 -77 -164 -15c-55 57 -33 147 42 257
c53 79 78 106 94 124c30 33 82 -30 68 -55l-104 -145c-42 -58 -83 -133 -64 -150c31 -27 87 39 146 130c13 26 30 54 49 86c14 23 27 44 37 61c14 26 28 51 40 73c14 27 70 -31 58 -64c-5 -15 -71 -129 -126 -210z" />
    <glyph glyph-name="cacute" unicode="&#x107;" horiz-adv-x="357" 
d="M321 460c-30 -8 -85 32 -58 42c41 15 83 31 125 43c33 9 79 -43 57 -49c-41 -12 -103 -31 -124 -36zM290 203c-14 -15 -61 43 -34 90c30 53 36 70 32 74c-8 8 -56 -27 -118 -111c-65 -90 -83 -173 -50 -196c51 -35 194 25 299 181c11 15 62 -25 24 -85
c-65 -103 -237 -208 -360 -128c-32 20 -59 45 -59 104c0 108 131 294 221 318c15 5 36 2 47 -9c69 -66 81 -88 57 -150c-14 -32 -28 -57 -59 -88z" />
    <glyph glyph-name="lacute" unicode="&#x13a;" horiz-adv-x="239" 
d="M430 772c-30 -8 -85 32 -58 42c41 15 83 31 125 43c33 9 79 -43 57 -49c-41 -12 -103 -31 -124 -36zM387 737c11 12 37 7 59 -25c19 -27 15 -59 2 -84c-14 -28 -133 -198 -259 -342c-15 -19 -27 -34 -28 -36c-24 -36 -108 -155 -77 -191c36 -41 152 94 204 168
c12 18 59 -30 22 -85c-93 -139 -197 -175 -252 -119c-14 14 -22 29 -27 44c-15 39 -18 90 3 132c45 87 286 470 353 538z" />
    <glyph glyph-name="nacute" unicode="&#x144;" horiz-adv-x="433" 
d="M326 460c-30 -8 -85 32 -58 42c41 15 83 31 125 43c33 9 79 -43 57 -49c-41 -12 -103 -31 -124 -36zM-48 57c22 42 199 339 222 373c19 28 82 -32 57 -81c-25 -50 -77 -139 -118 -207c102 98 217 215 286 289c19 23 104 -19 77 -56c-49 -68 -137 -190 -172 -262
c-14 -30 -27 -57 -17 -66c11 -10 115 55 205 186c14 21 57 -33 23 -85c-125 -186 -267 -179 -296 -83c-10 36 10 98 31 137l9 15c-86 -86 -184 -176 -230 -214c-18 -14 -92 25 -77 54z" />
    <glyph glyph-name="wacute" unicode="&#x1e83;" horiz-adv-x="592" 
d="M384 460c-30 -8 -85 32 -58 42c41 15 83 31 125 43c33 9 79 -43 57 -49c-41 -12 -103 -31 -124 -36zM290 141c-26 -37 -35 -67 -22 -78c37 -31 137 99 218 229c20 68 50 137 84 131c13 -2 61 -19 47 -72c-4 -13 -43 -89 -93 -163c3 -18 9 -38 20 -42c21 -8 63 18 115 101
c9 14 61 -24 23 -86c-37 -59 -140 -137 -202 -33c-71 -89 -166 -185 -255 -94c-4 5 -8 10 -11 15c-50 -52 -103 -77 -164 -15c-55 57 -33 147 42 257c53 79 78 106 94 124c30 33 82 -30 68 -55l-104 -145c-42 -58 -83 -133 -64 -150c31 -27 87 39 146 130c13 26 30 54 49 86
c14 23 27 44 37 61c14 26 28 51 40 73c14 27 70 -31 58 -64c-5 -15 -71 -129 -126 -210z" />
    <glyph glyph-name="zacute" unicode="&#x17a;" horiz-adv-x="413" 
d="M303 489c-30 -8 -85 32 -58 42c41 15 83 31 125 43c33 9 79 -43 57 -49c-41 -12 -103 -31 -124 -36zM135 22c-22 -8 -97 37 -73 51c81 48 151 108 204 186c56 83 50 107 40 119c-16 18 -71 30 -170 -91c-17 -20 -40 69 -3 112c62 69 156 56 175 47
c93 -41 101 -114 53 -202c-33 -59 -71 -117 -117 -154c10 -1 18 -3 27 -6c12 -5 23 -11 33 -19c84 56 122 102 162 161c13 18 63 -31 23 -85c-46 -62 -91 -94 -148 -130c11 -30 13 -67 2 -108c-23 -86 -160 -243 -263 -206c-131 47 -16 164 41 224c39 40 75 75 129 109
c-23 13 -62 9 -115 -8zM254 -78c7 15 12 29 15 41c-40 -32 -78 -71 -109 -107c-51 -59 -84 -98 -73 -112c11 -13 67 45 104 85c25 26 47 59 63 93z" />
    <glyph glyph-name="sacute" unicode="&#x15b;" horiz-adv-x="307" 
d="M336 540c-30 -8 -85 32 -58 42c41 15 83 31 125 43c33 9 79 -43 57 -49c-41 -12 -103 -31 -124 -36zM318 471c16 -15 27 -34 14 -50c-84 -107 -61 -182 -69 -287c-4 -44 10 -115 -46 -138c-76 -31 -163 -1 -206 70c-4 6 -4 8 -6 12c-14 -3 -73 3 -57 19
c97 94 242 340 289 396c17 21 59 0 81 -22zM117 40c47 -4 57 84 63 164c2 19 3 38 5 56c-44 -54 -85 -103 -123 -143c10 -31 23 -75 55 -77z" />
    <glyph glyph-name="racute" unicode="&#x155;" horiz-adv-x="390" 
d="M368 532c-30 -8 -85 32 -58 42c41 15 83 31 125 43c33 9 79 -43 57 -49c-41 -12 -103 -31 -124 -36zM447 228c12 18 60 -30 24 -85c-93 -140 -220 -167 -273 -127c-80 62 5 200 71 300c-20 2 -41 9 -61 27c-33 -61 -104 -164 -135 -205c-13 -18 -91 -3 -64 30
c85 104 111 173 129 217c-13 14 -20 30 -14 53c21 82 89 142 121 132c40 -12 52 -59 28 -127c-4 -12 -11 -30 -32 -67c26 -8 63 16 99 42c3 3 6 3 9 3c7 0 13 -4 18 -10c36 -35 38 -80 32 -90c-24 -35 -191 -233 -165 -274s166 104 213 181z" />
    <glyph glyph-name="Nacute" unicode="&#x143;" horiz-adv-x="663" 
d="M609 767c-30 -8 -85 32 -58 42c41 15 83 31 125 43c33 9 79 -43 57 -49c-41 -12 -103 -31 -124 -36zM98 -55c-25 -21 -86 34 -72 62c5 8 75 128 120 205c101 175 294 417 268 438c-31 26 -119 -65 -154 -116c-47 -66 -73 -117 -101 -193c-20 -53 -67 48 -38 127
c83 227 281 281 335 218c66 -79 4 -151 -26 -203c-27 -48 -138 -221 -195 -310c178 172 366 370 511 538c16 19 93 -29 81 -52c-86 -151 -183 -296 -267 -449c-31 -57 -129 -211 -75 -211c6 0 21 -3 75 50c72 70 132 136 185 220c22 35 53 -36 9 -104
c-84 -130 -202 -220 -265 -220c-98 0 -109 102 -75 187c36 91 84 178 136 263c-146 -159 -301 -318 -452 -450z" />
    <glyph glyph-name="Lacute" unicode="&#x139;" horiz-adv-x="674" 
d="M690 767c-30 -8 -85 32 -58 42c41 15 83 31 125 43c33 9 79 -43 57 -49c-41 -12 -103 -31 -124 -36zM779 300c22 35 54 -37 10 -105c-120 -186 -378 -327 -484 -135c-36 -49 -80 -94 -141 -107c-70 -14 -145 50 -141 115c5 83 72 186 157 224c56 25 100 5 138 -42
c15 25 30 50 44 76c-16 8 -31 18 -47 31c-93 77 -94 172 -49 269c41 88 182 92 144 55c-60 -60 -113 -145 -88 -235c13 -47 36 -67 64 -74c17 35 33 70 48 106c36 88 80 234 174 253c37 7 96 -37 112 -65c39 -73 -22 -194 -68 -247c-54 -62 -121 -107 -191 -113
c-28 -53 -60 -105 -94 -156c27 -106 40 -130 75 -130c32 0 97 26 169 88c69 59 115 108 168 192zM652 655c-30 15 -109 -171 -147 -258c113 67 172 245 147 258zM105 8c26 -9 92 65 160 162c-17 35 -38 50 -79 17c-15 -12 -31 -29 -46 -48c-68 -91 -44 -128 -35 -131z" />
    <glyph glyph-name="Racute" unicode="&#x154;" horiz-adv-x="713" 
d="M609 767c-30 -8 -85 32 -58 42c41 15 83 31 125 43c33 9 79 -43 57 -49c-41 -12 -103 -31 -124 -36zM794 267c22 35 53 -36 9 -104c-126 -196 -457 -359 -593 -67c-4 1 -8 1 -13 1c-26 -44 -73 -124 -86 -143c-17 -27 -97 25 -84 48c20 36 145 240 175 284
c-113 76 -133 168 -96 252c73 156 234 199 359 187c155 -15 309 -161 283 -318c-17 -99 -116 -294 -439 -311c34 -74 76 -108 104 -108c98 -11 318 150 381 279zM312 625c-74 -45 -221 -207 -87 -304c53 86 153 245 165 266c20 31 82 -48 62 -79
c-64 -99 -158 -254 -220 -356c258 5 457 196 429 367c-27 164 -231 178 -349 106z" />
    <glyph glyph-name="Sacute" unicode="&#x15a;" horiz-adv-x="530" 
d="M633 767c-30 -8 -85 32 -58 42c41 15 83 31 125 43c33 9 79 -43 57 -49c-41 -12 -103 -31 -124 -36zM471 624c-104 -61 -301 -243 -265 -381c22 -83 132 -84 222 -135c42 -23 47 -65 36 -98c-50 -142 -344 -36 -437 37c-16 12 46 39 72 25c61 -33 248 -118 277 -38
c12 34 -78 55 -107 67c-59 25 -123 68 -154 133c-66 137 142 348 233 409c109 73 274 140 338 5c60 -129 -132 -377 -327 -417c-67 -14 -156 34 -118 42c140 27 261 128 325 253c10 19 58 105 38 129c-9 10 -41 23 -133 -31z" />
    <glyph glyph-name="Zacute" unicode="&#x179;" horiz-adv-x="616" 
d="M653 767c-30 -8 -85 32 -58 42c41 15 83 31 125 43c33 9 79 -43 57 -49c-41 -12 -103 -31 -124 -36zM768 699c23 14 106 -42 78 -60c-203 -130 -339 -318 -489 -502c18 -66 44 -138 81 -138c6 0 21 -4 75 49c72 70 132 136 185 220c22 35 56 -33 12 -101
c-84 -131 -205 -223 -268 -223c-68 0 -108 62 -138 127c-61 -76 -159 -194 -250 -99c-57 59 -23 155 47 233c66 73 150 84 204 39c2 3 5 6 7 9c84 104 168 206 263 295c-95 24 -177 133 -241 100c-51 -26 -46 -244 -36 -340c5 -54 -81 20 -90 94c-14 121 17 301 161 303
c112 2 221 -124 318 -59c28 18 52 36 81 53zM177 76c19 25 46 62 73 97c-34 26 -75 -16 -100 -47c-33 -40 -69 -104 -54 -118c11 -10 41 15 81 68z" />
    <glyph glyph-name="wgrave" unicode="&#x1e81;" horiz-adv-x="592" 
d="M417 449c-12 18 -46 73 -69 110c-12 19 57 28 76 -2c23 -36 43 -76 64 -114c14 -26 -54 -20 -71 6zM290 141c-26 -37 -35 -67 -22 -78c37 -31 137 99 218 229c20 68 50 137 84 131c13 -2 61 -19 47 -72c-4 -13 -43 -89 -93 -163c3 -18 9 -38 20 -42c21 -8 63 18 115 101
c9 14 61 -24 23 -86c-37 -59 -140 -137 -202 -33c-71 -89 -166 -185 -255 -94c-4 5 -8 10 -11 15c-50 -52 -103 -77 -164 -15c-55 57 -33 147 42 257c53 79 78 106 94 124c30 33 82 -30 68 -55l-104 -145c-42 -58 -83 -133 -64 -150c31 -27 87 39 146 130c13 26 30 54 49 86
c14 23 27 44 37 61c14 26 28 51 40 73c14 27 70 -31 58 -64c-5 -15 -71 -129 -126 -210z" />
    <glyph glyph-name="Wacute" unicode="&#x1e82;" horiz-adv-x="870" 
d="M705 767c-30 -8 -85 32 -58 42c41 15 83 31 125 43c33 9 79 -43 57 -49c-41 -12 -103 -31 -124 -36zM602 559c30 45 86 -34 71 -82c-29 -97 -81 -177 -130 -244c-51 -71 -98 -126 -142 -169c-11 -29 -14 -54 5 -66c51 -34 415 243 512 656c12 52 94 -37 86 -68
c-37 -145 -98 -261 -164 -353c-264 -364 -428 -329 -501 -223c-148 -115 -247 -75 -298 1c-40 59 -1 138 31 196c97 177 295 411 268 437c-29 29 -119 -65 -155 -116c-46 -66 -72 -117 -101 -193c-19 -52 -66 49 -37 127c82 227 275 293 333 212c59 -84 14 -149 -16 -201
c-37 -65 -192 -287 -192 -287c-26 -46 -109 -158 -64 -188c26 -17 126 42 233 154c9 19 19 38 28 55c65 118 173 264 233 352z" />
    <glyph glyph-name="Wdieresis" unicode="&#x1e84;" horiz-adv-x="870" 
d="M667 830c20 -13 23 -44 7 -69c-17 -25 -46 -34 -66 -21c-21 13 -24 44 -7 69c16 25 45 34 66 21zM840 791c20 -13 23 -44 7 -69c-17 -25 -46 -35 -66 -22c-21 14 -24 44 -7 70c16 25 45 34 66 21zM602 559c30 45 86 -34 71 -82c-29 -97 -81 -177 -130 -244
c-51 -71 -98 -126 -142 -169c-11 -29 -14 -54 5 -66c51 -34 415 243 512 656c12 52 94 -37 86 -68c-37 -145 -98 -261 -164 -353c-264 -364 -428 -329 -501 -223c-148 -115 -247 -75 -298 1c-40 59 -1 138 31 196c97 177 295 411 268 437c-29 29 -119 -65 -155 -116
c-46 -66 -72 -117 -101 -193c-19 -52 -66 49 -37 127c82 227 275 293 333 212c59 -84 14 -149 -16 -201c-37 -65 -192 -287 -192 -287c-26 -46 -109 -158 -64 -188c26 -17 126 42 233 154c9 19 19 38 28 55c65 118 173 264 233 352z" />
    <glyph glyph-name="Wgrave" unicode="&#x1e80;" horiz-adv-x="870" 
d="M654 743c-12 18 -46 73 -69 110c-12 19 57 28 76 -2c23 -36 43 -76 64 -114c14 -26 -54 -20 -71 6zM602 559c30 45 86 -34 71 -82c-29 -97 -81 -177 -130 -244c-51 -71 -98 -126 -142 -169c-11 -29 -14 -54 5 -66c51 -34 415 243 512 656c12 52 94 -37 86 -68
c-37 -145 -98 -261 -164 -353c-264 -364 -428 -329 -501 -223c-148 -115 -247 -75 -298 1c-40 59 -1 138 31 196c97 177 295 411 268 437c-29 29 -119 -65 -155 -116c-46 -66 -72 -117 -101 -193c-19 -52 -66 49 -37 127c82 227 275 293 333 212c59 -84 14 -149 -16 -201
c-37 -65 -192 -287 -192 -287c-26 -46 -109 -158 -64 -188c26 -17 126 42 233 154c9 19 19 38 28 55c65 118 173 264 233 352z" />
    <glyph glyph-name="Wcircumflex" unicode="&#x174;" horiz-adv-x="870" 
d="M726 837c26 -21 46 -39 71 -60c17 -15 -36 -31 -55 -17c-9 6 -33 22 -52 37c-22 -9 -60 -27 -73 -31c-23 -7 -60 7 -41 19c29 16 72 40 101 55c15 7 38 6 49 -3zM602 559c30 45 86 -34 71 -82c-29 -97 -81 -177 -130 -244c-51 -71 -98 -126 -142 -169
c-11 -29 -14 -54 5 -66c51 -34 415 243 512 656c12 52 94 -37 86 -68c-37 -145 -98 -261 -164 -353c-264 -364 -428 -329 -501 -223c-148 -115 -247 -75 -298 1c-40 59 -1 138 31 196c97 177 295 411 268 437c-29 29 -119 -65 -155 -116c-46 -66 -72 -117 -101 -193
c-19 -52 -66 49 -37 127c82 227 275 293 333 212c59 -84 14 -149 -16 -201c-37 -65 -192 -287 -192 -287c-26 -46 -109 -158 -64 -188c26 -17 126 42 233 154c9 19 19 38 28 55c65 118 173 264 233 352z" />
    <glyph glyph-name="Ycircumflex" unicode="&#x176;" horiz-adv-x="595" 
d="M627 879c26 -21 46 -39 71 -60c17 -15 -36 -31 -55 -17c-9 6 -33 22 -52 37c-22 -9 -60 -27 -73 -31c-23 -7 -60 7 -41 19c29 16 72 40 101 55c15 7 38 6 49 -3zM682 696c22 36 85 -56 71 -85c-34 -66 -84 -149 -122 -217c-107 -192 -277 -500 -379 -725
c-12 -25 -98 38 -81 73c36 74 72 151 108 228c-65 -46 -172 -83 -241 34c-36 61 0 138 31 196c98 177 296 411 269 438c-30 28 -119 -65 -155 -117c-46 -66 -72 -117 -101 -193c-20 -52 -66 49 -38 127c83 228 276 293 334 212c60 -84 14 -149 -16 -201
c-37 -65 -192 -287 -192 -287c-27 -46 -104 -152 -64 -188c35 -32 192 81 353 341c20 31 223 364 223 364z" />
    <glyph glyph-name="uring" unicode="&#x16f;" 
d="M396 607c41 -23 46 -65 30 -107c-19 -38 -56 -69 -98 -45c-39 22 -49 66 -30 106c19 39 55 69 98 46zM335 476c12 -5 34 18 47 46c12 25 16 56 6 62c-10 5 -32 -17 -44 -41c-12 -26 -18 -63 -9 -67zM384 252c-24 -36 -119 -173 -79 -201c27 -19 131 100 182 174
c13 18 60 -30 23 -85c-93 -139 -186 -162 -233 -128c-22 16 -35 35 -43 57c-58 -60 -125 -99 -185 -42c-60 55 -34 150 43 263c54 81 78 110 97 128c30 28 85 -35 70 -58l-108 -148c-42 -60 -84 -137 -73 -152c9 -12 59 12 159 137l153 222c27 19 89 -35 76 -53
c-5 -7 -44 -57 -82 -114z" />
    <glyph glyph-name="Tcaron" unicode="&#x164;" horiz-adv-x="464" 
d="M598 777c-16 30 -29 55 -44 85c-10 21 46 15 59 -6c5 -9 22 -34 34 -55c25 0 57 1 70 0c24 -2 54 -31 32 -34c-34 -4 -73 -10 -107 -12c-16 -2 -37 8 -44 22zM825 702c29 1 105 -83 65 -86c-104 -9 -201 -16 -300 -34c15 -8 23 -22 10 -44c-115 -187 -238 -393 -362 -596
c-14 -25 -98 25 -84 48l353 574c-50 -13 -101 -29 -154 -51c-238 -95 -294 -177 -280 -194c17 -18 195 104 224 126c29 24 48 -57 -25 -119c-29 -25 -156 -96 -237 -45c-69 43 -15 133 49 184c222 178 552 225 741 237z" />
    <glyph glyph-name="ncaron" unicode="&#x148;" horiz-adv-x="433" 
d="M313 497c-16 30 -29 55 -44 85c-10 21 46 15 59 -6c5 -9 22 -34 34 -55c25 0 57 1 70 0c24 -2 54 -31 32 -34c-34 -4 -73 -10 -107 -12c-16 -2 -37 8 -44 22zM-48 57c22 42 199 339 222 373c19 28 82 -32 57 -81c-25 -50 -77 -139 -118 -207c102 98 217 215 286 289
c19 23 104 -19 77 -56c-49 -68 -137 -190 -172 -262c-14 -30 -27 -57 -17 -66c11 -10 115 55 205 186c14 21 57 -33 23 -85c-125 -186 -267 -179 -296 -83c-10 36 10 98 31 137l9 15c-86 -86 -184 -176 -230 -214c-18 -14 -92 25 -77 54z" />
    <glyph glyph-name="Ncaron" unicode="&#x147;" horiz-adv-x="663" 
d="M605 777c-16 30 -29 55 -44 85c-10 21 46 15 59 -6c5 -9 22 -34 34 -55c25 0 57 1 70 0c24 -2 54 -31 32 -34c-34 -4 -73 -10 -107 -12c-16 -2 -37 8 -44 22zM98 -55c-25 -21 -86 34 -72 62c5 8 75 128 120 205c101 175 294 417 268 438c-31 26 -119 -65 -154 -116
c-47 -66 -73 -117 -101 -193c-20 -53 -67 48 -38 127c83 227 281 281 335 218c66 -79 4 -151 -26 -203c-27 -48 -138 -221 -195 -310c178 172 366 370 511 538c16 19 93 -29 81 -52c-86 -151 -183 -296 -267 -449c-31 -57 -129 -211 -75 -211c6 0 21 -3 75 50
c72 70 132 136 185 220c22 35 53 -36 9 -104c-84 -130 -202 -220 -265 -220c-98 0 -109 102 -75 187c36 91 84 178 136 263c-146 -159 -301 -318 -452 -450z" />
    <glyph glyph-name="Lcaron" unicode="&#x13d;" horiz-adv-x="674" 
d="M649 789c-16 30 -29 55 -44 85c-10 21 46 15 59 -6c5 -9 22 -34 34 -55c25 0 57 1 70 0c24 -2 54 -31 32 -34c-34 -4 -73 -10 -107 -12c-16 -2 -37 8 -44 22zM779 300c22 35 54 -37 10 -105c-120 -186 -378 -327 -484 -135c-36 -49 -80 -94 -141 -107
c-70 -14 -145 50 -141 115c5 83 72 186 157 224c56 25 100 5 138 -42c15 25 30 50 44 76c-16 8 -31 18 -47 31c-93 77 -94 172 -49 269c41 88 182 92 144 55c-60 -60 -113 -145 -88 -235c13 -47 36 -67 64 -74c17 35 33 70 48 106c36 88 80 234 174 253c37 7 96 -37 112 -65
c39 -73 -22 -194 -68 -247c-54 -62 -121 -107 -191 -113c-28 -53 -60 -105 -94 -156c27 -106 40 -130 75 -130c32 0 97 26 169 88c69 59 115 108 168 192zM652 655c-30 15 -109 -171 -147 -258c113 67 172 245 147 258zM105 8c26 -9 92 65 160 162c-17 35 -38 50 -79 17
c-15 -12 -31 -29 -46 -48c-68 -91 -44 -128 -35 -131z" />
    <glyph glyph-name="Itilde" unicode="&#x128;" horiz-adv-x="577" 
d="M929 863c10 7 21 -23 -3 -43c-30 -23 -62 -29 -95 -8c-32 19 -64 50 -100 24c-34 -24 -12 32 3 43c32 23 65 31 101 10c28 -17 61 -51 94 -26zM875 680c5 -46 -47 -60 -82 -67c-10 -2 -29 -4 -54 -7c-42 -62 -81 -134 -109 -180c-39 -65 -79 -129 -118 -194
c-52 -86 -102 -171 -176 -242c-77 -74 -153 -61 -241 -13c-140 78 -51 252 80 306c94 39 199 -1 130 -22c-200 -60 -229 -212 -185 -253c36 -32 116 12 149 47c38 40 71 83 101 129c49 77 95 156 142 234c28 46 68 113 106 173c-91 -16 -170 -42 -110 -94
c18 -15 -13 -25 -41 -17c-40 12 -86 56 -51 118c35 59 151 61 249 64l12 18c19 26 50 81 89 84c44 4 105 -38 109 -84z" />
    <glyph glyph-name="itilde" unicode="&#x129;" horiz-adv-x="237" 
d="M392 525c10 7 21 -23 -3 -43c-30 -23 -62 -29 -95 -8c-32 19 -64 50 -100 24c-34 -24 -12 32 3 43c32 23 65 31 101 10c28 -17 61 -51 94 -26zM242 336c-18 -31 -62 -88 -83 -117c-41 -58 -78 -142 -59 -159c29 -24 142 95 194 169c12 17 59 -30 22 -85
c-93 -140 -192 -167 -235 -128c-113 104 -45 188 18 279c38 55 70 90 75 97c23 26 79 -36 68 -56z" />
    <glyph glyph-name="Hcircumflex" unicode="&#x124;" horiz-adv-x="952" 
d="M1002 879c26 -21 46 -39 71 -60c17 -15 -36 -31 -55 -17c-9 6 -33 22 -52 37c-22 -9 -60 -27 -73 -31c-23 -7 -60 7 -41 19c29 16 72 40 101 55c15 7 38 6 49 -3zM755 709c21 13 95 -29 77 -59c-80 -137 -198 -335 -285 -475c42 -26 85 -52 139 -69
c121 199 240 397 361 600c15 24 89 -40 62 -86c-112 -186 -215 -354 -322 -533c108 -1 171 67 238 168c16 25 59 -34 15 -96c-97 -136 -200 -163 -297 -145c-14 -23 -27 -45 -41 -68c-14 -24 -94 32 -74 65c6 11 13 22 20 33c-49 22 -94 51 -135 78
c-231 -332 -464 -177 -486 -103c-11 38 -5 82 32 127c91 111 229 135 362 92c14 -5 28 -10 41 -16c60 96 136 225 205 341c-5 -3 -11 -6 -16 -9c-26 -16 -146 -77 -133 -120c5 -17 -67 -12 -80 35c-16 62 72 101 114 126c66 41 136 74 203 114zM117 -4c28 -34 187 2 313 178
c-15 8 -29 15 -41 19c-84 24 -192 -21 -246 -96c-29 -39 -42 -82 -26 -101z" />
    <glyph glyph-name="Jcircumflex" unicode="&#x134;" horiz-adv-x="750" 
d="M1075 862c15 -29 27 -54 42 -83c10 -20 -45 -14 -57 6c-6 9 -22 33 -34 54c-24 0 -66 -1 -79 0c-24 2 -53 30 -31 33c33 4 82 9 115 12c16 1 37 -9 44 -22zM1021 681c4 -46 -47 -60 -83 -67c-9 -2 -29 -4 -53 -7c-28 -44 -52 -91 -76 -132c-29 -47 -157 -252 -242 -389
c174 13 233 135 252 161c16 22 55 -37 22 -85c-95 -141 -205 -150 -320 -150c-11 -19 -21 -34 -26 -43c-52 -86 -102 -171 -176 -242c-77 -74 -153 -61 -241 -13c-101 54 -71 186 22 264c107 91 235 105 355 107c89 143 204 330 235 382c25 41 49 83 74 125
c-91 -15 -171 -42 -111 -94c18 -15 -13 -26 -41 -17c-40 11 -87 56 -51 118c34 59 151 61 249 64l12 18c19 27 51 82 89 85c44 3 105 -38 110 -85zM252 -208c38 40 71 83 101 129c11 17 30 48 55 87c-89 -8 -169 -30 -224 -78c-63 -55 -84 -162 -59 -187
c37 -37 94 14 127 49z" />
    <glyph glyph-name="Ecaron" unicode="&#x11a;" horiz-adv-x="561" 
d="M571 777c-16 30 -29 55 -44 85c-10 21 46 15 59 -6c5 -9 22 -34 34 -55c25 0 57 1 70 0c24 -2 54 -31 32 -34c-34 -4 -73 -10 -107 -12c-16 -2 -37 8 -44 22zM366 302c25 -3 6 -94 -25 -100c-226 -49 -242 -147 -210 -186c44 -56 183 -50 339 64c60 44 120 105 173 189
c22 35 55 -30 13 -99c-96 -155 -391 -427 -612 -131c-68 91 56 186 177 218c-73 54 -90 124 -71 194c-55 50 -80 115 -46 178c43 80 121 53 103 31c-44 -53 -47 -102 -27 -140c89 146 317 256 465 130c127 -109 -108 -315 -303 -286c-40 6 -78 18 -113 34
c-3 -43 31 -84 137 -96zM403 594c-61 -34 -120 -86 -151 -136c15 -7 31 -11 47 -14c180 -27 323 122 296 184c-11 25 -91 23 -192 -34z" />
    <glyph glyph-name="Gcircumflex" unicode="&#x11c;" horiz-adv-x="667" 
d="M823 826c15 -29 27 -54 42 -83c10 -20 -45 -14 -57 6c-6 9 -22 33 -34 54c-24 0 -66 -1 -79 0c-24 2 -53 30 -31 33c33 4 82 9 115 12c16 1 37 -9 44 -22zM470 279c-94 -22 -168 -22 -223 -8c-49 -106 -59 -205 -19 -256c41 -53 155 -34 377 244c14 24 83 -50 61 -79
c-77 -100 -183 -255 -294 -498c-11 -25 -90 31 -74 65c47 97 77 157 105 209c-91 -45 -184 -35 -262 82c-46 69 -27 182 14 284c-75 74 -65 200 -13 281c66 103 184 97 152 70c-75 -66 -171 -207 -112 -293c16 31 32 58 49 82c86 118 255 260 402 254
c83 -3 174 -56 139 -156c-45 -130 -166 -248 -302 -281zM479 561c-87 -68 -156 -153 -204 -236c82 -16 185 19 258 70c69 49 157 140 165 224c9 96 -158 -11 -219 -58z" />
    <glyph glyph-name="Rcaron" unicode="&#x158;" horiz-adv-x="713" 
d="M605 777c-16 30 -29 55 -44 85c-10 21 46 15 59 -6c5 -9 22 -34 34 -55c25 0 57 1 70 0c24 -2 54 -31 32 -34c-34 -4 -73 -10 -107 -12c-16 -2 -37 8 -44 22zM794 267c22 35 53 -36 9 -104c-126 -196 -457 -359 -593 -67c-4 1 -8 1 -13 1c-26 -44 -73 -124 -86 -143
c-17 -27 -97 25 -84 48c20 36 145 240 175 284c-113 76 -133 168 -96 252c73 156 234 199 359 187c155 -15 309 -161 283 -318c-17 -99 -116 -294 -439 -311c34 -74 76 -108 104 -108c98 -11 318 150 381 279zM312 625c-74 -45 -221 -207 -87 -304c53 86 153 245 165 266
c20 31 82 -48 62 -79c-64 -99 -158 -254 -220 -356c258 5 457 196 429 367c-27 164 -231 178 -349 106z" />
    <glyph glyph-name="rcaron" unicode="&#x159;" horiz-adv-x="390" 
d="M363 575c-16 30 -29 55 -44 85c-10 21 46 15 59 -6c5 -9 22 -34 34 -55c25 0 57 1 70 0c24 -2 54 -31 32 -34c-34 -4 -73 -10 -107 -12c-16 -2 -37 8 -44 22zM447 228c12 18 60 -30 24 -85c-93 -140 -220 -167 -273 -127c-80 62 5 200 71 300c-20 2 -41 9 -61 27
c-33 -61 -104 -164 -135 -205c-13 -18 -91 -3 -64 30c85 104 111 173 129 217c-13 14 -20 30 -14 53c21 82 89 142 121 132c40 -12 52 -59 28 -127c-4 -12 -11 -30 -32 -67c26 -8 63 16 99 42c3 3 6 3 9 3c7 0 13 -4 18 -10c36 -35 38 -80 32 -90
c-24 -35 -191 -233 -165 -274s166 104 213 181z" />
    <glyph glyph-name="Dcaron" unicode="&#x10e;" horiz-adv-x="643" 
d="M571 777c-16 30 -29 55 -44 85c-10 21 46 15 59 -6c5 -9 22 -34 34 -55c25 0 57 1 70 0c24 -2 54 -31 32 -34c-34 -4 -73 -10 -107 -12c-16 -2 -37 8 -44 22zM361 727c266 0 424 -254 292 -493c-104 -189 -317 -301 -522 -253c-66 16 -130 85 -101 131
c34 52 68 107 101 161c-109 71 -142 166 -99 257c63 135 209 197 329 197zM590 366c27 124 -3 297 -177 298c-61 1 -126 -18 -176 -49c-86 -51 -218 -223 -84 -306c53 88 106 178 159 267c22 36 83 -40 61 -79l-266 -453c141 -30 298 41 389 150c41 50 80 108 94 172z" />
    <glyph glyph-name="Ccaron" unicode="&#x10c;" horiz-adv-x="683" 
d="M738 777c-16 30 -29 55 -44 85c-10 21 46 15 59 -6c5 -9 22 -34 34 -55c25 0 57 1 70 0c24 -2 54 -31 32 -34c-34 -4 -73 -10 -107 -12c-16 -2 -37 8 -44 22zM764 268c22 35 51 -34 9 -103c-128 -211 -431 -397 -611 -128c-46 69 -27 183 14 285c-75 74 -65 201 -13 282
c66 104 185 97 153 69c-76 -65 -172 -207 -113 -292c16 30 33 58 50 81c86 119 255 261 402 255c83 -3 175 -56 140 -156c-45 -131 -166 -249 -303 -282c-95 -22 -168 -22 -224 -8c-49 -107 -59 -205 -18 -257c43 -55 184 -49 340 65c60 43 120 105 174 189zM501 561
c-87 -68 -157 -152 -205 -236c82 -16 186 19 259 71c70 49 158 139 166 224c9 96 -158 -11 -220 -59z" />
    <glyph glyph-name="Cacute" unicode="&#x106;" horiz-adv-x="683" 
d="M722 767c-30 -8 -85 32 -58 42c41 15 83 31 125 43c33 9 79 -43 57 -49c-41 -12 -103 -31 -124 -36zM764 268c22 35 51 -34 9 -103c-128 -211 -431 -397 -611 -128c-46 69 -27 183 14 285c-75 74 -65 201 -13 282c66 104 185 97 153 69c-76 -65 -172 -207 -113 -292
c16 30 33 58 50 81c86 119 255 261 402 255c83 -3 175 -56 140 -156c-45 -131 -166 -249 -303 -282c-95 -22 -168 -22 -224 -8c-49 -107 -59 -205 -18 -257c43 -55 184 -49 340 65c60 43 120 105 174 189zM501 561c-87 -68 -157 -152 -205 -236c82 -16 186 19 259 71
c70 49 158 139 166 224c9 96 -158 -11 -220 -59z" />
    <glyph glyph-name="Ccircumflex" unicode="&#x108;" horiz-adv-x="683" 
d="M842 826c15 -29 27 -54 42 -83c10 -20 -45 -14 -57 6c-6 9 -22 33 -34 54c-24 0 -66 -1 -79 0c-24 2 -53 30 -31 33c33 4 82 9 115 12c16 1 37 -9 44 -22zM764 268c22 35 51 -34 9 -103c-128 -211 -431 -397 -611 -128c-46 69 -27 183 14 285c-75 74 -65 201 -13 282
c66 104 185 97 153 69c-76 -65 -172 -207 -113 -292c16 30 33 58 50 81c86 119 255 261 402 255c83 -3 175 -56 140 -156c-45 -131 -166 -249 -303 -282c-95 -22 -168 -22 -224 -8c-49 -107 -59 -205 -18 -257c43 -55 184 -49 340 65c60 43 120 105 174 189zM501 561
c-87 -68 -157 -152 -205 -236c82 -16 186 19 259 71c70 49 158 139 166 224c9 96 -158 -11 -220 -59z" />
    <glyph glyph-name="Scircumflex" unicode="&#x15c;" horiz-adv-x="530" 
d="M731 826c15 -29 27 -54 42 -83c10 -20 -45 -14 -57 6c-6 9 -22 33 -34 54c-24 0 -66 -1 -79 0c-24 2 -53 30 -31 33c33 4 82 9 115 12c16 1 37 -9 44 -22zM471 624c-104 -61 -301 -243 -265 -381c22 -83 132 -84 222 -135c42 -23 47 -65 36 -98
c-50 -142 -344 -36 -437 37c-16 12 46 39 72 25c61 -33 248 -118 277 -38c12 34 -78 55 -107 67c-59 25 -123 68 -154 133c-66 137 142 348 233 409c109 73 274 140 338 5c60 -129 -132 -377 -327 -417c-67 -14 -156 34 -118 42c140 27 261 128 325 253c10 19 58 105 38 129
c-9 10 -41 23 -133 -31z" />
    <glyph glyph-name="Amacron" unicode="&#x100;" horiz-adv-x="905" 
d="M912 756c-38 -2 -90 51 -57 53c58 3 165 0 223 -4c44 -4 83 -53 48 -50zM980 259c18 26 58 -35 17 -94c-89 -126 -180 -156 -269 -142c-14 -27 -28 -53 -42 -77c-15 -26 -94 31 -68 82c4 8 9 17 13 25c-48 22 -93 51 -133 77c-74 -83 -157 -170 -259 -204
c-135 -43 -293 85 -183 220c91 111 229 135 362 92c13 -4 26 -9 38 -15c39 44 78 89 118 131c94 101 204 239 313 325c47 37 98 51 141 -4c43 -54 -48 -185 -72 -230c-56 -106 -125 -235 -190 -354c109 1 160 93 214 168zM220 10c73 46 136 106 196 170c-11 5 -21 10 -30 13
c-84 24 -191 -21 -246 -95c-57 -80 -39 -163 80 -88zM663 113l260 475c-64 -53 -354 -378 -383 -410c38 -24 77 -48 123 -65z" />
    <glyph glyph-name="amacron" unicode="&#x101;" horiz-adv-x="430" 
d="M231 493c-38 -2 -90 51 -57 53c58 3 165 0 223 -4c44 -4 83 -53 48 -50zM483 226c12 19 59 -30 22 -85c-93 -140 -186 -163 -233 -129c-22 16 -30 38 -31 63c-57 -66 -122 -110 -188 -44c-65 66 -39 139 37 254c40 61 97 111 140 133c36 18 60 13 92 -12
c19 -14 49 -26 50 -53c27 -10 55 -40 46 -53c-9 -12 -41 -52 -71 -100c-35 -54 -76 -129 -47 -149c26 -18 131 101 183 175zM73 58c9 -12 59 12 159 137l18 26c27 42 68 117 53 131c-17 14 -93 -48 -156 -141c-42 -61 -85 -138 -74 -153z" />
    <glyph glyph-name="Abreve" unicode="&#x102;" horiz-adv-x="905" 
d="M980 259c18 26 58 -35 17 -94c-89 -126 -180 -156 -269 -142c-14 -27 -28 -53 -42 -77c-15 -26 -94 31 -68 82c4 8 9 17 13 25c-48 22 -93 51 -133 77c-74 -83 -157 -170 -259 -204c-135 -43 -293 85 -183 220c91 111 229 135 362 92c13 -4 26 -9 38 -15
c39 44 78 89 118 131c94 101 204 239 313 325c47 37 98 51 141 -4c43 -54 -48 -185 -72 -230c-56 -106 -125 -235 -190 -354c109 1 160 93 214 168zM220 10c73 46 136 106 196 170c-11 5 -21 10 -30 13c-84 24 -191 -21 -246 -95c-57 -80 -39 -163 80 -88zM663 113l260 475
c-64 -53 -354 -378 -383 -410c38 -24 77 -48 123 -65z" />
    <glyph glyph-name="imacron" unicode="&#x12b;" horiz-adv-x="235" 
d="M184 485c-38 -2 -90 51 -57 53c58 3 165 0 223 -4c44 -4 83 -53 48 -50zM242 336c-18 -31 -62 -88 -83 -117c-41 -58 -78 -142 -59 -159c29 -24 142 95 194 169c12 17 59 -30 22 -85c-93 -140 -192 -167 -235 -128c-113 104 -45 188 18 279c38 55 70 90 75 97
c23 26 79 -36 68 -56z" />
    <glyph glyph-name="Imacron" unicode="&#x12a;" horiz-adv-x="577" 
d="M733 828c-38 -2 -90 51 -57 53c58 3 165 0 223 -4c44 -4 83 -53 48 -50zM875 680c5 -46 -47 -60 -82 -67c-10 -2 -29 -4 -54 -7c-42 -62 -81 -134 -109 -180c-39 -65 -79 -129 -118 -194c-52 -86 -102 -171 -176 -242c-77 -74 -153 -61 -241 -13c-140 78 -51 252 80 306
c94 39 199 -1 130 -22c-200 -60 -229 -212 -185 -253c36 -32 116 12 149 47c38 40 71 83 101 129c49 77 95 156 142 234c28 46 68 113 106 173c-91 -16 -170 -42 -110 -94c18 -15 -13 -25 -41 -17c-40 12 -86 56 -51 118c35 59 151 61 249 64l12 18c19 26 50 81 89 84
c44 4 105 -38 109 -84z" />
    <glyph glyph-name="emacron" unicode="&#x113;" horiz-adv-x="355" 
d="M232 487c-38 -2 -90 51 -57 53c58 3 165 0 223 -4c44 -4 83 -53 48 -50zM240 450c16 4 41 6 62 -10c77 -55 80 -82 55 -147c-35 -88 -100 -149 -171 -164c-26 -5 -55 18 -72 34c-15 -44 -14 -89 5 -102c52 -35 194 24 300 180c10 15 62 -24 22 -86
c-65 -102 -235 -208 -357 -127c-39 25 -61 49 -61 108c0 106 126 289 217 314zM170 257c-26 -36 -42 -67 -33 -72c15 -8 57 28 94 72c49 58 70 113 62 119c-9 7 -63 -34 -123 -119z" />
    <glyph glyph-name="umacron" unicode="&#x16b;" 
d="M273 485c-38 -2 -90 51 -57 53c58 3 165 0 223 -4c44 -4 83 -53 48 -50zM384 252c-24 -36 -119 -173 -79 -201c27 -19 131 100 182 174c13 18 60 -30 23 -85c-93 -139 -186 -162 -233 -128c-22 16 -35 35 -43 57c-58 -60 -125 -99 -185 -42c-60 55 -34 150 43 263
c54 81 78 110 97 128c30 28 85 -35 70 -58l-108 -148c-42 -60 -84 -137 -73 -152c9 -12 59 12 159 137l153 222c27 19 89 -35 76 -53c-5 -7 -44 -57 -82 -114z" />
    <glyph glyph-name="omacron" unicode="&#x14d;" horiz-adv-x="419" 
d="M201 485c-38 -2 -90 51 -57 53c58 3 165 0 223 -4c44 -4 83 -53 48 -50zM479 236c8 14 62 -25 23 -86c-36 -54 -127 -127 -190 -51c-23 -32 -50 -63 -75 -79c-77 -52 -132 -17 -149 -3c-17 13 -69 36 -64 103c11 132 105 237 150 277c46 40 80 43 117 22
c107 -61 108 -119 73 -225c-4 -10 -9 -22 -16 -35c4 -11 9 -21 16 -24c21 -8 63 18 115 101zM117 55c27 -21 103 72 136 122c4 6 8 13 13 21c-14 40 -27 94 -20 135c-25 -20 -55 -52 -85 -101c-41 -65 -68 -159 -44 -177z" />
    <glyph glyph-name="Omacron" unicode="&#x14c;" horiz-adv-x="600" 
d="M434 828c-38 -2 -90 51 -57 53c58 3 165 0 223 -4c44 -4 83 -53 48 -50zM683 268c20 33 60 -32 10 -105c-89 -132 -217 -187 -336 -182c-86 -50 -182 -63 -270 -12c-77 44 -77 141 -39 241c-8 23 -14 48 -18 74c-15 115 22 195 70 266c90 133 318 284 482 93
c128 -148 35 -427 -127 -586c78 32 159 101 228 211zM120 11c19 -13 55 -14 101 4c-50 24 -94 60 -127 106c-12 -58 5 -94 26 -110zM282 46c54 35 114 90 170 171c116 167 132 348 88 400c-57 68 -175 45 -252 -11c-80 -58 -163 -168 -175 -272c44 65 99 122 150 151
c52 31 105 5 89 -10c-82 -72 -140 -137 -181 -195c-17 -23 -31 -46 -42 -66c28 -87 84 -145 153 -168z" />
    <glyph glyph-name="Umacron" unicode="&#x16a;" horiz-adv-x="606" 
d="M526 828c-38 -2 -90 51 -57 53c58 3 165 0 223 -4c44 -4 83 -53 48 -50zM754 618c-69 -142 -143 -254 -231 -373c-7 -11 -13 -23 -20 -35c-31 -57 -129 -211 -74 -211c5 0 20 -3 75 49c71 71 131 136 184 221c22 34 54 -37 10 -105c-84 -130 -202 -219 -266 -219
c-61 0 -88 39 -92 89c-16 -17 -31 -31 -40 -39c-63 -51 -183 -107 -258 21c-36 61 -1 138 31 196c98 177 296 411 268 438c-29 28 -119 -65 -155 -117c-46 -66 -72 -117 -101 -193c-19 -52 -66 49 -37 127c82 228 276 293 333 212c60 -84 14 -149 -16 -201
c-37 -65 -192 -287 -192 -287c-26 -45 -103 -151 -63 -188c34 -32 193 81 352 341c3 4 6 8 8 12c70 119 150 233 215 352c16 28 92 -43 69 -90z" />
    <glyph glyph-name="Emacron" unicode="&#x112;" horiz-adv-x="561" 
d="M497 828c-38 -2 -90 51 -57 53c58 3 165 0 223 -4c44 -4 83 -53 48 -50zM366 302c25 -3 6 -94 -25 -100c-226 -49 -242 -147 -210 -186c44 -56 183 -50 339 64c60 44 120 105 173 189c22 35 55 -30 13 -99c-96 -155 -391 -427 -612 -131c-68 91 56 186 177 218
c-73 54 -90 124 -71 194c-55 50 -80 115 -46 178c43 80 121 53 103 31c-44 -53 -47 -102 -27 -140c89 146 317 256 465 130c127 -109 -108 -315 -303 -286c-40 6 -78 18 -113 34c-3 -43 31 -84 137 -96zM403 594c-61 -34 -120 -86 -151 -136c15 -7 31 -11 47 -14
c180 -27 323 122 296 184c-11 25 -91 23 -192 -34z" />
    <glyph glyph-name="uni02C9" unicode="&#x2c9;" horiz-adv-x="833" 
d="M358 828c-38 -2 -90 51 -57 53c58 3 165 0 223 -4c44 -4 83 -53 48 -50z" />
    <glyph glyph-name="ring" unicode="&#x2da;" horiz-adv-x="833" 
d="M477 895c41 -23 46 -65 30 -107c-19 -38 -56 -69 -98 -45c-39 22 -49 66 -30 106c19 39 55 69 98 46zM416 764c12 -5 34 18 47 46c12 25 16 56 6 62c-10 5 -32 -17 -44 -41c-12 -26 -18 -63 -9 -67z" />
    <glyph glyph-name="dcaron" unicode="&#x10f;" horiz-adv-x="672" 
d="M402 281c0 0 -12 -14 -23 -30c-24 -35 -108 -154 -76 -191c36 -41 152 95 204 169c12 18 59 -30 22 -85c-93 -140 -197 -175 -253 -120c-17 18 -27 38 -30 58c-58 -69 -125 -118 -193 -50c-65 65 -39 138 37 253c40 61 96 110 140 132c35 18 59 14 91 -11
c11 -8 24 -15 34 -24c44 67 203 305 251 357c11 12 37 7 59 -25c20 -27 15 -59 2 -84c-14 -29 -137 -204 -265 -349zM234 199c80 104 76 146 68 153c-17 14 -92 -49 -156 -141c-41 -61 -84 -138 -73 -152c9 -12 63 10 161 140zM758 559c-18 -25 -75 -28 -59 -3
c22 37 44 76 69 111c20 28 77 17 64 -2c-25 -35 -61 -89 -74 -106z" />
    <glyph glyph-name="Utilde" unicode="&#x168;" horiz-adv-x="606" 
d="M683 833c10 7 21 -23 -3 -43c-30 -23 -62 -29 -95 -8c-32 19 -64 50 -100 24c-34 -24 -12 32 3 43c32 23 65 31 101 10c28 -17 61 -51 94 -26zM754 618c-69 -142 -143 -254 -231 -373c-7 -11 -13 -23 -20 -35c-31 -57 -129 -211 -74 -211c5 0 20 -3 75 49
c71 71 131 136 184 221c22 34 54 -37 10 -105c-84 -130 -202 -219 -266 -219c-61 0 -88 39 -92 89c-16 -17 -31 -31 -40 -39c-63 -51 -183 -107 -258 21c-36 61 -1 138 31 196c98 177 296 411 268 438c-29 28 -119 -65 -155 -117c-46 -66 -72 -117 -101 -193
c-19 -52 -66 49 -37 127c82 228 276 293 333 212c60 -84 14 -149 -16 -201c-37 -65 -192 -287 -192 -287c-26 -45 -103 -151 -63 -188c34 -32 193 81 352 341c3 4 6 8 8 12c70 119 150 233 215 352c16 28 92 -43 69 -90z" />
    <glyph glyph-name="utilde" unicode="&#x169;" 
d="M384 252c-24 -36 -119 -173 -79 -201c27 -19 131 100 182 174c13 18 60 -30 23 -85c-93 -139 -186 -162 -233 -128c-22 16 -35 35 -43 57c-58 -60 -125 -99 -185 -42c-60 55 -34 150 43 263c54 81 78 110 97 128c30 28 85 -35 70 -58l-108 -148
c-42 -60 -84 -137 -73 -152c9 -12 59 12 159 137l153 222c27 19 89 -35 76 -53c-5 -7 -44 -57 -82 -114zM455 525c10 7 21 -23 -3 -43c-30 -23 -62 -29 -95 -8c-32 19 -64 50 -100 24c-34 -24 -12 32 3 43c32 23 65 31 101 10c28 -17 61 -51 94 -26z" />
    <glyph glyph-name="napostrophe" unicode="&#x149;" horiz-adv-x="486" 
d="M149 559c-18 -25 -75 -28 -59 -3c22 37 44 76 69 111c20 28 77 17 64 -2c-25 -35 -61 -89 -74 -106zM5 57c22 42 199 339 222 373c19 28 82 -32 57 -81c-25 -50 -77 -139 -118 -207c102 98 217 215 286 289c19 23 104 -19 77 -56c-49 -68 -137 -190 -172 -262
c-14 -30 -27 -57 -17 -66c11 -10 115 55 205 186c14 21 57 -33 23 -85c-125 -186 -267 -179 -296 -83c-10 36 10 98 31 137l9 15c-86 -86 -184 -176 -230 -214c-18 -14 -92 25 -77 54z" />
    <glyph glyph-name="tcaron" unicode="&#x165;" horiz-adv-x="306" 
d="M306 421c61 -2 122 -68 56 -68c-16 0 -67 -2 -107 -2c-43 -58 -85 -117 -96 -131c-42 -58 -81 -142 -61 -160c28 -25 126 -20 256 158c13 18 65 -22 24 -81c-97 -139 -258 -161 -300 -121c-113 106 -43 190 21 281c10 14 26 35 44 60c-74 0 -72 68 -48 68
c33 0 32 2 100 1c44 59 87 115 90 119c23 26 79 -38 68 -57c-6 -10 -24 -35 -47 -67zM433 507c-18 -25 -75 -28 -59 -3c22 37 44 76 69 111c20 28 77 17 64 -2c-25 -35 -61 -89 -74 -106z" />
    <glyph glyph-name="commaaccent.salt" horiz-adv-x="0" 
 />
    <glyph glyph-name="product" unicode="&#x220f;" horiz-adv-x="833" 
 />
    <glyph glyph-name="periodcentered" unicode="&#xb7;" horiz-adv-x="833" 
d="M396 403c27 -17 31 -59 9 -92c-22 -34 -61 -47 -88 -29c-27 17 -31 59 -9 92c21 34 61 46 88 29z" />
    <glyph glyph-name="abreve" unicode="&#x103;" horiz-adv-x="430" 
d="M396 567c-4 -26 -13 -112 134 -54c25 10 4 -53 -31 -65c-142 -50 -162 62 -141 110c10 23 42 31 38 9zM483 226c12 19 59 -30 22 -85c-93 -140 -186 -163 -233 -129c-22 16 -30 38 -31 63c-57 -66 -122 -110 -188 -44c-65 66 -39 139 37 254c40 61 97 111 140 133
c36 18 60 13 92 -12c19 -14 49 -26 50 -53c27 -10 55 -40 46 -53c-9 -12 -41 -52 -71 -100c-35 -54 -76 -129 -47 -149c26 -18 131 101 183 175zM73 58c9 -12 59 12 159 137l18 26c27 42 68 117 53 131c-17 14 -93 -48 -156 -141c-42 -61 -85 -138 -74 -153z" />
    <glyph glyph-name="ebreve" unicode="&#x115;" horiz-adv-x="355" 
d="M366 579c-4 -26 -13 -112 134 -54c25 10 4 -53 -31 -65c-142 -50 -162 62 -141 110c10 23 42 31 38 9zM240 450c16 4 41 6 62 -10c77 -55 80 -82 55 -147c-35 -88 -100 -149 -171 -164c-26 -5 -55 18 -72 34c-15 -44 -14 -89 5 -102c52 -35 194 24 300 180
c10 15 62 -24 22 -86c-65 -102 -235 -208 -357 -127c-39 25 -61 49 -61 108c0 106 126 289 217 314zM170 257c-26 -36 -42 -67 -33 -72c15 -8 57 28 94 72c49 58 70 113 62 119c-9 7 -63 -34 -123 -119z" />
    <glyph glyph-name="gbreve" unicode="&#x11f;" horiz-adv-x="426" 
d="M396 567c-4 -26 -13 -112 134 -54c25 10 4 -53 -31 -65c-142 -50 -162 62 -141 110c10 23 42 31 38 9zM491 226c12 18 59 -30 22 -85c-34 -50 -66 -84 -104 -110c-50 -33 -127 -61 -199 -88c-56 -85 -131 -209 -170 -256c-41 -50 -67 -16 -79 0c-19 24 -6 75 22 130
c29 56 62 97 132 138c4 5 19 24 36 47c-27 -6 -56 2 -84 31c-65 65 -39 138 36 252c41 61 97 110 140 132c35 19 60 14 92 -11c18 -14 48 -27 49 -53c27 -10 53 -39 46 -52c-10 -22 -122 -201 -168 -272c18 8 38 18 44 21c24 11 69 39 95 66c33 35 66 77 90 110zM87 59
c9 -11 59 13 158 137l18 25c27 42 68 117 53 131c-17 14 -93 -48 -156 -141c-41 -60 -85 -137 -73 -152z" />
    <glyph glyph-name="obreve" unicode="&#x14f;" horiz-adv-x="419" 
d="M347 567c-4 -26 -13 -112 134 -54c25 10 4 -53 -31 -65c-142 -50 -162 62 -141 110c10 23 42 31 38 9zM479 236c8 14 62 -25 23 -86c-36 -54 -127 -127 -190 -51c-23 -32 -50 -63 -75 -79c-77 -52 -132 -17 -149 -3c-17 13 -69 36 -64 103c11 132 105 237 150 277
c46 40 80 43 117 22c107 -61 108 -119 73 -225c-4 -10 -9 -22 -16 -35c4 -11 9 -21 16 -24c21 -8 63 18 115 101zM117 55c27 -21 103 72 136 122c4 6 8 13 13 21c-14 40 -27 94 -20 135c-25 -20 -55 -52 -85 -101c-41 -65 -68 -159 -44 -177z" />
    <glyph glyph-name="ubreve" unicode="&#x16d;" 
d="M337 585c-4 -26 -13 -112 134 -54c25 10 4 -53 -31 -65c-142 -50 -162 62 -141 110c10 23 42 31 38 9zM384 252c-24 -36 -119 -173 -79 -201c27 -19 131 100 182 174c13 18 60 -30 23 -85c-93 -139 -186 -162 -233 -128c-22 16 -35 35 -43 57c-58 -60 -125 -99 -185 -42
c-60 55 -34 150 43 263c54 81 78 110 97 128c30 28 85 -35 70 -58l-108 -148c-42 -60 -84 -137 -73 -152c9 -12 59 12 159 137l153 222c27 19 89 -35 76 -53c-5 -7 -44 -57 -82 -114z" />
    <glyph glyph-name="Ebreve" unicode="&#x114;" horiz-adv-x="561" 
d="M538 865c-4 -26 -13 -112 134 -54c25 10 4 -53 -31 -65c-142 -50 -162 62 -141 110c10 23 42 31 38 9zM366 302c25 -3 6 -94 -25 -100c-226 -49 -242 -147 -210 -186c44 -56 183 -50 339 64c60 44 120 105 173 189c22 35 55 -30 13 -99c-96 -155 -391 -427 -612 -131
c-68 91 56 186 177 218c-73 54 -90 124 -71 194c-55 50 -80 115 -46 178c43 80 121 53 103 31c-44 -53 -47 -102 -27 -140c89 146 317 256 465 130c127 -109 -108 -315 -303 -286c-40 6 -78 18 -113 34c-3 -43 31 -84 137 -96zM403 594c-61 -34 -120 -86 -151 -136
c15 -7 31 -11 47 -14c180 -27 323 122 296 184c-11 25 -91 23 -192 -34z" />
    <glyph glyph-name="Gbreve" unicode="&#x11e;" horiz-adv-x="667" 
d="M720 865c-4 -26 -13 -112 134 -54c25 10 4 -53 -31 -65c-142 -50 -162 62 -141 110c10 23 42 31 38 9zM470 279c-94 -22 -168 -22 -223 -8c-49 -106 -59 -205 -19 -256c41 -53 155 -34 377 244c14 24 83 -50 61 -79c-77 -100 -183 -255 -294 -498c-11 -25 -90 31 -74 65
c47 97 77 157 105 209c-91 -45 -184 -35 -262 82c-46 69 -27 182 14 284c-75 74 -65 200 -13 281c66 103 184 97 152 70c-75 -66 -171 -207 -112 -293c16 31 32 58 49 82c86 118 255 260 402 254c83 -3 174 -56 139 -156c-45 -130 -166 -248 -302 -281zM479 561
c-87 -68 -156 -153 -204 -236c82 -16 185 19 258 70c69 49 157 140 165 224c9 96 -158 -11 -219 -58z" />
    <glyph glyph-name="Obreve" unicode="&#x14e;" horiz-adv-x="600" 
d="M503 865c-4 -26 -13 -112 134 -54c25 10 4 -53 -31 -65c-142 -50 -162 62 -141 110c10 23 42 31 38 9zM683 268c20 33 60 -32 10 -105c-89 -132 -217 -187 -336 -182c-86 -50 -182 -63 -270 -12c-77 44 -77 141 -39 241c-8 23 -14 48 -18 74c-15 115 22 195 70 266
c90 133 318 284 482 93c128 -148 35 -427 -127 -586c78 32 159 101 228 211zM120 11c19 -13 55 -14 101 4c-50 24 -94 60 -127 106c-12 -58 5 -94 26 -110zM282 46c54 35 114 90 170 171c116 167 132 348 88 400c-57 68 -175 45 -252 -11c-80 -58 -163 -168 -175 -272
c44 65 99 122 150 151c52 31 105 5 89 -10c-82 -72 -140 -137 -181 -195c-17 -23 -31 -46 -42 -66c28 -87 84 -145 153 -168z" />
    <glyph glyph-name="Uring" unicode="&#x16e;" horiz-adv-x="606" 
d="M631 895c41 -23 46 -65 30 -107c-19 -38 -56 -69 -98 -45c-39 22 -49 66 -30 106c19 39 55 69 98 46zM570 764c12 -5 34 18 47 46c12 25 16 56 6 62c-10 5 -32 -17 -44 -41c-12 -26 -18 -63 -9 -67zM754 618c-69 -142 -143 -254 -231 -373c-7 -11 -13 -23 -20 -35
c-31 -57 -129 -211 -74 -211c5 0 20 -3 75 49c71 71 131 136 184 221c22 34 54 -37 10 -105c-84 -130 -202 -219 -266 -219c-61 0 -88 39 -92 89c-16 -17 -31 -31 -40 -39c-63 -51 -183 -107 -258 21c-36 61 -1 138 31 196c98 177 296 411 268 438
c-29 28 -119 -65 -155 -117c-46 -66 -72 -117 -101 -193c-19 -52 -66 49 -37 127c82 228 276 293 333 212c60 -84 14 -149 -16 -201c-37 -65 -192 -287 -192 -287c-26 -45 -103 -151 -63 -188c34 -32 193 81 352 341c3 4 6 8 8 12c70 119 150 233 215 352
c16 28 92 -43 69 -90zM339 1198c41 -23 46 -65 30 -107c-19 -38 -56 -69 -98 -45c-39 22 -49 66 -30 106c19 39 55 69 98 46zM278 1067c12 -5 34 18 47 46c12 25 16 56 6 62c-10 5 -32 -17 -44 -41c-12 -26 -18 -63 -9 -67z" />
    <glyph glyph-name="Ubreve" unicode="&#x16c;" horiz-adv-x="606" 
d="M575 865c-4 -26 -13 -112 134 -54c25 10 4 -53 -31 -65c-142 -50 -162 62 -141 110c10 23 42 31 38 9zM754 618c-69 -142 -143 -254 -231 -373c-7 -11 -13 -23 -20 -35c-31 -57 -129 -211 -74 -211c5 0 20 -3 75 49c71 71 131 136 184 221c22 34 54 -37 10 -105
c-84 -130 -202 -219 -266 -219c-61 0 -88 39 -92 89c-16 -17 -31 -31 -40 -39c-63 -51 -183 -107 -258 21c-36 61 -1 138 31 196c98 177 296 411 268 438c-29 28 -119 -65 -155 -117c-46 -66 -72 -117 -101 -193c-19 -52 -66 49 -37 127c82 228 276 293 333 212
c60 -84 14 -149 -16 -201c-37 -65 -192 -287 -192 -287c-26 -45 -103 -151 -63 -188c34 -32 193 81 352 341c3 4 6 8 8 12c70 119 150 233 215 352c16 28 92 -43 69 -90z" />
    <glyph glyph-name="breve" unicode="&#x2d8;" horiz-adv-x="833" 
d="M503 865c-4 -26 -13 -112 134 -54c25 10 4 -53 -31 -65c-142 -50 -162 62 -141 110c10 23 42 31 38 9z" />
    <glyph glyph-name="brokenbar" unicode="&#xa6;" horiz-adv-x="372" 
d="M27 -1c109 176 182 294 182 294c17 22 79 -38 57 -76c-104 -187 -64 -106 -183 -302c-14 -24 -79 48 -56 84zM289 424c109 176 183 294 183 294c17 22 79 -38 57 -76c-104 -187 -65 -106 -184 -302c-14 -24 -79 48 -56 84z" />
    <glyph glyph-name="Cdotaccent" unicode="&#x10a;" horiz-adv-x="683" 
d="M824 862c27 -17 31 -59 9 -92c-22 -34 -61 -47 -88 -29c-27 17 -31 59 -9 92c21 34 61 46 88 29zM764 268c22 35 51 -34 9 -103c-128 -211 -431 -397 -611 -128c-46 69 -27 183 14 285c-75 74 -65 201 -13 282c66 104 185 97 153 69c-76 -65 -172 -207 -113 -292
c16 30 33 58 50 81c86 119 255 261 402 255c83 -3 175 -56 140 -156c-45 -131 -166 -249 -303 -282c-95 -22 -168 -22 -224 -8c-49 -107 -59 -205 -18 -257c43 -55 184 -49 340 65c60 43 120 105 174 189zM501 561c-87 -68 -157 -152 -205 -236c82 -16 186 19 259 71
c70 49 158 139 166 224c9 96 -158 -11 -220 -59z" />
    <glyph glyph-name="Edotaccent" unicode="&#x116;" horiz-adv-x="561" 
d="M677 862c27 -17 31 -59 9 -92c-22 -34 -61 -47 -88 -29c-27 17 -31 59 -9 92c21 34 61 46 88 29zM366 302c25 -3 6 -94 -25 -100c-226 -49 -242 -147 -210 -186c44 -56 183 -50 339 64c60 44 120 105 173 189c22 35 55 -30 13 -99c-96 -155 -391 -427 -612 -131
c-68 91 56 186 177 218c-73 54 -90 124 -71 194c-55 50 -80 115 -46 178c43 80 121 53 103 31c-44 -53 -47 -102 -27 -140c89 146 317 256 465 130c127 -109 -108 -315 -303 -286c-40 6 -78 18 -113 34c-3 -43 31 -84 137 -96zM403 594c-61 -34 -120 -86 -151 -136
c15 -7 31 -11 47 -14c180 -27 323 122 296 184c-11 25 -91 23 -192 -34z" />
    <glyph glyph-name="Gdotaccent" unicode="&#x120;" horiz-adv-x="667" 
d="M824 862c27 -17 31 -59 9 -92c-22 -34 -61 -47 -88 -29c-27 17 -31 59 -9 92c21 34 61 46 88 29zM470 279c-94 -22 -168 -22 -223 -8c-49 -106 -59 -205 -19 -256c41 -53 155 -34 377 244c14 24 83 -50 61 -79c-77 -100 -183 -255 -294 -498c-11 -25 -90 31 -74 65
c47 97 77 157 105 209c-91 -45 -184 -35 -262 82c-46 69 -27 182 14 284c-75 74 -65 200 -13 281c66 103 184 97 152 70c-75 -66 -171 -207 -112 -293c16 31 32 58 49 82c86 118 255 260 402 254c83 -3 174 -56 139 -156c-45 -130 -166 -248 -302 -281zM479 561
c-87 -68 -156 -153 -204 -236c82 -16 185 19 258 70c69 49 157 140 165 224c9 96 -158 -11 -219 -58z" />
    <glyph glyph-name="cdotaccent" unicode="&#x10b;" horiz-adv-x="357" 
d="M436 586c27 -17 31 -59 9 -92c-22 -34 -61 -47 -88 -29c-27 17 -31 59 -9 92c21 34 61 46 88 29zM290 203c-14 -15 -61 43 -34 90c30 53 36 70 32 74c-8 8 -56 -27 -118 -111c-65 -90 -83 -173 -50 -196c51 -35 194 25 299 181c11 15 62 -25 24 -85
c-65 -103 -237 -208 -360 -128c-32 20 -59 45 -59 104c0 108 131 294 221 318c15 5 36 2 47 -9c69 -66 81 -88 57 -150c-14 -32 -28 -57 -59 -88z" />
    <glyph glyph-name="edotaccent" unicode="&#x117;" horiz-adv-x="355" 
d="M436 586c27 -17 31 -59 9 -92c-22 -34 -61 -47 -88 -29c-27 17 -31 59 -9 92c21 34 61 46 88 29zM240 450c16 4 41 6 62 -10c77 -55 80 -82 55 -147c-35 -88 -100 -149 -171 -164c-26 -5 -55 18 -72 34c-15 -44 -14 -89 5 -102c52 -35 194 24 300 180
c10 15 62 -24 22 -86c-65 -102 -235 -208 -357 -127c-39 25 -61 49 -61 108c0 106 126 289 217 314zM170 257c-26 -36 -42 -67 -33 -72c15 -8 57 28 94 72c49 58 70 113 62 119c-9 7 -63 -34 -123 -119z" />
    <glyph glyph-name="gdotaccent" unicode="&#x121;" horiz-adv-x="426" 
d="M458 560c27 -17 31 -59 9 -92c-22 -34 -61 -47 -88 -29c-27 17 -31 59 -9 92c21 34 61 46 88 29zM491 226c12 18 59 -30 22 -85c-34 -50 -66 -84 -104 -110c-50 -33 -127 -61 -199 -88c-56 -85 -131 -209 -170 -256c-41 -50 -67 -16 -79 0c-19 24 -6 75 22 130
c29 56 62 97 132 138c4 5 19 24 36 47c-27 -6 -56 2 -84 31c-65 65 -39 138 36 252c41 61 97 110 140 132c35 19 60 14 92 -11c18 -14 48 -27 49 -53c27 -10 53 -39 46 -52c-10 -22 -122 -201 -168 -272c18 8 38 18 44 21c24 11 69 39 95 66c33 35 66 77 90 110zM87 59
c9 -11 59 13 158 137l18 25c27 42 68 117 53 131c-17 14 -93 -48 -156 -141c-41 -60 -85 -137 -73 -152z" />
    <glyph glyph-name="dotaccent" unicode="&#x2d9;" horiz-adv-x="833" 
d="M598 623c27 -17 31 -59 9 -92c-22 -34 -61 -47 -88 -29c-27 17 -31 59 -9 92c21 34 61 46 88 29z" />
    <glyph glyph-name="Zdotaccent" unicode="&#x17b;" horiz-adv-x="616" 
d="M739 862c27 -17 31 -59 9 -92c-22 -34 -61 -47 -88 -29c-27 17 -31 59 -9 92c21 34 61 46 88 29zM768 699c23 14 106 -42 78 -60c-203 -130 -339 -318 -489 -502c18 -66 44 -138 81 -138c6 0 21 -4 75 49c72 70 132 136 185 220c22 35 56 -33 12 -101
c-84 -131 -205 -223 -268 -223c-68 0 -108 62 -138 127c-61 -76 -159 -194 -250 -99c-57 59 -23 155 47 233c66 73 150 84 204 39c2 3 5 6 7 9c84 104 168 206 263 295c-95 24 -177 133 -241 100c-51 -26 -46 -244 -36 -340c5 -54 -81 20 -90 94c-14 121 17 301 161 303
c112 2 221 -124 318 -59c28 18 52 36 81 53zM177 76c19 25 46 62 73 97c-34 26 -75 -16 -100 -47c-33 -40 -69 -104 -54 -118c11 -10 41 15 81 68z" />
    <glyph glyph-name="zdotaccent" unicode="&#x17c;" horiz-adv-x="413" 
d="M436 586c27 -17 31 -59 9 -92c-22 -34 -61 -47 -88 -29c-27 17 -31 59 -9 92c21 34 61 46 88 29zM135 22c-22 -8 -97 37 -73 51c81 48 151 108 204 186c56 83 50 107 40 119c-16 18 -71 30 -170 -91c-17 -20 -40 69 -3 112c62 69 156 56 175 47c93 -41 101 -114 53 -202
c-33 -59 -71 -117 -117 -154c10 -1 18 -3 27 -6c12 -5 23 -11 33 -19c84 56 122 102 162 161c13 18 63 -31 23 -85c-46 -62 -91 -94 -148 -130c11 -30 13 -67 2 -108c-23 -86 -160 -243 -263 -206c-131 47 -16 164 41 224c39 40 75 75 129 109c-23 13 -62 9 -115 -8z
M254 -78c7 15 12 29 15 41c-40 -32 -78 -71 -109 -107c-51 -59 -84 -98 -73 -112c11 -13 67 45 104 85c25 26 47 59 63 93z" />
    <glyph glyph-name="ccedilla" unicode="&#xe7;" horiz-adv-x="357" 
d="M290 203c-14 -15 -61 43 -34 90c30 53 36 70 32 74c-8 8 -56 -27 -118 -111c-65 -90 -83 -173 -50 -196c51 -35 194 25 299 181c11 15 62 -25 24 -85c-50 -79 -161 -158 -266 -156l-9 -24c27 5 53 -9 64 -31c32 -67 -53 -104 -104 -101c-47 2 -63 47 -40 46
c31 -1 112 12 107 44c-4 20 -42 4 -47 2c-15 -7 -68 18 -61 39c4 11 11 26 18 41c-8 3 -15 7 -22 12c-32 20 -59 45 -59 104c0 108 131 294 221 318c15 5 36 2 47 -9c69 -66 81 -88 57 -150c-14 -32 -28 -57 -59 -88z" />
    <glyph glyph-name="Ccedilla" unicode="&#xc7;" horiz-adv-x="683" 
d="M408 -146c32 -67 -53 -104 -104 -101c-47 2 -63 47 -40 46c31 -1 112 12 107 44c-4 20 -42 4 -47 2c-15 -7 -68 18 -61 39c4 12 12 28 19 44c-43 21 -84 56 -120 109c-46 69 -27 183 14 285c-75 74 -65 201 -13 282c66 104 185 97 153 69c-76 -65 -172 -207 -113 -292
c16 30 33 58 50 81c86 119 255 261 402 255c83 -3 175 -56 140 -156c-45 -131 -166 -249 -303 -282c-95 -22 -168 -22 -224 -8c-49 -107 -59 -205 -18 -257c43 -55 184 -49 340 65c60 43 120 105 174 189c22 35 51 -34 9 -103c-89 -147 -263 -281 -421 -259
c-3 -7 -6 -14 -8 -21c27 5 53 -9 64 -31zM501 561c-87 -68 -157 -152 -205 -236c82 -16 186 19 259 71c70 49 158 139 166 224c9 96 -158 -11 -220 -59z" />
    <glyph glyph-name="Scedilla" unicode="&#x15e;" horiz-adv-x="530" 
d="M301 -104c32 -67 -53 -104 -104 -101c-47 2 -63 47 -40 46c31 -1 112 12 107 44c-4 20 -42 4 -47 2c-15 -7 -68 18 -61 39c5 13 13 29 20 46c-62 21 -117 50 -149 75c-16 12 46 39 72 25c61 -33 248 -118 277 -38c12 34 -78 55 -107 67c-59 25 -123 68 -154 133
c-66 137 142 348 233 409c109 73 274 140 338 5c60 -129 -132 -377 -327 -417c-67 -14 -156 34 -118 42c140 27 261 128 325 253c10 19 58 105 38 129c-9 10 -41 23 -133 -31c-104 -61 -301 -243 -265 -381c22 -83 132 -84 222 -135c42 -23 47 -65 36 -98
c-27 -75 -121 -80 -218 -58l-9 -25c27 5 53 -9 64 -31z" />
    <glyph glyph-name="scedilla" unicode="&#x15f;" horiz-adv-x="307" 
d="M170 -59c32 -67 -53 -104 -104 -101c-47 2 -63 47 -40 46c31 -1 112 12 107 44c-4 20 -42 4 -47 2c-15 -7 -68 18 -61 39c5 14 15 33 22 52c-14 12 -26 26 -36 43c-4 6 -4 8 -6 12c-14 -3 -73 3 -57 19c97 94 242 340 289 396c17 21 59 0 81 -22c16 -15 27 -34 14 -50
c-84 -107 -61 -182 -69 -287c-4 -44 10 -115 -46 -138c-34 -14 -71 -15 -104 -6l-7 -18c27 5 53 -9 64 -31zM117 40c47 -4 57 84 63 164l5 56c-44 -54 -85 -103 -123 -143c10 -31 23 -75 55 -77z" />
    <glyph glyph-name="aogonek" unicode="&#x105;" horiz-adv-x="430" 
d="M483 226c12 19 59 -30 22 -85c-58 -87 -115 -128 -162 -140c-46 -35 -65 -79 -49 -95c23 -23 83 28 103 52c14 17 38 -23 9 -61l-17 -18c-35 -30 -91 -45 -127 6c-35 48 -19 96 15 123l-5 4c-22 16 -30 38 -31 63c-57 -66 -122 -110 -188 -44c-65 66 -39 139 37 254
c40 61 97 111 140 133c36 18 60 13 92 -12c19 -14 49 -26 50 -53c27 -10 55 -40 46 -53c-9 -12 -41 -52 -71 -100c-35 -54 -76 -129 -47 -149c26 -18 131 101 183 175zM73 58c9 -12 59 12 159 137l18 26c27 42 68 117 53 131c-17 14 -93 -48 -156 -141
c-42 -61 -85 -138 -74 -153z" />
    <glyph glyph-name="iogonek" unicode="&#x12f;" horiz-adv-x="237" 
d="M211 -103c-4 -5 -8 -10 -17 -18c-36 -29 -91 -45 -127 6c-36 50 -18 100 19 126c-2 2 -4 3 -5 5c-113 104 -45 188 18 279c38 55 70 90 75 97c23 26 79 -36 68 -56c-18 -31 -62 -88 -83 -117c-41 -58 -78 -142 -59 -159c29 -24 142 95 194 169c12 17 59 -30 22 -85
c-58 -87 -119 -131 -166 -142c-47 -35 -68 -79 -51 -96c23 -23 83 28 103 52c14 17 37 -24 9 -61zM364 589c27 -17 31 -59 9 -92c-22 -34 -61 -47 -88 -29c-27 17 -31 59 -9 92c21 34 61 46 88 29z" />
    <glyph glyph-name="eogonek" unicode="&#x119;" horiz-adv-x="355" 
d="M240 450c16 4 41 6 62 -10c77 -55 80 -82 55 -147c-35 -88 -100 -149 -171 -164c-26 -5 -55 18 -72 34c-15 -44 -14 -89 5 -102c52 -35 194 24 300 180c10 15 62 -24 22 -86c-43 -68 -132 -137 -222 -153c-47 -35 -68 -79 -51 -96c23 -23 83 28 103 52
c14 17 37 -24 9 -61c-4 -5 -8 -10 -17 -18c-36 -29 -91 -45 -127 6c-33 45 -21 90 9 118c-21 4 -42 12 -61 25c-39 25 -61 49 -61 108c0 106 126 289 217 314zM170 257c-26 -36 -42 -67 -33 -72c15 -8 57 28 94 72c49 58 70 113 62 119c-9 7 -63 -34 -123 -119z" />
    <glyph glyph-name="uogonek" unicode="&#x173;" 
d="M384 252c-24 -36 -119 -173 -79 -201c27 -19 131 100 182 174c13 18 60 -30 23 -85c-58 -86 -115 -128 -162 -139c-46 -35 -65 -79 -49 -95c23 -23 83 28 103 52c14 17 37 -24 9 -61c-4 -5 -8 -10 -17 -18c-36 -29 -91 -45 -127 6c-35 48 -19 96 15 123l-5 4
c-22 16 -35 35 -43 57c-58 -60 -125 -99 -185 -42c-60 55 -34 150 43 263c54 81 78 110 97 128c30 28 85 -35 70 -58l-108 -148c-42 -60 -84 -137 -73 -152c9 -12 59 12 159 137l153 222c27 19 89 -35 76 -53c-5 -7 -44 -57 -82 -114z" />
    <glyph glyph-name="Oslash" unicode="&#xd8;" horiz-adv-x="600" 
d="M631 788c18 25 65 -55 49 -78c-11 -15 -37 -54 -71 -107c85 -154 -6 -400 -154 -546c78 32 159 101 228 211c20 33 60 -32 10 -105c-89 -132 -217 -187 -336 -182c-56 -32 -116 -49 -176 -43c-21 -34 -40 -63 -48 -75c-23 -35 -61 51 -49 78c1 3 6 12 13 23l-10 5
c-77 44 -77 141 -39 241c-8 23 -14 48 -18 74c-15 115 22 195 70 266c85 125 292 266 453 122c42 63 71 107 78 116zM288 606c-80 -58 -163 -168 -175 -272c44 65 99 122 150 151c52 31 105 5 89 -10c-82 -72 -140 -137 -181 -195c-17 -23 -31 -46 -42 -66
c13 -43 33 -78 59 -106c97 152 240 373 338 522c-60 51 -167 28 -238 -24zM282 46c54 35 114 90 170 171c78 113 111 232 110 314l-305 -475c8 -4 16 -7 25 -10zM120 11l4 -3l31 48c-23 19 -44 40 -61 65c-12 -58 5 -94 26 -110z" />
    <glyph glyph-name="oslash" unicode="&#xf8;" horiz-adv-x="419" 
d="M64 5c-9 -10 -27 -3 -37 2c-7 3 -15 8 -20 14c-2 2 -8 9 -5 13l31 35c-7 13 -11 30 -9 51c11 132 105 237 150 277c46 40 80 43 117 22c25 -15 44 -29 59 -44c13 11 27 21 41 31c4 3 13 2 18 1c8 -2 17 -6 24 -10c6 -4 26 -18 15 -26c-23 -16 -45 -33 -67 -51
c8 -34 0 -75 -17 -126c-4 -10 -9 -22 -16 -35c4 -11 9 -21 16 -24c21 -8 63 18 115 101c8 14 62 -25 23 -86c-36 -54 -127 -127 -190 -51c-23 -32 -50 -63 -75 -79c-77 -52 -132 -17 -149 -3l-9 5zM117 55c27 -21 103 72 136 122l13 21l-5 13c-38 -37 -75 -74 -111 -112l3 3
c-14 -14 -27 -28 -40 -43c1 -1 2 -3 4 -4zM161 232c-12 -19 -23 -40 -31 -61l39 39c25 25 50 50 76 74c-2 17 -2 34 1 49c-25 -20 -55 -52 -85 -101z" />
    <glyph glyph-name="Aogonek" unicode="&#x104;" horiz-adv-x="905" 
d="M980 259c18 26 58 -35 17 -94c-89 -126 -180 -156 -269 -142c-13 -25 -26 -49 -39 -71c-23 -44 -34 -67 -26 -84c14 -29 83 28 103 52c14 17 37 -24 9 -61c-4 -5 -8 -10 -17 -18c-36 -29 -91 -45 -127 6c-30 42 -21 84 4 112c-18 18 -30 44 -17 69l13 25
c-48 22 -93 51 -133 77c-74 -83 -157 -170 -259 -204c-135 -43 -293 85 -183 220c91 111 229 135 362 92c13 -4 26 -9 38 -15c39 44 78 89 118 131c94 101 204 239 313 325c47 37 98 51 141 -4c43 -54 -48 -185 -72 -230c-56 -106 -125 -235 -190 -354c109 1 160 93 214 168
zM663 113l260 475c-64 -53 -354 -378 -383 -410c38 -24 77 -48 123 -65zM220 10c73 46 136 106 196 170c-11 5 -21 10 -30 13c-84 24 -191 -21 -246 -95c-57 -80 -39 -163 80 -88z" />
    <glyph glyph-name="Eogonek" unicode="&#x118;" horiz-adv-x="561" 
d="M366 302c25 -3 6 -94 -25 -100c-226 -49 -242 -147 -210 -186c44 -56 183 -50 339 64c60 44 120 105 173 189c22 35 55 -30 13 -99c-50 -81 -155 -194 -275 -241c-38 -26 -65 -53 -56 -72c14 -29 83 28 103 52c14 17 37 -24 9 -61c-4 -5 -8 -10 -17 -18
c-36 -29 -91 -45 -127 6c-19 26 -20 50 -11 71c-81 -3 -164 33 -238 132c-68 91 56 186 177 218c-73 54 -90 124 -71 194c-55 50 -80 115 -46 178c43 80 121 53 103 31c-44 -53 -47 -102 -27 -140c89 146 317 256 465 130c127 -109 -108 -315 -303 -286
c-40 6 -78 18 -113 34c-3 -43 31 -84 137 -96zM403 594c-61 -34 -120 -86 -151 -136c15 -7 31 -11 47 -14c180 -27 323 122 296 184c-11 25 -91 23 -192 -34z" />
    <glyph glyph-name="Iogonek" unicode="&#x12e;" horiz-adv-x="577" 
d="M875 680c5 -46 -47 -60 -82 -67c-10 -2 -29 -4 -54 -7c-42 -62 -81 -134 -109 -180l-118 -194c-52 -86 -102 -171 -176 -242l-23 -19c-50 -46 -68 -93 -58 -114c14 -29 83 28 103 52c14 17 37 -24 9 -61c-4 -5 -8 -10 -17 -18c-36 -29 -91 -45 -127 6
c-27 37 -23 75 -4 102c-39 0 -80 15 -124 39c-140 78 -51 252 80 306c94 39 199 -1 130 -22c-200 -60 -229 -212 -185 -253c36 -32 116 12 149 47c38 40 71 83 101 129c49 77 95 156 142 234c28 46 68 113 106 173c-91 -16 -170 -42 -110 -94c18 -15 -13 -25 -41 -17
c-40 12 -86 56 -51 118c35 59 151 61 249 64l12 18c19 26 50 81 89 84c44 4 105 -38 109 -84z" />
    <glyph glyph-name="Uogonek" unicode="&#x172;" horiz-adv-x="606" 
d="M754 618c-69 -142 -143 -254 -231 -373c-7 -11 -13 -23 -20 -35c-31 -57 -129 -211 -74 -211c5 0 20 -3 75 49c71 71 131 136 184 221c22 34 54 -37 10 -105c-60 -93 -137 -164 -199 -198c-47 -45 -63 -89 -53 -109c14 -29 83 28 103 52c14 17 37 -24 9 -61
c-4 -5 -8 -10 -17 -18c-36 -29 -91 -45 -127 6c-30 41 -22 82 2 110c-50 6 -73 43 -76 88c-16 -17 -31 -31 -40 -39c-63 -51 -183 -107 -258 21c-36 61 -1 138 31 196c98 177 296 411 268 438c-29 28 -119 -65 -155 -117c-46 -66 -72 -117 -101 -193c-19 -52 -66 49 -37 127
c82 228 276 293 333 212c60 -84 14 -149 -16 -201c-37 -65 -192 -287 -192 -287c-26 -45 -103 -151 -63 -188c34 -32 193 81 352 341c3 4 6 8 8 12c70 119 150 233 215 352c16 28 92 -43 69 -90z" />
    <glyph glyph-name="Idotaccent" unicode="&#x130;" horiz-adv-x="577" 
d="M907 905c27 -17 31 -59 9 -92c-22 -34 -61 -47 -88 -29c-27 17 -31 59 -9 92c21 34 61 46 88 29zM875 680c5 -46 -47 -60 -82 -67c-10 -2 -29 -4 -54 -7c-42 -62 -81 -134 -109 -180c-39 -65 -79 -129 -118 -194c-52 -86 -102 -171 -176 -242c-77 -74 -153 -61 -241 -13
c-140 78 -51 252 80 306c94 39 199 -1 130 -22c-200 -60 -229 -212 -185 -253c36 -32 116 12 149 47c38 40 71 83 101 129c49 77 95 156 142 234c28 46 68 113 106 173c-91 -16 -170 -42 -110 -94c18 -15 -13 -25 -41 -17c-40 12 -86 56 -51 118c35 59 151 61 249 64l12 18
c19 26 50 81 89 84c44 4 105 -38 109 -84z" />
    <glyph glyph-name="dotlessi" unicode="&#x131;" horiz-adv-x="237" 
d="M242 336c-18 -31 -62 -88 -83 -117c-41 -58 -78 -142 -59 -159c29 -24 142 95 194 169c12 17 59 -30 22 -85c-93 -140 -192 -167 -235 -128c-113 104 -45 188 18 279c38 55 70 90 75 97c23 26 79 -36 68 -56z" />
    <glyph glyph-name="lcaron" unicode="&#x13e;" horiz-adv-x="238" 
d="M387 737c11 12 37 7 59 -25c19 -27 15 -59 2 -84c-14 -28 -133 -198 -259 -342c-15 -19 -27 -34 -28 -36c-24 -36 -108 -155 -77 -191c36 -41 152 94 204 168c12 18 59 -30 22 -85c-93 -139 -197 -175 -252 -119c-14 14 -22 29 -27 44c-15 39 -18 90 3 132
c45 87 286 470 353 538zM538 628c-18 -25 -75 -28 -59 -3c22 37 44 76 69 111c20 28 77 17 64 -2c-25 -35 -61 -89 -74 -106z" />
    <glyph glyph-name="uni0218" unicode="&#x218;" horiz-adv-x="530" 
d="M228 -202c-18 -25 -75 -28 -59 -3c22 37 44 76 69 111c20 28 77 17 64 -2c-25 -35 -61 -89 -74 -106zM471 624c-104 -61 -301 -243 -265 -381c22 -83 132 -84 222 -135c42 -23 47 -65 36 -98c-50 -142 -344 -36 -437 37c-16 12 46 39 72 25c61 -33 248 -118 277 -38
c12 34 -78 55 -107 67c-59 25 -123 68 -154 133c-66 137 142 348 233 409c109 73 274 140 338 5c60 -129 -132 -377 -327 -417c-67 -14 -156 34 -118 42c140 27 261 128 325 253c10 19 58 105 38 129c-9 10 -41 23 -133 -31z" />
    <glyph glyph-name="uni0156" unicode="&#x156;" horiz-adv-x="713" 
d="M177 -202c-18 -25 -75 -28 -59 -3c22 37 44 76 69 111c20 28 77 17 64 -2c-25 -35 -61 -89 -74 -106zM794 267c22 35 53 -36 9 -104c-126 -196 -457 -359 -593 -67c-4 1 -8 1 -13 1c-26 -44 -73 -124 -86 -143c-17 -27 -97 25 -84 48c20 36 145 240 175 284
c-113 76 -133 168 -96 252c73 156 234 199 359 187c155 -15 309 -161 283 -318c-17 -99 -116 -294 -439 -311c34 -74 76 -108 104 -108c98 -11 318 150 381 279zM312 625c-74 -45 -221 -207 -87 -304c53 86 153 245 165 266c20 31 82 -48 62 -79
c-64 -99 -158 -254 -220 -356c258 5 457 196 429 367c-27 164 -231 178 -349 106z" />
    <glyph glyph-name="uni0136" unicode="&#x136;" horiz-adv-x="620" 
d="M165 -202c-18 -25 -75 -28 -59 -3c22 37 44 76 69 111c20 28 77 17 64 -2c-25 -35 -61 -89 -74 -106zM529 657c-69 -115 -160 -266 -271 -451c3 -4 5 -8 8 -12c26 14 51 29 76 46c161 118 291 292 397 459c25 39 55 -63 24 -122c-90 -175 -236 -342 -476 -451
c28 -113 41 -138 76 -138c33 0 98 26 170 88c69 59 114 108 168 192c22 35 53 -37 10 -105c-132 -205 -433 -355 -511 -65c-3 0 -5 0 -7 1c-29 -49 -60 -100 -91 -154c-15 -24 -95 33 -75 65c26 42 52 85 77 127c-21 11 -43 29 -28 57c26 46 64 63 100 60
c64 107 128 213 192 320c-13 -7 -26 -13 -39 -21c-36 -19 -164 -73 -157 -127c3 -25 -82 9 -86 38c-8 58 100 108 139 130c73 41 149 77 224 114c22 11 91 -33 80 -51z" />
    <glyph glyph-name="uni013B" unicode="&#x13b;" horiz-adv-x="674" 
d="M237 -202c-18 -25 -75 -28 -59 -3c22 37 44 76 69 111c20 28 77 17 64 -2c-25 -35 -61 -89 -74 -106zM779 300c22 35 54 -37 10 -105c-120 -186 -378 -327 -484 -135c-36 -49 -80 -94 -141 -107c-70 -14 -145 50 -141 115c5 83 72 186 157 224c56 25 100 5 138 -42
c15 25 30 50 44 76c-16 8 -31 18 -47 31c-93 77 -94 172 -49 269c41 88 182 92 144 55c-60 -60 -113 -145 -88 -235c13 -47 36 -67 64 -74c17 35 33 70 48 106c36 88 80 234 174 253c37 7 96 -37 112 -65c39 -73 -22 -194 -68 -247c-54 -62 -121 -107 -191 -113
c-28 -53 -60 -105 -94 -156c27 -106 40 -130 75 -130c32 0 97 26 169 88c69 59 115 108 168 192zM652 655c-30 15 -109 -171 -147 -258c113 67 172 245 147 258zM105 8c26 -9 92 65 160 162c-17 35 -38 50 -79 17c-15 -12 -31 -29 -46 -48c-68 -91 -44 -128 -35 -131z" />
    <glyph glyph-name="uni0145" unicode="&#x145;" horiz-adv-x="663" 
d="M237 -202c-18 -25 -75 -28 -59 -3c22 37 44 76 69 111c20 28 77 17 64 -2c-25 -35 -61 -89 -74 -106zM98 -55c-25 -21 -86 34 -72 62c5 8 75 128 120 205c101 175 294 417 268 438c-31 26 -119 -65 -154 -116c-47 -66 -73 -117 -101 -193c-20 -53 -67 48 -38 127
c83 227 281 281 335 218c66 -79 4 -151 -26 -203c-27 -48 -138 -221 -195 -310c178 172 366 370 511 538c16 19 93 -29 81 -52c-86 -151 -183 -296 -267 -449c-31 -57 -129 -211 -75 -211c6 0 21 -3 75 50c72 70 132 136 185 220c22 35 53 -36 9 -104
c-84 -130 -202 -220 -265 -220c-98 0 -109 102 -75 187c36 91 84 178 136 263c-146 -159 -301 -318 -452 -450z" />
    <glyph glyph-name="uni021A" unicode="&#x21a;" horiz-adv-x="464" 
d="M119 -202c-18 -25 -75 -28 -59 -3c22 37 44 76 69 111c20 28 77 17 64 -2c-25 -35 -61 -89 -74 -106zM825 702c29 1 105 -83 65 -86c-104 -9 -201 -16 -300 -34c15 -8 23 -22 10 -44c-115 -187 -238 -393 -362 -596c-14 -25 -98 25 -84 48l353 574
c-50 -13 -101 -29 -154 -51c-238 -95 -294 -177 -280 -194c17 -18 195 104 224 126c29 24 48 -57 -25 -119c-29 -25 -156 -96 -237 -45c-69 43 -15 133 49 184c222 178 552 225 741 237z" />
    <glyph glyph-name="uni0162" unicode="&#x162;" horiz-adv-x="464" 
d="M334 -127c-4 -5 -8 -10 -17 -18c-36 -29 -91 -45 -127 6c-24 34 -18 64 -3 86c-22 12 -40 31 -33 43l353 574c-50 -13 -101 -29 -154 -51c-238 -95 -294 -177 -280 -194c17 -18 195 104 224 126c29 24 48 -57 -25 -119c-29 -25 -156 -96 -237 -45c-69 43 -15 133 49 184
c222 178 552 225 741 237c29 1 105 -83 65 -86c-104 -9 -201 -16 -300 -34c15 -8 23 -22 10 -44c-115 -187 -218 -364 -344 -566l-20 -32c-18 -29 -26 -46 -14 -58c23 -23 83 28 103 52c14 17 37 -24 9 -61z" />
    <glyph glyph-name="uni0163" unicode="&#x163;" horiz-adv-x="309" 
d="M278 -93c-4 -5 -8 -10 -17 -18c-36 -29 -91 -45 -127 6c-28 38 -23 76 -4 104c-22 1 -40 7 -50 17c-113 106 -43 190 21 281l44 60c-74 0 -72 68 -48 68c33 0 32 2 100 1l90 119c23 26 79 -38 68 -57c-6 -10 -24 -35 -47 -67c61 -2 122 -68 56 -68c-16 0 -67 -2 -107 -2
c-43 -58 -85 -117 -96 -131c-42 -58 -81 -142 -61 -160c28 -25 126 -20 256 158c13 18 65 -22 24 -81c-47 -68 -109 -108 -165 -126c-46 -36 -65 -79 -49 -95c23 -23 83 28 103 52c14 17 37 -24 9 -61z" />
    <glyph glyph-name="uni021B" unicode="&#x21b;" horiz-adv-x="309" 
d="M70 -202c-18 -25 -75 -28 -59 -3c22 37 44 76 69 111c20 28 77 17 64 -2c-25 -35 -61 -89 -74 -106zM308 421c61 -2 122 -68 56 -68c-16 0 -67 -2 -107 -2c-43 -58 -85 -117 -96 -131c-42 -58 -81 -142 -61 -160c28 -25 126 -20 256 158c13 18 65 -22 24 -81
c-97 -139 -258 -161 -300 -121c-113 106 -43 190 21 281c10 14 26 35 44 60c-74 0 -72 68 -48 68c33 0 32 2 100 1c44 59 87 115 90 119c23 26 79 -38 68 -57c-6 -10 -24 -35 -47 -67z" />
    <glyph glyph-name="fl" unicode="&#xfb02;" horiz-adv-x="579" 
d="M414 198c35 -4 -1 -71 -28 -73c-43 -3 -148 10 -198 10c126 -84 7 -311 -89 -380c-75 -54 -123 -24 -161 1c-16 11 -35 20 -47 51c-11 26 -8 74 6 115c14 51 51 125 98 207c-3 6 -6 12 -9 17c-9 17 18 30 42 39c112 186 260 395 315 462c23 30 61 3 72 -18
c11 -19 28 -55 -24 -126c-45 -62 -158 -212 -229 -299c80 5 206 -1 252 -6zM144 -33c23 53 38 129 3 141c-23 8 -47 -4 -68 -16c-64 -105 -139 -263 -103 -300c31 -33 117 59 168 175zM727 737c11 12 37 7 59 -25c19 -27 15 -59 2 -84c-14 -28 -133 -198 -259 -342
c-15 -19 -27 -34 -28 -36c-24 -36 -108 -155 -77 -191c36 -41 152 94 204 168c12 18 59 -30 22 -85c-93 -139 -197 -175 -252 -119c-14 14 -22 29 -27 44c-15 39 -18 90 3 132c45 87 286 470 353 538z" />
    <glyph glyph-name="fi" unicode="&#xfb01;" horiz-adv-x="577" 
d="M414 198c35 -4 -1 -71 -28 -73c-43 -3 -148 10 -198 10c126 -84 7 -311 -89 -380c-75 -54 -123 -24 -161 1c-16 11 -35 20 -47 51c-11 26 -8 74 6 115c14 51 51 125 98 207c-3 6 -6 12 -9 17c-9 17 18 30 42 39c112 186 260 395 315 462c23 30 61 3 72 -18
c11 -19 28 -55 -24 -126c-45 -62 -158 -212 -229 -299c80 5 206 -1 252 -6zM144 -33c23 53 38 129 3 141c-23 8 -47 -4 -68 -16c-64 -105 -139 -263 -103 -300c31 -33 117 59 168 175zM582 336c-18 -31 -62 -88 -83 -117c-41 -58 -78 -142 -59 -159c29 -24 142 95 194 169
c12 17 59 -30 22 -85c-93 -140 -192 -167 -235 -128c-113 104 -45 188 18 279c38 55 81 101 85 107c21 23 69 -46 58 -66zM697 581c24 -16 28 -54 8 -84c-20 -31 -56 -42 -80 -26c-25 15 -28 53 -8 83c19 31 55 42 80 27z" />
    <glyph glyph-name="uni0122" unicode="&#x122;" horiz-adv-x="667" 
d="M470 279c-94 -22 -168 -22 -223 -8c-49 -106 -59 -205 -19 -256c41 -53 155 -34 377 244c14 24 83 -50 61 -79c-77 -100 -183 -255 -294 -498c-11 -25 -90 31 -74 65c47 97 77 157 105 209c-91 -45 -184 -35 -262 82c-46 69 -27 182 14 284c-75 74 -65 200 -13 281
c66 103 184 97 152 70c-75 -66 -171 -207 -112 -293c16 31 32 58 49 82c86 118 255 260 402 254c83 -3 174 -56 139 -156c-45 -130 -166 -248 -302 -281zM479 561c-87 -68 -156 -153 -204 -236c82 -16 185 19 258 70c69 49 157 140 165 224c9 96 -158 -11 -219 -58z
M238 -227c-18 -25 -75 -28 -59 -3c22 37 44 76 69 111c20 28 77 17 64 -2c-25 -35 -61 -89 -74 -106z" />
    <glyph glyph-name="uni013C" unicode="&#x13c;" horiz-adv-x="239" 
d="M7 -202c-18 -25 -75 -28 -59 -3c22 37 44 76 69 111c20 28 77 17 64 -2c-25 -35 -61 -89 -74 -106zM392 737c11 12 37 7 59 -25c19 -27 15 -59 2 -84c-14 -28 -133 -198 -259 -342c-15 -19 -27 -34 -28 -36c-24 -36 -108 -155 -77 -191c36 -41 152 94 204 168
c12 18 59 -30 22 -85c-93 -139 -197 -175 -252 -119c-14 14 -22 29 -27 44c-15 39 -18 90 3 132c45 87 286 470 353 538z" />
    <glyph glyph-name="uni0219" unicode="&#x219;" horiz-adv-x="833" 
 />
    <glyph glyph-name="uni0146" unicode="&#x146;" horiz-adv-x="433" 
d="M59 -202c-18 -25 -75 -28 -59 -3c22 37 44 76 69 111c20 28 77 17 64 -2c-25 -35 -61 -89 -74 -106zM-48 57c22 42 199 339 222 373c19 28 82 -32 57 -81c-25 -50 -77 -139 -118 -207c102 98 217 215 286 289c19 23 104 -19 77 -56c-49 -68 -137 -190 -172 -262
c-14 -30 -27 -57 -17 -66c11 -10 115 55 205 186c14 21 57 -33 23 -85c-125 -186 -267 -179 -296 -83c-10 36 10 98 31 137l9 15c-86 -86 -184 -176 -230 -214c-18 -14 -92 25 -77 54z" />
    <glyph glyph-name="uni0137" unicode="&#x137;" horiz-adv-x="466" 
d="M54 -202c-18 -25 -75 -28 -59 -3c22 37 44 76 69 111c20 28 77 17 64 -2c-25 -35 -61 -89 -74 -106zM37 199c81 142 288 472 357 541c11 11 37 6 59 -26c20 -27 15 -59 2 -84c-14 -27 -122 -164 -238 -288c54 47 104 83 128 96c54 28 59 10 78 -11c4 -5 7 -9 9 -13
c28 -19 59 -56 30 -104c-28 -46 -118 -169 -238 -162c0 -44 27 -81 51 -92c22 -9 51 -6 114 33c50 32 93 82 140 152c11 15 67 -16 28 -78c-31 -50 -76 -109 -141 -138c-69 -31 -140 -38 -201 7c-42 31 -64 75 -72 120c-42 -54 -75 -107 -98 -140c-13 -19 -28 -10 -35 -5
c-63 49 15 172 27 192zM289 310c-32 -29 -65 -63 -89 -89c32 6 65 15 111 52c64 51 78 88 70 94c-6 5 -49 -19 -92 -57z" />
    <glyph glyph-name="kgreenlandic" unicode="&#x138;" horiz-adv-x="466" 
d="M37 199c81 142 288 472 357 541c11 11 37 6 59 -26c20 -27 15 -59 2 -84c-14 -27 -122 -164 -238 -288c54 47 104 83 128 96c54 28 59 10 78 -11c4 -5 7 -9 9 -13c28 -19 59 -56 30 -104c-28 -46 -118 -169 -238 -162c0 -44 27 -81 51 -92c22 -9 51 -6 114 33
c50 32 93 82 140 152c11 15 67 -16 28 -78c-31 -50 -76 -109 -141 -138c-69 -31 -140 -38 -201 7c-42 31 -64 75 -72 120c-42 -54 -75 -107 -98 -140c-13 -19 -28 -10 -35 -5c-63 49 15 172 27 192zM289 310c-32 -29 -65 -63 -89 -89c32 6 65 15 111 52c64 51 78 88 70 94
c-6 5 -49 -19 -92 -57z" />
    <glyph glyph-name="ogonek" unicode="&#x2db;" horiz-adv-x="833" 
d="M377 -103c-4 -5 -8 -10 -17 -18c-36 -29 -91 -45 -127 6c-46 64 -3 128 54 143c22 7 50 -10 35 -21c-51 -37 -74 -84 -57 -101c23 -23 83 28 103 52c14 17 37 -24 9 -61z" />
    <glyph glyph-name="cedilla" unicode="&#xb8;" horiz-adv-x="833" 
d="M510 -55c32 -67 -53 -104 -104 -101c-47 2 -63 47 -40 46c31 -1 112 12 107 44c-4 20 -42 4 -47 2c-15 -7 -68 18 -61 39c7 18 21 45 28 69c5 16 70 -14 64 -37c-3 -11 -7 -21 -11 -31c27 5 53 -9 64 -31z" />
    <glyph glyph-name="uni0157" unicode="&#x157;" horiz-adv-x="393" 
d="M88 -202c-18 -25 -75 -28 -59 -3c22 37 44 76 69 111c20 28 77 17 64 -2c-25 -35 -61 -89 -74 -106zM447 228c12 18 60 -30 24 -85c-93 -140 -220 -167 -273 -127c-80 62 5 200 71 300c-20 2 -41 9 -61 27c-33 -61 -104 -164 -135 -205c-13 -18 -91 -3 -64 30
c85 104 111 173 129 217c-13 14 -20 30 -14 53c21 82 89 142 121 132c40 -12 52 -59 28 -127c-4 -12 -11 -30 -32 -67c26 -8 63 16 99 42c3 3 6 3 9 3c7 0 13 -4 18 -10c36 -35 38 -80 32 -90c-24 -35 -191 -233 -165 -274s166 104 213 181z" />
    <glyph glyph-name="uni0123" unicode="&#x123;" horiz-adv-x="426" 
d="M480 226c12 18 59 -30 22 -85c-34 -50 -66 -84 -104 -110c-50 -33 -107 -58 -179 -85c-50 -101 -109 -214 -155 -280c-37 -54 -76 -13 -88 4c-19 24 -6 75 22 130c41 79 89 148 175 196c5 10 9 20 13 29c-43 -32 -88 -40 -135 7c-25 25 -36 50 -37 79
c-1 47 27 103 74 174c40 61 96 110 139 132c14 7 26 11 37 11c18 1 35 -7 55 -22c21 -16 54 -29 50 -59c21 -11 40 -30 34 -44c-9 -18 -38 -69 -65 -118c-15 -30 -34 -66 -52 -103c-7 -14 -15 -30 -23 -47c11 5 22 9 32 15c24 11 69 39 95 66c33 35 66 77 90 110zM300 352
c-12 9 -79 -28 -156 -141c-38 -57 -78 -127 -74 -148c0 -2 0 -3 1 -4c9 -11 58 12 156 135l38 58c24 40 47 90 35 100zM418 451c-18 -25 -75 -28 -59 -3c22 37 44 76 69 111c20 28 77 17 64 -2c-25 -35 -61 -89 -74 -106z" />
    <glyph glyph-name="longs" unicode="&#x17f;" horiz-adv-x="340" 
d="M414 198c35 -4 -1 -71 -28 -73c-43 -3 -148 10 -198 10c126 -84 7 -311 -89 -380c-75 -54 -123 -24 -161 1c-16 11 -35 20 -47 51c-11 26 -8 74 6 115c14 51 51 125 98 207c-3 6 -6 12 -9 17c-9 17 18 30 42 39c112 186 260 395 315 462c23 30 61 3 72 -18
c11 -19 28 -55 -24 -126c-45 -62 -158 -212 -229 -299c80 5 206 -1 252 -6zM144 -33c23 53 38 129 3 141c-23 8 -47 -4 -68 -16c-64 -105 -139 -263 -103 -300c31 -33 117 59 168 175z" />
    <glyph glyph-name="a" unicode="a" horiz-adv-x="430" 
d="M483 226c12 19 59 -30 22 -85c-93 -140 -186 -163 -233 -129c-22 16 -30 38 -31 63c-57 -66 -122 -110 -188 -44c-65 66 -39 139 37 254c40 61 97 111 140 133c36 18 60 13 92 -12c19 -14 49 -26 50 -53c27 -10 55 -40 46 -53c-9 -12 -41 -52 -71 -100
c-35 -54 -76 -129 -47 -149c26 -18 131 101 183 175zM73 58c9 -12 59 12 159 137l18 26c27 42 68 117 53 131c-17 14 -93 -48 -156 -141c-42 -61 -85 -138 -74 -153z" />
    <glyph glyph-name="b" unicode="b" horiz-adv-x="402" 
d="M452 713c19 -27 15 -59 2 -84c-12 -23 -98 -137 -193 -246c56 35 84 33 127 0c78 -60 19 -184 -46 -264c-107 -130 -229 -141 -277 -94c-68 67 -38 148 -25 175c27 56 75 137 93 166v1s1 0 1 1c24 38 206 314 259 370c10 12 36 7 59 -25zM340 368
c-14 11 -63 -18 -136 -100c-11 -12 -18 -10 -23 0c-64 -101 -106 -188 -85 -216c20 -26 113 58 163 119c62 77 109 177 81 197z" />
    <glyph glyph-name="c" unicode="c" horiz-adv-x="357" 
d="M290 203c-14 -15 -61 43 -34 90c30 53 36 70 32 74c-8 8 -56 -27 -118 -111c-65 -90 -83 -173 -50 -196c51 -35 194 25 299 181c11 15 62 -25 24 -85c-65 -103 -237 -208 -360 -128c-32 20 -59 45 -59 104c0 108 131 294 221 318c15 5 36 2 47 -9c69 -66 81 -88 57 -150
c-14 -32 -28 -57 -59 -88z" />
    <glyph glyph-name="uhungarumlaut" unicode="&#x171;" 
d="M411 528c18 20 69 73 98 112c19 25 45 -38 24 -67c-23 -38 -81 -84 -114 -101c-21 -12 -26 37 -8 56zM286 528c18 20 69 73 98 112c19 25 45 -38 24 -67c-23 -38 -81 -84 -114 -101c-21 -12 -26 37 -8 56zM384 252c-24 -36 -119 -173 -79 -201c27 -19 131 100 182 174
c13 18 60 -30 23 -85c-93 -139 -186 -162 -233 -128c-22 16 -35 35 -43 57c-58 -60 -125 -99 -185 -42c-60 55 -34 150 43 263c54 81 78 110 97 128c30 28 85 -35 70 -58l-108 -148c-42 -60 -84 -137 -73 -152c9 -12 59 12 159 137l153 222c27 19 89 -35 76 -53
c-5 -7 -44 -57 -82 -114z" />
    <glyph glyph-name="Uhungarumlaut" unicode="&#x170;" horiz-adv-x="606" 
d="M617 787c18 20 69 73 98 112c19 25 45 -38 24 -67c-23 -38 -81 -84 -114 -101c-21 -12 -26 37 -8 56zM492 787c18 20 69 73 98 112c19 25 45 -38 24 -67c-23 -38 -81 -84 -114 -101c-21 -12 -26 37 -8 56zM754 618c-69 -142 -143 -254 -231 -373c-7 -11 -13 -23 -20 -35
c-31 -57 -129 -211 -74 -211c5 0 20 -3 75 49c71 71 131 136 184 221c22 34 54 -37 10 -105c-84 -130 -202 -219 -266 -219c-61 0 -88 39 -92 89c-16 -17 -31 -31 -40 -39c-63 -51 -183 -107 -258 21c-36 61 -1 138 31 196c98 177 296 411 268 438
c-29 28 -119 -65 -155 -117c-46 -66 -72 -117 -101 -193c-19 -52 -66 49 -37 127c82 228 276 293 333 212c60 -84 14 -149 -16 -201c-37 -65 -192 -287 -192 -287c-26 -45 -103 -151 -63 -188c34 -32 193 81 352 341c3 4 6 8 8 12c70 119 150 233 215 352
c16 28 92 -43 69 -90z" />
    <glyph glyph-name="Ohungarumlaut" unicode="&#x150;" horiz-adv-x="600" 
d="M524 810c18 20 69 73 98 112c19 25 45 -38 24 -67c-23 -38 -81 -84 -114 -101c-21 -12 -26 37 -8 56zM399 810c18 20 69 73 98 112c19 25 45 -38 24 -67c-23 -38 -81 -84 -114 -101c-21 -12 -26 37 -8 56zM683 268c20 33 60 -32 10 -105c-89 -132 -217 -187 -336 -182
c-86 -50 -182 -63 -270 -12c-77 44 -77 141 -39 241c-8 23 -14 48 -18 74c-15 115 22 195 70 266c90 133 318 284 482 93c128 -148 35 -427 -127 -586c78 32 159 101 228 211zM120 11c19 -13 55 -14 101 4c-50 24 -94 60 -127 106c-12 -58 5 -94 26 -110zM282 46
c54 35 114 90 170 171c116 167 132 348 88 400c-57 68 -175 45 -252 -11c-80 -58 -163 -168 -175 -272c44 65 99 122 150 151c52 31 105 5 89 -10c-82 -72 -140 -137 -181 -195c-17 -23 -31 -46 -42 -66c28 -87 84 -145 153 -168z" />
    <glyph glyph-name="ohungarumlaut" unicode="&#x151;" horiz-adv-x="419" 
d="M411 528c18 20 69 73 98 112c19 25 45 -38 24 -67c-23 -38 -81 -84 -114 -101c-21 -12 -26 37 -8 56zM286 528c18 20 69 73 98 112c19 25 45 -38 24 -67c-23 -38 -81 -84 -114 -101c-21 -12 -26 37 -8 56zM479 236c8 14 62 -25 23 -86c-36 -54 -127 -127 -190 -51
c-23 -32 -50 -63 -75 -79c-77 -52 -132 -17 -149 -3c-17 13 -69 36 -64 103c11 132 105 237 150 277c46 40 80 43 117 22c107 -61 108 -119 73 -225c-4 -10 -9 -22 -16 -35c4 -11 9 -21 16 -24c21 -8 63 18 115 101zM117 55c27 -21 103 72 136 122c4 6 8 13 13 21
c-14 40 -27 94 -20 135c-25 -20 -55 -52 -85 -101c-41 -65 -68 -159 -44 -177z" />
    <glyph glyph-name="OE" unicode="&#x152;" horiz-adv-x="1083" 
d="M877 303c32 -6 15 -93 -15 -101c-223 -62 -242 -147 -211 -187c44 -55 184 -49 340 65c60 43 120 105 173 189c22 35 56 -32 13 -101c-96 -155 -392 -426 -613 -130l-9 15c-107 -103 -242 -155 -364 -84c-78 44 -77 141 -40 240c-8 23 -14 48 -17 74
c-16 115 22 195 70 266c90 133 318 284 482 93c20 -23 35 -50 45 -80c103 124 302 203 435 89c77 -66 21 -174 -82 -223c-47 -23 -144 -2 -105 26c135 94 150 144 137 175c-11 25 -91 23 -192 -34c-143 -81 -275 -249 -47 -292zM741 257c-12 10 -23 19 -32 29
c-6 -16 -13 -31 -21 -47c18 7 36 14 53 18zM215 12c55 -52 230 56 295 140c84 111 186 258 159 404c-25 140 -183 118 -278 49c-79 -58 -162 -168 -174 -271c44 65 99 121 149 151c53 30 105 4 89 -10c-301 -268 -279 -427 -240 -463z" />
    <glyph glyph-name="Ldot" unicode="&#x13f;" horiz-adv-x="674" 
d="M639 296c27 -17 31 -59 9 -92c-22 -34 -61 -47 -88 -29c-27 17 -31 59 -9 92c21 34 61 46 88 29zM779 300c22 35 54 -37 10 -105c-120 -186 -378 -327 -484 -135c-36 -49 -80 -94 -141 -107c-70 -14 -145 50 -141 115c5 83 72 186 157 224c56 25 100 5 138 -42
c15 25 30 50 44 76c-16 8 -31 18 -47 31c-93 77 -94 172 -49 269c41 88 182 92 144 55c-60 -60 -113 -145 -88 -235c13 -47 36 -67 64 -74c17 35 33 70 48 106c36 88 80 234 174 253c37 7 96 -37 112 -65c39 -73 -22 -194 -68 -247c-54 -62 -121 -107 -191 -113
c-28 -53 -60 -105 -94 -156c27 -106 40 -130 75 -130c32 0 97 26 169 88c69 59 115 108 168 192zM652 655c-30 15 -109 -171 -147 -258c113 67 172 245 147 258zM105 8c26 -9 92 65 160 162c-17 35 -38 50 -79 17c-15 -12 -31 -29 -46 -48c-68 -91 -44 -128 -35 -131z" />
    <glyph glyph-name="ldot" unicode="&#x140;" horiz-adv-x="357" 
d="M418 403c27 -17 31 -59 9 -92c-22 -34 -61 -47 -88 -29c-27 17 -31 59 -9 92c21 34 61 46 88 29zM387 737c11 12 37 7 59 -25c19 -27 15 -59 2 -84c-14 -28 -133 -198 -259 -342c-15 -19 -27 -34 -28 -36c-24 -36 -108 -155 -77 -191c36 -41 152 94 204 168
c12 18 59 -30 22 -85c-93 -139 -197 -175 -252 -119c-14 14 -22 29 -27 44c-15 39 -18 90 3 132c45 87 286 470 353 538z" />
    <glyph glyph-name="uni2219" unicode="&#x2219;" horiz-adv-x="335" 
d="M259 366c27 -17 31 -58 9 -92c-21 -33 -61 -46 -88 -29s-31 59 -9 92c22 34 61 47 88 29z" />
    <glyph glyph-name="Lslash" unicode="&#x141;" horiz-adv-x="674" 
d="M779 300c22 35 54 -37 10 -105c-120 -186 -379 -328 -485 -136c-37 -49 -80 -94 -142 -106c-69 -15 -145 49 -141 114c5 84 72 187 158 225c55 25 100 5 137 -42c15 23 28 47 41 70l-6 -1c-39 -10 -112 53 -79 62c29 8 80 19 131 30c10 22 20 45 30 68
c36 88 80 235 174 253c38 8 100 -35 113 -65c17 -39 13 -106 -24 -170c-22 -37 -119 -67 -94 -17c59 123 63 169 49 176c-26 13 -89 -128 -131 -222c5 1 10 2 14 3c43 7 116 -59 79 -62l-132 -28c-34 -69 -73 -134 -115 -197c27 -107 40 -131 75 -131c32 0 98 27 169 88
c70 60 116 109 169 193zM104 7c25 -9 92 66 159 163c-16 35 -37 50 -78 17c-16 -12 -32 -29 -46 -48c-69 -91 -45 -128 -35 -132z" />
    <glyph glyph-name="lslash" unicode="&#x142;" horiz-adv-x="239" 
d="M392 737c11 12 37 7 59 -25c19 -27 15 -59 2 -84c-12 -24 -96 -145 -196 -268c38 -14 76 -55 48 -57l-118 -26l-21 -27c-24 -36 -108 -155 -77 -191c36 -41 152 94 204 168c12 18 59 -30 22 -85c-93 -139 -197 -175 -252 -119c-14 14 -22 29 -27 44c-15 39 -18 90 3 132
l29 53c-19 6 -71 47 -44 66c13 9 40 15 101 27c91 147 220 345 267 392z" />
    <glyph glyph-name="germandbls" unicode="&#xdf;" horiz-adv-x="462" 
d="M559 662c82 -96 -23 -203 -147 -262c106 -71 76 -232 -41 -341c-58 -54 -139 -83 -209 -37c-80 53 -53 126 8 173c58 45 151 27 109 0c-59 -39 -115 -116 -102 -132c21 -25 123 44 165 109c35 54 76 127 57 175c-13 32 -57 28 -95 21c-8 -2 -21 12 -30 27
c-123 -184 -266 -397 -352 -526c-16 -24 -77 46 -54 82c111 171 385 582 385 582c62 95 197 257 306 129zM306 443c177 62 228 176 201 197c-26 21 -109 -58 -163 -138c-24 -35 -10 -18 -38 -59z" />
    <glyph glyph-name="Thorn" unicode="&#xde;" horiz-adv-x="662" 
d="M564 695c114 -52 202 -168 182 -290c-19 -110 -138 -337 -551 -310c-26 -45 -74 -124 -87 -144c-17 -27 -97 25 -84 49c20 35 145 239 176 283c-114 77 -134 169 -97 252c73 157 235 200 360 188c3 0 6 -1 9 -1c61 99 111 180 116 188c19 31 82 -48 62 -79
c-17 -25 -47 -75 -86 -136zM309 623c-74 -45 -221 -207 -87 -304c29 45 126 203 214 344c-45 -3 -90 -18 -127 -40zM229 149c258 5 458 196 430 368c-13 74 -61 117 -120 136c-112 -181 -267 -433 -310 -504z" />
    <glyph glyph-name="thorn" unicode="&#xfe;" horiz-adv-x="379" 
d="M199 437c93 136 175 255 187 271c18 25 70 -43 50 -74c-17 -27 -71 -106 -137 -203c24 -2 43 -10 60 -21c48 -32 102 -70 -13 -248c-35 -55 -161 -184 -248 -158c-26 7 -43 23 -53 42c-67 -110 -162 -265 -230 -345c-41 -49 -63 8 -64 29c-2 26 64 153 97 205
c13 21 36 54 64 91zM328 382c-25 18 -117 -83 -165 -154c-61 -88 -86 -154 -69 -166c63 -43 278 288 234 320z" />
    <glyph glyph-name="Dcroat" unicode="&#x110;" horiz-adv-x="643" 
d="M361 727c266 0 424 -254 292 -493c-104 -189 -317 -301 -522 -253c-66 16 -130 85 -101 131l34 53c-39 9 -85 70 -55 73c24 2 63 5 105 7l17 28c-109 71 -142 166 -99 257c63 135 209 197 329 197zM590 366c27 124 -3 297 -177 298c-61 1 -126 -18 -176 -49
c-86 -51 -218 -223 -84 -306c53 88 106 178 159 267c22 36 83 -40 61 -79l-145 -247c18 1 35 1 48 1c43 1 105 -75 69 -73l-165 -9l-73 -125c141 -30 298 41 389 150c41 50 80 108 94 172z" />
    <glyph glyph-name="Eth" unicode="&#xd0;" horiz-adv-x="643" 
d="M361 727c266 0 424 -254 292 -493c-104 -189 -317 -301 -522 -253c-66 16 -130 85 -101 131l34 53c-39 9 -85 70 -55 73c24 2 63 5 105 7l17 28c-109 71 -142 166 -99 257c63 135 209 197 329 197zM590 366c27 124 -3 297 -177 298c-61 1 -126 -18 -176 -49
c-86 -51 -218 -223 -84 -306c53 88 106 178 159 267c22 36 83 -40 61 -79l-145 -247c18 1 35 1 48 1c43 1 105 -75 69 -73l-165 -9l-73 -125c141 -30 298 41 389 150c41 50 80 108 94 172z" />
    <glyph glyph-name="eth" unicode="&#xf0;" horiz-adv-x="382" 
d="M326 499l-17 -2c-40 -5 -97 55 -63 59c23 3 46 6 69 8c-13 54 -33 106 -59 156c-15 27 70 19 86 -11c24 -45 43 -92 55 -139c10 0 21 1 31 1c43 2 100 -59 63 -58l-82 -7c12 -88 4 -209 -43 -312c-21 -47 -77 -140 -129 -175c-78 -51 -132 -16 -149 -3
c-17 14 -74 37 -64 104c6 132 102 239 176 269s127 -20 102 -32c-21 -9 -89 -39 -142 -125c-40 -65 -68 -159 -44 -177c28 -22 111 73 145 139c52 98 79 184 65 305z" />
    <glyph glyph-name="divide" unicode="&#xf7;" horiz-adv-x="540" 
d="M193 182c-45 -4 -108 62 -70 66c84 9 255 16 319 16c49 0 112 -66 71 -66c-77 -1 -256 -11 -320 -16zM367 390c20 -13 23 -44 7 -69c-17 -25 -46 -34 -66 -21c-21 13 -24 44 -7 69c16 25 45 34 66 21zM309 150c20 -13 23 -44 7 -69c-17 -25 -46 -34 -66 -21
c-21 13 -24 44 -7 69c16 25 45 34 66 21z" />
    <glyph glyph-name="dcroat" unicode="&#x111;" horiz-adv-x="450" 
d="M402 281c0 0 -12 -14 -23 -30c-24 -35 -108 -154 -76 -191c36 -41 152 95 204 169c12 18 59 -30 22 -85c-93 -140 -197 -175 -253 -120c-17 18 -27 38 -30 58c-58 -69 -125 -118 -193 -50c-65 65 -39 138 37 253c40 61 96 110 140 132c35 18 59 14 91 -11
c11 -8 24 -15 34 -24l54 81c-41 9 -87 60 -54 65c35 4 70 8 105 11c57 83 119 171 146 200c11 12 37 7 59 -25c20 -27 15 -59 2 -84c-6 -12 -30 -49 -65 -98c33 -19 57 -54 28 -53l-72 -6c-46 -60 -100 -129 -156 -192zM234 199c80 104 76 146 68 153
c-17 14 -92 -49 -156 -141c-41 -61 -84 -138 -73 -152c9 -12 63 10 161 140z" />
    <glyph glyph-name="hbar" unicode="&#x127;" 
d="M494 233c14 21 57 -33 23 -84c-125 -186 -266 -180 -295 -84c-11 37 10 98 31 137c2 5 5 10 8 15c-83 -82 -179 -164 -221 -208c-8 -7 -15 -11 -27 -8c-28 7 -69 37 -59 56c13 25 83 138 138 236c14 25 56 92 106 168c-33 18 -60 54 -33 58c26 3 51 6 77 9
c60 89 121 177 153 211c11 12 37 7 60 -25c19 -27 14 -59 2 -84c-6 -12 -30 -48 -66 -97c43 -14 84 -64 49 -63l-102 -9c-43 -57 -95 -122 -148 -181c-32 -54 -62 -105 -86 -148c105 99 226 221 298 299c6 7 13 6 17 7c21 0 83 -28 59 -63c-47 -69 -137 -189 -171 -262
c-14 -30 -27 -57 -17 -66c10 -10 114 55 204 186z" />
    <glyph glyph-name="Hbar" unicode="&#x126;" horiz-adv-x="952" 
d="M755 709c21 13 95 -29 77 -59c-47 -81 -107 -182 -166 -281c65 2 131 3 181 3c67 111 133 221 200 334c15 24 89 -40 62 -86l-153 -253c41 -16 77 -60 44 -60c-16 0 -46 -1 -82 -1l-131 -219c108 -1 171 67 238 168c16 25 59 -34 15 -96c-97 -136 -200 -163 -297 -145
l-41 -68c-14 -24 -94 32 -74 65c6 11 13 22 20 33c-49 22 -94 51 -135 78c-231 -332 -464 -177 -486 -103c-11 38 -5 82 32 127c91 111 229 135 362 92c14 -5 28 -10 41 -16l45 73c-6 -1 -12 -1 -16 -1c-45 -4 -108 62 -70 66c24 2 72 5 129 7c39 64 79 132 117 196l-16 -9
c-26 -16 -146 -77 -133 -120c5 -17 -67 -12 -80 35c-16 62 72 101 114 126c66 41 136 74 203 114zM117 -4c28 -34 187 2 313 178c-15 8 -29 15 -41 19c-84 24 -192 -21 -246 -96c-29 -39 -42 -82 -26 -101zM806 303l-183 -4l-76 -124c42 -26 85 -52 139 -69z" />
    <glyph glyph-name="Tbar" unicode="&#x166;" horiz-adv-x="464" 
d="M825 702c29 1 105 -83 65 -86c-104 -9 -201 -16 -300 -34c15 -8 23 -22 10 -44c-54 -87 -109 -178 -165 -271c42 -14 73 -71 37 -67l-78 -1l-156 -257c-14 -25 -98 25 -84 48l128 208c-45 -1 -102 69 -63 71c37 2 73 3 109 3l179 292c-50 -13 -101 -29 -154 -51
c-238 -95 -294 -177 -280 -194c17 -18 195 104 224 126c29 24 48 -57 -25 -119c-29 -25 -156 -96 -237 -45c-69 43 -15 133 49 184c222 178 552 225 741 237z" />
    <glyph glyph-name="tbar" unicode="&#x167;" horiz-adv-x="309" 
d="M308 421c61 -2 122 -68 56 -68c-16 0 -67 -2 -107 -2l-45 -61h3c49 -1 107 -75 66 -71l-122 -1c-41 -58 -79 -140 -59 -158c28 -25 126 -20 256 158c13 18 65 -22 24 -81c-97 -139 -258 -161 -300 -121c-81 76 -68 141 -30 206c-38 16 -71 64 -39 66l86 3c1 2 2 4 4 6
l44 60c-74 0 -72 68 -48 68c33 0 32 2 100 1l90 119c23 26 79 -38 68 -57c-6 -10 -24 -35 -47 -67z" />
    <glyph glyph-name="hungarumlaut" unicode="&#x2dd;" horiz-adv-x="1666" 
d="M411 528c18 20 69 73 98 112c19 25 45 -38 24 -67c-23 -38 -81 -84 -114 -101c-21 -12 -26 37 -8 56zM286 528c18 20 69 73 98 112c19 25 45 -38 24 -67c-23 -38 -81 -84 -114 -101c-21 -12 -26 37 -8 56z" />
    <glyph glyph-name="dagger" unicode="&#x2020;" horiz-adv-x="552" 
d="M349 346c-45 -7 -109 61 -71 66c35 4 82 9 129 13c96 156 178 292 178 292c17 22 79 -38 57 -76c-32 -58 -75 -131 -122 -210c3 0 7 1 10 1c49 2 112 -67 71 -66l-127 -10c-96 -157 -201 -325 -271 -441c-14 -24 -79 48 -56 84c46 74 130 212 213 348z" />
    <glyph glyph-name="daggerdbl" unicode="&#x2021;" horiz-adv-x="559" 
d="M349 346c-45 -7 -109 61 -71 66c35 4 82 9 129 13c96 156 178 292 178 292c17 22 79 -38 57 -76c-32 -58 -75 -131 -122 -210c3 0 7 1 10 1c49 2 112 -67 71 -66l-127 -10l-72 -116h9c49 2 112 -67 71 -66l-126 -10l-153 -249c-14 -24 -79 48 -56 84c24 38 58 93 96 156
l-13 -1c-45 -7 -109 61 -71 66c36 4 83 9 131 13l70 114z" />
    <glyph glyph-name="guilsinglleft" unicode="&#x2039;" horiz-adv-x="365" 
d="M144 273c42 20 176 59 216 67c13 2 5 -55 -21 -63c-52 -14 -100 -28 -132 -38c26 -15 51 -32 66 -45c13 -12 15 -69 -4 -56c-56 35 -100 61 -123 78c-16 12 -17 50 -2 57z" />
    <glyph glyph-name="guilsinglright" unicode="&#x203a;" horiz-adv-x="389" 
d="M356 203c-42 -20 -176 -60 -216 -67c-13 -2 -5 55 21 62c51 15 99 28 132 39c-26 15 -51 32 -66 45c-13 12 -15 68 4 56c56 -35 100 -61 123 -79c16 -12 17 -49 2 -56z" />
    <glyph glyph-name="guillemotright" unicode="&#xbb;" horiz-adv-x="477" 
d="M326 256c11 -18 7 -53 -4 -61c-28 -20 -135 -84 -168 -105c-19 -12 -15 47 -2 59s99 75 116 87c-7 11 -20 35 -38 65c-14 23 15 75 28 59c14 -17 47 -69 68 -104zM460 256c11 -18 7 -53 -4 -61c-28 -20 -135 -84 -168 -105c-19 -12 -15 47 -2 59s99 75 116 87
c-7 11 -20 35 -38 65c-14 23 15 75 28 59c14 -17 47 -69 68 -104z" />
    <glyph glyph-name="guillemotleft" unicode="&#xab;" horiz-adv-x="452" 
d="M280 198c-11 18 -7 53 4 61c28 20 135 84 168 105c19 12 15 -47 2 -59s-99 -75 -116 -87c7 -11 20 -35 38 -65c14 -23 -15 -75 -28 -59c-14 17 -47 69 -68 104zM146 198c-11 18 -7 53 4 61c28 20 135 84 168 105c19 12 15 -47 2 -59s-99 -75 -116 -87
c7 -11 20 -35 38 -65c14 -23 -15 -75 -28 -59c-14 17 -47 69 -68 104z" />
    <glyph glyph-name="ordfeminine" unicode="&#xaa;" horiz-adv-x="491" 
d="M434 577c8 11 37 -20 13 -54c-58 -88 -117 -103 -147 -82c-13 10 -18 24 -19 40c-36 -42 -78 -70 -119 -28s-24 88 24 161c25 38 60 70 88 83c22 12 38 9 58 -7c12 -8 31 -16 31 -33c18 -7 35 -25 30 -34c-6 -7 -26 -33 -46 -63c-21 -34 -48 -81 -29 -94
c17 -12 82 64 116 111zM175 470c6 -7 37 8 100 87l12 16c16 27 43 74 33 83c-11 9 -59 -30 -99 -89c-26 -38 -53 -87 -46 -97zM186 341c-40 -4 -91 57 -57 60c61 6 151 9 212 9c44 1 94 -61 58 -59z" />
    <glyph glyph-name="onesuperior" unicode="&#xb9;" horiz-adv-x="397" 
d="M352 697c-46 -73 -117 -193 -162 -266c-5 -9 -36 9 -31 18l114 186c-12 -9 -23 -18 -35 -28c-8 -6 -38 14 -28 21c37 30 75 58 112 88c7 6 34 -11 30 -19z" />
    <glyph glyph-name="twosuperior" unicode="&#xb2;" horiz-adv-x="499" 
d="M430 602c-28 -45 -66 -78 -101 -105c-6 -5 -13 -12 -21 -19c1 -3 2 -6 4 -9c16 -37 34 -12 72 33c9 12 24 -19 15 -32c-26 -41 -84 -57 -110 -9c-1 0 -1 1 -1 1c-22 -19 -48 -35 -69 -32c-28 4 -46 34 -30 59c19 33 65 47 90 25c2 -1 4 -2 5 -3c14 11 30 23 45 36
c75 66 107 143 85 159c-17 12 -53 -19 -69 -39c-27 -32 -39 -68 -37 -111c0 -14 -33 4 -35 26c-4 52 22 106 67 133c29 17 70 29 95 -2c26 -32 19 -74 -5 -111zM242 477c8 5 15 12 22 17c-8 5 -18 6 -32 -4c-22 -15 -25 -27 -23 -30c4 -5 22 9 33 17z" />
    <glyph glyph-name="threesuperior" unicode="&#xb3;" horiz-adv-x="459" 
d="M316 592c-16 -5 -42 22 -30 25c92 32 123 91 110 107c-13 15 -64 -7 -81 -54c-3 -10 -37 15 -27 33c28 52 117 75 141 8c7 -19 5 -36 -12 -55c-23 -25 -45 -36 -64 -44c23 -7 37 -25 45 -53c6 -26 -5 -60 -46 -94c-36 -31 -96 -45 -145 -18c-12 7 -21 18 -22 33
c-4 47 39 79 78 87c26 6 48 -17 40 -19c-76 -21 -91 -76 -82 -87c12 -13 61 2 98 30c34 27 56 66 38 93c-6 9 -19 13 -41 8z" />
    <glyph glyph-name="onequarter" unicode="&#xbc;" horiz-adv-x="700" 
d="M439 706c-60 -94 -152 -250 -210 -344c-6 -12 -47 11 -40 23l148 241c-16 -12 -30 -23 -46 -36c-10 -8 -50 18 -37 27c49 39 98 75 146 114c9 8 44 -14 39 -25zM456 76c-13 -1 -46 26 -39 33c83 84 148 173 220 262c9 11 46 -14 40 -23c-64 -81 -127 -164 -198 -238
c39 6 77 17 114 27l74 118c7 11 39 -21 23 -47c-17 -28 -30 -47 -40 -64c14 -8 30 -23 17 -26c-12 -1 -24 -5 -36 -7c-17 -29 -33 -56 -64 -105c-6 -11 -47 12 -39 23l40 65c-37 -8 -75 -15 -112 -18zM645 723c13 18 44 -40 33 -55c-41 -52 -423 -614 -465 -670
c-18 -24 -41 37 -32 55c13 25 442 644 464 670z" />
    <glyph glyph-name="onehalf" unicode="&#xbd;" horiz-adv-x="775" 
d="M439 706c-60 -94 -152 -250 -210 -344c-6 -12 -47 11 -40 23l148 241c-16 -12 -30 -23 -46 -36c-10 -8 -50 18 -37 27c49 39 98 75 146 114c9 8 44 -14 39 -25zM645 723c13 18 44 -40 33 -55c-41 -52 -423 -614 -465 -670c-18 -24 -41 37 -32 55c13 25 442 644 464 670z
M750 206c-37 -59 -88 -101 -133 -138c-7 -6 -17 -14 -28 -24c2 -3 4 -7 6 -12c21 -48 45 -14 93 44c13 15 32 -25 21 -42c-35 -54 -111 -74 -145 -12c-1 0 -1 1 -1 1c-29 -24 -63 -45 -91 -41c-36 6 -59 43 -39 77c26 42 85 62 119 33l5 -5c19 14 40 31 59 48
c99 86 141 186 112 207c-22 15 -69 -25 -91 -51c-35 -42 -50 -88 -47 -145c0 -18 -44 6 -46 35c-5 67 29 137 88 173c37 23 91 38 123 -3c34 -42 25 -96 -5 -145zM503 43c10 8 20 15 29 23c-11 6 -24 7 -43 -5c-28 -21 -32 -36 -29 -40c5 -7 29 12 43 22z" />
    <glyph glyph-name="threequarters" unicode="&#xbe;" horiz-adv-x="735" 
d="M499 76c-13 -1 -46 26 -39 33c83 84 148 173 220 262c9 11 46 -14 40 -23c-64 -81 -127 -164 -198 -238c39 6 77 17 114 27l74 118c7 11 39 -21 23 -47c-17 -28 -30 -47 -40 -64c14 -8 30 -23 17 -26c-12 -1 -24 -5 -36 -7c-17 -29 -33 -56 -64 -105
c-6 -11 -47 12 -39 23l40 65c-37 -8 -75 -15 -112 -18zM688 723c13 18 44 -40 33 -55c-41 -52 -423 -614 -465 -670c-18 -24 -41 37 -32 55c13 25 442 644 464 670zM290 543c-20 -4 -50 26 -36 31c109 37 145 107 130 125c-16 19 -76 -8 -96 -63c-3 -12 -43 17 -31 39
c33 60 137 88 166 9c8 -22 5 -41 -15 -65c-26 -29 -52 -42 -75 -53c27 -7 44 -28 53 -61c7 -30 -6 -71 -54 -112c-43 -36 -113 -52 -171 -19c-14 7 -25 20 -26 37c-5 56 46 94 92 103c31 7 57 -20 47 -22c-90 -25 -108 -89 -96 -103c13 -15 72 2 115 36c40 32 67 78 46 109
c-8 10 -24 15 -49 9z" />
    <glyph glyph-name="paragraph" unicode="&#xb6;" horiz-adv-x="677" 
d="M757 661c13 23 80 -37 56 -81c-7 -13 -14 -25 -21 -37c4 -10 8 -19 11 -29c11 -30 -20 -52 -31 -32c-2 4 -5 9 -7 13c-110 -191 -220 -363 -348 -554c-15 -22 -91 35 -70 65c46 67 91 134 135 202c-18 -2 -34 -2 -50 -2c-52 -81 -106 -164 -171 -262
c-15 -22 -92 35 -70 66c48 70 96 141 142 213c-89 44 -187 188 -103 334c119 208 373 200 505 66c8 13 15 25 22 38zM520 266c65 102 127 205 188 309c-145 154 -326 55 -382 -53c-43 -84 -39 -198 42 -244c71 111 138 223 202 336c12 23 80 -37 56 -81
c-59 -104 -110 -190 -162 -274c17 1 36 3 56 7z" />
    <glyph glyph-name="mu" unicode="&#xb5;" 
d="M487 225c9 13 37 -9 37 -43c0 -13 -4 -27 -14 -42c-69 -103 -137 -142 -187 -142c-18 0 -34 5 -46 14c-22 16 -35 35 -43 57c-38 -39 -80 -70 -121 -70c-22 0 -43 8 -64 28l-5 4c-40 -70 -72 -134 -86 -168c-16 -39 -73 33 -56 72c51 116 156 329 251 442
c16 20 26 32 36 41c30 28 85 -35 70 -58l-108 -148c-2 -3 -5 -7 -7 -10c-15 -24 -30 -50 -46 -77c-17 -31 -26 -57 -20 -65c9 -12 59 12 159 137l153 222c27 19 89 -35 76 -53c-5 -7 -44 -57 -82 -114c-24 -36 -119 -173 -79 -201c27 -19 131 100 182 174z" />
    <glyph glyph-name="IJ" unicode="&#x132;" horiz-adv-x="1327" 
d="M875 680c5 -46 -47 -60 -82 -67c-10 -2 -29 -4 -54 -7c-42 -62 -81 -134 -109 -180c-39 -65 -79 -129 -118 -194c-52 -86 -102 -171 -176 -242c-77 -74 -153 -61 -241 -13c-140 78 -51 252 80 306c94 39 199 -1 130 -22c-200 -60 -229 -212 -185 -253
c36 -32 116 12 149 47c38 40 71 83 101 129c49 77 95 156 142 234c28 46 68 113 106 173c-91 -16 -170 -42 -110 -94c18 -15 -13 -25 -41 -17c-40 12 -86 56 -51 118c35 59 151 61 249 64l12 18c19 26 50 81 89 84c44 4 105 -38 109 -84zM1321 681c4 -46 -47 -60 -83 -67
c-9 -2 -29 -4 -53 -7c-28 -44 -52 -91 -76 -132c-29 -47 -157 -252 -242 -389c174 13 233 135 252 161c16 22 55 -37 22 -85c-95 -141 -205 -150 -320 -150c-11 -19 -21 -34 -26 -43c-52 -86 -102 -171 -176 -242c-77 -74 -153 -61 -241 -13c-101 54 -71 186 22 264
c107 91 235 105 355 107c89 143 204 330 235 382c25 41 49 83 74 125c-91 -15 -171 -42 -111 -94c18 -15 -13 -26 -41 -17c-40 11 -87 56 -51 118c34 59 151 61 249 64l12 18c19 27 51 82 89 85c44 3 105 -38 110 -85zM552 -208c38 40 71 83 101 129c11 17 30 48 55 87
c-89 -8 -169 -30 -224 -78c-63 -55 -84 -162 -59 -187c37 -37 94 14 127 49z" />
    <glyph glyph-name="ij" unicode="&#x133;" horiz-adv-x="455" 
d="M242 336c-18 -31 -62 -88 -83 -117c-41 -58 -78 -142 -59 -159c29 -24 142 95 194 169c12 17 59 -30 22 -85c-93 -140 -192 -167 -235 -128c-113 104 -45 188 18 279c38 55 81 101 85 107c21 23 69 -46 58 -66zM357 581c24 -16 28 -54 8 -84c-20 -31 -56 -42 -80 -26
c-25 15 -28 53 -8 83c19 31 55 42 80 27zM581 608c27 -17 31 -59 9 -92c-22 -34 -61 -47 -88 -29c-27 17 -31 59 -10 92c22 34 62 46 89 29zM509 226c13 18 59 -29 23 -84c-34 -51 -67 -85 -105 -110c-48 -33 -104 -57 -173 -84c-53 -102 -112 -213 -159 -281
c-37 -53 -76 -12 -88 4c-19 25 -6 75 22 130c26 50 55 96 94 136l278 484c25 32 100 -29 82 -60s-96 -154 -126 -210c-15 -27 -35 -67 -58 -113c9 4 18 8 26 12c24 12 69 39 95 67c33 34 66 76 89 109z" />
    <glyph glyph-name="radical" unicode="&#x221a;" horiz-adv-x="495" 
d="M174 -15c-19 199 -22 298 -44 300c-25 1 -33 -81 -33 -117c0 -28 -48 -5 -64 49c-25 85 26 196 133 134c42 -24 57 -67 66 -112c7 -39 12 -78 15 -118c98 165 282 478 358 609c29 50 90 -51 62 -96c-139 -223 -285 -468 -419 -693c-12 -19 -66 14 -74 44z" />
    <glyph glyph-name="fraction" unicode="&#x2044;" horiz-adv-x="425" 
d="M568 735c18 25 65 -55 49 -78c-55 -78 -433 -636 -489 -720c-23 -35 -61 51 -49 78c17 37 459 680 489 720z" />
    <glyph glyph-name="minus" unicode="&#x2212;" horiz-adv-x="445" 
d="M397 172l-204 -17c-45 -7 -109 61 -71 66c68 9 136 14 204 17c49 2 112 -67 71 -66z" />
    <glyph glyph-name="uni2215" unicode="&#x2215;" horiz-adv-x="425" 
d="M568 735c18 25 65 -55 49 -78c-55 -78 -433 -636 -489 -720c-23 -35 -61 51 -49 78c17 37 459 680 489 720z" />
    <glyph glyph-name="notequal" unicode="&#x2260;" horiz-adv-x="445" 
d="M397 126l-169 -14l-15 -19c-25 -37 -88 -38 -66 -9l20 28c-38 13 -75 59 -45 63c32 4 64 8 97 10l24 35l-50 -4c-44 -6 -108 61 -71 66c59 8 118 13 178 16l7 8c31 37 102 29 74 -1l-14 -18c34 -19 60 -55 30 -54l-79 -7l-28 -36l37 2c48 2 111 -67 70 -66z" />
    <glyph glyph-name="approxequal" unicode="&#x2248;" horiz-adv-x="367" 
d="M418 311c13 9 27 -30 -4 -56c-39 -29 -80 -37 -123 -10c-41 24 -83 65 -129 31c-43 -31 -15 42 4 55c41 30 84 40 131 13c36 -22 78 -66 121 -33zM369 195c13 9 27 -30 -4 -56c-39 -29 -80 -37 -123 -10c-41 24 -83 65 -129 31c-43 -31 -15 42 4 55c41 30 84 40 131 13
c36 -22 78 -66 121 -33z" />
    <glyph glyph-name="lessequal" unicode="&#x2264;" horiz-adv-x="331" 
d="M75 498c-10 18 -7 53 4 61c28 20 135 84 168 105c19 13 15 -47 2 -59s-99 -75 -116 -87c7 -11 21 -34 39 -65c13 -23 -16 -75 -29 -59c-14 18 -46 69 -68 104zM267 303l-151 -13c-34 -5 -81 45 -53 49c50 7 101 10 151 13c37 1 83 -50 53 -49z" />
    <glyph glyph-name="greaterequal" unicode="&#x2265;" horiz-adv-x="331" 
d="M256 559c11 -18 7 -53 -4 -61c-28 -20 -135 -84 -168 -105c-19 -12 -15 47 -2 59s99 75 116 87c-7 11 -20 35 -38 65c-14 23 15 75 28 59c14 -17 47 -69 68 -104zM267 303l-151 -13c-34 -5 -81 45 -53 49c50 7 101 10 151 13c37 1 83 -50 53 -49z" />
    <glyph glyph-name="infinity" unicode="&#x221e;" horiz-adv-x="833" 
 />
    <glyph glyph-name="f_f_l" unicode="&#xfb04;" horiz-adv-x="919" 
d="M414 198c35 -4 -1 -71 -28 -73c-43 -3 -148 10 -198 10c126 -84 7 -311 -89 -380c-75 -54 -123 -24 -161 1c-16 11 -35 20 -47 51c-11 26 -8 74 6 115c14 51 51 125 98 207c-3 6 -6 12 -9 17c-9 17 18 30 42 39c112 186 260 395 315 462c23 30 61 3 72 -18
c11 -19 28 -55 -24 -126c-45 -62 -158 -212 -229 -299c80 5 206 -1 252 -6zM144 -33c23 53 38 129 3 141c-23 8 -47 -4 -68 -16c-64 -105 -139 -263 -103 -300c31 -33 117 59 168 175zM754 198c35 -4 -1 -71 -28 -73c-43 -3 -148 10 -198 10c126 -84 7 -311 -89 -380
c-75 -54 -123 -24 -161 1c-16 11 -35 20 -47 51c-11 26 -8 74 6 115c14 51 51 125 98 207c-3 6 -6 12 -9 17c-9 17 18 30 42 39c112 186 260 395 315 462c23 30 61 3 72 -18c11 -19 28 -55 -24 -126c-45 -62 -158 -212 -229 -299c80 5 206 -1 252 -6zM484 -33
c23 53 38 129 3 141c-23 8 -47 -4 -68 -16c-64 -105 -139 -263 -103 -300c31 -33 117 59 168 175zM1072 737c11 12 37 7 59 -25c19 -27 15 -59 2 -84c-14 -28 -133 -198 -259 -342c-15 -19 -27 -34 -28 -36c-24 -36 -108 -155 -77 -191c36 -41 152 94 204 168
c12 18 59 -30 22 -85c-93 -139 -197 -175 -252 -119c-14 14 -22 29 -27 44c-15 39 -18 90 3 132c45 87 286 470 353 538z" />
    <glyph glyph-name="f_f" unicode="&#xfb00;" horiz-adv-x="680" 
d="M414 198c35 -4 -1 -71 -28 -73c-43 -3 -148 10 -198 10c126 -84 7 -311 -89 -380c-75 -54 -123 -24 -161 1c-16 11 -35 20 -47 51c-11 26 -8 74 6 115c14 51 51 125 98 207c-3 6 -6 12 -9 17c-9 17 18 30 42 39c112 186 260 395 315 462c23 30 61 3 72 -18
c11 -19 28 -55 -24 -126c-45 -62 -158 -212 -229 -299c80 5 206 -1 252 -6zM144 -33c23 53 38 129 3 141c-23 8 -47 -4 -68 -16c-64 -105 -139 -263 -103 -300c31 -33 117 59 168 175zM754 198c35 -4 -1 -71 -28 -73c-43 -3 -148 10 -198 10c126 -84 7 -311 -89 -380
c-75 -54 -123 -24 -161 1c-16 11 -35 20 -47 51c-11 26 -8 74 6 115c14 51 51 125 98 207c-3 6 -6 12 -9 17c-9 17 18 30 42 39c112 186 260 395 315 462c23 30 61 3 72 -18c11 -19 28 -55 -24 -126c-45 -62 -158 -212 -229 -299c80 5 206 -1 252 -6zM484 -33
c23 53 38 129 3 141c-23 8 -47 -4 -68 -16c-64 -105 -139 -263 -103 -300c31 -33 117 59 168 175z" />
    <glyph glyph-name="f_f_i" unicode="&#xfb03;" horiz-adv-x="917" 
d="M414 198c35 -4 -1 -71 -28 -73c-43 -3 -148 10 -198 10c126 -84 7 -311 -89 -380c-75 -54 -123 -24 -161 1c-16 11 -35 20 -47 51c-11 26 -8 74 6 115c14 51 51 125 98 207c-3 6 -6 12 -9 17c-9 17 18 30 42 39c112 186 260 395 315 462c23 30 61 3 72 -18
c11 -19 28 -55 -24 -126c-45 -62 -158 -212 -229 -299c80 5 206 -1 252 -6zM144 -33c23 53 38 129 3 141c-23 8 -47 -4 -68 -16c-64 -105 -139 -263 -103 -300c31 -33 117 59 168 175zM754 198c35 -4 -1 -71 -28 -73c-43 -3 -148 10 -198 10c126 -84 7 -311 -89 -380
c-75 -54 -123 -24 -161 1c-16 11 -35 20 -47 51c-11 26 -8 74 6 115c14 51 51 125 98 207c-3 6 -6 12 -9 17c-9 17 18 30 42 39c112 186 260 395 315 462c23 30 61 3 72 -18c11 -19 28 -55 -24 -126c-45 -62 -158 -212 -229 -299c80 5 206 -1 252 -6zM484 -33
c23 53 38 129 3 141c-23 8 -47 -4 -68 -16c-64 -105 -139 -263 -103 -300c31 -33 117 59 168 175zM922 336c-18 -31 -62 -88 -83 -117c-41 -58 -78 -142 -59 -159c29 -24 142 95 194 169c12 17 59 -30 22 -85c-93 -140 -192 -167 -235 -128c-113 104 -45 188 18 279
c38 55 81 101 85 107c21 23 69 -46 58 -66zM1037 581c24 -16 28 -54 8 -84c-20 -31 -56 -42 -80 -26c-25 15 -28 53 -8 83c19 31 55 42 80 27z" />
    </font>
</defs>
</svg>
