<?xml version="1.0" standalone="no"?>
<!DOCTYPE svg PUBLIC "-//W3C//DTD SVG 1.1//EN" "http://www.w3.org/Graphics/SVG/1.1/DTD/svg11.dtd" >
<svg xmlns="http://www.w3.org/2000/svg" xmlns:xlink="http://www.w3.org/1999/xlink" version="1.1">
<metadata>
Created by FontForge 20190801 at Wed Oct 10 20:15:01 2001
 By Jimmy Wärting
Copyright 1990-2001 Bitstream Inc. All rights reserved.
</metadata>
<defs>
<font id="ClarendonBT-Bold" horiz-adv-x="1024" >
  <font-face 
    font-family="Clarendon BT"
    font-weight="700"
    font-stretch="normal"
    units-per-em="2048"
    panose-1="2 4 8 4 5 5 5 3 2 4"
    ascent="1556"
    descent="-492"
    x-height="967"
    cap-height="1374"
    bbox="-342 -483 2779 1972"
    underline-thickness="225"
    underline-position="-331"
    unicode-range="U+0020-F002"
  />
<missing-glyph horiz-adv-x="1229" 
d="M102 -362v1806h1024v-1806h-1024zM217 -248h795v1577h-795v-1577z" />
    <glyph glyph-name=".notdef" horiz-adv-x="1229" 
d="M102 -362v1806h1024v-1806h-1024zM217 -248h795v1577h-795v-1577z" />
    <glyph glyph-name=".null" horiz-adv-x="0" 
 />
    <glyph glyph-name="nonmarkingreturn" horiz-adv-x="651" 
 />
    <glyph glyph-name="space" unicode=" " horiz-adv-x="651" 
 />
    <glyph glyph-name="exclam" unicode="!" horiz-adv-x="647" 
d="M229 430q-17 179 -58.5 427.5t-41.5 318.5q0 112 53.5 176.5t145.5 64.5q84 0 136 -58t52 -155q0 -115 -44.5 -371t-52.5 -403h-190zM498 133q0 -73 -50.5 -123.5t-123.5 -50.5q-74 0 -123 50t-49 124q0 72 49.5 122t122.5 50q72 0 123 -50t51 -122z" />
    <glyph glyph-name="quotedbl" unicode="&#x22;" horiz-adv-x="717" 
d="M553 846h-45l-84 463q-3 15 -3.5 22.5t-0.5 14.5q0 54 29.5 86t80.5 32t81 -31.5t30 -84.5q0 -16 -0.5 -24.5t-1.5 -15.5zM207 846h-43l-86 462q-3 16 -3.5 23.5t-0.5 14.5q0 54 29.5 86t80.5 32q52 0 82.5 -31.5t30.5 -84.5q0 -8 -1 -17t-3 -22z" />
    <glyph glyph-name="numbersign" unicode="#" horiz-adv-x="1575" 
d="M705 844l-84 -236h253l84 236h-253zM684 1466h248l-139 -393h241l140 393h247l-139 -393h270l-86 -229h-266l-82 -234h277l-84 -229h-275l-141 -393h-248l141 393h-241l-141 -393h-248l141 393h-276l86 229h272l82 234h-285l86 229h281z" />
    <glyph glyph-name="dollar" unicode="$" horiz-adv-x="1300" 
d="M735 436v-303q95 11 144 50t49 104q0 59 -45.5 94.5t-147.5 54.5zM586 -225v225q-8 0 -24.5 -1t-24.5 -1q-206 0 -328.5 76t-122.5 200q0 81 51 131t133 50q72 0 119 -42t47 -104q0 -48 -31 -77.5t-90 -36.5q48 -33 113.5 -48.5t157.5 -15.5v344q-257 47 -368.5 136.5
t-111.5 246.5q0 166 129 271t351 118v137h149v-139q204 -12 323.5 -86.5t119.5 -187.5q0 -68 -45 -111t-117 -43q-71 0 -115.5 38.5t-44.5 98.5q0 35 17 60t51 41q-39 22 -86.5 33.5t-102.5 11.5v-330q253 -46 367.5 -137.5t114.5 -247.5q0 -167 -130.5 -272t-350.5 -113
l-1 -225h-149zM585 1102q-93 -10 -137.5 -45t-44.5 -99q0 -61 44 -97.5t139 -53.5z" />
    <glyph glyph-name="percent" unicode="%" horiz-adv-x="1966" 
d="M1126 358q0 177 107.5 286.5t279.5 109.5q173 0 280.5 -109t107.5 -287q0 -177 -106.5 -285t-281.5 -108q-173 0 -280 108.5t-107 284.5zM1374 358q0 -135 33 -195.5t106 -60.5q74 0 107 60.5t33 195.5t-33 194.5t-107 59.5q-73 0 -106 -59.5t-33 -194.5zM66 889
q0 176 106.5 284.5t280.5 108.5q173 0 279 -107.5t106 -285.5t-107 -286.5t-280 -108.5q-174 0 -279.5 108.5t-105.5 286.5zM311 889q0 -136 33 -196t107 -60t107.5 60.5t33.5 195.5q0 134 -33 194t-106 60q-74 0 -108 -60.5t-34 -193.5zM508 -37l770 1321h180l-768 -1321
h-182z" />
    <glyph glyph-name="ampersand" unicode="&#x26;" horiz-adv-x="1821" 
d="M1536 481h190q3 -37 4 -56t1 -34q0 -216 -106 -324t-316 -108q-73 0 -151 28t-169 87q-89 -58 -189.5 -86.5t-213.5 -28.5q-233 0 -367.5 116t-134.5 314q0 157 84.5 269.5t255.5 181.5q-34 68 -51 126t-17 109q0 144 102 241t253 97q156 0 252 -85t96 -222
q0 -96 -55 -178.5t-166 -153.5l11 -16q149 -220 243 -322q58 62 87 110t29 83q0 26 -25 38.5t-77 12.5q-20 0 -30.5 -0.5t-20.5 -1.5v178h585v-178h-24q-64 0 -106.5 -15.5t-65.5 -48.5q-14 -17 -81 -133t-134 -205q49 -50 87 -73t73 -23q76 0 111.5 63t35.5 199v39z
M530 641q-54 -47 -80 -96t-26 -107q0 -112 74 -191t180 -79q37 0 77 13t87 40q-56 51 -135 157.5t-177 262.5zM717 956q67 27 103 70t36 98q0 48 -27 76.5t-73 28.5q-51 0 -80 -26t-29 -70q0 -33 18 -78.5t52 -98.5z" />
    <glyph glyph-name="quotesingle" unicode="'" horiz-adv-x="371" 
d="M207 846h-43l-86 462q-3 16 -3.5 23.5t-0.5 14.5q0 53 31 85.5t81 32.5q51 0 81 -31.5t30 -84.5q0 -8 -1 -17t-3 -22z" />
    <glyph glyph-name="parenleft" unicode="(" horiz-adv-x="829" 
d="M774 -403q-332 17 -521.5 252.5t-189.5 633.5q0 429 179.5 662t531.5 262v-176q-184 -42 -261 -202t-77 -525q0 -363 78 -528t260 -203v-176z" />
    <glyph glyph-name="parenright" unicode=")" horiz-adv-x="829" 
d="M57 -403v176q183 38 260.5 203t77.5 528q0 365 -76.5 525t-261.5 202v176q352 -29 531.5 -262t179.5 -662q0 -398 -189.5 -633.5t-521.5 -252.5z" />
    <glyph glyph-name="asterisk" unicode="*" 
d="M491 1002q-4 85 -51 182t-47 125q0 47 33 76.5t86 29.5q50 0 84.5 -31.5t34.5 -74.5q0 -27 -47 -122.5t-53 -182.5q38 19 73 54.5t68 86.5q2 3 7 11q65 97 124 97q46 0 81.5 -36.5t35.5 -83.5q0 -60 -34.5 -87t-119.5 -32q-81 -6 -131 -17t-82 -30q80 -44 233 -51
q12 0 19 -1q54 -3 85.5 -32.5t31.5 -75.5q0 -56 -35.5 -93.5t-85.5 -37.5q-57 0 -120 93q-9 13 -13 19q-40 58 -72.5 92.5t-60.5 48.5q3 -82 50.5 -178t47.5 -126q0 -46 -34.5 -76.5t-86.5 -30.5q-55 0 -86 28t-31 79q0 24 45.5 122t53.5 181q-37 -18 -69.5 -51.5
t-68.5 -90.5q-2 -3 -7 -11q-62 -97 -126 -97q-50 0 -85.5 38t-35.5 91q0 49 32 75.5t97 32.5q8 1 23 2q148 11 217 48q-79 43 -229 50q-17 0 -27 1q-50 2 -81.5 32t-31.5 76q0 53 35.5 90t85.5 37q61 0 125 -96q5 -7 9 -13v0q65 -96 134 -140z" />
    <glyph glyph-name="plus" unicode="+" horiz-adv-x="1706" 
d="M735 1221h238v-494h479v-231h-479v-496h-238v496h-481v231h481v494z" />
    <glyph glyph-name="comma" unicode="," horiz-adv-x="651" 
d="M336 -29q-9 -2 -18.5 -3t-28.5 -1q-69 0 -111.5 43t-42.5 113q0 75 51.5 125.5t126.5 50.5q91 0 146 -60.5t55 -160.5q0 -141 -100.5 -243t-270.5 -132v115q81 12 128 49.5t65 103.5z" />
    <glyph glyph-name="hyphen" unicode="-" horiz-adv-x="725" 
d="M651 330h-577v307h577v-307z" />
    <glyph glyph-name="period" unicode="." horiz-adv-x="651" 
d="M152 131q0 72 50.5 123t123.5 51q71 0 121.5 -50.5t50.5 -123.5q0 -74 -49.5 -123t-122.5 -49q-74 0 -124 50t-50 122z" />
    <glyph glyph-name="slash" unicode="/" horiz-adv-x="578" 
d="M109 -190h-168l526 1605h172z" />
    <glyph glyph-name="zero" unicode="0" horiz-adv-x="1300" 
d="M57 623q0 297 164 478t430 181t429 -180.5t163 -478.5q0 -297 -164 -477.5t-430 -180.5t-429 180t-163 478zM436 623q0 -254 50.5 -366t162.5 -112q113 0 164 112.5t51 365.5q0 254 -50 366.5t-163 112.5t-164 -113t-51 -366z" />
    <glyph glyph-name="one" unicode="1" horiz-adv-x="1300" 
d="M233 0v170h93q91 0 120 19t29 100v39v577h-242l1 168q139 2 223 45t116 129h263v-932q0 -99 24 -122t125 -23h82v-170h-834z" />
    <glyph glyph-name="two" unicode="2" horiz-adv-x="1300" 
d="M89 0q-2 12 -2.5 26t-0.5 42q0 115 47.5 211t147.5 184q70 61 222 146q68 37 99 57q95 59 130.5 110.5t35.5 122.5q0 88 -66.5 141.5t-177.5 53.5q-91 0 -151 -36t-88 -105q18 4 34.5 7t28.5 3q64 0 104 -39t40 -101q0 -71 -54.5 -120.5t-134.5 -49.5q-99 0 -158 61
t-59 165q0 172 151.5 287.5t383.5 115.5q247 0 394.5 -113t147.5 -301q0 -141 -95 -241.5t-281 -155.5q-26 -8 -73 -21q-304 -89 -388 -206q62 34 125.5 50.5t132.5 16.5q75 0 178 -22.5t133 -22.5q63 0 90 40t27 134h180q1 -14 1.5 -29.5t0.5 -45.5q0 -206 -90 -304
t-279 -98q-91 0 -226 55q-22 9 -32 13q-69 26 -111.5 37.5t-72.5 11.5q-42 0 -72.5 -20t-48.5 -60h-173z" />
    <glyph glyph-name="three" unicode="3" horiz-adv-x="1300" 
d="M537 567v172q126 6 187.5 51.5t61.5 131.5q0 89 -66.5 140.5t-180.5 51.5q-62 0 -111.5 -17t-89.5 -53h18q65 0 103.5 -36t38.5 -97q0 -73 -48 -117t-128 -44q-88 0 -138.5 50.5t-50.5 139.5q0 156 133.5 249t362.5 93q254 0 391 -87.5t137 -248.5q0 -106 -69.5 -178.5
t-192.5 -93.5q158 -40 235.5 -118.5t77.5 -197.5q0 -194 -154.5 -295.5t-451.5 -101.5q-236 0 -373 92.5t-137 249.5q0 100 58.5 161.5t152.5 61.5q78 0 130 -49t52 -123q0 -68 -44.5 -108.5t-121.5 -40.5q44 -35 99 -51.5t127 -16.5q130 0 200 60.5t70 173.5
q0 101 -67.5 148.5t-210.5 47.5z" />
    <glyph glyph-name="four" unicode="4" horiz-adv-x="1300" 
d="M463 0v170h55q97 0 127.5 17t30.5 100v8v84h-596v196l637 672h309v-688h199v-180h-199v-123q0 -52 27.5 -69t117.5 -17h54v-170h-762zM285 559h391l4 402z" />
    <glyph glyph-name="five" unicode="5" horiz-adv-x="1300" 
d="M186 633l37 643q119 -19 237 -28t238 -9q124 0 251 19.5t130 19.5q21 0 32 -9.5t11 -25.5q0 -97 -150.5 -172.5t-371.5 -75.5q-45 0 -96.5 5.5t-108.5 15.5l-8 -180q61 34 129 50.5t148 16.5q240 0 384 -126t144 -339q0 -212 -161.5 -343.5t-424.5 -131.5
q-228 0 -365 96.5t-137 253.5q0 96 59 154.5t156 58.5q79 0 130 -48.5t51 -123.5q0 -65 -43 -105.5t-121 -47.5q50 -35 97.5 -51.5t96.5 -16.5q128 0 199.5 85t71.5 237q0 119 -63 189.5t-169 70.5q-60 0 -106 -20.5t-80 -61.5h-197z" />
    <glyph glyph-name="six" unicode="6" horiz-adv-x="1300" 
d="M473 680q67 46 139.5 68t157.5 22q201 0 318.5 -106t117.5 -287q0 -184 -144.5 -299t-377.5 -115q-273 0 -430.5 167.5t-157.5 459.5q0 322 167.5 507t461.5 185q198 0 316 -74.5t118 -195.5q0 -78 -53.5 -127t-138.5 -49q-82 0 -131.5 42t-49.5 111q0 40 20 69t60 48
q-27 10 -53 15t-49 5q-143 0 -217 -107t-74 -314v-25zM668 129q76 0 121 59t45 160q0 119 -44.5 183.5t-125.5 64.5q-77 0 -126 -63.5t-49 -165.5q0 -115 46.5 -176.5t132.5 -61.5z" />
    <glyph glyph-name="seven" unicode="7" horiz-adv-x="1300" 
d="M391 0v35q0 167 42 305.5t128 253.5q29 39 155 161.5t206 221.5q-41 -23 -89 -34t-106 -11q-52 0 -137.5 17.5t-118.5 17.5q-94 0 -140 -55.5t-46 -168.5q0 -8 2 -41q1 -21 2 -34h-187v579h187v-151q63 86 133 126t160 40q91 0 212.5 -48.5t155.5 -48.5q41 0 64.5 19
t23.5 51v12h160q1 -6 1.5 -14.5t0.5 -24.5q0 -122 -173 -396q-28 -44 -42 -67q-126 -207 -170.5 -361t-44.5 -337v-47h-379z" />
    <glyph glyph-name="eight" unicode="8" horiz-adv-x="1300" 
d="M319 616q-96 55 -144 127.5t-48 163.5q0 177 142 278t395 101q221 0 355 -85t134 -222q0 -83 -52 -144t-159 -104q141 -50 211 -138t70 -214q0 -193 -158.5 -303.5t-439.5 -110.5q-265 0 -408 94.5t-143 268.5q0 99 64 174.5t181 113.5zM780 803q60 31 89.5 73t29.5 97
q0 66 -65.5 106.5t-176.5 40.5q-99 0 -155 -34t-56 -95q0 -90 304 -179zM477 526q-76 -37 -112.5 -84t-36.5 -108q0 -95 77.5 -151t208.5 -56q142 0 209.5 40t67.5 124q0 53 -72.5 98.5t-341.5 136.5z" />
    <glyph glyph-name="nine" unicode="9" horiz-adv-x="1300" 
d="M633 1118q-76 0 -121 -59t-45 -160q0 -119 44.5 -184.5t125.5 -65.5q77 0 126.5 65t49.5 167q0 113 -47 175t-133 62zM829 567q-68 -47 -141 -69.5t-158 -22.5q-200 0 -318 106t-118 287q0 186 144.5 301t377.5 115q274 0 431 -167.5t157 -459.5q0 -323 -168 -508.5
t-461 -185.5q-197 0 -315.5 75.5t-118.5 197.5q0 77 54 126.5t141 49.5q81 0 129.5 -43t48.5 -113q0 -39 -19.5 -67.5t-60.5 -47.5q32 -11 56.5 -16.5t46.5 -5.5q143 0 217.5 108t74.5 316v24z" />
    <glyph glyph-name="colon" unicode=":" horiz-adv-x="651" 
d="M152 133q0 72 50.5 122t123.5 50q72 0 122 -50t50 -122q0 -74 -49.5 -124t-122.5 -50t-123.5 50.5t-50.5 123.5zM152 750q0 72 50.5 123t123.5 51q71 0 121.5 -51t50.5 -123q0 -74 -49.5 -123t-122.5 -49q-74 0 -124 49.5t-50 122.5z" />
    <glyph glyph-name="semicolon" unicode=";" horiz-adv-x="651" 
d="M334 -29q-9 -2 -18.5 -3t-28.5 -1q-69 0 -111.5 43t-42.5 113q0 75 51.5 125.5t126.5 50.5q91 0 147 -61t56 -160q0 -141 -100.5 -243t-270.5 -132v115q81 12 127 49t64 104zM143 750q0 72 50.5 123t121.5 51q73 0 123.5 -51t50.5 -123q0 -74 -50 -123t-124 -49
q-73 0 -122.5 49.5t-49.5 122.5z" />
    <glyph glyph-name="less" unicode="&#x3c;" horiz-adv-x="1706" 
d="M1442 1214v-253l-854 -351l854 -348v-254l-1178 486v233z" />
    <glyph glyph-name="equal" unicode="=" horiz-adv-x="1706" 
d="M254 502h1198v-230h-1198v230zM254 950h1198v-231h-1198v231z" />
    <glyph glyph-name="greater" unicode="&#x3e;" horiz-adv-x="1706" 
d="M264 1214l1178 -487v-233l-1178 -486v254l854 348l-854 351v253z" />
    <glyph glyph-name="question" unicode="?" horiz-adv-x="1159" 
d="M362 133q0 72 50 122t123 50q72 0 123 -50t51 -122q0 -74 -50.5 -124t-123.5 -50t-123 50.5t-50 123.5zM434 435q-1 5 -1.5 11.5t-0.5 20.5q0 56 19 110.5t55 104.5q19 28 59 80q125 162 125 264q0 82 -62.5 137.5t-156.5 55.5q-85 0 -146 -47.5t-69 -118.5
q26 9 47.5 13.5t38.5 4.5q69 0 109.5 -40t40.5 -109q0 -84 -51.5 -130.5t-143.5 -46.5q-88 0 -146.5 72.5t-58.5 183.5q0 181 137 297.5t351 116.5q213 0 349 -106.5t136 -272.5q0 -98 -44.5 -174.5t-146.5 -152.5q-21 -16 -61 -44q-166 -116 -176 -231z" />
    <glyph glyph-name="at" unicode="@" horiz-adv-x="2019" 
d="M1171 313q-60 -95 -130 -143.5t-148 -48.5q-156 0 -241 90t-85 256q0 116 50.5 223.5t146.5 196.5q68 62 150 95.5t167 33.5q96 0 150 -44t67 -132l48 157h208l-174 -624q-8 -34 -11 -53t-3 -35q0 -45 19 -72t51 -27q30 0 84.5 27.5t101.5 69.5q97 87 148 211.5t51 273.5
q0 121 -34 219.5t-101 171.5q-99 109 -235.5 166t-299.5 57q-139 0 -265 -39.5t-233 -117.5q-166 -120 -255 -303t-89 -404q0 -336 205 -531.5t557 -195.5q163 0 315 49.5t316 157.5l41 -57q-151 -113 -321 -170.5t-351 -57.5q-432 0 -687 224.5t-255 601.5q0 202 87.5 381
t252.5 313q137 112 302.5 169.5t350.5 57.5q349 0 559.5 -189.5t210.5 -504.5q0 -164 -59 -302t-172 -239q-59 -52 -128 -80t-140 -28q-98 0 -156.5 52.5t-65.5 143.5zM1128 942q-60 0 -110 -44t-98 -140q-57 -112 -88 -218.5t-31 -187.5q0 -71 32.5 -113t86.5 -42
q59 0 115 60.5t108 180.5q42 99 67 198.5t25 166.5t-27.5 103t-79.5 36z" />
    <glyph glyph-name="A" unicode="A" horiz-adv-x="1466" 
d="M797 621l-138 434l-141 -434h279zM-27 0v180h50q67 0 98 21.5t61 111.5l353 1061h409l338 -1067q26 -78 54.5 -102.5t86.5 -24.5h70v-180h-758v180h58q74 0 99.5 10.5t25.5 38.5q-1 9 -7 29q-3 10 -4 15l-53 169h-395l-52 -158q-4 -14 -7 -29t-3 -26q0 -28 21 -38.5
t90 -10.5h67v-180h-602z" />
    <glyph glyph-name="B" unicode="B" horiz-adv-x="1511" 
d="M625 803h92q137 0 199.5 48t62.5 153q0 100 -59.5 145t-194.5 45h-100v-391zM625 180h108q153 0 223 53t70 168q0 120 -70 174t-225 54h-106v-449zM39 0v180h76q80 0 102.5 20t22.5 99v776q0 80 -22.5 99.5t-102.5 19.5h-76v180h803q269 0 394.5 -78t125.5 -245
q0 -114 -73 -197t-212 -127q180 -39 267.5 -125t87.5 -225q0 -202 -140.5 -289.5t-472.5 -87.5h-780z" />
    <glyph glyph-name="C" unicode="C" horiz-adv-x="1507" 
d="M1194 532h217q-8 -284 -162 -428.5t-450 -144.5q-334 0 -532.5 198t-198.5 531q0 166 51 297t157 236q102 100 224.5 147t281.5 47q112 0 210.5 -32.5t189.5 -100.5l41 109h188v-560h-201q-12 181 -103.5 282t-242.5 101q-165 0 -257.5 -137.5t-92.5 -386.5
q0 -253 91.5 -389.5t260.5 -136.5q144 0 230.5 97.5t97.5 270.5z" />
    <glyph glyph-name="D" unicode="D" horiz-adv-x="1642" 
d="M625 180h141q194 0 278 117.5t84 390.5q0 278 -84 392t-288 114h-131v-1014zM39 0v180h76q80 0 102.5 20t22.5 99v776q0 80 -22.5 99.5t-102.5 19.5h-76v180h727q411 0 610 -169t199 -517q0 -349 -199.5 -518.5t-609.5 -169.5h-727z" />
    <glyph glyph-name="E" unicode="E" horiz-adv-x="1532" 
d="M39 0v180h76q80 0 102.5 20t22.5 99v776q0 80 -22.5 99.5t-102.5 19.5h-76v180h1358v-524h-180q-17 120 -40 181.5t-61 96.5q-38 36 -98 51t-215 15h-178v-391h34q114 0 152.5 43t38.5 174h172v-627l-172 1q-3 143 -38 186t-153 43h-34v-443h184q226 0 305.5 78
t102.5 309h180v-567h-1358z" />
    <glyph glyph-name="F" unicode="F" horiz-adv-x="1417" 
d="M39 0v180h76q80 0 102.5 20t22.5 99v776q0 80 -22.5 99.5t-102.5 19.5h-76v180h1288v-561h-180q-10 131 -33.5 204t-66.5 113q-36 35 -94 49.5t-220 14.5h-108v-391h14q97 0 134.5 45t37.5 162v10h172v-627l-172 1q-2 133 -36 182t-120 49q-5 0 -15 -1t-15 -1v-324
q0 -78 22.5 -98.5t104.5 -20.5h86v-180h-799z" />
    <glyph glyph-name="G" unicode="G" horiz-adv-x="1602" 
d="M1239 -14l-51 104q-102 -66 -209.5 -98.5t-224.5 -32.5q-315 0 -500.5 191.5t-185.5 517.5q0 333 192.5 540t501.5 207q112 0 210.5 -31t190.5 -96l35 101h188v-553h-196q-22 190 -108 282t-244 92q-160 0 -242 -126t-82 -371q0 -290 75.5 -420.5t239.5 -130.5
q118 0 163.5 39t45.5 145v96q0 74 -18 90.5t-80 16.5h-100v180h749v-180h-73q-55 0 -75 -19.5t-20 -72.5v-471h-182z" />
    <glyph glyph-name="H" unicode="H" horiz-adv-x="1694" 
d="M39 0v180h76q80 0 102.5 20t22.5 99v776q0 80 -22.5 99.5t-102.5 19.5h-76v180h752v-180h-39q-82 0 -104.5 -20.5t-22.5 -98.5v-268h444v268q0 78 -23 98.5t-104 20.5h-39v180h752v-180h-76q-81 0 -104 -20.5t-23 -98.5v-776q0 -78 23 -98.5t104 -20.5h76v-180h-752v180
h39q81 0 104 20.5t23 98.5v322h-444v-322q0 -78 22.5 -98.5t104.5 -20.5h39v-180h-752z" />
    <glyph glyph-name="I" unicode="I" horiz-adv-x="897" 
d="M43 0v180h84q80 0 102.5 20t22.5 99v776q0 80 -22.5 99.5t-102.5 19.5h-84v180h811v-180h-84q-81 0 -104 -20.5t-23 -98.5v-776q0 -78 23 -98.5t104 -20.5h84v-180h-811z" />
    <glyph glyph-name="J" unicode="J" horiz-adv-x="1249" 
d="M637 1075q0 78 -23 98.5t-104 20.5h-86v180h805v-180h-74q-81 0 -104 -20.5t-23 -98.5v-614q0 -260 -122.5 -381t-385.5 -121q-219 0 -353 110t-134 287q0 112 62 182t161 70q88 0 144.5 -53.5t56.5 -136.5q0 -75 -44 -118.5t-120 -43.5q-19 0 -40 3t-42 9
q38 -55 91 -82.5t120 -27.5q115 0 165 69t50 234v614z" />
    <glyph glyph-name="K" unicode="K" horiz-adv-x="1651" 
d="M39 0v180h76q80 0 102.5 20t22.5 99v776q0 80 -22.5 99.5t-102.5 19.5h-76v180h752v-180h-48q-81 0 -104 -20.5t-23 -98.5v-362l459 397q16 14 23.5 26.5t7.5 24.5q0 17 -18.5 25t-57.5 8h-96v180h686v-180h-66q-75 0 -209 -114l-2 -1l-237 -207l373 -604
q30 -49 58 -68.5t67 -19.5h59v-180h-741v180h59q51 0 72.5 9.5t21.5 31.5q0 8 -3 16t-13 25l-225 373l-218 -186v-150q0 -78 23 -98.5t104 -20.5h48v-180h-752z" />
    <glyph glyph-name="L" unicode="L" horiz-adv-x="1417" 
d="M39 1374h799v-180h-86q-82 0 -104.5 -20.5t-22.5 -98.5v-895h108q156 0 216 15t98 51q43 40 66.5 112.5t33.5 202.5h180v-561h-1288v180h76q80 0 102.5 20t22.5 99v776q0 80 -22.5 99.5t-102.5 19.5h-76v180z" />
    <glyph glyph-name="M" unicode="M" horiz-adv-x="2005" 
d="M461 299q0 -78 22.5 -98.5t104.5 -20.5h39v-180h-588v180h67q82 0 104.5 20.5t22.5 98.5v776q0 78 -22.5 98.5t-104.5 20.5h-67v180h721l239 -846l252 846h715v-180h-70q-81 0 -104 -20.5t-23 -98.5v-776q0 -78 23 -98.5t104 -20.5h70v-180h-721v180h41q80 0 102.5 20
t22.5 99v858l-342 -1157h-276l-332 1159v-860z" />
    <glyph glyph-name="N" unicode="N" horiz-adv-x="1675" 
d="M238 1075q0 78 -23 98.5t-104 20.5h-72v180h657l527 -958v659q0 78 -23 98.5t-104 20.5h-78v180h627v-180h-64q-81 0 -104 -20.5t-23 -98.5v-1075h-422l-563 1022v-723q0 -78 23 -98.5t104 -20.5h78v-180h-635v180h72q81 0 104 20.5t23 98.5v776z" />
    <glyph glyph-name="O" unicode="O" horiz-adv-x="1677" 
d="M514 686q0 -281 78 -410t248 -129q169 0 247 129t78 410t-78 410t-247 129q-170 0 -248 -129t-78 -410zM68 686q0 340 205.5 534.5t566.5 194.5q359 0 564.5 -194t205.5 -535q0 -340 -205 -533.5t-565 -193.5q-361 0 -566.5 194t-205.5 533z" />
    <glyph glyph-name="P" unicode="P" horiz-adv-x="1497" 
d="M625 780h127q152 0 213 48.5t61 166.5q0 106 -64 152.5t-210 46.5h-127v-414zM887 1374q283 0 413 -94.5t130 -300.5q0 -86 -34 -158.5t-98 -124.5q-62 -50 -154.5 -72t-256.5 -22h-262v-303q0 -78 22.5 -98.5t104.5 -20.5h98v-180h-811v180h76q80 0 102.5 20t22.5 99
v776q0 80 -22.5 99.5t-102.5 19.5h-76v180h848z" />
    <glyph glyph-name="Q" unicode="Q" horiz-adv-x="1784" 
d="M539 408q27 123 97 182t187 59q80 0 164.5 -34.5t179.5 -106.5q4 41 6.5 85t2.5 93q0 278 -82 408.5t-254 130.5q-165 0 -248.5 -129.5t-83.5 -384.5q0 -60 7.5 -135.5t23.5 -167.5zM1065 223q-81 94 -157 142.5t-144 48.5q-62 0 -99.5 -36t-37.5 -95q0 -65 55.5 -106.5
t144.5 -41.5q62 0 121 22t117 66zM1466 250q22 -30 45 -45t48 -15q45 0 65.5 38t24.5 134h135q-3 -223 -74.5 -339.5t-206.5 -116.5q-63 0 -123 33.5t-139 113.5q-109 -47 -216.5 -70.5t-217.5 -23.5q-335 0 -537 198.5t-202 528.5q0 340 205.5 534.5t566.5 194.5
q356 0 563 -191.5t207 -518.5q0 -119 -35.5 -231.5t-108.5 -223.5z" />
    <glyph glyph-name="R" unicode="R" horiz-adv-x="1645" 
d="M625 807h145q156 0 212 40.5t56 145.5q0 110 -56 155.5t-196 45.5h-161v-387zM625 299q0 -78 22.5 -98.5t104.5 -20.5h73v-180h-786v180h76q80 0 102.5 20t22.5 99v776q0 80 -22.5 99.5t-102.5 19.5h-76v180h903q251 0 373.5 -84.5t122.5 -257.5q0 -121 -81 -200.5
t-235 -108.5q132 -22 188 -86.5t56 -190.5v-133q0 -86 13 -116.5t46 -30.5q39 0 54.5 45.5t15.5 169.5h137q0 -10 1 -27.5t1 -25.5q0 -189 -77.5 -279t-241.5 -90q-173 0 -253.5 85t-80.5 267v131q0 115 -36.5 150t-151.5 35h-168v-328z" />
    <glyph glyph-name="S" unicode="S" horiz-adv-x="1370" 
d="M252 -18h-166v540h184q25 -165 141 -263.5t285 -98.5q116 0 182 44t66 120q0 119 -246 176q-40 9 -61 14q-215 51 -297.5 84t-136.5 76q-69 54 -104.5 129t-35.5 166q0 208 146.5 323t413.5 115q133 0 235.5 -28.5t177.5 -86.5l41 97h170v-502h-188q-18 152 -126 238.5
t-280 86.5q-103 0 -163 -43t-60 -116q0 -105 271 -162q103 -22 163 -37q236 -58 345.5 -166t109.5 -282q0 -205 -153.5 -326t-415.5 -121q-126 0 -245 33.5t-198 89.5z" />
    <glyph glyph-name="T" unicode="T" horiz-adv-x="1421" 
d="M1380 1374v-530h-186q0 177 -66.5 261.5t-205.5 84.5h-21v-873q0 -71 7 -93.5t26 -28.5q21 -9 57 -13t127 -6v-176h-815v176q64 0 110.5 4.5t76.5 14.5q18 6 25 28.5t7 91.5v27v848h-20q-140 0 -207.5 -85t-67.5 -261h-184v530h1337z" />
    <glyph glyph-name="U" unicode="U" horiz-adv-x="1579" 
d="M39 1201v173h778v-174q-13 1 -28 1.5t-41 0.5q-84 0 -112 -31t-28 -172v-550q0 -157 54.5 -222t181.5 -65q152 0 217 62t65 208v557q0 140 -28.5 176.5t-116.5 36.5q-21 0 -32.5 -0.5t-20.5 -1.5v174h612v-174q-78 0 -119 -7.5t-55 -25.5q-9 -10 -12.5 -41t-3.5 -139
v-581q0 -220 -147 -334.5t-429 -114.5q-258 0 -401.5 113.5t-143.5 318.5v604q0 128 -27.5 168.5t-103.5 40.5q-22 0 -35 -0.5t-24 -0.5z" />
    <glyph glyph-name="V" unicode="V" horiz-adv-x="1473" 
d="M926 0h-383l-348 1036q-35 103 -76 132t-133 32v174h768l-1 -174q-15 1 -32.5 1.5t-46.5 0.5q-65 0 -90 -14.5t-25 -50.5q0 -14 6 -38t25 -79l217 -670l233 703q16 48 20.5 65t4.5 27q0 29 -29.5 43t-89.5 14q-25 0 -38.5 -0.5t-24.5 -1.5v174h596l-1 -174
q-94 -1 -140.5 -42t-80.5 -161z" />
    <glyph glyph-name="W" unicode="W" horiz-adv-x="1997" 
d="M463 0l-268 971q-40 145 -76 183t-105 46v174h619v-174h-10q-54 0 -81.5 -14t-27.5 -41q0 -12 5 -35t18 -66l188 -698l188 608q-27 146 -67 196t-121 50v174h643v-173q-9 0 -19 0.5t-28 0.5q-53 0 -72.5 -15t-19.5 -54q0 -11 2 -25.5t6 -30.5l182 -731l191 725q6 22 9 37
t3 25q0 37 -31 52t-112 15v174h503v-174q-68 -3 -105 -37t-60 -123l-275 -1040h-366l-164 584l-168 -584h-381z" />
    <glyph glyph-name="X" unicode="X" horiz-adv-x="1565" 
d="M27 0v176h28q72 0 119 24t98 89l301 375l-321 428q-43 58 -87.5 82.5t-104.5 25.5l-1 174h725v-174q-6 0 -17 1t-15 1q-46 0 -70.5 -12t-24.5 -35q0 -12 5.5 -25t21.5 -36l139 -195l162 193q18 20 24.5 32.5t6.5 26.5q0 24 -28.5 36.5t-84.5 12.5h-14v174h602v-174h-8
q-70 0 -119 -23.5t-96 -80.5l-291 -355l330 -444q53 -73 93 -99t93 -26q12 0 39 3q4 1 6 1v-176h-768v176h23q64 0 91 12t27 39q0 25 -28 59q-8 9 -13 16l-147 200l-156 -195q-24 -33 -32.5 -51.5t-8.5 -36.5q0 -22 24.5 -33.5t70.5 -11.5q16 0 24.5 0.5t15.5 1.5l1 -176
h-635z" />
    <glyph glyph-name="Y" unicode="Y" horiz-adv-x="1597" 
d="M993 315q0 -89 22 -114t105 -25h97v-176h-830v176h96q85 0 107 25.5t22 113.5v252l-301 471q-59 93 -116 126t-147 36l-1 174h787v-174h-66q-43 0 -64.5 -12.5t-21.5 -38.5q0 -12 10 -32.5t37 -61.5l160 -248l186 280q12 18 18.5 36t6.5 34q0 23 -26 33t-83 10h-33v174
h582v-174h-6q-77 0 -126.5 -30t-113.5 -132l-301 -471v-252z" />
    <glyph glyph-name="Z" unicode="Z" horiz-adv-x="1331" 
d="M47 0v188l778 1002h-225q-180 0 -251.5 -72.5t-82.5 -263.5h-180v520h1198v-198l-786 -1000h245q182 0 255.5 81.5t82.5 301.5h203v-559h-1237z" />
    <glyph glyph-name="bracketleft" unicode="[" horiz-adv-x="829" 
d="M743 -375h-577v1749h577v-180h-235v-1384h235v-185z" />
    <glyph glyph-name="backslash" unicode="\" horiz-adv-x="578" 
d="M-59 1415h170l528 -1605h-168z" />
    <glyph glyph-name="bracketright" unicode="]" horiz-adv-x="829" 
d="M86 -375v185h236v1384h-236v180h578v-1749h-578z" />
    <glyph glyph-name="asciicircum" unicode="^" horiz-adv-x="2048" 
d="M893 1462h260l479 -565h-121l-489 348l-490 -348h-120z" />
    <glyph glyph-name="underscore" unicode="_" 
d="M0 -244h1024v-239h-1024v239z" />
    <glyph glyph-name="grave" unicode="`" 
d="M737 1102h-121l-346 172q-59 29 -83.5 58.5t-24.5 68.5q0 49 32.5 82t81.5 33q39 0 76.5 -22.5t89.5 -78.5z" />
    <glyph glyph-name="a" unicode="a" horiz-adv-x="1262" 
d="M707 113q-65 -76 -148.5 -113t-187.5 -37q-142 0 -226 75.5t-84 201.5q0 117 68 179.5t283 108.5q182 39 228 76.5t46 110.5q0 70 -56 112.5t-151 42.5q-52 0 -89 -9.5t-66 -30.5q54 -4 87 -36t33 -79q0 -58 -45 -95.5t-116 -37.5q-80 0 -128.5 43t-48.5 112
q0 125 122.5 194.5t342.5 69.5q108 0 196 -19.5t138 -53.5q58 -40 81.5 -89.5t23.5 -166.5v-27v-373q0 -47 12.5 -69.5t40.5 -22.5t39.5 21t11.5 71v84h123v-94q0 -155 -68 -227t-215 -72q-96 0 -158.5 38t-88.5 112zM680 477q-39 -20 -106 -52q-160 -78 -160 -146
q0 -49 34 -79t89 -30q67 0 105 43t38 121v143z" />
    <glyph glyph-name="b" unicode="b" horiz-adv-x="1260" 
d="M494 477q0 -164 41.5 -249t121.5 -85q82 0 121 82t39 252q0 173 -38.5 253.5t-121.5 80.5q-84 0 -123.5 -81t-39.5 -253zM469 115l-90 -119h-221v1116q0 59 -19 77.5t-78 18.5h-61v166h494v-520q62 73 137 109t166 36q177 0 283 -141t106 -381q0 -251 -103 -382.5
t-299 -131.5q-94 0 -171 37t-144 115z" />
    <glyph glyph-name="c" unicode="c" horiz-adv-x="1028" 
d="M760 340h214q-9 -180 -119 -277.5t-304 -97.5q-240 0 -372 136.5t-132 383.5q0 240 137 379.5t373 139.5q193 0 309.5 -92t116.5 -242q0 -96 -56 -152.5t-151 -56.5q-77 0 -123.5 44t-46.5 118q0 71 41 111t113 40h4q-30 30 -63 43.5t-74 13.5q-109 0 -164 -84t-55 -251
q0 -175 46 -258.5t142 -83.5q77 0 118 47t46 139z" />
    <glyph glyph-name="d" unicode="d" horiz-adv-x="1270" 
d="M754 1112q0 62 -20 79t-77 17h-67v166h506v-1116q0 -59 18.5 -77.5t77.5 -18.5h47v-162h-471v131q-59 -87 -131.5 -127.5t-169.5 -40.5q-198 0 -302 131t-104 383q0 240 107 381t285 141q90 0 164 -35.5t137 -109.5v258zM432 477q0 -165 41 -249.5t121 -84.5
q81 0 120.5 82t39.5 252q0 173 -38.5 253.5t-121.5 80.5q-84 0 -123 -80.5t-39 -253.5z" />
    <glyph glyph-name="e" unicode="e" horiz-adv-x="1135" 
d="M420 607l315 -1v8q0 102 -40.5 154.5t-119.5 52.5q-73 0 -113 -55t-42 -159zM821 327l244 1q-46 -180 -169.5 -271.5t-320.5 -91.5q-233 0 -375.5 140t-142.5 368q0 243 137.5 383.5t372.5 140.5q243 0 378.5 -137t135.5 -383v-37h-665v-16q0 -133 49.5 -199.5
t148.5 -66.5q91 0 144.5 44t62.5 125z" />
    <glyph glyph-name="f" unicode="f" horiz-adv-x="778" 
d="M47 0v174h49q62 0 82.5 21t20.5 124v478h-152v170h152v55q0 109 13.5 164t45.5 94q50 61 138.5 96t195.5 35q151 0 243.5 -63.5t92.5 -163.5q0 -69 -41 -111.5t-107 -42.5q-60 0 -99.5 37.5t-39.5 93.5q0 33 18.5 58t56.5 44q-18 4 -34.5 5.5t-30.5 1.5q-62 0 -86 -36.5
t-24 -135.5v-131h176v-170h-176v-478q0 -101 19 -123t85 -22h72v-174h-670z" />
    <glyph glyph-name="g" unicode="g" horiz-adv-x="1319" 
d="M561 362q63 0 90 59.5t27 205.5q0 134 -26.5 189.5t-88.5 55.5t-89.5 -60t-27.5 -204q0 -126 28 -186t87 -60zM313 -221q0 -41 76 -61.5t223 -20.5q170 0 243 20.5t73 67.5q0 43 -62 60.5t-233 17.5q-190 0 -255 -18.5t-65 -65.5zM240 322q-63 65 -93 136t-30 152
q0 186 121 290t337 104q90 0 165 -23.5t143 -71.5q54 48 108 71.5t111 23.5q100 0 163.5 -57.5t63.5 -147.5q0 -66 -37.5 -106t-99.5 -40q-56 0 -94.5 34t-38.5 81q0 30 13 56.5t40 52.5q-10 12 -22.5 18t-24.5 6q-24 0 -54 -17t-65 -50q34 -45 51 -100t17 -120
q0 -177 -127 -282t-342 -105q-50 0 -102 9.5t-105 27.5q-21 -12 -31 -26t-10 -31q0 -42 52.5 -58t244.5 -16q41 0 111.5 1t99.5 1q182 0 274 -67t92 -199q0 -167 -137.5 -241t-458.5 -74q-259 0 -385.5 50t-126.5 152q0 60 40.5 100.5t121.5 61.5q-74 40 -109.5 92.5
t-35.5 122.5q0 60 39.5 106.5t120.5 82.5z" />
    <glyph glyph-name="h" unicode="h" horiz-adv-x="1356" 
d="M43 0v166h49q59 0 77.5 18.5t18.5 77.5v850q0 59 -18.5 77.5t-77.5 18.5h-49v166h473v-547q73 84 157.5 125t182.5 41q176 0 250 -80t74 -278v-373q0 -59 18.5 -77.5t77.5 -18.5h47v-166h-604v166h22q59 0 78 18.5t19 77.5v373q0 87 -35.5 130.5t-106.5 43.5
q-86 0 -126 -60t-40 -192v-295q0 -59 19 -77.5t78 -18.5h22v-166h-606z" />
    <glyph glyph-name="i" unicode="i" horiz-adv-x="741" 
d="M207 676v12q0 77 -17.5 93t-74.5 16h-66v170h504v-705q0 -61 17.5 -78.5t74.5 -17.5h51v-166h-647v166h62q59 0 77.5 17.5t18.5 78.5v414zM190 1217q0 70 50 119.5t120 49.5q71 0 120.5 -49.5t49.5 -119.5q0 -71 -49.5 -120.5t-120.5 -49.5q-72 0 -121 48.5t-49 121.5z
" />
    <glyph glyph-name="j" unicode="j" horiz-adv-x="713" 
d="M225 1217q0 70 50 119.5t120 49.5q71 0 120.5 -49.5t49.5 -119.5q0 -71 -49.5 -120.5t-120.5 -49.5q-72 0 -121 48.5t-49 121.5zM578 967v-1049q0 -95 -14 -146t-46 -94q-48 -64 -132.5 -95.5t-211.5 -31.5q-139 0 -226 62.5t-87 159.5q0 68 45.5 112.5t113.5 44.5
q55 0 93.5 -38t38.5 -93q0 -28 -15 -52t-47 -46q24 -9 40.5 -12.5t29.5 -3.5q44 0 61 30.5t17 128.5v832q0 81 -18.5 101t-76.5 20h-61v170h496z" />
    <glyph glyph-name="k" unicode="k" horiz-adv-x="1366" 
d="M526 1374v-846l276 221q9 6 13 13t4 16q0 12 -13.5 17.5t-43.5 5.5q-13 0 -61 -3q-22 -1 -33 -1v170h594l-1 -170q-6 1 -13.5 1.5t-22.5 0.5q-47 0 -83 -14t-77 -48l-127 -104l231 -387q22 -41 52.5 -59.5t76.5 -18.5q13 0 20 0.5t13 1.5v-170h-600v170q66 0 80 6t14 23
q0 16 -17 47l-1 2l-113 194l-168 -135v-45q0 -59 15 -76.5t59 -17.5q4 0 12.5 1t14.5 1v-170h-584v170h45q65 0 80.5 18t15.5 74v825q0 88 -17 104.5t-75 16.5h-49v166h483z" />
    <glyph glyph-name="l" unicode="l" horiz-adv-x="713" 
d="M528 1374v-1112q0 -64 17.5 -80t75.5 -16h55v-166h-645v166h55q59 0 77.5 17.5t18.5 78.5v825q0 81 -16 101t-76 20h-59v166h497z" />
    <glyph glyph-name="m" unicode="m" horiz-adv-x="1939" 
d="M43 0v166h53q59 0 78 18.5t19 77.5v443q0 59 -19 77.5t-78 18.5h-53v166h475v-136q65 86 141 124t185 38t179 -38.5t103 -116.5q68 81 147.5 119t182.5 38q155 0 227 -86.5t72 -273.5v-373q0 -64 19.5 -80t87.5 -16h45v-166h-590v166h8q51 0 70.5 21t19.5 75v373
q0 91 -29.5 132.5t-93.5 41.5q-71 0 -109 -56t-38 -161v-318q0 -73 18.5 -90.5t75.5 -17.5v-166h-532v166q56 0 77 20t21 76v373q0 91 -29.5 132.5t-93.5 41.5q-72 0 -108.5 -57.5t-36.5 -167.5v-322q0 -64 18 -80t76 -16v-166h-588z" />
    <glyph glyph-name="n" unicode="n" horiz-adv-x="1360" 
d="M43 0v166h55q59 0 78 18.5t19 77.5v443q0 59 -19 77.5t-78 18.5h-55v166h477v-150q62 87 149 131.5t193 44.5q176 0 249 -79.5t73 -278.5v-373q0 -59 18.5 -77.5t77.5 -18.5h47v-166h-602v166h23q58 0 77 18.5t19 77.5v373q0 87 -35.5 130.5t-106.5 43.5
q-79 0 -122 -56.5t-43 -162.5v-328q0 -59 18.5 -77.5t77.5 -18.5h20v-166h-610z" />
    <glyph glyph-name="o" unicode="o" horiz-adv-x="1223" 
d="M420 483q0 -194 42.5 -268t147.5 -74q106 0 148.5 73.5t42.5 268.5q0 196 -42.5 270t-148.5 74q-105 0 -147.5 -74t-42.5 -270zM51 483q0 242 149.5 381.5t409.5 139.5q261 0 411 -139.5t150 -381.5q0 -241 -150 -379.5t-411 -138.5t-410 138.5t-149 379.5z" />
    <glyph glyph-name="p" unicode="p" horiz-adv-x="1272" 
d="M518 487q0 -172 39 -252.5t123 -80.5q83 0 121.5 80.5t38.5 252.5q0 171 -39.5 252.5t-120.5 81.5q-80 0 -121 -84t-41 -250zM176 -178v883q0 59 -18.5 77.5t-77.5 18.5h-47v166h469v-131q64 86 138 125.5t169 39.5q196 0 298.5 -131.5t102.5 -382.5
q0 -239 -106.5 -380.5t-284.5 -141.5q-91 0 -165 35.5t-136 108.5v-287q0 -60 19 -78t77 -18h68v-166h-649v166h47q59 0 77.5 18t18.5 78z" />
    <glyph glyph-name="q" unicode="q" horiz-adv-x="1272" 
d="M1096 -178q0 -60 18.5 -78t77.5 -18h47v-166h-649v166h69q59 0 78 18t19 78v287q-62 -73 -137 -108.5t-166 -35.5q-178 0 -284 141t-106 381q0 252 102.5 383t297.5 131q95 0 168.5 -39.5t138.5 -125.5v131h469v-166h-47q-59 0 -77.5 -18.5t-18.5 -77.5v-883zM756 487
q0 165 -42 249.5t-122 84.5q-82 0 -121 -81.5t-39 -252.5q0 -172 38.5 -252.5t121.5 -80.5q84 0 124 81t40 252z" />
    <glyph glyph-name="r" unicode="r" horiz-adv-x="1034" 
d="M37 0v166h61q59 0 78 18.5t19 77.5v443q0 59 -19 77.5t-78 18.5h-61v166h483v-97q54 62 116.5 93.5t129.5 31.5q109 0 172 -61t63 -164q0 -89 -50 -143t-132 -54q-64 0 -106.5 42t-42.5 104q0 47 26 79t74 46q-19 9 -33 12.5t-26 3.5q-76 0 -125 -81t-49 -210v-307
q0 -59 18.5 -77.5t77.5 -18.5h82v-166h-678z" />
    <glyph glyph-name="s" unicode="s" horiz-adv-x="1139" 
d="M233 -10h-145v360h162q36 -99 115 -154t184 -55q72 0 110.5 23.5t38.5 66.5q0 33 -25.5 52t-129.5 47q-17 4 -48 12q-233 61 -313 119q-51 37 -78.5 93t-27.5 122q0 148 120 238t320 90q89 0 168.5 -20t159.5 -62l22 55h146v-309h-146q-52 81 -131 124.5t-174 43.5
q-58 0 -91.5 -23.5t-33.5 -64.5q0 -69 235 -128q64 -16 101 -26q140 -38 215.5 -115t75.5 -182q0 -148 -125.5 -240t-329.5 -92q-85 0 -167.5 23t-176.5 73z" />
    <glyph glyph-name="t" unicode="t" horiz-adv-x="958" 
d="M188 801h-137v153q119 14 188 113.5t83 275.5h202v-376h248v-166h-248v-535q0 -59 19.5 -87.5t58.5 -28.5q49 0 67.5 41.5t18.5 175.5v90h166v-144q0 -180 -82.5 -267t-253.5 -87q-178 0 -254 86.5t-76 298.5v457z" />
    <glyph glyph-name="u" unicode="u" horiz-adv-x="1360" 
d="M1165 967v-705q0 -59 19 -77.5t78 -18.5h57v-166h-479v150q-63 -88 -149.5 -133.5t-190.5 -45.5q-177 0 -250.5 80.5t-73.5 278.5v375q0 59 -18.5 77.5t-77.5 18.5h-47v166h485v-637q0 -87 35 -129.5t106 -42.5q83 0 124.5 58t41.5 175v314q0 59 -18.5 77.5t-77.5 18.5
h-22v166h458z" />
    <glyph glyph-name="v" unicode="v" horiz-adv-x="1200" 
d="M401 0l-213 651q-28 87 -59 116.5t-86 29.5h-23v170h611v-170h-37q-67 0 -81.5 -9.5t-14.5 -35.5q0 -9 3.5 -25t10.5 -35l152 -463l155 449q9 24 14 44t5 32q0 22 -19.5 32.5t-60.5 10.5h-41v170h465v-168h-39q-51 0 -76.5 -22.5t-58.5 -114.5l-234 -662h-373z" />
    <glyph glyph-name="w" unicode="w" horiz-adv-x="1778" 
d="M371 0l-178 639q-30 109 -66 138t-108 30l-1 160h570v-160h-41q-31 0 -47.5 -11.5t-16.5 -33.5q0 -12 5 -38t14 -56l123 -435l131 424q13 43 18.5 68.5t5.5 42.5q0 22 -13 30.5t-56 8.5h-37v160h561v-160h-37q-37 0 -57.5 -13t-20.5 -36q0 -12 4.5 -32.5t12.5 -45.5
l131 -449l139 463q9 27 12.5 42.5t3.5 25.5q0 26 -14 36.5t-49 10.5q-14 0 -22 -0.5t-15 -1.5v160h436v-160q-77 0 -112.5 -25t-59.5 -106l-203 -676h-350l-151 492l-150 -492h-362z" />
    <glyph glyph-name="x" unicode="x" horiz-adv-x="1339" 
d="M584 348l-97 -86q-31 -27 -42 -42t-11 -27q0 -14 18 -21.5t52 -7.5h20v-164h-495v170q5 0 14 -1t14 -1q85 0 186 93q11 10 18 16l214 198l-213 232q-43 46 -87 69t-105 31v160h641v-156q-5 0 -13.5 1t-11.5 1q-28 0 -43.5 -7t-15.5 -20q0 -16 20 -41q6 -7 8 -9l88 -107
l113 112q16 18 22.5 29t6.5 21t-11.5 16t-31.5 6q-9 0 -13.5 -0.5t-9.5 -0.5v155h471v-160h-10q-50 0 -98 -24t-125 -93l-201 -178q178 -216 260.5 -281t155.5 -65q8 0 15.5 0.5t22.5 3.5l1 -170h-699v164q3 0 10.5 -1t10.5 -1q30 0 48.5 11t18.5 28q0 7 -5 17t-13 20z" />
    <glyph glyph-name="y" unicode="y" horiz-adv-x="1219" 
d="M522 -70l-317 752q-31 72 -55 93.5t-60 21.5h-55v170h620v-170h-47q-42 0 -63 -8.5t-21 -24.5q0 -20 23 -72l2 -4l149 -344l131 332l5 10q24 61 24 80q0 16 -17.5 23.5t-56.5 7.5h-47v170h457v-170q-70 -2 -103 -22.5t-65 -100.5l-311 -756q-84 -204 -173.5 -284
t-224.5 -80q-128 0 -209 74t-81 192q0 87 51 139.5t135 52.5q74 0 118 -38.5t44 -102.5t-38.5 -101.5t-105.5 -37.5q-13 0 -20.5 0.5t-13.5 1.5q23 -26 45.5 -37.5t46.5 -11.5q74 0 134 63t99 182z" />
    <glyph glyph-name="z" unicode="z" horiz-adv-x="1010" 
d="M47 0v186l533 613h-119q-146 0 -181.5 -41.5t-35.5 -182.5v-16h-168v408h887v-187l-521 -614h138q123 0 169 43.5t46 159.5q0 23 -0.5 35.5t-1.5 23.5h170v-428h-916z" />
    <glyph glyph-name="braceleft" unicode="{" 
d="M852 1516v-66q-111 -3 -152 -54t-41 -208v-131q0 -227 -50.5 -308.5t-184.5 -113.5q134 -33 184.5 -113.5t50.5 -306.5v-131q0 -158 41 -209.5t152 -55.5v-63h-12q-229 0 -314.5 74t-85.5 272v187q0 168 -54.5 230t-207.5 77v80q153 14 207.5 76.5t54.5 230.5v186
q0 199 85.5 273t314.5 74h12z" />
    <glyph glyph-name="bar" unicode="|" 
d="M393 1565h240v-2048h-240v2048z" />
    <glyph glyph-name="braceright" unicode="}" 
d="M172 1516h12q229 0 314.5 -74t85.5 -273v-186q0 -168 54.5 -230.5t207.5 -76.5v-80q-153 -15 -207.5 -77t-54.5 -230v-187q0 -198 -85.5 -272t-314.5 -74h-12v63q111 4 152 55.5t41 209.5v131q0 226 50.5 306.5t184.5 113.5q-134 34 -184.5 115t-50.5 307v131
q0 157 -41 208t-152 54v66z" />
    <glyph glyph-name="asciitilde" unicode="~" horiz-adv-x="1706" 
d="M1530 819v-254q-101 -69 -194 -103t-183 -34q-45 0 -89 7.5t-83 21.5q-13 4 -38 13q-255 89 -382 89q-84 0 -175.5 -37.5t-207.5 -120.5v254q112 73 207.5 108.5t179.5 35.5q63 0 126.5 -12t169.5 -46q16 -5 51 -17q159 -56 247 -56q84 0 173.5 36t197.5 115z" />
    <glyph glyph-name="Adieresis" unicode="&#xc4;" horiz-adv-x="1466" 
d="M797 621l-138 434l-141 -434h279zM-27 0v180h50q67 0 98 21.5t61 111.5l353 1061h409l338 -1067q26 -78 54.5 -102.5t86.5 -24.5h70v-180h-758v180h58q74 0 99.5 10.5t25.5 38.5q-1 9 -7 29q-3 10 -4 15l-53 169h-395l-52 -158q-4 -14 -7 -29t-3 -26q0 -28 21 -38.5
t90 -10.5h67v-180h-602zM807 1727q0 63 48 111.5t112 48.5q67 0 114.5 -47t47.5 -113q0 -70 -46 -116t-116 -46q-68 0 -114 46.5t-46 115.5zM369 1727q0 63 49 111.5t113 48.5q67 0 113.5 -46.5t46.5 -113.5q0 -71 -45.5 -116.5t-114.5 -45.5q-68 0 -115 46.5t-47 115.5z
" />
    <glyph glyph-name="Aring" unicode="&#xc5;" horiz-adv-x="1466" 
d="M616 1696q0 -52 34 -85.5t85 -33.5q49 0 84 35t35 84t-35.5 85t-83.5 36q-49 0 -84 -36t-35 -85zM459 1696q0 115 80.5 195.5t195.5 80.5t196 -80.5t81 -195.5t-80.5 -195t-196.5 -80q-115 0 -195.5 80t-80.5 195zM797 621l-138 434l-141 -434h279zM-27 0v180h50
q66 0 97 21.5t62 111.5l353 1043h409l338 -1049q26 -78 54.5 -102.5t86.5 -24.5h70v-180h-758v180h58q74 0 99.5 10.5t25.5 38.5q-1 9 -7 29q-3 10 -4 15l-53 169h-395l-52 -158q-4 -14 -7 -29t-3 -26q0 -28 21 -38.5t90 -10.5h67v-180h-602z" />
    <glyph glyph-name="Ccedilla" unicode="&#xc7;" horiz-adv-x="1507" 
d="M1194 532h217q-8 -284 -162 -428.5t-450 -144.5q-334 0 -532.5 198t-198.5 531q0 166 51 297t157 236q102 100 224.5 147t281.5 47q112 0 210.5 -32.5t189.5 -100.5l41 109h188v-560h-201q-12 181 -103.5 282t-242.5 101q-165 0 -257.5 -137.5t-92.5 -386.5
q0 -253 91.5 -389.5t260.5 -136.5q144 0 230.5 97.5t97.5 270.5zM442 -387l52 108q69 -40 133.5 -60.5t122.5 -20.5q39 0 62.5 21.5t23.5 57.5q0 43 -25 64.5t-74 21.5q-15 0 -52 -6q-7 -1 -11 -2v203h92v-109q18 5 36 7t38 2q91 0 142.5 -48.5t51.5 -134.5
q0 -92 -64.5 -146t-174.5 -54q-65 0 -147 22t-206 74z" />
    <glyph glyph-name="Eacute" unicode="&#xc9;" horiz-adv-x="1532" 
d="M39 0v180h76q80 0 102.5 20t22.5 99v776q0 80 -22.5 99.5t-102.5 19.5h-76v180h1358v-524h-180q-17 120 -40 181.5t-61 96.5q-38 36 -98 51t-215 15h-178v-391h34q114 0 152.5 43t38.5 174h172v-627l-172 1q-3 143 -38 186t-153 43h-34v-443h184q226 0 305.5 78
t102.5 309h180v-567h-1358zM531 1514l295 313q54 58 90 79.5t76 21.5q49 0 81.5 -33t32.5 -82q0 -38 -25.5 -68t-82.5 -59l-346 -172h-121z" />
    <glyph glyph-name="Ntilde" unicode="&#xd1;" horiz-adv-x="1675" 
d="M238 1075q0 78 -23 98.5t-104 20.5h-72v180h657l527 -958v659q0 78 -23 98.5t-104 20.5h-78v180h627v-180h-64q-81 0 -104 -20.5t-23 -98.5v-1075h-422l-563 1022v-723q0 -78 23 -98.5t104 -20.5h78v-180h-635v180h72q81 0 104 20.5t23 98.5v776zM602 1545h-88
q26 141 87.5 211.5t158.5 70.5q19 0 39.5 -3t44.5 -9l127 -33q22 -5 32 -6.5t17 -1.5q38 0 61 22.5t39 75.5h88q-27 -139 -88.5 -210.5t-153.5 -71.5q-15 0 -33 2.5t-41 7.5l-122 35q-24 5 -38.5 7.5t-23.5 2.5q-41 0 -68 -25.5t-38 -74.5z" />
    <glyph glyph-name="Odieresis" unicode="&#xd6;" horiz-adv-x="1677" 
d="M514 686q0 -281 78 -410t248 -129q169 0 247 129t78 410t-78 410t-247 129q-170 0 -248 -129t-78 -410zM68 686q0 340 205.5 534.5t566.5 194.5q359 0 564.5 -194t205.5 -535q0 -340 -205 -533.5t-565 -193.5q-361 0 -566.5 194t-205.5 533zM897 1727q0 63 48 111.5
t112 48.5q67 0 114.5 -47t47.5 -113q0 -70 -46 -116t-116 -46q-68 0 -114 46.5t-46 115.5zM459 1727q0 63 49 111.5t113 48.5q67 0 113.5 -46.5t46.5 -113.5q0 -71 -45.5 -116.5t-114.5 -45.5q-68 0 -115 46.5t-47 115.5z" />
    <glyph glyph-name="Udieresis" unicode="&#xdc;" horiz-adv-x="1579" 
d="M39 1201v173h778v-174q-13 1 -28 1.5t-41 0.5q-84 0 -112 -31t-28 -172v-550q0 -157 54.5 -222t181.5 -65q152 0 217 62t65 208v557q0 140 -28.5 176.5t-116.5 36.5q-21 0 -32.5 -0.5t-20.5 -1.5v174h612v-174q-78 0 -119 -7.5t-55 -25.5q-9 -10 -12.5 -41t-3.5 -139
v-581q0 -220 -147 -334.5t-429 -114.5q-258 0 -401.5 113.5t-143.5 318.5v604q0 128 -27.5 168.5t-103.5 40.5q-22 0 -35 -0.5t-24 -0.5zM921 1727q0 63 48 111.5t112 48.5q67 0 114.5 -47t47.5 -113q0 -70 -46 -116t-116 -46q-68 0 -114 46.5t-46 115.5zM483 1727
q0 63 49 111.5t113 48.5q67 0 113.5 -46.5t46.5 -113.5q0 -71 -45.5 -116.5t-114.5 -45.5q-68 0 -115 46.5t-47 115.5z" />
    <glyph glyph-name="aacute" unicode="&#xe1;" horiz-adv-x="1262" 
d="M707 113q-65 -76 -148.5 -113t-187.5 -37q-142 0 -226 75.5t-84 201.5q0 117 68 179.5t283 108.5q182 39 228 76.5t46 110.5q0 70 -56 112.5t-151 42.5q-52 0 -89 -9.5t-66 -30.5q54 -4 87 -36t33 -79q0 -58 -45 -95.5t-116 -37.5q-80 0 -128.5 43t-48.5 112
q0 125 122.5 194.5t342.5 69.5q108 0 196 -19.5t138 -53.5q58 -40 81.5 -89.5t23.5 -166.5v-27v-373q0 -47 12.5 -69.5t40.5 -22.5t39.5 21t11.5 71v84h123v-94q0 -155 -68 -227t-215 -72q-96 0 -158.5 38t-88.5 112zM680 477q-39 -20 -106 -52q-160 -78 -160 -146
q0 -49 34 -79t89 -30q67 0 105 43t38 121v143zM365 1102l295 313q54 58 90 79.5t76 21.5q49 0 81.5 -33t32.5 -82q0 -38 -25.5 -68t-82.5 -59l-346 -172h-121z" />
    <glyph glyph-name="agrave" unicode="&#xe0;" horiz-adv-x="1262" 
d="M707 113q-65 -76 -148.5 -113t-187.5 -37q-142 0 -226 75.5t-84 201.5q0 117 68 179.5t283 108.5q182 39 228 76.5t46 110.5q0 70 -56 112.5t-151 42.5q-52 0 -89 -9.5t-66 -30.5q54 -4 87 -36t33 -79q0 -58 -45 -95.5t-116 -37.5q-80 0 -128.5 43t-48.5 112
q0 125 122.5 194.5t342.5 69.5q108 0 196 -19.5t138 -53.5q58 -40 81.5 -89.5t23.5 -166.5v-27v-373q0 -47 12.5 -69.5t40.5 -22.5t39.5 21t11.5 71v84h123v-94q0 -155 -68 -227t-215 -72q-96 0 -158.5 38t-88.5 112zM680 477q-39 -20 -106 -52q-160 -78 -160 -146
q0 -49 34 -79t89 -30q67 0 105 43t38 121v143zM815 1102h-121l-346 172q-59 29 -83.5 58.5t-24.5 68.5q0 49 32.5 82t81.5 33q39 0 76.5 -22.5t89.5 -78.5z" />
    <glyph glyph-name="acircumflex" unicode="&#xe2;" horiz-adv-x="1262" 
d="M707 113q-65 -76 -148.5 -113t-187.5 -37q-142 0 -226 75.5t-84 201.5q0 117 68 179.5t283 108.5q182 39 228 76.5t46 110.5q0 70 -56 112.5t-151 42.5q-52 0 -89 -9.5t-66 -30.5q54 -4 87 -36t33 -79q0 -58 -45 -95.5t-116 -37.5q-80 0 -128.5 43t-48.5 112
q0 125 122.5 194.5t342.5 69.5q108 0 196 -19.5t138 -53.5q58 -40 81.5 -89.5t23.5 -166.5v-27v-373q0 -47 12.5 -69.5t40.5 -22.5t39.5 21t11.5 71v84h123v-94q0 -155 -68 -227t-215 -72q-96 0 -158.5 38t-88.5 112zM680 477q-39 -20 -106 -52q-160 -78 -160 -146
q0 -49 34 -79t89 -30q67 0 105 43t38 121v143zM250 1100l242 393h196l242 -393h-107l-233 182l-233 -182h-107z" />
    <glyph glyph-name="adieresis" unicode="&#xe4;" horiz-adv-x="1262" 
d="M707 113q-65 -76 -148.5 -113t-187.5 -37q-142 0 -226 75.5t-84 201.5q0 117 68 179.5t283 108.5q182 39 228 76.5t46 110.5q0 70 -56 112.5t-151 42.5q-52 0 -89 -9.5t-66 -30.5q54 -4 87 -36t33 -79q0 -58 -45 -95.5t-116 -37.5q-80 0 -128.5 43t-48.5 112
q0 125 122.5 194.5t342.5 69.5q108 0 196 -19.5t138 -53.5q58 -40 81.5 -89.5t23.5 -166.5v-27v-373q0 -47 12.5 -69.5t40.5 -22.5t39.5 21t11.5 71v84h123v-94q0 -155 -68 -227t-215 -72q-96 0 -158.5 38t-88.5 112zM680 477q-39 -20 -106 -52q-160 -78 -160 -146
q0 -49 34 -79t89 -30q67 0 105 43t38 121v143zM647 1315q0 63 48 111.5t112 48.5q67 0 114.5 -47t47.5 -113q0 -70 -46 -116t-116 -46q-68 0 -114 46.5t-46 115.5zM209 1315q0 63 49 111.5t113 48.5q67 0 113.5 -46.5t46.5 -113.5q0 -71 -45.5 -116.5t-114.5 -45.5
q-68 0 -115 46.5t-47 115.5z" />
    <glyph glyph-name="atilde" unicode="&#xe3;" horiz-adv-x="1262" 
d="M707 113q-65 -76 -148.5 -113t-187.5 -37q-142 0 -226 75.5t-84 201.5q0 117 68 179.5t283 108.5q182 39 228 76.5t46 110.5q0 70 -56 112.5t-151 42.5q-52 0 -89 -9.5t-66 -30.5q54 -4 87 -36t33 -79q0 -58 -45 -95.5t-116 -37.5q-80 0 -128.5 43t-48.5 112
q0 125 122.5 194.5t342.5 69.5q108 0 196 -19.5t138 -53.5q58 -40 81.5 -89.5t23.5 -166.5v-27v-373q0 -47 12.5 -69.5t40.5 -22.5t39.5 21t11.5 71v84h123v-94q0 -155 -68 -227t-215 -72q-96 0 -158.5 38t-88.5 112zM680 477q-39 -20 -106 -52q-160 -78 -160 -146
q0 -49 34 -79t89 -30q67 0 105 43t38 121v143zM330 1133h-88q26 141 87.5 211.5t158.5 70.5q19 0 39.5 -3t44.5 -9l127 -33q22 -5 32 -6.5t17 -1.5q38 0 61 22.5t39 75.5h88q-27 -139 -88.5 -210.5t-153.5 -71.5q-15 0 -33 2.5t-41 7.5l-122 35q-24 5 -38.5 7.5t-23.5 2.5
q-41 0 -68 -25.5t-38 -74.5z" />
    <glyph glyph-name="aring" unicode="&#xe5;" horiz-adv-x="1262" 
d="M459 1352q0 -54 35.5 -89.5t89.5 -35.5q52 0 88.5 36t36.5 89q0 51 -37 88t-88 37q-53 0 -89 -36.5t-36 -88.5zM303 1352q0 118 81 199t200 81q118 0 200 -81t82 -199q0 -119 -82 -201t-200 -82t-199.5 82t-81.5 201zM707 113q-65 -76 -148.5 -113t-187.5 -37
q-142 0 -226 75.5t-84 201.5q0 117 68 179.5t283 108.5q182 39 228 76.5t46 110.5q0 70 -56 112.5t-151 42.5q-52 0 -89 -9.5t-66 -30.5q54 -4 87 -36t33 -79q0 -58 -45 -95.5t-116 -37.5q-80 0 -128.5 43t-48.5 112q0 125 122.5 194.5t342.5 69.5q108 0 196 -19.5
t138 -53.5q58 -40 81.5 -89.5t23.5 -166.5v-27v-373q0 -47 12.5 -69.5t40.5 -22.5t39.5 21t11.5 71v84h123v-94q0 -155 -68 -227t-215 -72q-96 0 -158.5 38t-88.5 112zM680 477q-39 -20 -106 -52q-160 -78 -160 -146q0 -49 34 -79t89 -30q67 0 105 43t38 121v143z" />
    <glyph glyph-name="ccedilla" unicode="&#xe7;" horiz-adv-x="1028" 
d="M760 340h214q-9 -180 -119 -277.5t-304 -97.5q-240 0 -372 136.5t-132 383.5q0 240 137 379.5t373 139.5q193 0 309.5 -92t116.5 -242q0 -96 -56 -152.5t-151 -56.5q-77 0 -123.5 44t-46.5 118q0 71 41 111t113 40h4q-30 30 -63 43.5t-74 13.5q-109 0 -164 -84t-55 -251
q0 -175 46 -258.5t142 -83.5q77 0 118 47t46 139zM196 -387l52 108q69 -40 133.5 -60.5t122.5 -20.5q39 0 62.5 21.5t23.5 57.5q0 43 -25 64.5t-74 21.5q-15 0 -52 -6q-7 -1 -11 -2v203h92v-109q18 5 36 7t38 2q91 0 142.5 -48.5t51.5 -134.5q0 -92 -64.5 -146t-174.5 -54
q-65 0 -147 22t-206 74z" />
    <glyph glyph-name="eacute" unicode="&#xe9;" horiz-adv-x="1135" 
d="M420 607l315 -1v8q0 102 -40.5 154.5t-119.5 52.5q-73 0 -113 -55t-42 -159zM821 327l244 1q-46 -180 -169.5 -271.5t-320.5 -91.5q-233 0 -375.5 140t-142.5 368q0 243 137.5 383.5t372.5 140.5q243 0 378.5 -137t135.5 -383v-37h-665v-16q0 -133 49.5 -199.5
t148.5 -66.5q91 0 144.5 44t62.5 125zM342 1102l295 313q54 58 90 79.5t76 21.5q49 0 81.5 -33t32.5 -82q0 -38 -25.5 -68t-82.5 -59l-346 -172h-121z" />
    <glyph glyph-name="egrave" unicode="&#xe8;" horiz-adv-x="1135" 
d="M420 607l315 -1v8q0 102 -40.5 154.5t-119.5 52.5q-73 0 -113 -55t-42 -159zM821 327l244 1q-46 -180 -169.5 -271.5t-320.5 -91.5q-233 0 -375.5 140t-142.5 368q0 243 137.5 383.5t372.5 140.5q243 0 378.5 -137t135.5 -383v-37h-665v-16q0 -133 49.5 -199.5
t148.5 -66.5q91 0 144.5 44t62.5 125zM792 1102h-121l-346 172q-59 29 -83.5 58.5t-24.5 68.5q0 49 32.5 82t81.5 33q39 0 76.5 -22.5t89.5 -78.5z" />
    <glyph glyph-name="ecircumflex" unicode="&#xea;" horiz-adv-x="1135" 
d="M420 607l315 -1v8q0 102 -40.5 154.5t-119.5 52.5q-73 0 -113 -55t-42 -159zM821 327l244 1q-46 -180 -169.5 -271.5t-320.5 -91.5q-233 0 -375.5 140t-142.5 368q0 243 137.5 383.5t372.5 140.5q243 0 378.5 -137t135.5 -383v-37h-665v-16q0 -133 49.5 -199.5
t148.5 -66.5q91 0 144.5 44t62.5 125zM227 1100l242 393h196l242 -393h-107l-233 182l-233 -182h-107z" />
    <glyph glyph-name="edieresis" unicode="&#xeb;" horiz-adv-x="1135" 
d="M420 607l315 -1v8q0 102 -40.5 154.5t-119.5 52.5q-73 0 -113 -55t-42 -159zM821 327l244 1q-46 -180 -169.5 -271.5t-320.5 -91.5q-233 0 -375.5 140t-142.5 368q0 243 137.5 383.5t372.5 140.5q243 0 378.5 -137t135.5 -383v-37h-665v-16q0 -133 49.5 -199.5
t148.5 -66.5q91 0 144.5 44t62.5 125zM624 1315q0 63 48 111.5t112 48.5q67 0 114.5 -47t47.5 -113q0 -70 -46 -116t-116 -46q-68 0 -114 46.5t-46 115.5zM186 1315q0 63 49 111.5t113 48.5q67 0 113.5 -46.5t46.5 -113.5q0 -71 -45.5 -116.5t-114.5 -45.5q-68 0 -115 46.5
t-47 115.5z" />
    <glyph glyph-name="iacute" unicode="&#xed;" horiz-adv-x="741" 
d="M207 676v12q0 77 -17.5 93t-74.5 16h-66v170h504v-705q0 -61 17.5 -78.5t74.5 -17.5h51v-166h-647v166h62q59 0 77.5 17.5t18.5 78.5v414zM137 1102l295 313q54 58 90 79.5t76 21.5q49 0 81.5 -33t32.5 -82q0 -38 -25.5 -68t-82.5 -59l-346 -172h-121z" />
    <glyph glyph-name="igrave" unicode="&#xec;" horiz-adv-x="741" 
d="M207 676v12q0 77 -17.5 93t-74.5 16h-66v170h504v-705q0 -61 17.5 -78.5t74.5 -17.5h51v-166h-647v166h62q59 0 77.5 17.5t18.5 78.5v414zM587 1102h-121l-346 172q-59 29 -83.5 58.5t-24.5 68.5q0 49 32.5 82t81.5 33q39 0 76.5 -22.5t89.5 -78.5z" />
    <glyph glyph-name="icircumflex" unicode="&#xee;" horiz-adv-x="741" 
d="M207 676v12q0 77 -17.5 93t-74.5 16h-66v170h504v-705q0 -61 17.5 -78.5t74.5 -17.5h51v-166h-647v166h62q59 0 77.5 17.5t18.5 78.5v414zM22 1100l242 393h196l242 -393h-107l-233 182l-233 -182h-107z" />
    <glyph glyph-name="idieresis" unicode="&#xef;" horiz-adv-x="741" 
d="M207 676v12q0 77 -17.5 93t-74.5 16h-66v170h504v-705q0 -61 17.5 -78.5t74.5 -17.5h51v-166h-647v166h62q59 0 77.5 17.5t18.5 78.5v414zM419 1315q0 63 48 111.5t112 48.5q67 0 114.5 -47t47.5 -113q0 -70 -46 -116t-116 -46q-68 0 -114 46.5t-46 115.5zM-19 1315
q0 63 49 111.5t113 48.5q67 0 113.5 -46.5t46.5 -113.5q0 -71 -45.5 -116.5t-114.5 -45.5q-68 0 -115 46.5t-47 115.5z" />
    <glyph glyph-name="ntilde" unicode="&#xf1;" horiz-adv-x="1360" 
d="M43 0v166h55q59 0 78 18.5t19 77.5v443q0 59 -19 77.5t-78 18.5h-55v166h477v-150q62 87 149 131.5t193 44.5q176 0 249 -79.5t73 -278.5v-373q0 -59 18.5 -77.5t77.5 -18.5h47v-166h-602v166h23q58 0 77 18.5t19 77.5v373q0 87 -35.5 130.5t-106.5 43.5
q-79 0 -122 -56.5t-43 -162.5v-328q0 -59 18.5 -77.5t77.5 -18.5h20v-166h-610zM420 1133h-88q26 141 87.5 211.5t158.5 70.5q19 0 39.5 -3t44.5 -9l127 -33q22 -5 32 -6.5t17 -1.5q38 0 61 22.5t39 75.5h88q-27 -139 -88.5 -210.5t-153.5 -71.5q-15 0 -33 2.5t-41 7.5
l-122 35q-24 5 -38.5 7.5t-23.5 2.5q-41 0 -68 -25.5t-38 -74.5z" />
    <glyph glyph-name="oacute" unicode="&#xf3;" horiz-adv-x="1223" 
d="M420 483q0 -194 42.5 -268t147.5 -74q106 0 148.5 73.5t42.5 268.5q0 196 -42.5 270t-148.5 74q-105 0 -147.5 -74t-42.5 -270zM51 483q0 242 149.5 381.5t409.5 139.5q261 0 411 -139.5t150 -381.5q0 -241 -150 -379.5t-411 -138.5t-410 138.5t-149 379.5zM387 1102
l295 313q54 58 90 79.5t76 21.5q49 0 81.5 -33t32.5 -82q0 -38 -25.5 -68t-82.5 -59l-346 -172h-121z" />
    <glyph glyph-name="ograve" unicode="&#xf2;" horiz-adv-x="1223" 
d="M420 483q0 -194 42.5 -268t147.5 -74q106 0 148.5 73.5t42.5 268.5q0 196 -42.5 270t-148.5 74q-105 0 -147.5 -74t-42.5 -270zM51 483q0 242 149.5 381.5t409.5 139.5q261 0 411 -139.5t150 -381.5q0 -241 -150 -379.5t-411 -138.5t-410 138.5t-149 379.5zM837 1102
h-121l-346 172q-59 29 -83.5 58.5t-24.5 68.5q0 49 32.5 82t81.5 33q39 0 76.5 -22.5t89.5 -78.5z" />
    <glyph glyph-name="ocircumflex" unicode="&#xf4;" horiz-adv-x="1223" 
d="M420 483q0 -194 42.5 -268t147.5 -74q106 0 148.5 73.5t42.5 268.5q0 196 -42.5 270t-148.5 74q-105 0 -147.5 -74t-42.5 -270zM51 483q0 242 149.5 381.5t409.5 139.5q261 0 411 -139.5t150 -381.5q0 -241 -150 -379.5t-411 -138.5t-410 138.5t-149 379.5zM272 1100
l242 393h196l242 -393h-107l-233 182l-233 -182h-107z" />
    <glyph glyph-name="odieresis" unicode="&#xf6;" horiz-adv-x="1223" 
d="M420 483q0 -194 42.5 -268t147.5 -74q106 0 148.5 73.5t42.5 268.5q0 196 -42.5 270t-148.5 74q-105 0 -147.5 -74t-42.5 -270zM51 483q0 242 149.5 381.5t409.5 139.5q261 0 411 -139.5t150 -381.5q0 -241 -150 -379.5t-411 -138.5t-410 138.5t-149 379.5zM669 1315
q0 63 48 111.5t112 48.5q67 0 114.5 -47t47.5 -113q0 -70 -46 -116t-116 -46q-68 0 -114 46.5t-46 115.5zM231 1315q0 63 49 111.5t113 48.5q67 0 113.5 -46.5t46.5 -113.5q0 -71 -45.5 -116.5t-114.5 -45.5q-68 0 -115 46.5t-47 115.5z" />
    <glyph glyph-name="otilde" unicode="&#xf5;" horiz-adv-x="1223" 
d="M420 483q0 -194 42.5 -268t147.5 -74q106 0 148.5 73.5t42.5 268.5q0 196 -42.5 270t-148.5 74q-105 0 -147.5 -74t-42.5 -270zM51 483q0 242 149.5 381.5t409.5 139.5q261 0 411 -139.5t150 -381.5q0 -241 -150 -379.5t-411 -138.5t-410 138.5t-149 379.5zM352 1133h-88
q26 141 87.5 211.5t158.5 70.5q19 0 39.5 -3t44.5 -9l127 -33q22 -5 32 -6.5t17 -1.5q38 0 61 22.5t39 75.5h88q-27 -139 -88.5 -210.5t-153.5 -71.5q-15 0 -33 2.5t-41 7.5l-122 35q-24 5 -38.5 7.5t-23.5 2.5q-41 0 -68 -25.5t-38 -74.5z" />
    <glyph glyph-name="uacute" unicode="&#xfa;" horiz-adv-x="1360" 
d="M1165 967v-705q0 -59 19 -77.5t78 -18.5h57v-166h-479v150q-63 -88 -149.5 -133.5t-190.5 -45.5q-177 0 -250.5 80.5t-73.5 278.5v375q0 59 -18.5 77.5t-77.5 18.5h-47v166h485v-637q0 -87 35 -129.5t106 -42.5q83 0 124.5 58t41.5 175v314q0 59 -18.5 77.5t-77.5 18.5
h-22v166h458zM416 1102l295 313q54 58 90 79.5t76 21.5q49 0 81.5 -33t32.5 -82q0 -38 -25.5 -68t-82.5 -59l-346 -172h-121z" />
    <glyph glyph-name="ugrave" unicode="&#xf9;" horiz-adv-x="1360" 
d="M1165 967v-705q0 -59 19 -77.5t78 -18.5h57v-166h-479v150q-63 -88 -149.5 -133.5t-190.5 -45.5q-177 0 -250.5 80.5t-73.5 278.5v375q0 59 -18.5 77.5t-77.5 18.5h-47v166h485v-637q0 -87 35 -129.5t106 -42.5q83 0 124.5 58t41.5 175v314q0 59 -18.5 77.5t-77.5 18.5
h-22v166h458zM866 1102h-121l-346 172q-59 29 -83.5 58.5t-24.5 68.5q0 49 32.5 82t81.5 33q39 0 76.5 -22.5t89.5 -78.5z" />
    <glyph glyph-name="ucircumflex" unicode="&#xfb;" horiz-adv-x="1360" 
d="M1165 967v-705q0 -59 19 -77.5t78 -18.5h57v-166h-479v150q-63 -88 -149.5 -133.5t-190.5 -45.5q-177 0 -250.5 80.5t-73.5 278.5v375q0 59 -18.5 77.5t-77.5 18.5h-47v166h485v-637q0 -87 35 -129.5t106 -42.5q83 0 124.5 58t41.5 175v314q0 59 -18.5 77.5t-77.5 18.5
h-22v166h458zM301 1100l242 393h196l242 -393h-107l-233 182l-233 -182h-107z" />
    <glyph glyph-name="udieresis" unicode="&#xfc;" horiz-adv-x="1360" 
d="M1165 967v-705q0 -59 19 -77.5t78 -18.5h57v-166h-479v150q-63 -88 -149.5 -133.5t-190.5 -45.5q-177 0 -250.5 80.5t-73.5 278.5v375q0 59 -18.5 77.5t-77.5 18.5h-47v166h485v-637q0 -87 35 -129.5t106 -42.5q83 0 124.5 58t41.5 175v314q0 59 -18.5 77.5t-77.5 18.5
h-22v166h458zM698 1315q0 63 48 111.5t112 48.5q67 0 114.5 -47t47.5 -113q0 -70 -46 -116t-116 -46q-68 0 -114 46.5t-46 115.5zM260 1315q0 63 49 111.5t113 48.5q67 0 113.5 -46.5t46.5 -113.5q0 -71 -45.5 -116.5t-114.5 -45.5q-68 0 -115 46.5t-47 115.5z" />
    <glyph glyph-name="dagger" unicode="&#x2020;" horiz-adv-x="1255" 
d="M567 850q-4 83 -43 220t-39 198q0 77 37.5 114t114.5 37q68 0 102.5 -38t34.5 -113q0 -61 -39 -198t-43 -220q50 12 141 48t132 36q73 0 114 -37.5t41 -103.5q0 -64 -36.5 -103t-96.5 -39q-62 0 -161.5 38.5t-134.5 47.5q-1 -211 41 -522t42 -412q0 -108 -37 -160.5
t-114 -52.5q-67 0 -102.5 55t-35.5 158q0 101 42 412t42 522q-35 -9 -133.5 -47.5t-161.5 -38.5q-60 0 -97.5 39t-37.5 103q0 66 42 103.5t116 37.5q40 0 130.5 -36t139.5 -48z" />
    <glyph glyph-name="degree" unicode="&#xb0;" horiz-adv-x="674" 
d="M338 1321q-69 0 -117.5 -48t-48.5 -116q0 -70 48 -118t118 -48q68 0 116 49t48 117t-48 116t-116 48zM338 1466q129 0 220 -91t91 -220q0 -128 -91.5 -219.5t-221.5 -91.5q-129 0 -219 90.5t-90 220.5q0 131 90.5 221t220.5 90z" />
    <glyph glyph-name="cent" unicode="&#xa2;" horiz-adv-x="1300" 
d="M561 299l174 336q20 69 55 104.5t91 42.5q-26 26 -55.5 39t-63.5 13q-108 0 -164.5 -88t-56.5 -254q0 -55 5 -102.5t15 -90.5zM897 336l217 -1q-5 -172 -123 -274t-315 -102q-36 0 -70 4t-71 12l-115 -227h-139l135 268q-114 66 -177 186.5t-63 274.5q0 249 136.5 385.5
t385.5 136.5q60 0 110 -9t93 -27l86 163h141l-118 -227q54 -41 83 -101.5t29 -131.5q0 -98 -56.5 -153.5t-156.5 -55.5q-28 0 -55.5 8t-54.5 24l-160 -315q21 -17 40 -25t38 -8q80 0 127 51t53 144z" />
    <glyph glyph-name="sterling" unicode="&#xa3;" horiz-adv-x="1300" 
d="M121 -33l-66 223q101 65 148 133.5t47 149.5q0 19 -2 37.5t-6 36.5h-187v162h142q-24 54 -35.5 100t-11.5 86q0 177 138 282t374 105q226 0 362.5 -88.5t136.5 -230.5q0 -81 -50.5 -131t-131.5 -50q-72 0 -119 43.5t-47 108.5q0 45 22.5 78.5t67.5 56.5q-38 28 -79 41.5
t-91 13.5q-102 0 -162.5 -49.5t-60.5 -132.5q0 -34 9.5 -85.5t35.5 -147.5h250v-162h-238q-10 -84 -53.5 -151.5t-124.5 -125.5l2 -4q84 35 135 48.5t90 13.5q70 0 167 -38t126 -38q62 0 86.5 37t26.5 139h161q2 -13 2.5 -27.5t0.5 -42.5q0 -187 -82 -288t-236 -101
q-37 0 -80 9t-116 32q-22 7 -65 22q-136 48 -206 48q-61 0 -130 -28t-150 -85z" />
    <glyph glyph-name="section" unicode="&#xa7;" horiz-adv-x="1276" 
d="M426 -238q46 -26 88.5 -38.5t87.5 -12.5q121 0 194.5 48t73.5 124q0 41 -14 71.5t-43 53.5q-53 42 -212 97q-75 26 -116 42q-203 79 -277.5 158.5t-74.5 206.5q0 95 55.5 171.5t159.5 125.5q-70 49 -106.5 115t-36.5 145q0 153 125.5 251.5t324.5 98.5q179 0 295.5 -72.5
t116.5 -181.5q0 -67 -43.5 -113t-108.5 -46q-63 0 -103 35.5t-40 91.5q0 29 13 51.5t40 42.5q-40 26 -82.5 38.5t-93.5 12.5q-98 0 -155.5 -43t-57.5 -115q0 -93 209 -165q74 -25 117 -42q230 -90 307.5 -170.5t77.5 -207.5q0 -95 -54 -169t-163 -130q90 -58 132 -128
t42 -161q0 -177 -126.5 -279t-348.5 -102q-194 0 -313 81t-119 210q0 74 43.5 120t113.5 46q71 0 113.5 -36.5t42.5 -97.5q0 -39 -21 -70t-63 -57zM768 319q69 0 113.5 42t44.5 104q0 44 -26.5 77t-90.5 66q-93 48 -182.5 78.5t-128.5 30.5q-64 0 -107 -42.5t-43 -101.5
q0 -47 28 -81t99 -70q88 -45 174.5 -74t118.5 -29z" />
    <glyph glyph-name="bullet" unicode="&#x2022;" horiz-adv-x="1208" 
d="M307 762q0 123 87 209t210 86q122 0 208.5 -86.5t86.5 -208.5t-87.5 -209.5t-209.5 -87.5q-123 0 -209 87t-86 210z" />
    <glyph glyph-name="paragraph" unicode="&#xb6;" 
d="M997 1479v-123h-106v-1356h-176v1356h-150v-1356h-174v784q-164 6 -263 101t-99 245q0 158 106 253.5t283 95.5h579z" />
    <glyph glyph-name="germandbls" unicode="&#xdf;" horiz-adv-x="1278" 
d="M39 0v172h12q71 0 94 19t23 100v39v598q0 147 22.5 223.5t75.5 132.5q65 67 161 99t230 32q223 0 343 -76t120 -217q0 -106 -63 -175.5t-187 -98.5q166 -37 248 -139.5t82 -272.5q0 -207 -101 -335t-263 -128q-124 0 -189 66.5t-65 191.5v129h147v-129q0 -42 14.5 -63
t44.5 -21q33 0 45.5 31t12.5 137v74q0 224 -48.5 291.5t-179.5 67.5h-12v167h6q86 0 132.5 48t46.5 137q0 72 -38 111.5t-106 39.5q-82 0 -114.5 -48.5t-32.5 -196.5v-1006h-461z" />
    <glyph glyph-name="registered" unicode="&#xae;" horiz-adv-x="1683" 
d="M772 728q8 -2 16 -2.5t23 -0.5q85 0 127.5 43.5t42.5 130.5q0 62 -38.5 103.5t-98.5 41.5q-37 0 -54.5 -15.5t-17.5 -47.5v-253zM463 1100h405q147 0 236.5 -56t89.5 -145q0 -87 -64.5 -136.5t-211.5 -74.5q116 -23 172.5 -87.5t56.5 -172.5q0 -48 10 -68t33 -20
q25 0 39 31t14 88v12h55q0 -5 1 -15t1 -14q0 -90 -47 -135t-141 -45q-45 0 -80 13t-55 36q-32 37 -36 134q-2 43 -5 65q-13 87 -47.5 124.5t-100.5 37.5h-16v-244q0 -45 18 -63.5t70 -26.5v-57h-397v57q57 5 77.5 24t20.5 66v524q0 47 -19 65.5t-79 26.5v56zM844 1311
q-127 0 -244.5 -49t-204.5 -138q-88 -90 -135 -204.5t-47 -241.5q0 -130 47 -244t137 -203q93 -91 205.5 -137.5t239.5 -46.5t240.5 47.5t201.5 136.5q89 91 137.5 207.5t48.5 239.5q0 125 -49 243.5t-137 204.5q-89 88 -204 136.5t-236 48.5zM844 1423q150 0 291 -60
t245 -169q99 -102 152 -240t53 -292q0 -141 -63 -280.5t-176 -246.5q-102 -97 -232 -149t-272 -52q-109 0 -212.5 31.5t-197.5 91.5q-159 107 -246.5 269.5t-87.5 351.5q0 149 56 284t161 240q105 106 242.5 163.5t286.5 57.5z" />
    <glyph glyph-name="copyright" unicode="&#xa9;" horiz-adv-x="1683" 
d="M1128 1104h50v-330h-52q-29 130 -98 201.5t-164 71.5q-112 0 -167.5 -91t-55.5 -272q0 -182 61 -278.5t177 -96.5q76 0 143.5 44.5t124.5 131.5l51 -32q-64 -108 -152 -162.5t-198 -54.5q-192 0 -318.5 122t-126.5 306q0 194 122.5 319t312.5 125q82 0 157.5 -33
t79.5 -33q22 0 33.5 13.5t19.5 48.5zM844 1311q-126 0 -242.5 -49t-204.5 -138q-89 -91 -136.5 -206t-47.5 -240q0 -130 47 -244t137 -203q93 -91 205.5 -137.5t239.5 -46.5t240.5 47.5t201.5 136.5q89 91 137.5 207.5t48.5 239.5q0 126 -48.5 244.5t-135.5 203.5
q-89 88 -205 136.5t-237 48.5zM844 1423q144 0 280.5 -56.5t241.5 -160.5q104 -104 161.5 -242.5t57.5 -285.5q0 -146 -56.5 -281.5t-162.5 -242.5q-105 -106 -240 -161.5t-284 -55.5t-283 55.5t-242 161.5q-106 104 -162.5 239t-56.5 285q0 149 55.5 283t161.5 241
q105 106 242.5 163.5t286.5 57.5z" />
    <glyph glyph-name="trademark" unicode="&#x2122;" horiz-adv-x="1683" 
d="M745 1460h222l127 -356l123 356h206v-26l-22 -7q-19 -4 -27 -15t-8 -34v-383q0 -22 8 -33t27 -16l22 -6v-33h-260v33l30 6q18 3 27 15.5t9 33.5v355l-148 -445h-43l-166 457v-367q0 -22 9 -34t27 -15l34 -6v-33h-197v33l35 6q18 4 26.5 16t8.5 33v375q0 21 -9 33.5
t-25 15.5l-36 6v35zM229 1460h457l12 -198h-36q-7 79 -38 116t-92 37v-420q1 -22 8.5 -34t23.5 -15l30 -6v-33h-272v33l30 6q15 3 23 15.5t8 33.5v420h-4q-58 0 -89.5 -38t-37.5 -115h-35z" />
    <glyph glyph-name="acute" unicode="&#xb4;" 
d="M287 1102l295 313q54 58 90 79.5t76 21.5q49 0 81.5 -33t32.5 -82q0 -38 -25.5 -68t-82.5 -59l-346 -172h-121z" />
    <glyph glyph-name="dieresis" unicode="&#xa8;" 
d="M569 1315q0 63 48 111.5t112 48.5q67 0 114.5 -47t47.5 -113q0 -70 -46 -116t-116 -46q-68 0 -114 46.5t-46 115.5zM131 1315q0 63 49 111.5t113 48.5q67 0 113.5 -46.5t46.5 -113.5q0 -71 -45.5 -116.5t-114.5 -45.5q-68 0 -115 46.5t-47 115.5z" />
    <glyph glyph-name="notequal" unicode="&#x2260;" horiz-adv-x="1706" 
d="M1194 1251l168 -137l-135 -168h225v-221h-377l-180 -227h557v-222h-704l-246 -307l-170 137l135 170h-213v222h360l183 227h-543v221h694z" />
    <glyph glyph-name="AE" unicode="&#xc6;" horiz-adv-x="2290" 
d="M961 696v498h-27l-252 -498h279zM750 0v180h84q81 0 104 20.5t23 98.5v217h-375l-115 -211q-20 -35 -25.5 -50.5t-5.5 -29.5q0 -24 24.5 -34.5t82.5 -10.5h67v-180h-639v180h27q62 0 114.5 34.5t88.5 98.5l422 763q15 27 21.5 41t6.5 20q0 32 -23.5 44.5t-94.5 12.5h-76
v180h1653v-524h-181q-16 120 -39 181.5t-61 96.5q-38 36 -98 51t-215 15h-181v-391h37q114 0 152.5 43t38.5 174h172v-627h-172q-5 145 -37.5 186.5t-153.5 41.5h-37v-441h187q226 0 305.5 78t101.5 309h181v-567h-1364z" />
    <glyph glyph-name="Oslash" unicode="&#xd8;" horiz-adv-x="1677" 
d="M1104 1067q-38 79 -104.5 118.5t-159.5 39.5q-166 0 -246 -125t-80 -385q0 -54 2.5 -113t8.5 -120zM573 309q37 -81 102.5 -121.5t160.5 -40.5q166 0 247.5 126.5t81.5 383.5q0 40 -3 98.5t-9 139.5zM92 47l148 146q-88 124 -130 250.5t-42 261.5q0 321 204.5 515.5
t544.5 194.5q142 0 265 -32t237 -99l156 156l110 -111l-147 -147q87 -117 129.5 -240.5t42.5 -263.5q0 -335 -206 -527t-568 -192q-142 0 -259 32.5t-221 100.5l-153 -158z" />
    <glyph glyph-name="infinity" unicode="&#x221e;" horiz-adv-x="1706" 
d="M956 561q44 -68 103.5 -103.5t130.5 -35.5q89 0 146 52t57 132q0 77 -52 129.5t-127 52.5q-71 0 -130 -51t-128 -176zM752 657q-43 68 -101.5 102t-132.5 34q-90 0 -146.5 -51t-56.5 -130q0 -78 51.5 -131t127.5 -53q69 0 130 53.5t128 175.5zM856 442
q-68 -130 -147.5 -193t-176.5 -63q-139 0 -238 121.5t-99 300.5q0 188 87.5 305t227.5 117q90 0 166.5 -56.5t175.5 -199.5q70 131 149 193.5t175 62.5q140 0 238.5 -120.5t98.5 -299.5q0 -189 -87.5 -306.5t-227.5 -117.5q-91 0 -166 55t-176 201z" />
    <glyph glyph-name="plusminus" unicode="&#xb1;" horiz-adv-x="1706" 
d="M254 213h1198v-231h-1198v231zM735 1241h238v-319h479v-232h-479v-319h-238v319h-481v232h481v319z" />
    <glyph glyph-name="lessequal" unicode="&#x2264;" horiz-adv-x="1706" 
d="M256 213h1196v-229h-1196v229zM1450 1257v-239l-776 -240l776 -239v-240l-1194 379v201z" />
    <glyph glyph-name="greaterequal" unicode="&#x2265;" horiz-adv-x="1706" 
d="M256 213h1196v-229h-1196v229zM256 1257l1194 -378v-201l-1194 -379v240l778 239l-778 240v239z" />
    <glyph glyph-name="yen" unicode="&#xa5;" horiz-adv-x="1335" 
d="M1055 852h229v-133h-317l-88 -139h405v-131h-450v-164q0 -81 20.5 -104t95.5 -23h86v-158h-753v158h88q74 0 94 22t20 105v164h-440v131h397l-90 139h-307v133h221l-53 82q-55 84 -107 114t-132 31l-1 158h699v-158h-60q-40 0 -58.5 -10.5t-18.5 -34.5q0 -12 10 -33
t30 -53l152 -237l180 268q11 15 17 31t6 30q0 21 -25.5 30t-83.5 9h-20v158h530v-158h-6q-72 0 -119 -29t-100 -116z" />
    <glyph glyph-name="mu" unicode="&#xb5;" horiz-adv-x="1233" 
d="M219 190q-12 -89 -27 -239q-40 -377 -163 -377q-57 0 -92 34.5t-35 88.5q0 56 69 281t105 397l108 510h293l-106 -498q-10 -43 -15.5 -75t-5.5 -50q0 -54 28 -86.5t75 -32.5q62 0 104 55t68 171l110 516h291l-111 -525q-6 -26 -9 -49t-3 -43q0 -43 19.5 -67.5t54.5 -24.5
q26 0 49.5 13.5t40.5 37.5q10 14 25 42q35 63 65 63q11 0 20 -12t9 -27q0 -30 -21 -87t-53 -104q-41 -62 -95.5 -92t-125.5 -30q-90 0 -136.5 47.5t-54.5 146.5q-36 -97 -98.5 -145.5t-150.5 -48.5q-101 0 -161 54.5t-71 155.5z" />
    <glyph glyph-name="partialdiff" unicode="&#x2202;" horiz-adv-x="1114" 
d="M766 684q21 113 32 206t11 150q0 87 -29.5 148t-68.5 61q-35 0 -132 -93t-180 -93q-48 0 -80 33.5t-32 83.5q0 69 93 125.5t220 56.5q210 0 332.5 -161t122.5 -441q0 -344 -162.5 -564.5t-417.5 -220.5q-182 0 -299 116.5t-117 299.5q0 203 119.5 336t298.5 133
q101 0 170.5 -42.5t118.5 -133.5zM698 532q0 114 -36.5 176t-104.5 62q-96 0 -160.5 -136.5t-64.5 -346.5q0 -116 36.5 -176t106.5 -60q97 0 160 135.5t63 345.5z" />
    <glyph glyph-name="summation" unicode="&#x2211;" horiz-adv-x="1585" 
d="M27 1473h1276l153 -463h-92l-102 262q-25 62 -74 86t-201 24h-485l590 -757v-41l-689 -652h885q41 0 58 13.5t28 49.5l70 230h94l-188 -618h-1325v88l766 725l-764 981v72z" />
    <glyph glyph-name="product" unicode="&#x220f;" horiz-adv-x="1774" 
d="M43 1473h1681v-91h-192v-1685h192v-90h-753v90h168v1685h-512v-1685h170v-90h-754v90h193v1685h-193v91z" />
    <glyph glyph-name="pi" unicode="&#x3c0;" horiz-adv-x="1513" 
d="M1481 885l-68 -320h-358v-49v-70q0 -53 6 -147.5t6 -136.5q0 -102 -38.5 -154.5t-113.5 -52.5q-60 0 -93.5 33t-33.5 94q0 70 66 228.5t92 254.5h-377q0 -9 -1 -25t-1 -24v-70q0 -51 6.5 -145.5t6.5 -138.5q0 -102 -38.5 -154.5t-113.5 -52.5q-61 0 -94 33t-33 94
q0 66 66.5 224t93.5 259h-207q-90 0 -126 -26t-52 -97h-72q48 251 144.5 347t302.5 96h1030z" />
    <glyph glyph-name="integral" unicode="&#x222b;" horiz-adv-x="1249" 
d="M362 -248q99 0 119 667q3 101 4 154q17 523 130.5 753t349.5 230q105 0 170 -53t65 -137q0 -64 -41 -103.5t-106 -39.5q-64 0 -96.5 38.5t-32.5 112.5q0 38 -7.5 49t-25.5 11q-101 0 -124 -667q-2 -60 -3 -91q-11 -329 -30.5 -472.5t-57.5 -244.5q-62 -166 -159.5 -249
t-229.5 -83q-107 0 -171.5 52t-64.5 139q0 65 42 104t112 39q60 0 92.5 -36t32.5 -103q0 -12 -2 -24v-3q0 -24 8 -33.5t26 -9.5z" />
    <glyph glyph-name="ordfeminine" unicode="&#xaa;" horiz-adv-x="946" 
d="M530 778q-49 -54 -111 -80t-140 -26q-107 0 -169.5 53t-62.5 141q0 83 50.5 126.5t211.5 76.5q135 26 170 52t35 77q0 50 -41.5 80.5t-112.5 30.5q-38 0 -66 -7t-50 -22q40 -3 65 -26t25 -56q0 -40 -34 -66t-87 -26q-59 0 -96 30t-37 78q0 87 91.5 136t256.5 49
q81 0 147.5 -13.5t104.5 -37.5q43 -29 60.5 -64t17.5 -115v-18v-262q0 -33 9 -48.5t30 -15.5t30 14t9 50v59h92v-65q0 -109 -51 -160t-160 -51q-73 0 -119.5 26.5t-67.5 79.5zM510 1032q-28 -14 -77 -36q-122 -54 -122 -103q0 -33 26 -54.5t66 -21.5q51 0 79 30.5t28 84.5
v100z" />
    <glyph glyph-name="ordmasculine" unicode="&#xba;" horiz-adv-x="918" 
d="M315 1036q0 -136 32 -187.5t112 -51.5q78 0 109.5 51.5t31.5 187.5q0 138 -31.5 190t-109.5 52q-80 0 -112 -52t-32 -190zM39 1036q0 170 112 267.5t308 97.5q195 0 307.5 -98t112.5 -267t-112.5 -265.5t-307.5 -96.5q-197 0 -308.5 96.5t-111.5 265.5z" />
    <glyph glyph-name="Omega" unicode="&#x3a9;" horiz-adv-x="1581" 
d="M1153 297v-14h283l37 120h81l-120 -403h-545q85 207 128.5 423.5t43.5 430.5q0 278 -66.5 413.5t-201.5 135.5q-136 0 -203.5 -137t-67.5 -410q0 -211 43.5 -428t128.5 -428h-544l-121 403h82l36 -120h283v14q-170 66 -264 208.5t-94 334.5q0 281 205 469t516 188
q309 0 514.5 -189t205.5 -470q0 -189 -95 -332t-265 -209z" />
    <glyph glyph-name="ae" unicode="&#xe6;" horiz-adv-x="1700" 
d="M678 477q-39 -20 -106 -52q-160 -78 -160 -146q0 -49 34 -79t89 -30q67 0 105 43t38 121v143zM987 607l313 -1v27q0 91 -39 140.5t-112 49.5q-79 0 -119.5 -54t-42.5 -162zM760 141q-83 -89 -179.5 -133.5t-205.5 -44.5q-145 0 -229.5 75t-84.5 202q0 117 68 179.5
t283 108.5q182 39 228 76.5t46 110.5q0 70 -56 112.5t-151 42.5q-52 0 -89 -9.5t-66 -30.5q54 -4 87 -36t33 -79q0 -58 -45 -95.5t-116 -37.5q-80 0 -129.5 44t-49.5 115q0 114 122.5 187t318.5 73q102 0 182.5 -27t132.5 -79q66 55 138.5 80.5t158.5 25.5
q225 0 356.5 -139.5t131.5 -380.5v-41h-666v-16q0 -133 50 -199.5t149 -66.5q88 0 141.5 43t66.5 127h246q-50 -179 -171 -272t-302 -93q-125 0 -221.5 43t-177.5 135z" />
    <glyph glyph-name="oslash" unicode="&#xf8;" horiz-adv-x="1223" 
d="M934 920l121 122l102 -98l-106 -110q63 -70 95 -155t32 -183q0 -245 -153 -388t-415 -143q-101 0 -181 19t-148 59l-125 -127l-95 100l113 113q-65 71 -97 157.5t-32 188.5q0 243 152.5 386t412.5 143q95 0 173.5 -20.5t150.5 -63.5zM422 392l342 351q-27 45 -63 66.5
t-87 21.5q-104 0 -149 -77.5t-45 -259.5q0 -41 0.5 -62.5t1.5 -39.5zM799 575l-344 -352q23 -43 62 -64.5t95 -21.5q103 0 147 76t44 258q0 13 -2 55q-2 31 -2 49z" />
    <glyph glyph-name="questiondown" unicode="&#xbf;" horiz-adv-x="1159" 
d="M725 940q1 -5 1.5 -12t0.5 -21q0 -56 -18.5 -110.5t-55.5 -104.5q-19 -28 -59 -80q-125 -162 -125 -264q0 -82 62.5 -137t156.5 -55q86 0 147.5 47t69.5 119q-25 -9 -47.5 -14t-40.5 -5q-68 0 -107.5 40t-39.5 110q0 83 51.5 130.5t142.5 47.5q88 0 145.5 -72.5
t57.5 -183.5q0 -180 -137 -298t-350 -118q-214 0 -350 106.5t-136 272.5q0 98 44.5 175t146.5 153q21 15 61 44q166 115 176 230h203zM797 1241q0 -72 -50 -122t-122 -50q-73 0 -123.5 50t-50.5 122q0 74 50 124t124 50q72 0 122 -50.5t50 -123.5z" />
    <glyph glyph-name="exclamdown" unicode="&#xa1;" horiz-adv-x="647" 
d="M150 1241q0 73 49.5 123.5t122.5 50.5t123.5 -50t50.5 -124q0 -72 -51 -122t-123 -50q-73 0 -122.5 50t-49.5 122zM418 944q17 -178 57.5 -426.5t40.5 -318.5q0 -113 -52 -176.5t-145 -63.5q-84 0 -136 58.5t-52 154.5q0 116 43.5 371t51.5 401h192z" />
    <glyph glyph-name="logicalnot" unicode="&#xac;" horiz-adv-x="1706" 
d="M254 866h1198v-501h-229v274h-969v227z" />
    <glyph glyph-name="radical" unicode="&#x221a;" horiz-adv-x="1366" 
d="M1155 1714h215v-149h-96l-590 -1606h-119l-307 846l-145 -55l-37 129l360 127l223 -635z" />
    <glyph glyph-name="florin" unicode="&#x192;" horiz-adv-x="1300" 
d="M232 -309q13 -3 25 -4.5t24 -1.5q54 0 81.5 38.5t40.5 140.5q8 53 26.5 300.5t35.5 429.5h-254v147h283q43 271 158 406t302 135q123 0 202 -54.5t79 -137.5q0 -66 -44 -112t-108 -46q-60 0 -99.5 38.5t-39.5 96.5q0 29 15 50.5t44 37.5q-7 2 -15 3t-23 1q-75 0 -108 -90
t-38 -327l277 -1v-147h-291q-25 -304 -58.5 -495.5t-80.5 -301.5q-46 -109 -150.5 -173t-234.5 -64q-123 0 -194 52t-71 140q0 72 42 116t110 44q58 0 95.5 -34t37.5 -85q0 -35 -17.5 -61t-51.5 -41z" />
    <glyph glyph-name="approxequal" unicode="&#x2248;" horiz-adv-x="1706" 
d="M1530 602v-254q-105 -71 -196 -104t-181 -33t-283 65.5t-309 65.5q-82 0 -172.5 -37t-210.5 -121v254q111 74 209 109t195 35q115 0 304.5 -65.5t272.5 -65.5t170 35t201 116zM1530 1036v-254q-107 -70 -197 -102.5t-178 -32.5q-91 0 -284 64.5t-310 64.5q-84 0 -172 -36
t-211 -122v256q112 74 209 108t195 34q115 0 304.5 -65.5t272.5 -65.5t170.5 35.5t200.5 115.5z" />
    <glyph glyph-name="Delta" unicode="&#x2206;" horiz-adv-x="1346" 
d="M528 1085l-356 -751h713zM639 1497h76l712 -1497h-1509z" />
    <glyph glyph-name="guillemotleft" unicode="&#xab;" horiz-adv-x="1001" 
d="M307 137l-14 20q-199 275 -199 326q0 37 52.5 123.5t160.5 229.5h174l-5 -14q-114 -275 -114 -339q0 -36 27 -106.5t109 -239.5h-191zM717 137l-14 20q-199 275 -199 326q0 37 52.5 123.5t160.5 229.5h174l-6 -14q-113 -275 -113 -339q0 -36 27 -106.5t108 -239.5h-190z
" />
    <glyph glyph-name="guillemotright" unicode="&#xbb;" horiz-adv-x="1001" 
d="M694 137h-190q81 169 108 239.5t27 106.5q0 64 -113 339l-6 14h174q108 -143 160.5 -229.5t52.5 -123.5q0 -51 -198 -326zM285 137h-191q82 169 108.5 239.5t26.5 106.5q0 64 -113 339l-5 14h174q108 -143 160.5 -229.5t52.5 -123.5q0 -51 -199 -326z" />
    <glyph glyph-name="ellipsis" unicode="&#x2026;" horiz-adv-x="2048" 
d="M168 131q0 72 50.5 123t123.5 51q71 0 121.5 -50.5t50.5 -123.5q0 -74 -49.5 -123t-122.5 -49q-74 0 -124 50t-50 122zM850 131q0 72 50.5 123t123.5 51q71 0 121.5 -50.5t50.5 -123.5q0 -74 -49.5 -123t-122.5 -49q-74 0 -124 50t-50 122zM1534 131q0 72 50.5 123
t123.5 51q71 0 121.5 -50.5t50.5 -123.5q0 -74 -49.5 -123t-122.5 -49q-74 0 -124 50t-50 122z" />
    <glyph glyph-name="nonbreakingspace" unicode="&#xa0;" horiz-adv-x="1300" 
 />
    <glyph glyph-name="Agrave" unicode="&#xc0;" horiz-adv-x="1466" 
d="M797 621l-138 434l-141 -434h279zM-27 0v180h50q67 0 98 21.5t61 111.5l353 1061h409l338 -1067q26 -78 54.5 -102.5t86.5 -24.5h70v-180h-758v180h58q74 0 99.5 10.5t25.5 38.5q-1 9 -7 29q-3 10 -4 15l-53 169h-395l-52 -158q-4 -14 -7 -29t-3 -26q0 -28 21 -38.5
t90 -10.5h67v-180h-602zM975 1514h-121l-346 172q-59 29 -83.5 58.5t-24.5 68.5q0 49 32.5 82t81.5 33q39 0 76.5 -22.5t89.5 -78.5z" />
    <glyph glyph-name="Atilde" unicode="&#xc3;" horiz-adv-x="1466" 
d="M797 621l-138 434l-141 -434h279zM-27 0v180h50q67 0 98 21.5t61 111.5l353 1061h409l338 -1067q26 -78 54.5 -102.5t86.5 -24.5h70v-180h-758v180h58q74 0 99.5 10.5t25.5 38.5q-1 9 -7 29q-3 10 -4 15l-53 169h-395l-52 -158q-4 -14 -7 -29t-3 -26q0 -28 21 -38.5
t90 -10.5h67v-180h-602zM490 1545h-88q26 141 87.5 211.5t158.5 70.5q19 0 39.5 -3t44.5 -9l127 -33q22 -5 32 -6.5t17 -1.5q38 0 61 22.5t39 75.5h88q-27 -139 -88.5 -210.5t-153.5 -71.5q-15 0 -33 2.5t-41 7.5l-122 35q-24 5 -38.5 7.5t-23.5 2.5q-41 0 -68 -25.5
t-38 -74.5z" />
    <glyph glyph-name="Otilde" unicode="&#xd5;" horiz-adv-x="1677" 
d="M514 686q0 -281 78 -410t248 -129q169 0 247 129t78 410t-78 410t-247 129q-170 0 -248 -129t-78 -410zM68 686q0 340 205.5 534.5t566.5 194.5q359 0 564.5 -194t205.5 -535q0 -340 -205 -533.5t-565 -193.5q-361 0 -566.5 194t-205.5 533zM580 1545h-88
q26 141 87.5 211.5t158.5 70.5q19 0 39.5 -3t44.5 -9l127 -33q22 -5 32 -6.5t17 -1.5q38 0 61 22.5t39 75.5h88q-27 -139 -88.5 -210.5t-153.5 -71.5q-15 0 -33 2.5t-41 7.5l-122 35q-24 5 -38.5 7.5t-23.5 2.5q-41 0 -68 -25.5t-38 -74.5z" />
    <glyph glyph-name="OE" unicode="&#x152;" horiz-adv-x="2447" 
d="M1167 512v350q0 217 -64.5 291t-232.5 74q-186 0 -271 -128t-85 -413q0 -284 84.5 -411.5t271.5 -127.5q168 0 232.5 74t64.5 291zM2320 567v-567h-921q-92 0 -278.5 -20.5t-280.5 -20.5q-361 0 -566.5 194t-205.5 533q0 340 205.5 534.5t566.5 194.5q94 0 263.5 -20.5
t246.5 -20.5h970v-524h-180q-16 120 -39 181.5t-61 96.5q-39 36 -98.5 51t-215.5 15h-178v-391h35q114 0 152.5 43t38.5 174h172v-627h-172q-3 144 -38 187t-153 43h-35v-443h185q226 0 305.5 78t101.5 309h180z" />
    <glyph glyph-name="oe" unicode="&#x153;" horiz-adv-x="1880" 
d="M1166 606h313q0 106 -40 162.5t-114 56.5q-78 0 -118 -55t-41 -164zM420 483q0 -195 42.5 -269.5t147.5 -74.5q106 0 148.5 74t42.5 270t-42.5 269t-148.5 73q-105 0 -147.5 -73.5t-42.5 -268.5zM983 111q-70 -72 -168 -109t-219 -37q-249 0 -397 140.5t-148 377.5
q0 246 150.5 381t423.5 135q121 0 209.5 -35.5t150.5 -109.5q80 75 164.5 110t185.5 35q226 0 359 -140t133 -380v-39h-666v-16q0 -133 50 -199.5t149 -66.5q88 0 140.5 43t66.5 127h245q-48 -179 -170.5 -271t-312.5 -92q-111 0 -196 36t-150 110z" />
    <glyph glyph-name="endash" unicode="&#x2013;" 
d="M0 371v225h1024v-225h-1024z" />
    <glyph glyph-name="emdash" unicode="&#x2014;" horiz-adv-x="2048" 
d="M0 371v225h2048v-225h-2048z" />
    <glyph glyph-name="quotedblleft" unicode="&#x201c;" horiz-adv-x="1012" 
d="M258 1145q9 2 19 3t28 1q69 0 111.5 -42.5t42.5 -111.5q0 -75 -51.5 -126.5t-126.5 -51.5q-91 0 -146 60.5t-55 160.5q0 141 101 244t270 133v-117q-82 -12 -128.5 -49.5t-64.5 -103.5zM733 1145q9 2 19 3t28 1q69 0 111.5 -42.5t42.5 -111.5q0 -75 -51.5 -126.5
t-126.5 -51.5q-91 0 -146 60.5t-55 160.5q0 141 101 244t270 133v-117q-81 -12 -128 -49.5t-65 -103.5z" />
    <glyph glyph-name="quotedblright" unicode="&#x201d;" horiz-adv-x="1012" 
d="M279 1094q-9 -3 -18.5 -3.5t-29.5 -0.5q-68 0 -110.5 43t-42.5 112q0 75 51.5 126.5t126.5 51.5q91 0 147 -60.5t56 -160.5q0 -140 -101 -243.5t-270 -133.5v117q81 13 126.5 49t64.5 103zM754 1094q-9 -3 -18.5 -3.5t-28.5 -0.5q-69 0 -111.5 43t-42.5 112
q0 75 51.5 126.5t126.5 51.5q91 0 147 -60.5t56 -160.5q0 -140 -101 -243.5t-270 -133.5v117q81 13 127 49t64 103z" />
    <glyph glyph-name="quoteleft" unicode="&#x2018;" horiz-adv-x="537" 
d="M258 1145q9 2 19 3t28 1q69 0 111.5 -42.5t42.5 -111.5q0 -75 -51.5 -126.5t-126.5 -51.5q-91 0 -147 61t-56 160q0 141 101 244t270 133v-117q-81 -12 -127 -49t-64 -104z" />
    <glyph glyph-name="quoteright" unicode="&#x2019;" horiz-adv-x="537" 
d="M279 1094q-9 -3 -18.5 -3.5t-29.5 -0.5q-68 0 -110.5 43t-42.5 112q0 75 51.5 126.5t126.5 51.5q90 0 145.5 -60.5t55.5 -160.5q0 -140 -101 -243.5t-270 -133.5v117q82 13 128.5 49.5t64.5 102.5z" />
    <glyph glyph-name="divide" unicode="&#xf7;" horiz-adv-x="1706" 
d="M854 371q68 0 116 -48.5t48 -117.5q0 -68 -47.5 -116t-116.5 -48t-117.5 48t-48.5 116t49 117t117 49zM254 727h1198v-231h-1198v231zM854 1182q67 0 115.5 -49t48.5 -117t-48.5 -116t-117.5 -48t-116.5 48t-47.5 116t49 117t117 49z" />
    <glyph glyph-name="lozenge" unicode="&#x25ca;" horiz-adv-x="1012" 
d="M506 1409l-385 -817l385 -825l385 825zM506 1653l500 -1061l-500 -1069l-500 1069z" />
    <glyph glyph-name="ydieresis" unicode="&#xff;" horiz-adv-x="1219" 
d="M522 -70l-317 752q-31 72 -55 93.5t-60 21.5h-55v170h620v-170h-47q-42 0 -63 -8.5t-21 -24.5q0 -20 23 -72l2 -4l149 -344l131 332l5 10q24 61 24 80q0 16 -17.5 23.5t-56.5 7.5h-47v170h457v-170q-70 -2 -103 -22.5t-65 -100.5l-311 -756q-84 -204 -173.5 -284
t-224.5 -80q-128 0 -209 74t-81 192q0 87 51 139.5t135 52.5q74 0 118 -38.5t44 -102.5t-38.5 -101.5t-105.5 -37.5q-13 0 -20.5 0.5t-13.5 1.5q23 -26 45.5 -37.5t46.5 -11.5q74 0 134 63t99 182zM667 1315q0 63 48 111.5t112 48.5q67 0 114.5 -47t47.5 -113
q0 -70 -46 -116t-116 -46q-68 0 -114 46.5t-46 115.5zM229 1315q0 63 49 111.5t113 48.5q67 0 113.5 -46.5t46.5 -113.5q0 -71 -45.5 -116.5t-114.5 -45.5q-68 0 -115 46.5t-47 115.5z" />
    <glyph glyph-name="Ydieresis" unicode="&#x178;" horiz-adv-x="1597" 
d="M993 315q0 -89 22 -114t105 -25h97v-176h-830v176h96q85 0 107 25.5t22 113.5v252l-301 471q-59 93 -116 126t-147 36l-1 174h787v-174h-66q-43 0 -64.5 -12.5t-21.5 -38.5q0 -12 10 -32.5t37 -61.5l160 -248l186 280q12 18 18.5 36t6.5 34q0 23 -26 33t-83 10h-33v174
h582v-174h-6q-77 0 -126.5 -30t-113.5 -132l-301 -471v-252zM856 1727q0 63 48 111.5t112 48.5q67 0 114.5 -47t47.5 -113q0 -70 -46 -116t-116 -46q-68 0 -114 46.5t-46 115.5zM418 1727q0 63 49 111.5t113 48.5q67 0 113.5 -46.5t46.5 -113.5q0 -71 -45.5 -116.5
t-114.5 -45.5q-68 0 -115 46.5t-47 115.5z" />
    <glyph glyph-name="fraction" unicode="&#x2215;" horiz-adv-x="342" 
d="M-342 -37l854 1321h170l-842 -1321h-182z" />
    <glyph glyph-name="currency" unicode="&#xa4;" horiz-adv-x="1300" 
d="M1251 451q-7 -234 -139 -360t-369 -126q-215 0 -368 124t-203 339h-180l39 133h122q-1 12 -1 24v38q0 24 3 66q0 6 1 9h-164l39 133h145q52 210 203 330.5t362 120.5q92 0 173.5 -31.5t123.5 -83.5l33 80h168v-446h-180q-27 153 -93 227t-180 74q-95 0 -156 -68t-87 -203
h389l-37 -133h-367q-1 -15 -1.5 -29t-0.5 -46q0 -12 1 -32t1 -30h322l-37 -133h-272q24 -144 86 -213.5t170 -69.5q124 0 196 79.5t82 226.5h176z" />
    <glyph glyph-name="guilsinglleft" unicode="&#x2039;" horiz-adv-x="592" 
d="M307 137l-14 20q-199 275 -199 326q0 37 52.5 123.5t160.5 229.5h174l-5 -14q-114 -275 -114 -339q0 -36 27 -106.5t109 -239.5h-191z" />
    <glyph glyph-name="guilsinglright" unicode="&#x203a;" horiz-adv-x="592" 
d="M285 137h-191q82 169 108.5 239.5t26.5 106.5q0 64 -113 339l-5 14h174q108 -143 160.5 -229.5t52.5 -123.5q0 -51 -199 -326z" />
    <glyph glyph-name="fi" unicode="&#xf001;" horiz-adv-x="1374" 
d="M43 0v161q103 6 129.5 27t26.5 88v521h-156v170h155q0 9 -0.5 20.5t-0.5 34.5q0 200 122.5 293.5t385.5 93.5q215 0 336.5 -61.5t121.5 -167.5q0 -71 -50 -115.5t-130 -44.5q-78 0 -120 36.5t-42 102.5q0 27 10 47.5t31 36.5q-25 13 -54.5 19t-64.5 6q-121 0 -174 -59
t-53 -197q0 -7 1 -22t1 -23h670v-674q0 -83 22 -107t88 -24h33v-162h-600v162q83 0 107 20t24 107v377q0 88 -18.5 109.5t-83.5 21.5h-244v-498q0 -92 23 -114.5t98 -22.5h14v-162h-608z" />
    <glyph glyph-name="fl" unicode="&#xf002;" horiz-adv-x="1374" 
d="M43 0v161q103 6 129.5 27t26.5 88v521h-156v170h155q0 9 -0.5 20t-0.5 31q0 203 120 300t371 97q64 0 139 -10t164 -31l199 2v-1083q0 -88 23 -109.5t102 -21.5h16v-162h-598v162q85 4 107 22.5t22 104.5v762q-23 20 -35 45.5t-12 54.5q0 27 10.5 49.5t32.5 42.5
q-28 13 -57.5 19t-61.5 6q-120 0 -172.5 -59.5t-52.5 -196.5q0 -7 1 -22t1 -23h180v-170h-180v-508q0 -82 23 -104.5t98 -22.5h14v-162h-608z" />
    <glyph glyph-name="daggerdbl" unicode="&#x2021;" horiz-adv-x="1255" 
d="M782 502q-37 -57 -61.5 -131t-36.5 -164h14q58 0 156.5 34.5t146.5 34.5q63 0 98.5 -35.5t35.5 -99.5q0 -55 -37 -92t-92 -37q-28 0 -130.5 30.5t-181.5 45.5q12 -83 49 -198.5t37 -153.5q0 -70 -39 -108t-112 -38t-111.5 39.5t-38.5 114.5q0 43 36.5 156.5t47.5 187.5
q-70 -7 -171 -40.5t-140 -33.5q-56 0 -93.5 37t-37.5 92q0 59 36.5 97.5t94.5 38.5q45 0 149 -36t170 -40q-10 93 -34 167t-64 134q40 57 64 130.5t34 168.5q-66 -4 -170 -40t-149 -36q-58 0 -94.5 37.5t-36.5 95.5q0 55 38 93t93 38q39 0 140 -33t171 -40q-11 74 -47.5 187
t-36.5 157q0 74 38.5 113.5t111.5 39.5t112 -37.5t39 -107.5q0 -38 -37 -155t-49 -200q80 16 182.5 47t129.5 31q55 0 92 -36.5t37 -92.5q0 -63 -35.5 -99t-98.5 -36q-48 0 -146.5 35t-156.5 35h-14q12 -92 37 -166.5t61 -130.5z" />
    <glyph glyph-name="periodcentered" unicode="&#xb7;" horiz-adv-x="651" 
d="M152 653q0 72 50.5 122t123.5 50q72 0 122 -49.5t50 -122.5q0 -74 -49.5 -124t-122.5 -50t-123.5 50.5t-50.5 123.5z" />
    <glyph glyph-name="quotesinglbase" unicode="&#x201a;" horiz-adv-x="537" 
d="M279 -29q-9 -2 -18.5 -3t-29.5 -1q-68 0 -110.5 43t-42.5 113q0 75 51 125.5t127 50.5q90 0 145.5 -60.5t55.5 -160.5q0 -141 -101 -243t-270 -132v115q81 12 127.5 49.5t65.5 103.5z" />
    <glyph glyph-name="quotedblbase" unicode="&#x201e;" horiz-adv-x="1012" 
d="M754 -23q-9 -2 -18.5 -3t-28.5 -1q-69 0 -111.5 43.5t-42.5 112.5q0 75 51.5 125.5t126.5 50.5q91 0 147 -60.5t56 -160.5q0 -141 -101 -244t-270 -133v117q81 12 126.5 49t64.5 104zM279 -23q-9 -2 -18.5 -3t-29.5 -1q-68 0 -110.5 43.5t-42.5 112.5q0 75 51 125.5
t127 50.5q91 0 147 -60.5t56 -160.5q0 -141 -101 -244t-270 -133v117q80 12 126 49t65 104z" />
    <glyph glyph-name="perthousand" unicode="&#x2030;" horiz-adv-x="2847" 
d="M66 889q0 176 106.5 284.5t280.5 108.5q173 0 279 -107.5t106 -285.5t-107 -286.5t-280 -108.5q-174 0 -279.5 108.5t-105.5 286.5zM311 889q0 -136 33 -196t107 -60t107.5 60.5t33.5 195.5q0 134 -33 194t-106 60q-74 0 -108 -60.5t-34 -193.5zM2007 358
q0 177 107.5 286.5t279.5 109.5t278.5 -109t106.5 -287t-105.5 -285.5t-279.5 -107.5q-173 0 -280 108.5t-107 284.5zM2253 358q0 -134 33.5 -195t107.5 -61t106.5 60.5t32.5 195.5t-33 194.5t-106 59.5q-74 0 -107.5 -60.5t-33.5 -193.5zM1126 358q0 177 106.5 286.5
t278.5 109.5q173 0 280 -109t107 -287q0 -177 -106 -285t-281 -108q-172 0 -278.5 108t-106.5 285zM1372 358q0 -134 33 -195t106 -61q74 0 107 61t33 195q0 135 -33 194.5t-107 59.5q-73 0 -106 -59.5t-33 -194.5zM508 -37l770 1321h180l-768 -1321h-182z" />
    <glyph glyph-name="Acircumflex" unicode="&#xc2;" horiz-adv-x="1466" 
d="M797 621l-138 434l-141 -434h279zM-27 0v180h50q67 0 98 21.5t61 111.5l353 1061h409l338 -1067q26 -78 54.5 -102.5t86.5 -24.5h70v-180h-758v180h58q74 0 99.5 10.5t25.5 38.5q-1 9 -7 29q-3 10 -4 15l-53 169h-395l-52 -158q-4 -14 -7 -29t-3 -26q0 -28 21 -38.5
t90 -10.5h67v-180h-602zM410 1512l242 393h196l242 -393h-107l-233 182l-233 -182h-107z" />
    <glyph glyph-name="Ecircumflex" unicode="&#xca;" horiz-adv-x="1532" 
d="M39 0v180h76q80 0 102.5 20t22.5 99v776q0 80 -22.5 99.5t-102.5 19.5h-76v180h1358v-524h-180q-17 120 -40 181.5t-61 96.5q-38 36 -98 51t-215 15h-178v-391h34q114 0 152.5 43t38.5 174h172v-627l-172 1q-3 143 -38 186t-153 43h-34v-443h184q226 0 305.5 78
t102.5 309h180v-567h-1358zM416 1512l242 393h196l242 -393h-107l-233 182l-233 -182h-107z" />
    <glyph glyph-name="Aacute" unicode="&#xc1;" horiz-adv-x="1466" 
d="M797 621l-138 434l-141 -434h279zM-27 0v180h50q67 0 98 21.5t61 111.5l353 1061h409l338 -1067q26 -78 54.5 -102.5t86.5 -24.5h70v-180h-758v180h58q74 0 99.5 10.5t25.5 38.5q-1 9 -7 29q-3 10 -4 15l-53 169h-395l-52 -158q-4 -14 -7 -29t-3 -26q0 -28 21 -38.5
t90 -10.5h67v-180h-602zM525 1514l295 313q54 58 90 79.5t76 21.5q49 0 81.5 -33t32.5 -82q0 -38 -25.5 -68t-82.5 -59l-346 -172h-121z" />
    <glyph glyph-name="Edieresis" unicode="&#xcb;" horiz-adv-x="1532" 
d="M39 0v180h76q80 0 102.5 20t22.5 99v776q0 80 -22.5 99.5t-102.5 19.5h-76v180h1358v-524h-180q-17 120 -40 181.5t-61 96.5q-38 36 -98 51t-215 15h-178v-391h34q114 0 152.5 43t38.5 174h172v-627l-172 1q-3 143 -38 186t-153 43h-34v-443h184q226 0 305.5 78
t102.5 309h180v-567h-1358zM813 1727q0 63 48 111.5t112 48.5q67 0 114.5 -47t47.5 -113q0 -70 -46 -116t-116 -46q-68 0 -114 46.5t-46 115.5zM375 1727q0 63 49 111.5t113 48.5q67 0 113.5 -46.5t46.5 -113.5q0 -71 -45.5 -116.5t-114.5 -45.5q-68 0 -115 46.5t-47 115.5z
" />
    <glyph glyph-name="Egrave" unicode="&#xc8;" horiz-adv-x="1532" 
d="M39 0v180h76q80 0 102.5 20t22.5 99v776q0 80 -22.5 99.5t-102.5 19.5h-76v180h1358v-524h-180q-17 120 -40 181.5t-61 96.5q-38 36 -98 51t-215 15h-178v-391h34q114 0 152.5 43t38.5 174h172v-627l-172 1q-3 143 -38 186t-153 43h-34v-443h184q226 0 305.5 78
t102.5 309h180v-567h-1358zM981 1514h-121l-346 172q-59 29 -83.5 58.5t-24.5 68.5q0 49 32.5 82t81.5 33q39 0 76.5 -22.5t89.5 -78.5z" />
    <glyph glyph-name="Iacute" unicode="&#xcd;" horiz-adv-x="897" 
d="M43 0v180h84q80 0 102.5 20t22.5 99v776q0 80 -22.5 99.5t-102.5 19.5h-84v180h811v-180h-84q-81 0 -104 -20.5t-23 -98.5v-776q0 -78 23 -98.5t104 -20.5h84v-180h-811zM224 1514l295 313q54 58 90 79.5t76 21.5q49 0 81.5 -33t32.5 -82q0 -38 -25.5 -68t-82.5 -59
l-346 -172h-121z" />
    <glyph glyph-name="Icircumflex" unicode="&#xce;" horiz-adv-x="897" 
d="M43 0v180h84q80 0 102.5 20t22.5 99v776q0 80 -22.5 99.5t-102.5 19.5h-84v180h811v-180h-84q-81 0 -104 -20.5t-23 -98.5v-776q0 -78 23 -98.5t104 -20.5h84v-180h-811zM109 1512l242 393h196l242 -393h-107l-233 182l-233 -182h-107z" />
    <glyph glyph-name="Idieresis" unicode="&#xcf;" horiz-adv-x="897" 
d="M43 0v180h84q80 0 102.5 20t22.5 99v776q0 80 -22.5 99.5t-102.5 19.5h-84v180h811v-180h-84q-81 0 -104 -20.5t-23 -98.5v-776q0 -78 23 -98.5t104 -20.5h84v-180h-811zM506 1727q0 63 48 111.5t112 48.5q67 0 114.5 -47t47.5 -113q0 -70 -46 -116t-116 -46
q-68 0 -114 46.5t-46 115.5zM68 1727q0 63 49 111.5t113 48.5q67 0 113.5 -46.5t46.5 -113.5q0 -71 -45.5 -116.5t-114.5 -45.5q-68 0 -115 46.5t-47 115.5z" />
    <glyph glyph-name="Igrave" unicode="&#xcc;" horiz-adv-x="897" 
d="M43 0v180h84q80 0 102.5 20t22.5 99v776q0 80 -22.5 99.5t-102.5 19.5h-84v180h811v-180h-84q-81 0 -104 -20.5t-23 -98.5v-776q0 -78 23 -98.5t104 -20.5h84v-180h-811zM674 1514h-121l-346 172q-59 29 -83.5 58.5t-24.5 68.5q0 49 32.5 82t81.5 33q39 0 76.5 -22.5
t89.5 -78.5z" />
    <glyph glyph-name="Oacute" unicode="&#xd3;" horiz-adv-x="1677" 
d="M514 686q0 -281 78 -410t248 -129q169 0 247 129t78 410t-78 410t-247 129q-170 0 -248 -129t-78 -410zM68 686q0 340 205.5 534.5t566.5 194.5q359 0 564.5 -194t205.5 -535q0 -340 -205 -533.5t-565 -193.5q-361 0 -566.5 194t-205.5 533zM615 1514l295 313
q54 58 90 79.5t76 21.5q49 0 81.5 -33t32.5 -82q0 -38 -25.5 -68t-82.5 -59l-346 -172h-121z" />
    <glyph glyph-name="Ocircumflex" unicode="&#xd4;" horiz-adv-x="1677" 
d="M514 686q0 -281 78 -410t248 -129q169 0 247 129t78 410t-78 410t-247 129q-170 0 -248 -129t-78 -410zM68 686q0 340 205.5 534.5t566.5 194.5q359 0 564.5 -194t205.5 -535q0 -340 -205 -533.5t-565 -193.5q-361 0 -566.5 194t-205.5 533zM500 1512l242 393h196
l242 -393h-107l-233 182l-233 -182h-107z" />
    <glyph glyph-name="apple" unicode="&#xf000;" horiz-adv-x="1618" 
d="M836 1216q-1 6 -1.5 14t-0.5 23q0 124 95 229.5t236 131.5q1 -10 1.5 -23t0.5 -39q0 -131 -103.5 -234.5t-203.5 -103.5h-8q-3 0 -7.5 1t-8.5 1zM1505 403q-114 -247 -205 -342.5t-204 -95.5q-50 0 -131.5 33t-122.5 33q-45 0 -131 -33t-127 -33q-64 0 -128.5 44
t-129.5 132q-102 140 -157.5 295.5t-55.5 300.5q0 219 125 356.5t323 137.5q68 0 155 -34t124 -34q34 0 121.5 34t152.5 34q111 0 199 -39.5t160 -122.5q-102 -65 -151.5 -145.5t-49.5 -182.5q0 -113 60 -200t173 -138z" />
    <glyph glyph-name="Ograve" unicode="&#xd2;" horiz-adv-x="1677" 
d="M514 686q0 -281 78 -410t248 -129q169 0 247 129t78 410t-78 410t-247 129q-170 0 -248 -129t-78 -410zM68 686q0 340 205.5 534.5t566.5 194.5q359 0 564.5 -194t205.5 -535q0 -340 -205 -533.5t-565 -193.5q-361 0 -566.5 194t-205.5 533zM1065 1514h-121l-346 172
q-59 29 -83.5 58.5t-24.5 68.5q0 49 32.5 82t81.5 33q39 0 76.5 -22.5t89.5 -78.5z" />
    <glyph glyph-name="Uacute" unicode="&#xda;" horiz-adv-x="1579" 
d="M39 1201v173h778v-174q-13 1 -28 1.5t-41 0.5q-84 0 -112 -31t-28 -172v-550q0 -157 54.5 -222t181.5 -65q152 0 217 62t65 208v557q0 140 -28.5 176.5t-116.5 36.5q-21 0 -32.5 -0.5t-20.5 -1.5v174h612v-174q-78 0 -119 -7.5t-55 -25.5q-9 -10 -12.5 -41t-3.5 -139
v-581q0 -220 -147 -334.5t-429 -114.5q-258 0 -401.5 113.5t-143.5 318.5v604q0 128 -27.5 168.5t-103.5 40.5q-22 0 -35 -0.5t-24 -0.5zM639 1514l295 313q54 58 90 79.5t76 21.5q49 0 81.5 -33t32.5 -82q0 -38 -25.5 -68t-82.5 -59l-346 -172h-121z" />
    <glyph glyph-name="Ucircumflex" unicode="&#xdb;" horiz-adv-x="1579" 
d="M39 1201v173h778v-174q-13 1 -28 1.5t-41 0.5q-84 0 -112 -31t-28 -172v-550q0 -157 54.5 -222t181.5 -65q152 0 217 62t65 208v557q0 140 -28.5 176.5t-116.5 36.5q-21 0 -32.5 -0.5t-20.5 -1.5v174h612v-174q-78 0 -119 -7.5t-55 -25.5q-9 -10 -12.5 -41t-3.5 -139
v-581q0 -220 -147 -334.5t-429 -114.5q-258 0 -401.5 113.5t-143.5 318.5v604q0 128 -27.5 168.5t-103.5 40.5q-22 0 -35 -0.5t-24 -0.5zM524 1512l242 393h196l242 -393h-107l-233 182l-233 -182h-107z" />
    <glyph glyph-name="Ugrave" unicode="&#xd9;" horiz-adv-x="1579" 
d="M39 1201v173h778v-174q-13 1 -28 1.5t-41 0.5q-84 0 -112 -31t-28 -172v-550q0 -157 54.5 -222t181.5 -65q152 0 217 62t65 208v557q0 140 -28.5 176.5t-116.5 36.5q-21 0 -32.5 -0.5t-20.5 -1.5v174h612v-174q-78 0 -119 -7.5t-55 -25.5q-9 -10 -12.5 -41t-3.5 -139
v-581q0 -220 -147 -334.5t-429 -114.5q-258 0 -401.5 113.5t-143.5 318.5v604q0 128 -27.5 168.5t-103.5 40.5q-22 0 -35 -0.5t-24 -0.5zM1089 1514h-121l-346 172q-59 29 -83.5 58.5t-24.5 68.5q0 49 32.5 82t81.5 33q39 0 76.5 -22.5t89.5 -78.5z" />
    <glyph glyph-name="dotlessi" unicode="&#x131;" horiz-adv-x="741" 
d="M207 676v12q0 77 -17.5 93t-74.5 16h-66v170h504v-705q0 -61 17.5 -78.5t74.5 -17.5h51v-166h-647v166h62q59 0 77.5 17.5t18.5 78.5v414z" />
    <glyph glyph-name="circumflex" unicode="&#x2c6;" 
d="M172 1100l242 393h196l242 -393h-107l-233 182l-233 -182h-107z" />
    <glyph glyph-name="tilde" unicode="&#x2dc;" 
d="M252 1133h-88q26 141 87.5 211.5t158.5 70.5q19 0 39.5 -3t44.5 -9l127 -33q22 -5 32 -6.5t17 -1.5q38 0 61 22.5t39 75.5h88q-27 -139 -88.5 -210.5t-153.5 -71.5q-15 0 -33 2.5t-41 7.5l-122 35q-24 5 -38.5 7.5t-23.5 2.5q-41 0 -68 -25.5t-38 -74.5z" />
    <glyph glyph-name="macron" unicode="&#xaf;" 
d="M186 1206v180h652v-180h-652z" />
    <glyph glyph-name="breve" unicode="&#x2d8;" 
d="M166 1460h98q22 -70 78.5 -100.5t169.5 -30.5q112 0 170 31t76 100l98 -2q-21 -157 -110.5 -241t-233.5 -84t-233.5 84.5t-112.5 242.5z" />
    <glyph glyph-name="dotaccent" unicode="&#x2d9;" 
d="M354 1298q0 64 47.5 112t110.5 48q67 0 113.5 -46.5t46.5 -113.5q0 -68 -45.5 -112.5t-114.5 -44.5q-65 0 -111.5 46.5t-46.5 110.5z" />
    <glyph glyph-name="ring" unicode="&#x2da;" 
d="M389 1360q0 -54 35 -89.5t88 -35.5t90 36.5t37 88.5q0 51 -37.5 88t-89.5 37t-87.5 -36.5t-35.5 -88.5zM231 1360q0 118 81.5 200t199.5 82t200.5 -82t82.5 -200t-82.5 -199.5t-200.5 -81.5t-199.5 81.5t-81.5 199.5z" />
    <glyph glyph-name="cedilla" unicode="&#xb8;" 
d="M190 -387l52 108q69 -40 133.5 -60.5t122.5 -20.5q39 0 62.5 21.5t23.5 57.5q0 43 -25 64.5t-74 21.5q-15 0 -52 -6q-7 -1 -11 -2v203h92v-109q18 5 36 7t38 2q91 0 142.5 -48.5t51.5 -134.5q0 -92 -64.5 -146t-174.5 -54q-65 0 -147 22t-206 74z" />
    <glyph glyph-name="hungarumlaut" unicode="&#x2dd;" 
d="M545 1102l237 305l2 2q83 107 152 107q39 0 67.5 -30t28.5 -71q0 -29 -20.5 -56.5t-65.5 -55.5l-305 -201h-96zM266 1102l156 287q42 76 73 102.5t70 26.5q41 0 70 -28.5t29 -68.5q0 -25 -16 -51.5t-50 -56.5l-236 -211h-96z" />
    <glyph glyph-name="ogonek" unicode="&#x2db;" 
d="M686 51q-91 -73 -133.5 -140.5t-42.5 -137.5q0 -52 23.5 -80.5t66.5 -28.5q36 0 62.5 16.5t54.5 57.5l37 -23q-45 -96 -107 -143t-143 -47q-84 0 -133 43.5t-49 118.5q0 92 74 181.5t229 182.5h61z" />
    <glyph glyph-name="caron" unicode="&#x2c7;" 
d="M172 1493h107l233 -182l233 182h107l-242 -393h-196z" />
    <glyph glyph-name="Lslash" unicode="&#x141;" horiz-adv-x="1427" 
d="M47 1374h799v-180h-86q-81 0 -104 -20.5t-23 -98.5v-246l319 215v-188l-319 -215v-461h108q158 0 218.5 15t97.5 51q42 39 65 110.5t33 204.5h180v-561h-1288v180h76q81 0 104 20.5t23 98.5v186l-236 -159v188l236 160v401q0 78 -23 98.5t-104 20.5h-76v180z" />
    <glyph glyph-name="lslash" unicode="&#x142;" horiz-adv-x="737" 
d="M539 1374v-530l194 125v-152l-194 -127v-428q0 -64 17 -80t75 -16h57v-166h-645v166h55q59 0 77 17.5t18 78.5v289l-193 -127v154l193 124v385q0 82 -16 101.5t-75 19.5h-59v166h496z" />
    <glyph glyph-name="Scaron" unicode="&#x160;" horiz-adv-x="1370" 
d="M252 -18h-166v540h184q25 -165 141 -263.5t285 -98.5q116 0 182 44t66 120q0 119 -246 176q-40 9 -61 14q-215 51 -297.5 84t-136.5 76q-69 54 -104.5 129t-35.5 166q0 208 146.5 323t413.5 115q133 0 235.5 -28.5t177.5 -86.5l41 97h170v-502h-188q-18 152 -126 238.5
t-280 86.5q-103 0 -163 -43t-60 -116q0 -105 271 -162q103 -22 163 -37q236 -58 345.5 -166t109.5 -282q0 -205 -153.5 -326t-415.5 -121q-126 0 -245 33.5t-198 89.5zM346 1905h107l233 -182l233 182h107l-242 -393h-196z" />
    <glyph glyph-name="scaron" unicode="&#x161;" horiz-adv-x="1139" 
d="M233 -10h-145v360h162q36 -99 115 -154t184 -55q72 0 110.5 23.5t38.5 66.5q0 33 -25.5 52t-129.5 47q-17 4 -48 12q-233 61 -313 119q-51 37 -78.5 93t-27.5 122q0 148 120 238t320 90q89 0 168.5 -20t159.5 -62l22 55h146v-309h-146q-52 81 -131 124.5t-174 43.5
q-58 0 -91.5 -23.5t-33.5 -64.5q0 -69 235 -128q64 -16 101 -26q140 -38 215.5 -115t75.5 -182q0 -148 -125.5 -240t-329.5 -92q-85 0 -167.5 23t-176.5 73zM229 1493h107l233 -182l233 182h107l-242 -393h-196z" />
    <glyph glyph-name="Zcaron" unicode="&#x17d;" horiz-adv-x="1331" 
d="M47 0v188l778 1002h-225q-180 0 -251.5 -72.5t-82.5 -263.5h-180v520h1198v-198l-786 -1000h245q182 0 255.5 81.5t82.5 301.5h203v-559h-1237zM326 1905h107l233 -182l233 182h107l-242 -393h-196z" />
    <glyph glyph-name="zcaron" unicode="&#x17e;" horiz-adv-x="1010" 
d="M47 0v186l533 613h-119q-146 0 -181.5 -41.5t-35.5 -182.5v-16h-168v408h887v-187l-521 -614h138q123 0 169 43.5t46 159.5q0 23 -0.5 35.5t-1.5 23.5h170v-428h-916zM166 1493h107l233 -182l233 182h107l-242 -393h-196z" />
    <glyph glyph-name="brokenbar" unicode="&#xa6;" 
d="M393 408h240v-758h-240v758zM393 1432h240v-758h-240v758z" />
    <glyph glyph-name="Eth" unicode="&#xd0;" horiz-adv-x="1653" 
d="M633 180h141q195 0 280 118t85 390q0 277 -85 391.5t-290 114.5h-131v-397h264v-166h-264v-451zM47 0v180h76q81 0 104 20.5t23 98.5v332h-238v166h238v278q0 78 -23 98.5t-104 20.5h-76v180h727q412 0 611.5 -169t199.5 -517q0 -349 -200 -518.5t-611 -169.5h-727z" />
    <glyph glyph-name="eth" unicode="&#xf0;" horiz-adv-x="1223" 
d="M420 453q0 -185 42.5 -254.5t147.5 -69.5q106 0 148.5 69.5t42.5 254.5q0 184 -42.5 253.5t-148.5 69.5q-105 0 -147.5 -69.5t-42.5 -253.5zM741 922q-31 55 -68 107.5t-79 103.5l-320 -142l-49 107l283 127q-32 31 -64.5 62.5t-68.5 64.5l104 88q66 -42 118 -78t83 -62
l326 146l49 -103l-273 -126q204 -182 296.5 -356t92.5 -372q0 -255 -144 -389.5t-417 -134.5q-262 0 -410.5 130t-148.5 358q0 219 146 354t383 135q29 0 66.5 -4.5t94.5 -15.5z" />
    <glyph glyph-name="Yacute" unicode="&#xdd;" horiz-adv-x="1597" 
d="M993 315q0 -89 22 -114t105 -25h97v-176h-830v176h96q85 0 107 25.5t22 113.5v252l-301 471q-59 93 -116 126t-147 36l-1 174h787v-174h-66q-43 0 -64.5 -12.5t-21.5 -38.5q0 -12 10 -32.5t37 -61.5l160 -248l186 280q12 18 18.5 36t6.5 34q0 23 -26 33t-83 10h-33v174
h582v-174h-6q-77 0 -126.5 -30t-113.5 -132l-301 -471v-252zM574 1514l295 313q54 58 90 79.5t76 21.5q49 0 81.5 -33t32.5 -82q0 -38 -25.5 -68t-82.5 -59l-346 -172h-121z" />
    <glyph glyph-name="yacute" unicode="&#xfd;" horiz-adv-x="1219" 
d="M522 -70l-317 752q-31 72 -55 93.5t-60 21.5h-55v170h620v-170h-47q-42 0 -63 -8.5t-21 -24.5q0 -20 23 -72l2 -4l149 -344l131 332l5 10q24 61 24 80q0 16 -17.5 23.5t-56.5 7.5h-47v170h457v-170q-70 -2 -103 -22.5t-65 -100.5l-311 -756q-84 -204 -173.5 -284
t-224.5 -80q-128 0 -209 74t-81 192q0 87 51 139.5t135 52.5q74 0 118 -38.5t44 -102.5t-38.5 -101.5t-105.5 -37.5q-13 0 -20.5 0.5t-13.5 1.5q23 -26 45.5 -37.5t46.5 -11.5q74 0 134 63t99 182zM385 1102l295 313q54 58 90 79.5t76 21.5q49 0 81.5 -33t32.5 -82
q0 -38 -25.5 -68t-82.5 -59l-346 -172h-121z" />
    <glyph glyph-name="Thorn" unicode="&#xde;" horiz-adv-x="1497" 
d="M621 481h129q158 0 220 48t62 165q0 106 -65.5 152.5t-216.5 46.5h-129v-412zM240 1075q0 80 -22.5 99.5t-102.5 19.5h-76v180h788v-180h-75q-81 0 -104 -19t-23 -77v-23h262q282 0 412.5 -95.5t130.5 -301.5q0 -87 -34 -159t-98 -124q-62 -50 -154.5 -72t-256.5 -22
h-262v-12q0 -70 22 -89.5t105 -19.5h73v-180h-786v180h76q81 0 103 19.5t22 99.5v776z" />
    <glyph glyph-name="thorn" unicode="&#xfe;" horiz-adv-x="1272" 
d="M680 821q-82 0 -123 -87t-41 -263q0 -160 40.5 -238.5t123.5 -78.5t121.5 80.5t38.5 252.5q0 171 -39.5 252.5t-120.5 81.5zM176 -178v1290q0 58 -19 77t-77 19h-47v166h483v-526q53 76 127 114.5t166 38.5q196 0 298.5 -131.5t102.5 -382.5q0 -239 -106.5 -380.5
t-284.5 -141.5q-92 0 -166.5 35.5t-134.5 108.5v-287q0 -60 19 -78t77 -18h68v-166h-649v166h47q58 0 77 18.5t19 77.5z" />
    <glyph glyph-name="minus" unicode="&#x2212;" horiz-adv-x="1706" 
d="M254 729h1198v-235h-1198v235z" />
    <glyph glyph-name="multiply" unicode="&#xd7;" horiz-adv-x="1706" 
d="M430 1214l440 -440l441 440l162 -161l-441 -443l441 -440l-162 -162l-441 441l-440 -441l-162 162l441 440l-441 443z" />
    <glyph glyph-name="onesuperior" unicode="&#xb9;" horiz-adv-x="858" 
d="M154 500v102h61q60 0 79 11.5t19 60.5v22v346h-159v101q92 2 147.5 27.5t77.5 76.5h172v-559q0 -59 16 -72.5t84 -13.5h54v-102h-551z" />
    <glyph glyph-name="twosuperior" unicode="&#xb2;" horiz-adv-x="858" 
d="M57 500v41q0 68 31 125.5t96 111.5q46 37 148 87q45 22 65 34q64 36 87.5 67t23.5 72q0 53 -44 85t-118 32q-60 0 -99.5 -21t-57.5 -62q10 2 20 3.5t20 1.5q43 0 69 -23t26 -61q0 -43 -35.5 -72.5t-87.5 -29.5q-66 0 -105 36.5t-39 98.5q0 104 100 174t253 70
q163 0 260.5 -68.5t97.5 -181.5q0 -85 -62.5 -144.5t-187.5 -93.5l-45 -12q-202 -54 -258 -125q39 21 80.5 31t89.5 10q50 0 117.5 -13.5t87.5 -13.5q42 0 60 24t18 81h118q1 -8 1.5 -17.5t0.5 -27.5q0 -123 -59.5 -182.5t-183.5 -59.5q-56 0 -141 31q-20 7 -29 10
q-44 15 -73 22t-50 7q-28 0 -48.5 -12.5t-31.5 -34.5h-115z" />
    <glyph glyph-name="threesuperior" unicode="&#xb3;" horiz-adv-x="858" 
d="M354 840l1 104q82 3 122.5 30t40.5 79q0 53 -43 83.5t-119 30.5q-42 0 -74.5 -10t-58.5 -31h13q42 0 67 -21.5t25 -57.5q0 -45 -31 -71t-84 -26q-58 0 -91.5 30t-33.5 83q0 94 88.5 150.5t239.5 56.5q167 0 257.5 -53t90.5 -150q0 -63 -46 -106.5t-128 -57.5
q104 -23 155.5 -69.5t51.5 -118.5q0 -117 -102 -177.5t-298 -60.5q-155 0 -245.5 55.5t-90.5 149.5q0 60 38.5 96.5t101.5 36.5q51 0 84.5 -29t33.5 -73q0 -42 -29 -66t-79 -24q29 -22 65 -31.5t84 -9.5q86 0 132.5 36.5t46.5 104.5q0 60 -44.5 88.5t-140.5 28.5z" />
    <glyph glyph-name="onequarter" unicode="&#xbc;" horiz-adv-x="1980" 
d="M1452 0v94h35q61 0 80.5 10t19.5 56v6v47h-375v109l402 376h194v-385h125v-100h-125v-70q0 -30 17 -39.5t73 -9.5h35v-94h-481zM1341 313h246l2 226zM477 -37l854 1321h170l-842 -1321h-182zM147 549v94h58q56 0 75 11t19 57v22v324h-152l1 92q87 2 139.5 26t72.5 72h166
v-522q0 -56 15.5 -69t79.5 -13h51v-94h-525z" />
    <glyph glyph-name="onehalf" unicode="&#xbd;" horiz-adv-x="1980" 
d="M1217 0q-2 7 -2.5 14.5t-0.5 22.5q0 65 30.5 119.5t92.5 103.5q42 31 115 67.5t88 45.5q59 31 82 60t23 71q0 49 -42 78.5t-112 29.5q-58 0 -95.5 -19.5t-53.5 -59.5q11 3 20.5 4.5t17.5 1.5q42 0 66 -21.5t24 -56.5q0 -41 -33.5 -67.5t-84.5 -26.5q-63 0 -100.5 33.5
t-37.5 91.5q0 96 96 161.5t242 65.5q156 0 249 -64t93 -170q0 -79 -60 -134.5t-178 -86.5q-15 -4 -47 -13q-190 -50 -243 -114q39 19 79.5 28t84.5 9q46 0 110.5 -12t83.5 -12q40 0 57 21.5t17 74.5h115v-41q0 -115 -56.5 -170t-175.5 -55q-54 0 -135 28q-18 6 -26 8
q-43 16 -70.5 22.5t-46.5 6.5q-27 0 -46 -11.5t-30 -33.5h-110zM477 -37l854 1321h170l-842 -1321h-182zM147 549v94h58q56 0 75 11t19 57v22v324h-152l1 92q87 2 139.5 26t72.5 72h166v-522q0 -56 15.5 -69t79.5 -13h51v-94h-525z" />
    <glyph glyph-name="threequarters" unicode="&#xbe;" horiz-adv-x="1980" 
d="M1452 0v94h35q61 0 80.5 10t19.5 56v6v47h-375v109l402 376h194v-385h125v-100h-125v-70q0 -30 17 -39.5t73 -9.5h35v-94h-481zM1341 313h246l2 226zM477 -37l854 1321h170l-842 -1321h-182zM338 866v96q79 4 118.5 29.5t39.5 73.5q0 50 -42 79.5t-114 29.5
q-38 0 -69.5 -10t-57.5 -29h12q41 0 64.5 -21t23.5 -55q0 -42 -30 -66t-80 -24q-55 0 -87 28.5t-32 77.5q0 88 84 140.5t227 52.5q160 0 247 -49.5t87 -139.5q0 -60 -44 -100.5t-122 -52.5q100 -22 149.5 -65.5t49.5 -110.5q0 -110 -98 -167t-285 -57q-148 0 -235 52.5
t-87 140.5q0 55 37.5 90t95.5 35q50 0 82.5 -27.5t32.5 -68.5q0 -39 -28.5 -61.5t-75.5 -22.5q28 -20 62 -28.5t81 -8.5q82 0 126 33.5t44 95.5q0 57 -42.5 83.5t-133.5 26.5z" />
    <glyph glyph-name="franc" unicode="&#x20a3;" horiz-adv-x="2451" 
d="M39 0v180h76q80 0 102.5 20t22.5 99v776q0 80 -22.5 99.5t-102.5 19.5h-76v180h1288v-561h-180q-10 131 -33.5 204t-66.5 113q-36 35 -94 49.5t-220 14.5h-108v-391h14q97 0 134.5 45t37.5 162v10h172v-627l-172 1q-2 133 -36 182t-120 49q-5 0 -15 -1t-15 -1v-324
q0 -78 22.5 -98.5t104.5 -20.5h86v-180h-799zM1454 0v166h61q59 0 78 18.5t19 77.5v443q0 59 -19 77.5t-78 18.5h-61v166h483v-97q54 62 116.5 93.5t129.5 31.5q109 0 172 -61t63 -164q0 -89 -50 -143t-132 -54q-64 0 -106.5 42t-42.5 104q0 47 26 79t74 46q-19 9 -33 12.5
t-26 3.5q-76 0 -125 -81t-49 -210v-307q0 -59 18.5 -77.5t77.5 -18.5h82v-166h-678z" />
    <glyph glyph-name="Gbreve" unicode="&#x11e;" horiz-adv-x="1602" 
d="M1239 -14l-51 104q-102 -66 -209.5 -98.5t-224.5 -32.5q-315 0 -500.5 191.5t-185.5 517.5q0 333 192.5 540t501.5 207q112 0 210.5 -31t190.5 -96l35 101h188v-553h-196q-22 190 -108 282t-244 92q-160 0 -242 -126t-82 -371q0 -290 75.5 -420.5t239.5 -130.5
q118 0 163.5 39t45.5 145v96q0 74 -18 90.5t-80 16.5h-100v180h749v-180h-73q-55 0 -75 -19.5t-20 -72.5v-471h-182zM455 1872h98q22 -70 78.5 -100.5t169.5 -30.5q112 0 170 31t76 100l98 -2q-21 -157 -110.5 -241t-233.5 -84t-233.5 84.5t-112.5 242.5z" />
    <glyph glyph-name="gbreve" unicode="&#x11f;" horiz-adv-x="1319" 
d="M561 362q63 0 90 59.5t27 205.5q0 134 -26.5 189.5t-88.5 55.5t-89.5 -60t-27.5 -204q0 -126 28 -186t87 -60zM313 -221q0 -41 76 -61.5t223 -20.5q170 0 243 20.5t73 67.5q0 43 -62 60.5t-233 17.5q-190 0 -255 -18.5t-65 -65.5zM240 322q-63 65 -93 136t-30 152
q0 186 121 290t337 104q90 0 165 -23.5t143 -71.5q54 48 108 71.5t111 23.5q100 0 163.5 -57.5t63.5 -147.5q0 -66 -37.5 -106t-99.5 -40q-56 0 -94.5 34t-38.5 81q0 30 13 56.5t40 52.5q-10 12 -22.5 18t-24.5 6q-24 0 -54 -17t-65 -50q34 -45 51 -100t17 -120
q0 -177 -127 -282t-342 -105q-50 0 -102 9.5t-105 27.5q-21 -12 -31 -26t-10 -31q0 -42 52.5 -58t244.5 -16q41 0 111.5 1t99.5 1q182 0 274 -67t92 -199q0 -167 -137.5 -241t-458.5 -74q-259 0 -385.5 50t-126.5 152q0 60 40.5 100.5t121.5 61.5q-74 40 -109.5 92.5
t-35.5 122.5q0 60 39.5 106.5t120.5 82.5zM313 1460h98q22 -70 78.5 -100.5t169.5 -30.5q112 0 170 31t76 100l98 -2q-21 -157 -110.5 -241t-233.5 -84t-233.5 84.5t-112.5 242.5z" />
    <glyph glyph-name="Idotaccent" unicode="&#x130;" horiz-adv-x="897" 
d="M43 0v180h84q80 0 102.5 20t22.5 99v776q0 80 -22.5 99.5t-102.5 19.5h-84v180h811v-180h-84q-81 0 -104 -20.5t-23 -98.5v-776q0 -78 23 -98.5t104 -20.5h84v-180h-811zM291 1710q0 64 47.5 112t110.5 48q67 0 113.5 -46.5t46.5 -113.5q0 -68 -45.5 -112.5t-114.5 -44.5
q-65 0 -111.5 46.5t-46.5 110.5z" />
    <glyph glyph-name="Scedilla" unicode="&#x15e;" horiz-adv-x="1370" 
d="M252 -18h-166v540h184q25 -165 141 -263.5t285 -98.5q116 0 182 44t66 120q0 119 -246 176q-40 9 -61 14q-215 51 -297.5 84t-136.5 76q-69 54 -104.5 129t-35.5 166q0 208 146.5 323t413.5 115q133 0 235.5 -28.5t177.5 -86.5l41 97h170v-502h-188q-18 152 -126 238.5
t-280 86.5q-103 0 -163 -43t-60 -116q0 -105 271 -162q103 -22 163 -37q236 -58 345.5 -166t109.5 -282q0 -205 -153.5 -326t-415.5 -121q-126 0 -245 33.5t-198 89.5zM364 -387l52 108q69 -40 133.5 -60.5t122.5 -20.5q39 0 62.5 21.5t23.5 57.5q0 43 -25 64.5t-74 21.5
q-15 0 -52 -6q-7 -1 -11 -2v203h92v-109q18 5 36 7t38 2q91 0 142.5 -48.5t51.5 -134.5q0 -92 -64.5 -146t-174.5 -54q-65 0 -147 22t-206 74z" />
    <glyph glyph-name="scedilla" unicode="&#x15f;" horiz-adv-x="1139" 
d="M233 -10h-145v360h162q36 -99 115 -154t184 -55q72 0 110.5 23.5t38.5 66.5q0 33 -25.5 52t-129.5 47q-17 4 -48 12q-233 61 -313 119q-51 37 -78.5 93t-27.5 122q0 148 120 238t320 90q89 0 168.5 -20t159.5 -62l22 55h146v-309h-146q-52 81 -131 124.5t-174 43.5
q-58 0 -91.5 -23.5t-33.5 -64.5q0 -69 235 -128q64 -16 101 -26q140 -38 215.5 -115t75.5 -182q0 -148 -125.5 -240t-329.5 -92q-85 0 -167.5 23t-176.5 73zM247 -387l52 108q69 -40 133.5 -60.5t122.5 -20.5q39 0 62.5 21.5t23.5 57.5q0 43 -25 64.5t-74 21.5q-15 0 -52 -6
q-7 -1 -11 -2v203h92v-109q18 5 36 7t38 2q91 0 142.5 -48.5t51.5 -134.5q0 -92 -64.5 -146t-174.5 -54q-65 0 -147 22t-206 74z" />
    <glyph glyph-name="Cacute" unicode="&#x106;" horiz-adv-x="1507" 
d="M1194 532h217q-8 -284 -162 -428.5t-450 -144.5q-334 0 -532.5 198t-198.5 531q0 166 51 297t157 236q102 100 224.5 147t281.5 47q112 0 210.5 -32.5t189.5 -100.5l41 109h188v-560h-201q-12 181 -103.5 282t-242.5 101q-165 0 -257.5 -137.5t-92.5 -386.5
q0 -253 91.5 -389.5t260.5 -136.5q144 0 230.5 97.5t97.5 270.5zM561 1514l295 313q54 58 90 79.5t76 21.5q49 0 81.5 -33t32.5 -82q0 -38 -25.5 -68t-82.5 -59l-346 -172h-121z" />
    <glyph glyph-name="cacute" unicode="&#x107;" horiz-adv-x="1028" 
d="M760 340h214q-9 -180 -119 -277.5t-304 -97.5q-240 0 -372 136.5t-132 383.5q0 240 137 379.5t373 139.5q193 0 309.5 -92t116.5 -242q0 -96 -56 -152.5t-151 -56.5q-77 0 -123.5 44t-46.5 118q0 71 41 111t113 40h4q-30 30 -63 43.5t-74 13.5q-109 0 -164 -84t-55 -251
q0 -175 46 -258.5t142 -83.5q77 0 118 47t46 139zM328 1102l295 313q54 58 90 79.5t76 21.5q49 0 81.5 -33t32.5 -82q0 -38 -25.5 -68t-82.5 -59l-346 -172h-121z" />
    <glyph glyph-name="Ccaron" unicode="&#x10c;" horiz-adv-x="1507" 
d="M1194 532h217q-8 -284 -162 -428.5t-450 -144.5q-334 0 -532.5 198t-198.5 531q0 166 51 297t157 236q102 100 224.5 147t281.5 47q112 0 210.5 -32.5t189.5 -100.5l41 109h188v-560h-201q-12 181 -103.5 282t-242.5 101q-165 0 -257.5 -137.5t-92.5 -386.5
q0 -253 91.5 -389.5t260.5 -136.5q144 0 230.5 97.5t97.5 270.5zM446 1905h107l233 -182l233 182h107l-242 -393h-196z" />
    <glyph glyph-name="ccaron" unicode="&#x10d;" horiz-adv-x="1028" 
d="M760 340h214q-9 -180 -119 -277.5t-304 -97.5q-240 0 -372 136.5t-132 383.5q0 240 137 379.5t373 139.5q193 0 309.5 -92t116.5 -242q0 -96 -56 -152.5t-151 -56.5q-77 0 -123.5 44t-46.5 118q0 71 41 111t113 40h4q-30 30 -63 43.5t-74 13.5q-109 0 -164 -84t-55 -251
q0 -175 46 -258.5t142 -83.5q77 0 118 47t46 139zM213 1493h107l233 -182l233 182h107l-242 -393h-196z" />
    <glyph glyph-name="dcroat" unicode="&#x111;" horiz-adv-x="1278" 
d="M754 815v217h-287v127h287v6q0 37 -22 52.5t-75 15.5h-67v141h506v-215h202v-127h-202v-774q0 -59 18.5 -77.5t77.5 -18.5h47v-162h-471v125q-65 -86 -136 -124t-165 -38q-196 0 -300 128t-104 370q0 221 109 359t281 138q92 0 166 -35t135 -108zM754 459
q0 156 -40 233.5t-120 77.5q-81 0 -121.5 -78t-40.5 -235q0 -151 42 -232.5t120 -81.5q80 0 120 79.5t40 236.5z" />
    <glyph glyph-name="sfthyphen" unicode="&#xad;" horiz-adv-x="725" 
d="M651 330h-577v307h577v-307z" />
    <glyph glyph-name="periodcentered" unicode="&#x2219;" horiz-adv-x="651" 
d="M152 653q0 72 50.5 122t123.5 50q72 0 122 -49.5t50 -122.5q0 -74 -49.5 -124t-122.5 -50t-123.5 50.5t-50.5 123.5z" />
    <glyph glyph-name="Euro" horiz-adv-x="1300" 
d="M1251 451q-7 -234 -139 -360t-369 -126q-215 0 -368 124t-203 339h-180l39 133h122q-1 12 -1 24v38q0 24 3 66q0 6 1 9h-164l39 133h145q52 210 203 330.5t362 120.5q92 0 173.5 -31.5t123.5 -83.5l33 80h168v-446h-180q-27 153 -93 227t-180 74q-95 0 -156 -68t-87 -203
h389l-37 -133h-367q-1 -15 -1.5 -29t-0.5 -46q0 -12 1 -32t1 -30h322l-37 -133h-272q24 -144 86 -213.5t170 -69.5q124 0 196 79.5t82 226.5h176z" />
    <glyph glyph-name="Euro" unicode="&#x20ac;" horiz-adv-x="1300" 
d="M1251 451q-7 -234 -139 -360t-369 -126q-215 0 -368 124t-203 339h-180l39 133h122q-1 12 -1 24v38q0 24 3 66q0 6 1 9h-164l39 133h145q52 210 203 330.5t362 120.5q92 0 173.5 -31.5t123.5 -83.5l33 80h168v-446h-180q-27 153 -93 227t-180 74q-95 0 -156 -68t-87 -203
h389l-37 -133h-367q-1 -15 -1.5 -29t-0.5 -46q0 -12 1 -32t1 -30h322l-37 -133h-272q24 -144 86 -213.5t170 -69.5q124 0 196 79.5t82 226.5h176z" />
    </font>
</defs>
</svg>
