<?xml version="1.0" standalone="no"?>
<!DOCTYPE svg PUBLIC "-//W3C//DTD SVG 1.1//EN" "http://www.w3.org/Graphics/SVG/1.1/DTD/svg11.dtd" >
<svg xmlns="http://www.w3.org/2000/svg" xmlns:xlink="http://www.w3.org/1999/xlink" version="1.1">
<metadata>
Created by FontForge 20190801 at Thu Nov  2 22:40:01 2017
 By Jimmy Wärting
Copyright (c) Datto, Inc. All rights reserved.
</metadata>
<defs>
<font id="D-DINCondensed-Bold" horiz-adv-x="410" >
  <font-face 
    font-family="D-DIN Condensed"
    font-weight="700"
    font-stretch="condensed"
    units-per-em="1000"
    panose-1="2 11 8 6 3 2 2 3 2 4"
    ascent="831"
    descent="-169"
    x-height="528"
    cap-height="690"
    bbox="-144 -168 1015 894"
    underline-thickness="50"
    underline-position="-150"
    unicode-range="U+000D-FB02"
  />
<missing-glyph horiz-adv-x="600" 
d="M101 690h397v-690h-397v690zM464 34v622h-329v-622h329z" />
    <glyph glyph-name="fi" unicode="fi" horiz-adv-x="493" 
d="M207.5 595c-8.33301 -8.66699 -12.5 -23.667 -12.5 -45v-22h71v-81h-71v-447h-115v447h-53v81h53v30c0 88 45.333 132 136 132h50v-82h-15c-20.667 0 -35.167 -4.33301 -43.5 -13zM332 528h116v-528h-116v528zM332 690h116v-97h-116v97z" />
    <glyph glyph-name="fl" unicode="fl" horiz-adv-x="527" 
d="M207.5 595c-8.33301 -8.66699 -12.5 -23.667 -12.5 -45v-22h71v-81h-71v-447h-115v447h-53v81h53v30c0 88 45.333 132 136 132h50v-82h-15c-20.667 0 -35.167 -4.33301 -43.5 -13zM328 164v526h116v-519c0 -44.667 21.333 -67 64 -67h5v-104h-6
c-119.333 0 -179 54.667 -179 164z" />
    <glyph glyph-name=".notdef" horiz-adv-x="600" 
d="M101 690h397v-690h-397v690zM464 34v622h-329v-622h329z" />
    <glyph glyph-name="nonmarkingreturn" unicode="&#xd;" horiz-adv-x="175" 
 />
    <glyph glyph-name="space" unicode=" " horiz-adv-x="175" 
 />
    <glyph glyph-name="exclam" unicode="!" horiz-adv-x="208" 
d="M41 690h126l-24 -470h-78zM49 127h109v-127h-109v127z" />
    <glyph glyph-name="quotedbl" unicode="&#x22;" horiz-adv-x="351" 
d="M29 690h113v-292h-113v292zM209 690h113v-292h-113v292z" />
    <glyph glyph-name="numbersign" unicode="#" horiz-adv-x="462" 
d="M369 410l-12 -115h72v-82h-81l-22 -213h-91l22 213h-89l-22 -213h-92l22 213h-62v82h71l12 115h-63v82h71l21 198h91l-20 -198h89l20 198h92l-21 -198h71v-82h-79zM277 410h-89l-12 -115h89z" />
    <glyph glyph-name="dollar" unicode="$" horiz-adv-x="428" 
d="M344 93.5c-21.333 -30.333 -51.6641 -50.167 -90.9971 -59.5v-79h-85v73c-48 4.66699 -84.5 23 -109.5 55s-38.167 75.333 -39.5 130h115c1.33301 -27.333 7.16602 -47.833 17.499 -61.5s25.5 -20.5 45.5 -20.5c20.667 0 35.834 6.16699 45.5 18.5
c9.66699 12.333 14.5 31.833 14.5 58.5c0 20.667 -5.33301 37.334 -16 50c-10.667 12.667 -28.334 24.667 -53.001 36l-49 22c-40.667 18 -69.834 40.167 -87.501 66.5c-17.667 26.334 -26.5 62.167 -26.5 107.5c0 48 12.833 87.167 38.5 117.5s60.5 48.833 104.5 55.5v92
h85v-96c36 -10 64 -30 84 -60s30.667 -69 32 -117h-112c-0.667969 26 -5.16797 45.5 -13.5 58.5c-8.33301 13 -22.5 19.5 -42.5 19.5c-38 0 -57 -21.333 -57 -64c0 -20 4.66699 -36 14 -48s24 -22 44 -30l47 -19c45.333 -18.667 77.833 -42.5 97.5 -71.5
s29.5 -67.833 29.5 -116.5c0 -48 -10.667 -87.167 -32 -117.5zM89.002 689.999z" />
    <glyph glyph-name="percent" unicode="%" horiz-adv-x="762" 
d="M470 698h82l-260 -698h-82zM31 378v206c0 74.667 37 112 111 112s111 -37.333 111 -112v-206c0 -74.667 -37 -112 -111 -112s-111 37.333 -111 112zM165.5 350.5c4.33301 7 6.50195 20.167 6.50195 39.5v182c0 20 -2.16699 33.333 -6.5 40
c-4.33398 6.66699 -12.167 10 -23.5 10c-11.334 0 -19.001 -3.33301 -23.001 -10s-6 -20 -6 -40v-182c0 -19.333 2 -32.5 6 -39.5s11.667 -10.5 23 -10.5s19.166 3.5 23.499 10.5zM509.002 105v206c0 74.667 37 112 111 112s111 -37.333 111 -112v-206
c0 -74.667 -37 -112 -111 -112s-111 37.333 -111 112zM643.502 77.5c4.33301 7 6.5 20.167 6.5 39.5v182c0 20 -2.16699 33.333 -6.5 40c-4.33789 6.66699 -12.1709 10 -23.499 10c-11.333 0 -19 -3.33301 -23 -10s-6 -20 -6 -40v-182c0 -19.333 2 -32.5 6 -39.5
s11.667 -10.5 23 -10.5s19.166 3.5 23.499 10.5z" />
    <glyph glyph-name="ampersand" unicode="&#x26;" horiz-adv-x="514" 
d="M439.5 107c6.33496 -4 14.1689 -6.00293 23.501 -6.00293h12v-101h-48c-22 0 -38.833 4 -50.5 12s-24.5 23 -38.5 45c-18.667 -24 -39.667 -41.167 -63 -51.5s-50.333 -15.5 -81 -15.5c-46.667 0 -84.334 14.667 -113.001 44s-43 68.333 -43 117
c0 34.667 8.5 68.834 25.5 102.501s45.5 71.834 85.5 114.501c-26 42.667 -44.5 76.834 -55.5 102.501s-16.5 51.5 -16.5 77.5c0 45.333 14.333 82 43 110s66 42 112 42c45.333 0 82.333 -14 111 -42s43 -64.667 43 -110c0 -29.334 -7.66699 -59.334 -23 -90
c-15.333 -30.667 -41 -65.334 -77 -104l61 -102l46 74l83 -57l-72 -112l18 -30c5.33691 -9.33301 11.1699 -16 17.5 -20zM199.501 594.497c-7.66699 -9.66699 -11.5 -23.167 -11.5 -40.5c0 -12 2.83301 -25.833 8.5 -41.5s16.167 -36.5 31.5 -62.5
c18.667 21.333 31.167 39.5 37.5 54.5s9.5 31.5 9.5 49.5s-3.83301 31.667 -11.5 41s-18.167 14 -31.5 14c-14 0 -24.833 -4.83301 -32.5 -14.5zM245.001 107.997c11.333 7.33301 24.001 20.666 38.001 39.999l-77 126c-19.333 -22 -32.833 -41.5 -40.5 -58.5
s-11.5 -34.5 -11.5 -52.5c0 -21.333 4.83301 -37.666 14.5 -48.999s22.834 -17 39.5 -17c13.333 0 25.666 3.66699 36.999 11z" />
    <glyph glyph-name="quotesingle" unicode="'" horiz-adv-x="171" 
d="M29 690h113v-292h-113v292z" />
    <glyph glyph-name="parenleft" unicode="(" horiz-adv-x="272" 
d="M62.5 114c-16.333 70 -24.5 141.331 -24.5 213.998s8.16699 144 24.5 214s40.5 136 72.5 198h99c-26.667 -64.667 -47 -132.167 -61 -202.5s-21 -140.166 -21 -209.499s7 -139.166 21 -209.499s34.333 -137.833 61 -202.5h-99c-32 62 -56.167 128 -72.5 198z" />
    <glyph glyph-name="parenright" unicode=")" horiz-adv-x="272" 
d="M99 118.5c14 70.333 21 140.167 21 209.5c0 69.334 -7 139.167 -21 209.5s-34.333 137.833 -61 202.5h99c32 -62 56.167 -128 72.5 -198s24.5 -141.333 24.5 -214s-8.16699 -144 -24.5 -214s-40.5 -136 -72.5 -198h-99c26.667 64.667 47 132.167 61 202.5z" />
    <glyph glyph-name="asterisk" unicode="*" horiz-adv-x="336" 
d="M135 491l-67 -39l-29 51l69 40l-70 41l30 53l67 -39v92h66v-94l67 39l29 -51l-70 -40l71 -42l-30 -52l-67 39v-97h-66v99z" />
    <glyph glyph-name="plus" unicode="+" horiz-adv-x="419" 
d="M154 220h-122v111h122v122h111v-122h122v-111h-122v-122h-111v122z" />
    <glyph glyph-name="comma" unicode="," horiz-adv-x="171" 
d="M29 133h113v-202l-113 -91v293z" />
    <glyph glyph-name="hyphen" unicode="-" horiz-adv-x="351" 
d="M38 401h275v-110h-275v110z" />
    <glyph glyph-name="period" unicode="." horiz-adv-x="175" 
d="M29 132h117v-132h-117v132z" />
    <glyph glyph-name="slash" unicode="/" horiz-adv-x="298" 
d="M168 698h92l-131 -708h-91z" />
    <glyph glyph-name="zero" unicode="0" horiz-adv-x="409" 
d="M79 38.5c-27.333 32.333 -41 81.501 -41 147.501v320c0 65.333 13.667 114.166 41 146.499s69 48.5 125 48.5c56.667 0 98.667 -16.167 126 -48.5c27.333 -32.335 41 -81.168 41 -146.5v-320c0 -66 -13.667 -115.167 -41 -147.5s-69.333 -48.5 -126 -48.5
c-56 0 -97.667 16.167 -125 48.5zM239 120.001c6.66699 12.667 10.001 35 10.001 67v318c0 31.333 -3.33301 53.333 -10 66s-18.334 19 -35.001 19s-28 -6.16699 -34 -18.5s-9 -34.5 -9 -66.5v-318c0 -32 3.16699 -54.333 9.5 -67s17.5 -19 33.5 -19
c16.667 0 28.334 6.33301 35 19z" />
    <glyph glyph-name="one" unicode="1" horiz-adv-x="293" 
d="M122 547l-95 -77v143l95 77h125v-690h-125v547z" />
    <glyph glyph-name="two" unicode="2" horiz-adv-x="397" 
d="M34 107l175 283.001c12 20 20.5 37.167 25.5 51.5s7.5 32.5 7.5 54.5v39c0 36.667 -14.333 55 -43 55c-28 0 -42 -20 -42 -60v-46h-119v61c0 47.333 15 85 45 113s69.667 42 119 42s88.5 -14.333 117.5 -43s43.5 -67.334 43.5 -116.001v-49c0 -30 -4 -56.167 -12 -78.5
s-20.667 -47.5 -38 -75.5l-142 -227h192v-111h-329v107z" />
    <glyph glyph-name="three" unicode="3" horiz-adv-x="399" 
d="M75 32.5c-28 28.333 -41.999 67.168 -41.999 116.501v51h119v-45c0 -36 14.333 -54 43 -54c16.667 0 28 5 34 15s9 25.333 9 46v71c0 24.667 -3.33301 42 -10 52s-20 15 -40 15h-26v110h28c19.333 0 32.166 4.83301 38.499 14.5s9.5 25.167 9.5 46.5v57
c0 20.667 -3.16699 36 -9.5 46s-17.5 15 -33.5 15c-28.667 0 -43 -18 -43 -54v-42h-119v49c0 48.667 14.5 87.167 43.5 115.5s69.167 42.5 120.5 42.5c52 0 92.333 -14.333 121 -43s43 -69.334 43 -122.001v-47c0 -33.333 -5 -60 -15 -80s-28 -36 -54 -48
c28 -12 46.5 -28 55.5 -48s13.5 -48.333 13.5 -85v-71c0 -52 -14.5 -92.667 -43.5 -122s-69.5 -44 -121.5 -44c-52.667 0 -93 14.167 -121 42.5z" />
    <glyph glyph-name="four" unicode="4" horiz-adv-x="427" 
d="M400 115h-43v-115h-123v115h-207v111l137 464h123l-137 -464h84v152h123v-152h43v-111z" />
    <glyph glyph-name="five" unicode="5" horiz-adv-x="406" 
d="M80.5 33c-28.333 28.667 -42.501 70.334 -42.501 125.001v32h121v-27c0 -22 3.33301 -38 10 -48s17.667 -15 33 -15s26.333 5 33 15s10 26 10 48v121c0 39.333 -14.333 59 -43 59c-10.667 0 -19.334 -2.83301 -26.001 -8.5s-12.667 -14.5 -18 -26.5h-112v382h322v-112
h-210v-154c19.333 17.333 45.333 26 78 26c88 0 132 -53.667 132 -161v-128c0 -56.667 -14.167 -99.334 -42.5 -128.001s-69.166 -43 -122.499 -43s-94.166 14.333 -122.499 43z" />
    <glyph glyph-name="six" unicode="6" horiz-adv-x="400" 
d="M76.5 33.5c-28.333 29 -42.5 70.833 -42.5 125.5v103c0 31.334 2.66699 57.667 8 79s14 46 26 74l122 275h127l-117 -269c10.667 4.66699 23.334 7 38 7c40 0 71.333 -13.5 94 -40.5s34 -64.167 34 -111.5v-121c0 -52 -14.5 -92.5 -43.5 -121.5
s-69.833 -43.5 -122.5 -43.5c-54 0 -95.167 14.5 -123.5 43.5zM232 115c7.33301 9.33301 11 22.666 11 39.999v112c0 35.333 -14.333 53 -43 53c-14 0 -24.667 -4.16699 -32 -12.5s-11 -20.166 -11 -35.499v-118c0 -35.333 14.333 -53 43 -53c14 0 24.667 4.66699 32 14z
" />
    <glyph glyph-name="seven" unicode="7" horiz-adv-x="381" 
d="M358 690v-111l-169 -579h-123l169 579h-212v111h335z" />
    <glyph glyph-name="eight" unicode="8" 
d="M81 34.5c-28.667 29.667 -43 72.834 -43 129.501v71c0 58.667 19.667 100.667 59 126c-19.333 11.334 -34 27.667 -44 49s-15 43.333 -15 66v65c0 48.667 15.167 87.334 45.5 116c30.333 28.667 70.833 43 121.5 43c51.333 0 92 -14.333 122 -43s45 -67.334 45 -116.001
v-65c0 -22.667 -5.16699 -44.667 -15.5 -66s-24.833 -37.666 -43.5 -48.999c39.333 -24.667 59 -66.667 59 -126v-71c0 -56.667 -14.5 -99.834 -43.5 -129.501s-70.167 -44.5 -123.5 -44.5c-54 0 -95.333 14.833 -124 44.5zM239 425.5c6 10.334 9 25.167 9 44.499v70
c0 16 -3.66699 28.5 -11 37.5s-18 13.5 -32 13.5s-24.667 -4.5 -32 -13.5s-11 -21.5 -11 -37.5v-70c0 -19.333 3.16699 -34.166 9.5 -44.499s17.5 -15.5 33.5 -15.5c16.667 0 28 5.16699 34 15.5zM239.5 115c5.66699 10.667 8.5 26.667 8.5 48v81
c0 39.333 -14.333 59 -43 59c-16 0 -27.167 -5.16699 -33.5 -15.5s-9.5 -24.833 -9.5 -43.5v-81c0 -21.333 3 -37.333 9 -48s17.333 -16 34 -16c17.333 0 28.833 5.33301 34.5 16z" />
    <glyph glyph-name="nine" unicode="9" horiz-adv-x="400" 
d="M200 269c-9.33301 -4.66699 -22 -7 -38 -7c-40 0 -71.333 13.5 -94 40.5s-34 64.167 -34 111.5v121c0 52 14.5 92.5 43.5 121.5s70.167 43.5 123.5 43.5c54 0 95 -14.5 123 -43.5s42 -70.833 42 -125.5v-103c0 -31.333 -2.5 -57.833 -7.5 -79.5
s-13.5 -46.167 -25.5 -73.5l-123 -275h-127zM232 382.5c7.33301 8.33496 11.001 20.168 11.001 35.5v118c0 35.333 -14 53 -42 53c-29.333 0 -44 -18 -44 -54v-112c0 -35.333 14.667 -53 44 -53c13.333 0 23.666 4.16699 30.999 12.5z" />
    <glyph glyph-name="colon" unicode=":" horiz-adv-x="175" 
d="M29 132h117v-132h-117v132zM29 470h117v-132h-117v132z" />
    <glyph glyph-name="semicolon" unicode=";" horiz-adv-x="175" 
d="M29 470h117v-132h-117v132zM33 133h113v-202l-113 -91v293z" />
    <glyph glyph-name="less" unicode="&#x3c;" horiz-adv-x="419" 
d="M32 232v88l342 138v-99l-218 -83l218 -83v-99z" />
    <glyph glyph-name="equal" unicode="=" horiz-adv-x="419" 
d="M32 419h342v-94h-342v94zM32 227h342v-95h-342v95z" />
    <glyph glyph-name="greater" unicode="&#x3e;" horiz-adv-x="419" 
d="M32 193l217 83l-217 83v99l342 -138v-88l-342 -138v99z" />
    <glyph glyph-name="question" unicode="?" horiz-adv-x="376" 
d="M129 241c0 29.334 2.16699 52.667 6.5 70s15.5 40.333 33.5 69l35 56c10.668 16.667 17.835 31.5 21.501 44.5c3.66699 13 5.5 29.833 5.5 50.5c0 42 -15.667 63 -47 63c-20.667 0 -33.834 -7.33301 -39.501 -22s-8.5 -39.667 -8.5 -75h-116
c0 68 13.167 118.667 39.5 152s68.166 50 125.499 50c50.667 0 90.834 -14.5 120.501 -43.5s44.5 -69.5 44.5 -121.5c0 -26 -3 -49 -9 -69s-18 -43.333 -36 -70l-39 -57c-12 -16.667 -19.5 -31.334 -22.5 -44c-3 -12.667 -4.5 -30 -4.5 -52v-44h-110v43zM129 127h110v-127
h-110v127z" />
    <glyph glyph-name="at" unicode="@" horiz-adv-x="714" 
d="M186.5 -94c-47.667 26.667 -84.333 65.167 -110 115.5s-38.5 109.5 -38.5 177.5v171c0 67.333 13.167 126 39.5 176s63.5 88.5 111.5 115.5s104 40.5 168 40.5s120.167 -13.5 168.5 -40.5s85.5 -65.333 111.5 -115s39 -107.167 39 -172.5v-158
c0 -52 -11.833 -91.667 -35.5 -119s-57.834 -41 -102.501 -41c-28 0 -52.167 5.83301 -72.5 17.5s-35.833 28.167 -46.5 49.5c-8 -23.333 -19.833 -40.333 -35.5 -51s-36.834 -16 -63.5 -16c-36.667 0 -63.334 12.333 -80 37c-16.667 24.667 -25 62.334 -25 113.001v158
c0 45.333 8 79.833 24 103.5s42 35.5 78 35.5c18 0 33.333 -3.66699 46 -11s23.334 -19 32.001 -35v38h105v-303c0 -15.333 3.5 -26.833 10.5 -34.5s16.5 -11.5 28.5 -11.5c14.6709 0 24.8379 5 30.5 15c5.66699 10 8.5 23.667 8.5 41v181c0 72.667 -19 128.667 -57 168
s-92.667 59 -164 59c-72.667 0 -127.334 -20.167 -164.001 -60.5s-55 -100.5 -55 -180.5v-160c0 -167.333 73 -251 219 -251c32.667 0 61.167 3.66699 85.5 11s48.833 19.666 73.5 36.999l51 -72c-32 -23.333 -65.167 -40.5 -99.5 -51.5s-71.166 -16.5 -110.499 -16.5
c-66 0 -122.833 13.333 -170.5 40zM388.001 163.5c5.33301 10.333 8 24.5 8 42.5v153c0 34.667 -13 52 -39 52c-25.333 0 -38 -17.333 -38 -52v-156c0 -18 2.83301 -31.667 8.5 -41s15.5 -14 29.5 -14c15.335 0 25.668 5.16699 31 15.5z" />
    <glyph glyph-name="A" unicode="A" horiz-adv-x="485" 
d="M323 134h-161l-28 -134h-128l177 690h120l176 -690h-128zM301 244l-58 280l-58 -280h116z" />
    <glyph glyph-name="B" unicode="B" horiz-adv-x="456" 
d="M402 303c10.667 -26 16 -60.332 16 -102.999c0 -70 -14.333 -120.833 -43 -152.5s-77.334 -47.5 -146.001 -47.5h-187v690h187c67.333 0 115.333 -14.833 144 -44.5s43 -76.834 43 -141.501c0 -34 -5.66699 -63 -17 -87s-30.666 -42.333 -57.999 -55
c30 -13.333 50.333 -33 61 -59zM164 580.001v-167.001h52c28.667 0 48.667 6.5 60 19.5s17 34.167 17 63.5c0 30.6689 -5.66699 52.3359 -17 65.001c-11.333 12.667 -31.333 19 -60 19h-52zM278 132.5c11.333 15 17 40.5 17 76.5c0 34.667 -6.16699 59.667 -18.5 75
s-32.833 23 -61.5 23h-51v-197h51c30.667 0 51.667 7.5 63 22.5z" />
    <glyph glyph-name="C" unicode="C" horiz-adv-x="468" 
d="M90 42.5c-34.667 33.667 -51.999 82.834 -51.999 147.501v311c0 65.333 18.333 114.833 55 148.5s85 50.5 145 50.5c57.333 0 103.666 -16.667 138.999 -50s53 -84 53 -152v-21h-123v20c0 31.333 -6.5 54.5 -19.5 69.5s-30.5 22.5 -52.5 22.5c-26 0 -44.833 -9 -56.5 -27
s-17.5 -45 -17.5 -81v-277c0 -67.333 24.667 -101 74 -101c22 0 39.5 7.66699 52.5 23s19.5 38 19.5 68v18h122v-19c0 -66.667 -18.5 -116.834 -55.5 -150.501s-84.5 -50.5 -142.5 -50.5c-59.333 0 -106.333 16.833 -141 50.5z" />
    <glyph glyph-name="D" unicode="D" horiz-adv-x="463" 
d="M42 690l191 0.000976562c58 0 104.5 -16.667 139.5 -50c35 -33.334 52.5 -82.667 52.5 -148v-294c0 -64.667 -18.333 -113.834 -55 -147.501s-84.334 -50.5 -143 -50.5h-185v690zM230 110.001c23.333 0 41.167 9.00098 53.5 27.001s18.5 43 18.5 75v259
c0 35.333 -6 62.166 -18 80.499s-30 27.5 -54 27.5h-66v-469h66z" />
    <glyph glyph-name="E" unicode="E" horiz-adv-x="375" 
d="M164 579v-173h160v-110h-160v-186h186v-110h-308v690h308v-111h-186z" />
    <glyph glyph-name="F" unicode="F" horiz-adv-x="371" 
d="M165 579v-176h160v-111h-160v-292h-123v690h308v-111h-185z" />
    <glyph glyph-name="G" unicode="G" horiz-adv-x="468" 
d="M90 42.5c-34.667 33.667 -52 82.833 -52 147.5v311c0 65.333 18.333 114.833 55 148.5s85 50.5 145 50.5c57.333 0 103.666 -16.333 138.999 -49s53 -81 53 -145v-21h-123v21c0 26.667 -6.66699 47.167 -20 61.5s-30.666 21.5 -51.999 21.5c-26 0 -44.833 -9 -56.5 -27
s-17.5 -45 -17.5 -81v-277c0 -67.333 24.667 -101 74 -101c24 0 42 8.16699 54 24.5s18 39.833 18 70.5v73h-73v97h196v-178c0 -64 -18.5 -113 -55.5 -147s-84.833 -51 -143.5 -51c-59.333 0 -106.333 16.833 -141 50.5z" />
    <glyph glyph-name="H" unicode="H" horiz-adv-x="460" 
d="M418 690v-690h-123v296h-130v-296h-123v690h123v-284h130v284h123z" />
    <glyph glyph-name="I" unicode="I" horiz-adv-x="214" 
d="M46 690h122v-690h-122v690z" />
    <glyph glyph-name="J" unicode="J" horiz-adv-x="266" 
d="M17 111h16c42.667 0 64 22.333 64 67v512h123v-526c0 -109.333 -59.667 -164 -179 -164h-24v111z" />
    <glyph glyph-name="K" unicode="K" horiz-adv-x="460" 
d="M220 267l-56 -111v-156h-122v690h122v-325l147 325h123l-144 -284l166 -406h-131z" />
    <glyph glyph-name="L" unicode="L" horiz-adv-x="367" 
d="M42 690h123v-580h185v-110h-308v690z" />
    <glyph glyph-name="M" unicode="M" horiz-adv-x="571" 
d="M529 690v-690h-123v404l-88 -270h-66l-87 267v-401h-123v690h123l120 -364l121 364h123z" />
    <glyph glyph-name="N" unicode="N" horiz-adv-x="474" 
d="M432 690v-690h-123l-144 368v-368h-123v690h123l144 -384v384h123z" />
    <glyph glyph-name="O" unicode="O" horiz-adv-x="468" 
d="M90 42.5c-34.667 33.667 -52 82.833 -52 147.5v311c0 65.333 18.333 114.833 55 148.5s85 50.5 145 50.5c58 0 104.5 -16.833 139.5 -50.5s52.5 -83.167 52.5 -148.5v-311c0 -64 -18.5 -113 -55.5 -147s-84.833 -51 -143.5 -51c-59.333 0 -106.333 16.833 -141 50.5z
M288.5 129.499c12.333 17.667 18.5 42.501 18.5 74.501v277c0 35.333 -6 62.166 -18 80.499s-30 27.5 -54 27.5c-26 0 -44.833 -9 -56.5 -27s-17.5 -45 -17.5 -81v-277c0 -67.333 24.667 -101 74 -101c23.334 0 41.167 8.83301 53.5 26.5z" />
    <glyph glyph-name="P" unicode="P" horiz-adv-x="434" 
d="M373.5 636c29 -36 43.501 -90.333 43.501 -163c0 -73.333 -14.833 -128 -44.5 -164s-77.834 -54 -144.501 -54h-64v-255h-122v690h186c68 0 116.5 -18 145.5 -54zM278.501 392c10.333 17.333 15.5 44.333 15.5 81s-5.16699 63.667 -15.5 81s-28.5 26 -54.5 26h-60v-214
h60c26 0 44.167 8.66699 54.5 26z" />
    <glyph glyph-name="Q" unicode="Q" horiz-adv-x="468" 
d="M406 84.5c-16 -29 -38 -51.168 -66 -66.501l45 -125l-104 -38l-49 137h-1c-59.333 0 -106.333 16.833 -141 50.5s-52 82.834 -52 147.501v311c0 65.333 18.333 114.833 55 148.5s85 50.5 145 50.5c58 0 104.5 -16.833 139.5 -50.5s52.5 -83.167 52.5 -148.5v-311
c0 -41.333 -8 -76.5 -24 -105.5zM235 102.999c23.334 0 41.167 8.83398 53.5 26.501s18.5 42.5 18.5 74.5v277c0 35.333 -6 62.166 -18 80.499s-30 27.5 -54 27.5c-26 0 -44.833 -9 -56.5 -27s-17.5 -45 -17.5 -81v-277c0 -67.333 24.667 -101 74 -101z" />
    <glyph glyph-name="R" unicode="R" horiz-adv-x="460" 
d="M224 277h-59v-277h-123v690h188c68 0 116.167 -16.333 144.5 -49s42.5 -85 42.5 -157c0 -46 -6.33301 -84.333 -19 -115s-33.334 -53.667 -62 -69l103 -300h-128zM165 387h64c24.667 0 41.667 8.16699 51 24.5s14 40.5 14 72.5s-4.5 56 -13.5 72s-26.167 24 -51.5 24h-64
v-193z" />
    <glyph glyph-name="S" unicode="S" horiz-adv-x="426" 
d="M68 45c-32 35.333 -48.333 85.999 -49 151.999h116c1.33301 -34 8.16602 -59 20.499 -75s30.5 -24 54.5 -24s41.5 7.33301 52.5 22s16.5 38 16.5 70c0 26.667 -6.16699 47.834 -18.5 63.5c-12.333 15.667 -33.166 30.167 -62.499 43.5l-47 21
c-44.667 20 -76.834 44.667 -96.501 74c-19.667 29.334 -29.5 68.667 -29.5 118c0 58 16.833 104.333 50.5 139s79.167 52 136.5 52c56.667 0 100.5 -17.167 131.5 -51.5s47.5 -83.833 49.5 -148.5h-113c-0.666992 31.333 -6.16699 54.833 -16.5 70.5s-27.5 23.5 -51.5 23.5
c-44.667 0 -67 -26.333 -67 -79c0 -24 5.5 -43.167 16.5 -57.5s29.5 -27.166 55.5 -38.499l45 -20c48 -21.333 82.833 -48 104.5 -80s32.5 -74.667 32.5 -128c0 -64 -16.667 -113.333 -50 -148s-80.666 -52 -141.999 -52c-60.667 0 -107 17.667 -139 53z" />
    <glyph glyph-name="T" unicode="T" horiz-adv-x="369" 
d="M365 579h-119v-579h-122v579h-120v111h361v-111z" />
    <glyph glyph-name="U" unicode="U" horiz-adv-x="460" 
d="M133.5 15.5c-28.333 15.667 -50.667 37.834 -67 66.501s-24.5 61.667 -24.5 99v509h123v-506c0 -28 5.33301 -48.5 16 -61.5s27 -19.5 49 -19.5c43.333 0 65 27 65 81v506h123v-509c0 -37.333 -8 -70.333 -24 -99s-38.333 -50.834 -67 -66.501s-61 -23.5 -97 -23.5
s-68.167 7.83301 -96.5 23.5z" />
    <glyph glyph-name="V" unicode="V" horiz-adv-x="449" 
d="M6 690h135l83 -516l84 516h135l-155 -690h-127z" />
    <glyph glyph-name="W" unicode="W" horiz-adv-x="674" 
d="M668 690l-123 -690h-133l-75 424l-76 -424h-132l-123 690h125l67 -516l65 516h150l65 -516l67 516h123z" />
    <glyph glyph-name="X" unicode="X" horiz-adv-x="415" 
d="M147 358l-131 332h121l71 -216l70 216h121l-131 -332l141 -358h-121l-80 241l-81 -241h-121z" />
    <glyph glyph-name="Y" unicode="Y" horiz-adv-x="415" 
d="M269 269v-269h-123v271l-140 419h135l66 -264l66 264h136z" />
    <glyph glyph-name="Z" unicode="Z" horiz-adv-x="359" 
d="M340 111v-111h-319v111l194 468h-184v111h305v-111l-193 -468h197z" />
    <glyph glyph-name="bracketleft" unicode="[" horiz-adv-x="283" 
d="M42 740h203v-111h-89v-602h89v-111h-203v824z" />
    <glyph glyph-name="backslash" unicode="\" horiz-adv-x="298" 
d="M38 698h91l131 -708h-92z" />
    <glyph glyph-name="bracketright" unicode="]" horiz-adv-x="283" 
d="M38 27h88v602h-88v111h203v-824h-203v111z" />
    <glyph glyph-name="asciicircum" unicode="^" horiz-adv-x="419" 
d="M159 698h92l129 -419h-91l-84 281l-84 -281h-91z" />
    <glyph glyph-name="underscore" unicode="_" horiz-adv-x="425" 
d="M0 -48h425v-69h-425v69z" />
    <glyph glyph-name="grave" unicode="`" horiz-adv-x="500" 
d="M139 726h123l99 -136h-99z" />
    <glyph glyph-name="a" unicode="a" horiz-adv-x="405" 
d="M321.5 490.5c28.333 -30.333 42.502 -71.168 42.502 -122.501v-368h-108v44c-14 -18 -27.667 -31.167 -41 -39.5c-13.334 -8.33301 -30.667 -12.5 -52 -12.5c-44 0 -77.167 14.333 -99.5 43s-33.5 68.667 -33.5 120c0 49.333 15 87.5 45 114.5s73 40.5 129 40.5h44v67
c0 18.667 -4.16699 32.834 -12.5 42.501s-20.5 14.5 -36.5 14.5c-14.667 0 -26.334 -4.66699 -35.001 -14s-13 -22 -13 -38v-8h-107v4c0 52 14.667 91.333 44 118s67.333 40 114 40c51.333 0 91.166 -15.167 119.499 -45.5zM233.502 110.498
c9.66699 11.667 14.5 27.501 14.5 47.501v71h-30c-23.334 0 -41.167 -5.33301 -53.5 -16s-18.5 -28.334 -18.5 -53.001c0 -22 4.33301 -38.667 13 -50s21.334 -17 38 -17c14.667 0 26.834 5.83301 36.5 17.5z" />
    <glyph glyph-name="b" unicode="b" 
d="M194.5 3c-14.333 7.33301 -28.168 18.665 -41.501 33.998v-37h-112v690h116v-204c9.33301 16.002 21.5 28.335 36.5 37c15 8.66699 32.5 13 52.5 13c38.667 0 69.334 -13.667 92.001 -41s34 -70.666 34 -129.999v-202c0 -59.333 -11.833 -102.666 -35.5 -129.999
s-54.5 -41 -92.5 -41c-18.667 0 -35.167 3.66699 -49.5 11zM243.498 115.999c8.33301 13.333 12.501 35.333 12.501 66v164c0 30 -4.16699 51.833 -12.5 65.5s-20.833 20.5 -37.5 20.5s-29.334 -6.83301 -38.001 -20.5s-13 -35.5 -13 -65.5v-164c0 -57.333 17 -86 51 -86
c16.667 0 29.167 6.66699 37.5 20z" />
    <glyph glyph-name="c" unicode="c" horiz-adv-x="407" 
d="M81 37c-28.667 30 -43 78.667 -43 146v162c0 67.333 14.333 116 43 146s70.334 45 125.001 45c52.667 0 93 -14.333 121 -43s42 -71.667 42 -129v-20h-112v18c0 23.333 -4.5 40.833 -13.5 52.5s-21.5 17.5 -37.5 17.5c-17.333 0 -30.333 -6.83301 -39 -20.5
s-13 -35.5 -13 -65.5v-164c0 -30 4.33301 -51.833 13 -65.5s21.334 -20.5 38 -20.5c16.667 0 29.5 5.83301 38.5 17.5s13.5 29.5 13.5 53.5v17h112v-17c0 -58.667 -14 -102.5 -42 -131.5s-68.333 -43.5 -121 -43.5c-54.667 0 -96.334 15 -125.001 45z" />
    <glyph glyph-name="d" unicode="d" 
d="M73.5 33c-23.667 27.333 -35.498 70.668 -35.498 130.001v202c0 59.333 11.5 102.666 34.5 129.999s53.833 41 92.5 41c19.333 0 36.666 -4.33301 51.999 -13s27.666 -21 36.999 -37v204h115v-690h-111v37c-25.333 -30 -55.666 -45 -90.999 -45
c-38.667 0 -69.834 13.667 -93.501 41zM256.002 182.002l0.000976562 164c0 30 -4.33301 51.833 -13 65.5s-21.667 20.5 -39 20.5c-16.667 0 -29.167 -6.83301 -37.5 -20.5s-12.5 -35.5 -12.5 -65.5v-164c0 -30.667 4.16699 -52.667 12.5 -66s21.166 -20 38.499 -20
c34 0 51 28.667 51 86z" />
    <glyph glyph-name="e" unicode="e" horiz-adv-x="411" 
d="M154 223l-0.00195312 -48.001c0 -54 17.333 -81 52 -81c34 0 51 22.333 51 67v5h112v-6c0 -55.333 -14 -97.166 -42 -125.499s-68.333 -42.5 -121 -42.5c-53.333 0 -94.666 16 -123.999 48s-44 85 -44 159v129c0 72 13.833 124.667 41.5 158s68.834 50 123.501 50
c54 0 95.833 -17 125.5 -51s44.5 -86.333 44.5 -157v-105h-219zM166.998 411.499c-8.66699 -13.667 -12.999 -35.5 -12.999 -65.5v-39h103v39c0 30 -4.33301 51.833 -13 65.5s-21.667 20.5 -39 20.5c-16.667 0 -29.334 -6.83301 -38.001 -20.5z" />
    <glyph glyph-name="f" unicode="f" horiz-adv-x="287" 
d="M207.5 595c-8.33301 -8.66699 -12.5 -23.667 -12.5 -45v-22h71v-81h-71v-447h-115v447h-53v81h53v30c0 88 45.333 132 136 132h50v-82h-15c-20.667 0 -35.167 -4.33301 -43.5 -13z" />
    <glyph glyph-name="g" unicode="g" 
d="M90.5 -130c-27.667 25.333 -42.1641 62.667 -43.4971 112h108c0 -16 4.33301 -28.333 13 -37s21.334 -13 38 -13c16.667 0 29.5 5.33301 38.5 16s13.5 26.334 13.5 47.001v91c-25.333 -30 -55.666 -45 -90.999 -45c-38.667 0 -69.834 13.667 -93.501 41
s-35.5 70.666 -35.5 129.999v153c0 59.333 11.5 102.666 34.5 129.999s53.833 41 92.5 41c19.333 0 36.666 -4.33301 51.999 -13s27.666 -21 36.999 -37v42h115v-522c0 -53.333 -14.5 -95.666 -43.5 -126.999s-69.167 -47 -120.5 -47c-48.667 0 -86.834 12.667 -114.501 38z
M256.003 231.001l0.000976562 115c0 30 -4.33301 51.833 -13 65.5s-21.667 20.5 -39 20.5c-16.667 0 -29.167 -6.83301 -37.5 -20.5s-12.5 -35.5 -12.5 -65.5v-115c0 -30.667 4.16699 -52.667 12.5 -66s21.166 -20 38.499 -20c34 0 51 28.667 51 86z" />
    <glyph glyph-name="h" unicode="h" 
d="M41 690l115.999 -0.000976562v-196c24.667 28 52.334 42 83.001 42c44.667 0 77.334 -13.667 98.001 -41s31 -66.666 31 -117.999v-377h-116v376c0 18 -4.5 31.833 -13.5 41.5s-20.5 14.5 -34.5 14.5c-14.667 0 -26.334 -4.83301 -35.001 -14.5s-13 -23.5 -13 -41.5v-376
h-116v690z" />
    <glyph glyph-name="i" unicode="i" horiz-adv-x="206" 
d="M45 528h116v-528h-116v528zM45 690h116v-97h-116v97z" />
    <glyph glyph-name="j" unicode="j" horiz-adv-x="206" 
d="M45 690h116v-97h-116v97zM-24 -54h5c42.667 0 64 22.333 64 67v515h116v-522c0 -109.333 -59.667 -164 -179 -164h-6v104z" />
    <glyph glyph-name="k" unicode="k" horiz-adv-x="419" 
d="M197 210l-40 -61v-149h-116v690h116v-377l126 215h121l-135 -207l140 -321h-128z" />
    <glyph glyph-name="l" unicode="l" horiz-adv-x="240" 
d="M41 164v526h116v-519c0 -44.667 21.333 -67 64 -67h5v-104h-6c-119.333 0 -179 54.667 -179 164z" />
    <glyph glyph-name="m" unicode="m" horiz-adv-x="622" 
d="M41 528l111.001 0.000976562v-39c24 31.333 53.667 47 89 47c21.333 0 41 -4.83301 59 -14.5s32.667 -23.167 44 -40.5c13.334 16 29.167 29.167 47.5 39.5c18.334 10.333 37.167 15.5 56.5 15.5c48 0 82.167 -13.333 102.5 -40s30.5 -66.334 30.5 -119.001v-377h-116
v376c0 18 -4.5 31.833 -13.5 41.5s-20.5 14.5 -34.5 14.5s-25.5 -4.83301 -34.5 -14.5s-13.5 -23.5 -13.5 -41.5v-376h-116v376c0 18 -4.5 31.833 -13.5 41.5s-20.5 14.5 -34.5 14.5c-14.667 0 -26.334 -4.83301 -35.001 -14.5s-13 -23.5 -13 -41.5v-376h-116v528z" />
    <glyph glyph-name="n" unicode="n" 
d="M41 528h111.001v-39c24.667 31.333 54 47 88 47c86 0 129 -53 129 -159v-377h-116v376c0 18 -4.5 31.833 -13.5 41.5s-20.5 14.5 -34.5 14.5c-14.667 0 -26.334 -4.83301 -35.001 -14.5s-13 -23.5 -13 -41.5v-376h-116v528z" />
    <glyph glyph-name="o" unicode="o" horiz-adv-x="411" 
d="M81 37c-28.667 30 -43 78.667 -43 146v162c0 67.333 14.333 116 43 146s70.334 45 125.001 45s96.167 -15 124.5 -45s42.5 -78.667 42.5 -146v-162c0 -67.333 -14.167 -116 -42.5 -146s-69.833 -45 -124.5 -45s-96.334 15 -125.001 45zM244 116.5
c8.66699 13.667 13.001 35.5 13.001 65.5v164c0 30 -4.33301 51.833 -13 65.5s-21.667 20.5 -39 20.5c-16.667 0 -29.334 -6.83301 -38.001 -20.5s-13 -35.5 -13 -65.5v-164c0 -30 4.33301 -51.833 13 -65.5s21.334 -20.5 38 -20.5c17.333 0 30.333 6.83301 39 20.5z" />
    <glyph glyph-name="p" unicode="p" 
d="M41 528l111.999 -0.00195312v-42c22.667 33.333 53.667 50 93 50c38.667 0 69.334 -13.667 92.001 -41s34 -70.666 34 -129.999v-202c0 -59.333 -11.833 -102.666 -35.5 -129.999s-54.5 -41 -92.5 -41c-35.333 0 -64.333 13.333 -87 40v-190h-116v686zM243.499 115.998
c8.33301 13.333 12.501 35.333 12.501 66v164c0 30 -4.16699 51.833 -12.5 65.5s-20.833 20.5 -37.5 20.5s-29.334 -6.83301 -38.001 -20.5s-13 -35.5 -13 -65.5v-164c0 -57.333 17 -86 51 -86c16.667 0 29.167 6.66699 37.5 20z" />
    <glyph glyph-name="q" unicode="q" 
d="M254 32c-22.667 -26.667 -51.666 -39.998 -86.999 -39.998c-38.667 0 -69.834 13.667 -93.501 41s-35.5 70.666 -35.5 129.999v202c0 59.333 11.5 102.666 34.5 129.999s53.833 41 92.5 41c38 0 69 -16.667 93 -50v42h111v-686h-115v190zM256.001 182.002
l0.000976562 164c0 30 -4.33301 51.833 -13 65.5s-21.667 20.5 -39 20.5c-16.667 0 -29.167 -6.83301 -37.5 -20.5s-12.5 -35.5 -12.5 -65.5v-164c0 -30.667 4.16699 -52.667 12.5 -66s21.166 -20 38.499 -20c34 0 51 28.667 51 86z" />
    <glyph glyph-name="r" unicode="r" horiz-adv-x="306" 
d="M41 528h111v-49c13.333 21.333 28.5 36.5 45.5 45.5s36.5 13.5 58.5 13.5c13.333 0 25.333 -1.33301 36 -4v-122c-18 6.66699 -35.667 10 -53 10c-24.667 0 -44.5 -7.83301 -59.5 -23.5s-22.5 -37.834 -22.5 -66.5v-332h-116v528z" />
    <glyph glyph-name="s" unicode="s" horiz-adv-x="392" 
d="M75 34.5c-30 28.333 -45.002 67.499 -45.002 117.499v6h112v-6c0 -20 5 -35.5 15 -46.5s24 -16.5 42 -16.5c17.333 0 30.5 4.83301 39.5 14.5s13.5 23.834 13.5 42.501c0 14 -4.16699 26.167 -12.5 36.5s-21.5 19.5 -39.5 27.5l-60 26
c-40.667 17.333 -68.667 37.666 -84 60.999c-15.333 23.334 -23 52.667 -23 88c0 43.333 15 79.333 45 108s69.333 43 118 43s88 -14.333 118 -43s45 -66 45 -112v-10h-112v6c0 20.667 -4.66699 36.334 -14 47.001s-22 16 -38 16c-15.333 0 -27.5 -4.33301 -36.5 -13
s-13.5 -21 -13.5 -37c0 -14 3.33301 -25.667 10 -35s19.334 -18 38.001 -26l65 -28c38 -16.667 65.333 -36.834 82 -60.5c16.667 -23.667 25 -54.5 25 -92.5c0 -46 -15.167 -83.5 -45.5 -112.5s-71.166 -43.5 -122.499 -43.5s-92 14.167 -122 42.5z" />
    <glyph glyph-name="t" unicode="t" horiz-adv-x="302" 
d="M194 447v-276c0 -44.667 22.333 -67 67 -67h4v-104h-4c-60 0 -105.5 13.167 -136.5 39.5s-46.5 67.833 -46.5 124.5v283h-59v81h59v93l116 47v-140h84v-81h-84z" />
    <glyph glyph-name="u" unicode="u" 
d="M75.5 38.5c-23 31 -34.501 77.167 -34.501 138.5v351h116v-327c0 -27.334 0.833008 -47.667 2.5 -61s5.83398 -24 12.5 -32c6.66699 -8 17.667 -12 33 -12s26.333 3.5 33 10.5c6.66797 7 10.835 17.167 12.501 30.5c1.66699 13.333 2.5 34.666 2.5 63.999v327h116v-351
c0 -42 -4.66699 -76.167 -14 -102.5s-25.833 -46.666 -49.5 -60.999s-57.167 -21.5 -100.5 -21.5c-63.333 0 -106.5 15.5 -129.5 46.5z" />
    <glyph glyph-name="v" unicode="v" horiz-adv-x="409" 
d="M11 528h128l66 -343l65 343h128l-132 -528h-123z" />
    <glyph glyph-name="w" unicode="w" horiz-adv-x="609" 
d="M11 528h128l53 -343l64 343h96l64 -343l53 343h129l-121 -528h-113l-60 323l-61 -323h-112z" />
    <glyph glyph-name="x" unicode="x" horiz-adv-x="380" 
d="M251 0l-65 148l-56 -148h-119l119 274l-112 254h118l59 -133l49 133h119l-116 -252l122 -276h-118z" />
    <glyph glyph-name="y" unicode="y" horiz-adv-x="409" 
d="M398 528l-143 -566.001c-8 -32.667 -20.5 -57.667 -37.5 -75s-38.5 -29.166 -64.5 -35.499s-59.333 -9.5 -100 -9.5h-4v102h42c34.667 0 57 9 67 27l-147 557h128l71 -321l66 321h122z" />
    <glyph glyph-name="z" unicode="z" horiz-adv-x="384" 
d="M346 430l-189 -332h189v-98h-308v98l192 332h-192v98h308v-98z" />
    <glyph glyph-name="braceleft" unicode="{" horiz-adv-x="319" 
d="M135 -52c-20.667 21.333 -31 51.999 -31 91.999v167c0 26 -4.66699 44.5 -14 55.5s-26.666 16.5 -51.999 16.5v103c25.333 0 42.666 5.5 51.999 16.5s14 29.833 14 56.5v161c0 40 10.333 70.667 31 92s50.667 32 90 32h56v-103h-20c-14 0 -24.5 -4 -31.5 -12
s-10.5 -19.333 -10.5 -34v-127c0 -42.667 -3.83301 -73.167 -11.5 -91.5s-24.167 -32.166 -49.5 -41.499c25.333 -10 41.833 -24.333 49.5 -43s11.5 -49 11.5 -91v-132c0 -14.667 3.5 -26 10.5 -34s17.5 -12 31.5 -12h20v-103h-56c-39.333 0 -69.333 10.667 -90 32z" />
    <glyph glyph-name="bar" unicode="|" horiz-adv-x="264" 
d="M76 740h112v-824h-112v824z" />
    <glyph glyph-name="braceright" unicode="}" horiz-adv-x="319" 
d="M38 19h20.001c14 0 24.5 4 31.5 12s10.5 19.333 10.5 34v132c0 42 4 72.333 12 91s24.333 33 49 43c-25.333 9.33496 -41.833 23.168 -49.5 41.5c-7.66699 18.333 -11.5 48.833 -11.5 91.5v127c0 14.667 -3.5 26 -10.5 34s-17.5 12 -31.5 12h-20v103h57
c39.333 0 69.166 -10.667 89.499 -32s30.5 -52 30.5 -92v-161c0 -26.667 4.66699 -45.5 14 -56.5s26.666 -16.5 51.999 -16.5v-103c-25.334 0 -42.667 -5.5 -52 -16.5s-14 -29.5 -14 -55.5v-167c0 -40 -10.167 -70.667 -30.5 -92s-50.166 -32 -89.499 -32h-57v103z" />
    <glyph glyph-name="asciitilde" unicode="~" horiz-adv-x="419" 
d="M25 238c16.667 34.667 34.1689 59.665 52.502 74.998s39.5 23 63.5 23c13.333 0 25.666 -2.33301 36.999 -7c11.333 -4.66797 24 -11.335 38 -20c8 -4.66895 16 -8.83594 24 -12.5c8 -3.66699 15 -5.5 21 -5.5c10.667 0 19.5 3.33301 26.5 10s16.167 20.334 27.5 41.001
l71 -42c-16 -34.667 -33.167 -59.667 -51.5 -75s-39.833 -23 -64.5 -23c-12.667 0 -25 2.33301 -37 7s-24.667 11.334 -38 20c-2 1.33301 -6.16699 3.83301 -12.5 7.5c-6.33398 3.66895 -12.167 6.33594 -17.5 8.00098c-5.33301 1.66699 -10 2.5 -14 2.5
c-10 0 -18.833 -3.33301 -26.5 -10s-16.834 -20 -27.501 -40z" />
    <glyph glyph-name="uni00A0" unicode="&#xa0;" horiz-adv-x="175" 
 />
    <glyph glyph-name="exclamdown" unicode="&#xa1;" horiz-adv-x="208" 
d="M46 528h116v-131h-116v131zM65 307h78l24 -465h-126z" />
    <glyph glyph-name="cent" unicode="&#xa2;" horiz-adv-x="443" 
d="M257 344v18.001c0 23.333 -4.5 40.833 -13.5 52.5s-21.5 17.5 -37.5 17.5c-17.333 0 -30.333 -6.83301 -39 -20.5s-13 -35.5 -13 -65.5v-164c0 -30 4.33301 -51.833 13 -65.5s21.334 -20.5 38 -20.5c16.667 0 29.5 5.83301 38.5 17.5s13.5 29.5 13.5 53.5v17h112v-17
c0 -48.667 -9.66699 -87.167 -29 -115.5s-47.333 -46.5 -84 -54.5v-97h-59v92c-52 1.33301 -91.5 17 -118.5 47s-40.5 78 -40.5 144v162c0 66 13.5 114 40.5 144s66.5 45.667 118.5 47v99h59v-104c75.333 -16.667 113 -72.334 113 -167.001v-20h-112z" />
    <glyph glyph-name="sterling" unicode="&#xa3;" horiz-adv-x="420" 
d="M195 148.5c-5.33301 -14.333 -13.999 -26.8311 -25.999 -37.498h224v-111h-357v113c18 6.66699 29.833 16.5 35.5 29.5s8.5 33.167 8.5 60.5v86h-61v111h61v139c0 51.333 13.333 91 40 119s67 42 121 42s94.167 -14.333 120.5 -43s39.5 -69.334 39.5 -122.001h-117
c0 24.667 -3 42 -9 52s-16 15 -30 15c-14.667 0 -25.334 -4.33301 -32.001 -13s-10 -22.334 -10 -41.001v-148h120v-111h-120v-88c0 -20.667 -2.66699 -38.167 -8 -52.5z" />
    <glyph glyph-name="currency" unicode="&#xa4;" horiz-adv-x="571" 
d="M389 134c-32 -18 -66.667 -27 -104 -27c-38.667 0 -73.334 9 -104.001 27l-66 -65l-74 75l65 66c-16.667 30 -25 63.667 -25 101c0 36 8.66699 69.667 26 101l-66 67l75 75l65 -66c32.667 18 67.334 27 104.001 27s71 -9 103 -27l67 66l74 -75l-66 -66
c18 -32 27 -66 27 -102s-8.66699 -69.667 -26 -101l66 -67l-75 -75zM355 239c18.667 19.333 28 43.333 28 72s-9.33301 52.667 -28 72s-42 29 -70 29s-51.167 -9.66699 -69.5 -29s-27.5 -43.333 -27.5 -72s9.16699 -52.667 27.5 -72s41.5 -29 69.5 -29s51.333 9.66699 70 29
z" />
    <glyph glyph-name="yen" unicode="&#xa5;" horiz-adv-x="409" 
d="M143 110h-103v85h103v53h-103v85h91l-126 357h130l72 -267l69 267h128l-126 -357h91v-85h-103v-53h103v-85h-103v-110h-123v110z" />
    <glyph glyph-name="brokenbar" unicode="&#xa6;" horiz-adv-x="264" 
d="M76 740h112v-352h-112v352zM76 268h112v-352h-112v352z" />
    <glyph glyph-name="section" unicode="&#xa7;" horiz-adv-x="409" 
d="M88 -126.5c-22 27.667 -33.001 71.168 -33.001 130.501h105c0 -29.333 2.5 -50 7.5 -62s16.5 -18 34.5 -18c16.667 0 28 5.33301 34 16s9 25.667 9 45c0 21.333 -2.66699 38 -8 50s-14 21.667 -26 29s-30.333 15.666 -55 24.999
c-42.667 15.333 -72.334 37.166 -89.001 65.499s-25 67.833 -25 118.5c0 38.667 5.83301 70.167 17.5 94.5s31.834 42.5 60.501 54.5c-24.667 10 -41.667 26.5 -51 49.5s-14 51.167 -14 84.5c0 51.333 12.833 89.833 38.5 115.5s62.834 38.5 111.501 38.5
c54.667 0 92.667 -13.667 114 -41s32 -70.333 32 -129h-105c0 28.6689 -2.16699 48.8359 -6.5 60.5c-4.33301 11.667 -15.5 17.5 -33.5 17.5c-16 0 -26.5 -5.33301 -31.5 -16s-7.5 -26 -7.5 -46s2.66699 -35.667 8 -47s13.833 -20.833 25.5 -28.5s29.167 -15.5 52.5 -23.5
c43.334 -15.333 73.167 -37 89.5 -65s24.5 -67.667 24.5 -119c0 -39.333 -5.83301 -71 -17.5 -95s-31.834 -41.667 -60.5 -53c25.333 -11.333 42.833 -28.166 52.5 -50.499s14.5 -50.833 14.5 -85.5c0 -104.667 -51 -157 -153 -157c-54.667 0 -93 13.833 -115 41.5z
M246.999 201.001c6.66699 15.333 10 39.333 10 72c0 33.333 -3.33301 57.5 -10 72.5s-21 22.5 -43 22.5s-36.167 -7.66699 -42.5 -23s-9.5 -39.333 -9.5 -72s3.33301 -56.667 10 -72s20.667 -23 42 -23c22 0 36.333 7.66699 43 23zM180.999 704.001z" />
    <glyph glyph-name="dieresis" unicode="&#xa8;" horiz-adv-x="500" 
d="M125 705h93v-114h-93v114zM281 705h93v-114h-93v114z" />
    <glyph glyph-name="copyright" unicode="&#xa9;" horiz-adv-x="703" 
d="M120 87c-54.667 62 -82 147.333 -82 256c0 110 27.333 195.667 82 257s132 92 232 92s177.167 -31 231.5 -93s81.5 -147.333 81.5 -256s-27.333 -194 -82 -256s-131.667 -93 -231 -93c-100 0 -177.333 31 -232 93zM529.5 135.5c39.667 49 59.499 118.167 59.499 207.5
c0 90 -20 159.333 -60 208s-99 73 -177 73c-78.667 0 -138 -24.5 -178 -73.5s-60 -118.167 -60 -207.5c0 -90 20 -159.333 60 -208s99.333 -73 178 -73s137.834 24.5 177.501 73.5zM263.499 181.5c-20.333 21.667 -30.501 56.499 -30.501 104.499v116
c0 48 10.167 82.667 30.5 104c20.334 21.333 50.167 32 89.5 32c78 0 117 -40.667 117 -122v-14h-80v12c0 16.667 -3.33301 29.334 -10 38.001s-15.667 13 -27 13c-24.667 0 -37 -20.667 -37 -62v-118c0 -22 3 -37.833 9 -47.5s15.333 -14.5 28 -14.5
c24.667 0 37 17.333 37 52v12h80v-12c0 -42 -10 -73.5 -30 -94.5s-49 -31.5 -87 -31.5c-39.333 0 -69.166 10.833 -89.499 32.5z" />
    <glyph glyph-name="ordfeminine" unicode="&#xaa;" horiz-adv-x="307" 
d="M230.5 718c19 -18.667 28.501 -43.333 28.501 -74v-214h-72v25c-9.33301 -10 -18.333 -17.5 -27 -22.5s-20 -7.5 -34 -7.5c-29.333 0 -51.5 8.5 -66.5 25.5s-22.5 41.167 -22.5 72.5c0 30 10 53 30 69s48.667 24 86 24h30v32c0 19.333 -11 29 -33 29
c-10 0 -18 -2.33301 -24 -7s-9 -11 -9 -19v-3h-71v2c0 32 9.66699 56 29 72s44.666 24 75.999 24c34 0 60.5 -9.33301 79.5 -28zM173.001 502.501c6.66699 5.66699 10 13.167 10 22.5v36h-21c-32 0 -48 -11.667 -48 -35c0 -9.33301 3 -17 9 -23s14.333 -9 25 -9
c10 0 18.333 2.83301 25 8.5zM140.001 847.001z" />
    <glyph glyph-name="guillemotleft" unicode="&#xab;" horiz-adv-x="442" 
d="M14 264l194 198v-110l-86 -88l86 -88v-110zM207 264l194 198v-110l-87 -88l87 -88v-110z" />
    <glyph glyph-name="logicalnot" unicode="&#xac;" horiz-adv-x="419" 
d="M267 256h-232v104h348v-205h-116v101z" />
    <glyph glyph-name="uni00AD" unicode="&#xad;" horiz-adv-x="351" 
d="M38 401h275v-110h-275v110z" />
    <glyph glyph-name="registered" unicode="&#xae;" horiz-adv-x="428" 
d="M86.5 365.5c-29.667 33.667 -44.498 80.168 -44.498 139.501s15.167 105.666 45.5 138.999s72.166 50 125.499 50c54.667 0 97.167 -17.167 127.5 -51.5c30.333 -34.335 45.5 -80.168 45.5 -137.5c0 -58.667 -15.167 -105 -45.5 -139s-72.833 -51 -127.5 -51
s-96.834 16.833 -126.501 50.5zM310.002 392.501c22 26.333 33 63.833 33 112.5s-11.167 86 -33.5 112s-54.5 39 -96.5 39c-42.667 0 -75 -13.167 -97 -39.5s-33 -63.5 -33 -111.5c0 -49.333 11 -87 33 -113s54.333 -39 97 -39s75 13.167 97 39.5zM157.002 612.001h59
c41.333 0 62 -21 62 -63c0 -24.667 -8 -43 -24 -55l31 -94h-46l-26 83h-12v-83h-44v212zM211.002 522.001c8.66699 0 14.667 1.83301 18 5.5s5 10.5 5 20.5s-1.66699 16.5 -5 19.5s-9.33301 4.5 -18 4.5h-10v-50h10z" />
    <glyph glyph-name="macron" unicode="&#xaf;" horiz-adv-x="500" 
d="M131 700h237v-104h-237v104z" />
    <glyph glyph-name="degree" unicode="&#xb0;" horiz-adv-x="325" 
d="M73.5 488.5c-23.667 23.667 -35.5 53.167 -35.5 88.5s11.833 64.833 35.5 88.5s53.167 35.5 88.5 35.5c36 0 65.833 -11.833 89.5 -35.5s35.5 -53.167 35.5 -88.5s-11.833 -64.833 -35.5 -88.5s-53.5 -35.5 -89.5 -35.5c-35.333 0 -64.833 11.833 -88.5 35.5zM203.5 534
c11 11.333 16.5 25.668 16.5 43.001s-5.5 31.666 -16.5 42.999s-24.833 17 -41.5 17s-30.334 -5.66699 -41.001 -17c-10.667 -11.3359 -16 -25.6689 -16 -43c0 -17.3359 5.33301 -31.6689 16 -43c10.667 -11.333 24.334 -17 41.001 -17s30.5 5.66699 41.5 17z" />
    <glyph glyph-name="plusminus" unicode="&#xb1;" horiz-adv-x="419" 
d="M154 288h-122v111h122v122h111v-122h122v-111h-122v-122h-111v122zM32 120h355v-111h-355v111z" />
    <glyph glyph-name="uni00B2" unicode="&#xb2;" horiz-adv-x="283" 
d="M31 498l118 175.003c8 11.333 13.5 20.666 16.5 27.999s4.5 17 4.5 29v22c0 7.33301 -2.33301 13.666 -7 18.999s-12 8 -22 8c-18 0 -27 -8 -27 -24v-31h-80v39c0 28 10 50 30 66s46.333 24 79 24c33.333 0 59.5 -8.16699 78.5 -24.5s28.5 -38.833 28.5 -67.5v-31
c0 -19.333 -2.5 -35.333 -7.5 -48s-13.167 -27.334 -24.5 -44.001l-95 -134h128v-74h-220v68z" />
    <glyph glyph-name="uni00B3" unicode="&#xb3;" horiz-adv-x="278" 
d="M56 448.5c-18.667 16.333 -28 39.5 -28 69.5v31h80v-24c0 -18 9.33301 -27 28 -27c11.333 0 19 2.33301 23 7s6 12.667 6 24v39c0 14 -2.16699 24 -6.5 30s-13.5 9 -27.5 9h-16v74h18c12.667 0 21.167 2.66699 25.5 8s6.5 14 6.5 26v32c0 10.667 -2.16699 18.5 -6.5 23.5
s-11.833 7.5 -22.5 7.5c-18.667 0 -28 -9 -28 -27v-25h-80v30c0 30.667 9.66699 54.5 29 71.5s46 25.5 80 25.5c35.333 0 62.5 -8.5 81.5 -25.5s28.5 -40.833 28.5 -71.5v-34c0 -19.333 -3.16699 -34.5 -9.5 -45.5s-18.5 -20.833 -36.5 -29.5c18.667 -8 31 -17.333 37 -28
s9 -26 9 -46v-46c0 -33.333 -9.66699 -58.833 -29 -76.5s-46.333 -26.5 -81 -26.5c-35.333 0 -62.333 8.16699 -81 24.5z" />
    <glyph glyph-name="acute" unicode="&#xb4;" horiz-adv-x="500" 
d="M238 726h123l-123 -136h-99z" />
    <glyph glyph-name="uni00B5" unicode="&#xb5;" 
d="M41 528h116v-376c0 -18 4.5 -31.833 13.5 -41.5s20.5 -14.5 34.5 -14.5s25.5 4.83301 34.5 14.5s13.5 23.5 13.5 41.5v376h116v-528h-111v39c-6 -14 -15.333 -24.833 -28 -32.5s-25.667 -11.5 -39 -11.5c-16 0 -29.667 3 -41 9v-162h-109v686z" />
    <glyph glyph-name="paragraph" unicode="&#xb6;" horiz-adv-x="553" 
d="M208 261c-32.667 2 -61.499 12.8311 -86.499 32.498s-44.5 45.334 -58.5 77.001s-21 66.834 -21 105.501c0 39.333 8.16699 75.333 24.5 108s39.666 58.5 69.999 77.5s65.5 28.5 105.5 28.5h248v-848h-110v754h-61v-754h-111v419z" />
    <glyph glyph-name="periodcentered" unicode="&#xb7;" horiz-adv-x="175" 
d="M29 346h117v-132h-117v132z" />
    <glyph glyph-name="cedilla" unicode="&#xb8;" horiz-adv-x="500" 
d="M227 10h88l-59 -168h-102z" />
    <glyph glyph-name="uni00B9" unicode="&#xb9;" horiz-adv-x="215" 
d="M88 751l-64 -43v96l64 43h83v-417h-83v321z" />
    <glyph glyph-name="ordmasculine" unicode="&#xba;" horiz-adv-x="310" 
d="M71.5 451.5c-19 17.667 -28.5 46.834 -28.5 87.501v93c0 40.668 9.5 69.835 28.5 87.5c19 17.667 47.167 26.5 84.5 26.5c36 0 63.5 -8.83301 82.5 -26.5s28.5 -46.834 28.5 -87.501v-93c0 -40.667 -9.5 -69.834 -28.5 -87.5c-19 -17.667 -46.5 -26.5 -82.5 -26.5
c-37.333 0 -65.5 8.83301 -84.5 26.5zM180.5 506c5.66699 7.33301 8.5 19.333 8.5 36v87c0 16.667 -2.83301 28.667 -8.5 36s-14.167 11 -25.5 11s-20 -3.66699 -26 -11s-9 -19.333 -9 -36v-87c0 -31.333 11.667 -47 35 -47c11.333 0 19.833 3.66699 25.5 11zM142 847z" />
    <glyph glyph-name="guillemotright" unicode="&#xbb;" horiz-adv-x="442" 
d="M41 176l86 88l-86 88v110l194 -198l-194 -198v110zM234 176l86 88l-86 88v110l194 -198l-194 -198v110z" />
    <glyph glyph-name="onequarter" unicode="&#xbc;" horiz-adv-x="696" 
d="M88 594l-64 -43v96l64 43h83v-417h-83v321zM676 64h-29v-64h-82v64h-138v74l91 279h82l-90 -279h55v81h82v-81h29v-74zM401 698h82l-260 -698h-82z" />
    <glyph glyph-name="onehalf" unicode="&#xbd;" horiz-adv-x="692" 
d="M88 594l-64 -43v96l64 43h83v-417h-83v321zM440 68l118 175.002c8 11.333 13.5 20.666 16.5 27.999s4.5 17 4.5 29v22c0 7.33496 -2.33301 13.668 -7 19c-4.66699 5.33301 -12 8 -22 8c-18 0 -27 -8 -27 -24v-31h-80v39c0 28 10 50 30 66c20.001 16 46.334 24 79 24
c33.333 0 59.5 -8.16699 78.5 -24.5s28.5 -38.833 28.5 -67.5v-31c0 -19.333 -2.5 -35.333 -7.5 -48s-13.167 -27.334 -24.5 -44.001l-95 -134h128v-74h-220v68zM401 698.002h82l-260 -698h-82z" />
    <glyph glyph-name="threequarters" unicode="&#xbe;" horiz-adv-x="759" 
d="M56 291.5c-18.667 16.333 -28 39.5 -28 69.5v31h80v-24c0 -18 9.33301 -27 28 -27c11.333 0 19 2.33301 23 7s6 12.667 6 24v39c0 14 -2.16699 24 -6.5 30s-13.5 9 -27.5 9h-16v74h18c12.667 0 21.167 2.66699 25.5 8s6.5 14 6.5 26v32c0 10.667 -2.16699 18.5 -6.5 23.5
s-11.833 7.5 -22.5 7.5c-18.667 0 -28 -9 -28 -27v-25h-80v30c0 30.667 9.66699 54.5 29 71.5s46 25.5 80 25.5c35.333 0 62.5 -8.5 81.5 -25.5s28.5 -40.833 28.5 -71.5v-34c0 -19.333 -3.16699 -34.5 -9.5 -45.5s-18.5 -20.833 -36.5 -29.5c18.667 -8 31 -17.333 37 -28
s9 -26 9 -46v-46c0 -33.333 -9.66699 -58.833 -29 -76.5s-46.333 -26.5 -81 -26.5c-35.333 0 -62.333 8.16699 -81 24.5zM739 64h-29v-64h-82v64h-138v74l91 279h82l-90 -279h55v81h82v-81h29v-74zM464 698h82l-260 -698h-82z" />
    <glyph glyph-name="questiondown" unicode="&#xbf;" horiz-adv-x="376" 
d="M137 528h109v-127h-109v127zM70.5 -124c-29.667 29.333 -44.5 69.999 -44.5 121.999c0 26.667 2.83301 49.834 8.5 69.501s17.5 42.5 35.5 68.5l40 57c12 16.667 19.5 31.5 22.5 44.5s4.5 30.5 4.5 52.5v40h109v-40c0 -30.667 -2 -54.5 -6 -71.5s-15 -39.5 -33 -67.5
l-35 -55c-10.667 -16.667 -18 -31.667 -22 -45s-6 -30.333 -6 -51c0 -42 16 -63 48 -63c20.667 0 33.834 7.33301 39.5 22c5.66699 14.667 8.5 40 8.5 76h116c0 -68.667 -13.167 -119.667 -39.5 -153s-68.166 -50 -125.499 -50c-50.667 0 -90.834 14.667 -120.501 44z" />
    <glyph glyph-name="Agrave" unicode="&#xc0;" horiz-adv-x="485" 
d="M323 134h-161l-28 -134h-128l177 690h120l176 -690h-128zM301 244l-58 280l-58 -280h116zM102 888h123l99 -136h-99z" />
    <glyph glyph-name="Aacute" unicode="&#xc1;" horiz-adv-x="485" 
d="M323 134h-161l-28 -134h-128l177 690h120l176 -690h-128zM301 244l-58 280l-58 -280h116zM261 888h123l-123 -136h-99z" />
    <glyph glyph-name="Acircumflex" unicode="&#xc2;" horiz-adv-x="485" 
d="M323 134h-161l-28 -134h-128l177 690h120l176 -690h-128zM301 244l-58 280l-58 -280h116zM200 894h83l103 -148h-87l-56 80l-57 -80h-87z" />
    <glyph glyph-name="Atilde" unicode="&#xc3;" horiz-adv-x="485" 
d="M323 134h-161l-28 -134h-128l177 690h120l176 -690h-128zM301 244l-58 280l-58 -280h116zM130 844c13.333 14 24.5 23.499 33.5 28.499s19.833 7.5 32.5 7.5c10.667 0 20 -1.66699 28 -5s16.333 -8 25 -14c10 -6 18 -10.167 24 -12.5s13 -3.5 21 -3.5
c10.667 0 19.667 2.5 27 7.5c7.33496 5 18.668 15.5 34 31.5v-92c-12.667 -14 -23.334 -23.667 -32 -29c-8.66699 -5.33301 -19.667 -8 -33 -8c-11.333 0 -20.666 1.66699 -27.999 5s-16 8 -26 14c-9.33301 5.33301 -16.833 9.33301 -22.5 12s-12.834 4 -21.501 4
c-10.667 0 -20.167 -2.66699 -28.5 -8c-8.33301 -5.33887 -19.5 -15.6719 -33.5 -30.999v93z" />
    <glyph glyph-name="Adieresis" unicode="&#xc4;" horiz-adv-x="485" 
d="M323 134h-161l-28 -134h-128l177 690h120l176 -690h-128zM301 244l-58 280l-58 -280h116zM118 867h93v-114h-93v114zM274 867h93v-114h-93v114z" />
    <glyph glyph-name="Aring" unicode="&#xc5;" horiz-adv-x="485" 
d="M323 134l-161 0.000976562l-28 -134h-128l177 690c-10.667 8.66699 -19 19.334 -25 32c-6 12.6699 -9 26.3369 -9 41.001c0 27.333 9 50 27 68s40.333 27 67 27s49 -9 67 -27s27 -40.667 27 -68c0 -14.667 -3 -28.334 -9 -41.001s-14.333 -23.334 -25 -32.001l176 -690
h-128zM210.5 796.001c-8.33301 -8.66699 -12.502 -19.667 -12.502 -33c0 -12.667 4.33301 -23.334 13 -32.001s19.334 -13 32.001 -13s23.167 4.33301 31.5 13c8.33301 8.66992 12.5 19.3369 12.5 32.001c0 13.333 -4.16699 24.333 -12.5 33s-18.833 13 -31.5 13
c-13.333 0 -24.166 -4.33301 -32.499 -13zM300.998 244.001l-58 280l-58 -280h116zM268.998 669.001z" />
    <glyph glyph-name="AE" unicode="&#xc6;" horiz-adv-x="679" 
d="M469 579v-173h160v-110h-160v-186h185v-110h-308v133h-163l-49 -133h-128l260 690h388v-111h-185zM346 243v337l-123 -337h123z" />
    <glyph glyph-name="Ccedilla" unicode="&#xc7;" horiz-adv-x="468" 
d="M307 477l0.000976562 20c0 31.333 -6.5 54.5 -19.5 69.5s-30.5 22.5 -52.5 22.5c-26 0 -44.833 -9 -56.5 -27s-17.5 -45 -17.5 -81v-277c0 -67.333 24.667 -101 74 -101c22 0 39.5 7.66699 52.5 23s19.5 38 19.5 68v18h122v-19c0 -54 -12.333 -97.167 -37 -129.5
s-58 -53.833 -100 -64.5l-55 -157h-102l66 152c-50.667 5.33301 -90.5 24.5 -119.5 57.5s-43.5 79.167 -43.5 138.5v311c0 65.333 18.333 114.833 55 148.5s85 50.5 145 50.5c57.333 0 103.666 -16.667 138.999 -50s53 -84 53 -152v-21h-123z" />
    <glyph glyph-name="Egrave" unicode="&#xc8;" horiz-adv-x="375" 
d="M164 579v-173h160v-110h-160v-186h186v-110h-308v690h308v-111h-186zM59 888h123l99 -136h-99z" />
    <glyph glyph-name="Eacute" unicode="&#xc9;" horiz-adv-x="375" 
d="M164 579v-173h160v-110h-160v-186h186v-110h-308v690h308v-111h-186zM218 888h123l-123 -136h-99z" />
    <glyph glyph-name="Ecircumflex" unicode="&#xca;" horiz-adv-x="375" 
d="M164 579v-173h160v-110h-160v-186h186v-110h-308v690h308v-111h-186zM157 894h83l103 -148h-87l-56 80l-57 -80h-87z" />
    <glyph glyph-name="Edieresis" unicode="&#xcb;" horiz-adv-x="375" 
d="M164 579v-173h160v-110h-160v-186h186v-110h-308v690h308v-111h-186zM75 867h93v-114h-93v114zM231 867h93v-114h-93v114z" />
    <glyph glyph-name="Igrave" unicode="&#xcc;" horiz-adv-x="214" 
d="M46 690h122v-690h-122v690zM-34 888h123l99 -136h-99z" />
    <glyph glyph-name="Iacute" unicode="&#xcd;" horiz-adv-x="214" 
d="M46 690h122v-690h-122v690zM125 888h123l-123 -136h-99z" />
    <glyph glyph-name="Icircumflex" unicode="&#xce;" horiz-adv-x="214" 
d="M46 690h122v-690h-122v690zM64 894h83l103 -148h-87l-56 80l-57 -80h-87z" />
    <glyph glyph-name="Idieresis" unicode="&#xcf;" horiz-adv-x="214" 
d="M46 690h122v-690h-122v690zM-18 867h93v-114h-93v114zM138 867h93v-114h-93v114z" />
    <glyph glyph-name="Eth" unicode="&#xd0;" horiz-adv-x="483" 
d="M392.5 640c35 -33.334 52.5 -82.666 52.5 -147.999v-294c0 -64.667 -18.333 -113.834 -55 -147.501s-84.334 -50.5 -143 -50.5h-185v300h-42v110h42v280h191c58 0 104.5 -16.667 139.5 -50zM322 471.001c0 35.333 -6 62.167 -18 80.5s-30 27.5 -54 27.5h-66v-169h86v-110
h-86v-190h66c23.334 0 41.167 9 53.5 27s18.5 43 18.5 75v259z" />
    <glyph glyph-name="Ntilde" unicode="&#xd1;" horiz-adv-x="474" 
d="M432 690v-690h-123l-144 368v-368h-123v690h123l144 -384v384h123zM124 844c13.333 14 24.5 23.499 33.5 28.499s19.833 7.5 32.5 7.5c10.667 0 20 -1.66699 28 -5s16.333 -8 25 -14c10 -6 18 -10.167 24 -12.5s13 -3.5 21 -3.5c10.667 0 19.667 2.5 27 7.5
c7.33398 5 18.667 15.5 34 31.5v-92c-12.668 -14 -23.335 -23.667 -32 -29c-8.66699 -5.33301 -19.667 -8 -33 -8c-11.333 0 -20.666 1.66699 -27.999 5s-16 8 -26 14c-9.33301 5.33301 -16.833 9.33301 -22.5 12s-12.834 4 -21.501 4c-10.667 0 -20.167 -2.66699 -28.5 -8
c-8.33301 -5.33887 -19.5 -15.6719 -33.5 -30.999v93z" />
    <glyph glyph-name="Ograve" unicode="&#xd2;" horiz-adv-x="468" 
d="M90 42.5c-34.667 33.667 -52 82.833 -52 147.5v311c0 65.333 18.333 114.833 55 148.5s85 50.5 145 50.5c58 0 104.5 -16.833 139.5 -50.5s52.5 -83.167 52.5 -148.5v-311c0 -64 -18.5 -113 -55.5 -147s-84.833 -51 -143.5 -51c-59.333 0 -106.333 16.833 -141 50.5z
M288.5 129.499c12.333 17.667 18.5 42.501 18.5 74.501v277c0 35.333 -6 62.166 -18 80.499s-30 27.5 -54 27.5c-26 0 -44.833 -9 -56.5 -27s-17.5 -45 -17.5 -81v-277c0 -67.333 24.667 -101 74 -101c23.334 0 41.167 8.83301 53.5 26.5zM93 888h123l99 -136h-99z" />
    <glyph glyph-name="Oacute" unicode="&#xd3;" horiz-adv-x="468" 
d="M90 42.5c-34.667 33.667 -52 82.833 -52 147.5v311c0 65.333 18.333 114.833 55 148.5s85 50.5 145 50.5c58 0 104.5 -16.833 139.5 -50.5s52.5 -83.167 52.5 -148.5v-311c0 -64 -18.5 -113 -55.5 -147s-84.833 -51 -143.5 -51c-59.333 0 -106.333 16.833 -141 50.5z
M288.5 129.499c12.333 17.667 18.5 42.501 18.5 74.501v277c0 35.333 -6 62.166 -18 80.499s-30 27.5 -54 27.5c-26 0 -44.833 -9 -56.5 -27s-17.5 -45 -17.5 -81v-277c0 -67.333 24.667 -101 74 -101c23.334 0 41.167 8.83301 53.5 26.5zM252 888h123l-123 -136h-99z" />
    <glyph glyph-name="Ocircumflex" unicode="&#xd4;" horiz-adv-x="468" 
d="M90 42.5c-34.667 33.667 -52 82.833 -52 147.5v311c0 65.333 18.333 114.833 55 148.5s85 50.5 145 50.5c58 0 104.5 -16.833 139.5 -50.5s52.5 -83.167 52.5 -148.5v-311c0 -64 -18.5 -113 -55.5 -147s-84.833 -51 -143.5 -51c-59.333 0 -106.333 16.833 -141 50.5z
M288.5 129.499c12.333 17.667 18.5 42.501 18.5 74.501v277c0 35.333 -6 62.166 -18 80.499s-30 27.5 -54 27.5c-26 0 -44.833 -9 -56.5 -27s-17.5 -45 -17.5 -81v-277c0 -67.333 24.667 -101 74 -101c23.334 0 41.167 8.83301 53.5 26.5zM191 894h83l103 -148h-87l-56 80
l-57 -80h-87z" />
    <glyph glyph-name="Otilde" unicode="&#xd5;" horiz-adv-x="468" 
d="M90 42.5c-34.667 33.667 -52 82.833 -52 147.5v311c0 65.333 18.333 114.833 55 148.5s85 50.5 145 50.5c58 0 104.5 -16.833 139.5 -50.5s52.5 -83.167 52.5 -148.5v-311c0 -64 -18.5 -113 -55.5 -147s-84.833 -51 -143.5 -51c-59.333 0 -106.333 16.833 -141 50.5z
M288.5 129.499c12.333 17.667 18.5 42.501 18.5 74.501v277c0 35.333 -6 62.166 -18 80.499s-30 27.5 -54 27.5c-26 0 -44.833 -9 -56.5 -27s-17.5 -45 -17.5 -81v-277c0 -67.333 24.667 -101 74 -101c23.334 0 41.167 8.83301 53.5 26.5zM121 844
c13.333 14 24.5 23.499 33.5 28.499s19.833 7.5 32.5 7.5c10.667 0 20 -1.66699 28 -5s16.333 -8 25 -14c10 -6 18 -10.167 24 -12.5s13 -3.5 21 -3.5c10.667 0 19.667 2.5 27 7.5c7.33496 5 18.668 15.5 34 31.5v-92c-12.667 -14 -23.334 -23.667 -32 -29
c-8.66699 -5.33301 -19.667 -8 -33 -8c-11.333 0 -20.666 1.66699 -27.999 5s-16 8 -26 14c-9.33301 5.33301 -16.833 9.33301 -22.5 12s-12.834 4 -21.501 4c-10.667 0 -20.167 -2.66699 -28.5 -8c-8.33301 -5.33887 -19.5 -15.6719 -33.5 -30.999v93z" />
    <glyph glyph-name="Odieresis" unicode="&#xd6;" horiz-adv-x="468" 
d="M90 42.5c-34.667 33.667 -52 82.833 -52 147.5v311c0 65.333 18.333 114.833 55 148.5s85 50.5 145 50.5c58 0 104.5 -16.833 139.5 -50.5s52.5 -83.167 52.5 -148.5v-311c0 -64 -18.5 -113 -55.5 -147s-84.833 -51 -143.5 -51c-59.333 0 -106.333 16.833 -141 50.5z
M288.5 129.499c12.333 17.667 18.5 42.501 18.5 74.501v277c0 35.333 -6 62.166 -18 80.499s-30 27.5 -54 27.5c-26 0 -44.833 -9 -56.5 -27s-17.5 -45 -17.5 -81v-277c0 -67.333 24.667 -101 74 -101c23.334 0 41.167 8.83301 53.5 26.5zM109 867h93v-114h-93v114zM265 867
h93v-114h-93v114z" />
    <glyph glyph-name="multiply" unicode="&#xd7;" horiz-adv-x="419" 
d="M42 181l95 95l-95 94l73 73l95 -94l94 94l73 -73l-94 -94l94 -95l-73 -73l-94 95l-95 -95z" />
    <glyph glyph-name="Oslash" unicode="&#xd8;" horiz-adv-x="468" 
d="M392 633c25.333 -34 37.999 -78 37.999 -132v-311c0 -64 -18.5 -113 -55.5 -147s-84.833 -51 -143.5 -51c-45.333 0 -83.666 10 -114.999 30l-19 -42h-59l36 81c-24 32.667 -36 75.667 -36 129v311c0 65.333 18.333 114.833 55 148.5s85 50.5 145 50.5
c44.667 0 82 -9.66699 112 -29l21 47h59zM160.999 253l134 297c-10.667 26 -30.667 39 -60 39c-26 0 -44.833 -9 -56.5 -27s-17.5 -45 -17.5 -81v-228zM306.999 445l-135.999 -301c11.333 -27.333 32.666 -41 63.999 -41c23.334 0 41.167 8.83301 53.5 26.5
s18.5 42.5 18.5 74.5v241z" />
    <glyph glyph-name="Ugrave" unicode="&#xd9;" horiz-adv-x="460" 
d="M133.5 15.5c-28.333 15.667 -50.667 37.834 -67 66.501s-24.5 61.667 -24.5 99v509h123v-506c0 -28 5.33301 -48.5 16 -61.5s27 -19.5 49 -19.5c43.333 0 65 27 65 81v506h123v-509c0 -37.333 -8 -70.333 -24 -99s-38.333 -50.834 -67 -66.501s-61 -23.5 -97 -23.5
s-68.167 7.83301 -96.5 23.5zM88.999 888h123l99 -136h-99z" />
    <glyph glyph-name="Uacute" unicode="&#xda;" horiz-adv-x="460" 
d="M133.5 15.5c-28.333 15.667 -50.667 37.834 -67 66.501s-24.5 61.667 -24.5 99v509h123v-506c0 -28 5.33301 -48.5 16 -61.5s27 -19.5 49 -19.5c43.333 0 65 27 65 81v506h123v-509c0 -37.333 -8 -70.333 -24 -99s-38.333 -50.834 -67 -66.501s-61 -23.5 -97 -23.5
s-68.167 7.83301 -96.5 23.5zM247.999 888h123l-123 -136h-99z" />
    <glyph glyph-name="Ucircumflex" unicode="&#xdb;" horiz-adv-x="460" 
d="M133.5 15.5c-28.333 15.667 -50.667 37.834 -67 66.501s-24.5 61.667 -24.5 99v509h123v-506c0 -28 5.33301 -48.5 16 -61.5s27 -19.5 49 -19.5c43.333 0 65 27 65 81v506h123v-509c0 -37.333 -8 -70.333 -24 -99s-38.333 -50.834 -67 -66.501s-61 -23.5 -97 -23.5
s-68.167 7.83301 -96.5 23.5zM186.999 894h83l103 -148h-87l-56 80l-57 -80h-87z" />
    <glyph glyph-name="Udieresis" unicode="&#xdc;" horiz-adv-x="460" 
d="M133.5 15.5c-28.333 15.667 -50.667 37.834 -67 66.501s-24.5 61.667 -24.5 99v509h123v-506c0 -28 5.33301 -48.5 16 -61.5s27 -19.5 49 -19.5c43.333 0 65 27 65 81v506h123v-509c0 -37.333 -8 -70.333 -24 -99s-38.333 -50.834 -67 -66.501s-61 -23.5 -97 -23.5
s-68.167 7.83301 -96.5 23.5zM104.999 867h93v-114h-93v114zM260.999 867h93v-114h-93v114z" />
    <glyph glyph-name="Yacute" unicode="&#xdd;" horiz-adv-x="415" 
d="M269 269v-269h-123v271l-140 419h135l66 -264l66 264h136zM225 888h123l-123 -136h-99z" />
    <glyph glyph-name="Thorn" unicode="&#xde;" horiz-adv-x="434" 
d="M373.5 525c29 -36 43.501 -90.333 43.501 -163c0 -73.333 -14.833 -128 -44.5 -164s-77.834 -54 -144.501 -54h-64v-144h-122v690h122v-111h64c68 0 116.5 -18 145.5 -54zM278.501 280.5c10.333 17.667 15.5 44.833 15.5 81.5c0 36 -5.16699 62.667 -15.5 80
s-28.5 26 -54.5 26h-60v-214h60c26 0 44.167 8.83301 54.5 26.5z" />
    <glyph glyph-name="germandbls" unicode="&#xdf;" horiz-adv-x="420" 
d="M212 93h15.998c12 0 20.667 4.16699 26 12.5c5.33691 8.33301 8.66992 21 9.99902 38c1.33301 17 2 44.167 2 81.5c0 34 -0.666992 59 -2 75s-4.66602 28.333 -9.99902 37s-14 13 -26 13h-18v97h16c15.333 0 25 6 29 18s6 32.333 6 61
c0 23.333 -4.16699 40.833 -12.5 52.5c-8.33398 11.667 -21.167 17.5 -38.5 17.5s-30.5 -5.33301 -39.5 -16s-13.5 -26 -13.5 -46v-534h-116v519c0 120.667 56.333 181 169 181c52.667 0 93.667 -14.5 123 -43.5s44 -68.833 44 -119.5c0 -36 -3.66699 -62.833 -11 -80.5
s-21.666 -34.167 -42.999 -49.5c17.335 -10.667 30.168 -22.5 38.5 -35.5c8.33301 -13 13.833 -30.333 16.5 -52s4 -53.167 4 -94.5c0 -61.333 -3 -107.333 -9 -138s-19.167 -53.667 -39.5 -69s-52.166 -23 -95.499 -23h-26v98z" />
    <glyph glyph-name="agrave" unicode="&#xe0;" horiz-adv-x="405" 
d="M321.5 490.5c28.333 -30.333 42.502 -71.168 42.502 -122.501v-368h-108v44c-14 -18 -27.667 -31.167 -41 -39.5c-13.334 -8.33301 -30.667 -12.5 -52 -12.5c-44 0 -77.167 14.333 -99.5 43s-33.5 68.667 -33.5 120c0 49.333 15 87.5 45 114.5s73 40.5 129 40.5h44v67
c0 18.667 -4.16699 32.834 -12.5 42.501s-20.5 14.5 -36.5 14.5c-14.667 0 -26.334 -4.66699 -35.001 -14s-13 -22 -13 -38v-8h-107v4c0 52 14.667 91.333 44 118s67.333 40 114 40c51.333 0 91.166 -15.167 119.499 -45.5zM233.502 110.498
c9.66699 11.667 14.5 27.501 14.5 47.501v71h-30c-23.334 0 -41.167 -5.33301 -53.5 -16s-18.5 -28.334 -18.5 -53.001c0 -22 4.33301 -38.667 13 -50s21.334 -17 38 -17c14.667 0 26.834 5.83301 36.5 17.5zM61.002 725.999h123l99 -136h-99z" />
    <glyph glyph-name="aacute" unicode="&#xe1;" horiz-adv-x="405" 
d="M321.5 490.5c28.333 -30.333 42.502 -71.168 42.502 -122.501v-368h-108v44c-14 -18 -27.667 -31.167 -41 -39.5c-13.334 -8.33301 -30.667 -12.5 -52 -12.5c-44 0 -77.167 14.333 -99.5 43s-33.5 68.667 -33.5 120c0 49.333 15 87.5 45 114.5s73 40.5 129 40.5h44v67
c0 18.667 -4.16699 32.834 -12.5 42.501s-20.5 14.5 -36.5 14.5c-14.667 0 -26.334 -4.66699 -35.001 -14s-13 -22 -13 -38v-8h-107v4c0 52 14.667 91.333 44 118s67.333 40 114 40c51.333 0 91.166 -15.167 119.499 -45.5zM233.502 110.498
c9.66699 11.667 14.5 27.501 14.5 47.501v71h-30c-23.334 0 -41.167 -5.33301 -53.5 -16s-18.5 -28.334 -18.5 -53.001c0 -22 4.33301 -38.667 13 -50s21.334 -17 38 -17c14.667 0 26.834 5.83301 36.5 17.5zM220.002 725.999h123l-123 -136h-99z" />
    <glyph glyph-name="acircumflex" unicode="&#xe2;" horiz-adv-x="405" 
d="M321.5 490.5c28.333 -30.333 42.502 -71.168 42.502 -122.501v-368h-108v44c-14 -18 -27.667 -31.167 -41 -39.5c-13.334 -8.33301 -30.667 -12.5 -52 -12.5c-44 0 -77.167 14.333 -99.5 43s-33.5 68.667 -33.5 120c0 49.333 15 87.5 45 114.5s73 40.5 129 40.5h44v67
c0 18.667 -4.16699 32.834 -12.5 42.501s-20.5 14.5 -36.5 14.5c-14.667 0 -26.334 -4.66699 -35.001 -14s-13 -22 -13 -38v-8h-107v4c0 52 14.667 91.333 44 118s67.333 40 114 40c51.333 0 91.166 -15.167 119.499 -45.5zM233.502 110.498
c9.66699 11.667 14.5 27.501 14.5 47.501v71h-30c-23.334 0 -41.167 -5.33301 -53.5 -16s-18.5 -28.334 -18.5 -53.001c0 -22 4.33301 -38.667 13 -50s21.334 -17 38 -17c14.667 0 26.834 5.83301 36.5 17.5zM159.002 731.999h83l103 -148h-87l-56 80l-57 -80h-87z" />
    <glyph glyph-name="atilde" unicode="&#xe3;" horiz-adv-x="405" 
d="M321.5 490.5c28.333 -30.333 42.502 -71.168 42.502 -122.501v-368h-108v44c-14 -18 -27.667 -31.167 -41 -39.5c-13.334 -8.33301 -30.667 -12.5 -52 -12.5c-44 0 -77.167 14.333 -99.5 43s-33.5 68.667 -33.5 120c0 49.333 15 87.5 45 114.5s73 40.5 129 40.5h44v67
c0 18.667 -4.16699 32.834 -12.5 42.501s-20.5 14.5 -36.5 14.5c-14.667 0 -26.334 -4.66699 -35.001 -14s-13 -22 -13 -38v-8h-107v4c0 52 14.667 91.333 44 118s67.333 40 114 40c51.333 0 91.166 -15.167 119.499 -45.5zM233.502 110.498
c9.66699 11.667 14.5 27.501 14.5 47.501v71h-30c-23.334 0 -41.167 -5.33301 -53.5 -16s-18.5 -28.334 -18.5 -53.001c0 -22 4.33301 -38.667 13 -50s21.334 -17 38 -17c14.667 0 26.834 5.83301 36.5 17.5zM89.002 681.999c13.333 14 24.502 23.5 33.502 28.5
s19.833 7.5 32.5 7.5c10.667 0 20 -1.66699 28 -5s16.333 -8 25 -14c10 -6 18 -10.167 24 -12.5s13 -3.5 21 -3.5c10.667 0 19.667 2.5 27 7.5c7.33398 5 18.667 15.5 33.999 31.5v-92c-12.667 -14 -23.334 -23.667 -32 -29c-8.66699 -5.33301 -19.667 -8 -33 -8
c-11.334 0 -20.667 1.66699 -28 5s-16 8 -26 14c-9.33301 5.33301 -16.833 9.33301 -22.5 12s-12.834 4 -21.501 4c-10.667 0 -20.167 -2.66699 -28.5 -8c-8.33301 -5.33789 -19.5 -15.6709 -33.5 -31v93z" />
    <glyph glyph-name="adieresis" unicode="&#xe4;" horiz-adv-x="405" 
d="M321.5 490.5c28.333 -30.333 42.502 -71.168 42.502 -122.501v-368h-108v44c-14 -18 -27.667 -31.167 -41 -39.5c-13.334 -8.33301 -30.667 -12.5 -52 -12.5c-44 0 -77.167 14.333 -99.5 43s-33.5 68.667 -33.5 120c0 49.333 15 87.5 45 114.5s73 40.5 129 40.5h44v67
c0 18.667 -4.16699 32.834 -12.5 42.501s-20.5 14.5 -36.5 14.5c-14.667 0 -26.334 -4.66699 -35.001 -14s-13 -22 -13 -38v-8h-107v4c0 52 14.667 91.333 44 118s67.333 40 114 40c51.333 0 91.166 -15.167 119.499 -45.5zM233.502 110.498
c9.66699 11.667 14.5 27.501 14.5 47.501v71h-30c-23.334 0 -41.167 -5.33301 -53.5 -16s-18.5 -28.334 -18.5 -53.001c0 -22 4.33301 -38.667 13 -50s21.334 -17 38 -17c14.667 0 26.834 5.83301 36.5 17.5zM77.002 704.999h93v-114h-93v114zM233.002 704.999h93v-114h-93
v114z" />
    <glyph glyph-name="aring" unicode="&#xe5;" horiz-adv-x="405" 
d="M321.5 490.5c28.333 -30.333 42.502 -71.168 42.502 -122.501v-368h-108v44c-14 -18 -27.667 -31.167 -41 -39.5c-13.334 -8.33301 -30.667 -12.5 -52 -12.5c-44 0 -77.167 14.333 -99.5 43s-33.5 68.667 -33.5 120c0 49.333 15 87.5 45 114.5s73 40.5 129 40.5h44v67
c0 18.667 -4.16699 32.834 -12.5 42.501s-20.5 14.5 -36.5 14.5c-14.667 0 -26.334 -4.66699 -35.001 -14s-13 -22 -13 -38v-8h-107v4c0 52 14.667 91.333 44 118s67.333 40 114 40c51.333 0 91.166 -15.167 119.499 -45.5zM233.502 110.498
c9.66699 11.667 14.5 27.501 14.5 47.501v71h-30c-23.334 0 -41.167 -5.33301 -53.5 -16s-18.5 -28.334 -18.5 -53.001c0 -22 4.33301 -38.667 13 -50s21.334 -17 38 -17c14.667 0 26.834 5.83301 36.5 17.5zM135.002 563.999c-18 18 -27 40.333 -27 67c0 27.333 9 50 27 68
s40.333 27 67 27s49 -9 67 -27s27 -40.667 27 -68c0 -26.667 -9 -49 -27 -67s-40.333 -27 -67 -27s-49 9 -67 27zM233.502 598.999c8.33301 8.6709 12.501 19.3389 12.501 32.001c0 13.333 -4.16699 24.333 -12.5 33s-18.833 13 -31.5 13
c-13.334 0 -24.167 -4.33301 -32.5 -13s-12.5 -19.667 -12.5 -33c0 -12.667 4.16699 -23.334 12.5 -32.001s19.166 -13 32.499 -13c12.667 0 23.167 4.33301 31.5 13z" />
    <glyph glyph-name="ae" unicode="&#xe6;" horiz-adv-x="621" 
d="M364 175c0 -54 17.334 -81.002 52.001 -81.002c34 0 51 22.333 51 67v5h113v-6c0 -55.333 -14.167 -97.166 -42.5 -125.499s-68.5 -42.5 -120.5 -42.5c-50.667 0 -89.334 13 -116 39c-31.333 -26 -69 -39 -113 -39c-47.333 0 -85.5 14.667 -114.5 44s-43.5 69 -43.5 119
c0 49.333 15 87.5 45 114.5s73 40.5 129 40.5h44v67c0 18.667 -4.16699 32.834 -12.5 42.501s-20.5 14.5 -36.5 14.5c-14.667 0 -26.334 -4.66699 -35.001 -14s-13 -22 -13 -38v-8h-107v4c0 52 14.667 91.333 44 118s67.333 40 114 40c42 0 77 -10.667 105 -32
c26 21.333 61.333 32 106 32c54 0 95.833 -16.833 125.5 -50.5s44.5 -86.167 44.5 -157.5v-105h-219v-48zM377.001 411.498c-8.66699 -13.667 -12.999 -35.5 -12.999 -65.5v-39h103v39c0 30 -4.33301 51.833 -13 65.5c-8.66797 13.667 -21.335 20.5 -38.001 20.5
c-17.333 0 -30.333 -6.83301 -39 -20.5zM248.002 228.998l-30 0.000976562c-23.334 0 -41.167 -5.33301 -53.5 -16s-18.5 -28.334 -18.5 -53.001c0 -22 4.33301 -38.667 13 -50s21.334 -17 38 -17c14.667 0 26.834 5.83301 36.5 17.5c9.66699 11.667 14.5 27.5 14.5 47.5v71
z" />
    <glyph glyph-name="ccedilla" unicode="&#xe7;" horiz-adv-x="407" 
d="M257 344l-0.00195312 18c0 23.333 -4.5 40.833 -13.5 52.5s-21.5 17.5 -37.5 17.5c-17.333 0 -30.333 -6.83301 -39 -20.5s-13 -35.5 -13 -65.5v-164c0 -30 4.33301 -51.833 13 -65.5s21.334 -20.5 38 -20.5c16.667 0 29.5 5.83301 38.5 17.5s13.5 29.5 13.5 53.5v17h112
v-17c0 -91.333 -33.667 -147 -101 -167l-56 -158h-102l66 152c-45.333 4.66699 -79.666 22 -102.999 52s-35 75.667 -35 137v162c0 67.333 14.333 116 43 146s70.334 45 125.001 45c52.667 0 93 -14.333 121 -43s42 -71.667 42 -129v-20h-112z" />
    <glyph glyph-name="egrave" unicode="&#xe8;" horiz-adv-x="411" 
d="M154 223l-0.00195312 -48.001c0 -54 17.333 -81 52 -81c34 0 51 22.333 51 67v5h112v-6c0 -55.333 -14 -97.166 -42 -125.499s-68.333 -42.5 -121 -42.5c-53.333 0 -94.666 16 -123.999 48s-44 85 -44 159v129c0 72 13.833 124.667 41.5 158s68.834 50 123.501 50
c54 0 95.833 -17 125.5 -51s44.5 -86.333 44.5 -157v-105h-219zM166.998 411.499c-8.66699 -13.667 -12.999 -35.5 -12.999 -65.5v-39h103v39c0 30 -4.33301 51.833 -13 65.5s-21.667 20.5 -39 20.5c-16.667 0 -29.334 -6.83301 -38.001 -20.5zM63.999 725.999h123l99 -136
h-99z" />
    <glyph glyph-name="eacute" unicode="&#xe9;" horiz-adv-x="411" 
d="M154 223l-0.00195312 -48.001c0 -54 17.333 -81 52 -81c34 0 51 22.333 51 67v5h112v-6c0 -55.333 -14 -97.166 -42 -125.499s-68.333 -42.5 -121 -42.5c-53.333 0 -94.666 16 -123.999 48s-44 85 -44 159v129c0 72 13.833 124.667 41.5 158s68.834 50 123.501 50
c54 0 95.833 -17 125.5 -51s44.5 -86.333 44.5 -157v-105h-219zM166.998 411.499c-8.66699 -13.667 -12.999 -35.5 -12.999 -65.5v-39h103v39c0 30 -4.33301 51.833 -13 65.5s-21.667 20.5 -39 20.5c-16.667 0 -29.334 -6.83301 -38.001 -20.5zM222.999 725.999h123
l-123 -136h-99z" />
    <glyph glyph-name="ecircumflex" unicode="&#xea;" horiz-adv-x="411" 
d="M154 223l-0.00195312 -48.001c0 -54 17.333 -81 52 -81c34 0 51 22.333 51 67v5h112v-6c0 -55.333 -14 -97.166 -42 -125.499s-68.333 -42.5 -121 -42.5c-53.333 0 -94.666 16 -123.999 48s-44 85 -44 159v129c0 72 13.833 124.667 41.5 158s68.834 50 123.501 50
c54 0 95.833 -17 125.5 -51s44.5 -86.333 44.5 -157v-105h-219zM166.998 411.499c-8.66699 -13.667 -12.999 -35.5 -12.999 -65.5v-39h103v39c0 30 -4.33301 51.833 -13 65.5s-21.667 20.5 -39 20.5c-16.667 0 -29.334 -6.83301 -38.001 -20.5zM161.999 731.999h83l103 -148
h-87l-56 80l-57 -80h-87z" />
    <glyph glyph-name="edieresis" unicode="&#xeb;" horiz-adv-x="411" 
d="M154 223l-0.00195312 -48.001c0 -54 17.333 -81 52 -81c34 0 51 22.333 51 67v5h112v-6c0 -55.333 -14 -97.166 -42 -125.499s-68.333 -42.5 -121 -42.5c-53.333 0 -94.666 16 -123.999 48s-44 85 -44 159v129c0 72 13.833 124.667 41.5 158s68.834 50 123.501 50
c54 0 95.833 -17 125.5 -51s44.5 -86.333 44.5 -157v-105h-219zM166.998 411.499c-8.66699 -13.667 -12.999 -35.5 -12.999 -65.5v-39h103v39c0 30 -4.33301 51.833 -13 65.5s-21.667 20.5 -39 20.5c-16.667 0 -29.334 -6.83301 -38.001 -20.5zM79.999 704.999h93v-114h-93
v114zM235.999 704.999h93v-114h-93v114z" />
    <glyph glyph-name="igrave" unicode="&#xec;" horiz-adv-x="206" 
d="M45 528h116v-528h-116v528zM-38 724h123l99 -136h-99z" />
    <glyph glyph-name="iacute" unicode="&#xed;" horiz-adv-x="206" 
d="M45 528h116v-528h-116v528zM121 724h123l-123 -136h-99z" />
    <glyph glyph-name="icircumflex" unicode="&#xee;" horiz-adv-x="206" 
d="M45 528h116v-528h-116v528zM60 730h83l103 -148h-87l-56 80l-57 -80h-87z" />
    <glyph glyph-name="idieresis" unicode="&#xef;" horiz-adv-x="206" 
d="M45 528h116v-528h-116v528zM-22 703h93v-114h-93v114zM134 703h93v-114h-93v114z" />
    <glyph glyph-name="eth" unicode="&#xf0;" horiz-adv-x="399" 
d="M347 393c9.33301 -32.667 14 -70.666 14 -113.999v-102c0 -60.667 -13.833 -107 -41.5 -139s-68.167 -48 -121.5 -48c-52.667 0 -92.5 15.833 -119.5 47.5s-40.5 78.167 -40.5 139.5v108c0 58 11 102 33 132s54.333 45 97 45c17.333 0 34.333 -3.33301 51 -10l-44 86
l-84 -27l-25 74l72 23l-46 90h111l30 -60l74 24l24 -75l-62 -20l27 -52c24.667 -48.667 41.667 -89.334 51 -122.001zM245 296.001c0 18.667 -3.83203 32.833 -11.499 42.5s-18.834 14.5 -33.501 14.5s-26 -4.83301 -34 -14.5s-12 -23.834 -12 -42.5v-131
c0 -20 4 -35.5 12 -46.5s19.333 -16.5 34 -16.5s25.834 5.5 33.5 16.5c7.66699 11 11.5 26.5 11.5 46.5v131z" />
    <glyph glyph-name="ntilde" unicode="&#xf1;" 
d="M41 528h111.001v-39c24.667 31.333 54 47 88 47c86 0 129 -53 129 -159v-377h-116v376c0 18 -4.5 31.833 -13.5 41.5s-20.5 14.5 -34.5 14.5c-14.667 0 -26.334 -4.83301 -35.001 -14.5s-13 -23.5 -13 -41.5v-376h-116v528zM92.001 682
c13.333 14 24.502 23.5 33.502 28.5s19.833 7.5 32.5 7.5c10.667 0 20 -1.66699 28 -5s16.333 -8 25 -14c10 -6 18 -10.167 24 -12.5s13 -3.5 21 -3.5c10.667 0 19.667 2.5 27 7.5c7.33398 5 18.667 15.5 34 31.5v-92c-12.668 -14 -23.335 -23.667 -32.001 -29
c-8.66699 -5.33301 -19.667 -8 -33 -8c-11.334 0 -20.667 1.66699 -28 5s-16 8 -26 14c-9.33301 5.33301 -16.833 9.33301 -22.5 12s-12.834 4 -21.501 4c-10.667 0 -20.167 -2.66699 -28.5 -8c-8.33301 -5.33789 -19.5 -15.6709 -33.5 -31v93z" />
    <glyph glyph-name="ograve" unicode="&#xf2;" horiz-adv-x="411" 
d="M81 37c-28.667 30 -43 78.667 -43 146v162c0 67.333 14.333 116 43 146s70.334 45 125.001 45s96.167 -15 124.5 -45s42.5 -78.667 42.5 -146v-162c0 -67.333 -14.167 -116 -42.5 -146s-69.833 -45 -124.5 -45s-96.334 15 -125.001 45zM244 116.5
c8.66699 13.667 13.001 35.5 13.001 65.5v164c0 30 -4.33301 51.833 -13 65.5s-21.667 20.5 -39 20.5c-16.667 0 -29.334 -6.83301 -38.001 -20.5s-13 -35.5 -13 -65.5v-164c0 -30 4.33301 -51.833 13 -65.5s21.334 -20.5 38 -20.5c17.333 0 30.333 6.83301 39 20.5z
M64.001 726h123l99 -136h-99z" />
    <glyph glyph-name="oacute" unicode="&#xf3;" horiz-adv-x="411" 
d="M81 37c-28.667 30 -43 78.667 -43 146v162c0 67.333 14.333 116 43 146s70.334 45 125.001 45s96.167 -15 124.5 -45s42.5 -78.667 42.5 -146v-162c0 -67.333 -14.167 -116 -42.5 -146s-69.833 -45 -124.5 -45s-96.334 15 -125.001 45zM244 116.5
c8.66699 13.667 13.001 35.5 13.001 65.5v164c0 30 -4.33301 51.833 -13 65.5s-21.667 20.5 -39 20.5c-16.667 0 -29.334 -6.83301 -38.001 -20.5s-13 -35.5 -13 -65.5v-164c0 -30 4.33301 -51.833 13 -65.5s21.334 -20.5 38 -20.5c17.333 0 30.333 6.83301 39 20.5z
M223.001 726h123l-123 -136h-99z" />
    <glyph glyph-name="ocircumflex" unicode="&#xf4;" horiz-adv-x="411" 
d="M81 37c-28.667 30 -43 78.667 -43 146v162c0 67.333 14.333 116 43 146s70.334 45 125.001 45s96.167 -15 124.5 -45s42.5 -78.667 42.5 -146v-162c0 -67.333 -14.167 -116 -42.5 -146s-69.833 -45 -124.5 -45s-96.334 15 -125.001 45zM244 116.5
c8.66699 13.667 13.001 35.5 13.001 65.5v164c0 30 -4.33301 51.833 -13 65.5s-21.667 20.5 -39 20.5c-16.667 0 -29.334 -6.83301 -38.001 -20.5s-13 -35.5 -13 -65.5v-164c0 -30 4.33301 -51.833 13 -65.5s21.334 -20.5 38 -20.5c17.333 0 30.333 6.83301 39 20.5z
M162.001 732h83l103 -148h-87l-56 80l-57 -80h-87z" />
    <glyph glyph-name="otilde" unicode="&#xf5;" horiz-adv-x="411" 
d="M81 37c-28.667 30 -43 78.667 -43 146v162c0 67.333 14.333 116 43 146s70.334 45 125.001 45s96.167 -15 124.5 -45s42.5 -78.667 42.5 -146v-162c0 -67.333 -14.167 -116 -42.5 -146s-69.833 -45 -124.5 -45s-96.334 15 -125.001 45zM244 116.5
c8.66699 13.667 13.001 35.5 13.001 65.5v164c0 30 -4.33301 51.833 -13 65.5s-21.667 20.5 -39 20.5c-16.667 0 -29.334 -6.83301 -38.001 -20.5s-13 -35.5 -13 -65.5v-164c0 -30 4.33301 -51.833 13 -65.5s21.334 -20.5 38 -20.5c17.333 0 30.333 6.83301 39 20.5z
M92.001 682c13.333 14 24.502 23.5 33.502 28.5s19.833 7.5 32.5 7.5c10.667 0 20 -1.66699 28 -5s16.333 -8 25 -14c10 -6 18 -10.167 24 -12.5s13 -3.5 21 -3.5c10.667 0 19.667 2.5 27 7.5c7.33398 5 18.667 15.5 34 31.5v-92c-12.668 -14 -23.335 -23.667 -32.001 -29
c-8.66699 -5.33301 -19.667 -8 -33 -8c-11.334 0 -20.667 1.66699 -28 5s-16 8 -26 14c-9.33301 5.33301 -16.833 9.33301 -22.5 12s-12.834 4 -21.501 4c-10.667 0 -20.167 -2.66699 -28.5 -8c-8.33301 -5.33789 -19.5 -15.6709 -33.5 -31v93z" />
    <glyph glyph-name="odieresis" unicode="&#xf6;" horiz-adv-x="411" 
d="M81 37c-28.667 30 -43 78.667 -43 146v162c0 67.333 14.333 116 43 146s70.334 45 125.001 45s96.167 -15 124.5 -45s42.5 -78.667 42.5 -146v-162c0 -67.333 -14.167 -116 -42.5 -146s-69.833 -45 -124.5 -45s-96.334 15 -125.001 45zM244 116.5
c8.66699 13.667 13.001 35.5 13.001 65.5v164c0 30 -4.33301 51.833 -13 65.5s-21.667 20.5 -39 20.5c-16.667 0 -29.334 -6.83301 -38.001 -20.5s-13 -35.5 -13 -65.5v-164c0 -30 4.33301 -51.833 13 -65.5s21.334 -20.5 38 -20.5c17.333 0 30.333 6.83301 39 20.5z
M80.001 705h93v-114h-93v114zM236.001 705h93v-114h-93v114z" />
    <glyph glyph-name="divide" unicode="&#xf7;" horiz-adv-x="419" 
d="M164.5 395c-12.333 12.667 -18.499 27.667 -18.499 45c0 17.334 6.16699 32.167 18.5 44.499c12.333 12.333 27.166 18.5 44.499 18.5s32.333 -6.16699 45 -18.5s19 -27.166 19 -44.499s-6.33301 -32.333 -19 -45s-27.667 -19 -45 -19
c-17.334 0 -32.167 6.33301 -44.5 19zM32.001 331h355v-111h-355v111zM164.501 70.5c-12.333 12.333 -18.499 27.166 -18.499 44.499s6.16699 32.333 18.5 45s27.166 19 44.499 19s32.333 -6.33301 45 -19s19 -27.667 19 -45s-6.33301 -32.166 -19 -44.499
s-27.667 -18.5 -45 -18.5c-17.334 0 -32.167 6.16699 -44.5 18.5z" />
    <glyph glyph-name="oslash" unicode="&#xf8;" horiz-adv-x="411" 
d="M338 482c23.333 -30.667 34.999 -76.334 34.999 -137v-162c0 -67.333 -14.167 -116 -42.5 -146s-69.833 -45 -124.5 -45c-38 0 -69.333 6.66699 -94 20l-20 -41h-54l36 74c-24 32.667 -36 78.667 -36 138v162c0 67.333 14.333 116 43 146s70.334 45 125.001 45
c38.667 0 70 -7 94 -21l19 40h54zM153.999 212l93.001 194c-8 17.333 -22 26 -42 26c-16.667 0 -29.334 -6.83301 -38.001 -20.5s-13 -35.5 -13 -65.5v-134zM257 314l-93 -193c8.66699 -16.667 22.334 -25 41 -25c17.333 0 30.333 6.83301 39 20.5s13 35.5 13 65.5v132z" />
    <glyph glyph-name="ugrave" unicode="&#xf9;" 
d="M75.5 38.5c-23 31 -34.501 77.167 -34.501 138.5v351h116v-327c0 -27.334 0.833008 -47.667 2.5 -61s5.83398 -24 12.5 -32c6.66699 -8 17.667 -12 33 -12s26.333 3.5 33 10.5c6.66797 7 10.835 17.167 12.501 30.5c1.66699 13.333 2.5 34.666 2.5 63.999v327h116v-351
c0 -42 -4.66699 -76.167 -14 -102.5s-25.833 -46.666 -49.5 -60.999s-57.167 -21.5 -100.5 -21.5c-63.333 0 -106.5 15.5 -129.5 46.5zM63.999 726h123l99 -136h-99z" />
    <glyph glyph-name="uacute" unicode="&#xfa;" 
d="M75.5 38.5c-23 31 -34.501 77.167 -34.501 138.5v351h116v-327c0 -27.334 0.833008 -47.667 2.5 -61s5.83398 -24 12.5 -32c6.66699 -8 17.667 -12 33 -12s26.333 3.5 33 10.5c6.66797 7 10.835 17.167 12.501 30.5c1.66699 13.333 2.5 34.666 2.5 63.999v327h116v-351
c0 -42 -4.66699 -76.167 -14 -102.5s-25.833 -46.666 -49.5 -60.999s-57.167 -21.5 -100.5 -21.5c-63.333 0 -106.5 15.5 -129.5 46.5zM222.999 726h123l-123 -136h-99z" />
    <glyph glyph-name="ucircumflex" unicode="&#xfb;" 
d="M75.5 38.5c-23 31 -34.501 77.167 -34.501 138.5v351h116v-327c0 -27.334 0.833008 -47.667 2.5 -61s5.83398 -24 12.5 -32c6.66699 -8 17.667 -12 33 -12s26.333 3.5 33 10.5c6.66797 7 10.835 17.167 12.501 30.5c1.66699 13.333 2.5 34.666 2.5 63.999v327h116v-351
c0 -42 -4.66699 -76.167 -14 -102.5s-25.833 -46.666 -49.5 -60.999s-57.167 -21.5 -100.5 -21.5c-63.333 0 -106.5 15.5 -129.5 46.5zM161.999 732h83l103 -148h-87l-56 80l-57 -80h-87z" />
    <glyph glyph-name="udieresis" unicode="&#xfc;" 
d="M75.5 38.5c-23 31 -34.501 77.167 -34.501 138.5v351h116v-327c0 -27.334 0.833008 -47.667 2.5 -61s5.83398 -24 12.5 -32c6.66699 -8 17.667 -12 33 -12s26.333 3.5 33 10.5c6.66797 7 10.835 17.167 12.501 30.5c1.66699 13.333 2.5 34.666 2.5 63.999v327h116v-351
c0 -42 -4.66699 -76.167 -14 -102.5s-25.833 -46.666 -49.5 -60.999s-57.167 -21.5 -100.5 -21.5c-63.333 0 -106.5 15.5 -129.5 46.5zM79.999 705h93v-114h-93v114zM235.999 705h93v-114h-93v114z" />
    <glyph glyph-name="yacute" unicode="&#xfd;" horiz-adv-x="409" 
d="M398 528l-143 -566.001c-8 -32.667 -20.5 -57.667 -37.5 -75s-38.5 -29.166 -64.5 -35.499s-59.333 -9.5 -100 -9.5h-4v102h42c34.667 0 57 9 67 27l-147 557h128l71 -321l66 321h122zM223 725.999h123l-123 -136h-99z" />
    <glyph glyph-name="thorn" unicode="&#xfe;" 
d="M41 690l115.999 -0.000976562v-204c9.33301 16.002 21.5 28.335 36.5 37c15 8.66699 32.5 13 52.5 13c38.667 0 69.334 -13.667 92.001 -41s34 -70.666 34 -129.999v-202c0 -59.333 -11.833 -102.666 -35.5 -129.999s-54.5 -41 -92.5 -41
c-18.667 0 -35.167 3.66699 -49.5 11c-14.334 7.33301 -28.167 18.666 -41.5 33.999v-195h-112v848zM243.499 115.999c8.33301 13.333 12.501 35.333 12.501 66v164c0 30 -4.16699 51.833 -12.5 65.5s-20.833 20.5 -37.5 20.5s-29.334 -6.83301 -38.001 -20.5
s-13 -35.5 -13 -65.5v-164c0 -57.333 17 -86 51 -86c16.667 0 29.167 6.66699 37.5 20z" />
    <glyph glyph-name="ydieresis" unicode="&#xff;" horiz-adv-x="409" 
d="M398 528l-143 -566.001c-8 -32.667 -20.5 -57.667 -37.5 -75s-38.5 -29.166 -64.5 -35.499s-59.333 -9.5 -100 -9.5h-4v102h42c34.667 0 57 9 67 27l-147 557h128l71 -321l66 321h122zM80 704.999h93v-114h-93v114zM236 704.999h93v-114h-93v114z" />
    <glyph glyph-name="dotlessi" unicode="&#x131;" horiz-adv-x="206" 
d="M45 528h116v-528h-116v528z" />
    <glyph glyph-name="OE" unicode="&#x152;" horiz-adv-x="641" 
d="M430 579l-0.00195312 -173h160v-110h-160v-186h186v-110h-292v28c-31.333 -24 -67.666 -36 -108.999 -36c-58 0 -102 16.5 -132 49.5s-45 82.5 -45 148.5v311c0 66.667 15.833 116.5 47.5 149.5s76.834 49.5 135.501 49.5c39.334 0 73.667 -10.333 103 -31v21h292v-111
h-186zM306.998 481c0 35.333 -6 62.167 -18 80.5s-30 27.5 -54 27.5c-26 0 -44.833 -9 -56.5 -27s-17.5 -45 -17.5 -81v-277c0 -67.333 24.667 -101 74 -101c23.334 0 41.167 8.83301 53.5 26.5s18.5 42.5 18.5 74.5v277z" />
    <glyph glyph-name="oe" unicode="&#x153;" horiz-adv-x="630" 
d="M373 175c0 -54 17.334 -81.001 52.001 -81.001c34 0 51 22.333 51 67v5h112v-6c0 -55.333 -14 -97.166 -42 -125.499s-68.333 -42.5 -121 -42.5c-46 0 -82 10.667 -108 32c-27.333 -21.333 -64.333 -32 -111 -32c-54.667 0 -96.334 15 -125.001 45s-43 78.667 -43 146
v162c0 67.333 14.333 116 43 146s70.334 45 125.001 45c46.667 0 83.667 -10.667 111 -32c25.333 21.333 60.333 32 105 32c54 0 95.833 -17 125.499 -51c29.667 -34 44.5 -86.333 44.5 -157v-105h-219v-48zM257.001 345.999c0 30 -4.33203 51.833 -12.999 65.5
s-21.667 20.5 -39 20.5c-16.667 0 -29.334 -6.83301 -38.001 -20.5s-13 -35.5 -13 -65.5v-164c0 -30 4.33301 -51.833 13 -65.5s21.334 -20.5 38 -20.5c17.333 0 30.333 6.83301 39 20.5s13 35.5 13 65.5v164zM373.002 306.999h103v39c0 30 -4.33301 51.833 -13 65.5
s-21.667 20.5 -39 20.5c-16.667 0 -29.334 -6.83301 -38 -20.5c-8.66699 -13.667 -13 -35.5 -13 -65.5v-39z" />
    <glyph glyph-name="Scaron" unicode="&#x160;" horiz-adv-x="426" 
d="M68 45c-32 35.333 -48.333 85.999 -49 151.999h116c1.33301 -34 8.16602 -59 20.499 -75s30.5 -24 54.5 -24s41.5 7.33301 52.5 22s16.5 38 16.5 70c0 26.667 -6.16699 47.834 -18.5 63.5c-12.333 15.667 -33.166 30.167 -62.499 43.5l-47 21
c-44.667 20 -76.834 44.667 -96.501 74c-19.667 29.334 -29.5 68.667 -29.5 118c0 58 16.833 104.333 50.5 139s79.167 52 136.5 52c56.667 0 100.5 -17.167 131.5 -51.5s47.5 -83.833 49.5 -148.5h-113c-0.666992 31.333 -6.16699 54.833 -16.5 70.5s-27.5 23.5 -51.5 23.5
c-44.667 0 -67 -26.333 -67 -79c0 -24 5.5 -43.167 16.5 -57.5s29.5 -27.166 55.5 -38.499l45 -20c48 -21.333 82.833 -48 104.5 -80s32.5 -74.667 32.5 -128c0 -64 -16.667 -113.333 -50 -148s-80.666 -52 -141.999 -52c-60.667 0 -107 17.667 -139 53zM66 890.999h87
l57 -79l56 79h87l-103 -148h-83z" />
    <glyph glyph-name="scaron" unicode="&#x161;" horiz-adv-x="392" 
d="M75 34.5c-30 28.333 -45.002 67.499 -45.002 117.499v6h112v-6c0 -20 5 -35.5 15 -46.5s24 -16.5 42 -16.5c17.333 0 30.5 4.83301 39.5 14.5s13.5 23.834 13.5 42.501c0 14 -4.16699 26.167 -12.5 36.5s-21.5 19.5 -39.5 27.5l-60 26
c-40.667 17.333 -68.667 37.666 -84 60.999c-15.333 23.334 -23 52.667 -23 88c0 43.333 15 79.333 45 108s69.333 43 118 43s88 -14.333 118 -43s45 -66 45 -112v-10h-112v6c0 20.667 -4.66699 36.334 -14 47.001s-22 16 -38 16c-15.333 0 -27.5 -4.33301 -36.5 -13
s-13.5 -21 -13.5 -37c0 -14 3.33301 -25.667 10 -35s19.334 -18 38.001 -26l65 -28c38 -16.667 65.333 -36.834 82 -60.5c16.667 -23.667 25 -54.5 25 -92.5c0 -46 -15.167 -83.5 -45.5 -112.5s-71.166 -43.5 -122.499 -43.5s-92 14.167 -122 42.5zM51.998 728.999h87
l57 -79l56 79h87l-103 -148h-83z" />
    <glyph glyph-name="Ydieresis" unicode="&#x178;" horiz-adv-x="415" 
d="M269 269v-269h-123v271l-140 419h135l66 -264l66 264h136zM82 867h93v-114h-93v114zM238 867h93v-114h-93v114z" />
    <glyph glyph-name="Zcaron" unicode="&#x17d;" horiz-adv-x="359" 
d="M340 111v-111h-319v111l194 468h-184v111h305v-111l-193 -468h197zM36 891h87l57 -79l56 79h87l-103 -148h-83z" />
    <glyph glyph-name="zcaron" unicode="&#x17e;" horiz-adv-x="384" 
d="M346 430l-189 -332h189v-98h-308v98l192 332h-192v98h308v-98zM48 729h87l57 -79l56 79h87l-103 -148h-83z" />
    <glyph glyph-name="florin" unicode="&#x192;" horiz-adv-x="390" 
d="M7 -53h22c22.667 0 39.167 4.83301 49.5 14.5s17.166 27.5 20.499 53.5l41 301h-72v105h86l14 106c7.33301 56 24.833 97.167 52.5 123.5s68.5 39.5 122.5 39.5h40v-105h-27c-22.667 0 -39.167 -4.66699 -49.5 -14s-17.166 -27 -20.499 -53l-13 -97h73v-105h-88l-41 -311
c-7.33398 -56.667 -24.667 -98 -52 -124s-68.333 -39 -123 -39h-35v105z" />
    <glyph glyph-name="circumflex" unicode="&#x2c6;" horiz-adv-x="500" 
d="M207 732h83l103 -148h-87l-56 80l-57 -80h-87z" />
    <glyph glyph-name="caron" unicode="&#x2c7;" horiz-adv-x="500" 
d="M106 729h87l57 -79l56 79h87l-103 -148h-83z" />
    <glyph glyph-name="dotaccent" unicode="&#x2d9;" horiz-adv-x="500" 
d="M192 698h116v-97h-116v97z" />
    <glyph glyph-name="ring" unicode="&#x2da;" horiz-adv-x="500" 
d="M183 600c-18 18 -27 40.333 -27 67c0 27.333 9 50 27 68s40.333 27 67 27s49 -9 67 -27s27 -40.667 27 -68c0 -26.667 -9 -49 -27 -67s-40.333 -27 -67 -27s-49 9 -67 27zM281.5 635c8.33301 8.66895 12.5 19.3369 12.5 32.001c0 13.333 -4.16699 24.333 -12.5 33
s-18.833 13 -31.5 13c-13.334 0 -24.167 -4.33301 -32.5 -13s-12.5 -19.667 -12.5 -33c0 -12.667 4.33301 -23.334 13 -32.001s19.334 -13 32 -13c12.667 0 23.167 4.33301 31.5 13z" />
    <glyph glyph-name="tilde" unicode="&#x2dc;" horiz-adv-x="500" 
d="M137 682c13.333 14 24.5 23.5 33.5 28.5s19.833 7.5 32.5 7.5c10.667 0 20 -1.66699 28 -5s16.333 -8 25 -14c10 -6 18 -10.167 24 -12.5s13 -3.5 21 -3.5c10.667 0 19.667 2.5 27 7.5c7.33496 5 18.668 15.5 34 31.5v-92c-12.667 -14 -23.334 -23.667 -32 -29
c-8.66699 -5.33301 -19.667 -8 -33 -8c-11.333 0 -20.666 1.66699 -27.999 5s-16 8 -26 14c-9.33301 5.33301 -16.833 9.33301 -22.5 12s-12.834 4 -21.501 4c-10.667 0 -20.167 -2.66699 -28.5 -8c-8.33301 -5.33789 -19.5 -15.6709 -33.5 -31v93z" />
    <glyph glyph-name="gravecomb" unicode="&#x300;" horiz-adv-x="0" 
d="M-141 726h123l99 -136h-99z" />
    <glyph glyph-name="acutecomb" unicode="&#x301;" horiz-adv-x="0" 
d="M18 726h123l-123 -136h-99z" />
    <glyph glyph-name="uni0302" unicode="&#x302;" horiz-adv-x="0" 
d="M-43 732h83l103 -148h-87l-56 80l-57 -80h-87z" />
    <glyph glyph-name="tildecomb" unicode="&#x303;" horiz-adv-x="0" 
d="M-113 682c13.333 14 24.502 23.5 33.502 28.5s19.833 7.5 32.5 7.5c10.667 0 20 -1.66699 28 -5s16.333 -8 25 -14c10 -6 18 -10.167 24 -12.5s13 -3.5 21 -3.5c10.667 0 19.667 2.5 27 7.5s18.666 15.5 33.999 31.5v-92c-12.667 -14 -23.334 -23.667 -32.001 -29
s-19.667 -8 -33 -8c-11.333 0 -20.666 1.66699 -27.999 5s-16 8 -26 14c-9.33301 5.33301 -16.833 9.33301 -22.5 12s-12.834 4 -21.501 4c-10.667 0 -20.167 -2.66699 -28.5 -8c-8.33301 -5.33789 -19.5 -15.6709 -33.5 -31v93z" />
    <glyph glyph-name="uni0308" unicode="&#x308;" horiz-adv-x="0" 
d="M-125 705h93v-114h-93v114zM31 705h93v-114h-93v114z" />
    <glyph glyph-name="uni030A" unicode="&#x30a;" horiz-adv-x="0" 
d="M-67 600c-18 18 -27 40.333 -27 67c0 27.333 9 50 27 68s40.333 27 67 27s49 -9 67 -27s27 -40.667 27 -68c0 -26.667 -9 -49 -27 -67s-40.333 -27 -67 -27s-49 9 -67 27zM31.5 635c8.33301 8.66895 12.5 19.3369 12.5 32.001c0 13.333 -4.16699 24.333 -12.5 33
s-18.833 13 -31.5 13c-13.333 0 -24.166 -4.33301 -32.499 -13s-12.5 -19.667 -12.5 -33c0 -12.667 4.16699 -23.334 12.5 -32.001s19.166 -13 32.499 -13c12.667 0 23.167 4.33301 31.5 13z" />
    <glyph glyph-name="endash" unicode="&#x2013;" horiz-adv-x="417" 
d="M0 401h417v-110h-417v110z" />
    <glyph glyph-name="emdash" unicode="&#x2014;" horiz-adv-x="833" 
d="M0 401h833v-110h-833v110z" />
    <glyph glyph-name="quoteleft" unicode="&#x2018;" horiz-adv-x="171" 
d="M142 434h-113v202l113 91v-293zM71 690z" />
    <glyph glyph-name="quoteright" unicode="&#x2019;" horiz-adv-x="171" 
d="M29 690h113v-202l-113 -91v293z" />
    <glyph glyph-name="quotesinglbase" unicode="&#x201a;" horiz-adv-x="171" 
d="M29 133h113v-202l-113 -91v293z" />
    <glyph glyph-name="quotedblleft" unicode="&#x201c;" horiz-adv-x="351" 
d="M142 434h-113v202l113 91v-293zM322 434h-113v202l113 91v-293zM185 690z" />
    <glyph glyph-name="quotedblright" unicode="&#x201d;" horiz-adv-x="351" 
d="M29 690h113v-202l-113 -91v293zM209 690h113v-202l-113 -91v293z" />
    <glyph glyph-name="quotedblbase" unicode="&#x201e;" horiz-adv-x="351" 
d="M209 133h113v-202l-113 -91v293zM29 133h113v-202l-113 -91v293z" />
    <glyph glyph-name="dagger" unicode="&#x2020;" horiz-adv-x="456" 
d="M415 373h-125v-531h-123v531h-126v111h126v206h123v-206h125v-111z" />
    <glyph glyph-name="daggerdbl" unicode="&#x2021;" horiz-adv-x="456" 
d="M290 373v-206h125v-111h-125v-214h-123v214h-126v111h126v206h-126v111h126v206h123v-206h125v-111h-125z" />
    <glyph glyph-name="bullet" unicode="&#x2022;" horiz-adv-x="396" 
d="M100 211c-26 26 -39 58.333 -39 97c0 39.333 13 71.833 39 97.5s58.333 38.5 97 38.5c39.333 0 72 -13 98 -39s39 -58.333 39 -97s-13 -71 -39 -97s-58.667 -39 -98 -39c-38.667 0 -71 13 -97 39z" />
    <glyph glyph-name="ellipsis" unicode="&#x2026;" horiz-adv-x="636" 
d="M29 132h117v-132h-117v132zM490 132h117v-132h-117v132zM259 132h117v-132h-117v132z" />
    <glyph glyph-name="perthousand" unicode="&#x2030;" horiz-adv-x="1046" 
d="M470 698h82l-260 -698h-82zM31 378v206c0 74.667 37 112 111 112s111 -37.333 111 -112v-206c0 -74.667 -37 -112 -111 -112s-111 37.333 -111 112zM165.5 350.5c4.33301 7 6.50195 20.167 6.50195 39.5v182c0 20 -2.16699 33.333 -6.5 40
c-4.33398 6.66699 -12.167 10 -23.5 10c-11.334 0 -19.001 -3.33301 -23.001 -10s-6 -20 -6 -40v-182c0 -19.333 2 -32.5 6 -39.5s11.667 -10.5 23 -10.5s19.166 3.5 23.499 10.5zM509.002 105v206c0 74.667 37 112 111 112s111 -37.333 111 -112v-206
c0 -74.667 -37 -112 -111 -112s-111 37.333 -111 112zM793.002 105v206c0 74.667 37 112 111 112s111 -37.333 111 -112v-206c0 -74.667 -37 -112 -111 -112s-111 37.333 -111 112zM643.502 77.5c4.33301 7 6.5 20.167 6.5 39.5v182c0 20 -2.16699 33.333 -6.5 40
c-4.33789 6.66699 -12.1709 10 -23.499 10c-11.333 0 -19 -3.33301 -23 -10s-6 -20 -6 -40v-182c0 -19.333 2 -32.5 6 -39.5s11.667 -10.5 23 -10.5s19.166 3.5 23.499 10.5zM927.502 77.5c4.33301 7 6.5 20.167 6.5 39.5v182c0 20 -2.16699 33.333 -6.5 40
c-4.33984 6.66699 -12.1729 10 -23.499 10c-11.333 0 -19 -3.33301 -23 -10s-6 -20 -6 -40v-182c0 -19.333 2 -32.5 6 -39.5s11.667 -10.5 23 -10.5s19.166 3.5 23.499 10.5z" />
    <glyph glyph-name="guilsinglleft" unicode="&#x2039;" horiz-adv-x="249" 
d="M14 264l194 198v-110l-86 -88l86 -88v-110z" />
    <glyph glyph-name="guilsinglright" unicode="&#x203a;" horiz-adv-x="256" 
d="M41 176l86 88l-86 88v110l194 -198l-194 -198v110z" />
    <glyph glyph-name="Euro" unicode="&#x20ac;" horiz-adv-x="454" 
d="M117 37c-28 30.667 -41.998 76.666 -41.998 137.999v66h-55v81h55v51h-55v81h55v63c0 59.333 14.5 104.666 43.5 135.999s71.833 47 128.5 47c55.333 0 97.166 -15.167 125.499 -45.5c28.333 -30.334 42.833 -75.167 43.5 -134.5h-115
c-0.666992 24.6689 -5 42.8359 -13 54.501c-8 11.667 -20.667 17.5 -38 17.5c-18.667 0 -32 -6 -40 -18s-12 -30 -12 -54v-66h154l-14 -81h-140v-51h132l-15 -81h-117v-67c0 -25.333 3.83301 -44.166 11.5 -56.499s20.5 -18.5 38.5 -18.5c17.334 0 30.167 6 38.5 18
c8.33594 12 13.1689 30 14.5 54h115c-4.66699 -120 -61.334 -180 -170.001 -180c-58 0 -101 15.333 -129 46z" />
    <glyph glyph-name="trademark" unicode="&#x2122;" horiz-adv-x="621" 
d="M93 613h-72v77h229v-77h-73v-317h-84v317zM292 690h85l60 -218h2l56 218h84v-394h-78v205h-2l-38 -143h-50l-39 143h-2v-205h-78v394z" />
    <glyph glyph-name=".null" horiz-adv-x="0" 
 />
    <glyph glyph-name="NULL" horiz-adv-x="600" 
 />
    <glyph glyph-name="t_t" horiz-adv-x="582" 
d="M474 447v-276c0 -44.667 22.333 -67 67 -67h4v-104h-4c-60 0 -105.5 13.167 -136.5 39.5s-46.5 67.833 -46.5 124.5v283h-164v-276c0 -44.667 22.333 -67 67 -67h4v-104h-4c-60 0 -105.5 13.167 -136.5 39.5s-46.5 67.833 -46.5 124.5v283h-59v81h59v93l116 47v-140h164
v93l116 47v-140h84v-81h-84z" />
    <glyph glyph-name="zero.dnom" horiz-adv-x="284" 
d="M31 106v206c0 74.667 37 112 111 112s111 -37.333 111 -112v-206c0 -74.667 -37 -112 -111 -112s-111 37.333 -111 112zM165.5 78.5c4.33301 7 6.50195 20.167 6.50195 39.5v182c0 20 -2.16699 33.333 -6.5 40c-4.33398 6.66699 -12.167 10 -23.5 10
c-11.334 0 -19.001 -3.33301 -23.001 -10s-6 -20 -6 -40v-182c0 -19.333 2 -32.5 6 -39.5s11.667 -10.5 23 -10.5s19.166 3.5 23.499 10.5z" />
    <glyph glyph-name="one.dnom" horiz-adv-x="215" 
d="M88 321l-64 -43v96l64 43h83v-417h-83v321z" />
    <glyph glyph-name="two.dnom" horiz-adv-x="283" 
d="M31 68l118 175.002c8 11.333 13.5 20.666 16.5 27.999s4.5 17 4.5 29v22c0 7.33496 -2.33301 13.668 -7 19c-4.66699 5.33301 -12 8 -22 8c-18 0 -27 -8 -27 -24v-31h-80v39c0 28 10 50 30 66s46.333 24 79 24c33.333 0 59.5 -8.16699 78.5 -24.5
s28.5 -38.833 28.5 -67.5v-31c0 -19.333 -2.5 -35.333 -7.5 -48s-13.167 -27.334 -24.5 -44.001l-95 -134h128v-74h-220v68z" />
    <glyph glyph-name="three.dnom" horiz-adv-x="278" 
d="M56 18.5c-18.667 16.333 -28 39.5 -28 69.5v31h80v-24c0 -18 9.33301 -27 28 -27c11.333 0 19 2.33301 23 7s6 12.667 6 24v39c0 14 -2.16699 24 -6.5 30s-13.5 9 -27.5 9h-16v74h18c12.667 0 21.167 2.66699 25.5 8s6.5 14 6.5 26v32c0 10.667 -2.16699 18.5 -6.5 23.5
s-11.833 7.5 -22.5 7.5c-18.667 0 -28 -9 -28 -27v-25h-80v30c0 30.667 9.66699 54.5 29 71.5s46 25.5 80 25.5c35.333 0 62.5 -8.5 81.5 -25.5s28.5 -40.833 28.5 -71.5v-34c0 -19.333 -3.16699 -34.5 -9.5 -45.5s-18.5 -20.833 -36.5 -29.5c18.667 -8 31 -17.333 37 -28
s9 -26 9 -46v-46c0 -33.333 -9.66699 -58.833 -29 -76.5s-46.333 -26.5 -81 -26.5c-35.333 0 -62.333 8.16699 -81 24.5z" />
    <glyph glyph-name="four.dnom" horiz-adv-x="287" 
d="M267 64h-29v-64h-82v64h-138v74l91 279h82l-90 -279h55v81h82v-81h29v-74z" />
    <glyph glyph-name="zero.numr" horiz-adv-x="284" 
d="M31 379v206c0 74.667 37 112 111 112s111 -37.333 111 -112v-206c0 -74.667 -37 -112 -111 -112s-111 37.333 -111 112zM165.5 351.5c4.33301 7 6.50195 20.167 6.50195 39.5v182c0 20 -2.16699 33.333 -6.5 40c-4.33398 6.66699 -12.167 10 -23.5 10
c-11.334 0 -19.001 -3.33301 -23.001 -10s-6 -20 -6 -40v-182c0 -19.333 2 -32.5 6 -39.5s11.667 -10.5 23 -10.5s19.166 3.5 23.499 10.5z" />
    <glyph glyph-name="one.numr" horiz-adv-x="215" 
d="M88 594l-64 -43v96l64 43h83v-417h-83v321z" />
    <glyph glyph-name="two.numr" horiz-adv-x="283" 
d="M31 341l118 175.003c8 11.333 13.5 20.666 16.5 27.999s4.5 17 4.5 29v22c0 7.33301 -2.33301 13.666 -7 18.999s-12 8 -22 8c-18 0 -27 -8 -27 -24v-31h-80v39c0 28 10 50 30 66s46.333 24 79 24c33.333 0 59.5 -8.16699 78.5 -24.5s28.5 -38.833 28.5 -67.5v-31
c0 -19.333 -2.5 -35.333 -7.5 -48s-13.167 -27.334 -24.5 -44.001l-95 -134h128v-74h-220v68z" />
    <glyph glyph-name="three.numr" horiz-adv-x="278" 
d="M56 291.5c-18.667 16.333 -28 39.5 -28 69.5v31h80v-24c0 -18 9.33301 -27 28 -27c11.333 0 19 2.33301 23 7s6 12.667 6 24v39c0 14 -2.16699 24 -6.5 30s-13.5 9 -27.5 9h-16v74h18c12.667 0 21.167 2.66699 25.5 8s6.5 14 6.5 26v32c0 10.667 -2.16699 18.5 -6.5 23.5
s-11.833 7.5 -22.5 7.5c-18.667 0 -28 -9 -28 -27v-25h-80v30c0 30.667 9.66699 54.5 29 71.5s46 25.5 80 25.5c35.333 0 62.5 -8.5 81.5 -25.5s28.5 -40.833 28.5 -71.5v-34c0 -19.333 -3.16699 -34.5 -9.5 -45.5s-18.5 -20.833 -36.5 -29.5c18.667 -8 31 -17.333 37 -28
s9 -26 9 -46v-46c0 -33.333 -9.66699 -58.833 -29 -76.5s-46.333 -26.5 -81 -26.5c-35.333 0 -62.333 8.16699 -81 24.5z" />
    <glyph glyph-name="four.numr" horiz-adv-x="287" 
d="M267 337h-29v-64h-82v64h-138v74l91 279h82l-90 -279h55v81h82v-81h29v-74z" />
    <glyph glyph-name="zero.sups" horiz-adv-x="284" 
d="M31 536v206c0 74.667 37 112 111 112s111 -37.333 111 -112v-206c0 -74.667 -37 -112 -111 -112s-111 37.333 -111 112zM165.5 508.5c4.33301 7 6.50195 20.167 6.50195 39.5v182c0 20 -2.16699 33.333 -6.5 40c-4.33398 6.66699 -12.167 10 -23.5 10
c-11.334 0 -19.001 -3.33301 -23.001 -10s-6 -20 -6 -40v-182c0 -19.333 2 -32.5 6 -39.5s11.667 -10.5 23 -10.5s19.166 3.5 23.499 10.5z" />
    <glyph glyph-name="one.sups" horiz-adv-x="215" 
d="M88 751l-64 -43v96l64 43h83v-417h-83v321z" />
    <glyph glyph-name="two.sups" horiz-adv-x="283" 
d="M31 498l118 175.003c8 11.333 13.5 20.666 16.5 27.999s4.5 17 4.5 29v22c0 7.33301 -2.33301 13.666 -7 18.999s-12 8 -22 8c-18 0 -27 -8 -27 -24v-31h-80v39c0 28 10 50 30 66s46.333 24 79 24c33.333 0 59.5 -8.16699 78.5 -24.5s28.5 -38.833 28.5 -67.5v-31
c0 -19.333 -2.5 -35.333 -7.5 -48s-13.167 -27.334 -24.5 -44.001l-95 -134h128v-74h-220v68z" />
    <glyph glyph-name="three.sups" horiz-adv-x="278" 
d="M56 448.5c-18.667 16.333 -28 39.5 -28 69.5v31h80v-24c0 -18 9.33301 -27 28 -27c11.333 0 19 2.33301 23 7s6 12.667 6 24v39c0 14 -2.16699 24 -6.5 30s-13.5 9 -27.5 9h-16v74h18c12.667 0 21.167 2.66699 25.5 8s6.5 14 6.5 26v32c0 10.667 -2.16699 18.5 -6.5 23.5
s-11.833 7.5 -22.5 7.5c-18.667 0 -28 -9 -28 -27v-25h-80v30c0 30.667 9.66699 54.5 29 71.5s46 25.5 80 25.5c35.333 0 62.5 -8.5 81.5 -25.5s28.5 -40.833 28.5 -71.5v-34c0 -19.333 -3.16699 -34.5 -9.5 -45.5s-18.5 -20.833 -36.5 -29.5c18.667 -8 31 -17.333 37 -28
s9 -26 9 -46v-46c0 -33.333 -9.66699 -58.833 -29 -76.5s-46.333 -26.5 -81 -26.5c-35.333 0 -62.333 8.16699 -81 24.5z" />
    <glyph glyph-name="four.sups" horiz-adv-x="287" 
d="M267 494h-29v-64h-82v64h-138v74l91 279h82l-90 -279h55v81h82v-81h29v-74z" />
    <glyph glyph-name="glyph249" horiz-adv-x="194" 
d="M186 698h82l-260 -698h-82z" />
    </font>
</defs>
</svg>
